<svg width="342" height="80" viewBox="0 0 342 80" fill="none" xmlns="http://www.w3.org/2000/svg">
<rect width="342" height="80" fill="white"/>
<rect y="27" width="26" height="26" rx="3" fill="#FF316F"/>
<line x1="36.5" y1="32" x2="36.5" y2="48" stroke="#E6E6E6"/>
<path d="M56.252 35.5L58.828 25.7H62.048L64.624 35.5H62.72L62.188 33.344H58.688L58.156 35.5H56.252ZM59.122 31.636H61.754L60.564 26.862H60.312L59.122 31.636ZM65.517 35.5V33.876H66.805V27.324H65.517V25.7H70.557C71.1544 25.7 71.6724 25.8027 72.111 26.008C72.559 26.204 72.9044 26.4887 73.147 26.862C73.399 27.226 73.525 27.6647 73.525 28.178V28.318C73.525 28.766 73.441 29.1347 73.273 29.424C73.105 29.704 72.9044 29.9233 72.671 30.082C72.447 30.2313 72.2324 30.3387 72.027 30.404V30.656C72.2324 30.712 72.4564 30.8193 72.699 30.978C72.9417 31.1273 73.147 31.3467 73.315 31.636C73.4924 31.9253 73.581 32.3033 73.581 32.77V32.91C73.581 33.4513 73.455 33.918 73.203 34.31C72.951 34.6927 72.601 34.9867 72.153 35.192C71.7144 35.3973 71.201 35.5 70.613 35.5H65.517ZM68.653 33.82H70.389C70.7904 33.82 71.1124 33.722 71.355 33.526C71.607 33.33 71.733 33.05 71.733 32.686V32.546C71.733 32.182 71.6117 31.902 71.369 31.706C71.1264 31.51 70.7997 31.412 70.389 31.412H68.653V33.82ZM68.653 29.732H70.361C70.7437 29.732 71.0564 29.634 71.299 29.438C71.551 29.242 71.677 28.9713 71.677 28.626V28.486C71.677 28.1313 71.5557 27.8607 71.313 27.674C71.0704 27.478 70.753 27.38 70.361 27.38H68.653V29.732ZM78.8179 35.696C77.6046 35.696 76.6433 35.36 75.9339 34.688C75.2246 34.0067 74.8699 33.036 74.8699 31.776V29.424C74.8699 28.164 75.2246 27.198 75.9339 26.526C76.6433 25.8447 77.6046 25.504 78.8179 25.504C80.0219 25.504 80.9506 25.8353 81.6039 26.498C82.2666 27.1513 82.5979 28.052 82.5979 29.2V29.284H80.7779V29.144C80.7779 28.5653 80.6146 28.0893 80.2879 27.716C79.9706 27.3427 79.4806 27.156 78.8179 27.156C78.1646 27.156 77.6513 27.3567 77.2779 27.758C76.9046 28.1593 76.7179 28.7053 76.7179 29.396V31.804C76.7179 32.4853 76.9046 33.0313 77.2779 33.442C77.6513 33.8433 78.1646 34.044 78.8179 34.044C79.4806 34.044 79.9706 33.8573 80.2879 33.484C80.6146 33.1013 80.7779 32.6253 80.7779 32.056V31.804H82.5979V32C82.5979 33.148 82.2666 34.0533 81.6039 34.716C80.9506 35.3693 80.0219 35.696 78.8179 35.696ZM87.3784 35.5V33.876H88.6664V27.324H87.3784V25.7H92.4184C93.0157 25.7 93.5337 25.8027 93.9724 26.008C94.4204 26.204 94.7657 26.4887 95.0084 26.862C95.2604 27.226 95.3864 27.6647 95.3864 28.178V28.318C95.3864 28.766 95.3024 29.1347 95.1344 29.424C94.9664 29.704 94.7657 29.9233 94.5324 30.082C94.3084 30.2313 94.0937 30.3387 93.8884 30.404V30.656C94.0937 30.712 94.3177 30.8193 94.5604 30.978C94.803 31.1273 95.0084 31.3467 95.1764 31.636C95.3537 31.9253 95.4424 32.3033 95.4424 32.77V32.91C95.4424 33.4513 95.3164 33.918 95.0644 34.31C94.8124 34.6927 94.4624 34.9867 94.0144 35.192C93.5757 35.3973 93.0624 35.5 92.4744 35.5H87.3784ZM90.5144 33.82H92.2504C92.6517 33.82 92.9737 33.722 93.2164 33.526C93.4684 33.33 93.5944 33.05 93.5944 32.686V32.546C93.5944 32.182 93.473 31.902 93.2304 31.706C92.9877 31.51 92.661 31.412 92.2504 31.412H90.5144V33.82ZM90.5144 29.732H92.2224C92.605 29.732 92.9177 29.634 93.1604 29.438C93.4124 29.242 93.5384 28.9713 93.5384 28.626V28.486C93.5384 28.1313 93.417 27.8607 93.1744 27.674C92.9317 27.478 92.6144 27.38 92.2224 27.38H90.5144V29.732ZM99.1673 35.696C98.6726 35.696 98.2293 35.612 97.8373 35.444C97.4453 35.2667 97.1326 35.0147 96.8993 34.688C96.6753 34.352 96.5633 33.946 96.5633 33.47C96.5633 32.994 96.6753 32.5973 96.8993 32.28C97.1326 31.9533 97.4499 31.7107 97.8513 31.552C98.2619 31.384 98.7286 31.3 99.2513 31.3H101.155V30.908C101.155 30.5813 101.053 30.3153 100.847 30.11C100.642 29.8953 100.315 29.788 99.8673 29.788C99.4286 29.788 99.1019 29.8907 98.8873 30.096C98.6726 30.292 98.5326 30.5487 98.4673 30.866L96.8433 30.32C96.9553 29.9653 97.1326 29.6433 97.3753 29.354C97.6273 29.0553 97.9586 28.8173 98.3693 28.64C98.7893 28.4533 99.2979 28.36 99.8953 28.36C100.81 28.36 101.533 28.5887 102.065 29.046C102.597 29.5033 102.863 30.166 102.863 31.034V33.624C102.863 33.904 102.994 34.044 103.255 34.044H103.815V35.5H102.639C102.294 35.5 102.009 35.416 101.785 35.248C101.561 35.08 101.449 34.856 101.449 34.576V34.562H101.183C101.146 34.674 101.062 34.8233 100.931 35.01C100.801 35.1873 100.595 35.346 100.315 35.486C100.035 35.626 99.6526 35.696 99.1673 35.696ZM99.4753 34.268C99.9699 34.268 100.371 34.1327 100.679 33.862C100.997 33.582 101.155 33.2133 101.155 32.756V32.616H99.3773C99.0506 32.616 98.7939 32.686 98.6073 32.826C98.4206 32.966 98.3273 33.162 98.3273 33.414C98.3273 33.666 98.4253 33.8713 98.6213 34.03C98.8173 34.1887 99.1019 34.268 99.4753 34.268ZM105.105 35.5V28.556H106.841V29.466H107.093C107.205 29.2233 107.415 28.9947 107.723 28.78C108.031 28.556 108.498 28.444 109.123 28.444C109.664 28.444 110.136 28.57 110.537 28.822C110.948 29.0647 111.265 29.4053 111.489 29.844C111.713 30.2733 111.825 30.7773 111.825 31.356V35.5H110.061V31.496C110.061 30.9733 109.93 30.5813 109.669 30.32C109.417 30.0587 109.053 29.928 108.577 29.928C108.036 29.928 107.616 30.11 107.317 30.474C107.018 30.8287 106.869 31.328 106.869 31.972V35.5H105.105ZM113.732 35.5V25.7H115.496V31.118H115.748L118.044 28.556H120.34L117.134 31.916L120.452 35.5H118.184L115.748 32.742H115.496V35.5H113.732Z" fill="#1D1D1F"/>
<path d="M57.04 54.5V45.4H58.132V54.5H57.04ZM60.2528 54.5V48.143H61.2538V49.222H61.4358C61.5745 48.9187 61.8085 48.6457 62.1378 48.403C62.4758 48.1517 62.9698 48.026 63.6198 48.026C64.0965 48.026 64.5212 48.1257 64.8938 48.325C65.2752 48.5243 65.5785 48.819 65.8038 49.209C66.0292 49.599 66.1418 50.08 66.1418 50.652V54.5H65.1148V50.73C65.1148 50.0973 64.9545 49.638 64.6338 49.352C64.3218 49.066 63.8972 48.923 63.3598 48.923C62.7445 48.923 62.2418 49.1223 61.8518 49.521C61.4705 49.9197 61.2798 50.5133 61.2798 51.302V54.5H60.2528ZM70.3878 54.5C70.0238 54.5 69.7421 54.4003 69.5428 54.201C69.3521 54.0017 69.2568 53.7287 69.2568 53.382V49.04H67.3458V48.143H69.2568V45.881H70.2838V48.143H72.3638V49.04H70.2838V53.226C70.2838 53.486 70.4094 53.616 70.6608 53.616H72.0778V54.5H70.3878ZM76.7107 54.682C76.0694 54.682 75.5061 54.5477 75.0207 54.279C74.5354 54.0017 74.1584 53.616 73.8897 53.122C73.6211 52.628 73.4867 52.056 73.4867 51.406V51.25C73.4867 50.5913 73.6211 50.015 73.8897 49.521C74.1584 49.027 74.5311 48.6457 75.0077 48.377C75.4844 48.0997 76.0304 47.961 76.6457 47.961C77.2437 47.961 77.7724 48.091 78.2317 48.351C78.6911 48.6023 79.0507 48.9663 79.3107 49.443C79.5707 49.9197 79.7007 50.4787 79.7007 51.12V51.588H74.5137C74.5397 52.2727 74.7607 52.81 75.1767 53.2C75.5927 53.5813 76.1127 53.772 76.7367 53.772C77.2827 53.772 77.7031 53.6463 77.9977 53.395C78.2924 53.1437 78.5177 52.8447 78.6737 52.498L79.5577 52.927C79.4277 53.1957 79.2457 53.4643 79.0117 53.733C78.7864 54.0017 78.4874 54.227 78.1147 54.409C77.7507 54.591 77.2827 54.682 76.7107 54.682ZM74.5267 50.743H78.6607C78.6261 50.1537 78.4224 49.6943 78.0497 49.365C77.6857 49.0357 77.2177 48.871 76.6457 48.871C76.0651 48.871 75.5884 49.0357 75.2157 49.365C74.8431 49.6943 74.6134 50.1537 74.5267 50.743ZM81.4921 54.5V48.143H82.4931V48.923H82.6751C82.7878 48.6457 82.9611 48.442 83.1951 48.312C83.4291 48.182 83.7368 48.117 84.1181 48.117H84.8721V49.053H84.0531C83.5938 49.053 83.2211 49.183 82.9351 49.443C82.6578 49.6943 82.5191 50.0887 82.5191 50.626V54.5H81.4921ZM89.076 54.682C88.4346 54.682 87.8713 54.5477 87.386 54.279C86.9006 54.0017 86.5236 53.616 86.255 53.122C85.9863 52.628 85.852 52.056 85.852 51.406V51.25C85.852 50.5913 85.9863 50.015 86.255 49.521C86.5236 49.027 86.8963 48.6457 87.373 48.377C87.8496 48.0997 88.3956 47.961 89.011 47.961C89.609 47.961 90.1376 48.091 90.597 48.351C91.0563 48.6023 91.416 48.9663 91.676 49.443C91.936 49.9197 92.066 50.4787 92.066 51.12V51.588H86.879C86.905 52.2727 87.126 52.81 87.542 53.2C87.958 53.5813 88.478 53.772 89.102 53.772C89.648 53.772 90.0683 53.6463 90.363 53.395C90.6576 53.1437 90.883 52.8447 91.039 52.498L91.923 52.927C91.793 53.1957 91.611 53.4643 91.377 53.733C91.1516 54.0017 90.8526 54.227 90.48 54.409C90.116 54.591 89.648 54.682 89.076 54.682ZM86.892 50.743H91.026C90.9913 50.1537 90.7876 49.6943 90.415 49.365C90.051 49.0357 89.583 48.871 89.011 48.871C88.4303 48.871 87.9536 49.0357 87.581 49.365C87.2083 49.6943 86.9786 50.1537 86.892 50.743ZM96.4183 54.682C95.6297 54.682 94.9623 54.5 94.4163 54.136C93.879 53.772 93.554 53.1957 93.4413 52.407L94.4163 52.186C94.4857 52.602 94.6157 52.9313 94.8063 53.174C94.997 53.408 95.231 53.577 95.5083 53.681C95.7943 53.7763 96.0977 53.824 96.4183 53.824C96.895 53.824 97.272 53.7287 97.5493 53.538C97.8267 53.3473 97.9653 53.0917 97.9653 52.771C97.9653 52.4417 97.831 52.212 97.5623 52.082C97.3023 51.9433 96.9427 51.8307 96.4833 51.744L95.9503 51.653C95.543 51.5837 95.1703 51.4753 94.8323 51.328C94.4943 51.1807 94.2257 50.9813 94.0263 50.73C93.827 50.4787 93.7273 50.1623 93.7273 49.781C93.7273 49.209 93.9483 48.7627 94.3903 48.442C94.8323 48.1213 95.4173 47.961 96.1453 47.961C96.8647 47.961 97.4453 48.1257 97.8873 48.455C98.338 48.7757 98.6283 49.2307 98.7583 49.82L97.7963 50.067C97.7183 49.6077 97.532 49.287 97.2373 49.105C96.9427 48.9143 96.5787 48.819 96.1453 48.819C95.712 48.819 95.3697 48.9013 95.1183 49.066C94.867 49.222 94.7413 49.456 94.7413 49.768C94.7413 50.0713 94.8583 50.2967 95.0923 50.444C95.335 50.5827 95.6557 50.6867 96.0543 50.756L96.5873 50.847C97.038 50.925 97.441 51.0333 97.7963 51.172C98.1603 51.302 98.4463 51.4927 98.6543 51.744C98.871 51.9953 98.9793 52.3247 98.9793 52.732C98.9793 53.356 98.7453 53.837 98.2773 54.175C97.818 54.513 97.1983 54.682 96.4183 54.682ZM102.913 54.5C102.549 54.5 102.267 54.4003 102.068 54.201C101.877 54.0017 101.782 53.7287 101.782 53.382V49.04H99.8711V48.143H101.782V45.881H102.809V48.143H104.889V49.04H102.809V53.226C102.809 53.486 102.935 53.616 103.186 53.616H104.603V54.5H102.913ZM109.892 54.5V48.143H110.893V48.923H111.075C111.187 48.6457 111.361 48.442 111.595 48.312C111.829 48.182 112.136 48.117 112.518 48.117H113.272V49.053H112.453C111.993 49.053 111.621 49.183 111.335 49.443C111.057 49.6943 110.919 50.0887 110.919 50.626V54.5H109.892ZM116.526 54.682C116.084 54.682 115.681 54.604 115.317 54.448C114.953 54.292 114.667 54.0667 114.459 53.772C114.251 53.4773 114.147 53.1177 114.147 52.693C114.147 52.2597 114.251 51.9043 114.459 51.627C114.667 51.341 114.953 51.1287 115.317 50.99C115.681 50.8427 116.088 50.769 116.539 50.769H118.684V50.301C118.684 49.8503 118.55 49.495 118.281 49.235C118.021 48.975 117.631 48.845 117.111 48.845C116.6 48.845 116.201 48.9707 115.915 49.222C115.629 49.4647 115.434 49.794 115.33 50.21L114.368 49.898C114.472 49.5427 114.637 49.222 114.862 48.936C115.087 48.6413 115.386 48.4073 115.759 48.234C116.14 48.052 116.595 47.961 117.124 47.961C117.939 47.961 118.571 48.1733 119.022 48.598C119.473 49.014 119.698 49.6033 119.698 50.366V53.239C119.698 53.499 119.819 53.629 120.062 53.629H120.647V54.5H119.75C119.464 54.5 119.234 54.422 119.061 54.266C118.888 54.1013 118.801 53.8847 118.801 53.616V53.551H118.645C118.55 53.7157 118.42 53.889 118.255 54.071C118.099 54.2443 117.882 54.3873 117.605 54.5C117.328 54.6213 116.968 54.682 116.526 54.682ZM116.643 53.798C117.25 53.798 117.739 53.6203 118.112 53.265C118.493 52.901 118.684 52.394 118.684 51.744V51.601H116.578C116.171 51.601 115.833 51.692 115.564 51.874C115.304 52.0473 115.174 52.3117 115.174 52.667C115.174 53.0223 115.308 53.2997 115.577 53.499C115.854 53.6983 116.21 53.798 116.643 53.798ZM123.975 54.5C123.611 54.5 123.329 54.4003 123.13 54.201C122.939 54.0017 122.844 53.7287 122.844 53.382V49.04H120.933V48.143H122.844V45.881H123.871V48.143H125.951V49.04H123.871V53.226C123.871 53.486 123.996 53.616 124.248 53.616H125.665V54.5H123.975ZM130.298 54.682C129.656 54.682 129.093 54.5477 128.608 54.279C128.122 54.0017 127.745 53.616 127.477 53.122C127.208 52.628 127.074 52.056 127.074 51.406V51.25C127.074 50.5913 127.208 50.015 127.477 49.521C127.745 49.027 128.118 48.6457 128.595 48.377C129.071 48.0997 129.617 47.961 130.233 47.961C130.831 47.961 131.359 48.091 131.819 48.351C132.278 48.6023 132.638 48.9663 132.898 49.443C133.158 49.9197 133.288 50.4787 133.288 51.12V51.588H128.101C128.127 52.2727 128.348 52.81 128.764 53.2C129.18 53.5813 129.7 53.772 130.324 53.772C130.87 53.772 131.29 53.6463 131.585 53.395C131.879 53.1437 132.105 52.8447 132.261 52.498L133.145 52.927C133.015 53.1957 132.833 53.4643 132.599 53.733C132.373 54.0017 132.074 54.227 131.702 54.409C131.338 54.591 130.87 54.682 130.298 54.682ZM128.114 50.743H132.248C132.213 50.1537 132.009 49.6943 131.637 49.365C131.273 49.0357 130.805 48.871 130.233 48.871C129.652 48.871 129.175 49.0357 128.803 49.365C128.43 49.6943 128.2 50.1537 128.114 50.743ZM137.64 54.682C136.851 54.682 136.184 54.5 135.638 54.136C135.101 53.772 134.776 53.1957 134.663 52.407L135.638 52.186C135.707 52.602 135.837 52.9313 136.028 53.174C136.219 53.408 136.453 53.577 136.73 53.681C137.016 53.7763 137.319 53.824 137.64 53.824C138.117 53.824 138.494 53.7287 138.771 53.538C139.048 53.3473 139.187 53.0917 139.187 52.771C139.187 52.4417 139.053 52.212 138.784 52.082C138.524 51.9433 138.164 51.8307 137.705 51.744L137.172 51.653C136.765 51.5837 136.392 51.4753 136.054 51.328C135.716 51.1807 135.447 50.9813 135.248 50.73C135.049 50.4787 134.949 50.1623 134.949 49.781C134.949 49.209 135.17 48.7627 135.612 48.442C136.054 48.1213 136.639 47.961 137.367 47.961C138.086 47.961 138.667 48.1257 139.109 48.455C139.56 48.7757 139.85 49.2307 139.98 49.82L139.018 50.067C138.94 49.6077 138.754 49.287 138.459 49.105C138.164 48.9143 137.8 48.819 137.367 48.819C136.934 48.819 136.591 48.9013 136.34 49.066C136.089 49.222 135.963 49.456 135.963 49.768C135.963 50.0713 136.08 50.2967 136.314 50.444C136.557 50.5827 136.877 50.6867 137.276 50.756L137.809 50.847C138.26 50.925 138.663 51.0333 139.018 51.172C139.382 51.302 139.668 51.4927 139.876 51.744C140.093 51.9953 140.201 52.3247 140.201 52.732C140.201 53.356 139.967 53.837 139.499 54.175C139.04 54.513 138.42 54.682 137.64 54.682ZM147.834 54.682C147.046 54.682 146.378 54.5 145.832 54.136C145.295 53.772 144.97 53.1957 144.857 52.407L145.832 52.186C145.902 52.602 146.032 52.9313 146.222 53.174C146.413 53.408 146.647 53.577 146.924 53.681C147.21 53.7763 147.514 53.824 147.834 53.824C148.311 53.824 148.688 53.7287 148.965 53.538C149.243 53.3473 149.381 53.0917 149.381 52.771C149.381 52.4417 149.247 52.212 148.978 52.082C148.718 51.9433 148.359 51.8307 147.899 51.744L147.366 51.653C146.959 51.5837 146.586 51.4753 146.248 51.328C145.91 51.1807 145.642 50.9813 145.442 50.73C145.243 50.4787 145.143 50.1623 145.143 49.781C145.143 49.209 145.364 48.7627 145.806 48.442C146.248 48.1213 146.833 47.961 147.561 47.961C148.281 47.961 148.861 48.1257 149.303 48.455C149.754 48.7757 150.044 49.2307 150.174 49.82L149.212 50.067C149.134 49.6077 148.948 49.287 148.653 49.105C148.359 48.9143 147.995 48.819 147.561 48.819C147.128 48.819 146.786 48.9013 146.534 49.066C146.283 49.222 146.157 49.456 146.157 49.768C146.157 50.0713 146.274 50.2967 146.508 50.444C146.751 50.5827 147.072 50.6867 147.47 50.756L148.003 50.847C148.454 50.925 148.857 51.0333 149.212 51.172C149.576 51.302 149.862 51.4927 150.07 51.744C150.287 51.9953 150.395 52.3247 150.395 52.732C150.395 53.356 150.161 53.837 149.693 54.175C149.234 54.513 148.614 54.682 147.834 54.682ZM154.329 54.5C153.965 54.5 153.683 54.4003 153.484 54.201C153.293 54.0017 153.198 53.7287 153.198 53.382V49.04H151.287V48.143H153.198V45.881H154.225V48.143H156.305V49.04H154.225V53.226C154.225 53.486 154.351 53.616 154.602 53.616H156.019V54.5H154.329ZM159.881 54.682C159.439 54.682 159.036 54.604 158.672 54.448C158.308 54.292 158.022 54.0667 157.814 53.772C157.606 53.4773 157.502 53.1177 157.502 52.693C157.502 52.2597 157.606 51.9043 157.814 51.627C158.022 51.341 158.308 51.1287 158.672 50.99C159.036 50.8427 159.443 50.769 159.894 50.769H162.039V50.301C162.039 49.8503 161.904 49.495 161.636 49.235C161.376 48.975 160.986 48.845 160.466 48.845C159.954 48.845 159.556 48.9707 159.27 49.222C158.984 49.4647 158.789 49.794 158.685 50.21L157.723 49.898C157.827 49.5427 157.991 49.222 158.217 48.936C158.442 48.6413 158.741 48.4073 159.114 48.234C159.495 48.052 159.95 47.961 160.479 47.961C161.293 47.961 161.926 48.1733 162.377 48.598C162.827 49.014 163.053 49.6033 163.053 50.366V53.239C163.053 53.499 163.174 53.629 163.417 53.629H164.002V54.5H163.105C162.819 54.5 162.589 54.422 162.416 54.266C162.242 54.1013 162.156 53.8847 162.156 53.616V53.551H162C161.904 53.7157 161.774 53.889 161.61 54.071C161.454 54.2443 161.237 54.3873 160.96 54.5C160.682 54.6213 160.323 54.682 159.881 54.682ZM159.998 53.798C160.604 53.798 161.094 53.6203 161.467 53.265C161.848 52.901 162.039 52.394 162.039 51.744V51.601H159.933C159.525 51.601 159.187 51.692 158.919 51.874C158.659 52.0473 158.529 52.3117 158.529 52.667C158.529 53.0223 158.663 53.2997 158.932 53.499C159.209 53.6983 159.564 53.798 159.998 53.798ZM165.408 54.5V48.143H166.409V48.923H166.591C166.704 48.6457 166.877 48.442 167.111 48.312C167.345 48.182 167.653 48.117 168.034 48.117H168.788V49.053H167.969C167.51 49.053 167.137 49.183 166.851 49.443C166.574 49.6943 166.435 50.0887 166.435 50.626V54.5H165.408ZM172.648 54.5C172.284 54.5 172.003 54.4003 171.803 54.201C171.613 54.0017 171.517 53.7287 171.517 53.382V49.04H169.606V48.143H171.517V45.881H172.544V48.143H174.624V49.04H172.544V53.226C172.544 53.486 172.67 53.616 172.921 53.616H174.338V54.5H172.648ZM178.849 54.682C178.06 54.682 177.393 54.5 176.847 54.136C176.31 53.772 175.985 53.1957 175.872 52.407L176.847 52.186C176.916 52.602 177.046 52.9313 177.237 53.174C177.428 53.408 177.662 53.577 177.939 53.681C178.225 53.7763 178.528 53.824 178.849 53.824C179.326 53.824 179.703 53.7287 179.98 53.538C180.257 53.3473 180.396 53.0917 180.396 52.771C180.396 52.4417 180.262 52.212 179.993 52.082C179.733 51.9433 179.373 51.8307 178.914 51.744L178.381 51.653C177.974 51.5837 177.601 51.4753 177.263 51.328C176.925 51.1807 176.656 50.9813 176.457 50.73C176.258 50.4787 176.158 50.1623 176.158 49.781C176.158 49.209 176.379 48.7627 176.821 48.442C177.263 48.1213 177.848 47.961 178.576 47.961C179.295 47.961 179.876 48.1257 180.318 48.455C180.769 48.7757 181.059 49.2307 181.189 49.82L180.227 50.067C180.149 49.6077 179.963 49.287 179.668 49.105C179.373 48.9143 179.009 48.819 178.576 48.819C178.143 48.819 177.8 48.9013 177.549 49.066C177.298 49.222 177.172 49.456 177.172 49.768C177.172 50.0713 177.289 50.2967 177.523 50.444C177.766 50.5827 178.086 50.6867 178.485 50.756L179.018 50.847C179.469 50.925 179.872 51.0333 180.227 51.172C180.591 51.302 180.877 51.4927 181.085 51.744C181.302 51.9953 181.41 52.3247 181.41 52.732C181.41 53.356 181.176 53.837 180.708 54.175C180.249 54.513 179.629 54.682 178.849 54.682ZM187.73 54.5V49.04H185.78V48.143H187.73V46.518C187.73 46.1713 187.826 45.8983 188.016 45.699C188.216 45.4997 188.497 45.4 188.861 45.4H190.46V46.284H189.147C188.887 46.284 188.757 46.414 188.757 46.674V48.143H190.759V49.04H188.757V54.5H187.73ZM192.233 54.5V48.143H193.234V48.923H193.416C193.529 48.6457 193.702 48.442 193.936 48.312C194.17 48.182 194.478 48.117 194.859 48.117H195.613V49.053H194.794C194.335 49.053 193.962 49.183 193.676 49.443C193.399 49.6943 193.26 50.0887 193.26 50.626V54.5H192.233ZM199.843 54.682C199.202 54.682 198.634 54.5477 198.14 54.279C197.655 54.0103 197.274 53.6333 196.996 53.148C196.728 52.654 196.593 52.0733 196.593 51.406V51.237C196.593 50.5783 196.728 50.002 196.996 49.508C197.274 49.014 197.655 48.6327 198.14 48.364C198.634 48.0953 199.202 47.961 199.843 47.961C200.485 47.961 201.048 48.0953 201.533 48.364C202.027 48.6327 202.409 49.014 202.677 49.508C202.955 50.002 203.093 50.5783 203.093 51.237V51.406C203.093 52.0733 202.955 52.654 202.677 53.148C202.409 53.6333 202.027 54.0103 201.533 54.279C201.048 54.5477 200.485 54.682 199.843 54.682ZM199.843 53.759C200.519 53.759 201.057 53.5467 201.455 53.122C201.863 52.6887 202.066 52.108 202.066 51.38V51.263C202.066 50.535 201.863 49.9587 201.455 49.534C201.057 49.1007 200.519 48.884 199.843 48.884C199.176 48.884 198.639 49.1007 198.231 49.534C197.824 49.9587 197.62 50.535 197.62 51.263V51.38C197.62 52.108 197.824 52.6887 198.231 53.122C198.639 53.5467 199.176 53.759 199.843 53.759ZM204.941 54.5V48.143H205.942V48.936H206.124C206.246 48.7107 206.445 48.5027 206.722 48.312C207 48.1213 207.39 48.026 207.892 48.026C208.386 48.026 208.785 48.1343 209.088 48.351C209.4 48.5677 209.626 48.832 209.764 49.144H209.946C210.094 48.832 210.315 48.5677 210.609 48.351C210.913 48.1343 211.333 48.026 211.87 48.026C212.295 48.026 212.668 48.1127 212.988 48.286C213.309 48.4593 213.56 48.7107 213.742 49.04C213.933 49.3607 214.028 49.7463 214.028 50.197V54.5H213.001V50.288C213.001 49.8633 212.876 49.5297 212.624 49.287C212.382 49.0357 212.039 48.91 211.597 48.91C211.129 48.91 210.744 49.0617 210.44 49.365C210.146 49.6683 209.998 50.106 209.998 50.678V54.5H208.971V50.288C208.971 49.8633 208.846 49.5297 208.594 49.287C208.352 49.0357 208.009 48.91 207.567 48.91C207.099 48.91 206.714 49.0617 206.41 49.365C206.116 49.6683 205.968 50.106 205.968 50.678V54.5H204.941ZM222.429 54.682C221.727 54.682 221.116 54.578 220.596 54.37C220.084 54.1533 219.686 53.8543 219.4 53.473C219.122 53.083 218.984 52.628 218.984 52.108V51.965C218.984 51.5143 219.079 51.1417 219.27 50.847C219.46 50.5523 219.69 50.327 219.959 50.171C220.236 50.0063 220.492 49.9023 220.726 49.859V49.69C220.492 49.6207 220.249 49.508 219.998 49.352C219.755 49.196 219.551 48.9837 219.387 48.715C219.231 48.4463 219.153 48.117 219.153 47.727V47.584C219.153 47.09 219.291 46.6697 219.569 46.323C219.855 45.9677 220.245 45.6947 220.739 45.504C221.233 45.3133 221.796 45.218 222.429 45.218C223.07 45.218 223.633 45.3133 224.119 45.504C224.613 45.6947 224.998 45.9677 225.276 46.323C225.562 46.6697 225.705 47.09 225.705 47.584V47.727C225.705 48.117 225.627 48.4463 225.471 48.715C225.315 48.9837 225.115 49.196 224.873 49.352C224.63 49.508 224.387 49.6207 224.145 49.69V49.859C224.387 49.9023 224.643 50.0063 224.912 50.171C225.18 50.327 225.406 50.5523 225.588 50.847C225.778 51.1417 225.874 51.5143 225.874 51.965V52.108C225.874 52.628 225.735 53.083 225.458 53.473C225.18 53.8543 224.782 54.1533 224.262 54.37C223.75 54.578 223.139 54.682 222.429 54.682ZM222.429 53.733C223.165 53.733 223.746 53.59 224.171 53.304C224.604 53.018 224.821 52.602 224.821 52.056V51.952C224.821 51.406 224.608 50.99 224.184 50.704C223.759 50.418 223.174 50.275 222.429 50.275C221.692 50.275 221.111 50.418 220.687 50.704C220.262 50.99 220.05 51.406 220.05 51.952V52.056C220.05 52.602 220.262 53.018 220.687 53.304C221.12 53.59 221.701 53.733 222.429 53.733ZM222.429 49.326C223.122 49.326 223.664 49.196 224.054 48.936C224.452 48.6673 224.652 48.2903 224.652 47.805V47.701C224.652 47.207 224.452 46.83 224.054 46.57C223.655 46.3013 223.113 46.167 222.429 46.167C221.744 46.167 221.202 46.3013 220.804 46.57C220.405 46.83 220.206 47.207 220.206 47.701V47.805C220.206 48.2903 220.405 48.6673 220.804 48.936C221.202 49.196 221.744 49.326 222.429 49.326ZM228.123 54.682C227.872 54.682 227.66 54.5997 227.486 54.435C227.322 54.2703 227.239 54.058 227.239 53.798C227.239 53.538 227.322 53.3257 227.486 53.161C227.66 52.9963 227.872 52.914 228.123 52.914C228.383 52.914 228.596 52.9963 228.76 53.161C228.925 53.3257 229.007 53.538 229.007 53.798C229.007 54.058 228.925 54.2703 228.76 54.435C228.596 54.5997 228.383 54.682 228.123 54.682ZM233.73 54.682C232.699 54.682 231.876 54.3787 231.26 53.772C230.654 53.1567 230.35 52.238 230.35 51.016V48.884C230.35 47.6707 230.654 46.7563 231.26 46.141C231.876 45.5257 232.699 45.218 233.73 45.218C234.77 45.218 235.594 45.5257 236.2 46.141C236.816 46.7563 237.123 47.6707 237.123 48.884V51.016C237.123 52.238 236.816 53.1567 236.2 53.772C235.594 54.3787 234.77 54.682 233.73 54.682ZM233.73 53.733C234.51 53.733 235.095 53.499 235.485 53.031C235.875 52.563 236.07 51.9087 236.07 51.068V48.819C236.07 47.9783 235.871 47.3283 235.472 46.869C235.074 46.401 234.493 46.167 233.73 46.167C232.968 46.167 232.387 46.401 231.988 46.869C231.598 47.337 231.403 47.987 231.403 48.819V51.068C231.403 51.9173 231.598 52.576 231.988 53.044C232.378 53.5033 232.959 53.733 233.73 53.733ZM242.058 54.682C241.027 54.682 240.204 54.3787 239.588 53.772C238.982 53.1567 238.678 52.238 238.678 51.016V48.884C238.678 47.6707 238.982 46.7563 239.588 46.141C240.204 45.5257 241.027 45.218 242.058 45.218C243.098 45.218 243.922 45.5257 244.528 46.141C245.144 46.7563 245.451 47.6707 245.451 48.884V51.016C245.451 52.238 245.144 53.1567 244.528 53.772C243.922 54.3787 243.098 54.682 242.058 54.682ZM242.058 53.733C242.838 53.733 243.423 53.499 243.813 53.031C244.203 52.563 244.398 51.9087 244.398 51.068V48.819C244.398 47.9783 244.199 47.3283 243.8 46.869C243.402 46.401 242.821 46.167 242.058 46.167C241.296 46.167 240.715 46.401 240.316 46.869C239.926 47.337 239.731 47.987 239.731 48.819V51.068C239.731 51.9173 239.926 52.576 240.316 53.044C240.706 53.5033 241.287 53.733 242.058 53.733ZM247.982 54.682L247.28 54.123L254.521 45.218L255.21 45.777L247.982 54.682ZM253.754 54.669C253.121 54.669 252.614 54.487 252.233 54.123C251.86 53.7503 251.674 53.2477 251.674 52.615V52.537C251.674 51.9043 251.86 51.406 252.233 51.042C252.614 50.6693 253.121 50.483 253.754 50.483C254.369 50.483 254.867 50.6693 255.249 51.042C255.63 51.406 255.821 51.9043 255.821 52.537V52.615C255.821 53.2477 255.63 53.7503 255.249 54.123C254.876 54.487 254.378 54.669 253.754 54.669ZM253.754 53.915C254.118 53.915 254.404 53.798 254.612 53.564C254.828 53.33 254.937 53.0267 254.937 52.654V52.498C254.937 52.1167 254.828 51.8133 254.612 51.588C254.404 51.354 254.118 51.237 253.754 51.237C253.381 51.237 253.086 51.354 252.87 51.588C252.662 51.8133 252.558 52.1167 252.558 52.498V52.654C252.558 53.0267 252.662 53.33 252.87 53.564C253.086 53.798 253.381 53.915 253.754 53.915ZM248.749 49.417C248.116 49.417 247.613 49.2307 247.241 48.858C246.868 48.4853 246.682 47.987 246.682 47.363V47.285C246.682 46.6523 246.868 46.154 247.241 45.79C247.613 45.4173 248.116 45.231 248.749 45.231C249.373 45.231 249.871 45.4173 250.244 45.79C250.625 46.154 250.816 46.6523 250.816 47.285V47.363C250.816 47.987 250.625 48.4853 250.244 48.858C249.871 49.2307 249.373 49.417 248.749 49.417ZM248.749 48.663C249.113 48.663 249.403 48.546 249.62 48.312C249.836 48.078 249.945 47.7747 249.945 47.402V47.246C249.945 46.8647 249.836 46.5613 249.62 46.336C249.403 46.102 249.113 45.985 248.749 45.985C248.376 45.985 248.081 46.102 247.865 46.336C247.657 46.5613 247.553 46.8647 247.553 47.246V47.402C247.553 47.7747 247.657 48.078 247.865 48.312C248.081 48.546 248.376 48.663 248.749 48.663Z" fill="#797979"/>
<rect x="322.5" y="32.5" width="15" height="15" rx="7.5" fill="#00B76A"/>
<rect x="322.5" y="32.5" width="15" height="15" rx="7.5" stroke="#00B76A"/>
<path d="M333.015 37.25L334 38.2502L329.934 42.2558C329.662 42.5274 329.305 42.6629 328.946 42.6629C328.588 42.6629 328.227 42.526 327.953 42.2523L326 40.36L326.978 39.3514L328.938 41.2514L333.015 37.25Z" fill="white"/>
</svg>
