<svg width="326" height="140" viewBox="0 0 326 140" fill="none" xmlns="http://www.w3.org/2000/svg">
<path d="M0.35 50L3.374 40.2H5.446L8.47 50H7.252L6.496 47.522H2.324L1.568 50H0.35ZM2.618 46.458H6.188L4.508 40.914H4.312L2.618 46.458ZM13.1304 50.196C12.4677 50.196 11.8704 50.056 11.3384 49.776C10.8157 49.4867 10.4004 49.076 10.0924 48.544C9.79369 48.012 9.64436 47.382 9.64436 46.654V46.5C9.64436 45.7627 9.79369 45.1327 10.0924 44.61C10.4004 44.078 10.8157 43.672 11.3384 43.392C11.8704 43.1027 12.4677 42.958 13.1304 42.958C13.7837 42.958 14.339 43.0793 14.7964 43.322C15.263 43.5647 15.627 43.8867 15.8884 44.288C16.159 44.6893 16.3317 45.1187 16.4064 45.576L15.3284 45.8C15.2817 45.464 15.1697 45.156 14.9924 44.876C14.8244 44.596 14.5864 44.372 14.2784 44.204C13.9704 44.036 13.5924 43.952 13.1444 43.952C12.687 43.952 12.2764 44.0547 11.9124 44.26C11.5577 44.4653 11.273 44.7593 11.0584 45.142C10.853 45.5247 10.7504 45.982 10.7504 46.514V46.64C10.7504 47.172 10.853 47.6293 11.0584 48.012C11.273 48.3947 11.5577 48.6887 11.9124 48.894C12.2764 49.0993 12.687 49.202 13.1444 49.202C13.8257 49.202 14.3437 49.0247 14.6984 48.67C15.0624 48.3153 15.2864 47.8767 15.3704 47.354L16.4624 47.592C16.3597 48.04 16.173 48.4647 15.9024 48.866C15.6317 49.2673 15.263 49.5893 14.7964 49.832C14.339 50.0747 13.7837 50.196 13.1304 50.196ZM21.4975 50.196C20.8349 50.196 20.2375 50.056 19.7055 49.776C19.1829 49.4867 18.7675 49.076 18.4595 48.544C18.1609 48.012 18.0115 47.382 18.0115 46.654V46.5C18.0115 45.7627 18.1609 45.1327 18.4595 44.61C18.7675 44.078 19.1829 43.672 19.7055 43.392C20.2375 43.1027 20.8349 42.958 21.4975 42.958C22.1509 42.958 22.7062 43.0793 23.1635 43.322C23.6302 43.5647 23.9942 43.8867 24.2555 44.288C24.5262 44.6893 24.6989 45.1187 24.7735 45.576L23.6955 45.8C23.6489 45.464 23.5369 45.156 23.3595 44.876C23.1915 44.596 22.9535 44.372 22.6455 44.204C22.3375 44.036 21.9595 43.952 21.5115 43.952C21.0542 43.952 20.6435 44.0547 20.2795 44.26C19.9249 44.4653 19.6402 44.7593 19.4255 45.142C19.2202 45.5247 19.1175 45.982 19.1175 46.514V46.64C19.1175 47.172 19.2202 47.6293 19.4255 48.012C19.6402 48.3947 19.9249 48.6887 20.2795 48.894C20.6435 49.0993 21.0542 49.202 21.5115 49.202C22.1929 49.202 22.7109 49.0247 23.0655 48.67C23.4295 48.3153 23.6535 47.8767 23.7375 47.354L24.8295 47.592C24.7269 48.04 24.5402 48.4647 24.2695 48.866C23.9989 49.2673 23.6302 49.5893 23.1635 49.832C22.7062 50.0747 22.1509 50.196 21.4975 50.196ZM29.8787 50.196C29.1881 50.196 28.5767 50.0513 28.0447 49.762C27.5221 49.4727 27.1114 49.0667 26.8127 48.544C26.5234 48.012 26.3787 47.3867 26.3787 46.668V46.486C26.3787 45.7767 26.5234 45.156 26.8127 44.624C27.1114 44.092 27.5221 43.6813 28.0447 43.392C28.5767 43.1027 29.1881 42.958 29.8787 42.958C30.5694 42.958 31.1761 43.1027 31.6987 43.392C32.2307 43.6813 32.6414 44.092 32.9307 44.624C33.2294 45.156 33.3787 45.7767 33.3787 46.486V46.668C33.3787 47.3867 33.2294 48.012 32.9307 48.544C32.6414 49.0667 32.2307 49.4727 31.6987 49.762C31.1761 50.0513 30.5694 50.196 29.8787 50.196ZM29.8787 49.202C30.6067 49.202 31.1854 48.9733 31.6147 48.516C32.0534 48.0493 32.2727 47.424 32.2727 46.64V46.514C32.2727 45.73 32.0534 45.1093 31.6147 44.652C31.1854 44.1853 30.6067 43.952 29.8787 43.952C29.1601 43.952 28.5814 44.1853 28.1427 44.652C27.7041 45.1093 27.4847 45.73 27.4847 46.514V46.64C27.4847 47.424 27.7041 48.0493 28.1427 48.516C28.5814 48.9733 29.1601 49.202 29.8787 49.202ZM37.987 50.126C37.4924 50.126 37.035 50.0187 36.615 49.804C36.2044 49.5893 35.8777 49.272 35.635 48.852C35.4017 48.4227 35.285 47.9047 35.285 47.298V43.154H36.391V47.214C36.391 47.8953 36.559 48.39 36.895 48.698C37.2404 49.006 37.7024 49.16 38.281 49.16C38.9344 49.16 39.471 48.9453 39.891 48.516C40.311 48.0867 40.521 47.4473 40.521 46.598V43.154H41.627V50H40.549V48.838H40.353C40.2037 49.1647 39.947 49.4633 39.583 49.734C39.219 49.9953 38.687 50.126 37.987 50.126ZM43.9413 50V43.154H45.0193V44.316H45.2153C45.3646 43.9893 45.6166 43.6953 45.9713 43.434C46.3353 43.1633 46.8673 43.028 47.5673 43.028C48.0806 43.028 48.538 43.1353 48.9393 43.35C49.35 43.5647 49.6766 43.882 49.9193 44.302C50.162 44.722 50.2833 45.24 50.2833 45.856V50H49.1773V45.94C49.1773 45.2587 49.0046 44.764 48.6593 44.456C48.3233 44.148 47.866 43.994 47.2873 43.994C46.6246 43.994 46.0833 44.2087 45.6633 44.638C45.2526 45.0673 45.0473 45.7067 45.0473 46.556V50H43.9413ZM54.8558 50C54.4638 50 54.1605 49.8927 53.9458 49.678C53.7405 49.4633 53.6378 49.1693 53.6378 48.796V44.12H51.5798V43.154H53.6378V40.718H54.7438V43.154H56.9838V44.12H54.7438V48.628C54.7438 48.908 54.8792 49.048 55.1498 49.048H56.6758V50H54.8558ZM61.3813 50L64.4053 40.2H66.4773L69.5013 50H68.2833L67.5273 47.522H63.3553L62.5993 50H61.3813ZM63.6493 46.458H67.2193L65.5393 40.914H65.3433L63.6493 46.458ZM73.9096 50.196C73.3216 50.196 72.7803 50.056 72.2856 49.776C71.7909 49.496 71.3989 49.09 71.1096 48.558C70.8203 48.026 70.6756 47.396 70.6756 46.668V46.486C70.6756 45.758 70.8203 45.1327 71.1096 44.61C71.3989 44.078 71.7863 43.672 72.2716 43.392C72.7663 43.1027 73.3123 42.958 73.9096 42.958C74.3856 42.958 74.7869 43.0233 75.1136 43.154C75.4496 43.2753 75.7203 43.434 75.9256 43.63C76.1309 43.8167 76.2896 44.0173 76.4016 44.232H76.5976V40.2H77.7036V50H76.6256V48.866H76.4296C76.2429 49.2113 75.9536 49.5193 75.5616 49.79C75.1696 50.0607 74.6189 50.196 73.9096 50.196ZM74.2036 49.216C74.9129 49.216 75.4869 48.992 75.9256 48.544C76.3736 48.0867 76.5976 47.452 76.5976 46.64V46.514C76.5976 45.702 76.3736 45.072 75.9256 44.624C75.4869 44.1667 74.9129 43.938 74.2036 43.938C73.5036 43.938 72.9249 44.1667 72.4676 44.624C72.0196 45.072 71.7956 45.702 71.7956 46.514V46.64C71.7956 47.452 72.0196 48.0867 72.4676 48.544C72.9249 48.992 73.5036 49.216 74.2036 49.216ZM82.9194 50.196C82.3314 50.196 81.79 50.056 81.2954 49.776C80.8007 49.496 80.4087 49.09 80.1194 48.558C79.83 48.026 79.6854 47.396 79.6854 46.668V46.486C79.6854 45.758 79.83 45.1327 80.1194 44.61C80.4087 44.078 80.796 43.672 81.2814 43.392C81.776 43.1027 82.322 42.958 82.9194 42.958C83.3954 42.958 83.7967 43.0233 84.1234 43.154C84.4594 43.2753 84.73 43.434 84.9354 43.63C85.1407 43.8167 85.2994 44.0173 85.4114 44.232H85.6074V40.2H86.7134V50H85.6354V48.866H85.4394C85.2527 49.2113 84.9634 49.5193 84.5714 49.79C84.1794 50.0607 83.6287 50.196 82.9194 50.196ZM83.2134 49.216C83.9227 49.216 84.4967 48.992 84.9354 48.544C85.3834 48.0867 85.6074 47.452 85.6074 46.64V46.514C85.6074 45.702 85.3834 45.072 84.9354 44.624C84.4967 44.1667 83.9227 43.938 83.2134 43.938C82.5134 43.938 81.9347 44.1667 81.4774 44.624C81.0294 45.072 80.8054 45.702 80.8054 46.514V46.64C80.8054 47.452 81.0294 48.0867 81.4774 48.544C81.9347 48.992 82.5134 49.216 83.2134 49.216ZM89.0311 50V43.154H90.1091V43.994H90.3051C90.4265 43.6953 90.6131 43.476 90.8651 43.336C91.1171 43.196 91.4485 43.126 91.8591 43.126H92.6711V44.134H91.7891C91.2945 44.134 90.8931 44.274 90.5851 44.554C90.2865 44.8247 90.1371 45.2493 90.1371 45.828V50H89.0311ZM97.1984 50.196C96.5077 50.196 95.9011 50.0513 95.3784 49.762C94.8557 49.4633 94.4497 49.048 94.1604 48.516C93.8711 47.984 93.7264 47.368 93.7264 46.668V46.5C93.7264 45.7907 93.8711 45.17 94.1604 44.638C94.4497 44.106 94.8511 43.6953 95.3644 43.406C95.8777 43.1073 96.4657 42.958 97.1284 42.958C97.7724 42.958 98.3417 43.098 98.8364 43.378C99.3311 43.6487 99.7184 44.0407 99.9984 44.554C100.278 45.0673 100.418 45.6693 100.418 46.36V46.864H94.8324C94.8604 47.6013 95.0984 48.18 95.5464 48.6C95.9944 49.0107 96.5544 49.216 97.2264 49.216C97.8144 49.216 98.2671 49.0807 98.5844 48.81C98.9017 48.5393 99.1444 48.2173 99.3124 47.844L100.264 48.306C100.124 48.5953 99.9284 48.8847 99.6764 49.174C99.4337 49.4633 99.1117 49.706 98.7104 49.902C98.3184 50.098 97.8144 50.196 97.1984 50.196ZM94.8464 45.954H99.2984C99.2611 45.3193 99.0417 44.8247 98.6404 44.47C98.2484 44.1153 97.7444 43.938 97.1284 43.938C96.5031 43.938 95.9897 44.1153 95.5884 44.47C95.1871 44.8247 94.9397 45.3193 94.8464 45.954ZM105.106 50.196C104.256 50.196 103.538 50 102.95 49.608C102.371 49.216 102.021 48.5953 101.9 47.746L102.95 47.508C103.024 47.956 103.164 48.3107 103.37 48.572C103.575 48.824 103.827 49.006 104.126 49.118C104.434 49.2207 104.76 49.272 105.106 49.272C105.619 49.272 106.025 49.1693 106.324 48.964C106.622 48.7587 106.772 48.4833 106.772 48.138C106.772 47.7833 106.627 47.536 106.338 47.396C106.058 47.2467 105.67 47.1253 105.176 47.032L104.602 46.934C104.163 46.8593 103.762 46.7427 103.398 46.584C103.034 46.4253 102.744 46.2107 102.53 45.94C102.315 45.6693 102.208 45.3287 102.208 44.918C102.208 44.302 102.446 43.8213 102.922 43.476C103.398 43.1307 104.028 42.958 104.812 42.958C105.586 42.958 106.212 43.1353 106.688 43.49C107.173 43.8353 107.486 44.3253 107.626 44.96L106.59 45.226C106.506 44.7313 106.305 44.386 105.988 44.19C105.67 43.9847 105.278 43.882 104.812 43.882C104.345 43.882 103.976 43.9707 103.706 44.148C103.435 44.316 103.3 44.568 103.3 44.904C103.3 45.2307 103.426 45.4733 103.678 45.632C103.939 45.7813 104.284 45.8933 104.714 45.968L105.288 46.066C105.773 46.15 106.207 46.2667 106.59 46.416C106.982 46.556 107.29 46.7613 107.514 47.032C107.747 47.3027 107.864 47.6573 107.864 48.096C107.864 48.768 107.612 49.286 107.108 49.65C106.613 50.014 105.946 50.196 105.106 50.196ZM112.488 50.196C111.639 50.196 110.92 50 110.332 49.608C109.754 49.216 109.404 48.5953 109.282 47.746L110.332 47.508C110.407 47.956 110.547 48.3107 110.752 48.572C110.958 48.824 111.21 49.006 111.508 49.118C111.816 49.2207 112.143 49.272 112.488 49.272C113.002 49.272 113.408 49.1693 113.706 48.964C114.005 48.7587 114.154 48.4833 114.154 48.138C114.154 47.7833 114.01 47.536 113.72 47.396C113.44 47.2467 113.053 47.1253 112.558 47.032L111.984 46.934C111.546 46.8593 111.144 46.7427 110.78 46.584C110.416 46.4253 110.127 46.2107 109.912 45.94C109.698 45.6693 109.59 45.3287 109.59 44.918C109.59 44.302 109.828 43.8213 110.304 43.476C110.78 43.1307 111.41 42.958 112.194 42.958C112.969 42.958 113.594 43.1353 114.07 43.49C114.556 43.8353 114.868 44.3253 115.008 44.96L113.972 45.226C113.888 44.7313 113.688 44.386 113.37 44.19C113.053 43.9847 112.661 43.882 112.194 43.882C111.728 43.882 111.359 43.9707 111.088 44.148C110.818 44.316 110.682 44.568 110.682 44.904C110.682 45.2307 110.808 45.4733 111.06 45.632C111.322 45.7813 111.667 45.8933 112.096 45.968L112.67 46.066C113.156 46.15 113.59 46.2667 113.972 46.416C114.364 46.556 114.672 46.7613 114.896 47.032C115.13 47.3027 115.246 47.6573 115.246 48.096C115.246 48.768 114.994 49.286 114.49 49.65C113.996 50.014 113.328 50.196 112.488 50.196Z" fill="#797979"/>
<path d="M4.48 74.28C3.77333 74.28 3.14 74.16 2.58 73.92C2.02 73.6667 1.57333 73.3067 1.24 72.84C0.92 72.36 0.76 71.78 0.76 71.1C0.76 70.42 0.92 69.8533 1.24 69.4C1.57333 68.9333 2.02667 68.5867 2.6 68.36C3.18667 68.12 3.85333 68 4.6 68H7.32V67.44C7.32 66.9733 7.17333 66.5933 6.88 66.3C6.58667 65.9933 6.12 65.84 5.48 65.84C4.85333 65.84 4.38667 65.9867 4.08 66.28C3.77333 66.56 3.57333 66.9267 3.48 67.38L1.16 66.6C1.32 66.0933 1.57333 65.6333 1.92 65.22C2.28 64.7933 2.75333 64.4533 3.34 64.2C3.94 63.9333 4.66667 63.8 5.52 63.8C6.82667 63.8 7.86 64.1267 8.62 64.78C9.38 65.4333 9.76 66.38 9.76 67.62V71.32C9.76 71.72 9.94667 71.92 10.32 71.92H11.12V74H9.44C8.94667 74 8.54 73.88 8.22 73.64C7.9 73.4 7.74 73.08 7.74 72.68V72.66H7.36C7.30667 72.82 7.18667 73.0333 7 73.3C6.81333 73.5533 6.52 73.78 6.12 73.98C5.72 74.18 5.17333 74.28 4.48 74.28ZM4.92 72.24C5.62667 72.24 6.2 72.0467 6.64 71.66C7.09333 71.26 7.32 70.7333 7.32 70.08V69.88H4.78C4.31333 69.88 3.94667 69.98 3.68 70.18C3.41333 70.38 3.28 70.66 3.28 71.02C3.28 71.38 3.42 71.6733 3.7 71.9C3.98 72.1267 4.38667 72.24 4.92 72.24ZM12.7625 74V64.08H15.2425V65.2H15.6025C15.7492 64.8 15.9892 64.5067 16.3225 64.32C16.6692 64.1333 17.0692 64.04 17.5225 64.04H18.7225V66.28H17.4825C16.8425 66.28 16.3158 66.4533 15.9025 66.8C15.4892 67.1333 15.2825 67.6533 15.2825 68.36V74H12.7625ZM20.4922 74V64.08H22.9722V65.38H23.3322C23.4922 65.0333 23.7922 64.7067 24.2322 64.4C24.6722 64.08 25.3389 63.92 26.2322 63.92C27.0055 63.92 27.6789 64.1 28.2522 64.46C28.8389 64.8067 29.2922 65.2933 29.6122 65.92C29.9322 66.5333 30.0922 67.2533 30.0922 68.08V74H27.5722V68.28C27.5722 67.5333 27.3855 66.9733 27.0122 66.6C26.6522 66.2267 26.1322 66.04 25.4522 66.04C24.6789 66.04 24.0789 66.3 23.6522 66.82C23.2255 67.3267 23.0122 68.04 23.0122 68.96V74H20.4922ZM35.6964 74.28C34.9897 74.28 34.3564 74.16 33.7964 73.92C33.2364 73.6667 32.7897 73.3067 32.4564 72.84C32.1364 72.36 31.9764 71.78 31.9764 71.1C31.9764 70.42 32.1364 69.8533 32.4564 69.4C32.7897 68.9333 33.2431 68.5867 33.8164 68.36C34.4031 68.12 35.0697 68 35.8164 68H38.5364V67.44C38.5364 66.9733 38.3897 66.5933 38.0964 66.3C37.8031 65.9933 37.3364 65.84 36.6964 65.84C36.0697 65.84 35.6031 65.9867 35.2964 66.28C34.9897 66.56 34.7897 66.9267 34.6964 67.38L32.3764 66.6C32.5364 66.0933 32.7897 65.6333 33.1364 65.22C33.4964 64.7933 33.9697 64.4533 34.5564 64.2C35.1564 63.9333 35.8831 63.8 36.7364 63.8C38.0431 63.8 39.0764 64.1267 39.8364 64.78C40.5964 65.4333 40.9764 66.38 40.9764 67.62V71.32C40.9764 71.72 41.1631 71.92 41.5364 71.92H42.3364V74H40.6564C40.1631 74 39.7564 73.88 39.4364 73.64C39.1164 73.4 38.9564 73.08 38.9564 72.68V72.66H38.5764C38.5231 72.82 38.4031 73.0333 38.2164 73.3C38.0297 73.5533 37.7364 73.78 37.3364 73.98C36.9364 74.18 36.3897 74.28 35.6964 74.28ZM36.1364 72.24C36.8431 72.24 37.4164 72.0467 37.8564 71.66C38.3097 71.26 38.5364 70.7333 38.5364 70.08V69.88H35.9964C35.5297 69.88 35.1631 69.98 34.8964 70.18C34.6297 70.38 34.4964 70.66 34.4964 71.02C34.4964 71.38 34.6364 71.6733 34.9164 71.9C35.1964 72.1267 35.6031 72.24 36.1364 72.24ZM49.9389 74.28C49.0456 74.28 48.3589 74.1267 47.8789 73.82C47.3989 73.5133 47.0456 73.1733 46.8189 72.8H46.4589V74H43.9789V60H46.4989V65.22H46.8589C47.0056 64.98 47.1989 64.7533 47.4389 64.54C47.6922 64.3267 48.0189 64.1533 48.4189 64.02C48.8322 63.8733 49.3389 63.8 49.9389 63.8C50.7389 63.8 51.4789 64 52.1589 64.4C52.8389 64.7867 53.3856 65.36 53.7989 66.12C54.2122 66.88 54.4189 67.8 54.4189 68.88V69.2C54.4189 70.28 54.2122 71.2 53.7989 71.96C53.3856 72.72 52.8389 73.3 52.1589 73.7C51.4789 74.0867 50.7389 74.28 49.9389 74.28ZM49.1789 72.08C49.9522 72.08 50.5989 71.8333 51.1189 71.34C51.6389 70.8333 51.8989 70.1 51.8989 69.14V68.94C51.8989 67.98 51.6389 67.2533 51.1189 66.76C50.6122 66.2533 49.9656 66 49.1789 66C48.4056 66 47.7589 66.2533 47.2389 66.76C46.7189 67.2533 46.4589 67.98 46.4589 68.94V69.14C46.4589 70.1 46.7189 70.8333 47.2389 71.34C47.7589 71.8333 48.4056 72.08 49.1789 72.08ZM57.9956 74.28C57.4623 74.28 57.009 74.1067 56.6356 73.76C56.2756 73.4 56.0956 72.94 56.0956 72.38C56.0956 71.82 56.2756 71.3667 56.6356 71.02C57.009 70.66 57.4623 70.48 57.9956 70.48C58.5423 70.48 58.9956 70.66 59.3556 71.02C59.7156 71.3667 59.8956 71.82 59.8956 72.38C59.8956 72.94 59.7156 73.4 59.3556 73.76C58.9956 74.1067 58.5423 74.28 57.9956 74.28ZM66.0555 74.28C65.2688 74.28 64.5288 74.0867 63.8355 73.7C63.1555 73.3 62.6088 72.72 62.1955 71.96C61.7821 71.2 61.5755 70.28 61.5755 69.2V68.88C61.5755 67.8 61.7821 66.88 62.1955 66.12C62.6088 65.36 63.1555 64.7867 63.8355 64.4C64.5155 64 65.2555 63.8 66.0555 63.8C66.6555 63.8 67.1555 63.8733 67.5555 64.02C67.9688 64.1533 68.3021 64.3267 68.5555 64.54C68.8088 64.7533 69.0021 64.98 69.1355 65.22H69.4955V60H72.0155V74H69.5355V72.8H69.1755C68.9488 73.1733 68.5955 73.5133 68.1155 73.82C67.6488 74.1267 66.9621 74.28 66.0555 74.28ZM66.8155 72.08C67.5888 72.08 68.2355 71.8333 68.7555 71.34C69.2755 70.8333 69.5355 70.1 69.5355 69.14V68.94C69.5355 67.98 69.2755 67.2533 68.7555 66.76C68.2488 66.2533 67.6021 66 66.8155 66C66.0421 66 65.3955 66.2533 64.8755 66.76C64.3555 67.2533 64.0955 67.98 64.0955 68.94V69.14C64.0955 70.1 64.3555 70.8333 64.8755 71.34C65.3955 71.8333 66.0421 72.08 66.8155 72.08ZM83.6894 78C81.7827 78 80.1427 77.6333 78.7694 76.9C77.4094 76.18 76.3627 75.1533 75.6294 73.82C74.896 72.4867 74.5294 70.9067 74.5294 69.08V68.6C74.5294 66.7733 74.8894 65.2 75.6094 63.88C76.3294 62.5467 77.356 61.52 78.6894 60.8C80.0227 60.08 81.6094 59.72 83.4494 59.72H83.8894C85.5694 59.72 87.036 60.0733 88.2894 60.78C89.5427 61.4733 90.516 62.4467 91.2094 63.7C91.9027 64.9533 92.2494 66.4133 92.2494 68.08V69.56C92.2494 70.96 91.9627 72.0533 91.3894 72.84C90.816 73.6133 89.956 74 88.8094 74H87.6494C87.0227 74 86.5427 73.8733 86.2094 73.62C85.876 73.3667 85.7094 73.0267 85.7094 72.6V72.56H85.3494C85.2427 72.84 85.0827 73.1 84.8694 73.34C84.6694 73.58 84.4094 73.7733 84.0894 73.92C83.7694 74.0533 83.3627 74.12 82.8694 74.12C82.0294 74.12 81.3027 73.9 80.6894 73.46C80.0894 73.0067 79.6227 72.4067 79.2894 71.66C78.9694 70.9133 78.8094 70.08 78.8094 69.16V68.84C78.8094 67.9067 78.9627 67.0667 79.2694 66.32C79.5894 65.5733 80.036 64.98 80.6094 64.54C81.196 64.1 81.8827 63.88 82.6694 63.88C83.1627 63.88 83.5694 63.94 83.8894 64.06C84.2094 64.18 84.4694 64.34 84.6694 64.54C84.8694 64.74 85.036 64.96 85.1694 65.2H85.5294V64H87.9694V71.08C87.9694 71.3067 88.016 71.48 88.1094 71.6C88.2027 71.7067 88.3627 71.76 88.5894 71.76H88.6694C89.056 71.76 89.336 71.58 89.5094 71.22C89.6827 70.8467 89.7694 70.2933 89.7694 69.56V68.12C89.7694 66.8533 89.5494 65.7667 89.1094 64.86C88.6827 63.94 88.0294 63.2333 87.1494 62.74C86.2694 62.2467 85.156 62 83.8094 62H83.5294C82.1827 62 81.0227 62.2533 80.0494 62.76C79.076 63.2667 78.3227 64.02 77.7894 65.02C77.2694 66.0067 77.0094 67.2267 77.0094 68.68V69C77.0094 70.4533 77.276 71.68 77.8094 72.68C78.356 73.68 79.136 74.4333 80.1494 74.94C81.176 75.46 82.4094 75.72 83.8494 75.72H88.0094V78H83.6894ZM83.3894 71.96C84.0427 71.96 84.5627 71.7067 84.9494 71.2C85.336 70.6933 85.5294 70 85.5294 69.12V68.88C85.5294 68 85.336 67.3067 84.9494 66.8C84.5627 66.2933 84.0427 66.04 83.3894 66.04C82.736 66.04 82.2227 66.2933 81.8494 66.8C81.476 67.3067 81.2894 68 81.2894 68.88V69.12C81.2894 70 81.476 70.6933 81.8494 71.2C82.2227 71.7067 82.736 71.96 83.3894 71.96ZM98.4628 74.16C97.6895 74.16 97.0095 73.9867 96.4228 73.64C95.8495 73.28 95.4028 72.7867 95.0828 72.16C94.7628 71.5333 94.6028 70.8133 94.6028 70V64.08H97.1228V69.8C97.1228 70.5467 97.3028 71.1067 97.6628 71.48C98.0361 71.8533 98.5628 72.04 99.2428 72.04C100.016 72.04 100.616 71.7867 101.043 71.28C101.469 70.76 101.683 70.04 101.683 69.12V64.08H104.203V74H101.723V72.7H101.363C101.203 73.0333 100.903 73.36 100.463 73.68C100.023 74 99.3561 74.16 98.4628 74.16ZM106.807 74V64.08H109.287V65.38H109.647C109.807 65.0333 110.107 64.7067 110.547 64.4C110.987 64.08 111.654 63.92 112.547 63.92C113.32 63.92 113.994 64.1 114.567 64.46C115.154 64.8067 115.607 65.2933 115.927 65.92C116.247 66.5333 116.407 67.2533 116.407 68.08V74H113.887V68.28C113.887 67.5333 113.7 66.9733 113.327 66.6C112.967 66.2267 112.447 66.04 111.767 66.04C110.994 66.04 110.394 66.3 109.967 66.82C109.54 67.3267 109.327 68.04 109.327 68.96V74H106.807ZM118.931 74V64.08H121.451V74H118.931ZM120.191 62.92C119.738 62.92 119.351 62.7733 119.031 62.48C118.725 62.1867 118.571 61.8 118.571 61.32C118.571 60.84 118.725 60.4533 119.031 60.16C119.351 59.8667 119.738 59.72 120.191 59.72C120.658 59.72 121.045 59.8667 121.351 60.16C121.658 60.4533 121.811 60.84 121.811 61.32C121.811 61.8 121.658 62.1867 121.351 62.48C121.045 62.7733 120.658 62.92 120.191 62.92ZM125.684 74V66.16H123.164V64.08H125.684V62.24C125.684 61.56 125.884 61.02 126.284 60.62C126.697 60.2067 127.23 60 127.884 60H130.284V62.08H128.764C128.39 62.08 128.204 62.28 128.204 62.68V64.08H132.204V66.16H128.204V74H125.684ZM132.204 74V64.08H134.724V74H132.204ZM133.464 63C133.01 63 132.624 62.8533 132.304 62.56C131.997 62.2667 131.844 61.88 131.844 61.4C131.844 60.92 131.997 60.5333 132.304 60.24C132.624 59.9467 133.01 59.8 133.464 59.8C133.93 59.8 134.317 59.9467 134.624 60.24C134.93 60.5333 135.084 60.92 135.084 61.4C135.084 61.88 134.93 62.2667 134.624 62.56C134.317 62.8533 133.93 63 133.464 63ZM141.84 74.28C140.854 74.28 139.98 74.0733 139.22 73.66C138.474 73.2333 137.887 72.64 137.46 71.88C137.047 71.1067 136.84 70.2 136.84 69.16V68.92C136.84 67.88 137.047 66.98 137.46 66.22C137.874 65.4467 138.454 64.8533 139.2 64.44C139.947 64.0133 140.814 63.8 141.8 63.8C142.774 63.8 143.62 64.02 144.34 64.46C145.06 64.8867 145.62 65.4867 146.02 66.26C146.42 67.02 146.62 67.9067 146.62 68.92V69.78H139.4C139.427 70.46 139.68 71.0133 140.16 71.44C140.64 71.8667 141.227 72.08 141.92 72.08C142.627 72.08 143.147 71.9267 143.48 71.62C143.814 71.3133 144.067 70.9733 144.24 70.6L146.3 71.68C146.114 72.0267 145.84 72.4067 145.48 72.82C145.134 73.22 144.667 73.5667 144.08 73.86C143.494 74.14 142.747 74.28 141.84 74.28ZM139.42 67.9H144.06C144.007 67.3267 143.774 66.8667 143.36 66.52C142.96 66.1733 142.434 66 141.78 66C141.1 66 140.56 66.1733 140.16 66.52C139.76 66.8667 139.514 67.3267 139.42 67.9ZM152.663 74.28C151.877 74.28 151.137 74.0867 150.443 73.7C149.763 73.3 149.217 72.72 148.803 71.96C148.39 71.2 148.183 70.28 148.183 69.2V68.88C148.183 67.8 148.39 66.88 148.803 66.12C149.217 65.36 149.763 64.7867 150.443 64.4C151.123 64 151.863 63.8 152.663 63.8C153.263 63.8 153.763 63.8733 154.163 64.02C154.577 64.1533 154.91 64.3267 155.163 64.54C155.417 64.7533 155.61 64.98 155.743 65.22H156.103V60H158.623V74H156.143V72.8H155.783C155.557 73.1733 155.203 73.5133 154.723 73.82C154.257 74.1267 153.57 74.28 152.663 74.28ZM153.423 72.08C154.197 72.08 154.843 71.8333 155.363 71.34C155.883 70.8333 156.143 70.1 156.143 69.14V68.94C156.143 67.98 155.883 67.2533 155.363 66.76C154.857 66.2533 154.21 66 153.423 66C152.65 66 152.003 66.2533 151.483 66.76C150.963 67.2533 150.703 67.98 150.703 68.94V69.14C150.703 70.1 150.963 70.8333 151.483 71.34C152.003 71.8333 152.65 72.08 153.423 72.08ZM161.217 74V60H163.737V74H161.217ZM170.85 74.28C169.863 74.28 168.99 74.0733 168.23 73.66C167.483 73.2333 166.896 72.64 166.47 71.88C166.056 71.1067 165.85 70.2 165.85 69.16V68.92C165.85 67.88 166.056 66.98 166.47 66.22C166.883 65.4467 167.463 64.8533 168.21 64.44C168.956 64.0133 169.823 63.8 170.81 63.8C171.783 63.8 172.63 64.02 173.35 64.46C174.07 64.8867 174.63 65.4867 175.03 66.26C175.43 67.02 175.63 67.9067 175.63 68.92V69.78H168.41C168.436 70.46 168.69 71.0133 169.17 71.44C169.65 71.8667 170.236 72.08 170.93 72.08C171.636 72.08 172.156 71.9267 172.49 71.62C172.823 71.3133 173.076 70.9733 173.25 70.6L175.31 71.68C175.123 72.0267 174.85 72.4067 174.49 72.82C174.143 73.22 173.676 73.5667 173.09 73.86C172.503 74.14 171.756 74.28 170.85 74.28ZM168.43 67.9H173.07C173.016 67.3267 172.783 66.8667 172.37 66.52C171.97 66.1733 171.443 66 170.79 66C170.11 66 169.57 66.1733 169.17 66.52C168.77 66.8667 168.523 67.3267 168.43 67.9ZM181.673 74.28C180.886 74.28 180.146 74.0867 179.453 73.7C178.773 73.3 178.226 72.72 177.813 71.96C177.399 71.2 177.193 70.28 177.193 69.2V68.88C177.193 67.8 177.399 66.88 177.813 66.12C178.226 65.36 178.773 64.7867 179.453 64.4C180.133 64 180.873 63.8 181.673 63.8C182.273 63.8 182.773 63.8733 183.173 64.02C183.586 64.1533 183.919 64.3267 184.173 64.54C184.426 64.7533 184.619 64.98 184.753 65.22H185.113V60H187.633V74H185.153V72.8H184.793C184.566 73.1733 184.213 73.5133 183.733 73.82C183.266 74.1267 182.579 74.28 181.673 74.28ZM182.433 72.08C183.206 72.08 183.853 71.8333 184.373 71.34C184.893 70.8333 185.153 70.1 185.153 69.14V68.94C185.153 67.98 184.893 67.2533 184.373 66.76C183.866 66.2533 183.219 66 182.433 66C181.659 66 181.013 66.2533 180.493 66.76C179.973 67.2533 179.713 67.98 179.713 68.94V69.14C179.713 70.1 179.973 70.8333 180.493 71.34C181.013 71.8333 181.659 72.08 182.433 72.08ZM189.747 69.08V68.76C189.747 67.72 189.953 66.8333 190.367 66.1C190.78 65.3533 191.327 64.7867 192.007 64.4C192.7 64 193.453 63.8 194.267 63.8C195.173 63.8 195.86 63.96 196.327 64.28C196.793 64.6 197.133 64.9333 197.347 65.28H197.707V64.08H200.187V75.76C200.187 76.44 199.987 76.98 199.587 77.38C199.187 77.7933 198.653 78 197.987 78H191.347V75.8H197.107C197.48 75.8 197.667 75.6 197.667 75.2V72.62H197.307C197.173 72.8333 196.987 73.0533 196.747 73.28C196.507 73.4933 196.187 73.6733 195.787 73.82C195.387 73.9667 194.88 74.04 194.267 74.04C193.453 74.04 192.7 73.8467 192.007 73.46C191.327 73.06 190.78 72.4933 190.367 71.76C189.953 71.0133 189.747 70.12 189.747 69.08ZM194.987 71.84C195.76 71.84 196.407 71.5933 196.927 71.1C197.447 70.6067 197.707 69.9133 197.707 69.02V68.82C197.707 67.9133 197.447 67.22 196.927 66.74C196.42 66.2467 195.773 66 194.987 66C194.213 66 193.567 66.2467 193.047 66.74C192.527 67.22 192.267 67.9133 192.267 68.82V69.02C192.267 69.9133 192.527 70.6067 193.047 71.1C193.567 71.5933 194.213 71.84 194.987 71.84ZM207.3 74.28C206.314 74.28 205.44 74.0733 204.68 73.66C203.934 73.2333 203.347 72.64 202.92 71.88C202.507 71.1067 202.3 70.2 202.3 69.16V68.92C202.3 67.88 202.507 66.98 202.92 66.22C203.334 65.4467 203.914 64.8533 204.66 64.44C205.407 64.0133 206.274 63.8 207.26 63.8C208.234 63.8 209.08 64.02 209.8 64.46C210.52 64.8867 211.08 65.4867 211.48 66.26C211.88 67.02 212.08 67.9067 212.08 68.92V69.78H204.86C204.887 70.46 205.14 71.0133 205.62 71.44C206.1 71.8667 206.687 72.08 207.38 72.08C208.087 72.08 208.607 71.9267 208.94 71.62C209.274 71.3133 209.527 70.9733 209.7 70.6L211.76 71.68C211.574 72.0267 211.3 72.4067 210.94 72.82C210.594 73.22 210.127 73.5667 209.54 73.86C208.954 74.14 208.207 74.28 207.3 74.28ZM204.88 67.9H209.52C209.467 67.3267 209.234 66.8667 208.82 66.52C208.42 66.1733 207.894 66 207.24 66C206.56 66 206.02 66.1733 205.62 66.52C205.22 66.8667 204.974 67.3267 204.88 67.9ZM214.123 74V64.08H216.603V65.2H216.963C217.11 64.8 217.35 64.5067 217.683 64.32C218.03 64.1333 218.43 64.04 218.883 64.04H220.083V66.28H218.843C218.203 66.28 217.677 66.4533 217.263 66.8C216.85 67.1333 216.643 67.6533 216.643 68.36V74H214.123ZM225.613 74V61.88H225.253L223.373 66.32H220.693L223.553 60H228.173V74H225.613Z" fill="#1D1D1F"/>
<g opacity="0.6">
<path d="M209 -41H353.219V139.576H330.192C263.26 139.576 209 85.3166 209 18.3841V-41Z" fill="#E6E6E6" fill-opacity="0.5"/>
<path d="M228.391 -41H372.609V139.576H349.583C282.65 139.576 228.391 85.3166 228.391 18.3841V-41Z" fill="#E6E6E6" fill-opacity="0.5"/>
<path d="M247.781 -41H392V139.576H368.973C302.041 139.576 247.781 85.3166 247.781 18.3841V-41Z" fill="#E6E6E6"/>
</g>
<g clip-path="url(#clip0_1140_3028)">
<path d="M294.666 71.3333C295.55 71.3323 296.397 70.9808 297.022 70.3559C297.647 69.731 297.999 68.8837 298 68V62.162C298.001 61.8116 297.932 61.4644 297.798 61.1407C297.664 60.8169 297.467 60.523 297.218 60.276L295.724 58.7813C295.477 58.5328 295.183 58.3357 294.859 58.2016C294.535 58.0675 294.188 57.999 293.838 58H290.666C289.783 58.0011 288.935 58.3526 288.31 58.9775C287.686 59.6024 287.334 60.4496 287.333 61.3333V68C287.334 68.8837 287.686 69.731 288.31 70.3559C288.935 70.9808 289.783 71.3323 290.666 71.3333H294.666ZM288.666 68V61.3333C288.666 60.8029 288.877 60.2942 289.252 59.9191C289.627 59.5441 290.136 59.3333 290.666 59.3333C290.666 59.3333 293.946 59.3427 294 59.3493V60.6667C294 61.0203 294.14 61.3594 294.39 61.6095C294.64 61.8595 294.979 62 295.333 62H296.65C296.657 62.054 296.666 68 296.666 68C296.666 68.5304 296.456 69.0392 296.081 69.4142C295.705 69.7893 295.197 70 294.666 70H290.666C290.136 70 289.627 69.7893 289.252 69.4142C288.877 69.0392 288.666 68.5304 288.666 68ZM300.666 63.3333V70.6667C300.665 71.5504 300.314 72.3976 299.689 73.0225C299.064 73.6474 298.217 73.999 297.333 74H291.333C291.156 74 290.987 73.9298 290.862 73.8048C290.737 73.6797 290.666 73.5102 290.666 73.3333C290.666 73.1565 290.737 72.987 290.862 72.8619C290.987 72.7369 291.156 72.6667 291.333 72.6667H297.333C297.863 72.6667 298.372 72.456 298.747 72.0809C299.122 71.7058 299.333 71.1971 299.333 70.6667V63.3333C299.333 63.1565 299.403 62.987 299.528 62.8619C299.653 62.7369 299.823 62.6667 300 62.6667C300.176 62.6667 300.346 62.7369 300.471 62.8619C300.596 62.987 300.666 63.1565 300.666 63.3333Z" fill="#00B76A"/>
</g>
<defs>
<clipPath id="clip0_1140_3028">
<rect width="16" height="16" fill="white" transform="translate(286 58)"/>
</clipPath>
</defs>
</svg>
