<svg width="350" height="56" viewBox="0 0 350 56" fill="none" xmlns="http://www.w3.org/2000/svg">
<rect x="0.75" y="0.75" width="348.5" height="54.5" rx="11.25" fill="white"/>
<rect x="0.75" y="0.75" width="348.5" height="54.5" rx="11.25" stroke="#E6E6E6" stroke-width="1.5"/>
<path d="M28.5 11.5L42.7894 19.75V36.25L28.5 44.5L14.2106 36.25V19.75L28.5 11.5Z" fill="#00B8D1"/>
<path d="M54.252 33L56.828 23.2H60.048L62.624 33H60.72L60.188 30.844H56.688L56.156 33H54.252ZM57.122 29.136H59.754L58.564 24.362H58.312L57.122 29.136ZM64.3584 33L63.3784 26.056H65.1284L65.7444 31.81H65.9964L66.8924 26.056H69.7204L70.6164 31.81H70.8684L71.4844 26.056H73.2344L72.2544 33H69.3284L68.4324 27.246H68.1804L67.2844 33H64.3584ZM77.9135 33.196C77.2229 33.196 76.6115 33.0513 76.0795 32.762C75.5569 32.4633 75.1462 32.048 74.8475 31.516C74.5582 30.9747 74.4135 30.34 74.4135 29.612V29.444C74.4135 28.716 74.5582 28.086 74.8475 27.554C75.1369 27.0127 75.5429 26.5973 76.0655 26.308C76.5882 26.0093 77.1949 25.86 77.8855 25.86C78.5669 25.86 79.1595 26.014 79.6635 26.322C80.1675 26.6207 80.5595 27.0407 80.8395 27.582C81.1195 28.114 81.2595 28.7347 81.2595 29.444V30.046H76.2055C76.2242 30.522 76.4015 30.9093 76.7375 31.208C77.0735 31.5067 77.4842 31.656 77.9695 31.656C78.4642 31.656 78.8282 31.5487 79.0615 31.334C79.2949 31.1193 79.4722 30.8813 79.5935 30.62L81.0355 31.376C80.9049 31.6187 80.7135 31.8847 80.4615 32.174C80.2189 32.454 79.8922 32.6967 79.4815 32.902C79.0709 33.098 78.5482 33.196 77.9135 33.196ZM76.2195 28.73H79.4675C79.4302 28.3287 79.2669 28.0067 78.9775 27.764C78.6975 27.5213 78.3289 27.4 77.8715 27.4C77.3955 27.4 77.0175 27.5213 76.7375 27.764C76.4575 28.0067 76.2849 28.3287 76.2195 28.73ZM85.7136 33.196C84.8083 33.196 84.0663 33 83.4876 32.608C82.9089 32.216 82.5589 31.656 82.4376 30.928L84.0616 30.508C84.1269 30.8347 84.2343 31.0913 84.3836 31.278C84.5423 31.4647 84.7336 31.6 84.9576 31.684C85.1909 31.7587 85.4429 31.796 85.7136 31.796C86.1243 31.796 86.4276 31.726 86.6236 31.586C86.8196 31.4367 86.9176 31.2547 86.9176 31.04C86.9176 30.8253 86.8243 30.662 86.6376 30.55C86.4509 30.4287 86.1523 30.3307 85.7416 30.256L85.3496 30.186C84.8643 30.0927 84.4209 29.9667 84.0196 29.808C83.6183 29.64 83.2963 29.4113 83.0536 29.122C82.8109 28.8327 82.6896 28.4593 82.6896 28.002C82.6896 27.3113 82.9416 26.784 83.4456 26.42C83.9496 26.0467 84.6123 25.86 85.4336 25.86C86.2083 25.86 86.8523 26.0327 87.3656 26.378C87.8789 26.7233 88.2149 27.176 88.3736 27.736L86.7356 28.24C86.6609 27.8853 86.5069 27.6333 86.2736 27.484C86.0496 27.3347 85.7696 27.26 85.4336 27.26C85.0976 27.26 84.8409 27.3207 84.6636 27.442C84.4863 27.554 84.3976 27.7127 84.3976 27.918C84.3976 28.142 84.4909 28.31 84.6776 28.422C84.8643 28.5247 85.1163 28.604 85.4336 28.66L85.8256 28.73C86.3483 28.8233 86.8196 28.9493 87.2396 29.108C87.6689 29.2573 88.0049 29.4767 88.2476 29.766C88.4996 30.046 88.6256 30.4287 88.6256 30.914C88.6256 31.642 88.3596 32.2067 87.8276 32.608C87.3049 33 86.6003 33.196 85.7136 33.196ZM93.4754 33.196C92.7847 33.196 92.1641 33.056 91.6134 32.776C91.0627 32.496 90.6287 32.09 90.3114 31.558C89.9941 31.026 89.8354 30.3867 89.8354 29.64V29.416C89.8354 28.6693 89.9941 28.03 90.3114 27.498C90.6287 26.966 91.0627 26.56 91.6134 26.28C92.1641 26 92.7847 25.86 93.4754 25.86C94.1661 25.86 94.7867 26 95.3374 26.28C95.8881 26.56 96.3221 26.966 96.6394 27.498C96.9567 28.03 97.1154 28.6693 97.1154 29.416V29.64C97.1154 30.3867 96.9567 31.026 96.6394 31.558C96.3221 32.09 95.8881 32.496 95.3374 32.776C94.7867 33.056 94.1661 33.196 93.4754 33.196ZM93.4754 31.628C94.0167 31.628 94.4647 31.4553 94.8194 31.11C95.1741 30.7553 95.3514 30.2513 95.3514 29.598V29.458C95.3514 28.8047 95.1741 28.3053 94.8194 27.96C94.4741 27.6053 94.0261 27.428 93.4754 27.428C92.9341 27.428 92.4861 27.6053 92.1314 27.96C91.7767 28.3053 91.5994 28.8047 91.5994 29.458V29.598C91.5994 30.2513 91.7767 30.7553 92.1314 31.11C92.4861 31.4553 92.9341 31.628 93.4754 31.628ZM98.7437 33V26.056H100.48V26.812H100.732C100.853 26.5787 101.054 26.378 101.334 26.21C101.614 26.0327 101.982 25.944 102.44 25.944C102.934 25.944 103.331 26.042 103.63 26.238C103.928 26.4247 104.157 26.672 104.316 26.98H104.568C104.726 26.6813 104.95 26.434 105.24 26.238C105.529 26.042 105.94 25.944 106.472 25.944C106.901 25.944 107.288 26.0373 107.634 26.224C107.988 26.4013 108.268 26.6767 108.474 27.05C108.688 27.414 108.796 27.876 108.796 28.436V33H107.032V28.562C107.032 28.1793 106.934 27.8947 106.738 27.708C106.542 27.512 106.266 27.414 105.912 27.414C105.51 27.414 105.198 27.5447 104.974 27.806C104.759 28.058 104.652 28.422 104.652 28.898V33H102.888V28.562C102.888 28.1793 102.79 27.8947 102.594 27.708C102.398 27.512 102.122 27.414 101.768 27.414C101.366 27.414 101.054 27.5447 100.83 27.806C100.615 28.058 100.508 28.422 100.508 28.898V33H98.7437ZM113.857 33.196C113.166 33.196 112.555 33.0513 112.023 32.762C111.5 32.4633 111.09 32.048 110.791 31.516C110.502 30.9747 110.357 30.34 110.357 29.612V29.444C110.357 28.716 110.502 28.086 110.791 27.554C111.08 27.0127 111.486 26.5973 112.009 26.308C112.532 26.0093 113.138 25.86 113.829 25.86C114.51 25.86 115.103 26.014 115.607 26.322C116.111 26.6207 116.503 27.0407 116.783 27.582C117.063 28.114 117.203 28.7347 117.203 29.444V30.046H112.149C112.168 30.522 112.345 30.9093 112.681 31.208C113.017 31.5067 113.428 31.656 113.913 31.656C114.408 31.656 114.772 31.5487 115.005 31.334C115.238 31.1193 115.416 30.8813 115.537 30.62L116.979 31.376C116.848 31.6187 116.657 31.8847 116.405 32.174C116.162 32.454 115.836 32.6967 115.425 32.902C115.014 33.098 114.492 33.196 113.857 33.196ZM112.163 28.73H115.411C115.374 28.3287 115.21 28.0067 114.921 27.764C114.641 27.5213 114.272 27.4 113.815 27.4C113.339 27.4 112.961 27.5213 112.681 27.764C112.401 28.0067 112.228 28.3287 112.163 28.73ZM121.992 33V31.376H123.28V24.824H121.992V23.2H127.032C127.629 23.2 128.147 23.3027 128.586 23.508C129.034 23.704 129.379 23.9887 129.622 24.362C129.874 24.726 130 25.1647 130 25.678V25.818C130 26.266 129.916 26.6347 129.748 26.924C129.58 27.204 129.379 27.4233 129.146 27.582C128.922 27.7313 128.707 27.8387 128.502 27.904V28.156C128.707 28.212 128.931 28.3193 129.174 28.478C129.416 28.6273 129.622 28.8467 129.79 29.136C129.967 29.4253 130.056 29.8033 130.056 30.27V30.41C130.056 30.9513 129.93 31.418 129.678 31.81C129.426 32.1927 129.076 32.4867 128.628 32.692C128.189 32.8973 127.676 33 127.088 33H121.992ZM125.128 31.32H126.864C127.265 31.32 127.587 31.222 127.83 31.026C128.082 30.83 128.208 30.55 128.208 30.186V30.046C128.208 29.682 128.086 29.402 127.844 29.206C127.601 29.01 127.274 28.912 126.864 28.912H125.128V31.32ZM125.128 27.232H126.836C127.218 27.232 127.531 27.134 127.774 26.938C128.026 26.742 128.152 26.4713 128.152 26.126V25.986C128.152 25.6313 128.03 25.3607 127.788 25.174C127.545 24.978 127.228 24.88 126.836 24.88H125.128V27.232ZM133.781 33.196C133.286 33.196 132.843 33.112 132.451 32.944C132.059 32.7667 131.746 32.5147 131.513 32.188C131.289 31.852 131.177 31.446 131.177 30.97C131.177 30.494 131.289 30.0973 131.513 29.78C131.746 29.4533 132.063 29.2107 132.465 29.052C132.875 28.884 133.342 28.8 133.865 28.8H135.769V28.408C135.769 28.0813 135.666 27.8153 135.461 27.61C135.255 27.3953 134.929 27.288 134.481 27.288C134.042 27.288 133.715 27.3907 133.501 27.596C133.286 27.792 133.146 28.0487 133.081 28.366L131.457 27.82C131.569 27.4653 131.746 27.1433 131.989 26.854C132.241 26.5553 132.572 26.3173 132.983 26.14C133.403 25.9533 133.911 25.86 134.509 25.86C135.423 25.86 136.147 26.0887 136.679 26.546C137.211 27.0033 137.477 27.666 137.477 28.534V31.124C137.477 31.404 137.607 31.544 137.869 31.544H138.429V33H137.253C136.907 33 136.623 32.916 136.399 32.748C136.175 32.58 136.063 32.356 136.063 32.076V32.062H135.797C135.759 32.174 135.675 32.3233 135.545 32.51C135.414 32.6873 135.209 32.846 134.929 32.986C134.649 33.126 134.266 33.196 133.781 33.196ZM134.089 31.768C134.583 31.768 134.985 31.6327 135.293 31.362C135.61 31.082 135.769 30.7133 135.769 30.256V30.116H133.991C133.664 30.116 133.407 30.186 133.221 30.326C133.034 30.466 132.941 30.662 132.941 30.914C132.941 31.166 133.039 31.3713 133.235 31.53C133.431 31.6887 133.715 31.768 134.089 31.768ZM139.718 33V26.056H141.454V26.966H141.706C141.818 26.7233 142.028 26.4947 142.336 26.28C142.644 26.056 143.111 25.944 143.736 25.944C144.278 25.944 144.749 26.07 145.15 26.322C145.561 26.5647 145.878 26.9053 146.102 27.344C146.326 27.7733 146.438 28.2773 146.438 28.856V33H144.674V28.996C144.674 28.4733 144.544 28.0813 144.282 27.82C144.03 27.5587 143.666 27.428 143.19 27.428C142.649 27.428 142.229 27.61 141.93 27.974C141.632 28.3287 141.482 28.828 141.482 29.472V33H139.718ZM148.345 33V23.2H150.109V28.618H150.361L152.657 26.056H154.953L151.747 29.416L155.065 33H152.797L150.361 30.242H150.109V33H148.345Z" fill="#1D1D1F"/>
<circle cx="168.5" cy="28" r="1.5" fill="#797979"/>
<circle cx="174.5" cy="28" r="1.5" fill="#797979"/>
<circle cx="180.5" cy="28" r="1.5" fill="#797979"/>
<circle cx="186.5" cy="28" r="1.5" fill="#797979"/>
<path d="M198.096 32V24.728H197.88L196.752 27.392H195.144L196.86 23.6H199.632V32H198.096ZM200.93 32V30.992C200.93 30.408 201.026 29.924 201.218 29.54C201.41 29.148 201.686 28.828 202.046 28.58C202.414 28.324 202.862 28.116 203.39 27.956L204.194 27.704C204.49 27.608 204.738 27.492 204.938 27.356C205.138 27.212 205.29 27.04 205.394 26.84C205.506 26.64 205.562 26.412 205.562 26.156V26.108C205.562 25.708 205.426 25.392 205.154 25.16C204.882 24.92 204.51 24.8 204.038 24.8C203.574 24.8 203.198 24.928 202.91 25.184C202.63 25.432 202.49 25.792 202.49 26.264V26.48H200.954V26.288C200.954 25.68 201.09 25.164 201.362 24.74C201.634 24.316 202.002 23.992 202.466 23.768C202.938 23.544 203.462 23.432 204.038 23.432C204.614 23.432 205.134 23.544 205.598 23.768C206.062 23.984 206.426 24.292 206.69 24.692C206.962 25.084 207.098 25.548 207.098 26.084V26.204C207.098 26.74 206.986 27.196 206.762 27.572C206.546 27.94 206.25 28.244 205.874 28.484C205.498 28.716 205.07 28.908 204.59 29.06L203.822 29.3C203.478 29.404 203.21 29.52 203.018 29.648C202.826 29.768 202.69 29.904 202.61 30.056C202.538 30.2 202.502 30.376 202.502 30.584V30.632H207.026V32H200.93ZM211.199 32.168C210.567 32.168 210.007 32.056 209.519 31.832C209.031 31.608 208.647 31.288 208.367 30.872C208.095 30.448 207.959 29.948 207.959 29.372V29.156H209.495V29.324C209.495 29.772 209.651 30.132 209.963 30.404C210.275 30.668 210.687 30.8 211.199 30.8C211.719 30.8 212.119 30.676 212.399 30.428C212.687 30.18 212.831 29.868 212.831 29.492V29.372C212.831 29.116 212.767 28.908 212.639 28.748C212.511 28.588 212.339 28.472 212.123 28.4C211.907 28.32 211.663 28.28 211.391 28.28H209.711V26.6L212.423 25.16V24.968H208.175V23.6H214.127V25.64L211.595 26.984V27.176H212.039C212.415 27.176 212.779 27.252 213.131 27.404C213.491 27.556 213.787 27.792 214.019 28.112C214.251 28.424 214.367 28.832 214.367 29.336V29.48C214.367 30.024 214.235 30.5 213.971 30.908C213.707 31.308 213.335 31.62 212.855 31.844C212.383 32.06 211.831 32.168 211.199 32.168ZM219.292 32V30.296H215.164V28.52L218.068 23.6H220.828V28.928H222.22V30.296H220.828V32H219.292ZM216.628 28.928H219.292V24.584H219.076L216.628 28.736V28.928Z" fill="#797979"/>
<path d="M328.411 31.0384C328.192 31.0388 327.975 30.9959 327.773 30.9123C327.571 30.8286 327.387 30.7058 327.232 30.5509L322.822 26.1393L324 24.9609L328.411 29.3718L332.822 24.9609L334 26.1393L329.589 30.5501C329.435 30.7051 329.251 30.8281 329.049 30.9119C328.847 30.9957 328.63 31.0387 328.411 31.0384Z" fill="#00B76A"/>
</svg>
