<svg width="67" height="41" viewBox="0 0 67 41" fill="none" xmlns="http://www.w3.org/2000/svg">
<path d="M0.658 10V8.95H2.03V1.25H0.658V0.199999H5.572C6.14133 0.199999 6.64533 0.302666 7.084 0.508C7.532 0.713333 7.87733 1.00267 8.12 1.376C8.372 1.74 8.498 2.16933 8.498 2.664V2.776C8.498 3.23333 8.40933 3.61133 8.232 3.91C8.05467 4.19933 7.84467 4.428 7.602 4.596C7.35933 4.75467 7.12133 4.87133 6.888 4.946V5.142C7.12133 5.198 7.364 5.31 7.616 5.478C7.868 5.63667 8.078 5.86533 8.246 6.164C8.42333 6.46267 8.512 6.84067 8.512 7.298V7.438C8.512 7.97 8.38133 8.432 8.12 8.824C7.868 9.20667 7.518 9.50067 7.07 9.706C6.63133 9.902 6.12733 10 5.558 10H0.658ZM3.206 8.936H5.432C6.048 8.936 6.51933 8.79133 6.846 8.502C7.17267 8.21267 7.336 7.82067 7.336 7.326V7.2C7.336 6.70533 7.17267 6.31333 6.846 6.024C6.51933 5.73467 6.048 5.59 5.432 5.59H3.206V8.936ZM3.206 4.526H5.474C6.034 4.526 6.482 4.386 6.818 4.106C7.154 3.81667 7.322 3.43867 7.322 2.972V2.832C7.322 2.356 7.154 1.978 6.818 1.698C6.49133 1.40867 6.04333 1.264 5.474 1.264H3.206V4.526ZM12.5179 10.196C12.0419 10.196 11.6079 10.112 11.2159 9.944C10.8239 9.776 10.5159 9.53333 10.2919 9.216C10.0679 8.89867 9.95586 8.51133 9.95586 8.054C9.95586 7.58733 10.0679 7.20467 10.2919 6.906C10.5159 6.598 10.8239 6.36933 11.2159 6.22C11.6079 6.06133 12.0465 5.982 12.5319 5.982H14.8419V5.478C14.8419 4.99267 14.6972 4.61 14.4079 4.33C14.1279 4.05 13.7079 3.91 13.1479 3.91C12.5972 3.91 12.1679 4.04533 11.8599 4.316C11.5519 4.57733 11.3419 4.932 11.2299 5.38L10.1939 5.044C10.3059 4.66133 10.4832 4.316 10.7259 4.008C10.9685 3.69067 11.2905 3.43867 11.6919 3.252C12.1025 3.056 12.5925 2.958 13.1619 2.958C14.0392 2.958 14.7205 3.18667 15.2059 3.644C15.6912 4.092 15.9339 4.72667 15.9339 5.548V8.642C15.9339 8.922 16.0645 9.062 16.3259 9.062H16.9559V10H15.9899C15.6819 10 15.4345 9.916 15.2479 9.748C15.0612 9.57067 14.9679 9.33733 14.9679 9.048V8.978H14.7999C14.6972 9.15533 14.5572 9.342 14.3799 9.538C14.2119 9.72467 13.9785 9.87867 13.6799 10C13.3812 10.1307 12.9939 10.196 12.5179 10.196ZM12.6439 9.244C13.2972 9.244 13.8245 9.05267 14.2259 8.67C14.6365 8.278 14.8419 7.732 14.8419 7.032V6.878H12.5739C12.1352 6.878 11.7712 6.976 11.4819 7.172C11.2019 7.35867 11.0619 7.64333 11.0619 8.026C11.0619 8.40867 11.2065 8.70733 11.4959 8.922C11.7945 9.13667 12.1772 9.244 12.6439 9.244ZM18.4706 10V0.199999H19.5766V10H18.4706ZM24.0022 10.196C23.5262 10.196 23.0922 10.112 22.7002 9.944C22.3082 9.776 22.0002 9.53333 21.7762 9.216C21.5522 8.89867 21.4402 8.51133 21.4402 8.054C21.4402 7.58733 21.5522 7.20467 21.7762 6.906C22.0002 6.598 22.3082 6.36933 22.7002 6.22C23.0922 6.06133 23.5309 5.982 24.0162 5.982H26.3262V5.478C26.3262 4.99267 26.1816 4.61 25.8922 4.33C25.6122 4.05 25.1922 3.91 24.6322 3.91C24.0816 3.91 23.6522 4.04533 23.3442 4.316C23.0362 4.57733 22.8262 4.932 22.7142 5.38L21.6782 5.044C21.7902 4.66133 21.9676 4.316 22.2102 4.008C22.4529 3.69067 22.7749 3.43867 23.1762 3.252C23.5869 3.056 24.0769 2.958 24.6462 2.958C25.5236 2.958 26.2049 3.18667 26.6902 3.644C27.1756 4.092 27.4182 4.72667 27.4182 5.548V8.642C27.4182 8.922 27.5489 9.062 27.8102 9.062H28.4402V10H27.4742C27.1662 10 26.9189 9.916 26.7322 9.748C26.5456 9.57067 26.4522 9.33733 26.4522 9.048V8.978H26.2842C26.1816 9.15533 26.0416 9.342 25.8642 9.538C25.6962 9.72467 25.4629 9.87867 25.1642 10C24.8656 10.1307 24.4782 10.196 24.0022 10.196ZM24.1282 9.244C24.7816 9.244 25.3089 9.05267 25.7102 8.67C26.1209 8.278 26.3262 7.732 26.3262 7.032V6.878H24.0582C23.6196 6.878 23.2556 6.976 22.9662 7.172C22.6862 7.35867 22.5462 7.64333 22.5462 8.026C22.5462 8.40867 22.6909 8.70733 22.9802 8.922C23.2789 9.13667 23.6616 9.244 24.1282 9.244ZM29.955 10V3.154H31.033V4.316H31.229C31.3783 3.98933 31.6303 3.69533 31.985 3.434C32.349 3.16333 32.881 3.028 33.581 3.028C34.0943 3.028 34.5516 3.13533 34.953 3.35C35.3636 3.56467 35.6903 3.882 35.933 4.302C36.1756 4.722 36.297 5.24 36.297 5.856V10H35.191V5.94C35.191 5.25867 35.0183 4.764 34.673 4.456C34.337 4.148 33.8796 3.994 33.301 3.994C32.6383 3.994 32.097 4.20867 31.677 4.638C31.2663 5.06733 31.061 5.70667 31.061 6.556V10H29.955ZM41.6909 10.196C41.0282 10.196 40.4309 10.056 39.8989 9.776C39.3762 9.48667 38.9609 9.076 38.6529 8.544C38.3542 8.012 38.2049 7.382 38.2049 6.654V6.5C38.2049 5.76267 38.3542 5.13267 38.6529 4.61C38.9609 4.078 39.3762 3.672 39.8989 3.392C40.4309 3.10267 41.0282 2.958 41.6909 2.958C42.3442 2.958 42.8996 3.07933 43.3569 3.322C43.8236 3.56467 44.1876 3.88667 44.4489 4.288C44.7196 4.68933 44.8922 5.11867 44.9669 5.576L43.8889 5.8C43.8422 5.464 43.7302 5.156 43.5529 4.876C43.3849 4.596 43.1469 4.372 42.8389 4.204C42.5309 4.036 42.1529 3.952 41.7049 3.952C41.2476 3.952 40.8369 4.05467 40.4729 4.26C40.1182 4.46533 39.8336 4.75933 39.6189 5.142C39.4136 5.52467 39.3109 5.982 39.3109 6.514V6.64C39.3109 7.172 39.4136 7.62933 39.6189 8.012C39.8336 8.39467 40.1182 8.68867 40.4729 8.894C40.8369 9.09933 41.2476 9.202 41.7049 9.202C42.3862 9.202 42.9042 9.02467 43.2589 8.67C43.6229 8.31533 43.8469 7.87667 43.9309 7.354L45.0229 7.592C44.9202 8.04 44.7336 8.46467 44.4629 8.866C44.1922 9.26733 43.8236 9.58933 43.3569 9.832C42.8996 10.0747 42.3442 10.196 41.6909 10.196ZM50.0441 10.196C49.3534 10.196 48.7468 10.0513 48.2241 9.762C47.7014 9.46333 47.2954 9.048 47.0061 8.516C46.7168 7.984 46.5721 7.368 46.5721 6.668V6.5C46.5721 5.79067 46.7168 5.17 47.0061 4.638C47.2954 4.106 47.6968 3.69533 48.2101 3.406C48.7234 3.10733 49.3114 2.958 49.9741 2.958C50.6181 2.958 51.1874 3.098 51.6821 3.378C52.1768 3.64867 52.5641 4.04067 52.8441 4.554C53.1241 5.06733 53.2641 5.66933 53.2641 6.36V6.864H47.6781C47.7061 7.60133 47.9441 8.18 48.3921 8.6C48.8401 9.01067 49.4001 9.216 50.0721 9.216C50.6601 9.216 51.1128 9.08067 51.4301 8.81C51.7474 8.53933 51.9901 8.21733 52.1581 7.844L53.1101 8.306C52.9701 8.59533 52.7741 8.88467 52.5221 9.174C52.2794 9.46333 51.9574 9.706 51.5561 9.902C51.1641 10.098 50.6601 10.196 50.0441 10.196ZM47.6921 5.954H52.1441C52.1068 5.31933 51.8874 4.82467 51.4861 4.47C51.0941 4.11533 50.5901 3.938 49.9741 3.938C49.3488 3.938 48.8354 4.11533 48.4341 4.47C48.0328 4.82467 47.7854 5.31933 47.6921 5.954Z" fill="#797979"/>
<path d="M6.72 38V34.4C6.72 34.08 6.63333 33.82 6.46 33.62C6.3 33.42 6.02667 33.32 5.64 33.32H1.08V30.92H4.72C5.50667 30.92 6.1 30.7333 6.5 30.36C6.91333 29.9733 7.12 29.38 7.12 28.58C7.12 27.78 6.91333 27.1933 6.5 26.82C6.1 26.4333 5.50667 26.24 4.72 26.24H1.08V24H11.88V26.04H8.44V26.4C8.82667 26.6533 9.13333 26.9667 9.36 27.34C9.6 27.7133 9.72 28.2533 9.72 28.96C9.72 29.68 9.53333 30.2733 9.16 30.74C8.8 31.2067 8.30667 31.5467 7.68 31.76V32.12C8.21333 32.1467 8.62667 32.3333 8.92 32.68C9.21333 33.0133 9.36 33.46 9.36 34.02V38H6.72ZM1.08 29.6V27.56H11.88V29.6H1.08Z" fill="#1D1D1F"/>
<path d="M20.67 38.3C19.9367 38.3 19.2533 38.15 18.62 37.85C17.9867 37.5433 17.44 37.1233 16.98 36.59C16.5267 36.0567 16.2 35.4367 16 34.73L18.32 34.11C18.4133 34.4967 18.5833 34.83 18.83 35.11C19.0833 35.39 19.3767 35.6067 19.71 35.76C20.05 35.9133 20.4 35.99 20.76 35.99C21.2267 35.99 21.6533 35.8767 22.04 35.65C22.4267 35.4233 22.7333 35.12 22.96 34.74C23.1867 34.3533 23.3 33.9267 23.3 33.46C23.3 32.9933 23.1833 32.57 22.95 32.19C22.7233 31.8033 22.4167 31.5 22.03 31.28C21.6433 31.0533 21.22 30.94 20.76 30.94C20.2067 30.94 19.7467 31.04 19.38 31.24C19.02 31.44 18.7433 31.6533 18.55 31.88L16.49 31.22L16.93 23.6H24.75V25.86H18.22L19.12 25.01L18.8 30.31L18.36 29.77C18.7333 29.43 19.1667 29.1767 19.66 29.01C20.1533 28.8433 20.63 28.76 21.09 28.76C21.99 28.76 22.7867 28.9667 23.48 29.38C24.18 29.7867 24.7267 30.3433 25.12 31.05C25.52 31.7567 25.72 32.56 25.72 33.46C25.72 34.36 25.4867 35.1767 25.02 35.91C24.5533 36.6367 23.9367 37.2167 23.17 37.65C22.41 38.0833 21.5767 38.3 20.67 38.3ZM26.5188 40.55L26.6588 39.51C26.9654 39.5367 27.2088 39.4833 27.3888 39.35C27.5688 39.2233 27.6888 39.04 27.7488 38.8C27.8154 38.5667 27.8321 38.3 27.7988 38H26.5188V35.43H28.9888V38.1C28.9888 38.9733 28.7821 39.6333 28.3688 40.08C27.9554 40.5267 27.3388 40.6833 26.5188 40.55ZM36.573 38.3C35.553 38.3 34.653 38.0833 33.873 37.65C33.093 37.21 32.483 36.6 32.043 35.82C31.6096 35.04 31.393 34.14 31.393 33.12V28.48C31.393 27.46 31.6096 26.56 32.043 25.78C32.483 25 33.093 24.3933 33.873 23.96C34.653 23.52 35.553 23.3 36.573 23.3C37.593 23.3 38.4896 23.52 39.263 23.96C40.043 24.3933 40.653 25 41.093 25.78C41.533 26.56 41.753 27.46 41.753 28.48V33.12C41.753 34.14 41.533 35.04 41.093 35.82C40.653 36.6 40.043 37.21 39.263 37.65C38.4896 38.0833 37.593 38.3 36.573 38.3ZM36.573 36.01C37.0796 36.01 37.5396 35.89 37.953 35.65C38.3663 35.4033 38.693 35.0767 38.933 34.67C39.173 34.2567 39.293 33.7967 39.293 33.29V28.3C39.293 27.7867 39.173 27.3267 38.933 26.92C38.693 26.5067 38.3663 26.18 37.953 25.94C37.5396 25.6933 37.0796 25.57 36.573 25.57C36.0663 25.57 35.6063 25.6933 35.193 25.94C34.7796 26.18 34.453 26.5067 34.213 26.92C33.973 27.3267 33.853 27.7867 33.853 28.3V33.29C33.853 33.7967 33.973 34.2567 34.213 34.67C34.453 35.0767 34.7796 35.4033 35.193 35.65C35.6063 35.89 36.0663 36.01 36.573 36.01ZM48.337 38.3C47.317 38.3 46.417 38.0833 45.637 37.65C44.857 37.21 44.247 36.6 43.807 35.82C43.3737 35.04 43.157 34.14 43.157 33.12V28.48C43.157 27.46 43.3737 26.56 43.807 25.78C44.247 25 44.857 24.3933 45.637 23.96C46.417 23.52 47.317 23.3 48.337 23.3C49.357 23.3 50.2537 23.52 51.027 23.96C51.807 24.3933 52.417 25 52.857 25.78C53.297 26.56 53.517 27.46 53.517 28.48V33.12C53.517 34.14 53.297 35.04 52.857 35.82C52.417 36.6 51.807 37.21 51.027 37.65C50.2537 38.0833 49.357 38.3 48.337 38.3ZM48.337 36.01C48.8437 36.01 49.3037 35.89 49.717 35.65C50.1304 35.4033 50.457 35.0767 50.697 34.67C50.937 34.2567 51.057 33.7967 51.057 33.29V28.3C51.057 27.7867 50.937 27.3267 50.697 26.92C50.457 26.5067 50.1304 26.18 49.717 25.94C49.3037 25.6933 48.8437 25.57 48.337 25.57C47.8304 25.57 47.3704 25.6933 46.957 25.94C46.5437 26.18 46.217 26.5067 45.977 26.92C45.737 27.3267 45.617 27.7867 45.617 28.3V33.29C45.617 33.7967 45.737 34.2567 45.977 34.67C46.217 35.0767 46.5437 35.4033 46.957 35.65C47.3704 35.89 47.8304 36.01 48.337 36.01ZM60.1011 38.3C59.0811 38.3 58.1811 38.0833 57.4011 37.65C56.6211 37.21 56.0111 36.6 55.5711 35.82C55.1378 35.04 54.9211 34.14 54.9211 33.12V28.48C54.9211 27.46 55.1378 26.56 55.5711 25.78C56.0111 25 56.6211 24.3933 57.4011 23.96C58.1811 23.52 59.0811 23.3 60.1011 23.3C61.1211 23.3 62.0178 23.52 62.7911 23.96C63.5711 24.3933 64.1811 25 64.6211 25.78C65.0611 26.56 65.2811 27.46 65.2811 28.48V33.12C65.2811 34.14 65.0611 35.04 64.6211 35.82C64.1811 36.6 63.5711 37.21 62.7911 37.65C62.0178 38.0833 61.1211 38.3 60.1011 38.3ZM60.1011 36.01C60.6078 36.01 61.0678 35.89 61.4811 35.65C61.8944 35.4033 62.2211 35.0767 62.4611 34.67C62.7011 34.2567 62.8211 33.7967 62.8211 33.29V28.3C62.8211 27.7867 62.7011 27.3267 62.4611 26.92C62.2211 26.5067 61.8944 26.18 61.4811 25.94C61.0678 25.6933 60.6078 25.57 60.1011 25.57C59.5944 25.57 59.1344 25.6933 58.7211 25.94C58.3078 26.18 57.9811 26.5067 57.7411 26.92C57.5011 27.3267 57.3811 27.7867 57.3811 28.3V33.29C57.3811 33.7967 57.5011 34.2567 57.7411 34.67C57.9811 35.0767 58.3078 35.4033 58.7211 35.65C59.1344 35.89 59.5944 36.01 60.1011 36.01Z" fill="#1D1D1F"/>
</svg>
