<svg width="314" height="75" viewBox="0 0 314 75" fill="none" xmlns="http://www.w3.org/2000/svg">
<g clip-path="url(#clip0_704_1366)">
<path d="M8.75 0H31.25C36.0781 0 40 3.92188 40 8.75V31.25C40 36.0781 36.0781 40 31.25 40H8.75C3.92188 40 0 36.0781 0 31.25V8.75C0 3.92188 3.92188 0 8.75 0Z" fill="white"/>
<path d="M16.3906 15.8438C17.3438 16.2188 18.2969 16.625 19.2188 17.0781C16.25 18.2813 13.3594 19.7344 10.6406 21.4062C9.71875 20.9219 8.76562 20.4375 7.8125 20.0156C10.5625 18.4063 13.4219 17 16.3906 15.8438ZM12.7812 14.5312C13.6094 14.7812 14.3906 15.0625 15.1875 15.3594C12.1875 16.4375 9.3125 17.8125 6.57812 19.4688C5.70312 19.0781 4.8125 18.7344 3.90625 18.3906C6.73438 16.8281 9.70313 15.5312 12.7812 14.5312Z" fill="#0060AA"/>
<path d="M22.8281 15.7969C21.9844 16.0937 21.1563 16.375 20.3281 16.7031C17.8281 15.5 15.2188 14.5 12.5625 13.6875C13.4375 13.4062 14.3438 13.1094 15.2813 12.8437C17.8594 13.6406 20.375 14.625 22.8281 15.7969ZM26.7344 14.5781C25.875 14.7969 25 15.0625 24.1563 15.3281C21.7031 14.1562 19.1562 13.2031 16.5469 12.4375C17.3594 12.2187 18.1875 12.0312 19.0312 11.875C21.6719 12.5938 24.25 13.4844 26.7344 14.5781ZM19.625 28.2812C18.375 27.3438 17.1094 26.5 15.7812 25.6719C21.0625 21.9062 26.8906 18.8906 33.125 16.7969C34.125 17.3281 35.1094 17.8906 36.0938 18.5C30.1562 21 24.6094 24.3125 19.625 28.2812ZM28.8125 14.7031C29.9531 15.1562 31.0469 15.6875 32.125 16.2344C25.7656 18.1563 19.7969 21.0937 14.4219 24.8281C13.2344 24.1406 12.0156 23.4844 10.7812 22.875C16.2656 19.1875 22.3437 16.4062 28.8125 14.7031Z" fill="#E41215"/>
</g>
<path d="M0.564 57V55.848H1.692V49.752H0.564V48.6H4.824C5.328 48.6 5.768 48.688 6.144 48.864C6.52 49.032 6.812 49.276 7.02 49.596C7.236 49.908 7.344 50.28 7.344 50.712V50.832C7.344 51.216 7.272 51.532 7.128 51.78C6.984 52.028 6.808 52.22 6.6 52.356C6.4 52.492 6.208 52.588 6.024 52.644V52.836C6.208 52.884 6.404 52.98 6.612 53.124C6.828 53.26 7.008 53.452 7.152 53.7C7.304 53.948 7.38 54.272 7.38 54.672V54.792C7.38 55.256 7.272 55.652 7.056 55.98C6.84 56.308 6.54 56.56 6.156 56.736C5.78 56.912 5.344 57 4.848 57H0.564ZM3 55.824H4.692C5.124 55.824 5.464 55.72 5.712 55.512C5.96 55.304 6.084 55.016 6.084 54.648V54.54C6.084 54.172 5.96 53.884 5.712 53.676C5.472 53.468 5.132 53.364 4.692 53.364H3V55.824ZM3 52.176H4.692C5.1 52.176 5.428 52.076 5.676 51.876C5.924 51.668 6.048 51.388 6.048 51.036V50.916C6.048 50.564 5.924 50.288 5.676 50.088C5.436 49.88 5.108 49.776 4.692 49.776H3V52.176ZM10.705 57.168C10.281 57.168 9.90103 57.096 9.56503 56.952C9.23703 56.808 8.97303 56.596 8.77303 56.316C8.58103 56.036 8.48503 55.696 8.48503 55.296C8.48503 54.888 8.58103 54.552 8.77303 54.288C8.97303 54.016 9.24103 53.812 9.57703 53.676C9.92103 53.54 10.309 53.472 10.741 53.472H12.541V53.088C12.541 52.744 12.437 52.468 12.229 52.26C12.021 52.052 11.701 51.948 11.269 51.948C10.845 51.948 10.521 52.048 10.297 52.248C10.073 52.448 9.92503 52.708 9.85303 53.028L8.70103 52.656C8.79703 52.336 8.94903 52.048 9.15703 51.792C9.37303 51.528 9.65703 51.316 10.009 51.156C10.361 50.996 10.785 50.916 11.281 50.916C12.049 50.916 12.653 51.112 13.093 51.504C13.533 51.896 13.753 52.452 13.753 53.172V55.608C13.753 55.848 13.865 55.968 14.089 55.968H14.593V57H13.669C13.389 57 13.161 56.928 12.985 56.784C12.809 56.64 12.721 56.444 12.721 56.196V56.16H12.541C12.477 56.28 12.381 56.42 12.253 56.58C12.125 56.74 11.937 56.88 11.689 57C11.441 57.112 11.113 57.168 10.705 57.168ZM10.885 56.148C11.381 56.148 11.781 56.008 12.085 55.728C12.389 55.44 12.541 55.048 12.541 54.552V54.432H10.813C10.485 54.432 10.221 54.504 10.021 54.648C9.82103 54.784 9.72103 54.988 9.72103 55.26C9.72103 55.532 9.82503 55.748 10.033 55.908C10.241 56.068 10.525 56.148 10.885 56.148ZM15.7948 57V51.084H17.0068V51.972H17.1988C17.3108 51.732 17.5108 51.508 17.7988 51.3C18.0868 51.092 18.5148 50.988 19.0828 50.988C19.5308 50.988 19.9268 51.088 20.2708 51.288C20.6228 51.488 20.8988 51.772 21.0988 52.14C21.2988 52.5 21.3988 52.936 21.3988 53.448V57H20.1628V53.544C20.1628 53.032 20.0348 52.656 19.7788 52.416C19.5228 52.168 19.1708 52.044 18.7228 52.044C18.2108 52.044 17.7988 52.212 17.4868 52.548C17.1828 52.884 17.0308 53.372 17.0308 54.012V57H15.7948ZM23.1776 57V48.6H24.4136V53.388H24.6056L26.9336 51.084H28.5776L25.5896 53.952L28.6736 57H27.0416L24.6056 54.54H24.4136V57H23.1776ZM35.6176 57.168C35.0256 57.168 34.4976 57.048 34.0336 56.808C33.5776 56.56 33.2176 56.208 32.9536 55.752C32.6896 55.296 32.5576 54.756 32.5576 54.132V53.952C32.5576 53.328 32.6896 52.792 32.9536 52.344C33.2176 51.888 33.5776 51.536 34.0336 51.288C34.4976 51.04 35.0256 50.916 35.6176 50.916C36.2096 50.916 36.7376 51.04 37.2016 51.288C37.6656 51.536 38.0296 51.888 38.2936 52.344C38.5576 52.792 38.6896 53.328 38.6896 53.952V54.132C38.6896 54.756 38.5576 55.296 38.2936 55.752C38.0296 56.208 37.6656 56.56 37.2016 56.808C36.7376 57.048 36.2096 57.168 35.6176 57.168ZM35.6176 56.064C36.1616 56.064 36.6016 55.892 36.9376 55.548C37.2816 55.196 37.4536 54.712 37.4536 54.096V53.988C37.4536 53.372 37.2856 52.892 36.9496 52.548C36.6136 52.196 36.1696 52.02 35.6176 52.02C35.0816 52.02 34.6416 52.196 34.2976 52.548C33.9616 52.892 33.7936 53.372 33.7936 53.988V54.096C33.7936 54.712 33.9616 55.196 34.2976 55.548C34.6416 55.892 35.0816 56.064 35.6176 56.064ZM41.0738 57V52.128H39.4178V51.084H41.0738V49.788C41.0738 49.428 41.1818 49.14 41.3978 48.924C41.6138 48.708 41.9018 48.6 42.2617 48.6H43.7858V49.644H42.6578C42.4258 49.644 42.3098 49.764 42.3098 50.004V51.084H44.0138V52.128H42.3098V57H41.0738ZM0.252 72L2.652 63.6H4.932L7.32 72H5.988L5.436 70.02H2.148L1.596 72H0.252ZM2.472 68.82H5.112L3.888 64.404H3.696L2.472 68.82ZM8.49403 72V66.084H9.70603V66.78H9.89803C10.01 66.572 10.19 66.388 10.438 66.228C10.686 66.068 11.022 65.988 11.446 65.988C11.886 65.988 12.238 66.08 12.502 66.264C12.774 66.44 12.978 66.668 13.114 66.948H13.306C13.442 66.676 13.638 66.448 13.894 66.264C14.158 66.08 14.53 65.988 15.01 65.988C15.394 65.988 15.734 66.068 16.03 66.228C16.326 66.38 16.562 66.612 16.738 66.924C16.914 67.228 17.002 67.608 17.002 68.064V72H15.766V68.16C15.766 67.8 15.666 67.524 15.466 67.332C15.274 67.132 14.998 67.032 14.638 67.032C14.254 67.032 13.946 67.156 13.714 67.404C13.482 67.652 13.366 68.008 13.366 68.472V72H12.13V68.16C12.13 67.8 12.03 67.524 11.83 67.332C11.638 67.132 11.362 67.032 11.002 67.032C10.618 67.032 10.31 67.156 10.078 67.404C9.84603 67.652 9.73003 68.008 9.73003 68.472V72H8.49403ZM21.4951 72.168C20.8951 72.168 20.3711 72.044 19.9231 71.796C19.4751 71.54 19.1231 71.184 18.8671 70.728C18.6191 70.264 18.4951 69.728 18.4951 69.12V68.976C18.4951 68.36 18.6191 67.824 18.8671 67.368C19.1151 66.904 19.4591 66.548 19.8991 66.3C20.3471 66.044 20.8631 65.916 21.4471 65.916C22.0151 65.916 22.5111 66.044 22.9351 66.3C23.3671 66.548 23.7031 66.896 23.9431 67.344C24.1831 67.792 24.3031 68.316 24.3031 68.916V69.384H19.7551C19.7711 69.904 19.9431 70.32 20.2711 70.632C20.6071 70.936 21.0231 71.088 21.5191 71.088C21.9831 71.088 22.3311 70.984 22.5631 70.776C22.8031 70.568 22.9871 70.328 23.1151 70.056L24.1351 70.584C24.0231 70.808 23.8591 71.044 23.6431 71.292C23.4351 71.54 23.1591 71.748 22.8151 71.916C22.4711 72.084 22.0311 72.168 21.4951 72.168ZM19.7671 68.436H23.0431C23.0111 67.988 22.8511 67.64 22.5631 67.392C22.2751 67.136 21.8991 67.008 21.4351 67.008C20.9711 67.008 20.5911 67.136 20.2951 67.392C20.0071 67.64 19.8311 67.988 19.7671 68.436ZM25.7909 72V66.084H27.0029V66.78H27.1949C27.2909 66.532 27.4429 66.352 27.6509 66.24C27.8669 66.12 28.1309 66.06 28.4429 66.06H29.1509V67.176H28.3949C27.9949 67.176 27.6669 67.288 27.4109 67.512C27.1549 67.728 27.0269 68.064 27.0269 68.52V72H25.7909ZM30.4315 72V66.084H31.6675V72H30.4315ZM31.0555 65.28C30.8155 65.28 30.6115 65.204 30.4435 65.052C30.2835 64.892 30.2035 64.688 30.2035 64.44C30.2035 64.192 30.2835 63.992 30.4435 63.84C30.6115 63.68 30.8155 63.6 31.0555 63.6C31.3035 63.6 31.5075 63.68 31.6675 63.84C31.8275 63.992 31.9075 64.192 31.9075 64.44C31.9075 64.688 31.8275 64.892 31.6675 65.052C31.5075 65.204 31.3035 65.28 31.0555 65.28ZM36.2498 72.168C35.6818 72.168 35.1658 72.048 34.7018 71.808C34.2458 71.568 33.8818 71.22 33.6098 70.764C33.3458 70.308 33.2138 69.76 33.2138 69.12V68.964C33.2138 68.324 33.3458 67.78 33.6098 67.332C33.8818 66.876 34.2458 66.528 34.7018 66.288C35.1658 66.04 35.6818 65.916 36.2498 65.916C36.8178 65.916 37.3018 66.02 37.7018 66.228C38.1018 66.436 38.4218 66.712 38.6618 67.056C38.9098 67.4 39.0698 67.78 39.1418 68.196L37.9418 68.448C37.9018 68.184 37.8178 67.944 37.6898 67.728C37.5618 67.512 37.3818 67.34 37.1498 67.212C36.9178 67.084 36.6258 67.02 36.2738 67.02C35.9298 67.02 35.6178 67.1 35.3378 67.26C35.0658 67.412 34.8498 67.636 34.6898 67.932C34.5298 68.22 34.4498 68.572 34.4498 68.988V69.096C34.4498 69.512 34.5298 69.868 34.6898 70.164C34.8498 70.46 35.0658 70.684 35.3378 70.836C35.6178 70.988 35.9298 71.064 36.2738 71.064C36.7938 71.064 37.1898 70.932 37.4618 70.668C37.7338 70.396 37.9058 70.052 37.9778 69.636L39.1778 69.912C39.0818 70.32 38.9098 70.696 38.6618 71.04C38.4218 71.384 38.1018 71.66 37.7018 71.868C37.3018 72.068 36.8178 72.168 36.2498 72.168ZM42.4394 72.168C42.0154 72.168 41.6354 72.096 41.2994 71.952C40.9714 71.808 40.7074 71.596 40.5074 71.316C40.3154 71.036 40.2194 70.696 40.2194 70.296C40.2194 69.888 40.3154 69.552 40.5074 69.288C40.7074 69.016 40.9754 68.812 41.3114 68.676C41.6554 68.54 42.0434 68.472 42.4754 68.472H44.2754V68.088C44.2754 67.744 44.1714 67.468 43.9634 67.26C43.7554 67.052 43.4354 66.948 43.0034 66.948C42.5794 66.948 42.2554 67.048 42.0314 67.248C41.8074 67.448 41.6594 67.708 41.5874 68.028L40.4354 67.656C40.5314 67.336 40.6834 67.048 40.8914 66.792C41.1074 66.528 41.3914 66.316 41.7434 66.156C42.0954 65.996 42.5194 65.916 43.0154 65.916C43.7834 65.916 44.3874 66.112 44.8274 66.504C45.2674 66.896 45.4874 67.452 45.4874 68.172V70.608C45.4874 70.848 45.5994 70.968 45.8234 70.968H46.3274V72H45.4034C45.1234 72 44.8954 71.928 44.7194 71.784C44.5434 71.64 44.4554 71.444 44.4554 71.196V71.16H44.2754C44.2114 71.28 44.1154 71.42 43.9874 71.58C43.8594 71.74 43.6714 71.88 43.4234 72C43.1754 72.112 42.8474 72.168 42.4394 72.168ZM42.6194 71.148C43.1154 71.148 43.5154 71.008 43.8194 70.728C44.1234 70.44 44.2754 70.048 44.2754 69.552V69.432H42.5474C42.2194 69.432 41.9554 69.504 41.7554 69.648C41.5554 69.784 41.4554 69.988 41.4554 70.26C41.4554 70.532 41.5594 70.748 41.7674 70.908C41.9754 71.068 42.2594 71.148 42.6194 71.148Z" fill="#1D1D1F"/>
<circle cx="99.5" cy="60.5" r="1.5" fill="#797979"/>
<circle cx="105.5" cy="60.5" r="1.5" fill="#797979"/>
<circle cx="111.5" cy="60.5" r="1.5" fill="#797979"/>
<circle cx="117.5" cy="60.5" r="1.5" fill="#797979"/>
<path d="M128.346 65V57.74L126.72 58.73V57.332L128.346 56.36H129.624V65H128.346ZM131.663 64.994L131.669 63.878L135.431 60.506C135.735 60.238 135.941 59.982 136.049 59.738C136.161 59.494 136.217 59.25 136.217 59.006C136.217 58.698 136.149 58.422 136.013 58.178C135.877 57.93 135.689 57.734 135.449 57.59C135.209 57.446 134.933 57.374 134.621 57.374C134.301 57.374 134.015 57.45 133.763 57.602C133.515 57.75 133.321 57.948 133.181 58.196C133.041 58.444 132.973 58.712 132.977 59H131.693C131.693 58.44 131.819 57.95 132.071 57.53C132.327 57.106 132.677 56.776 133.121 56.54C133.565 56.3 134.073 56.18 134.645 56.18C135.189 56.18 135.677 56.304 136.109 56.552C136.541 56.796 136.881 57.132 137.129 57.56C137.381 57.988 137.507 58.476 137.507 59.024C137.507 59.42 137.455 59.756 137.351 60.032C137.247 60.308 137.091 60.564 136.883 60.8C136.675 61.036 136.415 61.292 136.103 61.568L133.199 64.16L133.061 63.8H137.507V64.994H131.663ZM141.363 65.162C140.935 65.162 140.533 65.082 140.157 64.922C139.781 64.758 139.455 64.526 139.179 64.226C138.907 63.926 138.709 63.572 138.585 63.164L139.797 62.828C139.913 63.2 140.115 63.486 140.403 63.686C140.691 63.882 141.011 63.978 141.363 63.974C141.679 63.97 141.957 63.896 142.197 63.752C142.437 63.608 142.625 63.414 142.761 63.17C142.897 62.922 142.965 62.638 142.965 62.318C142.965 61.838 142.815 61.442 142.515 61.13C142.219 60.818 141.831 60.662 141.351 60.662C141.215 60.662 141.075 60.682 140.931 60.722C140.791 60.762 140.659 60.814 140.535 60.878L139.947 59.888L142.995 57.194L143.127 57.554H138.927V56.36H144.123V57.554L141.591 59.99L141.579 59.582C142.123 59.582 142.595 59.704 142.995 59.948C143.395 60.188 143.703 60.516 143.919 60.932C144.139 61.344 144.249 61.806 144.249 62.318C144.249 62.87 144.119 63.36 143.859 63.788C143.603 64.216 143.257 64.552 142.821 64.796C142.389 65.04 141.903 65.162 141.363 65.162ZM149.473 65V63.494H145.573V62.306L148.381 56.36H149.815L147.007 62.306H149.473V59.966H150.745V62.306H151.603V63.494H150.745V65H149.473Z" fill="#797979"/>
<g filter="url(#filter0_d_704_1366)">
<rect x="268" y="24" width="24" height="24" rx="12" fill="white"/>
<path d="M278.029 29.0996C277.739 29.0996 277.565 29.3315 277.565 29.5635V32.9845H286.61L282.494 29.0996H278.029Z" fill="#034492"/>
<path d="M286.9 34.0283C286.9 33.7384 286.668 33.5645 286.436 33.5645H283.015V42.6098L286.9 38.493V34.0283Z" fill="#034492"/>
<path d="M281.972 42.8995C282.262 42.8995 282.436 42.6676 282.436 42.4357V39.0146H273.39L277.507 42.8995H281.972Z" fill="#034492"/>
<path d="M273.1 37.9708C273.1 38.2607 273.332 38.4347 273.564 38.4347H276.985V29.4473L273.1 33.5641V37.9708Z" fill="#034492"/>
</g>
<g filter="url(#filter1_d_704_1366)">
<rect x="286" y="24" width="24" height="24" rx="12" fill="white"/>
<path fill-rule="evenodd" clip-rule="evenodd" d="M300.469 30.6065C299.389 30.6743 298.388 31.0092 297.497 31.6003C297.102 31.8621 296.698 32.2159 296.391 32.5673C296.257 32.7216 296.059 32.9729 296.059 32.9902C296.059 32.996 296.337 33.0001 296.728 33.0001H297.397L297.518 32.8885C298.07 32.38 298.686 32.0224 299.377 31.8086C300.883 31.343 302.512 31.6515 303.75 32.6367C303.833 32.7032 303.962 32.8121 304.035 32.8788L304.167 33.0001H304.837C305.463 33.0001 305.506 32.9988 305.499 32.9815C305.488 32.9542 305.376 32.8074 305.259 32.668C304.352 31.585 303.022 30.8562 301.586 30.6553C301.254 30.6089 300.769 30.5876 300.469 30.6065ZM300.611 32.4762L300.046 32.7661L300.043 33.3237L300.04 33.8813H299.544H299.048V34.3981V34.9149H299.544H300.04L300.044 36.5768C300.048 38.2129 300.048 38.2404 300.072 38.35C300.192 38.9115 300.524 39.2722 301.043 39.406C301.145 39.4323 301.17 39.4342 301.409 39.4346C301.695 39.4351 301.813 39.4195 302.026 39.3531C302.132 39.3201 302.381 39.209 302.401 39.1861C302.412 39.1736 302.691 38.1352 302.685 38.1301C302.683 38.1284 302.625 38.1583 302.556 38.1965C302.081 38.4597 301.595 38.5122 301.375 38.3239C301.307 38.2654 301.273 38.212 301.236 38.1081L301.21 38.032L301.207 36.4735L301.203 34.9149H301.803H302.402V34.3981V33.8813H301.803H301.204V33.0327C301.204 32.3605 301.201 32.1843 301.19 32.1851C301.182 32.1857 300.921 32.3167 300.611 32.4762ZM293.972 33.7903C293.488 33.8103 293.067 33.9108 292.654 34.1044C292.2 34.3179 291.85 34.6078 291.579 34.9965C290.985 35.845 290.938 37.1611 291.468 38.0809C291.981 38.9708 293.025 39.4963 294.206 39.4593C294.77 39.4417 295.213 39.2954 295.659 38.9796C295.768 38.9021 296.162 38.5415 296.162 38.5189C296.162 38.5142 296.013 38.3379 295.83 38.1271L295.499 37.7439L295.391 37.8386C294.845 38.3195 294.243 38.4829 293.595 38.3261C293.419 38.2833 293.22 38.1994 293.077 38.1075C292.595 37.7983 292.321 37.3044 292.299 36.7046C292.283 36.2731 292.383 35.9135 292.611 35.5849C292.709 35.4434 292.922 35.2386 293.064 35.1498C293.326 34.9854 293.616 34.8936 293.941 34.872C294.464 34.8373 294.965 35.0243 295.388 35.4124C295.442 35.4619 295.49 35.5022 295.496 35.5019C295.502 35.5017 295.654 35.3301 295.835 35.1208L296.164 34.7401L296.132 34.6997C296.078 34.6317 295.831 34.4017 295.729 34.3234C295.353 34.0366 294.935 33.865 294.483 33.8121C294.331 33.7942 294.108 33.7847 293.972 33.7903ZM296.835 36.623V39.3648H297.423H298.01V36.623V33.8813H297.423H296.835V36.623ZM303.591 36.6203L303.594 39.3593H304.181H304.769L304.772 36.6203L304.774 33.8813H304.181H303.588L303.591 36.6203Z" fill="#004685"/>
<path fill-rule="evenodd" clip-rule="evenodd" d="M300.469 30.6065C299.389 30.6743 298.388 31.0092 297.497 31.6003C297.102 31.8621 296.698 32.2159 296.391 32.5673C296.257 32.7216 296.06 32.9729 296.06 32.9902C296.06 32.996 296.337 33.0001 296.728 33.0001H297.397L297.518 32.8885C298.07 32.38 298.686 32.0224 299.377 31.8086C300.883 31.343 302.512 31.6515 303.75 32.6367C303.834 32.7032 303.962 32.8121 304.035 32.8788L304.168 33.0001H304.837C305.463 33.0001 305.506 32.9988 305.5 32.9815C305.489 32.9542 305.376 32.8074 305.259 32.668C304.352 31.585 303.022 30.8562 301.586 30.6553C301.254 30.6089 300.769 30.5876 300.469 30.6065Z" fill="#EE1C25"/>
</g>
<path d="M269.91 72.168C268.886 72.168 268.074 71.88 267.474 71.304C266.874 70.72 266.574 69.88 266.574 68.784V66.816C266.574 65.72 266.874 64.884 267.474 64.308C268.074 63.724 268.886 63.432 269.91 63.432C270.918 63.432 271.694 63.712 272.238 64.272C272.79 64.832 273.066 65.596 273.066 66.564V66.636H271.782V66.528C271.782 65.96 271.626 65.496 271.314 65.136C271.01 64.776 270.542 64.596 269.91 64.596C269.27 64.596 268.77 64.792 268.41 65.184C268.05 65.568 267.87 66.104 267.87 66.792V68.808C267.87 69.488 268.05 70.024 268.41 70.416C268.77 70.808 269.27 71.004 269.91 71.004C270.542 71.004 271.01 70.824 271.314 70.464C271.626 70.096 271.782 69.632 271.782 69.072V68.868H273.066V69.036C273.066 70.004 272.79 70.768 272.238 71.328C271.694 71.888 270.918 72.168 269.91 72.168ZM274.537 72V63.6H275.773V66.924H275.965C276.045 66.772 276.157 66.624 276.301 66.48C276.453 66.336 276.649 66.22 276.889 66.132C277.137 66.036 277.449 65.988 277.825 65.988C278.273 65.988 278.669 66.088 279.013 66.288C279.365 66.488 279.641 66.772 279.841 67.14C280.041 67.5 280.141 67.936 280.141 68.448V72H278.905V68.544C278.905 68.032 278.777 67.656 278.521 67.416C278.265 67.168 277.913 67.044 277.465 67.044C276.953 67.044 276.541 67.212 276.229 67.548C275.925 67.884 275.773 68.372 275.773 69.012V72H274.537ZM283.756 72.168C283.332 72.168 282.952 72.096 282.616 71.952C282.288 71.808 282.024 71.596 281.824 71.316C281.632 71.036 281.536 70.696 281.536 70.296C281.536 69.888 281.632 69.552 281.824 69.288C282.024 69.016 282.292 68.812 282.628 68.676C282.972 68.54 283.36 68.472 283.792 68.472H285.592V68.088C285.592 67.744 285.488 67.468 285.28 67.26C285.072 67.052 284.752 66.948 284.32 66.948C283.896 66.948 283.572 67.048 283.348 67.248C283.124 67.448 282.976 67.708 282.904 68.028L281.752 67.656C281.848 67.336 282 67.048 282.208 66.792C282.424 66.528 282.708 66.316 283.06 66.156C283.412 65.996 283.836 65.916 284.332 65.916C285.1 65.916 285.704 66.112 286.144 66.504C286.584 66.896 286.804 67.452 286.804 68.172V70.608C286.804 70.848 286.916 70.968 287.14 70.968H287.644V72H286.72C286.44 72 286.212 71.928 286.036 71.784C285.86 71.64 285.772 71.444 285.772 71.196V71.16H285.592C285.528 71.28 285.432 71.42 285.304 71.58C285.176 71.74 284.988 71.88 284.74 72C284.492 72.112 284.164 72.168 283.756 72.168ZM283.936 71.148C284.432 71.148 284.832 71.008 285.136 70.728C285.44 70.44 285.592 70.048 285.592 69.552V69.432H283.864C283.536 69.432 283.272 69.504 283.072 69.648C282.872 69.784 282.772 69.988 282.772 70.26C282.772 70.532 282.876 70.748 283.084 70.908C283.292 71.068 283.576 71.148 283.936 71.148ZM288.846 72V66.084H290.058V66.972H290.25C290.362 66.732 290.562 66.508 290.85 66.3C291.138 66.092 291.566 65.988 292.134 65.988C292.582 65.988 292.978 66.088 293.322 66.288C293.674 66.488 293.95 66.772 294.15 67.14C294.35 67.5 294.45 67.936 294.45 68.448V72H293.214V68.544C293.214 68.032 293.086 67.656 292.83 67.416C292.574 67.168 292.222 67.044 291.774 67.044C291.262 67.044 290.85 67.212 290.538 67.548C290.234 67.884 290.082 68.372 290.082 69.012V72H288.846ZM295.94 69.072V68.892C295.94 68.268 296.064 67.736 296.312 67.296C296.568 66.856 296.904 66.516 297.32 66.276C297.736 66.036 298.192 65.916 298.688 65.916C299.264 65.916 299.704 66.024 300.008 66.24C300.32 66.456 300.548 66.688 300.692 66.936H300.884V66.084H302.084V73.212C302.084 73.572 301.976 73.86 301.76 74.076C301.552 74.292 301.264 74.4 300.896 74.4H296.912V73.32H300.512C300.744 73.32 300.86 73.2 300.86 72.96V71.076H300.668C300.58 71.22 300.456 71.368 300.296 71.52C300.136 71.672 299.924 71.796 299.66 71.892C299.404 71.988 299.08 72.036 298.688 72.036C298.192 72.036 297.732 71.92 297.308 71.688C296.892 71.448 296.56 71.108 296.312 70.668C296.064 70.22 295.94 69.688 295.94 69.072ZM299.024 70.956C299.56 70.956 300 70.788 300.344 70.452C300.696 70.108 300.872 69.636 300.872 69.036V68.928C300.872 68.312 300.7 67.84 300.356 67.512C300.012 67.176 299.568 67.008 299.024 67.008C298.496 67.008 298.056 67.176 297.704 67.512C297.36 67.84 297.188 68.312 297.188 68.928V69.036C297.188 69.636 297.36 70.108 297.704 70.452C298.056 70.788 298.496 70.956 299.024 70.956ZM306.616 72.168C306.016 72.168 305.492 72.044 305.044 71.796C304.596 71.54 304.244 71.184 303.988 70.728C303.74 70.264 303.616 69.728 303.616 69.12V68.976C303.616 68.36 303.74 67.824 303.988 67.368C304.236 66.904 304.58 66.548 305.02 66.3C305.468 66.044 305.984 65.916 306.568 65.916C307.136 65.916 307.632 66.044 308.056 66.3C308.488 66.548 308.824 66.896 309.064 67.344C309.304 67.792 309.424 68.316 309.424 68.916V69.384H304.876C304.892 69.904 305.064 70.32 305.392 70.632C305.728 70.936 306.144 71.088 306.64 71.088C307.104 71.088 307.452 70.984 307.684 70.776C307.924 70.568 308.108 70.328 308.236 70.056L309.256 70.584C309.144 70.808 308.98 71.044 308.764 71.292C308.556 71.54 308.28 71.748 307.936 71.916C307.592 72.084 307.152 72.168 306.616 72.168ZM304.888 68.436H308.164C308.132 67.988 307.972 67.64 307.684 67.392C307.396 67.136 307.02 67.008 306.556 67.008C306.092 67.008 305.712 67.136 305.416 67.392C305.128 67.64 304.952 67.988 304.888 68.436Z" fill="#00B76A"/>
<defs>
<filter id="filter0_d_704_1366" x="264" y="20" width="32" height="32" filterUnits="userSpaceOnUse" color-interpolation-filters="sRGB">
<feFlood flood-opacity="0" result="BackgroundImageFix"/>
<feColorMatrix in="SourceAlpha" type="matrix" values="0 0 0 0 0 0 0 0 0 0 0 0 0 0 0 0 0 0 127 0" result="hardAlpha"/>
<feOffset/>
<feGaussianBlur stdDeviation="2"/>
<feComposite in2="hardAlpha" operator="out"/>
<feColorMatrix type="matrix" values="0 0 0 0 0 0 0 0 0 0 0 0 0 0 0 0 0 0 0.1 0"/>
<feBlend mode="normal" in2="BackgroundImageFix" result="effect1_dropShadow_704_1366"/>
<feBlend mode="normal" in="SourceGraphic" in2="effect1_dropShadow_704_1366" result="shape"/>
</filter>
<filter id="filter1_d_704_1366" x="282" y="20" width="32" height="32" filterUnits="userSpaceOnUse" color-interpolation-filters="sRGB">
<feFlood flood-opacity="0" result="BackgroundImageFix"/>
<feColorMatrix in="SourceAlpha" type="matrix" values="0 0 0 0 0 0 0 0 0 0 0 0 0 0 0 0 0 0 127 0" result="hardAlpha"/>
<feOffset/>
<feGaussianBlur stdDeviation="2"/>
<feComposite in2="hardAlpha" operator="out"/>
<feColorMatrix type="matrix" values="0 0 0 0 0 0 0 0 0 0 0 0 0 0 0 0 0 0 0.1 0"/>
<feBlend mode="normal" in2="BackgroundImageFix" result="effect1_dropShadow_704_1366"/>
<feBlend mode="normal" in="SourceGraphic" in2="effect1_dropShadow_704_1366" result="shape"/>
</filter>
<clipPath id="clip0_704_1366">
<rect width="40" height="40" rx="20" fill="white"/>
</clipPath>
</defs>
</svg>
