<svg width="310" height="60" viewBox="0 0 310 60" fill="none" xmlns="http://www.w3.org/2000/svg">
<rect y="13" width="26" height="26" rx="3" fill="#FF316F"/>
<path d="M0.252 56.5L2.652 48.1H4.932L7.32 56.5H5.988L5.436 54.52H2.148L1.596 56.5H0.252ZM2.472 53.32H5.112L3.888 48.904H3.696L2.472 53.32ZM8.14603 56.5V55.348H9.27403V49.252H8.14603V48.1H12.406C12.91 48.1 13.35 48.188 13.726 48.364C14.102 48.532 14.394 48.776 14.602 49.096C14.818 49.408 14.926 49.78 14.926 50.212V50.332C14.926 50.716 14.854 51.032 14.71 51.28C14.566 51.528 14.39 51.72 14.182 51.856C13.982 51.992 13.79 52.088 13.606 52.144V52.336C13.79 52.384 13.986 52.48 14.194 52.624C14.41 52.76 14.59 52.952 14.734 53.2C14.886 53.448 14.962 53.772 14.962 54.172V54.292C14.962 54.756 14.854 55.152 14.638 55.48C14.422 55.808 14.122 56.06 13.738 56.236C13.362 56.412 12.926 56.5 12.43 56.5H8.14603ZM10.582 55.324H12.274C12.706 55.324 13.046 55.22 13.294 55.012C13.542 54.804 13.666 54.516 13.666 54.148V54.04C13.666 53.672 13.542 53.384 13.294 53.176C13.054 52.968 12.714 52.864 12.274 52.864H10.582V55.324ZM10.582 51.676H12.274C12.682 51.676 13.01 51.576 13.258 51.376C13.506 51.168 13.63 50.888 13.63 50.536V50.416C13.63 50.064 13.506 49.788 13.258 49.588C13.018 49.38 12.69 49.276 12.274 49.276H10.582V51.676ZM19.5351 56.668C18.5111 56.668 17.6991 56.38 17.0991 55.804C16.4991 55.22 16.1991 54.38 16.1991 53.284V51.316C16.1991 50.22 16.4991 49.384 17.0991 48.808C17.6991 48.224 18.5111 47.932 19.5351 47.932C20.5431 47.932 21.3191 48.212 21.8631 48.772C22.4151 49.332 22.6911 50.096 22.6911 51.064V51.136H21.4071V51.028C21.4071 50.46 21.2511 49.996 20.9391 49.636C20.6351 49.276 20.1671 49.096 19.5351 49.096C18.8951 49.096 18.3951 49.292 18.0351 49.684C17.6751 50.068 17.4951 50.604 17.4951 51.292V53.308C17.4951 53.988 17.6751 54.524 18.0351 54.916C18.3951 55.308 18.8951 55.504 19.5351 55.504C20.1671 55.504 20.6351 55.324 20.9391 54.964C21.2511 54.596 21.4071 54.132 21.4071 53.572V53.368H22.6911V53.536C22.6911 54.504 22.4151 55.268 21.8631 55.828C21.3191 56.388 20.5431 56.668 19.5351 56.668ZM26.8726 56.5V55.348H28.0006V49.252H26.8726V48.1H31.1326C31.6366 48.1 32.0766 48.188 32.4526 48.364C32.8286 48.532 33.1206 48.776 33.3286 49.096C33.5446 49.408 33.6526 49.78 33.6526 50.212V50.332C33.6526 50.716 33.5806 51.032 33.4366 51.28C33.2926 51.528 33.1166 51.72 32.9086 51.856C32.7086 51.992 32.5166 52.088 32.3326 52.144V52.336C32.5166 52.384 32.7126 52.48 32.9206 52.624C33.1366 52.76 33.3166 52.952 33.4606 53.2C33.6126 53.448 33.6886 53.772 33.6886 54.172V54.292C33.6886 54.756 33.5806 55.152 33.3646 55.48C33.1486 55.808 32.8486 56.06 32.4646 56.236C32.0886 56.412 31.6526 56.5 31.1566 56.5H26.8726ZM29.3086 55.324H31.0006C31.4326 55.324 31.7726 55.22 32.0206 55.012C32.2686 54.804 32.3926 54.516 32.3926 54.148V54.04C32.3926 53.672 32.2686 53.384 32.0206 53.176C31.7806 52.968 31.4406 52.864 31.0006 52.864H29.3086V55.324ZM29.3086 51.676H31.0006C31.4086 51.676 31.7366 51.576 31.9846 51.376C32.2326 51.168 32.3566 50.888 32.3566 50.536V50.416C32.3566 50.064 32.2326 49.788 31.9846 49.588C31.7446 49.38 31.4166 49.276 31.0006 49.276H29.3086V51.676ZM37.0136 56.668C36.5896 56.668 36.2096 56.596 35.8736 56.452C35.5456 56.308 35.2816 56.096 35.0816 55.816C34.8896 55.536 34.7936 55.196 34.7936 54.796C34.7936 54.388 34.8896 54.052 35.0816 53.788C35.2816 53.516 35.5496 53.312 35.8856 53.176C36.2296 53.04 36.6176 52.972 37.0496 52.972H38.8496V52.588C38.8496 52.244 38.7456 51.968 38.5376 51.76C38.3296 51.552 38.0096 51.448 37.5776 51.448C37.1536 51.448 36.8296 51.548 36.6056 51.748C36.3816 51.948 36.2336 52.208 36.1616 52.528L35.0096 52.156C35.1056 51.836 35.2576 51.548 35.4656 51.292C35.6816 51.028 35.9656 50.816 36.3176 50.656C36.6696 50.496 37.0936 50.416 37.5896 50.416C38.3576 50.416 38.9616 50.612 39.4016 51.004C39.8416 51.396 40.0616 51.952 40.0616 52.672V55.108C40.0616 55.348 40.1736 55.468 40.3976 55.468H40.9016V56.5H39.9776C39.6976 56.5 39.4696 56.428 39.2936 56.284C39.1176 56.14 39.0296 55.944 39.0296 55.696V55.66H38.8496C38.7856 55.78 38.6896 55.92 38.5616 56.08C38.4336 56.24 38.2456 56.38 37.9976 56.5C37.7496 56.612 37.4216 56.668 37.0136 56.668ZM37.1936 55.648C37.6896 55.648 38.0896 55.508 38.3936 55.228C38.6976 54.94 38.8496 54.548 38.8496 54.052V53.932H37.1216C36.7936 53.932 36.5296 54.004 36.3296 54.148C36.1296 54.284 36.0296 54.488 36.0296 54.76C36.0296 55.032 36.1336 55.248 36.3416 55.408C36.5496 55.568 36.8336 55.648 37.1936 55.648ZM42.1034 56.5V50.584H43.3154V51.472H43.5074C43.6194 51.232 43.8194 51.008 44.1074 50.8C44.3954 50.592 44.8234 50.488 45.3914 50.488C45.8394 50.488 46.2354 50.588 46.5794 50.788C46.9314 50.988 47.2074 51.272 47.4074 51.64C47.6074 52 47.7074 52.436 47.7074 52.948V56.5H46.4714V53.044C46.4714 52.532 46.3434 52.156 46.0874 51.916C45.8314 51.668 45.4794 51.544 45.0314 51.544C44.5194 51.544 44.1074 51.712 43.7954 52.048C43.4914 52.384 43.3394 52.872 43.3394 53.512V56.5H42.1034ZM49.4862 56.5V48.1H50.7222V52.888H50.9142L53.2422 50.584H54.8862L51.8982 53.452L54.9822 56.5H53.3502L50.9142 54.04H50.7222V56.5H49.4862Z" fill="#1D1D1F"/>
<circle cx="99.5" cy="52.5" r="1.5" fill="#797979"/>
<circle cx="105.5" cy="52.5" r="1.5" fill="#797979"/>
<circle cx="111.5" cy="52.5" r="1.5" fill="#797979"/>
<circle cx="117.5" cy="52.5" r="1.5" fill="#797979"/>
<path d="M128.346 57V49.74L126.72 50.73V49.332L128.346 48.36H129.624V57H128.346ZM131.663 56.994L131.669 55.878L135.431 52.506C135.735 52.238 135.941 51.982 136.049 51.738C136.161 51.494 136.217 51.25 136.217 51.006C136.217 50.698 136.149 50.422 136.013 50.178C135.877 49.93 135.689 49.734 135.449 49.59C135.209 49.446 134.933 49.374 134.621 49.374C134.301 49.374 134.015 49.45 133.763 49.602C133.515 49.75 133.321 49.948 133.181 50.196C133.041 50.444 132.973 50.712 132.977 51H131.693C131.693 50.44 131.819 49.95 132.071 49.53C132.327 49.106 132.677 48.776 133.121 48.54C133.565 48.3 134.073 48.18 134.645 48.18C135.189 48.18 135.677 48.304 136.109 48.552C136.541 48.796 136.881 49.132 137.129 49.56C137.381 49.988 137.507 50.476 137.507 51.024C137.507 51.42 137.455 51.756 137.351 52.032C137.247 52.308 137.091 52.564 136.883 52.8C136.675 53.036 136.415 53.292 136.103 53.568L133.199 56.16L133.061 55.8H137.507V56.994H131.663ZM141.363 57.162C140.935 57.162 140.533 57.082 140.157 56.922C139.781 56.758 139.455 56.526 139.179 56.226C138.907 55.926 138.709 55.572 138.585 55.164L139.797 54.828C139.913 55.2 140.115 55.486 140.403 55.686C140.691 55.882 141.011 55.978 141.363 55.974C141.679 55.97 141.957 55.896 142.197 55.752C142.437 55.608 142.625 55.414 142.761 55.17C142.897 54.922 142.965 54.638 142.965 54.318C142.965 53.838 142.815 53.442 142.515 53.13C142.219 52.818 141.831 52.662 141.351 52.662C141.215 52.662 141.075 52.682 140.931 52.722C140.791 52.762 140.659 52.814 140.535 52.878L139.947 51.888L142.995 49.194L143.127 49.554H138.927V48.36H144.123V49.554L141.591 51.99L141.579 51.582C142.123 51.582 142.595 51.704 142.995 51.948C143.395 52.188 143.703 52.516 143.919 52.932C144.139 53.344 144.249 53.806 144.249 54.318C144.249 54.87 144.119 55.36 143.859 55.788C143.603 56.216 143.257 56.552 142.821 56.796C142.389 57.04 141.903 57.162 141.363 57.162ZM149.473 57V55.494H145.573V54.306L148.381 48.36H149.815L147.007 54.306H149.473V51.966H150.745V54.306H151.603V55.494H150.745V57H149.473Z" fill="#797979"/>
<path d="M267.5 0L281.789 8.25V24.75L267.5 33L253.211 24.75V8.25L267.5 0Z" fill="#00B8D1"/>
<path d="M294 0.5L309.217 11.5557L303.405 29.4443H284.595L278.783 11.5557L294 0.5Z" fill="#FFE766"/>
<path d="M237.976 57.168C236.952 57.168 236.14 56.88 235.54 56.304C234.94 55.72 234.64 54.88 234.64 53.784V51.816C234.64 50.72 234.94 49.884 235.54 49.308C236.14 48.724 236.952 48.432 237.976 48.432C238.984 48.432 239.76 48.712 240.304 49.272C240.856 49.832 241.132 50.596 241.132 51.564V51.636H239.848V51.528C239.848 50.96 239.692 50.496 239.38 50.136C239.076 49.776 238.608 49.596 237.976 49.596C237.336 49.596 236.836 49.792 236.476 50.184C236.116 50.568 235.936 51.104 235.936 51.792V53.808C235.936 54.488 236.116 55.024 236.476 55.416C236.836 55.808 237.336 56.004 237.976 56.004C238.608 56.004 239.076 55.824 239.38 55.464C239.692 55.096 239.848 54.632 239.848 54.072V53.868H241.132V54.036C241.132 55.004 240.856 55.768 240.304 56.328C239.76 56.888 238.984 57.168 237.976 57.168ZM242.603 57V48.6H243.839V51.924H244.031C244.111 51.772 244.223 51.624 244.367 51.48C244.519 51.336 244.715 51.22 244.955 51.132C245.203 51.036 245.515 50.988 245.891 50.988C246.339 50.988 246.735 51.088 247.079 51.288C247.431 51.488 247.707 51.772 247.907 52.14C248.107 52.5 248.207 52.936 248.207 53.448V57H246.971V53.544C246.971 53.032 246.843 52.656 246.587 52.416C246.331 52.168 245.979 52.044 245.531 52.044C245.019 52.044 244.607 52.212 244.295 52.548C243.991 52.884 243.839 53.372 243.839 54.012V57H242.603ZM251.822 57.168C251.398 57.168 251.018 57.096 250.682 56.952C250.354 56.808 250.09 56.596 249.89 56.316C249.698 56.036 249.602 55.696 249.602 55.296C249.602 54.888 249.698 54.552 249.89 54.288C250.09 54.016 250.358 53.812 250.694 53.676C251.038 53.54 251.426 53.472 251.858 53.472H253.658V53.088C253.658 52.744 253.554 52.468 253.346 52.26C253.138 52.052 252.818 51.948 252.386 51.948C251.962 51.948 251.638 52.048 251.414 52.248C251.19 52.448 251.042 52.708 250.97 53.028L249.818 52.656C249.914 52.336 250.066 52.048 250.274 51.792C250.49 51.528 250.774 51.316 251.126 51.156C251.478 50.996 251.902 50.916 252.398 50.916C253.166 50.916 253.77 51.112 254.21 51.504C254.65 51.896 254.87 52.452 254.87 53.172V55.608C254.87 55.848 254.982 55.968 255.206 55.968H255.71V57H254.786C254.506 57 254.278 56.928 254.102 56.784C253.926 56.64 253.838 56.444 253.838 56.196V56.16H253.658C253.594 56.28 253.498 56.42 253.37 56.58C253.242 56.74 253.054 56.88 252.806 57C252.558 57.112 252.23 57.168 251.822 57.168ZM252.002 56.148C252.498 56.148 252.898 56.008 253.202 55.728C253.506 55.44 253.658 55.048 253.658 54.552V54.432H251.93C251.602 54.432 251.338 54.504 251.138 54.648C250.938 54.784 250.838 54.988 250.838 55.26C250.838 55.532 250.942 55.748 251.15 55.908C251.358 56.068 251.642 56.148 252.002 56.148ZM256.912 57V51.084H258.124V51.972H258.316C258.428 51.732 258.628 51.508 258.916 51.3C259.204 51.092 259.632 50.988 260.2 50.988C260.648 50.988 261.044 51.088 261.388 51.288C261.74 51.488 262.016 51.772 262.216 52.14C262.416 52.5 262.516 52.936 262.516 53.448V57H261.28V53.544C261.28 53.032 261.152 52.656 260.896 52.416C260.64 52.168 260.288 52.044 259.84 52.044C259.328 52.044 258.916 52.212 258.604 52.548C258.3 52.884 258.148 53.372 258.148 54.012V57H256.912ZM264.007 54.072V53.892C264.007 53.268 264.131 52.736 264.379 52.296C264.635 51.856 264.971 51.516 265.387 51.276C265.803 51.036 266.259 50.916 266.755 50.916C267.331 50.916 267.771 51.024 268.075 51.24C268.387 51.456 268.615 51.688 268.759 51.936H268.951V51.084H270.151V58.212C270.151 58.572 270.043 58.86 269.827 59.076C269.619 59.292 269.331 59.4 268.963 59.4H264.979V58.32H268.579C268.811 58.32 268.927 58.2 268.927 57.96V56.076H268.735C268.647 56.22 268.523 56.368 268.363 56.52C268.203 56.672 267.991 56.796 267.727 56.892C267.471 56.988 267.147 57.036 266.755 57.036C266.259 57.036 265.799 56.92 265.375 56.688C264.959 56.448 264.627 56.108 264.379 55.668C264.131 55.22 264.007 54.688 264.007 54.072ZM267.091 55.956C267.627 55.956 268.067 55.788 268.411 55.452C268.763 55.108 268.939 54.636 268.939 54.036V53.928C268.939 53.312 268.767 52.84 268.423 52.512C268.079 52.176 267.635 52.008 267.091 52.008C266.563 52.008 266.123 52.176 265.771 52.512C265.427 52.84 265.255 53.312 265.255 53.928V54.036C265.255 54.636 265.427 55.108 265.771 55.452C266.123 55.788 266.563 55.956 267.091 55.956ZM274.683 57.168C274.083 57.168 273.559 57.044 273.111 56.796C272.663 56.54 272.311 56.184 272.055 55.728C271.807 55.264 271.683 54.728 271.683 54.12V53.976C271.683 53.36 271.807 52.824 272.055 52.368C272.303 51.904 272.647 51.548 273.087 51.3C273.535 51.044 274.051 50.916 274.635 50.916C275.203 50.916 275.699 51.044 276.123 51.3C276.555 51.548 276.891 51.896 277.131 52.344C277.371 52.792 277.491 53.316 277.491 53.916V54.384H272.943C272.959 54.904 273.131 55.32 273.459 55.632C273.795 55.936 274.211 56.088 274.707 56.088C275.171 56.088 275.519 55.984 275.751 55.776C275.991 55.568 276.175 55.328 276.303 55.056L277.323 55.584C277.211 55.808 277.047 56.044 276.831 56.292C276.623 56.54 276.347 56.748 276.003 56.916C275.659 57.084 275.219 57.168 274.683 57.168ZM272.955 53.436H276.231C276.199 52.988 276.039 52.64 275.751 52.392C275.463 52.136 275.087 52.008 274.623 52.008C274.159 52.008 273.779 52.136 273.483 52.392C273.195 52.64 273.019 52.988 272.955 53.436ZM281.689 57V55.848H282.817V49.752H281.689V48.6H285.949C286.453 48.6 286.893 48.688 287.269 48.864C287.645 49.032 287.937 49.276 288.145 49.596C288.361 49.908 288.469 50.28 288.469 50.712V50.832C288.469 51.216 288.397 51.532 288.253 51.78C288.109 52.028 287.933 52.22 287.725 52.356C287.525 52.492 287.333 52.588 287.149 52.644V52.836C287.333 52.884 287.529 52.98 287.737 53.124C287.953 53.26 288.133 53.452 288.277 53.7C288.429 53.948 288.505 54.272 288.505 54.672V54.792C288.505 55.256 288.397 55.652 288.181 55.98C287.965 56.308 287.665 56.56 287.281 56.736C286.905 56.912 286.469 57 285.973 57H281.689ZM284.125 55.824H285.817C286.249 55.824 286.589 55.72 286.837 55.512C287.085 55.304 287.209 55.016 287.209 54.648V54.54C287.209 54.172 287.085 53.884 286.837 53.676C286.597 53.468 286.257 53.364 285.817 53.364H284.125V55.824ZM284.125 52.176H285.817C286.225 52.176 286.553 52.076 286.801 51.876C287.049 51.668 287.173 51.388 287.173 51.036V50.916C287.173 50.564 287.049 50.288 286.801 50.088C286.561 49.88 286.233 49.776 285.817 49.776H284.125V52.176ZM291.83 57.168C291.406 57.168 291.026 57.096 290.69 56.952C290.362 56.808 290.098 56.596 289.898 56.316C289.706 56.036 289.61 55.696 289.61 55.296C289.61 54.888 289.706 54.552 289.898 54.288C290.098 54.016 290.366 53.812 290.702 53.676C291.046 53.54 291.434 53.472 291.866 53.472H293.666V53.088C293.666 52.744 293.562 52.468 293.354 52.26C293.146 52.052 292.826 51.948 292.394 51.948C291.97 51.948 291.646 52.048 291.422 52.248C291.198 52.448 291.05 52.708 290.978 53.028L289.826 52.656C289.922 52.336 290.074 52.048 290.282 51.792C290.498 51.528 290.782 51.316 291.134 51.156C291.486 50.996 291.91 50.916 292.406 50.916C293.174 50.916 293.778 51.112 294.218 51.504C294.658 51.896 294.878 52.452 294.878 53.172V55.608C294.878 55.848 294.99 55.968 295.214 55.968H295.718V57H294.794C294.514 57 294.286 56.928 294.11 56.784C293.934 56.64 293.846 56.444 293.846 56.196V56.16H293.666C293.602 56.28 293.506 56.42 293.378 56.58C293.25 56.74 293.062 56.88 292.814 57C292.566 57.112 292.238 57.168 291.83 57.168ZM292.01 56.148C292.506 56.148 292.906 56.008 293.21 55.728C293.514 55.44 293.666 55.048 293.666 54.552V54.432H291.938C291.61 54.432 291.346 54.504 291.146 54.648C290.946 54.784 290.846 54.988 290.846 55.26C290.846 55.532 290.95 55.748 291.158 55.908C291.366 56.068 291.65 56.148 292.01 56.148ZM296.92 57V51.084H298.132V51.972H298.324C298.436 51.732 298.636 51.508 298.924 51.3C299.212 51.092 299.64 50.988 300.208 50.988C300.656 50.988 301.052 51.088 301.396 51.288C301.748 51.488 302.024 51.772 302.224 52.14C302.424 52.5 302.524 52.936 302.524 53.448V57H301.288V53.544C301.288 53.032 301.16 52.656 300.904 52.416C300.648 52.168 300.296 52.044 299.848 52.044C299.336 52.044 298.924 52.212 298.612 52.548C298.308 52.884 298.156 53.372 298.156 54.012V57H296.92ZM304.303 57V48.6H305.539V53.388H305.731L308.059 51.084H309.703L306.715 53.952L309.799 57H308.167L305.731 54.54H305.539V57H304.303Z" fill="#00B76A"/>
</svg>
