<svg width="390" height="488" viewBox="0 0 390 488" fill="none" xmlns="http://www.w3.org/2000/svg">
<circle cx="195" cy="204" r="44" fill="#00B407" fill-opacity="0.1"/>
<circle cx="195" cy="204" r="34.9161" fill="#00B407" fill-opacity="0.3"/>
<circle cx="194.999" cy="203.606" r="22" fill="#00B407"/>
<path d="M187.928 204.969L192.024 209.065L201.924 199.678" stroke="white" stroke-width="1.91164"/>
<path d="M97.3751 302V299.68H99.2151V290.32H97.3751V288H104.575C105.428 288 106.168 288.147 106.795 288.44C107.435 288.72 107.928 289.127 108.275 289.66C108.635 290.18 108.815 290.807 108.815 291.54V291.74C108.815 292.38 108.695 292.907 108.455 293.32C108.215 293.72 107.928 294.033 107.595 294.26C107.275 294.473 106.968 294.627 106.675 294.72V295.08C106.968 295.16 107.288 295.313 107.635 295.54C107.982 295.753 108.275 296.067 108.515 296.48C108.768 296.893 108.895 297.433 108.895 298.1V298.3C108.895 299.073 108.715 299.74 108.355 300.3C107.995 300.847 107.495 301.267 106.855 301.56C106.228 301.853 105.495 302 104.655 302H97.3751ZM101.855 299.6H104.335C104.908 299.6 105.368 299.46 105.715 299.18C106.075 298.9 106.255 298.5 106.255 297.98V297.78C106.255 297.26 106.082 296.86 105.735 296.58C105.388 296.3 104.922 296.16 104.335 296.16H101.855V299.6ZM101.855 293.76H104.295C104.842 293.76 105.288 293.62 105.635 293.34C105.995 293.06 106.175 292.673 106.175 292.18V291.98C106.175 291.473 106.002 291.087 105.655 290.82C105.308 290.54 104.855 290.4 104.295 290.4H101.855V293.76ZM114.216 302.28C113.51 302.28 112.876 302.16 112.316 301.92C111.756 301.667 111.31 301.307 110.976 300.84C110.656 300.36 110.496 299.78 110.496 299.1C110.496 298.42 110.656 297.853 110.976 297.4C111.31 296.933 111.763 296.587 112.336 296.36C112.923 296.12 113.59 296 114.336 296H117.056V295.44C117.056 294.973 116.91 294.593 116.616 294.3C116.323 293.993 115.856 293.84 115.216 293.84C114.59 293.84 114.123 293.987 113.816 294.28C113.51 294.56 113.31 294.927 113.216 295.38L110.896 294.6C111.056 294.093 111.31 293.633 111.656 293.22C112.016 292.793 112.49 292.453 113.076 292.2C113.676 291.933 114.403 291.8 115.256 291.8C116.563 291.8 117.596 292.127 118.356 292.78C119.116 293.433 119.496 294.38 119.496 295.62V299.32C119.496 299.72 119.683 299.92 120.056 299.92H120.856V302H119.176C118.683 302 118.276 301.88 117.956 301.64C117.636 301.4 117.476 301.08 117.476 300.68V300.66H117.096C117.043 300.82 116.923 301.033 116.736 301.3C116.55 301.553 116.256 301.78 115.856 301.98C115.456 302.18 114.91 302.28 114.216 302.28ZM114.656 300.24C115.363 300.24 115.936 300.047 116.376 299.66C116.83 299.26 117.056 298.733 117.056 298.08V297.88H114.516C114.05 297.88 113.683 297.98 113.416 298.18C113.15 298.38 113.016 298.66 113.016 299.02C113.016 299.38 113.156 299.673 113.436 299.9C113.716 300.127 114.123 300.24 114.656 300.24ZM122.699 302V292.08H125.179V293.38H125.539C125.699 293.033 125.999 292.707 126.439 292.4C126.879 292.08 127.545 291.92 128.439 291.92C129.212 291.92 129.885 292.1 130.459 292.46C131.045 292.807 131.499 293.293 131.819 293.92C132.139 294.533 132.299 295.253 132.299 296.08V302H129.779V296.28C129.779 295.533 129.592 294.973 129.219 294.6C128.859 294.227 128.339 294.04 127.659 294.04C126.885 294.04 126.285 294.3 125.859 294.82C125.432 295.327 125.219 296.04 125.219 296.96V302H122.699ZM135.023 302V288H137.543V295.74H137.903L141.183 292.08H144.463L139.883 296.88L144.623 302H141.383L137.903 298.06H137.543V302H135.023ZM154.47 302.28C153.764 302.28 153.13 302.16 152.57 301.92C152.01 301.667 151.564 301.307 151.23 300.84C150.91 300.36 150.75 299.78 150.75 299.1C150.75 298.42 150.91 297.853 151.23 297.4C151.564 296.933 152.017 296.587 152.59 296.36C153.177 296.12 153.844 296 154.59 296H157.31V295.44C157.31 294.973 157.164 294.593 156.87 294.3C156.577 293.993 156.11 293.84 155.47 293.84C154.844 293.84 154.377 293.987 154.07 294.28C153.764 294.56 153.564 294.927 153.47 295.38L151.15 294.6C151.31 294.093 151.564 293.633 151.91 293.22C152.27 292.793 152.744 292.453 153.33 292.2C153.93 291.933 154.657 291.8 155.51 291.8C156.817 291.8 157.85 292.127 158.61 292.78C159.37 293.433 159.75 294.38 159.75 295.62V299.32C159.75 299.72 159.937 299.92 160.31 299.92H161.11V302H159.43C158.937 302 158.53 301.88 158.21 301.64C157.89 301.4 157.73 301.08 157.73 300.68V300.66H157.35C157.297 300.82 157.177 301.033 156.99 301.3C156.804 301.553 156.51 301.78 156.11 301.98C155.71 302.18 155.164 302.28 154.47 302.28ZM154.91 300.24C155.617 300.24 156.19 300.047 156.63 299.66C157.084 299.26 157.31 298.733 157.31 298.08V297.88H154.77C154.304 297.88 153.937 297.98 153.67 298.18C153.404 298.38 153.27 298.66 153.27 299.02C153.27 299.38 153.41 299.673 153.69 299.9C153.97 300.127 154.377 300.24 154.91 300.24ZM167.417 302.28C166.457 302.28 165.584 302.08 164.797 301.68C164.024 301.28 163.411 300.7 162.957 299.94C162.504 299.18 162.277 298.26 162.277 297.18V296.9C162.277 295.82 162.504 294.9 162.957 294.14C163.411 293.38 164.024 292.8 164.797 292.4C165.584 292 166.457 291.8 167.417 291.8C168.364 291.8 169.177 291.967 169.857 292.3C170.537 292.633 171.084 293.093 171.497 293.68C171.924 294.253 172.204 294.907 172.337 295.64L169.897 296.16C169.844 295.76 169.724 295.4 169.537 295.08C169.351 294.76 169.084 294.507 168.737 294.32C168.404 294.133 167.984 294.04 167.477 294.04C166.971 294.04 166.511 294.153 166.097 294.38C165.697 294.593 165.377 294.92 165.137 295.36C164.911 295.787 164.797 296.313 164.797 296.94V297.14C164.797 297.767 164.911 298.3 165.137 298.74C165.377 299.167 165.697 299.493 166.097 299.72C166.511 299.933 166.971 300.04 167.477 300.04C168.237 300.04 168.811 299.847 169.197 299.46C169.597 299.06 169.851 298.54 169.957 297.9L172.397 298.48C172.224 299.187 171.924 299.833 171.497 300.42C171.084 300.993 170.537 301.447 169.857 301.78C169.177 302.113 168.364 302.28 167.417 302.28ZM179.136 302.28C178.176 302.28 177.303 302.08 176.516 301.68C175.743 301.28 175.13 300.7 174.676 299.94C174.223 299.18 173.996 298.26 173.996 297.18V296.9C173.996 295.82 174.223 294.9 174.676 294.14C175.13 293.38 175.743 292.8 176.516 292.4C177.303 292 178.176 291.8 179.136 291.8C180.083 291.8 180.896 291.967 181.576 292.3C182.256 292.633 182.803 293.093 183.216 293.68C183.643 294.253 183.923 294.907 184.056 295.64L181.616 296.16C181.563 295.76 181.443 295.4 181.256 295.08C181.07 294.76 180.803 294.507 180.456 294.32C180.123 294.133 179.703 294.04 179.196 294.04C178.69 294.04 178.23 294.153 177.816 294.38C177.416 294.593 177.096 294.92 176.856 295.36C176.63 295.787 176.516 296.313 176.516 296.94V297.14C176.516 297.767 176.63 298.3 176.856 298.74C177.096 299.167 177.416 299.493 177.816 299.72C178.23 299.933 178.69 300.04 179.196 300.04C179.956 300.04 180.53 299.847 180.916 299.46C181.316 299.06 181.57 298.54 181.676 297.9L184.116 298.48C183.943 299.187 183.643 299.833 183.216 300.42C182.803 300.993 182.256 301.447 181.576 301.78C180.896 302.113 180.083 302.28 179.136 302.28ZM190.915 302.28C189.928 302.28 189.042 302.08 188.255 301.68C187.468 301.28 186.848 300.7 186.395 299.94C185.942 299.18 185.715 298.267 185.715 297.2V296.88C185.715 295.813 185.942 294.9 186.395 294.14C186.848 293.38 187.468 292.8 188.255 292.4C189.042 292 189.928 291.8 190.915 291.8C191.902 291.8 192.788 292 193.575 292.4C194.362 292.8 194.982 293.38 195.435 294.14C195.888 294.9 196.115 295.813 196.115 296.88V297.2C196.115 298.267 195.888 299.18 195.435 299.94C194.982 300.7 194.362 301.28 193.575 301.68C192.788 302.08 191.902 302.28 190.915 302.28ZM190.915 300.04C191.688 300.04 192.328 299.793 192.835 299.3C193.342 298.793 193.595 298.073 193.595 297.14V296.94C193.595 296.007 193.342 295.293 192.835 294.8C192.342 294.293 191.702 294.04 190.915 294.04C190.142 294.04 189.502 294.293 188.995 294.8C188.488 295.293 188.235 296.007 188.235 296.94V297.14C188.235 298.073 188.488 298.793 188.995 299.3C189.502 299.793 190.142 300.04 190.915 300.04ZM202.221 302.16C201.448 302.16 200.768 301.987 200.181 301.64C199.608 301.28 199.161 300.787 198.841 300.16C198.521 299.533 198.361 298.813 198.361 298V292.08H200.881V297.8C200.881 298.547 201.061 299.107 201.421 299.48C201.794 299.853 202.321 300.04 203.001 300.04C203.774 300.04 204.374 299.787 204.801 299.28C205.228 298.76 205.441 298.04 205.441 297.12V292.08H207.961V302H205.481V300.7H205.121C204.961 301.033 204.661 301.36 204.221 301.68C203.781 302 203.114 302.16 202.221 302.16ZM210.765 302V292.08H213.245V293.38H213.605C213.765 293.033 214.065 292.707 214.505 292.4C214.945 292.08 215.612 291.92 216.505 291.92C217.279 291.92 217.952 292.1 218.525 292.46C219.112 292.807 219.565 293.293 219.885 293.92C220.205 294.533 220.365 295.253 220.365 296.08V302H217.845V296.28C217.845 295.533 217.659 294.973 217.285 294.6C216.925 294.227 216.405 294.04 215.725 294.04C214.952 294.04 214.352 294.3 213.925 294.82C213.499 295.327 213.285 296.04 213.285 296.96V302H210.765ZM226.616 302C225.963 302 225.429 301.8 225.016 301.4C224.616 300.987 224.416 300.44 224.416 299.76V294.16H221.936V292.08H224.416V289H226.936V292.08H229.656V294.16H226.936V299.32C226.936 299.72 227.123 299.92 227.496 299.92H229.416V302H226.616ZM237.015 302V288H239.535V302H237.015ZM242.328 302V292.08H244.848V302H242.328ZM243.588 290.92C243.134 290.92 242.748 290.773 242.428 290.48C242.121 290.187 241.968 289.8 241.968 289.32C241.968 288.84 242.121 288.453 242.428 288.16C242.748 287.867 243.134 287.72 243.588 287.72C244.054 287.72 244.441 287.867 244.748 288.16C245.054 288.453 245.208 288.84 245.208 289.32C245.208 289.8 245.054 290.187 244.748 290.48C244.441 290.773 244.054 290.92 243.588 290.92ZM247.64 302V292.08H250.12V293.38H250.48C250.64 293.033 250.94 292.707 251.38 292.4C251.82 292.08 252.487 291.92 253.38 291.92C254.154 291.92 254.827 292.1 255.4 292.46C255.987 292.807 256.44 293.293 256.76 293.92C257.08 294.533 257.24 295.253 257.24 296.08V302H254.72V296.28C254.72 295.533 254.534 294.973 254.16 294.6C253.8 294.227 253.28 294.04 252.6 294.04C251.827 294.04 251.227 294.3 250.8 294.82C250.374 295.327 250.16 296.04 250.16 296.96V302H247.64ZM259.964 302V288H262.484V295.74H262.844L266.124 292.08H269.404L264.824 296.88L269.564 302H266.324L262.844 298.06H262.484V302H259.964ZM275.168 302.28C274.181 302.28 273.308 302.073 272.548 301.66C271.801 301.233 271.215 300.64 270.788 299.88C270.375 299.107 270.168 298.2 270.168 297.16V296.92C270.168 295.88 270.375 294.98 270.788 294.22C271.201 293.447 271.781 292.853 272.528 292.44C273.275 292.013 274.141 291.8 275.128 291.8C276.101 291.8 276.948 292.02 277.668 292.46C278.388 292.887 278.948 293.487 279.348 294.26C279.748 295.02 279.948 295.907 279.948 296.92V297.78H272.728C272.755 298.46 273.008 299.013 273.488 299.44C273.968 299.867 274.555 300.08 275.248 300.08C275.955 300.08 276.475 299.927 276.808 299.62C277.141 299.313 277.395 298.973 277.568 298.6L279.628 299.68C279.441 300.027 279.168 300.407 278.808 300.82C278.461 301.22 277.995 301.567 277.408 301.86C276.821 302.14 276.075 302.28 275.168 302.28ZM272.748 295.9H277.388C277.335 295.327 277.101 294.867 276.688 294.52C276.288 294.173 275.761 294 275.108 294C274.428 294 273.888 294.173 273.488 294.52C273.088 294.867 272.841 295.327 272.748 295.9ZM286.191 302.28C285.404 302.28 284.664 302.087 283.971 301.7C283.291 301.3 282.744 300.72 282.331 299.96C281.918 299.2 281.711 298.28 281.711 297.2V296.88C281.711 295.8 281.918 294.88 282.331 294.12C282.744 293.36 283.291 292.787 283.971 292.4C284.651 292 285.391 291.8 286.191 291.8C286.791 291.8 287.291 291.873 287.691 292.02C288.104 292.153 288.438 292.327 288.691 292.54C288.944 292.753 289.138 292.98 289.271 293.22H289.631V288H292.151V302H289.671V300.8H289.311C289.084 301.173 288.731 301.513 288.251 301.82C287.784 302.127 287.098 302.28 286.191 302.28ZM286.951 300.08C287.724 300.08 288.371 299.833 288.891 299.34C289.411 298.833 289.671 298.1 289.671 297.14V296.94C289.671 295.98 289.411 295.253 288.891 294.76C288.384 294.253 287.738 294 286.951 294C286.178 294 285.531 294.253 285.011 294.76C284.491 295.253 284.231 295.98 284.231 296.94V297.14C284.231 298.1 284.491 298.833 285.011 299.34C285.531 299.833 286.178 300.08 286.951 300.08ZM136.262 328.28C134.969 328.28 133.909 328 133.082 327.44C132.256 326.88 131.756 326.08 131.582 325.04L133.902 324.44C133.996 324.907 134.149 325.273 134.362 325.54C134.589 325.807 134.862 326 135.182 326.12C135.516 326.227 135.876 326.28 136.262 326.28C136.849 326.28 137.282 326.18 137.562 325.98C137.842 325.767 137.982 325.507 137.982 325.2C137.982 324.893 137.849 324.66 137.582 324.5C137.316 324.327 136.889 324.187 136.302 324.08L135.742 323.98C135.049 323.847 134.416 323.667 133.842 323.44C133.269 323.2 132.809 322.873 132.462 322.46C132.116 322.047 131.942 321.513 131.942 320.86C131.942 319.873 132.302 319.12 133.022 318.6C133.742 318.067 134.689 317.8 135.862 317.8C136.969 317.8 137.889 318.047 138.622 318.54C139.356 319.033 139.836 319.68 140.062 320.48L137.722 321.2C137.616 320.693 137.396 320.333 137.062 320.12C136.742 319.907 136.342 319.8 135.862 319.8C135.382 319.8 135.016 319.887 134.762 320.06C134.509 320.22 134.382 320.447 134.382 320.74C134.382 321.06 134.516 321.3 134.782 321.46C135.049 321.607 135.409 321.72 135.862 321.8L136.422 321.9C137.169 322.033 137.842 322.213 138.442 322.44C139.056 322.653 139.536 322.967 139.882 323.38C140.242 323.78 140.422 324.327 140.422 325.02C140.422 326.06 140.042 326.867 139.282 327.44C138.536 328 137.529 328.28 136.262 328.28ZM146.41 328.16C145.637 328.16 144.957 327.987 144.37 327.64C143.797 327.28 143.35 326.787 143.03 326.16C142.71 325.533 142.55 324.813 142.55 324V318.08H145.07V323.8C145.07 324.547 145.25 325.107 145.61 325.48C145.984 325.853 146.51 326.04 147.19 326.04C147.964 326.04 148.564 325.787 148.99 325.28C149.417 324.76 149.63 324.04 149.63 323.12V318.08H152.15V328H149.67V326.7H149.31C149.15 327.033 148.85 327.36 148.41 327.68C147.97 328 147.304 328.16 146.41 328.16ZM159.615 328.28C158.655 328.28 157.781 328.08 156.995 327.68C156.221 327.28 155.608 326.7 155.155 325.94C154.701 325.18 154.475 324.26 154.475 323.18V322.9C154.475 321.82 154.701 320.9 155.155 320.14C155.608 319.38 156.221 318.8 156.995 318.4C157.781 318 158.655 317.8 159.615 317.8C160.561 317.8 161.375 317.967 162.055 318.3C162.735 318.633 163.281 319.093 163.695 319.68C164.121 320.253 164.401 320.907 164.535 321.64L162.095 322.16C162.041 321.76 161.921 321.4 161.735 321.08C161.548 320.76 161.281 320.507 160.935 320.32C160.601 320.133 160.181 320.04 159.675 320.04C159.168 320.04 158.708 320.153 158.295 320.38C157.895 320.593 157.575 320.92 157.335 321.36C157.108 321.787 156.995 322.313 156.995 322.94V323.14C156.995 323.767 157.108 324.3 157.335 324.74C157.575 325.167 157.895 325.493 158.295 325.72C158.708 325.933 159.168 326.04 159.675 326.04C160.435 326.04 161.008 325.847 161.395 325.46C161.795 325.06 162.048 324.54 162.155 323.9L164.595 324.48C164.421 325.187 164.121 325.833 163.695 326.42C163.281 326.993 162.735 327.447 162.055 327.78C161.375 328.113 160.561 328.28 159.615 328.28ZM171.333 328.28C170.373 328.28 169.5 328.08 168.713 327.68C167.94 327.28 167.327 326.7 166.873 325.94C166.42 325.18 166.193 324.26 166.193 323.18V322.9C166.193 321.82 166.42 320.9 166.873 320.14C167.327 319.38 167.94 318.8 168.713 318.4C169.5 318 170.373 317.8 171.333 317.8C172.28 317.8 173.093 317.967 173.773 318.3C174.453 318.633 175 319.093 175.413 319.68C175.84 320.253 176.12 320.907 176.253 321.64L173.813 322.16C173.76 321.76 173.64 321.4 173.453 321.08C173.267 320.76 173 320.507 172.653 320.32C172.32 320.133 171.9 320.04 171.393 320.04C170.887 320.04 170.427 320.153 170.013 320.38C169.613 320.593 169.293 320.92 169.053 321.36C168.827 321.787 168.713 322.313 168.713 322.94V323.14C168.713 323.767 168.827 324.3 169.053 324.74C169.293 325.167 169.613 325.493 170.013 325.72C170.427 325.933 170.887 326.04 171.393 326.04C172.153 326.04 172.727 325.847 173.113 325.46C173.513 325.06 173.767 324.54 173.873 323.9L176.313 324.48C176.14 325.187 175.84 325.833 175.413 326.42C175 326.993 174.453 327.447 173.773 327.78C173.093 328.113 172.28 328.28 171.333 328.28ZM182.912 328.28C181.926 328.28 181.052 328.073 180.292 327.66C179.546 327.233 178.959 326.64 178.532 325.88C178.119 325.107 177.912 324.2 177.912 323.16V322.92C177.912 321.88 178.119 320.98 178.532 320.22C178.946 319.447 179.526 318.853 180.272 318.44C181.019 318.013 181.886 317.8 182.872 317.8C183.846 317.8 184.692 318.02 185.412 318.46C186.132 318.887 186.692 319.487 187.092 320.26C187.492 321.02 187.692 321.907 187.692 322.92V323.78H180.472C180.499 324.46 180.752 325.013 181.232 325.44C181.712 325.867 182.299 326.08 182.992 326.08C183.699 326.08 184.219 325.927 184.552 325.62C184.886 325.313 185.139 324.973 185.312 324.6L187.372 325.68C187.186 326.027 186.912 326.407 186.552 326.82C186.206 327.22 185.739 327.567 185.152 327.86C184.566 328.14 183.819 328.28 182.912 328.28ZM180.492 321.9H185.132C185.079 321.327 184.846 320.867 184.432 320.52C184.032 320.173 183.506 320 182.852 320C182.172 320 181.632 320.173 181.232 320.52C180.832 320.867 180.586 321.327 180.492 321.9ZM194.055 328.28C192.762 328.28 191.702 328 190.875 327.44C190.048 326.88 189.548 326.08 189.375 325.04L191.695 324.44C191.788 324.907 191.942 325.273 192.155 325.54C192.382 325.807 192.655 326 192.975 326.12C193.308 326.227 193.668 326.28 194.055 326.28C194.642 326.28 195.075 326.18 195.355 325.98C195.635 325.767 195.775 325.507 195.775 325.2C195.775 324.893 195.642 324.66 195.375 324.5C195.108 324.327 194.682 324.187 194.095 324.08L193.535 323.98C192.842 323.847 192.208 323.667 191.635 323.44C191.062 323.2 190.602 322.873 190.255 322.46C189.908 322.047 189.735 321.513 189.735 320.86C189.735 319.873 190.095 319.12 190.815 318.6C191.535 318.067 192.482 317.8 193.655 317.8C194.762 317.8 195.682 318.047 196.415 318.54C197.148 319.033 197.628 319.68 197.855 320.48L195.515 321.2C195.408 320.693 195.188 320.333 194.855 320.12C194.535 319.907 194.135 319.8 193.655 319.8C193.175 319.8 192.808 319.887 192.555 320.06C192.302 320.22 192.175 320.447 192.175 320.74C192.175 321.06 192.308 321.3 192.575 321.46C192.842 321.607 193.202 321.72 193.655 321.8L194.215 321.9C194.962 322.033 195.635 322.213 196.235 322.44C196.848 322.653 197.328 322.967 197.675 323.38C198.035 323.78 198.215 324.327 198.215 325.02C198.215 326.06 197.835 326.867 197.075 327.44C196.328 328 195.322 328.28 194.055 328.28ZM204.543 328.28C203.25 328.28 202.19 328 201.363 327.44C200.537 326.88 200.037 326.08 199.863 325.04L202.183 324.44C202.277 324.907 202.43 325.273 202.643 325.54C202.87 325.807 203.143 326 203.463 326.12C203.797 326.227 204.157 326.28 204.543 326.28C205.13 326.28 205.563 326.18 205.843 325.98C206.123 325.767 206.263 325.507 206.263 325.2C206.263 324.893 206.13 324.66 205.863 324.5C205.597 324.327 205.17 324.187 204.583 324.08L204.023 323.98C203.33 323.847 202.697 323.667 202.123 323.44C201.55 323.2 201.09 322.873 200.743 322.46C200.397 322.047 200.223 321.513 200.223 320.86C200.223 319.873 200.583 319.12 201.303 318.6C202.023 318.067 202.97 317.8 204.143 317.8C205.25 317.8 206.17 318.047 206.903 318.54C207.637 319.033 208.117 319.68 208.343 320.48L206.003 321.2C205.897 320.693 205.677 320.333 205.343 320.12C205.023 319.907 204.623 319.8 204.143 319.8C203.663 319.8 203.297 319.887 203.043 320.06C202.79 320.22 202.663 320.447 202.663 320.74C202.663 321.06 202.797 321.3 203.063 321.46C203.33 321.607 203.69 321.72 204.143 321.8L204.703 321.9C205.45 322.033 206.123 322.213 206.723 322.44C207.337 322.653 207.817 322.967 208.163 323.38C208.523 323.78 208.703 324.327 208.703 325.02C208.703 326.06 208.323 326.867 207.563 327.44C206.817 328 205.81 328.28 204.543 328.28ZM212.356 328V320.16H209.836V318.08H212.356V316.24C212.356 315.56 212.556 315.02 212.956 314.62C213.37 314.207 213.903 314 214.556 314H217.156V316.08H215.436C215.063 316.08 214.876 316.28 214.876 316.68V318.08H217.476V320.16H214.876V328H212.356ZM223.207 328.16C222.434 328.16 221.754 327.987 221.167 327.64C220.594 327.28 220.147 326.787 219.827 326.16C219.507 325.533 219.347 324.813 219.347 324V318.08H221.867V323.8C221.867 324.547 222.047 325.107 222.407 325.48C222.781 325.853 223.307 326.04 223.987 326.04C224.761 326.04 225.361 325.787 225.787 325.28C226.214 324.76 226.427 324.04 226.427 323.12V318.08H228.947V328H226.467V326.7H226.107C225.947 327.033 225.647 327.36 225.207 327.68C224.767 328 224.101 328.16 223.207 328.16ZM231.752 328V314H234.272V328H231.752ZM237.064 328V314H239.584V328H237.064ZM243.457 332V329.8H248.857C249.23 329.8 249.417 329.6 249.417 329.2V326.7H249.057C248.95 326.927 248.783 327.153 248.557 327.38C248.33 327.607 248.023 327.793 247.637 327.94C247.25 328.087 246.757 328.16 246.157 328.16C245.383 328.16 244.703 327.987 244.117 327.64C243.543 327.28 243.097 326.787 242.777 326.16C242.457 325.533 242.297 324.813 242.297 324V318.08H244.817V323.8C244.817 324.547 244.997 325.107 245.357 325.48C245.73 325.853 246.257 326.04 246.937 326.04C247.71 326.04 248.31 325.787 248.737 325.28C249.163 324.76 249.377 324.04 249.377 323.12V318.08H251.897V329.76C251.897 330.44 251.697 330.98 251.297 331.38C250.897 331.793 250.363 332 249.697 332H243.457ZM255.001 323.4V314H257.561V323.4H255.001ZM256.281 328.28C255.747 328.28 255.294 328.107 254.921 327.76C254.561 327.4 254.381 326.94 254.381 326.38C254.381 325.82 254.561 325.367 254.921 325.02C255.294 324.66 255.747 324.48 256.281 324.48C256.827 324.48 257.281 324.66 257.641 325.02C258.001 325.367 258.181 325.82 258.181 326.38C258.181 326.94 258.001 327.4 257.641 327.76C257.281 328.107 256.827 328.28 256.281 328.28Z" fill="black"/>
</svg>
