<svg width="366" height="176" viewBox="0 0 366 176" fill="none" xmlns="http://www.w3.org/2000/svg">
<g filter="url(#filter0_d_704_1346)">
<g clip-path="url(#clip0_704_1346)">
<rect x="8" y="8" width="350" height="160" rx="24" fill="white"/>
<path d="M32.35 58L35.374 48.2H37.446L40.47 58H39.252L38.496 55.522H34.324L33.568 58H32.35ZM34.618 54.458H38.188L36.508 48.914H36.312L34.618 54.458ZM45.1304 58.196C44.4677 58.196 43.8704 58.056 43.3384 57.776C42.8157 57.4867 42.4004 57.076 42.0924 56.544C41.7937 56.012 41.6444 55.382 41.6444 54.654V54.5C41.6444 53.7627 41.7937 53.1327 42.0924 52.61C42.4004 52.078 42.8157 51.672 43.3384 51.392C43.8704 51.1027 44.4677 50.958 45.1304 50.958C45.7837 50.958 46.339 51.0793 46.7964 51.322C47.263 51.5647 47.627 51.8867 47.8884 52.288C48.159 52.6893 48.3317 53.1187 48.4064 53.576L47.3284 53.8C47.2817 53.464 47.1697 53.156 46.9924 52.876C46.8244 52.596 46.5864 52.372 46.2784 52.204C45.9704 52.036 45.5924 51.952 45.1444 51.952C44.687 51.952 44.2764 52.0547 43.9124 52.26C43.5577 52.4653 43.273 52.7593 43.0584 53.142C42.853 53.5247 42.7504 53.982 42.7504 54.514V54.64C42.7504 55.172 42.853 55.6293 43.0584 56.012C43.273 56.3947 43.5577 56.6887 43.9124 56.894C44.2764 57.0993 44.687 57.202 45.1444 57.202C45.8257 57.202 46.3437 57.0247 46.6984 56.67C47.0624 56.3153 47.2864 55.8767 47.3704 55.354L48.4624 55.592C48.3597 56.04 48.173 56.4647 47.9024 56.866C47.6317 57.2673 47.263 57.5893 46.7964 57.832C46.339 58.0747 45.7837 58.196 45.1304 58.196ZM53.4975 58.196C52.8349 58.196 52.2375 58.056 51.7055 57.776C51.1829 57.4867 50.7675 57.076 50.4595 56.544C50.1609 56.012 50.0115 55.382 50.0115 54.654V54.5C50.0115 53.7627 50.1609 53.1327 50.4595 52.61C50.7675 52.078 51.1829 51.672 51.7055 51.392C52.2375 51.1027 52.8349 50.958 53.4975 50.958C54.1509 50.958 54.7062 51.0793 55.1635 51.322C55.6302 51.5647 55.9942 51.8867 56.2555 52.288C56.5262 52.6893 56.6989 53.1187 56.7735 53.576L55.6955 53.8C55.6489 53.464 55.5369 53.156 55.3595 52.876C55.1915 52.596 54.9535 52.372 54.6455 52.204C54.3375 52.036 53.9595 51.952 53.5115 51.952C53.0542 51.952 52.6435 52.0547 52.2795 52.26C51.9249 52.4653 51.6402 52.7593 51.4255 53.142C51.2202 53.5247 51.1175 53.982 51.1175 54.514V54.64C51.1175 55.172 51.2202 55.6293 51.4255 56.012C51.6402 56.3947 51.9249 56.6887 52.2795 56.894C52.6435 57.0993 53.0542 57.202 53.5115 57.202C54.1929 57.202 54.7109 57.0247 55.0655 56.67C55.4295 56.3153 55.6535 55.8767 55.7375 55.354L56.8295 55.592C56.7269 56.04 56.5402 56.4647 56.2695 56.866C55.9989 57.2673 55.6302 57.5893 55.1635 57.832C54.7062 58.0747 54.1509 58.196 53.4975 58.196ZM61.8787 58.196C61.1881 58.196 60.5767 58.0513 60.0447 57.762C59.5221 57.4727 59.1114 57.0667 58.8127 56.544C58.5234 56.012 58.3787 55.3867 58.3787 54.668V54.486C58.3787 53.7767 58.5234 53.156 58.8127 52.624C59.1114 52.092 59.5221 51.6813 60.0447 51.392C60.5767 51.1027 61.1881 50.958 61.8787 50.958C62.5694 50.958 63.1761 51.1027 63.6987 51.392C64.2307 51.6813 64.6414 52.092 64.9307 52.624C65.2294 53.156 65.3787 53.7767 65.3787 54.486V54.668C65.3787 55.3867 65.2294 56.012 64.9307 56.544C64.6414 57.0667 64.2307 57.4727 63.6987 57.762C63.1761 58.0513 62.5694 58.196 61.8787 58.196ZM61.8787 57.202C62.6067 57.202 63.1854 56.9733 63.6147 56.516C64.0534 56.0493 64.2727 55.424 64.2727 54.64V54.514C64.2727 53.73 64.0534 53.1093 63.6147 52.652C63.1854 52.1853 62.6067 51.952 61.8787 51.952C61.1601 51.952 60.5814 52.1853 60.1427 52.652C59.7041 53.1093 59.4847 53.73 59.4847 54.514V54.64C59.4847 55.424 59.7041 56.0493 60.1427 56.516C60.5814 56.9733 61.1601 57.202 61.8787 57.202ZM69.987 58.126C69.4924 58.126 69.035 58.0187 68.615 57.804C68.2044 57.5893 67.8777 57.272 67.635 56.852C67.4017 56.4227 67.285 55.9047 67.285 55.298V51.154H68.391V55.214C68.391 55.8953 68.559 56.39 68.895 56.698C69.2404 57.006 69.7024 57.16 70.281 57.16C70.9344 57.16 71.471 56.9453 71.891 56.516C72.311 56.0867 72.521 55.4473 72.521 54.598V51.154H73.627V58H72.549V56.838H72.353C72.2037 57.1647 71.947 57.4633 71.583 57.734C71.219 57.9953 70.687 58.126 69.987 58.126ZM75.9413 58V51.154H77.0193V52.316H77.2153C77.3646 51.9893 77.6166 51.6953 77.9713 51.434C78.3353 51.1633 78.8673 51.028 79.5673 51.028C80.0806 51.028 80.538 51.1353 80.9393 51.35C81.35 51.5647 81.6766 51.882 81.9193 52.302C82.162 52.722 82.2833 53.24 82.2833 53.856V58H81.1773V53.94C81.1773 53.2587 81.0046 52.764 80.6593 52.456C80.3233 52.148 79.866 51.994 79.2873 51.994C78.6246 51.994 78.0833 52.2087 77.6633 52.638C77.2526 53.0673 77.0473 53.7067 77.0473 54.556V58H75.9413ZM86.8558 58C86.4638 58 86.1605 57.8927 85.9458 57.678C85.7405 57.4633 85.6378 57.1693 85.6378 56.796V52.12H83.5798V51.154H85.6378V48.718H86.7438V51.154H88.9838V52.12H86.7438V56.628C86.7438 56.908 86.8792 57.048 87.1498 57.048H88.6758V58H86.8558ZM93.3813 58L96.4053 48.2H98.4773L101.501 58H100.283L99.5273 55.522H95.3553L94.5993 58H93.3813ZM95.6493 54.458H99.2193L97.5393 48.914H97.3433L95.6493 54.458ZM105.91 58.196C105.322 58.196 104.78 58.056 104.286 57.776C103.791 57.496 103.399 57.09 103.11 56.558C102.82 56.026 102.676 55.396 102.676 54.668V54.486C102.676 53.758 102.82 53.1327 103.11 52.61C103.399 52.078 103.786 51.672 104.272 51.392C104.766 51.1027 105.312 50.958 105.91 50.958C106.386 50.958 106.787 51.0233 107.114 51.154C107.45 51.2753 107.72 51.434 107.926 51.63C108.131 51.8167 108.29 52.0173 108.402 52.232H108.598V48.2H109.704V58H108.626V56.866H108.43C108.243 57.2113 107.954 57.5193 107.562 57.79C107.17 58.0607 106.619 58.196 105.91 58.196ZM106.204 57.216C106.913 57.216 107.487 56.992 107.926 56.544C108.374 56.0867 108.598 55.452 108.598 54.64V54.514C108.598 53.702 108.374 53.072 107.926 52.624C107.487 52.1667 106.913 51.938 106.204 51.938C105.504 51.938 104.925 52.1667 104.468 52.624C104.02 53.072 103.796 53.702 103.796 54.514V54.64C103.796 55.452 104.02 56.0867 104.468 56.544C104.925 56.992 105.504 57.216 106.204 57.216ZM114.919 58.196C114.331 58.196 113.79 58.056 113.295 57.776C112.801 57.496 112.409 57.09 112.119 56.558C111.83 56.026 111.685 55.396 111.685 54.668V54.486C111.685 53.758 111.83 53.1327 112.119 52.61C112.409 52.078 112.796 51.672 113.281 51.392C113.776 51.1027 114.322 50.958 114.919 50.958C115.395 50.958 115.797 51.0233 116.123 51.154C116.459 51.2753 116.73 51.434 116.935 51.63C117.141 51.8167 117.299 52.0173 117.411 52.232H117.607V48.2H118.713V58H117.635V56.866H117.439C117.253 57.2113 116.963 57.5193 116.571 57.79C116.179 58.0607 115.629 58.196 114.919 58.196ZM115.213 57.216C115.923 57.216 116.497 56.992 116.935 56.544C117.383 56.0867 117.607 55.452 117.607 54.64V54.514C117.607 53.702 117.383 53.072 116.935 52.624C116.497 52.1667 115.923 51.938 115.213 51.938C114.513 51.938 113.935 52.1667 113.477 52.624C113.029 53.072 112.805 53.702 112.805 54.514V54.64C112.805 55.452 113.029 56.0867 113.477 56.544C113.935 56.992 114.513 57.216 115.213 57.216ZM121.031 58V51.154H122.109V51.994H122.305C122.426 51.6953 122.613 51.476 122.865 51.336C123.117 51.196 123.448 51.126 123.859 51.126H124.671V52.134H123.789C123.294 52.134 122.893 52.274 122.585 52.554C122.286 52.8247 122.137 53.2493 122.137 53.828V58H121.031ZM129.198 58.196C128.508 58.196 127.901 58.0513 127.378 57.762C126.856 57.4633 126.45 57.048 126.16 56.516C125.871 55.984 125.726 55.368 125.726 54.668V54.5C125.726 53.7907 125.871 53.17 126.16 52.638C126.45 52.106 126.851 51.6953 127.364 51.406C127.878 51.1073 128.466 50.958 129.128 50.958C129.772 50.958 130.342 51.098 130.836 51.378C131.331 51.6487 131.718 52.0407 131.998 52.554C132.278 53.0673 132.418 53.6693 132.418 54.36V54.864H126.832C126.86 55.6013 127.098 56.18 127.546 56.6C127.994 57.0107 128.554 57.216 129.226 57.216C129.814 57.216 130.267 57.0807 130.584 56.81C130.902 56.5393 131.144 56.2173 131.312 55.844L132.264 56.306C132.124 56.5953 131.928 56.8847 131.676 57.174C131.434 57.4633 131.112 57.706 130.71 57.902C130.318 58.098 129.814 58.196 129.198 58.196ZM126.846 53.954H131.298C131.261 53.3193 131.042 52.8247 130.64 52.47C130.248 52.1153 129.744 51.938 129.128 51.938C128.503 51.938 127.99 52.1153 127.588 52.47C127.187 52.8247 126.94 53.3193 126.846 53.954ZM137.106 58.196C136.256 58.196 135.538 58 134.95 57.608C134.371 57.216 134.021 56.5953 133.9 55.746L134.95 55.508C135.024 55.956 135.164 56.3107 135.37 56.572C135.575 56.824 135.827 57.006 136.126 57.118C136.434 57.2207 136.76 57.272 137.106 57.272C137.619 57.272 138.025 57.1693 138.324 56.964C138.622 56.7587 138.772 56.4833 138.772 56.138C138.772 55.7833 138.627 55.536 138.338 55.396C138.058 55.2467 137.67 55.1253 137.176 55.032L136.602 54.934C136.163 54.8593 135.762 54.7427 135.398 54.584C135.034 54.4253 134.744 54.2107 134.53 53.94C134.315 53.6693 134.208 53.3287 134.208 52.918C134.208 52.302 134.446 51.8213 134.922 51.476C135.398 51.1307 136.028 50.958 136.812 50.958C137.586 50.958 138.212 51.1353 138.688 51.49C139.173 51.8353 139.486 52.3253 139.626 52.96L138.59 53.226C138.506 52.7313 138.305 52.386 137.988 52.19C137.67 51.9847 137.278 51.882 136.812 51.882C136.345 51.882 135.976 51.9707 135.706 52.148C135.435 52.316 135.3 52.568 135.3 52.904C135.3 53.2307 135.426 53.4733 135.678 53.632C135.939 53.7813 136.284 53.8933 136.714 53.968L137.288 54.066C137.773 54.15 138.207 54.2667 138.59 54.416C138.982 54.556 139.29 54.7613 139.514 55.032C139.747 55.3027 139.864 55.6573 139.864 56.096C139.864 56.768 139.612 57.286 139.108 57.65C138.613 58.014 137.946 58.196 137.106 58.196ZM144.488 58.196C143.639 58.196 142.92 58 142.332 57.608C141.754 57.216 141.404 56.5953 141.282 55.746L142.332 55.508C142.407 55.956 142.547 56.3107 142.752 56.572C142.958 56.824 143.21 57.006 143.508 57.118C143.816 57.2207 144.143 57.272 144.488 57.272C145.002 57.272 145.408 57.1693 145.706 56.964C146.005 56.7587 146.154 56.4833 146.154 56.138C146.154 55.7833 146.01 55.536 145.72 55.396C145.44 55.2467 145.053 55.1253 144.558 55.032L143.984 54.934C143.546 54.8593 143.144 54.7427 142.78 54.584C142.416 54.4253 142.127 54.2107 141.912 53.94C141.698 53.6693 141.59 53.3287 141.59 52.918C141.59 52.302 141.828 51.8213 142.304 51.476C142.78 51.1307 143.41 50.958 144.194 50.958C144.969 50.958 145.594 51.1353 146.07 51.49C146.556 51.8353 146.868 52.3253 147.008 52.96L145.972 53.226C145.888 52.7313 145.688 52.386 145.37 52.19C145.053 51.9847 144.661 51.882 144.194 51.882C143.728 51.882 143.359 51.9707 143.088 52.148C142.818 52.316 142.682 52.568 142.682 52.904C142.682 53.2307 142.808 53.4733 143.06 53.632C143.322 53.7813 143.667 53.8933 144.096 53.968L144.67 54.066C145.156 54.15 145.59 54.2667 145.972 54.416C146.364 54.556 146.672 54.7613 146.896 55.032C147.13 55.3027 147.246 55.6573 147.246 56.096C147.246 56.768 146.994 57.286 146.49 57.65C145.996 58.014 145.328 58.196 144.488 58.196Z" fill="#797979"/>
<path d="M36.48 82.28C35.7733 82.28 35.14 82.16 34.58 81.92C34.02 81.6667 33.5733 81.3067 33.24 80.84C32.92 80.36 32.76 79.78 32.76 79.1C32.76 78.42 32.92 77.8533 33.24 77.4C33.5733 76.9333 34.0267 76.5867 34.6 76.36C35.1867 76.12 35.8533 76 36.6 76H39.32V75.44C39.32 74.9733 39.1733 74.5933 38.88 74.3C38.5867 73.9933 38.12 73.84 37.48 73.84C36.8533 73.84 36.3867 73.9867 36.08 74.28C35.7733 74.56 35.5733 74.9267 35.48 75.38L33.16 74.6C33.32 74.0933 33.5733 73.6333 33.92 73.22C34.28 72.7933 34.7533 72.4533 35.34 72.2C35.94 71.9333 36.6667 71.8 37.52 71.8C38.8267 71.8 39.86 72.1267 40.62 72.78C41.38 73.4333 41.76 74.38 41.76 75.62V79.32C41.76 79.72 41.9467 79.92 42.32 79.92H43.12V82H41.44C40.9467 82 40.54 81.88 40.22 81.64C39.9 81.4 39.74 81.08 39.74 80.68V80.66H39.36C39.3067 80.82 39.1867 81.0333 39 81.3C38.8133 81.5533 38.52 81.78 38.12 81.98C37.72 82.18 37.1733 82.28 36.48 82.28ZM36.92 80.24C37.6267 80.24 38.2 80.0467 38.64 79.66C39.0933 79.26 39.32 78.7333 39.32 78.08V77.88H36.78C36.3133 77.88 35.9467 77.98 35.68 78.18C35.4133 78.38 35.28 78.66 35.28 79.02C35.28 79.38 35.42 79.6733 35.7 79.9C35.98 80.1267 36.3867 80.24 36.92 80.24ZM44.7625 82V72.08H47.2425V73.2H47.6025C47.7492 72.8 47.9892 72.5067 48.3225 72.32C48.6692 72.1333 49.0692 72.04 49.5225 72.04H50.7225V74.28H49.4825C48.8425 74.28 48.3158 74.4533 47.9025 74.8C47.4892 75.1333 47.2825 75.6533 47.2825 76.36V82H44.7625ZM52.4922 82V72.08H54.9722V73.38H55.3322C55.4922 73.0333 55.7922 72.7067 56.2322 72.4C56.6722 72.08 57.3389 71.92 58.2322 71.92C59.0055 71.92 59.6789 72.1 60.2522 72.46C60.8389 72.8067 61.2922 73.2933 61.6122 73.92C61.9322 74.5333 62.0922 75.2533 62.0922 76.08V82H59.5722V76.28C59.5722 75.5333 59.3855 74.9733 59.0122 74.6C58.6522 74.2267 58.1322 74.04 57.4522 74.04C56.6789 74.04 56.0789 74.3 55.6522 74.82C55.2255 75.3267 55.0122 76.04 55.0122 76.96V82H52.4922ZM67.6964 82.28C66.9897 82.28 66.3564 82.16 65.7964 81.92C65.2364 81.6667 64.7897 81.3067 64.4564 80.84C64.1364 80.36 63.9764 79.78 63.9764 79.1C63.9764 78.42 64.1364 77.8533 64.4564 77.4C64.7897 76.9333 65.2431 76.5867 65.8164 76.36C66.4031 76.12 67.0697 76 67.8164 76H70.5364V75.44C70.5364 74.9733 70.3897 74.5933 70.0964 74.3C69.8031 73.9933 69.3364 73.84 68.6964 73.84C68.0697 73.84 67.6031 73.9867 67.2964 74.28C66.9897 74.56 66.7897 74.9267 66.6964 75.38L64.3764 74.6C64.5364 74.0933 64.7897 73.6333 65.1364 73.22C65.4964 72.7933 65.9697 72.4533 66.5564 72.2C67.1564 71.9333 67.8831 71.8 68.7364 71.8C70.0431 71.8 71.0764 72.1267 71.8364 72.78C72.5964 73.4333 72.9764 74.38 72.9764 75.62V79.32C72.9764 79.72 73.1631 79.92 73.5364 79.92H74.3364V82H72.6564C72.1631 82 71.7564 81.88 71.4364 81.64C71.1164 81.4 70.9564 81.08 70.9564 80.68V80.66H70.5764C70.5231 80.82 70.4031 81.0333 70.2164 81.3C70.0297 81.5533 69.7364 81.78 69.3364 81.98C68.9364 82.18 68.3897 82.28 67.6964 82.28ZM68.1364 80.24C68.8431 80.24 69.4164 80.0467 69.8564 79.66C70.3097 79.26 70.5364 78.7333 70.5364 78.08V77.88H67.9964C67.5297 77.88 67.1631 77.98 66.8964 78.18C66.6297 78.38 66.4964 78.66 66.4964 79.02C66.4964 79.38 66.6364 79.6733 66.9164 79.9C67.1964 80.1267 67.6031 80.24 68.1364 80.24ZM81.9389 82.28C81.0456 82.28 80.3589 82.1267 79.8789 81.82C79.3989 81.5133 79.0456 81.1733 78.8189 80.8H78.4589V82H75.9789V68H78.4989V73.22H78.8589C79.0056 72.98 79.1989 72.7533 79.4389 72.54C79.6922 72.3267 80.0189 72.1533 80.4189 72.02C80.8322 71.8733 81.3389 71.8 81.9389 71.8C82.7389 71.8 83.4789 72 84.1589 72.4C84.8389 72.7867 85.3856 73.36 85.7989 74.12C86.2122 74.88 86.4189 75.8 86.4189 76.88V77.2C86.4189 78.28 86.2122 79.2 85.7989 79.96C85.3856 80.72 84.8389 81.3 84.1589 81.7C83.4789 82.0867 82.7389 82.28 81.9389 82.28ZM81.1789 80.08C81.9522 80.08 82.5989 79.8333 83.1189 79.34C83.6389 78.8333 83.8989 78.1 83.8989 77.14V76.94C83.8989 75.98 83.6389 75.2533 83.1189 74.76C82.6122 74.2533 81.9656 74 81.1789 74C80.4056 74 79.7589 74.2533 79.2389 74.76C78.7189 75.2533 78.4589 75.98 78.4589 76.94V77.14C78.4589 78.1 78.7189 78.8333 79.2389 79.34C79.7589 79.8333 80.4056 80.08 81.1789 80.08ZM89.9956 82.28C89.4623 82.28 89.009 82.1067 88.6356 81.76C88.2756 81.4 88.0956 80.94 88.0956 80.38C88.0956 79.82 88.2756 79.3667 88.6356 79.02C89.009 78.66 89.4623 78.48 89.9956 78.48C90.5423 78.48 90.9956 78.66 91.3556 79.02C91.7156 79.3667 91.8956 79.82 91.8956 80.38C91.8956 80.94 91.7156 81.4 91.3556 81.76C90.9956 82.1067 90.5423 82.28 89.9956 82.28ZM98.0555 82.28C97.2688 82.28 96.5288 82.0867 95.8355 81.7C95.1555 81.3 94.6088 80.72 94.1955 79.96C93.7821 79.2 93.5755 78.28 93.5755 77.2V76.88C93.5755 75.8 93.7821 74.88 94.1955 74.12C94.6088 73.36 95.1555 72.7867 95.8355 72.4C96.5155 72 97.2555 71.8 98.0555 71.8C98.6555 71.8 99.1555 71.8733 99.5555 72.02C99.9688 72.1533 100.302 72.3267 100.555 72.54C100.809 72.7533 101.002 72.98 101.135 73.22H101.495V68H104.015V82H101.535V80.8H101.175C100.949 81.1733 100.595 81.5133 100.115 81.82C99.6488 82.1267 98.9621 82.28 98.0555 82.28ZM98.8155 80.08C99.5888 80.08 100.235 79.8333 100.755 79.34C101.275 78.8333 101.535 78.1 101.535 77.14V76.94C101.535 75.98 101.275 75.2533 100.755 74.76C100.249 74.2533 99.6021 74 98.8155 74C98.0421 74 97.3955 74.2533 96.8755 74.76C96.3555 75.2533 96.0955 75.98 96.0955 76.94V77.14C96.0955 78.1 96.3555 78.8333 96.8755 79.34C97.3955 79.8333 98.0421 80.08 98.8155 80.08ZM115.689 86C113.783 86 112.143 85.6333 110.769 84.9C109.409 84.18 108.363 83.1533 107.629 81.82C106.896 80.4867 106.529 78.9067 106.529 77.08V76.6C106.529 74.7733 106.889 73.2 107.609 71.88C108.329 70.5467 109.356 69.52 110.689 68.8C112.023 68.08 113.609 67.72 115.449 67.72H115.889C117.569 67.72 119.036 68.0733 120.289 68.78C121.543 69.4733 122.516 70.4467 123.209 71.7C123.903 72.9533 124.249 74.4133 124.249 76.08V77.56C124.249 78.96 123.963 80.0533 123.389 80.84C122.816 81.6133 121.956 82 120.809 82H119.649C119.023 82 118.543 81.8733 118.209 81.62C117.876 81.3667 117.709 81.0267 117.709 80.6V80.56H117.349C117.243 80.84 117.083 81.1 116.869 81.34C116.669 81.58 116.409 81.7733 116.089 81.92C115.769 82.0533 115.363 82.12 114.869 82.12C114.029 82.12 113.303 81.9 112.689 81.46C112.089 81.0067 111.623 80.4067 111.289 79.66C110.969 78.9133 110.809 78.08 110.809 77.16V76.84C110.809 75.9067 110.963 75.0667 111.269 74.32C111.589 73.5733 112.036 72.98 112.609 72.54C113.196 72.1 113.883 71.88 114.669 71.88C115.163 71.88 115.569 71.94 115.889 72.06C116.209 72.18 116.469 72.34 116.669 72.54C116.869 72.74 117.036 72.96 117.169 73.2H117.529V72H119.969V79.08C119.969 79.3067 120.016 79.48 120.109 79.6C120.203 79.7067 120.363 79.76 120.589 79.76H120.669C121.056 79.76 121.336 79.58 121.509 79.22C121.683 78.8467 121.769 78.2933 121.769 77.56V76.12C121.769 74.8533 121.549 73.7667 121.109 72.86C120.683 71.94 120.029 71.2333 119.149 70.74C118.269 70.2467 117.156 70 115.809 70H115.529C114.183 70 113.023 70.2533 112.049 70.76C111.076 71.2667 110.323 72.02 109.789 73.02C109.269 74.0067 109.009 75.2267 109.009 76.68V77C109.009 78.4533 109.276 79.68 109.809 80.68C110.356 81.68 111.136 82.4333 112.149 82.94C113.176 83.46 114.409 83.72 115.849 83.72H120.009V86H115.689ZM115.389 79.96C116.043 79.96 116.563 79.7067 116.949 79.2C117.336 78.6933 117.529 78 117.529 77.12V76.88C117.529 76 117.336 75.3067 116.949 74.8C116.563 74.2933 116.043 74.04 115.389 74.04C114.736 74.04 114.223 74.2933 113.849 74.8C113.476 75.3067 113.289 76 113.289 76.88V77.12C113.289 78 113.476 78.6933 113.849 79.2C114.223 79.7067 114.736 79.96 115.389 79.96ZM130.463 82.16C129.689 82.16 129.009 81.9867 128.423 81.64C127.849 81.28 127.403 80.7867 127.083 80.16C126.763 79.5333 126.603 78.8133 126.603 78V72.08H129.123V77.8C129.123 78.5467 129.303 79.1067 129.663 79.48C130.036 79.8533 130.563 80.04 131.243 80.04C132.016 80.04 132.616 79.7867 133.043 79.28C133.469 78.76 133.683 78.04 133.683 77.12V72.08H136.203V82H133.723V80.7H133.363C133.203 81.0333 132.903 81.36 132.463 81.68C132.023 82 131.356 82.16 130.463 82.16ZM138.807 82V72.08H141.287V73.38H141.647C141.807 73.0333 142.107 72.7067 142.547 72.4C142.987 72.08 143.654 71.92 144.547 71.92C145.32 71.92 145.994 72.1 146.567 72.46C147.154 72.8067 147.607 73.2933 147.927 73.92C148.247 74.5333 148.407 75.2533 148.407 76.08V82H145.887V76.28C145.887 75.5333 145.7 74.9733 145.327 74.6C144.967 74.2267 144.447 74.04 143.767 74.04C142.994 74.04 142.394 74.3 141.967 74.82C141.54 75.3267 141.327 76.04 141.327 76.96V82H138.807ZM150.931 82V72.08H153.451V82H150.931ZM152.191 70.92C151.738 70.92 151.351 70.7733 151.031 70.48C150.725 70.1867 150.571 69.8 150.571 69.32C150.571 68.84 150.725 68.4533 151.031 68.16C151.351 67.8667 151.738 67.72 152.191 67.72C152.658 67.72 153.045 67.8667 153.351 68.16C153.658 68.4533 153.811 68.84 153.811 69.32C153.811 69.8 153.658 70.1867 153.351 70.48C153.045 70.7733 152.658 70.92 152.191 70.92ZM157.684 82V74.16H155.164V72.08H157.684V70.24C157.684 69.56 157.884 69.02 158.284 68.62C158.697 68.2067 159.23 68 159.884 68H162.284V70.08H160.764C160.39 70.08 160.204 70.28 160.204 70.68V72.08H164.204V74.16H160.204V82H157.684ZM164.204 82V72.08H166.724V82H164.204ZM165.464 71C165.01 71 164.624 70.8533 164.304 70.56C163.997 70.2667 163.844 69.88 163.844 69.4C163.844 68.92 163.997 68.5333 164.304 68.24C164.624 67.9467 165.01 67.8 165.464 67.8C165.93 67.8 166.317 67.9467 166.624 68.24C166.93 68.5333 167.084 68.92 167.084 69.4C167.084 69.88 166.93 70.2667 166.624 70.56C166.317 70.8533 165.93 71 165.464 71ZM173.84 82.28C172.854 82.28 171.98 82.0733 171.22 81.66C170.474 81.2333 169.887 80.64 169.46 79.88C169.047 79.1067 168.84 78.2 168.84 77.16V76.92C168.84 75.88 169.047 74.98 169.46 74.22C169.874 73.4467 170.454 72.8533 171.2 72.44C171.947 72.0133 172.814 71.8 173.8 71.8C174.774 71.8 175.62 72.02 176.34 72.46C177.06 72.8867 177.62 73.4867 178.02 74.26C178.42 75.02 178.62 75.9067 178.62 76.92V77.78H171.4C171.427 78.46 171.68 79.0133 172.16 79.44C172.64 79.8667 173.227 80.08 173.92 80.08C174.627 80.08 175.147 79.9267 175.48 79.62C175.814 79.3133 176.067 78.9733 176.24 78.6L178.3 79.68C178.114 80.0267 177.84 80.4067 177.48 80.82C177.134 81.22 176.667 81.5667 176.08 81.86C175.494 82.14 174.747 82.28 173.84 82.28ZM171.42 75.9H176.06C176.007 75.3267 175.774 74.8667 175.36 74.52C174.96 74.1733 174.434 74 173.78 74C173.1 74 172.56 74.1733 172.16 74.52C171.76 74.8667 171.514 75.3267 171.42 75.9ZM184.663 82.28C183.877 82.28 183.137 82.0867 182.443 81.7C181.763 81.3 181.217 80.72 180.803 79.96C180.39 79.2 180.183 78.28 180.183 77.2V76.88C180.183 75.8 180.39 74.88 180.803 74.12C181.217 73.36 181.763 72.7867 182.443 72.4C183.123 72 183.863 71.8 184.663 71.8C185.263 71.8 185.763 71.8733 186.163 72.02C186.577 72.1533 186.91 72.3267 187.163 72.54C187.417 72.7533 187.61 72.98 187.743 73.22H188.103V68H190.623V82H188.143V80.8H187.783C187.557 81.1733 187.203 81.5133 186.723 81.82C186.257 82.1267 185.57 82.28 184.663 82.28ZM185.423 80.08C186.197 80.08 186.843 79.8333 187.363 79.34C187.883 78.8333 188.143 78.1 188.143 77.14V76.94C188.143 75.98 187.883 75.2533 187.363 74.76C186.857 74.2533 186.21 74 185.423 74C184.65 74 184.003 74.2533 183.483 74.76C182.963 75.2533 182.703 75.98 182.703 76.94V77.14C182.703 78.1 182.963 78.8333 183.483 79.34C184.003 79.8333 184.65 80.08 185.423 80.08ZM193.217 82V68H195.737V82H193.217ZM202.85 82.28C201.863 82.28 200.99 82.0733 200.23 81.66C199.483 81.2333 198.896 80.64 198.47 79.88C198.056 79.1067 197.85 78.2 197.85 77.16V76.92C197.85 75.88 198.056 74.98 198.47 74.22C198.883 73.4467 199.463 72.8533 200.21 72.44C200.956 72.0133 201.823 71.8 202.81 71.8C203.783 71.8 204.63 72.02 205.35 72.46C206.07 72.8867 206.63 73.4867 207.03 74.26C207.43 75.02 207.63 75.9067 207.63 76.92V77.78H200.41C200.436 78.46 200.69 79.0133 201.17 79.44C201.65 79.8667 202.236 80.08 202.93 80.08C203.636 80.08 204.156 79.9267 204.49 79.62C204.823 79.3133 205.076 78.9733 205.25 78.6L207.31 79.68C207.123 80.0267 206.85 80.4067 206.49 80.82C206.143 81.22 205.676 81.5667 205.09 81.86C204.503 82.14 203.756 82.28 202.85 82.28ZM200.43 75.9H205.07C205.016 75.3267 204.783 74.8667 204.37 74.52C203.97 74.1733 203.443 74 202.79 74C202.11 74 201.57 74.1733 201.17 74.52C200.77 74.8667 200.523 75.3267 200.43 75.9ZM213.673 82.28C212.886 82.28 212.146 82.0867 211.453 81.7C210.773 81.3 210.226 80.72 209.813 79.96C209.399 79.2 209.193 78.28 209.193 77.2V76.88C209.193 75.8 209.399 74.88 209.813 74.12C210.226 73.36 210.773 72.7867 211.453 72.4C212.133 72 212.873 71.8 213.673 71.8C214.273 71.8 214.773 71.8733 215.173 72.02C215.586 72.1533 215.919 72.3267 216.173 72.54C216.426 72.7533 216.619 72.98 216.753 73.22H217.113V68H219.633V82H217.153V80.8H216.793C216.566 81.1733 216.213 81.5133 215.733 81.82C215.266 82.1267 214.579 82.28 213.673 82.28ZM214.433 80.08C215.206 80.08 215.853 79.8333 216.373 79.34C216.893 78.8333 217.153 78.1 217.153 77.14V76.94C217.153 75.98 216.893 75.2533 216.373 74.76C215.866 74.2533 215.219 74 214.433 74C213.659 74 213.013 74.2533 212.493 74.76C211.973 75.2533 211.713 75.98 211.713 76.94V77.14C211.713 78.1 211.973 78.8333 212.493 79.34C213.013 79.8333 213.659 80.08 214.433 80.08ZM221.747 77.08V76.76C221.747 75.72 221.953 74.8333 222.367 74.1C222.78 73.3533 223.327 72.7867 224.007 72.4C224.7 72 225.453 71.8 226.267 71.8C227.173 71.8 227.86 71.96 228.327 72.28C228.793 72.6 229.133 72.9333 229.347 73.28H229.707V72.08H232.187V83.76C232.187 84.44 231.987 84.98 231.587 85.38C231.187 85.7933 230.653 86 229.987 86H223.347V83.8H229.107C229.48 83.8 229.667 83.6 229.667 83.2V80.62H229.307C229.173 80.8333 228.987 81.0533 228.747 81.28C228.507 81.4933 228.187 81.6733 227.787 81.82C227.387 81.9667 226.88 82.04 226.267 82.04C225.453 82.04 224.7 81.8467 224.007 81.46C223.327 81.06 222.78 80.4933 222.367 79.76C221.953 79.0133 221.747 78.12 221.747 77.08ZM226.987 79.84C227.76 79.84 228.407 79.5933 228.927 79.1C229.447 78.6067 229.707 77.9133 229.707 77.02V76.82C229.707 75.9133 229.447 75.22 228.927 74.74C228.42 74.2467 227.773 74 226.987 74C226.213 74 225.567 74.2467 225.047 74.74C224.527 75.22 224.267 75.9133 224.267 76.82V77.02C224.267 77.9133 224.527 78.6067 225.047 79.1C225.567 79.5933 226.213 79.84 226.987 79.84ZM239.3 82.28C238.314 82.28 237.44 82.0733 236.68 81.66C235.934 81.2333 235.347 80.64 234.92 79.88C234.507 79.1067 234.3 78.2 234.3 77.16V76.92C234.3 75.88 234.507 74.98 234.92 74.22C235.334 73.4467 235.914 72.8533 236.66 72.44C237.407 72.0133 238.274 71.8 239.26 71.8C240.234 71.8 241.08 72.02 241.8 72.46C242.52 72.8867 243.08 73.4867 243.48 74.26C243.88 75.02 244.08 75.9067 244.08 76.92V77.78H236.86C236.887 78.46 237.14 79.0133 237.62 79.44C238.1 79.8667 238.687 80.08 239.38 80.08C240.087 80.08 240.607 79.9267 240.94 79.62C241.274 79.3133 241.527 78.9733 241.7 78.6L243.76 79.68C243.574 80.0267 243.3 80.4067 242.94 80.82C242.594 81.22 242.127 81.5667 241.54 81.86C240.954 82.14 240.207 82.28 239.3 82.28ZM236.88 75.9H241.52C241.467 75.3267 241.234 74.8667 240.82 74.52C240.42 74.1733 239.894 74 239.24 74C238.56 74 238.02 74.1733 237.62 74.52C237.22 74.8667 236.974 75.3267 236.88 75.9ZM246.123 82V72.08H248.603V73.2H248.963C249.11 72.8 249.35 72.5067 249.683 72.32C250.03 72.1333 250.43 72.04 250.883 72.04H252.083V74.28H250.843C250.203 74.28 249.677 74.4533 249.263 74.8C248.85 75.1333 248.643 75.6533 248.643 76.36V82H246.123ZM257.613 82V69.88H257.253L255.373 74.32H252.693L255.553 68H260.173V82H257.613Z" fill="#1D1D1F"/>
<g opacity="0.6">
<path d="M241 -33H385.219V147.576H362.192C295.26 147.576 241 93.3166 241 26.3841V-33Z" fill="#E6E6E6" fill-opacity="0.5"/>
<path d="M260.391 -33H404.609V147.576H381.583C314.65 147.576 260.391 93.3166 260.391 26.3841V-33Z" fill="#E6E6E6" fill-opacity="0.5"/>
<path d="M279.781 -33H424V147.576H400.973C334.041 147.576 279.781 93.3166 279.781 26.3841V-33Z" fill="#E6E6E6"/>
</g>
<g clip-path="url(#clip1_704_1346)">
<path d="M326.667 79.3333C327.551 79.3323 328.398 78.9808 329.023 78.3559C329.648 77.731 329.999 76.8837 330 76V70.162C330.001 69.8116 329.933 69.4644 329.799 69.1407C329.664 68.8169 329.467 68.523 329.219 68.276L327.724 66.7813C327.477 66.5328 327.183 66.3357 326.859 66.2016C326.536 66.0675 326.189 65.999 325.838 66H322.667C321.783 66.0011 320.936 66.3526 320.311 66.9775C319.686 67.6024 319.335 68.4496 319.333 69.3333V76C319.335 76.8837 319.686 77.731 320.311 78.3559C320.936 78.9808 321.783 79.3323 322.667 79.3333H326.667ZM320.667 76V69.3333C320.667 68.8029 320.878 68.2942 321.253 67.9191C321.628 67.5441 322.136 67.3333 322.667 67.3333C322.667 67.3333 325.946 67.3427 326 67.3493V68.6667C326 69.0203 326.141 69.3594 326.391 69.6095C326.641 69.8595 326.98 70 327.333 70H328.651C328.657 70.054 328.667 76 328.667 76C328.667 76.5304 328.456 77.0392 328.081 77.4142C327.706 77.7893 327.197 78 326.667 78H322.667C322.136 78 321.628 77.7893 321.253 77.4142C320.878 77.0392 320.667 76.5304 320.667 76ZM332.667 71.3333V78.6667C332.666 79.5504 332.314 80.3976 331.689 81.0225C331.064 81.6474 330.217 81.999 329.333 82H323.333C323.157 82 322.987 81.9298 322.862 81.8048C322.737 81.6797 322.667 81.5102 322.667 81.3333C322.667 81.1565 322.737 80.987 322.862 80.8619C322.987 80.7369 323.157 80.6667 323.333 80.6667H329.333C329.864 80.6667 330.373 80.456 330.748 80.0809C331.123 79.7058 331.333 79.1971 331.333 78.6667V71.3333C331.333 71.1565 331.404 70.987 331.529 70.8619C331.654 70.7369 331.823 70.6667 332 70.6667C332.177 70.6667 332.347 70.7369 332.472 70.8619C332.597 70.987 332.667 71.1565 332.667 71.3333Z" fill="#00B76A"/>
</g>
<g clip-path="url(#clip2_704_1346)">
<path opacity="0.4" d="M37.1519 144C37.0776 144 37.0033 143.983 36.9363 143.948L34.7756 142.83C34.1625 142.512 33.6829 142.156 33.3084 141.74C32.4887 140.832 32.0327 139.666 32.0254 138.456L32 134.475C31.997 134.015 32.2936 133.603 32.737 133.447L36.7043 132.064C36.9399 131.98 37.2027 131.979 37.4425 132.06L41.4249 133.396C41.8707 133.545 42.1721 133.954 42.1745 134.413L42.1999 138.398C42.2078 139.606 41.7674 140.776 40.9604 141.695C40.5901 142.116 40.1147 142.478 39.5077 142.802L37.3664 143.945C37.2999 143.981 37.2262 143.999 37.1519 144Z" fill="#00B347"/>
<path d="M36.6917 139.392C36.5757 139.393 36.4598 139.351 36.3704 139.265L35.2203 138.159C35.0427 137.987 35.0409 137.708 35.2166 137.535C35.3924 137.362 35.6793 137.36 35.8575 137.531L36.6851 138.327L38.7056 136.334C38.882 136.161 39.1689 136.159 39.3465 136.33C39.5247 136.502 39.5265 136.782 39.3507 136.954L37.0113 139.261C36.9231 139.348 36.8077 139.392 36.6917 139.392Z" fill="#00B347"/>
</g>
<path d="M51.271 136.045C51.2284 135.686 51.0556 135.406 50.7526 135.207C50.4495 135.009 50.0779 134.909 49.6375 134.909C49.3155 134.909 49.0338 134.961 48.7923 135.065C48.5532 135.17 48.3662 135.313 48.2313 135.495C48.0987 135.677 48.0324 135.884 48.0324 136.116C48.0324 136.311 48.0786 136.478 48.1709 136.617C48.2656 136.754 48.3863 136.869 48.5331 136.962C48.6799 137.052 48.8338 137.126 48.9948 137.185C49.1557 137.242 49.3037 137.288 49.4387 137.324L50.1773 137.523C50.3667 137.572 50.5774 137.641 50.8094 137.729C51.0438 137.816 51.2675 137.936 51.4806 138.087C51.696 138.237 51.8736 138.428 52.0132 138.663C52.1529 138.897 52.2227 139.185 52.2227 139.526C52.2227 139.919 52.1198 140.274 51.9138 140.591C51.7102 140.908 51.4119 141.16 51.0189 141.347C50.6283 141.534 50.1536 141.628 49.5949 141.628C49.0741 141.628 48.6231 141.544 48.2419 141.376C47.8631 141.208 47.5648 140.973 47.347 140.673C47.1316 140.372 47.0097 140.023 46.9813 139.625H47.8904C47.914 139.9 48.0064 140.127 48.1673 140.307C48.3307 140.484 48.5367 140.617 48.7852 140.705C49.0362 140.79 49.3061 140.832 49.5949 140.832C49.9311 140.832 50.2329 140.778 50.5004 140.669C50.768 140.558 50.9798 140.404 51.1361 140.207C51.2923 140.009 51.3705 139.777 51.3705 139.511C51.3705 139.27 51.303 139.073 51.1681 138.922C51.0331 138.77 50.8556 138.647 50.6354 138.553C50.4152 138.458 50.1773 138.375 49.9216 138.304L49.0267 138.048C48.4585 137.885 48.0087 137.652 47.6773 137.349C47.3459 137.046 47.1801 136.649 47.1801 136.159C47.1801 135.752 47.2902 135.397 47.5104 135.094C47.7329 134.788 48.0312 134.552 48.4053 134.384C48.7817 134.213 49.2019 134.128 49.6659 134.128C50.1347 134.128 50.5513 134.212 50.9159 134.38C51.2805 134.546 51.5693 134.773 51.7824 135.062C51.9978 135.351 52.1115 135.679 52.1233 136.045H51.271ZM55.844 141.614C55.3184 141.614 54.8651 141.498 54.4839 141.266C54.1051 141.031 53.8128 140.705 53.6068 140.286C53.4032 139.864 53.3014 139.374 53.3014 138.815C53.3014 138.257 53.4032 137.764 53.6068 137.338C53.8128 136.91 54.0992 136.576 54.4662 136.337C54.8355 136.095 55.2664 135.974 55.7588 135.974C56.0429 135.974 56.3234 136.022 56.6004 136.116C56.8774 136.211 57.1295 136.365 57.3568 136.578C57.5841 136.789 57.7652 137.068 57.9001 137.416C58.0351 137.764 58.1025 138.193 58.1025 138.702V139.057H53.898V138.332H57.2503C57.2503 138.025 57.1887 137.75 57.0656 137.509C56.9449 137.267 56.772 137.076 56.5471 136.937C56.3246 136.797 56.0618 136.727 55.7588 136.727C55.425 136.727 55.1362 136.81 54.8923 136.976C54.6508 137.139 54.465 137.352 54.3348 137.615C54.2046 137.878 54.1395 138.16 54.1395 138.46V138.943C54.1395 139.355 54.2105 139.704 54.3525 139.991C54.497 140.275 54.697 140.491 54.9527 140.641C55.2084 140.787 55.5055 140.861 55.844 140.861C56.0642 140.861 56.2631 140.83 56.4406 140.768C56.6205 140.705 56.7756 140.61 56.9058 140.484C57.036 140.357 57.1366 140.198 57.2077 140.009L58.0173 140.236C57.9321 140.51 57.7889 140.752 57.5876 140.96C57.3864 141.166 57.1378 141.327 56.8419 141.443C56.546 141.557 56.2133 141.614 55.844 141.614ZM61.5933 141.614C61.0819 141.614 60.6416 141.493 60.2723 141.251C59.903 141.01 59.6189 140.677 59.42 140.254C59.2211 139.83 59.1217 139.346 59.1217 138.801C59.1217 138.247 59.2235 137.758 59.4271 137.335C59.6331 136.908 59.9195 136.576 60.2865 136.337C60.6558 136.095 61.0867 135.974 61.5791 135.974C61.9626 135.974 62.3083 136.045 62.616 136.188C62.9238 136.33 63.1759 136.528 63.3724 136.784C63.5689 137.04 63.6908 137.338 63.7382 137.679H62.9001C62.8362 137.43 62.6942 137.21 62.474 137.018C62.2562 136.824 61.9626 136.727 61.5933 136.727C61.2666 136.727 60.9801 136.812 60.7339 136.983C60.4901 137.151 60.2995 137.389 60.1622 137.697C60.0273 138.002 59.9598 138.361 59.9598 138.773C59.9598 139.194 60.0261 139.561 60.1586 139.874C60.2936 140.186 60.483 140.429 60.7268 140.602C60.973 140.774 61.2619 140.861 61.5933 140.861C61.8111 140.861 62.0088 140.823 62.1863 140.747C62.3639 140.671 62.5142 140.562 62.6373 140.42C62.7604 140.278 62.848 140.108 62.9001 139.909H63.7382C63.6908 140.231 63.5737 140.521 63.3866 140.779C63.202 141.035 62.9569 141.238 62.6515 141.39C62.3485 141.539 61.9958 141.614 61.5933 141.614ZM68.4008 139.27V136.045H69.2389V141.5H68.4008V140.577H68.344C68.2162 140.854 68.0173 141.089 67.7474 141.283C67.4775 141.475 67.1366 141.571 66.7247 141.571C66.3838 141.571 66.0808 141.496 65.8156 141.347C65.5505 141.196 65.3421 140.969 65.1906 140.665C65.0391 140.36 64.9633 139.975 64.9633 139.511V136.045H65.8014V139.455C65.8014 139.852 65.9127 140.17 66.1352 140.406C66.3601 140.643 66.6466 140.761 66.9946 140.761C67.2029 140.761 67.4148 140.708 67.6302 140.602C67.848 140.495 68.0303 140.332 68.1771 140.112C68.3263 139.891 68.4008 139.611 68.4008 139.27ZM70.7739 141.5V136.045H71.5835V136.869H71.6404C71.7398 136.599 71.9197 136.38 72.1801 136.212C72.4405 136.044 72.7341 135.96 73.0608 135.96C73.1224 135.96 73.1993 135.961 73.2916 135.964C73.384 135.966 73.4538 135.97 73.5012 135.974V136.827C73.4727 136.82 73.4076 136.809 73.3058 136.795C73.2064 136.778 73.1011 136.77 72.9898 136.77C72.7246 136.77 72.4879 136.826 72.2796 136.937C72.0736 137.046 71.9102 137.197 71.7895 137.391C71.6711 137.583 71.6119 137.802 71.6119 138.048V141.5H70.7739ZM76.6155 141.614C76.0899 141.614 75.6366 141.498 75.2554 141.266C74.8766 141.031 74.5843 140.705 74.3783 140.286C74.1747 139.864 74.0729 139.374 74.0729 138.815C74.0729 138.257 74.1747 137.764 74.3783 137.338C74.5843 136.91 74.8707 136.576 75.2377 136.337C75.607 136.095 76.0378 135.974 76.5303 135.974C76.8144 135.974 77.0949 136.022 77.3719 136.116C77.6489 136.211 77.901 136.365 78.1283 136.578C78.3556 136.789 78.5367 137.068 78.6716 137.416C78.8066 137.764 78.874 138.193 78.874 138.702V139.057H74.6695V138.332H78.0218C78.0218 138.025 77.9602 137.75 77.8371 137.509C77.7164 137.267 77.5435 137.076 77.3186 136.937C77.0961 136.797 76.8333 136.727 76.5303 136.727C76.1965 136.727 75.9076 136.81 75.6638 136.976C75.4223 137.139 75.2365 137.352 75.1063 137.615C74.9761 137.878 74.911 138.16 74.911 138.46V138.943C74.911 139.355 74.982 139.704 75.124 139.991C75.2684 140.275 75.4685 140.491 75.7242 140.641C75.9798 140.787 76.277 140.861 76.6155 140.861C76.8357 140.861 77.0345 140.83 77.2121 140.768C77.392 140.705 77.5471 140.61 77.6773 140.484C77.8075 140.357 77.9081 140.198 77.9791 140.009L78.7888 140.236C78.7036 140.51 78.5603 140.752 78.3591 140.96C78.1579 141.166 77.9093 141.327 77.6134 141.443C77.3174 141.557 76.9848 141.614 76.6155 141.614ZM82.2085 141.614C81.754 141.614 81.3527 141.499 81.0047 141.269C80.6567 141.037 80.3844 140.71 80.1879 140.289C79.9914 139.865 79.8932 139.365 79.8932 138.787C79.8932 138.214 79.9914 137.717 80.1879 137.295C80.3844 136.874 80.6579 136.549 81.0083 136.319C81.3586 136.089 81.7635 135.974 82.2227 135.974C82.5779 135.974 82.8584 136.034 83.0644 136.152C83.2727 136.268 83.4313 136.401 83.5402 136.55C83.6515 136.696 83.7379 136.817 83.7994 136.912H83.8705V134.227H84.7085V141.5H83.8989V140.662H83.7994C83.7379 140.761 83.6503 140.887 83.5367 141.038C83.423 141.187 83.2609 141.321 83.0502 141.44C82.8395 141.556 82.5589 141.614 82.2085 141.614ZM82.3222 140.861C82.6584 140.861 82.9424 140.773 83.1744 140.598C83.4065 140.42 83.5828 140.175 83.7036 139.863C83.8243 139.548 83.8847 139.185 83.8847 138.773C83.8847 138.366 83.8255 138.009 83.7071 137.704C83.5887 137.396 83.4136 137.157 83.1816 136.987C82.9495 136.814 82.6631 136.727 82.3222 136.727C81.9671 136.727 81.6711 136.818 81.4344 137.001C81.2 137.181 81.0236 137.426 80.9053 137.736C80.7893 138.044 80.7313 138.389 80.7313 138.773C80.7313 139.161 80.7905 139.514 80.9088 139.831C81.0296 140.146 81.2071 140.397 81.4415 140.584C81.6782 140.768 81.9718 140.861 82.3222 140.861ZM89.286 141.5V134.227H90.124V136.912H90.195C90.2566 136.817 90.3418 136.696 90.4507 136.55C90.562 136.401 90.7206 136.268 90.9266 136.152C91.1349 136.034 91.4166 135.974 91.7718 135.974C92.231 135.974 92.6359 136.089 92.9862 136.319C93.3366 136.549 93.6101 136.874 93.8066 137.295C94.003 137.717 94.1013 138.214 94.1013 138.787C94.1013 139.365 94.003 139.865 93.8066 140.289C93.6101 140.71 93.3378 141.037 92.9898 141.269C92.6418 141.499 92.2405 141.614 91.786 141.614C91.4356 141.614 91.155 141.556 90.9443 141.44C90.7336 141.321 90.5715 141.187 90.4578 141.038C90.3442 140.887 90.2566 140.761 90.195 140.662H90.0956V141.5H89.286ZM90.1098 138.773C90.1098 139.185 90.1702 139.548 90.2909 139.863C90.4117 140.175 90.588 140.42 90.82 140.598C91.0521 140.773 91.3361 140.861 91.6723 140.861C92.0227 140.861 92.3151 140.768 92.5494 140.584C92.7862 140.397 92.9637 140.146 93.0821 139.831C93.2029 139.514 93.2632 139.161 93.2632 138.773C93.2632 138.389 93.204 138.044 93.0857 137.736C92.9697 137.426 92.7933 137.181 92.5566 137.001C92.3222 136.818 92.0274 136.727 91.6723 136.727C91.3314 136.727 91.045 136.814 90.8129 136.987C90.5809 137.157 90.4057 137.396 90.2874 137.704C90.169 138.009 90.1098 138.366 90.1098 138.773ZM95.7277 143.545C95.5857 143.545 95.459 143.534 95.3477 143.51C95.2365 143.489 95.1595 143.467 95.1169 143.446L95.33 142.707C95.5336 142.759 95.7135 142.778 95.8698 142.764C96.026 142.75 96.1645 142.68 96.2852 142.555C96.4084 142.432 96.5208 142.232 96.6226 141.955L96.7789 141.528L94.7618 136.045H95.6709L97.1766 140.392H97.2334L98.7391 136.045H99.6482L97.3328 142.295C97.2287 142.577 97.0996 142.81 96.9458 142.995C96.7919 143.182 96.6131 143.321 96.4095 143.411C96.2083 143.5 95.981 143.545 95.7277 143.545Z" fill="#797979"/>
<path d="M105.124 141.5V134.5H109.524V135.7H106.444V137.39H109.284V138.59H106.444V141.5H105.124ZM110.506 141.5V136.54H111.766V141.5H110.506ZM111.136 135.96C110.909 135.96 110.716 135.887 110.556 135.74C110.402 135.593 110.326 135.4 110.326 135.16C110.326 134.92 110.402 134.727 110.556 134.58C110.716 134.433 110.909 134.36 111.136 134.36C111.369 134.36 111.562 134.433 111.716 134.58C111.869 134.727 111.946 134.92 111.946 135.16C111.946 135.4 111.869 135.593 111.716 135.74C111.562 135.887 111.369 135.96 111.136 135.96ZM113.162 141.5V136.54H114.402V137.19H114.582C114.662 137.017 114.812 136.853 115.032 136.7C115.252 136.54 115.585 136.46 116.032 136.46C116.419 136.46 116.755 136.55 117.042 136.73C117.335 136.903 117.562 137.147 117.722 137.46C117.882 137.767 117.962 138.127 117.962 138.54V141.5H116.702V138.64C116.702 138.267 116.609 137.987 116.422 137.8C116.242 137.613 115.982 137.52 115.642 137.52C115.255 137.52 114.955 137.65 114.742 137.91C114.529 138.163 114.422 138.52 114.422 138.98V141.5H113.162ZM121.087 141.5C120.761 141.5 120.494 141.4 120.287 141.2C120.087 140.993 119.987 140.72 119.987 140.38V137.58H118.747V136.54H119.987V135H121.247V136.54H122.607V137.58H121.247V140.16C121.247 140.36 121.341 140.46 121.527 140.46H122.487V141.5H121.087ZM125.832 141.64C125.339 141.64 124.902 141.537 124.522 141.33C124.149 141.117 123.855 140.82 123.642 140.44C123.435 140.053 123.332 139.6 123.332 139.08V138.96C123.332 138.44 123.435 137.99 123.642 137.61C123.849 137.223 124.139 136.927 124.512 136.72C124.885 136.507 125.319 136.4 125.812 136.4C126.299 136.4 126.722 136.51 127.082 136.73C127.442 136.943 127.722 137.243 127.922 137.63C128.122 138.01 128.222 138.453 128.222 138.96V139.39H124.612C124.625 139.73 124.752 140.007 124.992 140.22C125.232 140.433 125.525 140.54 125.872 140.54C126.225 140.54 126.485 140.463 126.652 140.31C126.819 140.157 126.945 139.987 127.032 139.8L128.062 140.34C127.969 140.513 127.832 140.703 127.652 140.91C127.479 141.11 127.245 141.283 126.952 141.43C126.659 141.57 126.285 141.64 125.832 141.64ZM124.622 138.45H126.942C126.915 138.163 126.799 137.933 126.592 137.76C126.392 137.587 126.129 137.5 125.802 137.5C125.462 137.5 125.192 137.587 124.992 137.76C124.792 137.933 124.669 138.163 124.622 138.45ZM129.344 141.5V136.54H130.584V137.1H130.764C130.837 136.9 130.957 136.753 131.124 136.66C131.297 136.567 131.497 136.52 131.724 136.52H132.324V137.64H131.704C131.384 137.64 131.12 137.727 130.914 137.9C130.707 138.067 130.604 138.327 130.604 138.68V141.5H129.344ZM133.308 141.5V136.54H134.548V137.19H134.728C134.808 137.017 134.958 136.853 135.178 136.7C135.398 136.54 135.732 136.46 136.178 136.46C136.565 136.46 136.902 136.55 137.188 136.73C137.482 136.903 137.708 137.147 137.868 137.46C138.028 137.767 138.108 138.127 138.108 138.54V141.5H136.848V138.64C136.848 138.267 136.755 137.987 136.568 137.8C136.388 137.613 136.128 137.52 135.788 137.52C135.402 137.52 135.102 137.65 134.888 137.91C134.675 138.163 134.568 138.52 134.568 138.98V141.5H133.308ZM141.731 141.64C141.237 141.64 140.801 141.537 140.421 141.33C140.047 141.117 139.754 140.82 139.541 140.44C139.334 140.053 139.231 139.6 139.231 139.08V138.96C139.231 138.44 139.334 137.99 139.541 137.61C139.747 137.223 140.037 136.927 140.411 136.72C140.784 136.507 141.217 136.4 141.711 136.4C142.197 136.4 142.621 136.51 142.981 136.73C143.341 136.943 143.621 137.243 143.821 137.63C144.021 138.01 144.121 138.453 144.121 138.96V139.39H140.511C140.524 139.73 140.651 140.007 140.891 140.22C141.131 140.433 141.424 140.54 141.771 140.54C142.124 140.54 142.384 140.463 142.551 140.31C142.717 140.157 142.844 139.987 142.931 139.8L143.961 140.34C143.867 140.513 143.731 140.703 143.551 140.91C143.377 141.11 143.144 141.283 142.851 141.43C142.557 141.57 142.184 141.64 141.731 141.64ZM140.521 138.45H142.841C142.814 138.163 142.697 137.933 142.491 137.76C142.291 137.587 142.027 137.5 141.701 137.5C141.361 137.5 141.091 137.587 140.891 137.76C140.691 137.933 140.567 138.163 140.521 138.45ZM146.976 141.5C146.649 141.5 146.383 141.4 146.176 141.2C145.976 140.993 145.876 140.72 145.876 140.38V137.58H144.636V136.54H145.876V135H147.136V136.54H148.496V137.58H147.136V140.16C147.136 140.36 147.229 140.46 147.416 140.46H148.376V141.5H146.976Z" fill="#797979"/>
</g>
</g>
<defs>
<filter id="filter0_d_704_1346" x="0" y="0" width="366" height="176" filterUnits="userSpaceOnUse" color-interpolation-filters="sRGB">
<feFlood flood-opacity="0" result="BackgroundImageFix"/>
<feColorMatrix in="SourceAlpha" type="matrix" values="0 0 0 0 0 0 0 0 0 0 0 0 0 0 0 0 0 0 127 0" result="hardAlpha"/>
<feOffset/>
<feGaussianBlur stdDeviation="4"/>
<feComposite in2="hardAlpha" operator="out"/>
<feColorMatrix type="matrix" values="0 0 0 0 0.5 0 0 0 0 0.5 0 0 0 0 0.5 0 0 0 0.15 0"/>
<feBlend mode="normal" in2="BackgroundImageFix" result="effect1_dropShadow_704_1346"/>
<feBlend mode="normal" in="SourceGraphic" in2="effect1_dropShadow_704_1346" result="shape"/>
</filter>
<clipPath id="clip0_704_1346">
<rect x="8" y="8" width="350" height="160" rx="24" fill="white"/>
</clipPath>
<clipPath id="clip1_704_1346">
<rect width="16" height="16" fill="white" transform="translate(318 66)"/>
</clipPath>
<clipPath id="clip2_704_1346">
<rect width="10.2" height="12" fill="white" transform="translate(32 132)"/>
</clipPath>
</defs>
</svg>
