<svg width="366" height="317" viewBox="0 0 366 317" fill="none" xmlns="http://www.w3.org/2000/svg">
<g filter="url(#filter0_dd_1294_4304)">
<path d="M8 28C8 16.9543 16.9543 8 28 8H338C349.046 8 358 16.9543 358 28V287C358 298.046 349.046 307 338 307H28C16.9543 307 8 298.046 8 287V28Z" fill="white" shape-rendering="crispEdges"/>
<path d="M32.99 43V32.5H39.74V34.3H34.97V36.805H39.32V38.605H34.97V41.2H39.83V43H32.99ZM41.2957 43V32.5H44.9707L46.7857 41.65H47.0557L48.8707 32.5H52.5457V43H50.6257V33.955H50.3557L48.5557 43H45.2857L43.4857 33.955H43.2157V43H41.2957ZM54.5232 43V32.5H56.5032V43H54.5232ZM66.2769 43.21C64.9769 43.21 63.9469 42.85 63.1869 42.13C62.4269 41.4 62.0469 40.36 62.0469 39.01V36.49C62.0469 35.14 62.4269 34.105 63.1869 33.385C63.9469 32.655 64.9769 32.29 66.2769 32.29C67.5669 32.29 68.5619 32.645 69.2619 33.355C69.9719 34.055 70.3269 35.02 70.3269 36.25V36.34H68.3769V36.19C68.3769 35.57 68.2019 35.06 67.8519 34.66C67.5119 34.26 66.9869 34.06 66.2769 34.06C65.5769 34.06 65.0269 34.275 64.6269 34.705C64.2269 35.135 64.0269 35.72 64.0269 36.46V39.04C64.0269 39.77 64.2269 40.355 64.6269 40.795C65.0269 41.225 65.5769 41.44 66.2769 41.44C66.9869 41.44 67.5119 41.24 67.8519 40.84C68.2019 40.43 68.3769 39.92 68.3769 39.31V39.04H70.3269V39.25C70.3269 40.48 69.9719 41.45 69.2619 42.16C68.5619 42.86 67.5669 43.21 66.2769 43.21ZM74.3102 43.21C73.7802 43.21 73.3052 43.12 72.8852 42.94C72.4652 42.75 72.1302 42.48 71.8802 42.13C71.6402 41.77 71.5202 41.335 71.5202 40.825C71.5202 40.315 71.6402 39.89 71.8802 39.55C72.1302 39.2 72.4702 38.94 72.9002 38.77C73.3402 38.59 73.8402 38.5 74.4002 38.5H76.4402V38.08C76.4402 37.73 76.3302 37.445 76.1102 37.225C75.8902 36.995 75.5402 36.88 75.0602 36.88C74.5902 36.88 74.2402 36.99 74.0102 37.21C73.7802 37.42 73.6302 37.695 73.5602 38.035L71.8202 37.45C71.9402 37.07 72.1302 36.725 72.3902 36.415C72.6602 36.095 73.0152 35.84 73.4552 35.65C73.9052 35.45 74.4502 35.35 75.0902 35.35C76.0702 35.35 76.8452 35.595 77.4152 36.085C77.9852 36.575 78.2702 37.285 78.2702 38.215V40.99C78.2702 41.29 78.4102 41.44 78.6902 41.44H79.2902V43H78.0302C77.6602 43 77.3552 42.91 77.1152 42.73C76.8752 42.55 76.7552 42.31 76.7552 42.01V41.995H76.4702C76.4302 42.115 76.3402 42.275 76.2002 42.475C76.0602 42.665 75.8402 42.835 75.5402 42.985C75.2402 43.135 74.8302 43.21 74.3102 43.21ZM74.6402 41.68C75.1702 41.68 75.6002 41.535 75.9302 41.245C76.2702 40.945 76.4402 40.55 76.4402 40.06V39.91H74.5352C74.1852 39.91 73.9102 39.985 73.7102 40.135C73.5102 40.285 73.4102 40.495 73.4102 40.765C73.4102 41.035 73.5152 41.255 73.7252 41.425C73.9352 41.595 74.2402 41.68 74.6402 41.68ZM80.6721 43V32.5H82.5621V43H80.6721ZM88.1514 43.21C87.4314 43.21 86.7764 43.06 86.1864 42.76C85.6064 42.46 85.1464 42.025 84.8064 41.455C84.4664 40.885 84.2964 40.195 84.2964 39.385V39.175C84.2964 38.365 84.4664 37.675 84.8064 37.105C85.1464 36.535 85.6064 36.1 86.1864 35.8C86.7764 35.5 87.4314 35.35 88.1514 35.35C88.8614 35.35 89.4714 35.475 89.9814 35.725C90.4914 35.975 90.9014 36.32 91.2114 36.76C91.5314 37.19 91.7414 37.68 91.8414 38.23L90.0114 38.62C89.9714 38.32 89.8814 38.05 89.7414 37.81C89.6014 37.57 89.4014 37.38 89.1414 37.24C88.8914 37.1 88.5764 37.03 88.1964 37.03C87.8164 37.03 87.4714 37.115 87.1614 37.285C86.8614 37.445 86.6214 37.69 86.4414 38.02C86.2714 38.34 86.1864 38.735 86.1864 39.205V39.355C86.1864 39.825 86.2714 40.225 86.4414 40.555C86.6214 40.875 86.8614 41.12 87.1614 41.29C87.4714 41.45 87.8164 41.53 88.1964 41.53C88.7664 41.53 89.1964 41.385 89.4864 41.095C89.7864 40.795 89.9764 40.405 90.0564 39.925L91.8864 40.36C91.7564 40.89 91.5314 41.375 91.2114 41.815C90.9014 42.245 90.4914 42.585 89.9814 42.835C89.4714 43.085 88.8614 43.21 88.1514 43.21ZM96.2805 43.12C95.7005 43.12 95.1905 42.99 94.7505 42.73C94.3205 42.46 93.9855 42.09 93.7455 41.62C93.5055 41.15 93.3855 40.61 93.3855 40V35.56H95.2755V39.85C95.2755 40.41 95.4105 40.83 95.6805 41.11C95.9605 41.39 96.3555 41.53 96.8655 41.53C97.4455 41.53 97.8955 41.34 98.2155 40.96C98.5355 40.57 98.6955 40.03 98.6955 39.34V35.56H100.586V43H98.7255V42.025H98.4555C98.3355 42.275 98.1105 42.52 97.7805 42.76C97.4505 43 96.9505 43.12 96.2805 43.12ZM102.689 43V32.5H104.579V43H102.689ZM108.983 43.21C108.453 43.21 107.978 43.12 107.558 42.94C107.138 42.75 106.803 42.48 106.553 42.13C106.313 41.77 106.193 41.335 106.193 40.825C106.193 40.315 106.313 39.89 106.553 39.55C106.803 39.2 107.143 38.94 107.573 38.77C108.013 38.59 108.513 38.5 109.073 38.5H111.113V38.08C111.113 37.73 111.003 37.445 110.783 37.225C110.563 36.995 110.213 36.88 109.733 36.88C109.263 36.88 108.913 36.99 108.683 37.21C108.453 37.42 108.303 37.695 108.233 38.035L106.493 37.45C106.613 37.07 106.803 36.725 107.063 36.415C107.333 36.095 107.688 35.84 108.128 35.65C108.578 35.45 109.123 35.35 109.763 35.35C110.743 35.35 111.518 35.595 112.088 36.085C112.658 36.575 112.943 37.285 112.943 38.215V40.99C112.943 41.29 113.083 41.44 113.363 41.44H113.963V43H112.703C112.333 43 112.028 42.91 111.788 42.73C111.548 42.55 111.428 42.31 111.428 42.01V41.995H111.143C111.103 42.115 111.013 42.275 110.873 42.475C110.733 42.665 110.513 42.835 110.213 42.985C109.913 43.135 109.503 43.21 108.983 43.21ZM109.313 41.68C109.843 41.68 110.273 41.535 110.603 41.245C110.943 40.945 111.113 40.55 111.113 40.06V39.91H109.208C108.858 39.91 108.583 39.985 108.383 40.135C108.183 40.285 108.083 40.495 108.083 40.765C108.083 41.035 108.188 41.255 108.398 41.425C108.608 41.595 108.913 41.68 109.313 41.68ZM117.653 43C117.163 43 116.763 42.85 116.453 42.55C116.153 42.24 116.003 41.83 116.003 41.32V37.12H114.143V35.56H116.003V33.25H117.893V35.56H119.933V37.12H117.893V40.99C117.893 41.29 118.033 41.44 118.313 41.44H119.753V43H117.653ZM124.92 43.21C124.18 43.21 123.515 43.06 122.925 42.76C122.335 42.46 121.87 42.025 121.53 41.455C121.19 40.885 121.02 40.2 121.02 39.4V39.16C121.02 38.36 121.19 37.675 121.53 37.105C121.87 36.535 122.335 36.1 122.925 35.8C123.515 35.5 124.18 35.35 124.92 35.35C125.66 35.35 126.325 35.5 126.915 35.8C127.505 36.1 127.97 36.535 128.31 37.105C128.65 37.675 128.82 38.36 128.82 39.16V39.4C128.82 40.2 128.65 40.885 128.31 41.455C127.97 42.025 127.505 42.46 126.915 42.76C126.325 43.06 125.66 43.21 124.92 43.21ZM124.92 41.53C125.5 41.53 125.98 41.345 126.36 40.975C126.74 40.595 126.93 40.055 126.93 39.355V39.205C126.93 38.505 126.74 37.97 126.36 37.6C125.99 37.22 125.51 37.03 124.92 37.03C124.34 37.03 123.86 37.22 123.48 37.6C123.1 37.97 122.91 38.505 122.91 39.205V39.355C122.91 40.055 123.1 40.595 123.48 40.975C123.86 41.345 124.34 41.53 124.92 41.53ZM130.565 43V35.56H132.425V36.4H132.695C132.805 36.1 132.985 35.88 133.235 35.74C133.495 35.6 133.795 35.53 134.135 35.53H135.035V37.21H134.105C133.625 37.21 133.23 37.34 132.92 37.6C132.61 37.85 132.455 38.24 132.455 38.77V43H130.565Z" fill="#111111"/>
<path d="M32.876 75V66.6H36.404C36.924 66.6 37.38 66.692 37.772 66.876C38.172 67.052 38.48 67.308 38.696 67.644C38.92 67.98 39.032 68.38 39.032 68.844V68.976C39.032 69.504 38.904 69.928 38.648 70.248C38.4 70.56 38.096 70.78 37.736 70.908V71.1C38.04 71.116 38.284 71.22 38.468 71.412C38.652 71.596 38.744 71.864 38.744 72.216V75H37.436V72.396C37.436 72.18 37.38 72.008 37.268 71.88C37.156 71.752 36.976 71.688 36.728 71.688H34.172V75H32.876ZM34.172 70.512H36.26C36.724 70.512 37.084 70.396 37.34 70.164C37.596 69.924 37.724 69.6 37.724 69.192V69.096C37.724 68.688 37.596 68.368 37.34 68.136C37.092 67.896 36.732 67.776 36.26 67.776H34.172V70.512ZM43.206 75.168C42.606 75.168 42.082 75.044 41.634 74.796C41.186 74.54 40.834 74.184 40.578 73.728C40.33 73.264 40.206 72.728 40.206 72.12V71.976C40.206 71.36 40.33 70.824 40.578 70.368C40.826 69.904 41.17 69.548 41.61 69.3C42.058 69.044 42.574 68.916 43.158 68.916C43.726 68.916 44.222 69.044 44.646 69.3C45.078 69.548 45.414 69.896 45.654 70.344C45.894 70.792 46.014 71.316 46.014 71.916V72.384H41.466C41.482 72.904 41.654 73.32 41.982 73.632C42.318 73.936 42.734 74.088 43.23 74.088C43.694 74.088 44.042 73.984 44.274 73.776C44.514 73.568 44.698 73.328 44.826 73.056L45.846 73.584C45.734 73.808 45.57 74.044 45.354 74.292C45.146 74.54 44.87 74.748 44.526 74.916C44.182 75.084 43.742 75.168 43.206 75.168ZM41.478 71.436H44.754C44.722 70.988 44.562 70.64 44.274 70.392C43.986 70.136 43.61 70.008 43.146 70.008C42.682 70.008 42.302 70.136 42.006 70.392C41.718 70.64 41.542 70.988 41.478 71.436ZM52.1338 77.4V74.196H51.9418C51.8538 74.356 51.7258 74.512 51.5578 74.664C51.3898 74.808 51.1738 74.928 50.9098 75.024C50.6538 75.12 50.3338 75.168 49.9498 75.168C49.4538 75.168 48.9978 75.048 48.5818 74.808C48.1658 74.568 47.8338 74.224 47.5858 73.776C47.3378 73.32 47.2138 72.772 47.2138 72.132V71.952C47.2138 71.312 47.3378 70.768 47.5858 70.32C47.8418 69.864 48.1778 69.516 48.5938 69.276C49.0098 69.036 49.4618 68.916 49.9498 68.916C50.5258 68.916 50.9658 69.02 51.2698 69.228C51.5818 69.436 51.8138 69.672 51.9658 69.936H52.1578V69.084H53.3698V77.4H52.1338ZM50.2978 74.088C50.8418 74.088 51.2858 73.916 51.6298 73.572C51.9738 73.228 52.1458 72.736 52.1458 72.096V71.988C52.1458 71.356 51.9698 70.868 51.6178 70.524C51.2738 70.18 50.8338 70.008 50.2978 70.008C49.7698 70.008 49.3298 70.18 48.9778 70.524C48.6338 70.868 48.4618 71.356 48.4618 71.988V72.096C48.4618 72.736 48.6338 73.228 48.9778 73.572C49.3298 73.916 49.7698 74.088 50.2978 74.088ZM57.4573 75.108C57.0093 75.108 56.6093 75.008 56.2573 74.808C55.9053 74.608 55.6293 74.324 55.4293 73.956C55.2293 73.588 55.1293 73.148 55.1293 72.636V69.084H56.3653V72.552C56.3653 73.064 56.4933 73.444 56.7493 73.692C57.0053 73.932 57.3613 74.052 57.8173 74.052C58.3213 74.052 58.7253 73.884 59.0293 73.548C59.3413 73.204 59.4973 72.712 59.4973 72.072V69.084H60.7333V75H59.5213V74.112H59.3293C59.2173 74.352 59.0173 74.58 58.7293 74.796C58.4413 75.004 58.0173 75.108 57.4573 75.108ZM62.5604 75V69.084H63.7964V75H62.5604ZM63.1844 68.28C62.9444 68.28 62.7404 68.204 62.5724 68.052C62.4124 67.892 62.3324 67.688 62.3324 67.44C62.3324 67.192 62.4124 66.992 62.5724 66.84C62.7404 66.68 62.9444 66.6 63.1844 66.6C63.4324 66.6 63.6364 66.68 63.7964 66.84C63.9564 66.992 64.0364 67.192 64.0364 67.44C64.0364 67.688 63.9564 67.892 63.7964 68.052C63.6364 68.204 63.4324 68.28 63.1844 68.28ZM65.6308 75V69.084H66.8428V69.78H67.0348C67.1308 69.532 67.2828 69.352 67.4908 69.24C67.7068 69.12 67.9708 69.06 68.2828 69.06H68.9908V70.176H68.2348C67.8348 70.176 67.5068 70.288 67.2508 70.512C66.9948 70.728 66.8668 71.064 66.8668 71.52V75H65.6308ZM72.7724 75.168C72.1724 75.168 71.6484 75.044 71.2004 74.796C70.7524 74.54 70.4004 74.184 70.1444 73.728C69.8964 73.264 69.7724 72.728 69.7724 72.12V71.976C69.7724 71.36 69.8964 70.824 70.1444 70.368C70.3924 69.904 70.7364 69.548 71.1764 69.3C71.6244 69.044 72.1404 68.916 72.7244 68.916C73.2924 68.916 73.7884 69.044 74.2124 69.3C74.6444 69.548 74.9804 69.896 75.2204 70.344C75.4604 70.792 75.5804 71.316 75.5804 71.916V72.384H71.0324C71.0484 72.904 71.2204 73.32 71.5484 73.632C71.8844 73.936 72.3004 74.088 72.7964 74.088C73.2604 74.088 73.6084 73.984 73.8404 73.776C74.0804 73.568 74.2644 73.328 74.3924 73.056L75.4124 73.584C75.3004 73.808 75.1364 74.044 74.9204 74.292C74.7124 74.54 74.4364 74.748 74.0924 74.916C73.7484 75.084 73.3084 75.168 72.7724 75.168ZM71.0444 71.436H74.3204C74.2884 70.988 74.1284 70.64 73.8404 70.392C73.5524 70.136 73.1764 70.008 72.7124 70.008C72.2484 70.008 71.8684 70.136 71.5724 70.392C71.2844 70.64 71.1084 70.988 71.0444 71.436ZM79.5163 75.168C79.0283 75.168 78.5763 75.048 78.1603 74.808C77.7443 74.568 77.4083 74.224 77.1523 73.776C76.9043 73.32 76.7803 72.772 76.7803 72.132V71.952C76.7803 71.32 76.9043 70.776 77.1523 70.32C77.4003 69.864 77.7323 69.516 78.1483 69.276C78.5643 69.036 79.0203 68.916 79.5163 68.916C79.9003 68.916 80.2203 68.964 80.4763 69.06C80.7403 69.156 80.9563 69.28 81.1243 69.432C81.2923 69.576 81.4203 69.728 81.5083 69.888H81.7003V66.6H82.9362V75H81.7243V74.16H81.5323C81.3803 74.416 81.1483 74.648 80.8363 74.856C80.5323 75.064 80.0923 75.168 79.5163 75.168ZM79.8643 74.088C80.4003 74.088 80.8403 73.916 81.1843 73.572C81.5363 73.228 81.7123 72.736 81.7123 72.096V71.988C81.7123 71.356 81.5403 70.868 81.1963 70.524C80.8523 70.18 80.4083 70.008 79.8643 70.008C79.3363 70.008 78.8963 70.18 78.5443 70.524C78.2003 70.868 78.0283 71.356 78.0283 71.988V72.096C78.0283 72.736 78.2003 73.228 78.5443 73.572C78.8963 73.916 79.3363 74.088 79.8643 74.088ZM87.7783 75V66.6H89.0743V73.824H93.1183V75H87.7783ZM97.0903 75.168C96.4983 75.168 95.9703 75.048 95.5063 74.808C95.0503 74.56 94.6903 74.208 94.4263 73.752C94.1623 73.296 94.0303 72.756 94.0303 72.132V71.952C94.0303 71.328 94.1623 70.792 94.4263 70.344C94.6903 69.888 95.0503 69.536 95.5063 69.288C95.9703 69.04 96.4983 68.916 97.0903 68.916C97.6823 68.916 98.2103 69.04 98.6743 69.288C99.1383 69.536 99.5023 69.888 99.7663 70.344C100.03 70.792 100.162 71.328 100.162 71.952V72.132C100.162 72.756 100.03 73.296 99.7663 73.752C99.5023 74.208 99.1383 74.56 98.6743 74.808C98.2103 75.048 97.6823 75.168 97.0903 75.168ZM97.0903 74.064C97.6343 74.064 98.0743 73.892 98.4103 73.548C98.7543 73.196 98.9263 72.712 98.9263 72.096V71.988C98.9263 71.372 98.7583 70.892 98.4223 70.548C98.0863 70.196 97.6423 70.02 97.0903 70.02C96.5543 70.02 96.1143 70.196 95.7703 70.548C95.4343 70.892 95.2663 71.372 95.2663 71.988V72.096C95.2663 72.712 95.4343 73.196 95.7703 73.548C96.1143 73.892 96.5543 74.064 97.0903 74.064ZM103.537 75.168C103.113 75.168 102.733 75.096 102.397 74.952C102.069 74.808 101.805 74.596 101.605 74.316C101.413 74.036 101.317 73.696 101.317 73.296C101.317 72.888 101.413 72.552 101.605 72.288C101.805 72.016 102.073 71.812 102.409 71.676C102.753 71.54 103.141 71.472 103.573 71.472H105.373V71.088C105.373 70.744 105.269 70.468 105.061 70.26C104.853 70.052 104.533 69.948 104.101 69.948C103.677 69.948 103.353 70.048 103.129 70.248C102.905 70.448 102.757 70.708 102.685 71.028L101.533 70.656C101.629 70.336 101.781 70.048 101.989 69.792C102.205 69.528 102.489 69.316 102.841 69.156C103.193 68.996 103.617 68.916 104.113 68.916C104.881 68.916 105.485 69.112 105.925 69.504C106.365 69.896 106.585 70.452 106.585 71.172V73.608C106.585 73.848 106.697 73.968 106.921 73.968H107.425V75H106.501C106.221 75 105.993 74.928 105.817 74.784C105.641 74.64 105.553 74.444 105.553 74.196V74.16H105.373C105.309 74.28 105.213 74.42 105.085 74.58C104.957 74.74 104.769 74.88 104.521 75C104.273 75.112 103.945 75.168 103.537 75.168ZM103.717 74.148C104.213 74.148 104.613 74.008 104.917 73.728C105.221 73.44 105.373 73.048 105.373 72.552V72.432H103.645C103.317 72.432 103.053 72.504 102.853 72.648C102.653 72.784 102.553 72.988 102.553 73.26C102.553 73.532 102.657 73.748 102.865 73.908C103.073 74.068 103.357 74.148 103.717 74.148ZM108.627 75V69.084H109.839V69.972H110.031C110.143 69.732 110.343 69.508 110.631 69.3C110.919 69.092 111.347 68.988 111.915 68.988C112.363 68.988 112.759 69.088 113.103 69.288C113.455 69.488 113.731 69.772 113.931 70.14C114.131 70.5 114.231 70.936 114.231 71.448V75H112.995V71.544C112.995 71.032 112.867 70.656 112.611 70.416C112.355 70.168 112.003 70.044 111.555 70.044C111.043 70.044 110.631 70.212 110.319 70.548C110.015 70.884 109.863 71.372 109.863 72.012V75H108.627ZM118.256 75L120.656 66.6H122.936L125.324 75H123.992L123.44 73.02H120.152L119.6 75H118.256ZM120.476 71.82H123.116L121.892 67.404H121.7L120.476 71.82ZM126.498 75V69.084H127.71V69.78H127.902C128.014 69.572 128.194 69.388 128.442 69.228C128.69 69.068 129.026 68.988 129.45 68.988C129.89 68.988 130.242 69.08 130.506 69.264C130.778 69.44 130.982 69.668 131.118 69.948H131.31C131.446 69.676 131.642 69.448 131.898 69.264C132.162 69.08 132.534 68.988 133.014 68.988C133.398 68.988 133.738 69.068 134.034 69.228C134.33 69.38 134.566 69.612 134.742 69.924C134.918 70.228 135.006 70.608 135.006 71.064V75H133.77V71.16C133.77 70.8 133.67 70.524 133.47 70.332C133.278 70.132 133.002 70.032 132.642 70.032C132.258 70.032 131.95 70.156 131.718 70.404C131.486 70.652 131.37 71.008 131.37 71.472V75H130.134V71.16C130.134 70.8 130.034 70.524 129.834 70.332C129.642 70.132 129.366 70.032 129.006 70.032C128.622 70.032 128.314 70.156 128.082 70.404C127.85 70.652 127.734 71.008 127.734 71.472V75H126.498ZM139.559 75.168C138.967 75.168 138.439 75.048 137.975 74.808C137.519 74.56 137.159 74.208 136.895 73.752C136.631 73.296 136.499 72.756 136.499 72.132V71.952C136.499 71.328 136.631 70.792 136.895 70.344C137.159 69.888 137.519 69.536 137.975 69.288C138.439 69.04 138.967 68.916 139.559 68.916C140.151 68.916 140.679 69.04 141.143 69.288C141.607 69.536 141.971 69.888 142.235 70.344C142.499 70.792 142.631 71.328 142.631 71.952V72.132C142.631 72.756 142.499 73.296 142.235 73.752C141.971 74.208 141.607 74.56 141.143 74.808C140.679 75.048 140.151 75.168 139.559 75.168ZM139.559 74.064C140.103 74.064 140.543 73.892 140.879 73.548C141.223 73.196 141.395 72.712 141.395 72.096V71.988C141.395 71.372 141.227 70.892 140.891 70.548C140.555 70.196 140.111 70.02 139.559 70.02C139.023 70.02 138.583 70.196 138.239 70.548C137.903 70.892 137.735 71.372 137.735 71.988V72.096C137.735 72.712 137.903 73.196 138.239 73.548C138.583 73.892 139.023 74.064 139.559 74.064ZM146.438 75.108C145.99 75.108 145.59 75.008 145.238 74.808C144.886 74.608 144.61 74.324 144.41 73.956C144.21 73.588 144.11 73.148 144.11 72.636V69.084H145.346V72.552C145.346 73.064 145.474 73.444 145.73 73.692C145.986 73.932 146.342 74.052 146.798 74.052C147.302 74.052 147.706 73.884 148.01 73.548C148.322 73.204 148.478 72.712 148.478 72.072V69.084H149.714V75H148.502V74.112H148.31C148.198 74.352 147.998 74.58 147.71 74.796C147.422 75.004 146.998 75.108 146.438 75.108ZM151.541 75V69.084H152.753V69.972H152.945C153.057 69.732 153.257 69.508 153.545 69.3C153.833 69.092 154.261 68.988 154.829 68.988C155.277 68.988 155.673 69.088 156.017 69.288C156.369 69.488 156.645 69.772 156.845 70.14C157.045 70.5 157.145 70.936 157.145 71.448V75H155.909V71.544C155.909 71.032 155.781 70.656 155.525 70.416C155.269 70.168 154.917 70.044 154.469 70.044C153.957 70.044 153.545 70.212 153.233 70.548C152.929 70.884 152.777 71.372 152.777 72.012V75H151.541ZM160.98 75C160.62 75 160.332 74.892 160.116 74.676C159.908 74.46 159.804 74.172 159.804 73.812V70.128H158.172V69.084H159.804V67.128H161.04V69.084H162.804V70.128H161.04V73.596C161.04 73.836 161.152 73.956 161.376 73.956H162.612V75H160.98Z" fill="#797979"/>
<rect x="32.5" y="91.5" width="301" height="39" rx="7.5" stroke="#E6E6E6"/>
<path d="M53.11 116V113.242C53.11 112.99 53.04 112.794 52.9 112.654C52.7693 112.505 52.5593 112.43 52.27 112.43H48.854V111.058H51.528C52.144 111.058 52.6153 110.913 52.942 110.624C53.278 110.325 53.446 109.877 53.446 109.28C53.446 108.673 53.278 108.225 52.942 107.936C52.6153 107.637 52.144 107.488 51.528 107.488H48.854V106.2H56.456V107.39H53.936V107.6C54.2347 107.777 54.4727 108.011 54.65 108.3C54.8367 108.58 54.93 108.963 54.93 109.448C54.93 110.008 54.79 110.461 54.51 110.806C54.2393 111.142 53.8847 111.38 53.446 111.52V111.744C53.8007 111.753 54.0853 111.87 54.3 112.094C54.5147 112.318 54.622 112.631 54.622 113.032V116H53.11ZM48.854 109.868V108.678H56.456V109.868H48.854Z" fill="#111111"/>
<path d="M77.508 116.196C76.3693 116.196 75.4593 115.874 74.778 115.23C74.106 114.577 73.77 113.597 73.77 112.29V109.91C73.77 108.631 74.106 107.661 74.778 106.998C75.4593 106.335 76.3693 106.004 77.508 106.004C78.656 106.004 79.566 106.335 80.238 106.998C80.9193 107.661 81.26 108.631 81.26 109.91V112.29C81.26 113.597 80.9193 114.577 80.238 115.23C79.566 115.874 78.656 116.196 77.508 116.196ZM77.508 114.88C78.2827 114.88 78.8567 114.661 79.23 114.222C79.6033 113.774 79.79 113.149 79.79 112.346V109.826C79.79 109.023 79.5893 108.407 79.188 107.978C78.7867 107.539 78.2267 107.32 77.508 107.32C76.78 107.32 76.22 107.544 75.828 107.992C75.436 108.431 75.24 109.042 75.24 109.826V112.346C75.24 113.167 75.4267 113.797 75.8 114.236C76.1827 114.665 76.752 114.88 77.508 114.88Z" fill="#999999"/>
<path d="M34.88 163V155.776H32.3V154.6H38.756V155.776H36.176V163H34.88ZM41.5185 163.168C40.9185 163.168 40.3945 163.044 39.9465 162.796C39.4985 162.54 39.1465 162.184 38.8905 161.728C38.6425 161.264 38.5185 160.728 38.5185 160.12V159.976C38.5185 159.36 38.6425 158.824 38.8905 158.368C39.1385 157.904 39.4825 157.548 39.9225 157.3C40.3705 157.044 40.8865 156.916 41.4705 156.916C42.0385 156.916 42.5345 157.044 42.9585 157.3C43.3905 157.548 43.7265 157.896 43.9665 158.344C44.2065 158.792 44.3265 159.316 44.3265 159.916V160.384H39.7785C39.7945 160.904 39.9665 161.32 40.2945 161.632C40.6305 161.936 41.0465 162.088 41.5425 162.088C42.0065 162.088 42.3545 161.984 42.5865 161.776C42.8265 161.568 43.0105 161.328 43.1385 161.056L44.1585 161.584C44.0465 161.808 43.8825 162.044 43.6665 162.292C43.4585 162.54 43.1825 162.748 42.8385 162.916C42.4945 163.084 42.0545 163.168 41.5185 163.168ZM39.7905 159.436H43.0665C43.0345 158.988 42.8745 158.64 42.5865 158.392C42.2985 158.136 41.9225 158.008 41.4585 158.008C40.9945 158.008 40.6145 158.136 40.3185 158.392C40.0305 158.64 39.8545 158.988 39.7905 159.436ZM45.8143 163V157.084H47.0263V157.972H47.2183C47.3303 157.732 47.5303 157.508 47.8183 157.3C48.1063 157.092 48.5343 156.988 49.1023 156.988C49.5503 156.988 49.9463 157.088 50.2903 157.288C50.6423 157.488 50.9183 157.772 51.1183 158.14C51.3183 158.5 51.4183 158.936 51.4183 159.448V163H50.1823V159.544C50.1823 159.032 50.0543 158.656 49.7983 158.416C49.5423 158.168 49.1903 158.044 48.7423 158.044C48.2303 158.044 47.8183 158.212 47.5063 158.548C47.2023 158.884 47.0503 159.372 47.0503 160.012V163H45.8143ZM55.3714 163.108C54.9234 163.108 54.5234 163.008 54.1714 162.808C53.8194 162.608 53.5434 162.324 53.3434 161.956C53.1434 161.588 53.0434 161.148 53.0434 160.636V157.084H54.2794V160.552C54.2794 161.064 54.4074 161.444 54.6634 161.692C54.9194 161.932 55.2754 162.052 55.7314 162.052C56.2354 162.052 56.6394 161.884 56.9434 161.548C57.2554 161.204 57.4114 160.712 57.4114 160.072V157.084H58.6474V163H57.4354V162.112H57.2434C57.1314 162.352 56.9314 162.58 56.6434 162.796C56.3554 163.004 55.9314 163.108 55.3714 163.108ZM60.4745 163V157.084H61.6865V157.78H61.8785C61.9745 157.532 62.1265 157.352 62.3345 157.24C62.5505 157.12 62.8145 157.06 63.1265 157.06H63.8345V158.176H63.0785C62.6785 158.176 62.3505 158.288 62.0945 158.512C61.8385 158.728 61.7105 159.064 61.7105 159.52V163H60.4745ZM67.6162 163.168C67.0162 163.168 66.4922 163.044 66.0442 162.796C65.5962 162.54 65.2442 162.184 64.9882 161.728C64.7402 161.264 64.6162 160.728 64.6162 160.12V159.976C64.6162 159.36 64.7402 158.824 64.9882 158.368C65.2362 157.904 65.5802 157.548 66.0202 157.3C66.4682 157.044 66.9842 156.916 67.5682 156.916C68.1362 156.916 68.6322 157.044 69.0562 157.3C69.4882 157.548 69.8242 157.896 70.0642 158.344C70.3042 158.792 70.4242 159.316 70.4242 159.916V160.384H65.8762C65.8922 160.904 66.0642 161.32 66.3922 161.632C66.7282 161.936 67.1442 162.088 67.6402 162.088C68.1042 162.088 68.4522 161.984 68.6842 161.776C68.9242 161.568 69.1082 161.328 69.2362 161.056L70.2562 161.584C70.1442 161.808 69.9802 162.044 69.7642 162.292C69.5562 162.54 69.2802 162.748 68.9362 162.916C68.5922 163.084 68.1522 163.168 67.6162 163.168ZM65.8882 159.436H69.1642C69.1322 158.988 68.9722 158.64 68.6842 158.392C68.3962 158.136 68.0202 158.008 67.5562 158.008C67.0922 158.008 66.7122 158.136 66.4162 158.392C66.1282 158.64 65.9522 158.988 65.8882 159.436Z" fill="#797979"/>
<rect x="32.5" y="179.5" width="138" height="39" rx="7.5" stroke="#E6E6E6"/>
<path d="M52.508 204.196C51.3693 204.196 50.4593 203.874 49.778 203.23C49.106 202.577 48.77 201.597 48.77 200.29V197.91C48.77 196.631 49.106 195.661 49.778 194.998C50.4593 194.335 51.3693 194.004 52.508 194.004C53.656 194.004 54.566 194.335 55.238 194.998C55.9193 195.661 56.26 196.631 56.26 197.91V200.29C56.26 201.597 55.9193 202.577 55.238 203.23C54.566 203.874 53.656 204.196 52.508 204.196ZM52.508 202.88C53.2827 202.88 53.8567 202.661 54.23 202.222C54.6033 201.774 54.79 201.149 54.79 200.346V197.826C54.79 197.023 54.5893 196.407 54.188 195.978C53.7867 195.539 53.2267 195.32 52.508 195.32C51.78 195.32 51.22 195.544 50.828 195.992C50.436 196.431 50.24 197.042 50.24 197.826V200.346C50.24 201.167 50.4267 201.797 50.8 202.236C51.1827 202.665 51.752 202.88 52.508 202.88Z" fill="#999999"/>
<path d="M134.862 206.8V205.54H138.712C138.973 205.54 139.104 205.4 139.104 205.12V202.992H138.88C138.796 203.179 138.665 203.361 138.488 203.538C138.32 203.706 138.091 203.846 137.802 203.958C137.513 204.07 137.149 204.126 136.71 204.126C136.187 204.126 135.721 204.009 135.31 203.776C134.899 203.543 134.577 203.211 134.344 202.782C134.111 202.353 133.994 201.844 133.994 201.256V197.098H135.436V201.144C135.436 201.741 135.585 202.185 135.884 202.474C136.183 202.754 136.598 202.894 137.13 202.894C137.718 202.894 138.189 202.698 138.544 202.306C138.908 201.914 139.09 201.345 139.09 200.598V197.098H140.532V205.414C140.532 205.834 140.406 206.17 140.154 206.422C139.911 206.674 139.575 206.8 139.146 206.8H134.862ZM142.664 204V197.098H144.078V197.91H144.302C144.414 197.621 144.591 197.411 144.834 197.28C145.086 197.14 145.394 197.07 145.758 197.07H146.584V198.372H145.702C145.235 198.372 144.852 198.503 144.554 198.764C144.255 199.016 144.106 199.408 144.106 199.94V204H142.664ZM150.755 204.196C149.878 204.196 149.15 204 148.571 203.608C147.993 203.216 147.638 202.623 147.507 201.83L148.851 201.508C148.926 201.891 149.052 202.194 149.229 202.418C149.407 202.642 149.626 202.801 149.887 202.894C150.158 202.987 150.447 203.034 150.755 203.034C151.213 203.034 151.563 202.945 151.805 202.768C152.057 202.591 152.183 202.362 152.183 202.082C152.183 201.802 152.067 201.597 151.833 201.466C151.6 201.335 151.255 201.228 150.797 201.144L150.321 201.06C149.855 200.976 149.43 200.855 149.047 200.696C148.665 200.537 148.361 200.318 148.137 200.038C147.913 199.758 147.801 199.399 147.801 198.96C147.801 198.307 148.044 197.803 148.529 197.448C149.015 197.084 149.659 196.902 150.461 196.902C151.236 196.902 151.871 197.079 152.365 197.434C152.869 197.779 153.196 198.251 153.345 198.848L152.001 199.226C151.917 198.806 151.74 198.512 151.469 198.344C151.199 198.167 150.863 198.078 150.461 198.078C150.069 198.078 149.761 198.153 149.537 198.302C149.313 198.442 149.201 198.643 149.201 198.904C149.201 199.184 149.309 199.389 149.523 199.52C149.747 199.651 150.046 199.749 150.419 199.814L150.909 199.898C151.404 199.982 151.857 200.099 152.267 200.248C152.678 200.397 153 200.612 153.233 200.892C153.476 201.172 153.597 201.545 153.597 202.012C153.597 202.703 153.341 203.239 152.827 203.622C152.314 204.005 151.623 204.196 150.755 204.196Z" fill="#111111"/>
<path d="M195.876 163V154.6H197.172V163H195.876ZM198.959 163V157.084H200.171V157.972H200.363C200.475 157.732 200.675 157.508 200.963 157.3C201.251 157.092 201.679 156.988 202.247 156.988C202.695 156.988 203.091 157.088 203.435 157.288C203.787 157.488 204.063 157.772 204.263 158.14C204.463 158.5 204.563 158.936 204.563 159.448V163H203.327V159.544C203.327 159.032 203.199 158.656 202.943 158.416C202.687 158.168 202.335 158.044 201.887 158.044C201.375 158.044 200.963 158.212 200.651 158.548C200.347 158.884 200.195 159.372 200.195 160.012V163H198.959ZM208.398 163C208.038 163 207.75 162.892 207.534 162.676C207.326 162.46 207.222 162.172 207.222 161.812V158.128H205.59V157.084H207.222V155.128H208.458V157.084H210.222V158.128H208.458V161.596C208.458 161.836 208.57 161.956 208.794 161.956H210.03V163H208.398ZM214.175 163.168C213.575 163.168 213.051 163.044 212.603 162.796C212.155 162.54 211.803 162.184 211.547 161.728C211.299 161.264 211.175 160.728 211.175 160.12V159.976C211.175 159.36 211.299 158.824 211.547 158.368C211.795 157.904 212.139 157.548 212.579 157.3C213.027 157.044 213.543 156.916 214.127 156.916C214.695 156.916 215.191 157.044 215.615 157.3C216.047 157.548 216.383 157.896 216.623 158.344C216.863 158.792 216.983 159.316 216.983 159.916V160.384H212.435C212.451 160.904 212.623 161.32 212.951 161.632C213.287 161.936 213.703 162.088 214.199 162.088C214.663 162.088 215.011 161.984 215.243 161.776C215.483 161.568 215.667 161.328 215.795 161.056L216.815 161.584C216.703 161.808 216.539 162.044 216.323 162.292C216.115 162.54 215.839 162.748 215.495 162.916C215.151 163.084 214.711 163.168 214.175 163.168ZM212.447 159.436H215.723C215.691 158.988 215.531 158.64 215.243 158.392C214.955 158.136 214.579 158.008 214.115 158.008C213.651 158.008 213.271 158.136 212.975 158.392C212.687 158.64 212.511 158.988 212.447 159.436ZM218.471 163V157.084H219.683V157.78H219.875C219.971 157.532 220.123 157.352 220.331 157.24C220.547 157.12 220.811 157.06 221.123 157.06H221.831V158.176H221.075C220.675 158.176 220.347 158.288 220.091 158.512C219.835 158.728 219.707 159.064 219.707 159.52V163H218.471ZM225.612 163.168C225.012 163.168 224.488 163.044 224.04 162.796C223.592 162.54 223.24 162.184 222.984 161.728C222.736 161.264 222.612 160.728 222.612 160.12V159.976C222.612 159.36 222.736 158.824 222.984 158.368C223.232 157.904 223.576 157.548 224.016 157.3C224.464 157.044 224.98 156.916 225.564 156.916C226.132 156.916 226.628 157.044 227.052 157.3C227.484 157.548 227.82 157.896 228.06 158.344C228.3 158.792 228.42 159.316 228.42 159.916V160.384H223.872C223.888 160.904 224.06 161.32 224.388 161.632C224.724 161.936 225.14 162.088 225.636 162.088C226.1 162.088 226.448 161.984 226.68 161.776C226.92 161.568 227.104 161.328 227.232 161.056L228.252 161.584C228.14 161.808 227.976 162.044 227.76 162.292C227.552 162.54 227.276 162.748 226.932 162.916C226.588 163.084 226.148 163.168 225.612 163.168ZM223.884 159.436H227.16C227.128 158.988 226.968 158.64 226.68 158.392C226.392 158.136 226.016 158.008 225.552 158.008C225.088 158.008 224.708 158.136 224.412 158.392C224.124 158.64 223.948 158.988 223.884 159.436ZM232.332 163.168C231.58 163.168 230.956 163 230.46 162.664C229.964 162.328 229.66 161.82 229.548 161.14L230.7 160.864C230.764 161.192 230.872 161.452 231.024 161.644C231.176 161.836 231.364 161.972 231.588 162.052C231.82 162.132 232.068 162.172 232.332 162.172C232.724 162.172 233.024 162.096 233.232 161.944C233.448 161.792 233.556 161.596 233.556 161.356C233.556 161.116 233.456 160.94 233.256 160.828C233.056 160.716 232.76 160.624 232.368 160.552L231.96 160.48C231.56 160.408 231.196 160.304 230.868 160.168C230.54 160.032 230.28 159.844 230.088 159.604C229.896 159.364 229.8 159.056 229.8 158.68C229.8 158.12 230.008 157.688 230.424 157.384C230.84 157.072 231.392 156.916 232.08 156.916C232.744 156.916 233.288 157.068 233.712 157.372C234.144 157.668 234.424 158.072 234.552 158.584L233.4 158.908C233.328 158.548 233.176 158.296 232.944 158.152C232.712 158 232.424 157.924 232.08 157.924C231.744 157.924 231.48 157.988 231.288 158.116C231.096 158.236 231 158.408 231 158.632C231 158.872 231.092 159.048 231.276 159.16C231.468 159.272 231.724 159.356 232.044 159.412L232.464 159.484C232.888 159.556 233.276 159.656 233.628 159.784C233.98 159.912 234.256 160.096 234.456 160.336C234.664 160.576 234.768 160.896 234.768 161.296C234.768 161.888 234.548 162.348 234.108 162.676C233.668 163.004 233.076 163.168 232.332 163.168ZM238.304 163C237.944 163 237.656 162.892 237.44 162.676C237.232 162.46 237.128 162.172 237.128 161.812V158.128H235.496V157.084H237.128V155.128H238.364V157.084H240.128V158.128H238.364V161.596C238.364 161.836 238.476 161.956 238.7 161.956H239.936V163H238.304Z" fill="#797979"/>
<rect x="195.5" y="179.5" width="138" height="39" rx="7.5" stroke="#E6E6E6"/>
<path d="M215.508 204.196C214.369 204.196 213.459 203.874 212.778 203.23C212.106 202.577 211.77 201.597 211.77 200.29V197.91C211.77 196.631 212.106 195.661 212.778 194.998C213.459 194.335 214.369 194.004 215.508 194.004C216.656 194.004 217.566 194.335 218.238 194.998C218.919 195.661 219.26 196.631 219.26 197.91V200.29C219.26 201.597 218.919 202.577 218.238 203.23C217.566 203.874 216.656 204.196 215.508 204.196ZM215.508 202.88C216.283 202.88 216.857 202.661 217.23 202.222C217.603 201.774 217.79 201.149 217.79 200.346V197.826C217.79 197.023 217.589 196.407 217.188 195.978C216.787 195.539 216.227 195.32 215.508 195.32C214.78 195.32 214.22 195.544 213.828 195.992C213.436 196.431 213.24 197.042 213.24 197.826V200.346C213.24 201.167 213.427 201.797 213.8 202.236C214.183 202.665 214.752 202.88 215.508 202.88Z" fill="#999999"/>
<path d="M308.974 204.182L308.078 203.454L315.736 194.018L316.632 194.746L308.974 204.182ZM315.036 204.154C314.345 204.154 313.799 203.963 313.398 203.58C312.997 203.188 312.796 202.661 312.796 201.998V201.914C312.796 201.242 312.997 200.715 313.398 200.332C313.799 199.94 314.345 199.744 315.036 199.744C315.717 199.744 316.263 199.94 316.674 200.332C317.085 200.715 317.29 201.242 317.29 201.914V201.998C317.29 202.661 317.085 203.188 316.674 203.58C316.273 203.963 315.727 204.154 315.036 204.154ZM315.036 203.174C315.372 203.174 315.633 203.071 315.82 202.866C316.016 202.661 316.114 202.39 316.114 202.054V201.858C316.114 201.513 316.016 201.237 315.82 201.032C315.633 200.827 315.372 200.724 315.036 200.724C314.709 200.724 314.448 200.827 314.252 201.032C314.065 201.237 313.972 201.513 313.972 201.858V202.054C313.972 202.39 314.065 202.661 314.252 202.866C314.448 203.071 314.709 203.174 315.036 203.174ZM309.674 198.456C308.983 198.456 308.433 198.265 308.022 197.882C307.621 197.49 307.42 196.963 307.42 196.3V196.202C307.42 195.53 307.621 195.003 308.022 194.62C308.433 194.237 308.983 194.046 309.674 194.046C310.355 194.046 310.897 194.237 311.298 194.62C311.709 195.003 311.914 195.53 311.914 196.202V196.3C311.914 196.963 311.713 197.49 311.312 197.882C310.911 198.265 310.365 198.456 309.674 198.456ZM309.674 197.476C310.001 197.476 310.257 197.373 310.444 197.168C310.64 196.953 310.738 196.678 310.738 196.342V196.146C310.738 195.81 310.64 195.539 310.444 195.334C310.257 195.129 310.001 195.026 309.674 195.026C309.338 195.026 309.072 195.129 308.876 195.334C308.689 195.539 308.596 195.81 308.596 196.146V196.342C308.596 196.678 308.689 196.953 308.876 197.168C309.072 197.373 309.338 197.476 309.674 197.476Z" fill="#111111"/>
<rect x="32" y="243" width="302" height="40" rx="8" fill="#0091FF"/>
<path d="M155.648 268.196C154.435 268.196 153.473 267.86 152.764 267.188C152.055 266.507 151.7 265.536 151.7 264.276V261.924C151.7 260.664 152.055 259.698 152.764 259.026C153.473 258.345 154.435 258.004 155.648 258.004C156.852 258.004 157.781 258.335 158.434 258.998C159.097 259.651 159.428 260.552 159.428 261.7V261.784H157.608V261.644C157.608 261.065 157.445 260.589 157.118 260.216C156.801 259.843 156.311 259.656 155.648 259.656C154.995 259.656 154.481 259.857 154.108 260.258C153.735 260.659 153.548 261.205 153.548 261.896V264.304C153.548 264.985 153.735 265.531 154.108 265.942C154.481 266.343 154.995 266.544 155.648 266.544C156.311 266.544 156.801 266.357 157.118 265.984C157.445 265.601 157.608 265.125 157.608 264.556V264.304H159.428V264.5C159.428 265.648 159.097 266.553 158.434 267.216C157.781 267.869 156.852 268.196 155.648 268.196ZM163.146 268.196C162.651 268.196 162.208 268.112 161.816 267.944C161.424 267.767 161.111 267.515 160.878 267.188C160.654 266.852 160.542 266.446 160.542 265.97C160.542 265.494 160.654 265.097 160.878 264.78C161.111 264.453 161.428 264.211 161.83 264.052C162.24 263.884 162.707 263.8 163.23 263.8H165.134V263.408C165.134 263.081 165.031 262.815 164.826 262.61C164.62 262.395 164.294 262.288 163.846 262.288C163.407 262.288 163.08 262.391 162.866 262.596C162.651 262.792 162.511 263.049 162.446 263.366L160.822 262.82C160.934 262.465 161.111 262.143 161.354 261.854C161.606 261.555 161.937 261.317 162.348 261.14C162.768 260.953 163.276 260.86 163.874 260.86C164.788 260.86 165.512 261.089 166.044 261.546C166.576 262.003 166.842 262.666 166.842 263.534V266.124C166.842 266.404 166.972 266.544 167.234 266.544H167.794V268H166.618C166.272 268 165.988 267.916 165.764 267.748C165.54 267.58 165.428 267.356 165.428 267.076V267.062H165.162C165.124 267.174 165.04 267.323 164.91 267.51C164.779 267.687 164.574 267.846 164.294 267.986C164.014 268.126 163.631 268.196 163.146 268.196ZM163.454 266.768C163.948 266.768 164.35 266.633 164.658 266.362C164.975 266.082 165.134 265.713 165.134 265.256V265.116H163.356C163.029 265.116 162.772 265.186 162.586 265.326C162.399 265.466 162.306 265.662 162.306 265.914C162.306 266.166 162.404 266.371 162.6 266.53C162.796 266.689 163.08 266.768 163.454 266.768ZM169.084 268V258.2H170.848V268H169.084ZM176.064 268.196C175.392 268.196 174.781 268.056 174.23 267.776C173.689 267.496 173.26 267.09 172.942 266.558C172.625 266.026 172.466 265.382 172.466 264.626V264.43C172.466 263.674 172.625 263.03 172.942 262.498C173.26 261.966 173.689 261.56 174.23 261.28C174.781 261 175.392 260.86 176.064 260.86C176.727 260.86 177.296 260.977 177.772 261.21C178.248 261.443 178.631 261.765 178.92 262.176C179.219 262.577 179.415 263.035 179.508 263.548L177.8 263.912C177.763 263.632 177.679 263.38 177.548 263.156C177.418 262.932 177.231 262.755 176.988 262.624C176.755 262.493 176.461 262.428 176.106 262.428C175.752 262.428 175.43 262.507 175.14 262.666C174.86 262.815 174.636 263.044 174.468 263.352C174.31 263.651 174.23 264.019 174.23 264.458V264.598C174.23 265.037 174.31 265.41 174.468 265.718C174.636 266.017 174.86 266.245 175.14 266.404C175.43 266.553 175.752 266.628 176.106 266.628C176.638 266.628 177.04 266.493 177.31 266.222C177.59 265.942 177.768 265.578 177.842 265.13L179.55 265.536C179.429 266.031 179.219 266.483 178.92 266.894C178.631 267.295 178.248 267.613 177.772 267.846C177.296 268.079 176.727 268.196 176.064 268.196ZM183.651 268.112C183.11 268.112 182.634 267.991 182.223 267.748C181.822 267.496 181.509 267.151 181.285 266.712C181.061 266.273 180.949 265.769 180.949 265.2V261.056H182.713V265.06C182.713 265.583 182.839 265.975 183.091 266.236C183.353 266.497 183.721 266.628 184.197 266.628C184.739 266.628 185.159 266.451 185.457 266.096C185.756 265.732 185.905 265.228 185.905 264.584V261.056H187.669V268H185.933V267.09H185.681C185.569 267.323 185.359 267.552 185.051 267.776C184.743 268 184.277 268.112 183.651 268.112ZM189.632 268V258.2H191.396V268H189.632ZM195.507 268.196C195.012 268.196 194.569 268.112 194.177 267.944C193.785 267.767 193.472 267.515 193.239 267.188C193.015 266.852 192.903 266.446 192.903 265.97C192.903 265.494 193.015 265.097 193.239 264.78C193.472 264.453 193.79 264.211 194.191 264.052C194.602 263.884 195.068 263.8 195.591 263.8H197.495V263.408C197.495 263.081 197.392 262.815 197.187 262.61C196.982 262.395 196.655 262.288 196.207 262.288C195.768 262.288 195.442 262.391 195.227 262.596C195.012 262.792 194.872 263.049 194.807 263.366L193.183 262.82C193.295 262.465 193.472 262.143 193.715 261.854C193.967 261.555 194.298 261.317 194.709 261.14C195.129 260.953 195.638 260.86 196.235 260.86C197.15 260.86 197.873 261.089 198.405 261.546C198.937 262.003 199.203 262.666 199.203 263.534V266.124C199.203 266.404 199.334 266.544 199.595 266.544H200.155V268H198.979C198.634 268 198.349 267.916 198.125 267.748C197.901 267.58 197.789 267.356 197.789 267.076V267.062H197.523C197.486 267.174 197.402 267.323 197.271 267.51C197.14 267.687 196.935 267.846 196.655 267.986C196.375 268.126 195.992 268.196 195.507 268.196ZM195.815 266.768C196.31 266.768 196.711 266.633 197.019 266.362C197.336 266.082 197.495 265.713 197.495 265.256V265.116H195.717C195.39 265.116 195.134 265.186 194.947 265.326C194.76 265.466 194.667 265.662 194.667 265.914C194.667 266.166 194.765 266.371 194.961 266.53C195.157 266.689 195.442 266.768 195.815 266.768ZM203.599 268C203.142 268 202.768 267.86 202.479 267.58C202.199 267.291 202.059 266.908 202.059 266.432V262.512H200.323V261.056H202.059V258.9H203.823V261.056H205.727V262.512H203.823V266.124C203.823 266.404 203.954 266.544 204.215 266.544H205.559V268H203.599ZM210.242 268.196C209.551 268.196 208.94 268.051 208.408 267.762C207.885 267.463 207.474 267.048 207.176 266.516C206.886 265.975 206.742 265.34 206.742 264.612V264.444C206.742 263.716 206.886 263.086 207.176 262.554C207.465 262.013 207.871 261.597 208.394 261.308C208.916 261.009 209.523 260.86 210.214 260.86C210.895 260.86 211.488 261.014 211.992 261.322C212.496 261.621 212.888 262.041 213.168 262.582C213.448 263.114 213.588 263.735 213.588 264.444V265.046H208.534C208.552 265.522 208.73 265.909 209.066 266.208C209.402 266.507 209.812 266.656 210.298 266.656C210.792 266.656 211.156 266.549 211.39 266.334C211.623 266.119 211.8 265.881 211.922 265.62L213.364 266.376C213.233 266.619 213.042 266.885 212.79 267.174C212.547 267.454 212.22 267.697 211.81 267.902C211.399 268.098 210.876 268.196 210.242 268.196ZM208.548 263.73H211.796C211.758 263.329 211.595 263.007 211.306 262.764C211.026 262.521 210.657 262.4 210.2 262.4C209.724 262.4 209.346 262.521 209.066 262.764C208.786 263.007 208.613 263.329 208.548 263.73Z" fill="white"/>
</g>
<defs>
<filter id="filter0_dd_1294_4304" x="0" y="0" width="366" height="317" filterUnits="userSpaceOnUse" color-interpolation-filters="sRGB">
<feFlood flood-opacity="0" result="BackgroundImageFix"/>
<feColorMatrix in="SourceAlpha" type="matrix" values="0 0 0 0 0 0 0 0 0 0 0 0 0 0 0 0 0 0 127 0" result="hardAlpha"/>
<feOffset dy="2"/>
<feGaussianBlur stdDeviation="4"/>
<feComposite in2="hardAlpha" operator="out"/>
<feColorMatrix type="matrix" values="0 0 0 0 0 0 0 0 0 0 0 0 0 0 0 0 0 0 0.05 0"/>
<feBlend mode="normal" in2="BackgroundImageFix" result="effect1_dropShadow_1294_4304"/>
<feColorMatrix in="SourceAlpha" type="matrix" values="0 0 0 0 0 0 0 0 0 0 0 0 0 0 0 0 0 0 127 0" result="hardAlpha"/>
<feOffset/>
<feGaussianBlur stdDeviation="4"/>
<feComposite in2="hardAlpha" operator="out"/>
<feColorMatrix type="matrix" values="0 0 0 0 0.5 0 0 0 0 0.5 0 0 0 0 0.5 0 0 0 0.15 0"/>
<feBlend mode="normal" in2="effect1_dropShadow_1294_4304" result="effect2_dropShadow_1294_4304"/>
<feBlend mode="normal" in="SourceGraphic" in2="effect2_dropShadow_1294_4304" result="shape"/>
</filter>
</defs>
</svg>
