<svg width="390" height="273" viewBox="0 0 390 273" fill="none" xmlns="http://www.w3.org/2000/svg">
<mask id="path-1-inside-1_704_1935" fill="white">
<path d="M0 0H390V273H0V0Z"/>
</mask>
<path d="M0 16H390V-16H0V16Z" fill="#E31837" mask="url(#path-1-inside-1_704_1935)"/>
<rect x="24" y="48" width="64" height="64" rx="32" fill="#FAFAFA"/>
<g clip-path="url(#clip0_704_1935)">
<path d="M55.9422 89.6166C62.0053 84.4196 70.5226 79.367 75.1999 77.548C74.4781 77.0861 73.3521 76.422 72.0817 75.7002C66.0475 77.6924 59.0026 82.1098 52.7085 87.1047C53.7768 87.9131 54.9028 88.7504 55.9422 89.6166Z" fill="#E31837"/>
<path d="M53.1702 75.4982C52.2751 75.0651 51.2935 74.6609 50.5428 74.3145C48.2619 75.4405 45.2881 77.1439 41.5347 79.829C42.3431 80.2621 43.2093 80.7818 44.1332 81.3015C47.0204 79.165 49.9365 77.1439 53.1702 75.4982Z" fill="#012169"/>
<path d="M58.5693 73.0151C57.4721 72.4087 53.661 70.994 51.0336 70.3877C50.2541 70.6764 49.1569 71.1095 48.4062 71.4271C49.359 71.6869 52.9103 72.6397 55.9419 74.17C56.7214 73.7946 57.8186 73.3327 58.5693 73.0151Z" fill="#E31837"/>
<path d="M45.6636 72.6396C42.2855 74.1987 38.7342 76.3353 36.7998 77.5768C37.4927 77.8944 38.1857 78.1542 39.1384 78.6162C43.4115 75.729 46.7607 73.9678 48.0888 73.3903C47.136 73.0439 46.241 72.8129 45.6636 72.6396Z" fill="#012169"/>
<path d="M61.11 72.1201C61.8895 71.8603 62.7845 71.6293 63.5641 71.3983C61.3121 70.4455 58.4826 69.435 55.9418 68.7998C55.5376 68.9153 54.325 69.2329 53.4877 69.4927C54.3539 69.7526 57.2122 70.4166 61.11 72.1201ZM46.876 82.976C47.7999 83.5246 48.7815 84.2753 49.7343 84.9105C56.0573 80.0022 62.2937 76.22 69.1364 74.0834C68.1836 73.5926 67.3463 73.1595 66.2781 72.6398C62.1782 73.6792 55.1623 76.4798 46.876 82.976Z" fill="#E31837"/>
</g>
<path d="M25.4347 151V136.455H34.8949V138.663H28.0696V142.612H34.4048V144.821H28.0696V148.791H34.9517V151H25.4347ZM40.0405 144.608V151H37.4695V140.091H39.9268V141.945H40.0547C40.3056 141.334 40.7057 140.848 41.255 140.489C41.8089 140.129 42.4931 139.949 43.3075 139.949C44.0604 139.949 44.7161 140.11 45.2749 140.432C45.8383 140.754 46.2739 141.22 46.5817 141.831C46.8942 142.442 47.0481 143.183 47.0433 144.054V151H44.4723V144.452C44.4723 143.723 44.2829 143.152 43.9041 142.74C43.5301 142.328 43.0116 142.122 42.3487 142.122C41.8989 142.122 41.4988 142.222 41.1484 142.42C40.8028 142.615 40.5305 142.896 40.3317 143.266C40.1375 143.635 40.0405 144.082 40.0405 144.608ZM55.1044 140.091V142.08H48.8331V140.091H55.1044ZM50.3814 137.477H52.9524V147.719C52.9524 148.064 53.0045 148.33 53.1087 148.514C53.2176 148.694 53.3596 148.817 53.5348 148.884C53.71 148.95 53.9041 148.983 54.1172 148.983C54.2782 148.983 54.425 148.971 54.5575 148.947C54.6948 148.924 54.799 148.902 54.87 148.884L55.3033 150.893C55.166 150.941 54.9695 150.993 54.7138 151.05C54.4628 151.107 54.1551 151.14 53.7905 151.149C53.1465 151.168 52.5665 151.071 52.0504 150.858C51.5343 150.64 51.1248 150.304 50.8217 149.849C50.5234 149.395 50.3767 148.827 50.3814 148.145V137.477ZM61.967 151.213C60.8732 151.213 59.9286 150.986 59.1332 150.531C58.3424 150.072 57.734 149.423 57.3079 148.585C56.8817 147.742 56.6687 146.75 56.6687 145.609C56.6687 144.487 56.8817 143.502 57.3079 142.655C57.7388 141.803 58.3401 141.14 59.1119 140.666C59.8836 140.188 60.7904 139.949 61.832 139.949C62.5044 139.949 63.1388 140.058 63.7354 140.276C64.3368 140.489 64.8671 140.82 65.3263 141.27C65.7904 141.72 66.1549 142.293 66.4201 142.989C66.6853 143.68 66.8178 144.504 66.8178 145.46V146.249H57.8761V144.516H64.3533C64.3486 144.023 64.2421 143.585 64.0337 143.202C63.8254 142.813 63.5342 142.508 63.1602 142.286C62.7908 142.063 62.36 141.952 61.8675 141.952C61.342 141.952 60.8803 142.08 60.4826 142.335C60.0849 142.586 59.7747 142.918 59.5522 143.33C59.3344 143.737 59.2231 144.184 59.2184 144.672V146.185C59.2184 146.819 59.3344 147.364 59.5664 147.818C59.7984 148.268 60.1228 148.614 60.5394 148.855C60.9561 149.092 61.4438 149.21 62.0025 149.21C62.3765 149.21 62.7151 149.158 63.0181 149.054C63.3211 148.945 63.5839 148.786 63.8065 148.578C64.029 148.37 64.1971 148.112 64.3107 147.804L66.7113 148.074C66.5598 148.708 66.271 149.262 65.8448 149.736C65.4234 150.205 64.8836 150.569 64.2255 150.83C63.5674 151.085 62.8145 151.213 61.967 151.213ZM68.9929 151V140.091H71.4858V141.909H71.5994C71.7983 141.279 72.1392 140.794 72.6222 140.453C73.1098 140.107 73.6662 139.935 74.2912 139.935C74.4332 139.935 74.5919 139.942 74.767 139.956C74.947 139.965 75.0961 139.982 75.2145 140.006V142.371C75.1056 142.333 74.9328 142.3 74.696 142.271C74.464 142.238 74.2391 142.222 74.0213 142.222C73.5526 142.222 73.1312 142.323 72.7571 142.527C72.3878 142.726 72.0966 143.003 71.8835 143.358C71.6705 143.713 71.5639 144.123 71.5639 144.587V151H68.9929ZM83.4815 155.091C83.1312 155.091 82.8068 155.063 82.5085 155.006C82.215 154.954 81.9806 154.892 81.8054 154.821L82.402 152.818C82.776 152.927 83.1098 152.979 83.4034 152.974C83.697 152.97 83.955 152.877 84.1776 152.697C84.4048 152.522 84.5966 152.229 84.7528 151.817L84.973 151.227L81.017 140.091H83.7443L86.2585 148.33H86.3722L88.8935 140.091H91.6278L87.2599 152.321C87.0563 152.899 86.7865 153.393 86.4503 153.805C86.1141 154.222 85.7022 154.539 85.2145 154.757C84.7315 154.98 84.1539 155.091 83.4815 155.091ZM97.7944 151.213C96.729 151.213 95.8058 150.979 95.0245 150.51C94.2433 150.041 93.6372 149.385 93.2063 148.543C92.7802 147.7 92.5671 146.715 92.5671 145.588C92.5671 144.461 92.7802 143.474 93.2063 142.626C93.6372 141.779 94.2433 141.121 95.0245 140.652C95.8058 140.183 96.729 139.949 97.7944 139.949C98.8597 139.949 99.783 140.183 100.564 140.652C101.346 141.121 101.949 141.779 102.375 142.626C102.806 143.474 103.022 144.461 103.022 145.588C103.022 146.715 102.806 147.7 102.375 148.543C101.949 149.385 101.346 150.041 100.564 150.51C99.783 150.979 98.8597 151.213 97.7944 151.213ZM97.8086 149.153C98.3862 149.153 98.8692 148.995 99.2575 148.678C99.6457 148.356 99.9345 147.925 100.124 147.385C100.318 146.845 100.415 146.244 100.415 145.581C100.415 144.913 100.318 144.31 100.124 143.77C99.9345 143.225 99.6457 142.792 99.2575 142.47C98.8692 142.148 98.3862 141.987 97.8086 141.987C97.2167 141.987 96.7243 142.148 96.3313 142.47C95.9431 142.792 95.6519 143.225 95.4577 143.77C95.2683 144.31 95.1737 144.913 95.1737 145.581C95.1737 146.244 95.2683 146.845 95.4577 147.385C95.6519 147.925 95.9431 148.356 96.3313 148.678C96.7243 148.995 97.2167 149.153 97.8086 149.153ZM112.157 146.412V140.091H114.728V151H112.235V149.061H112.121C111.875 149.672 111.47 150.171 110.907 150.56C110.348 150.948 109.659 151.142 108.84 151.142C108.125 151.142 107.493 150.983 106.944 150.666C106.399 150.344 105.973 149.878 105.665 149.267C105.358 148.652 105.204 147.908 105.204 147.037V140.091H107.775V146.639C107.775 147.33 107.964 147.88 108.343 148.287C108.722 148.694 109.219 148.898 109.835 148.898C110.213 148.898 110.58 148.805 110.935 148.621C111.29 148.436 111.582 148.161 111.809 147.797C112.041 147.428 112.157 146.966 112.157 146.412ZM117.372 151V140.091H119.865V141.909H119.978C120.177 141.279 120.518 140.794 121.001 140.453C121.489 140.107 122.045 139.935 122.67 139.935C122.812 139.935 122.971 139.942 123.146 139.956C123.326 139.965 123.475 139.982 123.593 140.006V142.371C123.484 142.333 123.312 142.3 123.075 142.271C122.843 142.238 122.618 142.222 122.4 142.222C121.931 142.222 121.51 142.323 121.136 142.527C120.767 142.726 120.475 143.003 120.262 143.358C120.049 143.713 119.943 144.123 119.943 144.587V151H117.372ZM130.376 151V136.455H135.831C136.948 136.455 137.886 136.663 138.643 137.08C139.405 137.496 139.981 138.069 140.369 138.798C140.762 139.523 140.958 140.347 140.958 141.27C140.958 142.203 140.762 143.031 140.369 143.756C139.976 144.48 139.396 145.051 138.629 145.467C137.862 145.879 136.917 146.085 135.795 146.085H132.18V143.919H135.44C136.093 143.919 136.628 143.805 137.045 143.578C137.462 143.351 137.77 143.038 137.968 142.641C138.172 142.243 138.274 141.786 138.274 141.27C138.274 140.754 138.172 140.299 137.968 139.906C137.77 139.513 137.459 139.208 137.038 138.99C136.621 138.768 136.084 138.656 135.426 138.656H133.011V151H130.376ZM145.882 136.455V151H143.247V136.455H145.882ZM160.689 136.455V151H158.345L151.491 141.092H151.37V151H148.735V136.455H151.093L157.94 146.369H158.068V136.455H160.689Z" fill="#1D1D1F"/>
<path d="M25.1683 176.864V166.364H26.0284V167.82H26.1328C26.2389 167.592 26.3847 167.358 26.5703 167.119C26.7559 166.877 27.0012 166.674 27.3061 166.508C27.6143 166.342 28.0021 166.259 28.4695 166.259C29.0992 166.259 29.6494 166.425 30.12 166.756C30.594 167.085 30.9619 167.545 31.2237 168.138C31.4889 168.728 31.6214 169.416 31.6214 170.202C31.6214 170.991 31.4889 171.682 31.2237 172.275C30.9619 172.868 30.594 173.33 30.12 173.662C29.6494 173.993 29.1025 174.159 28.4794 174.159C28.0187 174.159 27.6326 174.076 27.321 173.911C27.0128 173.745 26.7625 173.541 26.5703 173.299C26.3814 173.054 26.2356 172.815 26.1328 172.583H26.0533V176.864H25.1683ZM26.0433 170.187C26.0433 170.803 26.1345 171.35 26.3168 171.827C26.5024 172.301 26.7675 172.674 27.1122 172.946C27.4602 173.214 27.8812 173.349 28.375 173.349C28.8821 173.349 29.3097 173.21 29.6577 172.931C30.009 172.649 30.2758 172.27 30.4581 171.793C30.6437 171.315 30.7365 170.78 30.7365 170.187C30.7365 169.6 30.6454 169.071 30.4631 168.601C30.2841 168.13 30.0189 167.757 29.6676 167.482C29.3163 167.204 28.8854 167.065 28.375 167.065C27.8778 167.065 27.4553 167.199 27.1072 167.467C26.7592 167.732 26.4941 168.1 26.3118 168.571C26.1328 169.038 26.0433 169.577 26.0433 170.187ZM35.6957 174.174C35.235 174.174 34.814 174.085 34.4329 173.906C34.0517 173.723 33.7485 173.461 33.5231 173.12C33.2977 172.775 33.185 172.358 33.185 171.867C33.185 171.489 33.2563 171.171 33.3988 170.913C33.5413 170.654 33.7435 170.442 34.0053 170.276C34.2672 170.111 34.5771 169.98 34.935 169.884C35.293 169.787 35.6874 169.713 36.1183 169.66C36.5458 169.607 36.9071 169.56 37.2021 169.521C37.5004 169.481 37.7274 169.418 37.8832 169.332C38.0389 169.246 38.1168 169.106 38.1168 168.914V168.735C38.1168 168.215 37.9611 167.805 37.6495 167.507C37.3413 167.205 36.8971 167.055 36.3171 167.055C35.7669 167.055 35.3178 167.176 34.9698 167.418C34.6251 167.66 34.3832 167.945 34.244 168.273L33.4038 167.969C33.5761 167.552 33.8147 167.219 34.1197 166.97C34.4246 166.718 34.766 166.538 35.1438 166.428C35.5217 166.316 35.9045 166.259 36.2923 166.259C36.5839 166.259 36.8872 166.297 37.2021 166.374C37.5202 166.45 37.8152 166.582 38.087 166.771C38.3588 166.957 38.5792 167.217 38.7482 167.552C38.9173 167.883 39.0018 168.304 39.0018 168.815V174H38.1168V172.792H38.0621C37.9561 173.017 37.7987 173.236 37.5898 173.448C37.381 173.66 37.1192 173.834 36.8043 173.97C36.4895 174.106 36.1199 174.174 35.6957 174.174ZM35.815 173.364C36.2856 173.364 36.6933 173.259 37.038 173.05C37.3827 172.842 37.6478 172.565 37.8335 172.22C38.0224 171.872 38.1168 171.489 38.1168 171.072V169.968C38.0505 170.031 37.9395 170.087 37.7837 170.137C37.6313 170.187 37.454 170.232 37.2518 170.271C37.0529 170.308 36.854 170.339 36.6552 170.366C36.4563 170.392 36.2773 170.415 36.1183 170.435C35.6874 170.488 35.3195 170.571 35.0146 170.684C34.7096 170.797 34.476 170.952 34.3136 171.151C34.1512 171.347 34.07 171.599 34.07 171.907C34.07 172.371 34.2357 172.731 34.5671 172.986C34.8986 173.238 35.3145 173.364 35.815 173.364ZM41.6989 176.864C41.5232 176.864 41.3591 176.847 41.2067 176.814C41.0542 176.781 40.9332 176.744 40.8438 176.705L41.0824 175.924C41.384 176.017 41.6525 176.05 41.8878 176.023C42.1231 176 42.3319 175.894 42.5142 175.705C42.6965 175.52 42.8589 175.235 43.0014 174.85L43.2798 174.075L40.4709 166.364H41.4304L43.6974 172.832H43.767L46.0341 166.364H46.9936L43.7621 175.208C43.6262 175.576 43.4588 175.883 43.2599 176.128C43.0611 176.376 42.8307 176.56 42.5689 176.68C42.3104 176.802 42.0204 176.864 41.6989 176.864ZM48.7349 174V166.364H49.6248V174H48.7349ZM49.1873 165.051C49.005 165.051 48.8493 164.99 48.72 164.867C48.5907 164.741 48.5261 164.59 48.5261 164.415C48.5261 164.239 48.5907 164.09 48.72 163.967C48.8493 163.841 49.005 163.778 49.1873 163.778C49.3696 163.778 49.5254 163.841 49.6547 163.967C49.7839 164.09 49.8485 164.239 49.8485 164.415C49.8485 164.59 49.7839 164.741 49.6547 164.867C49.5254 164.99 49.3696 165.051 49.1873 165.051ZM52.8501 169.227V174H51.9652V166.364H52.8253V167.562H52.9048C53.0838 167.171 53.3622 166.857 53.7401 166.622C54.1212 166.384 54.5919 166.264 55.152 166.264C55.6657 166.264 56.1165 166.372 56.5043 166.587C56.8954 166.799 57.1986 167.113 57.4141 167.527C57.6328 167.941 57.7422 168.45 57.7422 169.053V174H56.8572V169.108C56.8572 168.482 56.6816 167.986 56.3303 167.621C55.9822 167.257 55.5149 167.075 54.9283 167.075C54.5272 167.075 54.1709 167.161 53.8594 167.333C53.5478 167.505 53.3009 167.754 53.1186 168.079C52.9396 168.4 52.8501 168.783 52.8501 169.227ZM62.986 177.023C62.4656 177.023 62.0099 176.955 61.6188 176.819C61.2277 176.686 60.8979 176.504 60.6294 176.272C60.361 176.04 60.1522 175.78 60.003 175.491L60.7289 175.014C60.8382 175.206 60.9841 175.395 61.1664 175.581C61.352 175.767 61.5923 175.921 61.8873 176.043C62.1855 176.166 62.5518 176.227 62.986 176.227C63.6621 176.227 64.2073 176.058 64.6216 175.72C65.0392 175.382 65.248 174.857 65.248 174.144V172.424H65.1685C65.0658 172.656 64.9183 172.888 64.726 173.12C64.5338 173.349 64.2819 173.539 63.9703 173.692C63.6621 173.844 63.2793 173.92 62.8219 173.92C62.2121 173.92 61.6702 173.77 61.1962 173.468C60.7256 173.166 60.3543 172.736 60.0826 172.175C59.8141 171.612 59.6799 170.941 59.6799 170.162C59.6799 169.39 59.8108 168.71 60.0726 168.124C60.3378 167.537 60.7073 167.08 61.1813 166.751C61.6552 166.423 62.2071 166.259 62.8368 166.259C63.3042 166.259 63.6919 166.342 64.0002 166.508C64.3084 166.67 64.5553 166.872 64.7409 167.114C64.9299 167.356 65.0774 167.592 65.1834 167.82H65.2729V166.364H66.138V174.199C66.138 174.845 66.0004 175.377 65.7253 175.795C65.4502 176.212 65.0757 176.521 64.6017 176.719C64.1278 176.922 63.5892 177.023 62.986 177.023ZM62.9263 173.11C63.4168 173.11 63.8361 172.992 64.1841 172.757C64.5321 172.518 64.7989 172.177 64.9846 171.733C65.1702 171.289 65.263 170.76 65.263 170.147C65.263 169.55 65.1718 169.022 64.9895 168.561C64.8072 168.097 64.5421 167.732 64.1941 167.467C63.8494 167.199 63.4268 167.065 62.9263 167.065C62.4159 167.065 61.985 167.202 61.6337 167.477C61.2824 167.752 61.0172 168.124 60.8382 168.591C60.6593 169.055 60.5698 169.574 60.5698 170.147C60.5698 170.73 60.6609 171.246 60.8432 171.693C61.0255 172.137 61.2923 172.485 61.6436 172.737C61.995 172.986 62.4225 173.11 62.9263 173.11ZM75.4261 166.364V167.134H71.782V166.364H75.4261ZM72.9205 164.534H73.8104V172.006C73.8104 172.325 73.8651 172.575 73.9744 172.757C74.0838 172.936 74.2263 173.064 74.402 173.14C74.5777 173.213 74.7649 173.249 74.9638 173.249C75.0798 173.249 75.1792 173.243 75.2621 173.229C75.3449 173.213 75.4179 173.196 75.4808 173.18L75.6697 173.98C75.5836 174.013 75.4775 174.043 75.3516 174.07C75.2256 174.099 75.0698 174.114 74.8842 174.114C74.5594 174.114 74.2462 174.043 73.9446 173.901C73.6463 173.758 73.401 173.546 73.2088 173.264C73.0166 172.982 72.9205 172.633 72.9205 172.215V164.534ZM80.3219 174.159C79.6623 174.159 79.079 173.992 78.5719 173.657C78.0681 173.322 77.6737 172.86 77.3887 172.27C77.1036 171.677 76.9611 170.992 76.9611 170.217C76.9611 169.434 77.1036 168.747 77.3887 168.153C77.6737 167.557 78.0681 167.093 78.5719 166.761C79.079 166.427 79.6623 166.259 80.3219 166.259C80.9815 166.259 81.5632 166.427 82.0669 166.761C82.5707 167.096 82.9651 167.56 83.2502 168.153C83.5385 168.747 83.6827 169.434 83.6827 170.217C83.6827 170.992 83.5402 171.677 83.2551 172.27C82.9701 172.86 82.574 173.322 82.0669 173.657C81.5632 173.992 80.9815 174.159 80.3219 174.159ZM80.3219 173.349C80.8522 173.349 81.3013 173.206 81.6692 172.921C82.0371 172.636 82.3155 172.257 82.5044 171.783C82.6967 171.309 82.7928 170.787 82.7928 170.217C82.7928 169.647 82.6967 169.123 82.5044 168.646C82.3155 168.168 82.0371 167.786 81.6692 167.497C81.3013 167.209 80.8522 167.065 80.3219 167.065C79.7949 167.065 79.3458 167.209 78.9746 167.497C78.6067 167.786 78.3266 168.168 78.1344 168.646C77.9455 169.123 77.851 169.647 77.851 170.217C77.851 170.787 77.9455 171.309 78.1344 171.783C78.3266 172.257 78.6067 172.636 78.9746 172.921C79.3425 173.206 79.7916 173.349 80.3219 173.349Z" fill="#797979"/>
<path d="M91.2614 175H89.3977L93.5852 163.364H95.6136L99.8011 175H97.9375L94.6477 165.477H94.5568L91.2614 175ZM91.5739 170.443H97.6193V171.92H91.5739V170.443ZM103.044 163.364V175H101.345V163.364H103.044ZM109.091 175.176C108.231 175.176 107.491 174.992 106.869 174.625C106.252 174.254 105.775 173.733 105.438 173.062C105.104 172.388 104.938 171.598 104.938 170.693C104.938 169.799 105.104 169.011 105.438 168.33C105.775 167.648 106.244 167.116 106.847 166.733C107.453 166.35 108.161 166.159 108.972 166.159C109.464 166.159 109.941 166.241 110.403 166.403C110.866 166.566 111.28 166.822 111.648 167.17C112.015 167.519 112.305 167.972 112.517 168.528C112.729 169.081 112.835 169.754 112.835 170.545V171.148H105.898V169.875H111.17C111.17 169.428 111.08 169.032 110.898 168.688C110.716 168.339 110.46 168.064 110.131 167.864C109.805 167.663 109.422 167.562 108.983 167.562C108.506 167.562 108.089 167.68 107.733 167.915C107.381 168.146 107.108 168.449 106.915 168.824C106.725 169.195 106.631 169.598 106.631 170.034V171.028C106.631 171.612 106.733 172.108 106.938 172.517C107.146 172.926 107.436 173.239 107.807 173.455C108.178 173.667 108.612 173.773 109.108 173.773C109.43 173.773 109.723 173.727 109.989 173.636C110.254 173.542 110.483 173.402 110.676 173.216C110.869 173.03 111.017 172.801 111.119 172.528L112.727 172.818C112.598 173.292 112.367 173.706 112.034 174.062C111.705 174.415 111.29 174.689 110.79 174.886C110.294 175.08 109.727 175.176 109.091 175.176ZM115.858 166.273L117.784 169.67L119.727 166.273H121.585L118.864 170.636L121.608 175H119.75L117.784 171.739L115.824 175H113.96L116.676 170.636L113.994 166.273H115.858Z" fill="#797979"/>
<g clip-path="url(#clip1_704_1935)">
<path d="M133 163C129.691 163 127 165.691 127 169C127 172.309 129.691 175 133 175C136.309 175 139 172.309 139 169C139 165.691 136.309 163 133 163ZM132.955 170.709C132.761 170.903 132.506 170.999 132.251 170.999C131.996 170.999 131.739 170.902 131.543 170.707L130.152 169.359L130.849 168.641L132.245 169.994L135.149 167.143L135.851 167.856L132.955 170.709Z" fill="#00B347"/>
</g>
<rect x="24" y="199" width="342" height="42" rx="12" fill="#FAFAFA"/>
<path d="M40.358 214.818H41.7699L44.5938 219.571H44.7131L47.5369 214.818H48.9489L45.2699 220.804V225H44.0369V220.804L40.358 214.818ZM52.4066 225.159C51.7172 225.159 51.1123 224.995 50.592 224.667C50.0749 224.339 49.6706 223.88 49.3789 223.29C49.0906 222.7 48.9464 222.01 48.9464 221.222C48.9464 220.426 49.0906 219.732 49.3789 219.138C49.6706 218.545 50.0749 218.085 50.592 217.756C51.1123 217.428 51.7172 217.264 52.4066 217.264C53.096 217.264 53.6992 217.428 54.2163 217.756C54.7366 218.085 55.141 218.545 55.4293 219.138C55.721 219.732 55.8668 220.426 55.8668 221.222C55.8668 222.01 55.721 222.7 55.4293 223.29C55.141 223.88 54.7366 224.339 54.2163 224.667C53.6992 224.995 53.096 225.159 52.4066 225.159ZM52.4066 224.105C52.9303 224.105 53.3612 223.971 53.6992 223.702C54.0373 223.434 54.2875 223.081 54.4499 222.643C54.6123 222.206 54.6935 221.732 54.6935 221.222C54.6935 220.711 54.6123 220.236 54.4499 219.795C54.2875 219.354 54.0373 218.998 53.6992 218.726C53.3612 218.454 52.9303 218.318 52.4066 218.318C51.8829 218.318 51.4521 218.454 51.114 218.726C50.7759 218.998 50.5257 219.354 50.3633 219.795C50.2009 220.236 50.1197 220.711 50.1197 221.222C50.1197 221.732 50.2009 222.206 50.3633 222.643C50.5257 223.081 50.7759 223.434 51.114 223.702C51.4521 223.971 51.8829 224.105 52.4066 224.105ZM62.4703 221.878V217.364H63.6436V225H62.4703V223.707H62.3908C62.2118 224.095 61.9334 224.425 61.5556 224.697C61.1777 224.965 60.7005 225.099 60.1238 225.099C59.6465 225.099 59.2222 224.995 58.851 224.786C58.4798 224.574 58.1882 224.256 57.976 223.832C57.7639 223.404 57.6578 222.866 57.6578 222.216V217.364H58.8311V222.136C58.8311 222.693 58.9869 223.137 59.2985 223.469C59.6133 223.8 60.0144 223.966 60.5016 223.966C60.7933 223.966 61.0899 223.891 61.3915 223.742C61.6964 223.593 61.9516 223.364 62.1571 223.056C62.3659 222.748 62.4703 222.355 62.4703 221.878ZM71.4602 225L69.1335 217.364H70.3665L72.017 223.21H72.0966L73.7273 217.364H74.9801L76.5909 223.19H76.6705L78.321 217.364H79.554L77.2273 225H76.0739L74.4034 219.134H74.2841L72.6136 225H71.4602ZM81.1051 225V217.364H82.2784V225H81.1051ZM81.7017 216.091C81.473 216.091 81.2758 216.013 81.1101 215.857C80.9477 215.701 80.8665 215.514 80.8665 215.295C80.8665 215.077 80.9477 214.889 81.1101 214.734C81.2758 214.578 81.473 214.5 81.7017 214.5C81.9304 214.5 82.1259 214.578 82.2884 214.734C82.4541 214.889 82.5369 215.077 82.5369 215.295C82.5369 215.514 82.4541 215.701 82.2884 215.857C82.1259 216.013 81.9304 216.091 81.7017 216.091ZM85.6007 214.818V225H84.4274V214.818H85.6007ZM88.9229 214.818V225H87.7496V214.818H88.9229ZM95.1685 225V214.818H96.3418V218.577H96.4412C96.5274 218.444 96.6467 218.275 96.7992 218.07C96.955 217.861 97.177 217.675 97.4654 217.513C97.757 217.347 98.1515 217.264 98.6486 217.264C99.2916 217.264 99.8584 217.425 100.349 217.746C100.839 218.068 101.222 218.524 101.497 219.114C101.772 219.704 101.91 220.4 101.91 221.202C101.91 222.01 101.772 222.711 101.497 223.305C101.222 223.895 100.841 224.352 100.354 224.677C99.8667 224.998 99.3049 225.159 98.6685 225.159C98.178 225.159 97.7852 225.078 97.4902 224.915C97.1953 224.75 96.9682 224.562 96.8091 224.354C96.65 224.142 96.5274 223.966 96.4412 223.827H96.302V225H95.1685ZM96.3219 221.182C96.3219 221.759 96.4064 222.267 96.5755 222.708C96.7445 223.146 96.9914 223.489 97.3162 223.737C97.641 223.982 98.0388 224.105 98.5094 224.105C98.9999 224.105 99.4093 223.976 99.7374 223.717C100.069 223.455 100.317 223.104 100.483 222.663C100.652 222.219 100.737 221.725 100.737 221.182C100.737 220.645 100.654 220.161 100.488 219.73C100.326 219.296 100.079 218.953 99.7473 218.701C99.4192 218.446 99.0066 218.318 98.5094 218.318C98.0321 218.318 97.6311 218.439 97.3063 218.681C96.9815 218.92 96.7362 219.254 96.5705 219.685C96.4048 220.113 96.3219 220.612 96.3219 221.182ZM106.906 225.159C106.171 225.159 105.536 224.997 105.002 224.672C104.472 224.344 104.063 223.886 103.774 223.3C103.489 222.71 103.347 222.024 103.347 221.241C103.347 220.459 103.489 219.77 103.774 219.173C104.063 218.573 104.464 218.106 104.977 217.771C105.494 217.433 106.098 217.264 106.787 217.264C107.185 217.264 107.578 217.33 107.965 217.463C108.353 217.596 108.706 217.811 109.024 218.109C109.343 218.404 109.596 218.795 109.785 219.283C109.974 219.77 110.068 220.37 110.068 221.082V221.58H104.182V220.565H108.875C108.875 220.134 108.789 219.75 108.617 219.412C108.448 219.074 108.206 218.807 107.891 218.612C107.579 218.416 107.211 218.318 106.787 218.318C106.32 218.318 105.915 218.434 105.574 218.666C105.236 218.895 104.976 219.193 104.794 219.561C104.611 219.929 104.52 220.323 104.52 220.744V221.42C104.52 221.997 104.619 222.486 104.818 222.887C105.021 223.285 105.301 223.588 105.659 223.797C106.017 224.002 106.432 224.105 106.906 224.105C107.215 224.105 107.493 224.062 107.742 223.976C107.994 223.886 108.211 223.754 108.393 223.578C108.575 223.399 108.716 223.177 108.816 222.912L109.949 223.23C109.83 223.615 109.629 223.953 109.347 224.244C109.066 224.533 108.718 224.758 108.303 224.92C107.889 225.08 107.423 225.159 106.906 225.159ZM115.791 227.864V217.364H116.924V218.577H117.063C117.15 218.444 117.269 218.275 117.421 218.07C117.577 217.861 117.799 217.675 118.088 217.513C118.379 217.347 118.774 217.264 119.271 217.264C119.914 217.264 120.481 217.425 120.971 217.746C121.462 218.068 121.844 218.524 122.119 219.114C122.395 219.704 122.532 220.4 122.532 221.202C122.532 222.01 122.395 222.711 122.119 223.305C121.844 223.895 121.463 224.352 120.976 224.677C120.489 224.998 119.927 225.159 119.291 225.159C118.8 225.159 118.407 225.078 118.112 224.915C117.817 224.75 117.59 224.562 117.431 224.354C117.272 224.142 117.15 223.966 117.063 223.827H116.964V227.864H115.791ZM116.944 221.182C116.944 221.759 117.029 222.267 117.198 222.708C117.367 223.146 117.614 223.489 117.938 223.737C118.263 223.982 118.661 224.105 119.132 224.105C119.622 224.105 120.031 223.976 120.36 223.717C120.691 223.455 120.94 223.104 121.105 222.663C121.274 222.219 121.359 221.725 121.359 221.182C121.359 220.645 121.276 220.161 121.11 219.73C120.948 219.296 120.701 218.953 120.369 218.701C120.041 218.446 119.629 218.318 119.132 218.318C118.654 218.318 118.253 218.439 117.928 218.681C117.604 218.92 117.358 219.254 117.193 219.685C117.027 220.113 116.944 220.612 116.944 221.182ZM126.569 225.179C126.085 225.179 125.646 225.088 125.252 224.906C124.857 224.72 124.544 224.453 124.312 224.105C124.08 223.754 123.964 223.33 123.964 222.832C123.964 222.395 124.05 222.04 124.222 221.768C124.395 221.493 124.625 221.278 124.914 221.122C125.202 220.966 125.52 220.85 125.868 220.774C126.219 220.695 126.572 220.632 126.927 220.585C127.391 220.526 127.767 220.481 128.056 220.451C128.347 220.418 128.559 220.363 128.692 220.287C128.828 220.211 128.896 220.078 128.896 219.889V219.849C128.896 219.359 128.762 218.978 128.493 218.706C128.228 218.434 127.825 218.298 127.285 218.298C126.725 218.298 126.286 218.421 125.968 218.666C125.649 218.911 125.426 219.173 125.296 219.452L124.183 219.054C124.382 218.59 124.647 218.229 124.978 217.97C125.313 217.708 125.677 217.526 126.072 217.423C126.47 217.317 126.861 217.264 127.245 217.264C127.49 217.264 127.772 217.294 128.09 217.354C128.412 217.41 128.722 217.528 129.02 217.707C129.322 217.886 129.572 218.156 129.771 218.517C129.97 218.878 130.069 219.362 130.069 219.969V225H128.896V223.966H128.836C128.757 224.132 128.624 224.309 128.438 224.498C128.253 224.687 128.006 224.848 127.698 224.98C127.389 225.113 127.013 225.179 126.569 225.179ZM126.748 224.125C127.212 224.125 127.603 224.034 127.921 223.852C128.243 223.669 128.485 223.434 128.647 223.146C128.813 222.857 128.896 222.554 128.896 222.236V221.162C128.846 221.222 128.737 221.276 128.568 221.326C128.402 221.372 128.21 221.414 127.991 221.45C127.776 221.483 127.565 221.513 127.36 221.54C127.157 221.563 126.993 221.583 126.867 221.599C126.562 221.639 126.277 221.704 126.012 221.793C125.75 221.879 125.538 222.01 125.376 222.186C125.217 222.358 125.137 222.594 125.137 222.892C125.137 223.3 125.288 223.608 125.59 223.817C125.895 224.022 126.281 224.125 126.748 224.125ZM132.693 227.864C132.494 227.864 132.317 227.847 132.161 227.814C132.005 227.784 131.897 227.754 131.838 227.724L132.136 226.69C132.421 226.763 132.673 226.79 132.892 226.77C133.11 226.75 133.304 226.652 133.473 226.477C133.646 226.304 133.803 226.024 133.946 225.636L134.164 225.04L131.341 217.364H132.613L134.721 223.449H134.801L136.909 217.364H138.181L134.94 226.114C134.794 226.508 134.614 226.835 134.398 227.093C134.183 227.355 133.932 227.549 133.647 227.675C133.366 227.801 133.047 227.864 132.693 227.864ZM139.73 225V217.364H140.903V225H139.73ZM140.327 216.091C140.098 216.091 139.901 216.013 139.735 215.857C139.573 215.701 139.491 215.514 139.491 215.295C139.491 215.077 139.573 214.889 139.735 214.734C139.901 214.578 140.098 214.5 140.327 214.5C140.555 214.5 140.751 214.578 140.913 214.734C141.079 214.889 141.162 215.077 141.162 215.295C141.162 215.514 141.079 215.701 140.913 215.857C140.751 216.013 140.555 216.091 140.327 216.091ZM144.226 220.406V225H143.052V217.364H144.186V218.557H144.285C144.464 218.169 144.736 217.857 145.101 217.622C145.465 217.384 145.936 217.264 146.513 217.264C147.03 217.264 147.482 217.37 147.87 217.582C148.258 217.791 148.559 218.109 148.775 218.537C148.99 218.961 149.098 219.498 149.098 220.148V225H147.925V220.227C147.925 219.627 147.769 219.16 147.457 218.825C147.146 218.487 146.718 218.318 146.175 218.318C145.8 218.318 145.465 218.399 145.17 218.562C144.879 218.724 144.648 218.961 144.479 219.273C144.31 219.584 144.226 219.962 144.226 220.406ZM154.324 228.023C153.757 228.023 153.27 227.95 152.863 227.804C152.455 227.661 152.115 227.473 151.843 227.237C151.575 227.005 151.361 226.757 151.202 226.491L152.137 225.835C152.243 225.974 152.377 226.134 152.539 226.312C152.702 226.495 152.924 226.652 153.206 226.785C153.491 226.921 153.864 226.989 154.324 226.989C154.941 226.989 155.449 226.839 155.85 226.541C156.252 226.243 156.452 225.776 156.452 225.139V223.588H156.353C156.266 223.727 156.144 223.9 155.985 224.105C155.829 224.307 155.604 224.488 155.309 224.647C155.017 224.803 154.623 224.881 154.125 224.881C153.509 224.881 152.955 224.735 152.465 224.443C151.978 224.152 151.592 223.727 151.306 223.17C151.025 222.614 150.884 221.937 150.884 221.142C150.884 220.36 151.021 219.679 151.297 219.099C151.572 218.515 151.954 218.065 152.445 217.746C152.935 217.425 153.502 217.264 154.145 217.264C154.642 217.264 155.037 217.347 155.328 217.513C155.623 217.675 155.849 217.861 156.005 218.07C156.164 218.275 156.286 218.444 156.373 218.577H156.492V217.364H157.625V225.219C157.625 225.875 157.476 226.409 157.178 226.82C156.883 227.234 156.485 227.537 155.985 227.729C155.488 227.925 154.934 228.023 154.324 228.023ZM154.284 223.827C154.755 223.827 155.153 223.719 155.478 223.504C155.802 223.288 156.049 222.978 156.218 222.574C156.387 222.17 156.472 221.686 156.472 221.122C156.472 220.572 156.389 220.086 156.223 219.665C156.058 219.245 155.812 218.915 155.488 218.676C155.163 218.437 154.762 218.318 154.284 218.318C153.787 218.318 153.373 218.444 153.042 218.696C152.713 218.948 152.467 219.286 152.301 219.71C152.138 220.134 152.057 220.605 152.057 221.122C152.057 221.652 152.14 222.121 152.306 222.529C152.475 222.933 152.723 223.252 153.051 223.484C153.383 223.712 153.794 223.827 154.284 223.827Z" fill="#797979"/>
<path d="M315.626 226.393V224.755H317.089V226.393H315.626ZM315.626 215.172V213.527H317.089V215.172H315.626ZM316.431 225.21C315.731 225.21 315.106 225.084 314.555 224.832C314.004 224.58 313.552 224.223 313.197 223.761C312.847 223.294 312.618 222.744 312.511 222.109L313.96 221.878C314.1 222.475 314.399 222.951 314.856 223.306C315.313 223.656 315.862 223.831 316.501 223.831C317.136 223.831 317.651 223.679 318.048 223.376C318.449 223.073 318.65 222.685 318.65 222.214C318.65 221.878 318.547 221.605 318.342 221.395C318.141 221.185 317.812 221.008 317.355 220.863L314.989 220.135C313.589 219.701 312.889 218.861 312.889 217.615C312.889 217.027 313.029 216.516 313.309 216.082C313.594 215.648 313.993 215.312 314.506 215.074C315.019 214.836 315.619 214.717 316.305 214.717C316.963 214.726 317.546 214.848 318.055 215.081C318.568 215.314 318.993 215.65 319.329 216.089C319.67 216.528 319.905 217.055 320.036 217.671L318.545 217.937C318.48 217.578 318.342 217.26 318.132 216.985C317.927 216.71 317.665 216.495 317.348 216.341C317.035 216.187 316.683 216.108 316.291 216.103C315.922 216.094 315.591 216.152 315.297 216.278C315.008 216.399 314.777 216.572 314.604 216.796C314.436 217.015 314.352 217.265 314.352 217.545C314.352 217.853 314.471 218.114 314.709 218.329C314.947 218.544 315.323 218.728 315.836 218.882L317.691 219.421C318.54 219.673 319.154 220.011 319.532 220.436C319.91 220.861 320.099 221.425 320.099 222.13C320.099 222.746 319.945 223.285 319.637 223.747C319.334 224.204 318.907 224.564 318.356 224.825C317.805 225.082 317.164 225.21 316.431 225.21Z" fill="#1D1D1F"/>
<path d="M323.7 224.986V223.516L328.012 219.673C328.348 219.374 328.581 219.092 328.712 218.826C328.843 218.56 328.908 218.303 328.908 218.056C328.908 217.72 328.836 217.421 328.691 217.16C328.546 216.894 328.346 216.684 328.089 216.53C327.837 216.376 327.545 216.299 327.214 216.299C326.864 216.299 326.554 216.381 326.283 216.544C326.017 216.703 325.809 216.915 325.66 217.181C325.511 217.447 325.441 217.734 325.45 218.042H323.714C323.714 217.37 323.863 216.784 324.162 216.285C324.465 215.786 324.881 215.398 325.408 215.123C325.94 214.848 326.554 214.71 327.249 214.71C327.893 214.71 328.472 214.855 328.985 215.144C329.498 215.429 329.902 215.825 330.196 216.334C330.49 216.838 330.637 217.419 330.637 218.077C330.637 218.558 330.572 218.961 330.441 219.288C330.31 219.615 330.114 219.916 329.853 220.191C329.596 220.466 329.277 220.772 328.894 221.108L325.835 223.817L325.681 223.397H330.637V224.986H323.7ZM335.806 225.21C335.092 225.21 334.462 225.058 333.916 224.755C333.37 224.447 332.943 224.02 332.635 223.474C332.332 222.928 332.18 222.298 332.18 221.584V218.336C332.18 217.622 332.332 216.992 332.635 216.446C332.943 215.9 333.37 215.475 333.916 215.172C334.462 214.864 335.092 214.71 335.806 214.71C336.52 214.71 337.148 214.864 337.689 215.172C338.235 215.475 338.662 215.9 338.97 216.446C339.278 216.992 339.432 217.622 339.432 218.336V221.584C339.432 222.298 339.278 222.928 338.97 223.474C338.662 224.02 338.235 224.447 337.689 224.755C337.148 225.058 336.52 225.21 335.806 225.21ZM335.806 223.607C336.161 223.607 336.483 223.523 336.772 223.355C337.061 223.182 337.29 222.954 337.458 222.669C337.626 222.38 337.71 222.058 337.71 221.703V218.21C337.71 217.851 337.626 217.529 337.458 217.244C337.29 216.955 337.061 216.726 336.772 216.558C336.483 216.385 336.161 216.299 335.806 216.299C335.451 216.299 335.129 216.385 334.84 216.558C334.551 216.726 334.322 216.955 334.154 217.244C333.986 217.529 333.902 217.851 333.902 218.21V221.703C333.902 222.058 333.986 222.38 334.154 222.669C334.322 222.954 334.551 223.182 334.84 223.355C335.129 223.523 335.451 223.607 335.806 223.607ZM344.881 225.21C344.167 225.21 343.537 225.058 342.991 224.755C342.445 224.447 342.018 224.02 341.71 223.474C341.406 222.928 341.255 222.298 341.255 221.584V218.336C341.255 217.622 341.406 216.992 341.71 216.446C342.018 215.9 342.445 215.475 342.991 215.172C343.537 214.864 344.167 214.71 344.881 214.71C345.595 214.71 346.222 214.864 346.764 215.172C347.31 215.475 347.737 215.9 348.045 216.446C348.353 216.992 348.507 217.622 348.507 218.336V221.584C348.507 222.298 348.353 222.928 348.045 223.474C347.737 224.02 347.31 224.447 346.764 224.755C346.222 225.058 345.595 225.21 344.881 225.21ZM344.881 223.607C345.235 223.607 345.557 223.523 345.847 223.355C346.136 223.182 346.365 222.954 346.533 222.669C346.701 222.38 346.785 222.058 346.785 221.703V218.21C346.785 217.851 346.701 217.529 346.533 217.244C346.365 216.955 346.136 216.726 345.847 216.558C345.557 216.385 345.235 216.299 344.881 216.299C344.526 216.299 344.204 216.385 343.915 216.558C343.625 216.726 343.397 216.955 343.229 217.244C343.061 217.529 342.977 217.851 342.977 218.21V221.703C342.977 222.058 343.061 222.38 343.229 222.669C343.397 222.954 343.625 223.182 343.915 223.355C344.204 223.523 344.526 223.607 344.881 223.607Z" fill="#1D1D1F"/>
<defs>
<clipPath id="clip0_704_1935">
<rect width="38.4" height="20.8168" fill="white" transform="translate(36.7998 68.7998)"/>
</clipPath>
<clipPath id="clip1_704_1935">
<rect width="12" height="12" fill="white" transform="translate(127 163)"/>
</clipPath>
</defs>
</svg>
