<svg width="342" height="15" viewBox="0 0 342 15" fill="none" xmlns="http://www.w3.org/2000/svg">
<path d="M1.12 12V2.2H7.154V3.264H2.296V6.54H6.762V7.604H2.296V10.936H7.224V12H1.12ZM8.49067 12L11.2347 8.528L8.57467 5.154H9.90467L11.9487 7.8H12.1447L14.1747 5.154H15.5187L12.8447 8.528L15.5887 12H14.2447L12.1447 9.27H11.9487L9.84867 12H8.49067ZM20.0347 12.196C19.372 12.196 18.7747 12.056 18.2427 11.776C17.72 11.4867 17.3047 11.076 16.9967 10.544C16.698 10.012 16.5487 9.382 16.5487 8.654V8.5C16.5487 7.76267 16.698 7.13267 16.9967 6.61C17.3047 6.078 17.72 5.672 18.2427 5.392C18.7747 5.10267 19.372 4.958 20.0347 4.958C20.688 4.958 21.2433 5.07933 21.7007 5.322C22.1673 5.56467 22.5313 5.88667 22.7927 6.288C23.0633 6.68933 23.236 7.11867 23.3107 7.576L22.2327 7.8C22.186 7.464 22.074 7.156 21.8967 6.876C21.7287 6.596 21.4907 6.372 21.1827 6.204C20.8747 6.036 20.4967 5.952 20.0487 5.952C19.5913 5.952 19.1807 6.05467 18.8167 6.26C18.462 6.46533 18.1773 6.75933 17.9627 7.142C17.7573 7.52467 17.6547 7.982 17.6547 8.514V8.64C17.6547 9.172 17.7573 9.62933 17.9627 10.012C18.1773 10.3947 18.462 10.6887 18.8167 10.894C19.1807 11.0993 19.5913 11.202 20.0487 11.202C20.73 11.202 21.248 11.0247 21.6027 10.67C21.9667 10.3153 22.1907 9.87667 22.2747 9.354L23.3667 9.592C23.264 10.04 23.0773 10.4647 22.8067 10.866C22.536 11.2673 22.1673 11.5893 21.7007 11.832C21.2433 12.0747 20.688 12.196 20.0347 12.196ZM25.2518 12V2.2H26.3578V6.246H26.5538C26.6472 6.04067 26.7872 5.84933 26.9738 5.672C27.1698 5.48533 27.4172 5.33133 27.7158 5.21C28.0238 5.08867 28.4112 5.028 28.8778 5.028C29.3912 5.028 29.8485 5.14 30.2498 5.364C30.6605 5.57867 30.9872 5.896 31.2298 6.316C31.4725 6.72667 31.5938 7.24 31.5938 7.856V12H30.4878V7.94C30.4878 7.25867 30.3152 6.764 29.9698 6.456C29.6338 6.148 29.1765 5.994 28.5978 5.994C27.9352 5.994 27.3938 6.20867 26.9738 6.638C26.5632 7.06733 26.3578 7.70667 26.3578 8.556V12H25.2518ZM35.9378 12.196C35.4618 12.196 35.0278 12.112 34.6358 11.944C34.2438 11.776 33.9358 11.5333 33.7118 11.216C33.4878 10.8987 33.3758 10.5113 33.3758 10.054C33.3758 9.58733 33.4878 9.20467 33.7118 8.906C33.9358 8.598 34.2438 8.36933 34.6358 8.22C35.0278 8.06133 35.4664 7.982 35.9518 7.982H38.2618V7.478C38.2618 6.99267 38.1171 6.61 37.8278 6.33C37.5478 6.05 37.1278 5.91 36.5678 5.91C36.0171 5.91 35.5878 6.04533 35.2798 6.316C34.9718 6.57733 34.7618 6.932 34.6498 7.38L33.6138 7.044C33.7258 6.66133 33.9031 6.316 34.1458 6.008C34.3884 5.69067 34.7104 5.43867 35.1118 5.252C35.5224 5.056 36.0124 4.958 36.5818 4.958C37.4591 4.958 38.1404 5.18667 38.6258 5.644C39.1111 6.092 39.3538 6.72667 39.3538 7.548V10.642C39.3538 10.922 39.4844 11.062 39.7458 11.062H40.3758V12H39.4098C39.1018 12 38.8544 11.916 38.6678 11.748C38.4811 11.5707 38.3878 11.3373 38.3878 11.048V10.978H38.2198C38.1171 11.1553 37.9771 11.342 37.7998 11.538C37.6318 11.7247 37.3984 11.8787 37.0998 12C36.8011 12.1307 36.4138 12.196 35.9378 12.196ZM36.0638 11.244C36.7171 11.244 37.2444 11.0527 37.6458 10.67C38.0564 10.278 38.2618 9.732 38.2618 9.032V8.878H35.9938C35.5551 8.878 35.1911 8.976 34.9018 9.172C34.6218 9.35867 34.4818 9.64333 34.4818 10.026C34.4818 10.4087 34.6264 10.7073 34.9158 10.922C35.2144 11.1367 35.5971 11.244 36.0638 11.244ZM41.8905 12V5.154H42.9685V6.316H43.1645C43.3138 5.98933 43.5658 5.69533 43.9205 5.434C44.2845 5.16333 44.8165 5.028 45.5165 5.028C46.0298 5.028 46.4872 5.13533 46.8885 5.35C47.2992 5.56467 47.6258 5.882 47.8685 6.302C48.1112 6.722 48.2325 7.24 48.2325 7.856V12H47.1265V7.94C47.1265 7.25867 46.9538 6.764 46.6085 6.456C46.2725 6.148 45.8152 5.994 45.2365 5.994C44.5738 5.994 44.0325 6.20867 43.6125 6.638C43.2018 7.06733 42.9965 7.70667 42.9965 8.556V12H41.8905ZM50.1405 8.612V8.416C50.1405 7.69733 50.2851 7.08133 50.5745 6.568C50.8638 6.05467 51.2558 5.658 51.7505 5.378C52.2451 5.098 52.7865 4.958 53.3745 4.958C54.0931 4.958 54.6438 5.098 55.0265 5.378C55.4185 5.64867 55.7078 5.952 55.8945 6.288H56.0905V5.154H57.1405V13.596C57.1405 13.9693 57.0378 14.2633 56.8325 14.478C56.6271 14.6927 56.3285 14.8 55.9365 14.8H51.2885V13.82H55.6425C55.9225 13.82 56.0625 13.68 56.0625 13.4V10.796H55.8665C55.7545 11.0013 55.5958 11.202 55.3905 11.398C55.1851 11.594 54.9191 11.7573 54.5925 11.888C54.2658 12.0093 53.8598 12.07 53.3745 12.07C52.7865 12.07 52.2451 11.93 51.7505 11.65C51.2558 11.37 50.8638 10.9733 50.5745 10.46C50.2851 9.93733 50.1405 9.32133 50.1405 8.612ZM53.6685 11.09C54.3778 11.09 54.9518 10.866 55.3905 10.418C55.8385 9.97 56.0625 9.354 56.0625 8.57V8.458C56.0625 7.66467 55.8385 7.04867 55.3905 6.61C54.9518 6.162 54.3778 5.938 53.6685 5.938C52.9685 5.938 52.3898 6.162 51.9325 6.61C51.4845 7.04867 51.2605 7.66467 51.2605 8.458V8.57C51.2605 9.354 51.4845 9.97 51.9325 10.418C52.3898 10.866 52.9685 11.09 53.6685 11.09ZM62.5949 12.196C61.9042 12.196 61.2975 12.0513 60.7749 11.762C60.2522 11.4633 59.8462 11.048 59.5569 10.516C59.2675 9.984 59.1229 9.368 59.1229 8.668V8.5C59.1229 7.79067 59.2675 7.17 59.5569 6.638C59.8462 6.106 60.2475 5.69533 60.7609 5.406C61.2742 5.10733 61.8622 4.958 62.5249 4.958C63.1689 4.958 63.7382 5.098 64.2329 5.378C64.7275 5.64867 65.1149 6.04067 65.3949 6.554C65.6749 7.06733 65.8149 7.66933 65.8149 8.36V8.864H60.2289C60.2569 9.60133 60.4949 10.18 60.9429 10.6C61.3909 11.0107 61.9509 11.216 62.6229 11.216C63.2109 11.216 63.6635 11.0807 63.9809 10.81C64.2982 10.5393 64.5409 10.2173 64.7089 9.844L65.6609 10.306C65.5209 10.5953 65.3249 10.8847 65.0729 11.174C64.8302 11.4633 64.5082 11.706 64.1069 11.902C63.7149 12.098 63.2109 12.196 62.5949 12.196ZM60.2429 7.954H64.6949C64.6575 7.31933 64.4382 6.82467 64.0369 6.47C63.6449 6.11533 63.1409 5.938 62.5249 5.938C61.8995 5.938 61.3862 6.11533 60.9849 6.47C60.5835 6.82467 60.3362 7.31933 60.2429 7.954ZM71.3397 12V5.154H72.4177V5.994H72.6137C72.7351 5.69533 72.9217 5.476 73.1737 5.336C73.4257 5.196 73.7571 5.126 74.1677 5.126H74.9797V6.134H74.0977C73.6031 6.134 73.2017 6.274 72.8937 6.554C72.5951 6.82467 72.4457 7.24933 72.4457 7.828V12H71.3397ZM78.4847 12.196C78.0087 12.196 77.5747 12.112 77.1827 11.944C76.7907 11.776 76.4827 11.5333 76.2587 11.216C76.0347 10.8987 75.9227 10.5113 75.9227 10.054C75.9227 9.58733 76.0347 9.20467 76.2587 8.906C76.4827 8.598 76.7907 8.36933 77.1827 8.22C77.5747 8.06133 78.0133 7.982 78.4987 7.982H80.8087V7.478C80.8087 6.99267 80.664 6.61 80.3747 6.33C80.0947 6.05 79.6747 5.91 79.1147 5.91C78.564 5.91 78.1347 6.04533 77.8267 6.316C77.5187 6.57733 77.3087 6.932 77.1967 7.38L76.1607 7.044C76.2727 6.66133 76.45 6.316 76.6927 6.008C76.9353 5.69067 77.2573 5.43867 77.6587 5.252C78.0693 5.056 78.5593 4.958 79.1287 4.958C80.006 4.958 80.6873 5.18667 81.1727 5.644C81.658 6.092 81.9007 6.72667 81.9007 7.548V10.642C81.9007 10.922 82.0313 11.062 82.2927 11.062H82.9227V12H81.9567C81.6487 12 81.4013 11.916 81.2147 11.748C81.028 11.5707 80.9347 11.3373 80.9347 11.048V10.978H80.7667C80.664 11.1553 80.524 11.342 80.3467 11.538C80.1787 11.7247 79.9453 11.8787 79.6467 12C79.348 12.1307 78.9607 12.196 78.4847 12.196ZM78.6107 11.244C79.264 11.244 79.7913 11.0527 80.1927 10.67C80.6033 10.278 80.8087 9.732 80.8087 9.032V8.878H78.5407C78.102 8.878 77.738 8.976 77.4487 9.172C77.1687 9.35867 77.0287 9.64333 77.0287 10.026C77.0287 10.4087 77.1733 10.7073 77.4627 10.922C77.7613 11.1367 78.144 11.244 78.6107 11.244ZM86.5062 12C86.1142 12 85.8109 11.8927 85.5962 11.678C85.3909 11.4633 85.2882 11.1693 85.2882 10.796V6.12H83.2302V5.154H85.2882V2.718H86.3942V5.154H88.6342V6.12H86.3942V10.628C86.3942 10.908 86.5296 11.048 86.8002 11.048H88.3262V12H86.5062ZM93.3156 12.196C92.6249 12.196 92.0182 12.0513 91.4956 11.762C90.9729 11.4633 90.5669 11.048 90.2776 10.516C89.9882 9.984 89.8436 9.368 89.8436 8.668V8.5C89.8436 7.79067 89.9882 7.17 90.2776 6.638C90.5669 6.106 90.9682 5.69533 91.4816 5.406C91.9949 5.10733 92.5829 4.958 93.2456 4.958C93.8896 4.958 94.4589 5.098 94.9536 5.378C95.4482 5.64867 95.8356 6.04067 96.1156 6.554C96.3956 7.06733 96.5356 7.66933 96.5356 8.36V8.864H90.9496C90.9776 9.60133 91.2156 10.18 91.6636 10.6C92.1116 11.0107 92.6716 11.216 93.3436 11.216C93.9316 11.216 94.3842 11.0807 94.7016 10.81C95.0189 10.5393 95.2616 10.2173 95.4296 9.844L96.3816 10.306C96.2416 10.5953 96.0456 10.8847 95.7936 11.174C95.5509 11.4633 95.2289 11.706 94.8276 11.902C94.4356 12.098 93.9316 12.196 93.3156 12.196ZM90.9636 7.954H95.4156C95.3782 7.31933 95.1589 6.82467 94.7576 6.47C94.3656 6.11533 93.8616 5.938 93.2456 5.938C92.6202 5.938 92.1069 6.11533 91.7056 6.47C91.3042 6.82467 91.0569 7.31933 90.9636 7.954ZM101.223 12.196C100.373 12.196 99.6547 12 99.0667 11.608C98.4881 11.216 98.1381 10.5953 98.0167 9.746L99.0667 9.508C99.1414 9.956 99.2814 10.3107 99.4867 10.572C99.6921 10.824 99.9441 11.006 100.243 11.118C100.551 11.2207 100.877 11.272 101.223 11.272C101.736 11.272 102.142 11.1693 102.441 10.964C102.739 10.7587 102.889 10.4833 102.889 10.138C102.889 9.78333 102.744 9.536 102.455 9.396C102.175 9.24667 101.787 9.12533 101.293 9.032L100.719 8.934C100.28 8.85933 99.8787 8.74267 99.5147 8.584C99.1507 8.42533 98.8614 8.21067 98.6467 7.94C98.4321 7.66933 98.3247 7.32867 98.3247 6.918C98.3247 6.302 98.5627 5.82133 99.0387 5.476C99.5147 5.13067 100.145 4.958 100.929 4.958C101.703 4.958 102.329 5.13533 102.805 5.49C103.29 5.83533 103.603 6.32533 103.743 6.96L102.707 7.226C102.623 6.73133 102.422 6.386 102.105 6.19C101.787 5.98467 101.395 5.882 100.929 5.882C100.462 5.882 100.093 5.97067 99.8227 6.148C99.5521 6.316 99.4167 6.568 99.4167 6.904C99.4167 7.23067 99.5427 7.47333 99.7947 7.632C100.056 7.78133 100.401 7.89333 100.831 7.968L101.405 8.066C101.89 8.15 102.324 8.26667 102.707 8.416C103.099 8.556 103.407 8.76133 103.631 9.032C103.864 9.30267 103.981 9.65733 103.981 10.096C103.981 10.768 103.729 11.286 103.225 11.65C102.73 12.014 102.063 12.196 101.223 12.196Z" fill="#797979"/>
<path d="M0 13.75H104.681V14.45H0V13.75Z" fill="#797979"/>
<path d="M286.626 13.393V11.755H288.089V13.393H286.626ZM286.626 2.172V0.527H288.089V2.172H286.626ZM287.431 12.21C286.731 12.21 286.106 12.084 285.555 11.832C285.004 11.58 284.552 11.223 284.197 10.761C283.847 10.2943 283.618 9.74367 283.511 9.109L284.96 8.878C285.1 9.47533 285.399 9.95133 285.856 10.306C286.313 10.656 286.862 10.831 287.501 10.831C288.136 10.831 288.651 10.6793 289.048 10.376C289.449 10.0727 289.65 9.68533 289.65 9.214C289.65 8.878 289.547 8.605 289.342 8.395C289.141 8.185 288.812 8.00767 288.355 7.863L285.989 7.135C284.589 6.701 283.889 5.861 283.889 4.615C283.889 4.027 284.029 3.516 284.309 3.082C284.594 2.648 284.993 2.312 285.506 2.074C286.019 1.836 286.619 1.717 287.305 1.717C287.963 1.72633 288.546 1.84767 289.055 2.081C289.568 2.31433 289.993 2.65033 290.329 3.089C290.67 3.52767 290.905 4.055 291.036 4.671L289.545 4.937C289.48 4.57767 289.342 4.26033 289.132 3.985C288.927 3.70967 288.665 3.495 288.348 3.341C288.035 3.187 287.683 3.10767 287.291 3.103C286.922 3.09367 286.591 3.152 286.297 3.278C286.008 3.39933 285.777 3.572 285.604 3.796C285.436 4.01533 285.352 4.265 285.352 4.545C285.352 4.853 285.471 5.11433 285.709 5.329C285.947 5.54367 286.323 5.728 286.836 5.882L288.691 6.421C289.54 6.673 290.154 7.01133 290.532 7.436C290.91 7.86067 291.099 8.42533 291.099 9.13C291.099 9.746 290.945 10.285 290.637 10.747C290.334 11.2043 289.907 11.5637 289.356 11.825C288.805 12.0817 288.164 12.21 287.431 12.21ZM294.21 12V3.53L292.313 4.685V3.054L294.21 1.92H295.701V12H294.21Z" fill="#797979"/>
<path d="M303.68 6.267V5.091H310.82V6.267H303.68ZM303.68 8.829V7.653H310.82V8.829H303.68Z" fill="#797979"/>
<path d="M317.98 1.92H320.451C320.549 1.92 320.67 1.92467 320.815 1.934C320.96 1.93867 321.095 1.95267 321.221 1.976C321.786 2.06467 322.255 2.25833 322.628 2.557C323.006 2.851 323.288 3.222 323.475 3.67C323.662 4.11333 323.755 4.60567 323.755 5.147C323.755 5.93567 323.566 6.60767 323.188 7.163C322.81 7.71367 322.243 8.08233 321.487 8.269C321.305 8.31567 321.137 8.346 320.983 8.36C320.829 8.374 320.647 8.381 320.437 8.381H317.98V6.995H320.395C320.484 6.995 320.584 6.99033 320.696 6.981C320.813 6.97167 320.922 6.95533 321.025 6.932C321.328 6.85733 321.569 6.72667 321.746 6.54C321.928 6.35333 322.059 6.13633 322.138 5.889C322.222 5.64167 322.264 5.39433 322.264 5.147C322.264 4.89967 322.222 4.65233 322.138 4.405C322.059 4.15767 321.928 3.94067 321.746 3.754C321.569 3.56733 321.328 3.439 321.025 3.369C320.922 3.341 320.813 3.32233 320.696 3.313C320.584 3.30367 320.484 3.299 320.395 3.299H317.98V1.92ZM317.98 8.381L319.548 7.961L324.105 12H322.033L317.98 8.381ZM318.015 5.721V4.58H324.875V5.721H318.015ZM320.283 3.061V1.92H324.833V3.061H320.283ZM329.639 12.21C328.981 12.21 328.398 12.0793 327.889 11.818C327.385 11.552 326.989 11.1833 326.699 10.712C326.415 10.2407 326.272 9.69467 326.272 9.074C326.272 8.49533 326.408 7.96567 326.678 7.485C326.949 7.00433 327.353 6.62633 327.889 6.351L327.861 6.855C327.432 6.589 327.101 6.25767 326.867 5.861C326.639 5.45967 326.524 5.01167 326.524 4.517C326.524 3.943 326.657 3.446 326.923 3.026C327.189 2.606 327.556 2.28167 328.022 2.053C328.494 1.82433 329.033 1.71 329.639 1.71C330.246 1.71 330.783 1.82433 331.249 2.053C331.716 2.28167 332.082 2.606 332.348 3.026C332.614 3.446 332.747 3.943 332.747 4.517C332.747 5.01167 332.638 5.45733 332.418 5.854C332.199 6.25067 331.863 6.58433 331.41 6.855L331.389 6.365C331.921 6.62633 332.325 6.99967 332.6 7.485C332.876 7.96567 333.013 8.49533 333.013 9.074C333.013 9.69467 332.869 10.2407 332.579 10.712C332.29 11.1833 331.891 11.552 331.382 11.818C330.874 12.0793 330.293 12.21 329.639 12.21ZM329.639 10.817C330.181 10.817 330.619 10.67 330.955 10.376C331.291 10.0773 331.459 9.64333 331.459 9.074C331.459 8.50467 331.291 8.07067 330.955 7.772C330.624 7.46867 330.185 7.317 329.639 7.317C329.093 7.317 328.652 7.46867 328.316 7.772C327.985 8.07067 327.819 8.50467 327.819 9.074C327.819 9.64333 327.987 10.0773 328.323 10.376C328.659 10.67 329.098 10.817 329.639 10.817ZM329.639 5.917C330.101 5.917 330.475 5.80267 330.759 5.574C331.049 5.34067 331.193 4.98833 331.193 4.517C331.193 4.04567 331.049 3.69333 330.759 3.46C330.475 3.222 330.101 3.103 329.639 3.103C329.177 3.103 328.802 3.222 328.512 3.46C328.223 3.69333 328.078 4.04567 328.078 4.517C328.078 4.98833 328.223 5.34067 328.512 5.574C328.802 5.80267 329.177 5.917 329.639 5.917ZM337.515 12.189C337.016 12.189 336.547 12.0957 336.108 11.909C335.669 11.7177 335.289 11.447 334.967 11.097C334.65 10.747 334.419 10.334 334.274 9.858L335.688 9.466C335.823 9.9 336.059 10.2337 336.395 10.467C336.731 10.6957 337.104 10.8077 337.515 10.803C337.884 10.7983 338.208 10.712 338.488 10.544C338.768 10.376 338.987 10.1497 339.146 9.865C339.305 9.57567 339.384 9.24433 339.384 8.871C339.384 8.311 339.209 7.849 338.859 7.485C338.514 7.121 338.061 6.939 337.501 6.939C337.342 6.939 337.179 6.96233 337.011 7.009C336.848 7.05567 336.694 7.11633 336.549 7.191L335.863 6.036L339.419 2.893L339.573 3.313H334.673V1.92H340.735V3.313L337.781 6.155L337.767 5.679C338.402 5.679 338.952 5.82133 339.419 6.106C339.886 6.386 340.245 6.76867 340.497 7.254C340.754 7.73467 340.882 8.27367 340.882 8.871C340.882 9.515 340.73 10.0867 340.427 10.586C340.128 11.0853 339.725 11.4773 339.216 11.762C338.712 12.0467 338.145 12.189 337.515 12.189Z" fill="#797979"/>
</svg>
