<svg width="124" height="124" viewBox="0 0 124 124" fill="none" xmlns="http://www.w3.org/2000/svg">
<rect width="124" height="124" rx="62" fill="#999999" fill-opacity="0.27"/>
<path d="M89.3636 73.1016V77.8956C89.3636 84.4286 84.0649 89.7273 77.5289 89.7273H73.6104" stroke="black" stroke-width="4.56" stroke-linecap="round" stroke-linejoin="round"/>
<path d="M34.6367 73.1016V77.8956C34.6367 84.4286 39.9354 89.7273 46.4714 89.7273H50.2927" stroke="black" stroke-width="4.56" stroke-linecap="round" stroke-linejoin="round"/>
<path d="M34.6367 51.6355V46.8414C34.6367 40.3054 39.9354 35.0098 46.4714 35.0098H50.3899" stroke="black" stroke-width="4.56" stroke-linecap="round" stroke-linejoin="round"/>
<path d="M89.3616 51.6355V46.8414C89.3616 40.3054 84.0628 35.0098 77.5268 35.0098H73.7056" stroke="black" stroke-width="4.56" stroke-linecap="round" stroke-linejoin="round"/>
<path d="M51.5474 49.6738V51.5343M72.4564 49.6738V51.5343" stroke="black" stroke-width="4.56" stroke-linecap="round" stroke-linejoin="round"/>
<path d="M63.4216 53.6758V59.667C63.4216 61.2563 62.9261 62.2713 61.5697 63.0994L60.6431 63.7016" stroke="black" stroke-width="4.56" stroke-linecap="round" stroke-linejoin="round"/>
<path d="M51.5474 70.668C58.5849 76.4531 65.5556 76.5656 72.4564 70.668" stroke="black" stroke-width="4.56" stroke-linecap="round" stroke-linejoin="round"/>
</svg>
