<svg width="393" height="852" viewBox="0 0 393 852" fill="none" xmlns="http://www.w3.org/2000/svg">
<rect width="393" height="852" fill="black" fill-opacity="0.6"/>
<g filter="url(#filter0_b_1140_3299)">
<rect x="118.801" y="346.128" width="155" height="157" rx="8" fill="#252525" fill-opacity="0.7"/>
<rect x="118.801" y="346.128" width="155" height="157" rx="8" fill="#9C9C9C" style="mix-blend-mode:overlay"/>
<path d="M168.811 479.128V467.15H176.083V468.495H170.305V472.612H175.61V473.94H170.305V479.128H168.811ZM179.833 479.286C179.269 479.286 178.76 479.178 178.306 478.962C177.858 478.746 177.501 478.439 177.235 478.041C176.975 477.642 176.845 477.172 176.845 476.629V476.613C176.845 476.082 176.972 475.628 177.227 475.251C177.481 474.87 177.852 474.571 178.339 474.355C178.826 474.139 179.415 474.012 180.107 473.973L183.394 473.774V474.928L180.281 475.127C179.601 475.166 179.103 475.307 178.787 475.55C178.477 475.794 178.322 476.137 178.322 476.58V476.596C178.322 477.05 178.494 477.404 178.837 477.659C179.18 477.908 179.612 478.032 180.132 478.032C180.625 478.032 181.062 477.935 181.444 477.742C181.825 477.542 182.124 477.274 182.34 476.937C182.561 476.599 182.672 476.217 182.672 475.791V473.002C182.672 472.449 182.503 472.028 182.166 471.74C181.834 471.447 181.333 471.3 180.663 471.3C180.126 471.3 179.687 471.397 179.343 471.591C179 471.779 178.771 472.047 178.654 472.396L178.646 472.421H177.202L177.21 472.371C177.288 471.901 177.481 471.491 177.791 471.143C178.107 470.788 178.513 470.514 179.011 470.321C179.509 470.122 180.077 470.022 180.713 470.022C181.444 470.022 182.061 470.141 182.564 470.379C183.073 470.617 183.458 470.96 183.718 471.408C183.984 471.851 184.116 472.382 184.116 473.002V479.128H182.672V477.808H182.539C182.351 478.124 182.121 478.392 181.85 478.613C181.585 478.835 181.283 479.003 180.946 479.12C180.608 479.23 180.237 479.286 179.833 479.286ZM190.017 479.286C189.181 479.286 188.456 479.095 187.842 478.713C187.228 478.331 186.752 477.792 186.414 477.094C186.077 476.397 185.908 475.575 185.908 474.629V474.612C185.908 473.683 186.074 472.875 186.406 472.188C186.743 471.502 187.219 470.971 187.834 470.595C188.448 470.213 189.173 470.022 190.008 470.022C190.733 470.022 191.359 470.149 191.884 470.404C192.41 470.658 192.831 471.001 193.146 471.433C193.462 471.859 193.664 472.338 193.752 472.869L193.76 472.919H192.324L192.316 472.894C192.205 472.451 191.954 472.075 191.561 471.765C191.168 471.455 190.65 471.3 190.008 471.3C189.472 471.3 189.007 471.436 188.614 471.707C188.221 471.978 187.917 472.363 187.701 472.861C187.49 473.353 187.385 473.937 187.385 474.612V474.629C187.385 475.315 187.493 475.913 187.709 476.422C187.925 476.925 188.229 477.316 188.622 477.592C189.015 477.869 189.477 478.007 190.008 478.007C190.612 478.007 191.104 477.877 191.486 477.617C191.868 477.357 192.142 476.978 192.308 476.48L192.324 476.43L193.752 476.422L193.735 476.513C193.614 477.05 193.398 477.529 193.088 477.949C192.778 478.364 192.369 478.691 191.859 478.929C191.35 479.167 190.736 479.286 190.017 479.286ZM199.121 479.286C198.269 479.286 197.536 479.097 196.921 478.721C196.313 478.345 195.842 477.814 195.51 477.127C195.184 476.436 195.021 475.622 195.021 474.687V474.679C195.021 473.755 195.184 472.944 195.51 472.247C195.842 471.549 196.31 471.004 196.913 470.611C197.516 470.218 198.222 470.022 199.03 470.022C199.843 470.022 200.541 470.21 201.122 470.586C201.708 470.963 202.156 471.488 202.466 472.164C202.782 472.833 202.939 473.613 202.939 474.504V475.069H195.768V473.915H202.201L201.487 474.969V474.396C201.487 473.694 201.382 473.115 201.171 472.662C200.961 472.208 200.671 471.87 200.3 471.649C199.929 471.422 199.503 471.309 199.021 471.309C198.54 471.309 198.108 471.428 197.727 471.666C197.35 471.898 197.051 472.244 196.83 472.703C196.609 473.162 196.498 473.727 196.498 474.396V474.969C196.498 475.606 196.606 476.151 196.822 476.604C197.038 477.053 197.345 477.399 197.743 477.642C198.142 477.88 198.612 477.999 199.154 477.999C199.558 477.999 199.91 477.944 200.208 477.833C200.507 477.722 200.754 477.581 200.947 477.41C201.141 477.238 201.277 477.064 201.354 476.887L201.387 476.812H202.832L202.815 476.878C202.737 477.183 202.599 477.479 202.4 477.767C202.206 478.049 201.954 478.306 201.645 478.539C201.335 478.765 200.967 478.948 200.541 479.086C200.12 479.219 199.647 479.286 199.121 479.286ZM209.345 479.128V467.15H210.839V479.128H209.345ZM213.493 479.128V467.15H217.602C218.786 467.15 219.799 467.388 220.64 467.864C221.487 468.334 222.134 469.015 222.583 469.906C223.031 470.797 223.255 471.87 223.255 473.126V473.143C223.255 474.399 223.031 475.476 222.583 476.372C222.134 477.263 221.49 477.946 220.649 478.422C219.807 478.893 218.792 479.128 217.602 479.128H213.493ZM214.987 477.783H217.503C218.394 477.783 219.154 477.601 219.785 477.235C220.416 476.87 220.898 476.342 221.23 475.65C221.562 474.958 221.728 474.128 221.728 473.16V473.143C221.728 472.169 221.559 471.336 221.221 470.645C220.889 469.947 220.408 469.416 219.777 469.051C219.146 468.68 218.388 468.495 217.503 468.495H214.987V477.783Z" fill="white"/>
<path d="M165.301 395.687C163.871 395.687 163.156 394.948 163.156 393.472V384.437C163.156 381.038 164.023 378.483 165.758 376.772C167.492 375.062 170.07 374.206 173.492 374.206H182.527C184.004 374.206 184.742 374.921 184.742 376.351C184.742 377.804 184.004 378.53 182.527 378.53H173.598C171.605 378.53 170.082 379.046 169.027 380.077C167.996 381.108 167.48 382.644 167.48 384.683V393.472C167.48 394.948 166.754 395.687 165.301 395.687ZM228.23 395.687C226.801 395.687 226.086 394.948 226.086 393.472V384.683C226.086 382.644 225.547 381.108 224.469 380.077C223.391 379.046 221.879 378.53 219.934 378.53H211.039C209.562 378.53 208.824 377.804 208.824 376.351C208.824 374.921 209.562 374.206 211.039 374.206H220.039C223.484 374.206 226.074 375.073 227.809 376.808C229.543 378.519 230.41 381.062 230.41 384.437V393.472C230.41 394.948 229.684 395.687 228.23 395.687ZM173.492 441.425C170.07 441.425 167.492 440.558 165.758 438.823C164.023 437.112 163.156 434.558 163.156 431.159V422.159C163.156 420.683 163.871 419.944 165.301 419.944C166.754 419.944 167.48 420.683 167.48 422.159V430.948C167.48 432.987 167.996 434.522 169.027 435.554C170.082 436.585 171.605 437.101 173.598 437.101H182.527C184.004 437.101 184.742 437.827 184.742 439.28C184.742 440.71 184.004 441.425 182.527 441.425H173.492ZM211.039 441.425C209.562 441.425 208.824 440.71 208.824 439.28C208.824 437.827 209.562 437.101 211.039 437.101H219.934C221.879 437.101 223.391 436.585 224.469 435.554C225.547 434.522 226.086 432.987 226.086 430.948V422.159C226.086 420.683 226.801 419.944 228.23 419.944C229.684 419.944 230.41 420.683 230.41 422.159V431.159C230.41 434.558 229.543 437.112 227.809 438.823C226.074 440.558 223.484 441.425 220.039 441.425H211.039ZM183.723 405.003C183.043 405.003 182.48 404.792 182.035 404.37C181.613 403.948 181.402 403.374 181.402 402.647V397.901C181.402 397.198 181.613 396.636 182.035 396.214C182.48 395.769 183.043 395.546 183.723 395.546C184.402 395.546 184.965 395.769 185.41 396.214C185.855 396.636 186.078 397.198 186.078 397.901V402.647C186.078 403.374 185.855 403.948 185.41 404.37C184.965 404.792 184.402 405.003 183.723 405.003ZM193.918 413.229C193.191 413.229 192.629 413.065 192.23 412.737C191.832 412.386 191.633 411.917 191.633 411.331C191.633 410.815 191.797 410.394 192.125 410.065C192.477 409.714 192.91 409.538 193.426 409.538H194.621C194.879 409.538 195.102 409.456 195.289 409.292C195.5 409.128 195.605 408.882 195.605 408.554V397.304C195.605 396.741 195.77 396.308 196.098 396.003C196.426 395.675 196.859 395.511 197.398 395.511C197.961 395.511 198.406 395.675 198.734 396.003C199.062 396.308 199.227 396.741 199.227 397.304V408.237C199.227 409.878 198.805 411.12 197.961 411.964C197.117 412.808 195.875 413.229 194.234 413.229C194.188 413.229 194.129 413.229 194.059 413.229C194.012 413.229 193.965 413.229 193.918 413.229ZM209.633 405.003C208.93 405.003 208.367 404.792 207.945 404.37C207.523 403.948 207.312 403.374 207.312 402.647V397.901C207.312 397.198 207.523 396.636 207.945 396.214C208.367 395.769 208.93 395.546 209.633 395.546C210.312 395.546 210.863 395.769 211.285 396.214C211.73 396.636 211.953 397.198 211.953 397.901V402.647C211.953 403.374 211.73 403.948 211.285 404.37C210.863 404.792 210.312 405.003 209.633 405.003ZM196.52 424.585C194.48 424.585 192.465 424.187 190.473 423.39C188.48 422.569 186.793 421.386 185.41 419.839C185.223 419.651 185.07 419.452 184.953 419.241C184.859 419.007 184.812 418.761 184.812 418.503C184.812 417.964 184.988 417.53 185.34 417.202C185.691 416.874 186.125 416.71 186.641 416.71C186.969 416.71 187.238 416.78 187.449 416.921C187.684 417.062 187.93 417.249 188.188 417.483C189.219 418.538 190.484 419.382 191.984 420.015C193.484 420.647 194.996 420.964 196.52 420.964C198.137 420.964 199.684 420.647 201.16 420.015C202.66 419.358 203.914 418.515 204.922 417.483C205.414 416.968 205.918 416.71 206.434 416.71C206.926 416.71 207.348 416.874 207.699 417.202C208.051 417.53 208.227 417.964 208.227 418.503C208.227 418.808 208.18 419.077 208.086 419.312C207.992 419.522 207.863 419.71 207.699 419.874C206.199 421.351 204.465 422.511 202.496 423.354C200.551 424.175 198.559 424.585 196.52 424.585Z" fill="white"/>
</g>
<defs>
<filter id="filter0_b_1140_3299" x="-17.1133" y="210.214" width="426.828" height="428.828" filterUnits="userSpaceOnUse" color-interpolation-filters="sRGB">
<feFlood flood-opacity="0" result="BackgroundImageFix"/>
<feGaussianBlur in="BackgroundImageFix" stdDeviation="67.957"/>
<feComposite in2="SourceAlpha" operator="in" result="effect1_backgroundBlur_1140_3299"/>
<feBlend mode="normal" in="SourceGraphic" in2="effect1_backgroundBlur_1140_3299" result="shape"/>
</filter>
</defs>
</svg>
