<svg width="86" height="93" viewBox="0 0 86 93" fill="none" xmlns="http://www.w3.org/2000/svg">
<g clip-path="url(#clip0_1410_4146)">
<path fill-rule="evenodd" clip-rule="evenodd" d="M43.0727 34.279C31.1622 34.279 21.5032 43.9106 21.5032 55.7986C21.5032 65.8772 24.6719 75.2022 30.0631 82.8739C31.4019 84.7786 30.9384 87.405 29.0278 88.7398C27.1173 90.0749 24.4832 89.6127 23.1444 87.7077C16.7937 78.6709 13.0549 67.6685 13.0549 55.7986C13.0549 39.2619 26.4927 25.8555 43.0727 25.8555C59.6524 25.8555 73.0902 39.2619 73.0902 55.7986C73.0902 58.1245 71.1992 60.0104 68.8661 60.0104C66.5333 60.0104 64.642 58.1245 64.642 55.7986C64.642 43.9106 54.9831 34.279 43.0727 34.279Z" fill="#999999"/>
<path fill-rule="evenodd" clip-rule="evenodd" d="M43.0813 51.5869C45.414 51.5869 47.3054 53.4728 47.3054 55.7987C47.3054 67.6866 56.9643 77.3183 68.875 77.3183C69.0678 77.3183 69.2025 77.3091 69.434 77.2934C69.5807 77.2833 69.766 77.2707 70.0296 77.2562C72.3592 77.1269 74.3524 78.9053 74.4817 81.2277C74.611 83.5502 72.8278 85.5376 70.4985 85.6665C70.4464 85.6697 70.3727 85.6744 70.2832 85.6804C69.9418 85.7034 69.3679 85.7419 68.875 85.7419C52.295 85.7419 38.8572 72.3354 38.8572 55.7987C38.8572 53.4728 40.7482 51.5869 43.0813 51.5869Z" fill="#999999"/>
<path fill-rule="evenodd" clip-rule="evenodd" d="M0.168091 55.7987C0.168091 32.1559 19.3825 12.9902 43.0847 12.9902C66.7869 12.9902 86.0012 32.1559 86.0012 55.7987C86.0012 65.2302 78.3346 72.8763 68.8784 72.8763C59.4219 72.8763 51.7552 65.2302 51.7552 55.7987C51.7552 51.0179 47.8691 47.145 43.0803 47.145C38.2918 47.145 34.4057 51.0179 34.4057 55.7987C34.4057 68.1144 40.8996 78.9198 50.6748 84.9979C52.6544 86.2289 53.2583 88.8266 52.0236 90.8004C50.7893 92.7742 48.184 93.3764 46.2044 92.1456C34.061 84.595 25.9574 71.144 25.9574 55.7987C25.9574 46.3676 33.6241 38.7214 43.0803 38.7214C52.5368 38.7214 60.2034 46.3676 60.2034 55.7987C60.2034 60.5798 64.0896 64.4527 68.8784 64.4527C73.6669 64.4527 77.553 60.5798 77.553 55.7987C77.553 36.8049 62.1179 21.4138 43.0847 21.4138C24.0514 21.4138 8.61631 36.8049 8.61631 55.7987C8.61631 60.235 9.1141 64.5599 10.0323 68.7361C10.5319 71.0081 9.08953 73.254 6.81076 73.7521C4.53195 74.2502 2.27964 72.812 1.78006 70.54C0.736959 65.7957 0.168091 60.8661 0.168091 55.7987Z" fill="#999999"/>
<path fill-rule="evenodd" clip-rule="evenodd" d="M3.89476 17.8245C13.4535 6.99793 27.45 0.125 43.0784 0.125C58.7064 0.125 72.7029 6.99793 82.2618 17.8245C83.8032 19.5704 83.6334 22.2318 81.8824 23.7688C80.1311 25.3058 77.4623 25.1365 75.9206 23.3905C67.8878 14.2925 56.164 8.54857 43.0784 8.54857C29.9925 8.54857 18.2686 14.2925 10.2359 23.3905C8.69441 25.1365 6.02528 25.3058 4.2742 23.7688C2.52314 22.2318 2.35326 19.5704 3.89476 17.8245Z" fill="#999999"/>
</g>
<defs>
<clipPath id="clip0_1410_4146">
<rect width="86" height="93" fill="white"/>
</clipPath>
</defs>
</svg>
