<svg width="366" height="540" viewBox="0 0 366 540" fill="none" xmlns="http://www.w3.org/2000/svg">
<g filter="url(#filter0_d_1294_4448)">
<g clip-path="url(#clip0_1294_4448)">
<rect x="8" y="8" width="350" height="524" rx="20" fill="white"/>
<rect x="18" y="41" width="26" height="26" rx="3" fill="#FF316F"/>
<line x1="54.5" y1="46" x2="54.5" y2="62" stroke="#E6E6E6"/>
<path d="M74.288 59.5L77.232 48.3H80.912L83.856 59.5H81.68L81.072 57.036H77.072L76.464 59.5H74.288ZM77.568 55.084H80.576L79.216 49.628H78.928L77.568 55.084ZM84.8766 59.5V57.644H86.3486V50.156H84.8766V48.3H90.6366C91.3193 48.3 91.9113 48.4173 92.4126 48.652C92.9246 48.876 93.3193 49.2013 93.5966 49.628C93.8846 50.044 94.0286 50.5453 94.0286 51.132V51.292C94.0286 51.804 93.9326 52.2253 93.7406 52.556C93.5486 52.876 93.3193 53.1267 93.0526 53.308C92.7966 53.4787 92.5513 53.6013 92.3166 53.676V53.964C92.5513 54.028 92.8073 54.1507 93.0846 54.332C93.362 54.5027 93.5966 54.7533 93.7886 55.084C93.9913 55.4147 94.0926 55.8467 94.0926 56.38V56.54C94.0926 57.1587 93.9486 57.692 93.6606 58.14C93.3726 58.5773 92.9726 58.9133 92.4606 59.148C91.9593 59.3827 91.3726 59.5 90.7006 59.5H84.8766ZM88.4606 57.58H90.4446C90.9033 57.58 91.2713 57.468 91.5486 57.244C91.8366 57.02 91.9806 56.7 91.9806 56.284V56.124C91.9806 55.708 91.842 55.388 91.5646 55.164C91.2873 54.94 90.914 54.828 90.4446 54.828H88.4606V57.58ZM88.4606 52.908H90.4126C90.85 52.908 91.2073 52.796 91.4846 52.572C91.7726 52.348 91.9166 52.0387 91.9166 51.644V51.484C91.9166 51.0787 91.778 50.7693 91.5006 50.556C91.2233 50.332 90.8606 50.22 90.4126 50.22H88.4606V52.908ZM100.078 59.724C98.691 59.724 97.5923 59.34 96.7816 58.572C95.971 57.7933 95.5656 56.684 95.5656 55.244V52.556C95.5656 51.116 95.971 50.012 96.7816 49.244C97.5923 48.4653 98.691 48.076 100.078 48.076C101.454 48.076 102.515 48.4547 103.262 49.212C104.019 49.9587 104.398 50.988 104.398 52.3V52.396H102.318V52.236C102.318 51.5747 102.131 51.0307 101.758 50.604C101.395 50.1773 100.835 49.964 100.078 49.964C99.331 49.964 98.7443 50.1933 98.3176 50.652C97.891 51.1107 97.6776 51.7347 97.6776 52.524V55.276C97.6776 56.0547 97.891 56.6787 98.3176 57.148C98.7443 57.6067 99.331 57.836 100.078 57.836C100.835 57.836 101.395 57.6227 101.758 57.196C102.131 56.7587 102.318 56.2147 102.318 55.564V55.276H104.398V55.5C104.398 56.812 104.019 57.8467 103.262 58.604C102.515 59.3507 101.454 59.724 100.078 59.724ZM109.861 59.5V57.644H111.333V50.156H109.861V48.3H115.621C116.304 48.3 116.896 48.4173 117.397 48.652C117.909 48.876 118.304 49.2013 118.581 49.628C118.869 50.044 119.013 50.5453 119.013 51.132V51.292C119.013 51.804 118.917 52.2253 118.725 52.556C118.533 52.876 118.304 53.1267 118.037 53.308C117.781 53.4787 117.536 53.6013 117.301 53.676V53.964C117.536 54.028 117.792 54.1507 118.069 54.332C118.346 54.5027 118.581 54.7533 118.773 55.084C118.976 55.4147 119.077 55.8467 119.077 56.38V56.54C119.077 57.1587 118.933 57.692 118.645 58.14C118.357 58.5773 117.957 58.9133 117.445 59.148C116.944 59.3827 116.357 59.5 115.685 59.5H109.861ZM113.445 57.58H115.429C115.888 57.58 116.256 57.468 116.533 57.244C116.821 57.02 116.965 56.7 116.965 56.284V56.124C116.965 55.708 116.826 55.388 116.549 55.164C116.272 54.94 115.898 54.828 115.429 54.828H113.445V57.58ZM113.445 52.908H115.397C115.834 52.908 116.192 52.796 116.469 52.572C116.757 52.348 116.901 52.0387 116.901 51.644V51.484C116.901 51.0787 116.762 50.7693 116.485 50.556C116.208 50.332 115.845 50.22 115.397 50.22H113.445V52.908ZM123.334 59.724C122.769 59.724 122.262 59.628 121.814 59.436C121.366 59.2333 121.009 58.9453 120.742 58.572C120.486 58.188 120.358 57.724 120.358 57.18C120.358 56.636 120.486 56.1827 120.742 55.82C121.009 55.4467 121.371 55.1693 121.83 54.988C122.299 54.796 122.833 54.7 123.43 54.7H125.606V54.252C125.606 53.8787 125.489 53.5747 125.254 53.34C125.019 53.0947 124.646 52.972 124.134 52.972C123.633 52.972 123.259 53.0893 123.014 53.324C122.769 53.548 122.609 53.8413 122.534 54.204L120.678 53.58C120.806 53.1747 121.009 52.8067 121.286 52.476C121.574 52.1347 121.953 51.8627 122.422 51.66C122.902 51.4467 123.483 51.34 124.166 51.34C125.211 51.34 126.038 51.6013 126.646 52.124C127.254 52.6467 127.558 53.404 127.558 54.396V57.356C127.558 57.676 127.707 57.836 128.006 57.836H128.646V59.5H127.302C126.907 59.5 126.582 59.404 126.326 59.212C126.07 59.02 125.942 58.764 125.942 58.444V58.428H125.638C125.595 58.556 125.499 58.7267 125.35 58.94C125.201 59.1427 124.966 59.324 124.646 59.484C124.326 59.644 123.889 59.724 123.334 59.724ZM123.686 58.092C124.251 58.092 124.71 57.9373 125.062 57.628C125.425 57.308 125.606 56.8867 125.606 56.364V56.204H123.574C123.201 56.204 122.907 56.284 122.694 56.444C122.481 56.604 122.374 56.828 122.374 57.116C122.374 57.404 122.486 57.6387 122.71 57.82C122.934 58.0013 123.259 58.092 123.686 58.092ZM130.12 59.5V51.564H132.104V52.604H132.392C132.52 52.3267 132.76 52.0653 133.112 51.82C133.464 51.564 133.997 51.436 134.712 51.436C135.331 51.436 135.869 51.58 136.328 51.868C136.797 52.1453 137.16 52.5347 137.416 53.036C137.672 53.5267 137.8 54.1027 137.8 54.764V59.5H135.784V54.924C135.784 54.3267 135.635 53.8787 135.336 53.58C135.048 53.2813 134.632 53.132 134.088 53.132C133.469 53.132 132.989 53.34 132.648 53.756C132.307 54.1613 132.136 54.732 132.136 55.468V59.5H130.12ZM139.979 59.5V48.3H141.995V54.492H142.283L144.907 51.564H147.531L143.867 55.404L147.659 59.5H145.067L142.283 56.348H141.995V59.5H139.979Z" fill="#1D1D1F"/>
<path d="M18.5 125L22.82 111H25.78L30.1 125H28.36L27.28 121.46H21.32L20.24 125H18.5ZM21.74 119.94H26.84L24.44 112.02H24.16L21.74 119.94ZM32.2577 129V115.22H33.7977V116.84H34.0777C34.331 116.347 34.7377 115.907 35.2977 115.52C35.871 115.133 36.6643 114.94 37.6777 114.94C38.5177 114.94 39.2843 115.147 39.9777 115.56C40.6843 115.96 41.2443 116.533 41.6577 117.28C42.0843 118.027 42.2977 118.927 42.2977 119.98V120.24C42.2977 121.28 42.091 122.18 41.6777 122.94C41.2643 123.7 40.7043 124.28 39.9977 124.68C39.3043 125.08 38.531 125.28 37.6777 125.28C36.9977 125.28 36.4177 125.187 35.9377 125C35.471 124.827 35.091 124.6 34.7977 124.32C34.5043 124.04 34.2777 123.753 34.1177 123.46H33.8377V129H32.2577ZM37.2577 123.88C38.271 123.88 39.091 123.56 39.7177 122.92C40.3577 122.267 40.6777 121.36 40.6777 120.2V120.02C40.6777 118.86 40.3577 117.96 39.7177 117.32C39.091 116.667 38.271 116.34 37.2577 116.34C36.2577 116.34 35.431 116.667 34.7777 117.32C34.1377 117.96 33.8177 118.86 33.8177 120.02V120.2C33.8177 121.36 34.1377 122.267 34.7777 122.92C35.431 123.56 36.2577 123.88 37.2577 123.88ZM45.1288 129V115.22H46.6688V116.84H46.9488C47.2021 116.347 47.6088 115.907 48.1688 115.52C48.7421 115.133 49.5354 114.94 50.5488 114.94C51.3888 114.94 52.1554 115.147 52.8488 115.56C53.5554 115.96 54.1154 116.533 54.5288 117.28C54.9554 118.027 55.1688 118.927 55.1688 119.98V120.24C55.1688 121.28 54.9621 122.18 54.5488 122.94C54.1354 123.7 53.5754 124.28 52.8688 124.68C52.1754 125.08 51.4021 125.28 50.5488 125.28C49.8688 125.28 49.2888 125.187 48.8088 125C48.3421 124.827 47.9621 124.6 47.6688 124.32C47.3754 124.04 47.1488 123.753 46.9888 123.46H46.7088V129H45.1288ZM50.1288 123.88C51.1421 123.88 51.9621 123.56 52.5888 122.92C53.2288 122.267 53.5488 121.36 53.5488 120.2V120.02C53.5488 118.86 53.2288 117.96 52.5888 117.32C51.9621 116.667 51.1421 116.34 50.1288 116.34C49.1288 116.34 48.3021 116.667 47.6488 117.32C47.0088 117.96 46.6888 118.86 46.6888 120.02V120.2C46.6888 121.36 47.0088 122.267 47.6488 122.92C48.3021 123.56 49.1288 123.88 50.1288 123.88ZM57.9998 125V111H59.5798V125H57.9998ZM62.9022 125V115.22H64.4822V125H62.9022ZM63.7022 113.7C63.3555 113.7 63.0622 113.587 62.8222 113.36C62.5955 113.133 62.4822 112.847 62.4822 112.5C62.4822 112.14 62.5955 111.847 62.8222 111.62C63.0622 111.393 63.3555 111.28 63.7022 111.28C64.0489 111.28 64.3355 111.393 64.5622 111.62C64.7889 111.847 64.9022 112.14 64.9022 112.5C64.9022 112.847 64.7889 113.133 64.5622 113.36C64.3355 113.587 64.0489 113.7 63.7022 113.7ZM72.3045 125.28C71.3579 125.28 70.5045 125.08 69.7445 124.68C68.9979 124.267 68.4045 123.68 67.9645 122.92C67.5379 122.16 67.3245 121.26 67.3245 120.22V120C67.3245 118.947 67.5379 118.047 67.9645 117.3C68.4045 116.54 68.9979 115.96 69.7445 115.56C70.5045 115.147 71.3579 114.94 72.3045 114.94C73.2379 114.94 74.0312 115.113 74.6845 115.46C75.3512 115.807 75.8712 116.267 76.2445 116.84C76.6312 117.413 76.8779 118.027 76.9845 118.68L75.4445 119C75.3779 118.52 75.2179 118.08 74.9645 117.68C74.7245 117.28 74.3845 116.96 73.9445 116.72C73.5045 116.48 72.9645 116.36 72.3245 116.36C71.6712 116.36 71.0845 116.507 70.5645 116.8C70.0579 117.093 69.6512 117.513 69.3445 118.06C69.0512 118.607 68.9045 119.26 68.9045 120.02V120.2C68.9045 120.96 69.0512 121.613 69.3445 122.16C69.6512 122.707 70.0579 123.127 70.5645 123.42C71.0845 123.713 71.6712 123.86 72.3245 123.86C73.2979 123.86 74.0379 123.607 74.5445 123.1C75.0645 122.593 75.3845 121.967 75.5045 121.22L77.0645 121.56C76.9179 122.2 76.6512 122.807 76.2645 123.38C75.8779 123.953 75.3512 124.413 74.6845 124.76C74.0312 125.107 73.2379 125.28 72.3045 125.28ZM82.7577 125.28C82.0777 125.28 81.4577 125.16 80.8977 124.92C80.3377 124.68 79.8977 124.333 79.5777 123.88C79.2577 123.427 79.0977 122.873 79.0977 122.22C79.0977 121.553 79.2577 121.007 79.5777 120.58C79.8977 120.14 80.3377 119.813 80.8977 119.6C81.4577 119.373 82.0843 119.26 82.7777 119.26H86.0777V118.54C86.0777 117.847 85.871 117.3 85.4577 116.9C85.0577 116.5 84.4577 116.3 83.6577 116.3C82.871 116.3 82.2577 116.493 81.8177 116.88C81.3777 117.253 81.0777 117.76 80.9177 118.4L79.4377 117.92C79.5977 117.373 79.851 116.88 80.1977 116.44C80.5443 115.987 81.0043 115.627 81.5777 115.36C82.1643 115.08 82.8643 114.94 83.6777 114.94C84.931 114.94 85.9043 115.267 86.5977 115.92C87.291 116.56 87.6377 117.467 87.6377 118.64V123.06C87.6377 123.46 87.8243 123.66 88.1977 123.66H89.0977V125H87.7177C87.2777 125 86.9243 124.88 86.6577 124.64C86.391 124.387 86.2577 124.053 86.2577 123.64V123.54H86.0177C85.871 123.793 85.671 124.06 85.4177 124.34C85.1777 124.607 84.8443 124.827 84.4177 125C83.991 125.187 83.4377 125.28 82.7577 125.28ZM82.9377 123.92C83.871 123.92 84.6243 123.647 85.1977 123.1C85.7843 122.54 86.0777 121.76 86.0777 120.76V120.54H82.8377C82.211 120.54 81.691 120.68 81.2777 120.96C80.8777 121.227 80.6777 121.633 80.6777 122.18C80.6777 122.727 80.8843 123.153 81.2977 123.46C81.7243 123.767 82.271 123.92 82.9377 123.92ZM91.2616 125V115.22H92.8016V116.88H93.0816C93.2949 116.413 93.6549 115.993 94.1616 115.62C94.6816 115.233 95.4416 115.04 96.4416 115.04C97.1749 115.04 97.8282 115.193 98.4016 115.5C98.9882 115.807 99.4549 116.26 99.8016 116.86C100.148 117.46 100.322 118.2 100.322 119.08V125H98.7416V119.2C98.7416 118.227 98.4949 117.52 98.0016 117.08C97.5216 116.64 96.8682 116.42 96.0416 116.42C95.0949 116.42 94.3216 116.727 93.7216 117.34C93.1349 117.953 92.8416 118.867 92.8416 120.08V125H91.2616ZM106.854 125C106.294 125 105.86 124.847 105.554 124.54C105.26 124.233 105.114 123.813 105.114 123.28V116.6H102.174V115.22H105.114V111.74H106.694V115.22H109.894V116.6H106.694V123.04C106.694 123.44 106.887 123.64 107.274 123.64H109.454V125H106.854ZM117.53 125V111H120.79L125.67 123.94H125.93V111H127.59V125H124.33L119.47 112.04H119.19V125H117.53ZM133.871 125.28C133.191 125.28 132.571 125.16 132.011 124.92C131.451 124.68 131.011 124.333 130.691 123.88C130.371 123.427 130.211 122.873 130.211 122.22C130.211 121.553 130.371 121.007 130.691 120.58C131.011 120.14 131.451 119.813 132.011 119.6C132.571 119.373 133.198 119.26 133.891 119.26H137.191V118.54C137.191 117.847 136.984 117.3 136.571 116.9C136.171 116.5 135.571 116.3 134.771 116.3C133.984 116.3 133.371 116.493 132.931 116.88C132.491 117.253 132.191 117.76 132.031 118.4L130.551 117.92C130.711 117.373 130.964 116.88 131.311 116.44C131.658 115.987 132.118 115.627 132.691 115.36C133.278 115.08 133.978 114.94 134.791 114.94C136.044 114.94 137.018 115.267 137.711 115.92C138.404 116.56 138.751 117.467 138.751 118.64V123.06C138.751 123.46 138.938 123.66 139.311 123.66H140.211V125H138.831C138.391 125 138.038 124.88 137.771 124.64C137.504 124.387 137.371 124.053 137.371 123.64V123.54H137.131C136.984 123.793 136.784 124.06 136.531 124.34C136.291 124.607 135.958 124.827 135.531 125C135.104 125.187 134.551 125.28 133.871 125.28ZM134.051 123.92C134.984 123.92 135.738 123.647 136.311 123.1C136.898 122.54 137.191 121.76 137.191 120.76V120.54H133.951C133.324 120.54 132.804 120.68 132.391 120.96C131.991 121.227 131.791 121.633 131.791 122.18C131.791 122.727 131.998 123.153 132.411 123.46C132.838 123.767 133.384 123.92 134.051 123.92ZM142.375 125V115.22H143.915V116.44H144.195C144.382 116.093 144.688 115.773 145.115 115.48C145.542 115.187 146.142 115.04 146.915 115.04C147.675 115.04 148.288 115.207 148.755 115.54C149.235 115.873 149.582 116.28 149.795 116.76H150.075C150.302 116.28 150.642 115.873 151.095 115.54C151.562 115.207 152.208 115.04 153.035 115.04C153.688 115.04 154.262 115.173 154.755 115.44C155.248 115.707 155.635 116.093 155.915 116.6C156.208 117.093 156.355 117.687 156.355 118.38V125H154.775V118.52C154.775 117.867 154.582 117.353 154.195 116.98C153.822 116.593 153.295 116.4 152.615 116.4C151.895 116.4 151.302 116.633 150.835 117.1C150.382 117.567 150.155 118.24 150.155 119.12V125H148.575V118.52C148.575 117.867 148.382 117.353 147.995 116.98C147.622 116.593 147.095 116.4 146.415 116.4C145.695 116.4 145.102 116.633 144.635 117.1C144.182 117.567 143.955 118.24 143.955 119.12V125H142.375ZM164.062 125.28C163.075 125.28 162.209 125.073 161.462 124.66C160.715 124.233 160.135 123.64 159.722 122.88C159.309 122.12 159.102 121.24 159.102 120.24V120C159.102 118.987 159.309 118.1 159.722 117.34C160.135 116.58 160.709 115.993 161.442 115.58C162.175 115.153 163.015 114.94 163.962 114.94C164.882 114.94 165.695 115.14 166.402 115.54C167.109 115.927 167.662 116.487 168.062 117.22C168.462 117.953 168.662 118.813 168.662 119.8V120.52H160.682C160.722 121.573 161.062 122.4 161.702 123C162.342 123.587 163.142 123.88 164.102 123.88C164.942 123.88 165.589 123.687 166.042 123.3C166.495 122.913 166.842 122.453 167.082 121.92L168.442 122.58C168.242 122.993 167.962 123.407 167.602 123.82C167.255 124.233 166.795 124.58 166.222 124.86C165.662 125.14 164.942 125.28 164.062 125.28ZM160.702 119.22H167.062C167.009 118.313 166.695 117.607 166.122 117.1C165.562 116.593 164.842 116.34 163.962 116.34C163.069 116.34 162.335 116.593 161.762 117.1C161.189 117.607 160.835 118.313 160.702 119.22Z" fill="#797979"/>
<path d="M25.416 154.336C24.12 154.336 22.976 154.104 21.984 153.64C20.992 153.176 20.216 152.512 19.656 151.648C19.096 150.784 18.816 149.744 18.816 148.528V147.856H21.936V148.528C21.936 149.536 22.248 150.296 22.872 150.808C23.496 151.304 24.344 151.552 25.416 151.552C26.504 151.552 27.312 151.336 27.84 150.904C28.384 150.472 28.656 149.92 28.656 149.248C28.656 148.784 28.52 148.408 28.248 148.12C27.992 147.832 27.608 147.6 27.096 147.424C26.6 147.232 25.992 147.056 25.272 146.896L24.72 146.776C23.568 146.52 22.576 146.2 21.744 145.816C20.928 145.416 20.296 144.896 19.848 144.256C19.416 143.616 19.2 142.784 19.2 141.76C19.2 140.736 19.44 139.864 19.92 139.144C20.416 138.408 21.104 137.848 21.984 137.464C22.88 137.064 23.928 136.864 25.128 136.864C26.328 136.864 27.392 137.072 28.32 137.488C29.264 137.888 30 138.496 30.528 139.312C31.072 140.112 31.344 141.12 31.344 142.336V143.056H28.224V142.336C28.224 141.696 28.096 141.184 27.84 140.8C27.6 140.4 27.248 140.112 26.784 139.936C26.32 139.744 25.768 139.648 25.128 139.648C24.168 139.648 23.456 139.832 22.992 140.2C22.544 140.552 22.32 141.04 22.32 141.664C22.32 142.08 22.424 142.432 22.632 142.72C22.856 143.008 23.184 143.248 23.616 143.44C24.048 143.632 24.6 143.8 25.272 143.944L25.824 144.064C27.024 144.32 28.064 144.648 28.944 145.048C29.84 145.448 30.536 145.976 31.032 146.632C31.528 147.288 31.776 148.128 31.776 149.152C31.776 150.176 31.512 151.08 30.984 151.864C30.472 152.632 29.736 153.24 28.776 153.688C27.832 154.12 26.712 154.336 25.416 154.336ZM34.2347 154V142.096H37.2587V154H34.2347ZM35.7467 140.704C35.2027 140.704 34.7387 140.528 34.3547 140.176C33.9867 139.824 33.8027 139.36 33.8027 138.784C33.8027 138.208 33.9867 137.744 34.3547 137.392C34.7387 137.04 35.2027 136.864 35.7467 136.864C36.3067 136.864 36.7707 137.04 37.1387 137.392C37.5067 137.744 37.6907 138.208 37.6907 138.784C37.6907 139.36 37.5067 139.824 37.1387 140.176C36.7707 140.528 36.3067 140.704 35.7467 140.704ZM45.4097 154.336C44.4657 154.336 43.5777 154.104 42.7457 153.64C41.9297 153.16 41.2737 152.464 40.7777 151.552C40.2817 150.64 40.0337 149.536 40.0337 148.24V147.856C40.0337 146.56 40.2817 145.456 40.7777 144.544C41.2737 143.632 41.9297 142.944 42.7457 142.48C43.5617 142 44.4497 141.76 45.4097 141.76C46.1297 141.76 46.7297 141.848 47.2097 142.024C47.7057 142.184 48.1057 142.392 48.4097 142.648C48.7137 142.904 48.9457 143.176 49.1057 143.464H49.5377V137.2H52.5617V154H49.5857V152.56H49.1537C48.8817 153.008 48.4577 153.416 47.8817 153.784C47.3217 154.152 46.4977 154.336 45.4097 154.336ZM46.3217 151.696C47.2497 151.696 48.0257 151.4 48.6497 150.808C49.2737 150.2 49.5857 149.32 49.5857 148.168V147.928C49.5857 146.776 49.2737 145.904 48.6497 145.312C48.0417 144.704 47.2657 144.4 46.3217 144.4C45.3937 144.4 44.6177 144.704 43.9937 145.312C43.3697 145.904 43.0577 146.776 43.0577 147.928V148.168C43.0577 149.32 43.3697 150.2 43.9937 150.808C44.6177 151.4 45.3937 151.696 46.3217 151.696ZM60.7144 154.336C59.7704 154.336 58.8824 154.104 58.0504 153.64C57.2344 153.16 56.5784 152.464 56.0824 151.552C55.5864 150.64 55.3384 149.536 55.3384 148.24V147.856C55.3384 146.56 55.5864 145.456 56.0824 144.544C56.5784 143.632 57.2344 142.944 58.0504 142.48C58.8664 142 59.7544 141.76 60.7144 141.76C61.4344 141.76 62.0344 141.848 62.5144 142.024C63.0104 142.184 63.4104 142.392 63.7144 142.648C64.0184 142.904 64.2504 143.176 64.4104 143.464H64.8424V137.2H67.8664V154H64.8904V152.56H64.4584C64.1864 153.008 63.7624 153.416 63.1864 153.784C62.6264 154.152 61.8024 154.336 60.7144 154.336ZM61.6264 151.696C62.5544 151.696 63.3304 151.4 63.9544 150.808C64.5784 150.2 64.8904 149.32 64.8904 148.168V147.928C64.8904 146.776 64.5784 145.904 63.9544 145.312C63.3464 144.704 62.5704 144.4 61.6264 144.4C60.6984 144.4 59.9224 144.704 59.2984 145.312C58.6744 145.904 58.3624 146.776 58.3624 147.928V148.168C58.3624 149.32 58.6744 150.2 59.2984 150.808C59.9224 151.4 60.6984 151.696 61.6264 151.696ZM71.2191 154V137.2H74.2431V143.56H74.6751C74.8031 143.304 75.0031 143.048 75.2751 142.792C75.5471 142.536 75.9071 142.328 76.3551 142.168C76.8191 141.992 77.4031 141.904 78.1071 141.904C79.0351 141.904 79.8431 142.12 80.5311 142.552C81.2351 142.968 81.7791 143.552 82.1631 144.304C82.5471 145.04 82.7391 145.904 82.7391 146.896V154H79.7151V147.136C79.7151 146.24 79.4911 145.568 79.0431 145.12C78.6111 144.672 77.9871 144.448 77.1711 144.448C76.2431 144.448 75.5231 144.76 75.0111 145.384C74.4991 145.992 74.2431 146.848 74.2431 147.952V154H71.2191ZM89.7041 154.336C88.8561 154.336 88.0961 154.192 87.4241 153.904C86.7521 153.6 86.2161 153.168 85.8161 152.608C85.4321 152.032 85.2401 151.336 85.2401 150.52C85.2401 149.704 85.4321 149.024 85.8161 148.48C86.2161 147.92 86.7601 147.504 87.4481 147.232C88.1521 146.944 88.9521 146.8 89.8481 146.8H93.1121V146.128C93.1121 145.568 92.9361 145.112 92.5841 144.76C92.2321 144.392 91.6721 144.208 90.9041 144.208C90.1521 144.208 89.5921 144.384 89.2241 144.736C88.8561 145.072 88.6161 145.512 88.5041 146.056L85.7201 145.12C85.9121 144.512 86.2161 143.96 86.6321 143.464C87.0641 142.952 87.6321 142.544 88.3361 142.24C89.0561 141.92 89.9281 141.76 90.9521 141.76C92.5201 141.76 93.7601 142.152 94.6721 142.936C95.5841 143.72 96.0401 144.856 96.0401 146.344V150.784C96.0401 151.264 96.2641 151.504 96.7121 151.504H97.6721V154H95.6561C95.0641 154 94.5761 153.856 94.1921 153.568C93.8081 153.28 93.6161 152.896 93.6161 152.416V152.392H93.1601C93.0961 152.584 92.9521 152.84 92.7281 153.16C92.5041 153.464 92.1521 153.736 91.6721 153.976C91.1921 154.216 90.5361 154.336 89.7041 154.336ZM90.2321 151.888C91.0801 151.888 91.7681 151.656 92.2961 151.192C92.8401 150.712 93.1121 150.08 93.1121 149.296V149.056H90.0641C89.5041 149.056 89.0641 149.176 88.7441 149.416C88.4241 149.656 88.2641 149.992 88.2641 150.424C88.2641 150.856 88.4321 151.208 88.7681 151.48C89.1041 151.752 89.5921 151.888 90.2321 151.888ZM99.8831 154V142.096H102.859V143.44H103.291C103.467 142.96 103.755 142.608 104.155 142.384C104.571 142.16 105.051 142.048 105.595 142.048H107.035V144.736H105.547C104.779 144.736 104.147 144.944 103.651 145.36C103.155 145.76 102.907 146.384 102.907 147.232V154H99.8831ZM113.959 154C113.175 154 112.535 153.76 112.039 153.28C111.559 152.784 111.319 152.128 111.319 151.312V144.592H108.343V142.096H111.319V138.4H114.343V142.096H117.607V144.592H114.343V150.784C114.343 151.264 114.567 151.504 115.015 151.504H117.319V154H113.959ZM120.344 154V137.2H123.368V143.56H123.8C123.928 143.304 124.128 143.048 124.4 142.792C124.672 142.536 125.032 142.328 125.48 142.168C125.944 141.992 126.528 141.904 127.232 141.904C128.16 141.904 128.968 142.12 129.656 142.552C130.36 142.968 130.904 143.552 131.288 144.304C131.672 145.04 131.864 145.904 131.864 146.896V154H128.84V147.136C128.84 146.24 128.616 145.568 128.168 145.12C127.736 144.672 127.112 144.448 126.296 144.448C125.368 144.448 124.648 144.76 124.136 145.384C123.624 145.992 123.368 146.848 123.368 147.952V154H120.344ZM146.963 154.336C145.667 154.336 144.523 154.104 143.531 153.64C142.539 153.176 141.763 152.512 141.203 151.648C140.643 150.784 140.363 149.744 140.363 148.528V147.856H143.483V148.528C143.483 149.536 143.795 150.296 144.419 150.808C145.043 151.304 145.891 151.552 146.963 151.552C148.051 151.552 148.859 151.336 149.387 150.904C149.931 150.472 150.203 149.92 150.203 149.248C150.203 148.784 150.067 148.408 149.795 148.12C149.539 147.832 149.155 147.6 148.643 147.424C148.147 147.232 147.539 147.056 146.819 146.896L146.267 146.776C145.115 146.52 144.123 146.2 143.291 145.816C142.475 145.416 141.843 144.896 141.395 144.256C140.963 143.616 140.747 142.784 140.747 141.76C140.747 140.736 140.987 139.864 141.467 139.144C141.963 138.408 142.651 137.848 143.531 137.464C144.427 137.064 145.475 136.864 146.675 136.864C147.875 136.864 148.939 137.072 149.867 137.488C150.811 137.888 151.547 138.496 152.075 139.312C152.619 140.112 152.891 141.12 152.891 142.336V143.056H149.771V142.336C149.771 141.696 149.643 141.184 149.387 140.8C149.147 140.4 148.795 140.112 148.331 139.936C147.867 139.744 147.315 139.648 146.675 139.648C145.715 139.648 145.003 139.832 144.539 140.2C144.091 140.552 143.867 141.04 143.867 141.664C143.867 142.08 143.971 142.432 144.179 142.72C144.403 143.008 144.731 143.248 145.163 143.44C145.595 143.632 146.147 143.8 146.819 143.944L147.371 144.064C148.571 144.32 149.611 144.648 150.491 145.048C151.387 145.448 152.083 145.976 152.579 146.632C153.075 147.288 153.323 148.128 153.323 149.152C153.323 150.176 153.059 151.08 152.531 151.864C152.019 152.632 151.283 153.24 150.323 153.688C149.379 154.12 148.259 154.336 146.963 154.336ZM155.782 154V137.2H158.806V143.56H159.238C159.366 143.304 159.566 143.048 159.838 142.792C160.11 142.536 160.47 142.328 160.918 142.168C161.382 141.992 161.966 141.904 162.67 141.904C163.598 141.904 164.406 142.12 165.094 142.552C165.798 142.968 166.342 143.552 166.726 144.304C167.11 145.04 167.302 145.904 167.302 146.896V154H164.278V147.136C164.278 146.24 164.054 145.568 163.606 145.12C163.174 144.672 162.55 144.448 161.734 144.448C160.806 144.448 160.086 144.76 159.574 145.384C159.062 145.992 158.806 146.848 158.806 147.952V154H155.782ZM175.995 154.336C174.811 154.336 173.763 154.088 172.851 153.592C171.955 153.08 171.251 152.368 170.739 151.456C170.243 150.528 169.995 149.44 169.995 148.192V147.904C169.995 146.656 170.243 145.576 170.739 144.664C171.235 143.736 171.931 143.024 172.827 142.528C173.723 142.016 174.763 141.76 175.947 141.76C177.115 141.76 178.131 142.024 178.995 142.552C179.859 143.064 180.531 143.784 181.011 144.712C181.491 145.624 181.731 146.688 181.731 147.904V148.936H173.067C173.099 149.752 173.403 150.416 173.979 150.928C174.555 151.44 175.259 151.696 176.091 151.696C176.939 151.696 177.563 151.512 177.963 151.144C178.363 150.776 178.667 150.368 178.875 149.92L181.347 151.216C181.123 151.632 180.795 152.088 180.363 152.584C179.947 153.064 179.387 153.48 178.683 153.832C177.979 154.168 177.083 154.336 175.995 154.336ZM173.091 146.68H178.659C178.595 145.992 178.315 145.44 177.819 145.024C177.339 144.608 176.707 144.4 175.923 144.4C175.107 144.4 174.459 144.608 173.979 145.024C173.499 145.44 173.203 145.992 173.091 146.68ZM188.982 154C188.198 154 187.558 153.76 187.062 153.28C186.582 152.784 186.342 152.128 186.342 151.312V144.592H183.366V142.096H186.342V138.4H189.366V142.096H191.91V144.592H189.366V150.784C189.366 151.264 189.59 151.504 190.038 151.504H192.342V154H188.982ZM196.806 154C196.022 154 195.382 153.76 194.886 153.28C194.406 152.784 194.166 152.128 194.166 151.312V144.592H191.91V142.096H194.166V138.4H197.19V142.096H200.454V144.592H197.19V150.784C197.19 151.264 197.414 151.504 197.862 151.504H200.166V154H196.806ZM204.492 158.8V156.16H210.972C211.42 156.16 211.644 155.92 211.644 155.44V152.44H211.212C211.084 152.712 210.884 152.984 210.612 153.256C210.34 153.528 209.972 153.752 209.508 153.928C209.044 154.104 208.452 154.192 207.732 154.192C206.804 154.192 205.988 153.984 205.284 153.568C204.596 153.136 204.06 152.544 203.676 151.792C203.292 151.04 203.1 150.176 203.1 149.2V142.096H206.124V148.96C206.124 149.856 206.34 150.528 206.772 150.976C207.22 151.424 207.852 151.648 208.668 151.648C209.596 151.648 210.316 151.344 210.828 150.736C211.34 150.112 211.596 149.248 211.596 148.144V142.096H214.62V156.112C214.62 156.928 214.38 157.576 213.9 158.056C213.42 158.552 212.78 158.8 211.98 158.8H204.492Z" fill="#1D1D1F"/>
<line x1="18" y1="178.5" x2="348" y2="178.5" stroke="#E6E6E6" stroke-dasharray="4 4"/>
<path d="M19.6 218V204H24.96C25.8 204 26.5467 204.167 27.2 204.5C27.8667 204.82 28.3933 205.28 28.78 205.88C29.1667 206.48 29.36 207.207 29.36 208.06V208.32C29.36 209.16 29.16 209.887 28.76 210.5C28.3733 211.1 27.8467 211.56 27.18 211.88C26.5133 212.2 25.7733 212.36 24.96 212.36H21.28V218H19.6ZM21.28 210.84H24.78C25.6733 210.84 26.38 210.62 26.9 210.18C27.42 209.727 27.68 209.093 27.68 208.28V208.08C27.68 207.267 27.42 206.64 26.9 206.2C26.3933 205.747 25.6867 205.52 24.78 205.52H21.28V210.84ZM31.6717 218V208.22H33.2117V209.42H33.4917C33.6651 208.993 33.9317 208.68 34.2917 208.48C34.6517 208.28 35.1251 208.18 35.7117 208.18H36.8717V209.62H35.6117C34.9051 209.62 34.3317 209.82 33.8917 210.22C33.4651 210.607 33.2517 211.213 33.2517 212.04V218H31.6717ZM43.3792 218.28C42.3926 218.28 41.5192 218.073 40.7592 217.66C40.0126 217.247 39.4259 216.667 38.9992 215.92C38.5859 215.16 38.3792 214.267 38.3792 213.24V212.98C38.3792 211.967 38.5859 211.08 38.9992 210.32C39.4259 209.56 40.0126 208.973 40.7592 208.56C41.5192 208.147 42.3926 207.94 43.3792 207.94C44.3659 207.94 45.2326 208.147 45.9792 208.56C46.7392 208.973 47.3259 209.56 47.7392 210.32C48.1659 211.08 48.3792 211.967 48.3792 212.98V213.24C48.3792 214.267 48.1659 215.16 47.7392 215.92C47.3259 216.667 46.7392 217.247 45.9792 217.66C45.2326 218.073 44.3659 218.28 43.3792 218.28ZM43.3792 216.86C44.4192 216.86 45.2459 216.533 45.8592 215.88C46.4859 215.213 46.7992 214.32 46.7992 213.2V213.02C46.7992 211.9 46.4859 211.013 45.8592 210.36C45.2459 209.693 44.4192 209.36 43.3792 209.36C42.3526 209.36 41.5259 209.693 40.8992 210.36C40.2726 211.013 39.9592 211.9 39.9592 213.02V213.2C39.9592 214.32 40.2726 215.213 40.8992 215.88C41.5259 216.533 42.3526 216.86 43.3792 216.86ZM51.2225 222V208.22H52.7625V209.84H53.0425C53.2958 209.347 53.7025 208.907 54.2625 208.52C54.8358 208.133 55.6292 207.94 56.6425 207.94C57.4825 207.94 58.2492 208.147 58.9425 208.56C59.6492 208.96 60.2092 209.533 60.6225 210.28C61.0492 211.027 61.2625 211.927 61.2625 212.98V213.24C61.2625 214.28 61.0558 215.18 60.6425 215.94C60.2292 216.7 59.6692 217.28 58.9625 217.68C58.2692 218.08 57.4958 218.28 56.6425 218.28C55.9625 218.28 55.3825 218.187 54.9025 218C54.4358 217.827 54.0558 217.6 53.7625 217.32C53.4692 217.04 53.2425 216.753 53.0825 216.46H52.8025V222H51.2225ZM56.2225 216.88C57.2358 216.88 58.0558 216.56 58.6825 215.92C59.3225 215.267 59.6425 214.36 59.6425 213.2V213.02C59.6425 211.86 59.3225 210.96 58.6825 210.32C58.0558 209.667 57.2358 209.34 56.2225 209.34C55.2225 209.34 54.3958 209.667 53.7425 210.32C53.1025 210.96 52.7825 211.86 52.7825 213.02V213.2C52.7825 214.36 53.1025 215.267 53.7425 215.92C54.3958 216.56 55.2225 216.88 56.2225 216.88ZM68.5736 218.28C67.5869 218.28 66.7203 218.073 65.9736 217.66C65.2269 217.233 64.6469 216.64 64.2336 215.88C63.8203 215.12 63.6136 214.24 63.6136 213.24V213C63.6136 211.987 63.8203 211.1 64.2336 210.34C64.6469 209.58 65.2203 208.993 65.9536 208.58C66.6869 208.153 67.5269 207.94 68.4736 207.94C69.3936 207.94 70.2069 208.14 70.9136 208.54C71.6203 208.927 72.1736 209.487 72.5736 210.22C72.9736 210.953 73.1736 211.813 73.1736 212.8V213.52H65.1936C65.2336 214.573 65.5736 215.4 66.2136 216C66.8536 216.587 67.6536 216.88 68.6136 216.88C69.4536 216.88 70.1003 216.687 70.5536 216.3C71.0069 215.913 71.3536 215.453 71.5936 214.92L72.9536 215.58C72.7536 215.993 72.4736 216.407 72.1136 216.82C71.7669 217.233 71.3069 217.58 70.7336 217.86C70.1736 218.14 69.4536 218.28 68.5736 218.28ZM65.2136 212.22H71.5736C71.5203 211.313 71.2069 210.607 70.6336 210.1C70.0736 209.593 69.3536 209.34 68.4736 209.34C67.5803 209.34 66.8469 209.593 66.2736 210.1C65.7003 210.607 65.3469 211.313 65.2136 212.22ZM75.9295 218V208.22H77.4695V209.42H77.7495C77.9229 208.993 78.1895 208.68 78.5495 208.48C78.9095 208.28 79.3829 208.18 79.9695 208.18H81.1295V209.62H79.8695C79.1629 209.62 78.5895 209.82 78.1495 210.22C77.7229 210.607 77.5095 211.213 77.5095 212.04V218H75.9295ZM87.0686 218C86.5086 218 86.0753 217.847 85.7686 217.54C85.4753 217.233 85.3286 216.813 85.3286 216.28V209.6H82.3886V208.22H85.3286V204.74H86.9086V208.22H90.1086V209.6H86.9086V216.04C86.9086 216.44 87.1019 216.64 87.4886 216.64H89.6686V218H87.0686ZM93.8478 222V220.6H99.4478C99.8345 220.6 100.028 220.4 100.028 220V216.44H99.7478C99.6145 216.72 99.4078 217 99.1278 217.28C98.8611 217.547 98.5078 217.767 98.0678 217.94C97.6278 218.1 97.0745 218.18 96.4078 218.18C95.7011 218.18 95.0478 218.027 94.4478 217.72C93.8611 217.413 93.3945 216.96 93.0478 216.36C92.7145 215.76 92.5478 215.027 92.5478 214.16V208.22H94.1278V214.04C94.1278 215 94.3678 215.7 94.8478 216.14C95.3411 216.58 96.0011 216.8 96.8278 216.8C97.7611 216.8 98.5278 216.493 99.1278 215.88C99.7278 215.267 100.028 214.353 100.028 213.14V208.22H101.608V220.28C101.608 220.813 101.454 221.233 101.148 221.54C100.854 221.847 100.421 222 99.8478 222H93.8478ZM112.857 218L108.637 204H110.377L114.197 216.98H114.457L118.277 204H120.017L115.797 218H112.857ZM124.457 218.28C123.777 218.28 123.157 218.16 122.597 217.92C122.037 217.68 121.597 217.333 121.277 216.88C120.957 216.427 120.797 215.873 120.797 215.22C120.797 214.553 120.957 214.007 121.277 213.58C121.597 213.14 122.037 212.813 122.597 212.6C123.157 212.373 123.784 212.26 124.477 212.26H127.777V211.54C127.777 210.847 127.57 210.3 127.157 209.9C126.757 209.5 126.157 209.3 125.357 209.3C124.57 209.3 123.957 209.493 123.517 209.88C123.077 210.253 122.777 210.76 122.617 211.4L121.137 210.92C121.297 210.373 121.55 209.88 121.897 209.44C122.244 208.987 122.704 208.627 123.277 208.36C123.864 208.08 124.564 207.94 125.377 207.94C126.63 207.94 127.604 208.267 128.297 208.92C128.99 209.56 129.337 210.467 129.337 211.64V216.06C129.337 216.46 129.524 216.66 129.897 216.66H130.797V218H129.417C128.977 218 128.624 217.88 128.357 217.64C128.09 217.387 127.957 217.053 127.957 216.64V216.54H127.717C127.57 216.793 127.37 217.06 127.117 217.34C126.877 217.607 126.544 217.827 126.117 218C125.69 218.187 125.137 218.28 124.457 218.28ZM124.637 216.92C125.57 216.92 126.324 216.647 126.897 216.1C127.484 215.54 127.777 214.76 127.777 213.76V213.54H124.537C123.91 213.54 123.39 213.68 122.977 213.96C122.577 214.227 122.377 214.633 122.377 215.18C122.377 215.727 122.584 216.153 122.997 216.46C123.424 216.767 123.97 216.92 124.637 216.92ZM132.961 218V204H134.541V218H132.961ZM141.603 218.18C140.896 218.18 140.243 218.027 139.643 217.72C139.056 217.413 138.59 216.96 138.243 216.36C137.91 215.747 137.743 215.007 137.743 214.14V208.22H139.323V214.02C139.323 214.993 139.563 215.7 140.043 216.14C140.536 216.58 141.196 216.8 142.023 216.8C142.956 216.8 143.723 216.493 144.323 215.88C144.923 215.267 145.223 214.353 145.223 213.14V208.22H146.803V218H145.263V216.34H144.983C144.77 216.807 144.403 217.233 143.883 217.62C143.363 217.993 142.603 218.18 141.603 218.18ZM154.589 218.28C153.603 218.28 152.736 218.073 151.989 217.66C151.243 217.233 150.663 216.64 150.249 215.88C149.836 215.12 149.629 214.24 149.629 213.24V213C149.629 211.987 149.836 211.1 150.249 210.34C150.663 209.58 151.236 208.993 151.969 208.58C152.703 208.153 153.543 207.94 154.489 207.94C155.409 207.94 156.223 208.14 156.929 208.54C157.636 208.927 158.189 209.487 158.589 210.22C158.989 210.953 159.189 211.813 159.189 212.8V213.52H151.209C151.249 214.573 151.589 215.4 152.229 216C152.869 216.587 153.669 216.88 154.629 216.88C155.469 216.88 156.116 216.687 156.569 216.3C157.023 215.913 157.369 215.453 157.609 214.92L158.969 215.58C158.769 215.993 158.489 216.407 158.129 216.82C157.783 217.233 157.323 217.58 156.749 217.86C156.189 218.14 155.469 218.28 154.589 218.28ZM151.229 212.22H157.589C157.536 211.313 157.223 210.607 156.649 210.1C156.089 209.593 155.369 209.34 154.489 209.34C153.596 209.34 152.863 209.593 152.289 210.1C151.716 210.607 151.363 211.313 151.229 212.22Z" fill="#797979"/>
<path d="M26.064 247V242.68C26.064 242.296 25.96 241.984 25.752 241.744C25.56 241.504 25.232 241.384 24.768 241.384H19.296V238.504H23.664C24.608 238.504 25.32 238.28 25.8 237.832C26.296 237.368 26.544 236.656 26.544 235.696C26.544 234.736 26.296 234.032 25.8 233.584C25.32 233.12 24.608 232.888 23.664 232.888H19.296V230.2H32.256V232.648H28.128V233.08C28.592 233.384 28.96 233.76 29.232 234.208C29.52 234.656 29.664 235.304 29.664 236.152C29.664 237.016 29.44 237.728 28.992 238.288C28.56 238.848 27.968 239.256 27.216 239.512V239.944C27.856 239.976 28.352 240.2 28.704 240.616C29.056 241.016 29.232 241.552 29.232 242.224V247H26.064ZM19.296 236.92V234.472H32.256V236.92H19.296ZM45.2154 247V232.456H44.7834L42.5274 237.784H39.3114L42.7434 230.2H48.2874V247H45.2154ZM51.771 250.528V248.896H52.707C53.443 248.896 53.811 248.528 53.811 247.792V247.024H53.403C52.763 247.024 52.227 246.832 51.795 246.448C51.379 246.064 51.171 245.576 51.171 244.984C51.171 244.344 51.379 243.824 51.795 243.424C52.227 243.024 52.763 242.824 53.403 242.824C54.059 242.824 54.595 243.032 55.011 243.448C55.427 243.848 55.635 244.392 55.635 245.08V247.84C55.635 249.632 54.739 250.528 52.947 250.528H51.771ZM64.4244 247.336C62.4404 247.336 60.8484 246.792 59.6484 245.704C58.4484 244.6 57.8484 242.936 57.8484 240.712V236.488C57.8484 234.328 58.4484 232.688 59.6484 231.568C60.8484 230.432 62.4404 229.864 64.4244 229.864C66.4244 229.864 68.0164 230.432 69.2004 231.568C70.4004 232.688 71.0004 234.328 71.0004 236.488V240.712C71.0004 242.936 70.4004 244.6 69.2004 245.704C68.0164 246.792 66.4244 247.336 64.4244 247.336ZM64.4244 244.6C65.6244 244.6 66.5044 244.272 67.0644 243.616C67.6404 242.96 67.9284 242.024 67.9284 240.808V236.344C67.9284 235.112 67.6084 234.184 66.9684 233.56C66.3444 232.92 65.4964 232.6 64.4244 232.6C63.3204 232.6 62.4564 232.928 61.8324 233.584C61.2244 234.24 60.9204 235.16 60.9204 236.344V240.808C60.9204 242.072 61.2084 243.024 61.7844 243.664C62.3764 244.288 63.2564 244.6 64.4244 244.6ZM79.9869 247.336C78.0029 247.336 76.4109 246.792 75.2109 245.704C74.0109 244.6 73.4109 242.936 73.4109 240.712V236.488C73.4109 234.328 74.0109 232.688 75.2109 231.568C76.4109 230.432 78.0029 229.864 79.9869 229.864C81.9869 229.864 83.5789 230.432 84.7629 231.568C85.9629 232.688 86.5629 234.328 86.5629 236.488V240.712C86.5629 242.936 85.9629 244.6 84.7629 245.704C83.5789 246.792 81.9869 247.336 79.9869 247.336ZM79.9869 244.6C81.1869 244.6 82.0669 244.272 82.6269 243.616C83.2029 242.96 83.4909 242.024 83.4909 240.808V236.344C83.4909 235.112 83.1709 234.184 82.5309 233.56C81.9069 232.92 81.0589 232.6 79.9869 232.6C78.8829 232.6 78.0189 232.928 77.3949 233.584C76.7869 234.24 76.4829 235.16 76.4829 236.344V240.808C76.4829 242.072 76.7709 243.024 77.3469 243.664C77.9389 244.288 78.8189 244.6 79.9869 244.6ZM89.3882 250.528V248.896H90.3242C91.0602 248.896 91.4282 248.528 91.4282 247.792V247.024H91.0202C90.3802 247.024 89.8442 246.832 89.4122 246.448C88.9962 246.064 88.7882 245.576 88.7882 244.984C88.7882 244.344 88.9962 243.824 89.4122 243.424C89.8442 243.024 90.3802 242.824 91.0202 242.824C91.6762 242.824 92.2122 243.032 92.6282 243.448C93.0442 243.848 93.2522 244.392 93.2522 245.08V247.84C93.2522 249.632 92.3562 250.528 90.5642 250.528H89.3882ZM102.042 247.336C100.058 247.336 98.4656 246.792 97.2656 245.704C96.0656 244.6 95.4656 242.936 95.4656 240.712V236.488C95.4656 234.328 96.0656 232.688 97.2656 231.568C98.4656 230.432 100.058 229.864 102.042 229.864C104.042 229.864 105.634 230.432 106.818 231.568C108.018 232.688 108.618 234.328 108.618 236.488V240.712C108.618 242.936 108.018 244.6 106.818 245.704C105.634 246.792 104.042 247.336 102.042 247.336ZM102.042 244.6C103.242 244.6 104.122 244.272 104.682 243.616C105.258 242.96 105.546 242.024 105.546 240.808V236.344C105.546 235.112 105.226 234.184 104.586 233.56C103.962 232.92 103.114 232.6 102.042 232.6C100.938 232.6 100.074 232.928 99.4496 233.584C98.8416 234.24 98.5376 235.16 98.5376 236.344V240.808C98.5376 242.072 98.8256 243.024 99.4016 243.664C99.9936 244.288 100.874 244.6 102.042 244.6ZM117.604 247.336C115.62 247.336 114.028 246.792 112.828 245.704C111.628 244.6 111.028 242.936 111.028 240.712V236.488C111.028 234.328 111.628 232.688 112.828 231.568C114.028 230.432 115.62 229.864 117.604 229.864C119.604 229.864 121.196 230.432 122.38 231.568C123.58 232.688 124.18 234.328 124.18 236.488V240.712C124.18 242.936 123.58 244.6 122.38 245.704C121.196 246.792 119.604 247.336 117.604 247.336ZM117.604 244.6C118.804 244.6 119.684 244.272 120.244 243.616C120.82 242.96 121.108 242.024 121.108 240.808V236.344C121.108 235.112 120.788 234.184 120.148 233.56C119.524 232.92 118.676 232.6 117.604 232.6C116.5 232.6 115.636 232.928 115.012 233.584C114.404 234.24 114.1 235.16 114.1 236.344V240.808C114.1 242.072 114.388 243.024 114.964 243.664C115.556 244.288 116.436 244.6 117.604 244.6ZM127.005 250.528V248.896H127.941C128.677 248.896 129.045 248.528 129.045 247.792V247.024H128.637C127.997 247.024 127.461 246.832 127.029 246.448C126.613 246.064 126.405 245.576 126.405 244.984C126.405 244.344 126.613 243.824 127.029 243.424C127.461 243.024 127.997 242.824 128.637 242.824C129.293 242.824 129.829 243.032 130.245 243.448C130.661 243.848 130.869 244.392 130.869 245.08V247.84C130.869 249.632 129.973 250.528 128.181 250.528H127.005ZM139.659 247.336C137.675 247.336 136.083 246.792 134.883 245.704C133.683 244.6 133.083 242.936 133.083 240.712V236.488C133.083 234.328 133.683 232.688 134.883 231.568C136.083 230.432 137.675 229.864 139.659 229.864C141.659 229.864 143.251 230.432 144.435 231.568C145.635 232.688 146.235 234.328 146.235 236.488V240.712C146.235 242.936 145.635 244.6 144.435 245.704C143.251 246.792 141.659 247.336 139.659 247.336ZM139.659 244.6C140.859 244.6 141.739 244.272 142.299 243.616C142.875 242.96 143.163 242.024 143.163 240.808V236.344C143.163 235.112 142.843 234.184 142.203 233.56C141.579 232.92 140.731 232.6 139.659 232.6C138.555 232.6 137.691 232.928 137.067 233.584C136.459 234.24 136.155 235.16 136.155 236.344V240.808C136.155 242.072 136.443 243.024 137.019 243.664C137.611 244.288 138.491 244.6 139.659 244.6ZM155.221 247.336C153.237 247.336 151.645 246.792 150.445 245.704C149.245 244.6 148.645 242.936 148.645 240.712V236.488C148.645 234.328 149.245 232.688 150.445 231.568C151.645 230.432 153.237 229.864 155.221 229.864C157.221 229.864 158.813 230.432 159.997 231.568C161.197 232.688 161.797 234.328 161.797 236.488V240.712C161.797 242.936 161.197 244.6 159.997 245.704C158.813 246.792 157.221 247.336 155.221 247.336ZM155.221 244.6C156.421 244.6 157.301 244.272 157.861 243.616C158.437 242.96 158.725 242.024 158.725 240.808V236.344C158.725 235.112 158.405 234.184 157.765 233.56C157.141 232.92 156.293 232.6 155.221 232.6C154.117 232.6 153.253 232.928 152.629 233.584C152.021 234.24 151.717 235.16 151.717 236.344V240.808C151.717 242.072 152.005 243.024 152.581 243.664C153.173 244.288 154.053 244.6 155.221 244.6ZM170.784 247.336C168.8 247.336 167.208 246.792 166.008 245.704C164.808 244.6 164.208 242.936 164.208 240.712V236.488C164.208 234.328 164.808 232.688 166.008 231.568C167.208 230.432 168.8 229.864 170.784 229.864C172.784 229.864 174.376 230.432 175.56 231.568C176.76 232.688 177.36 234.328 177.36 236.488V240.712C177.36 242.936 176.76 244.6 175.56 245.704C174.376 246.792 172.784 247.336 170.784 247.336ZM170.784 244.6C171.984 244.6 172.864 244.272 173.424 243.616C174 242.96 174.288 242.024 174.288 240.808V236.344C174.288 235.112 173.968 234.184 173.328 233.56C172.704 232.92 171.856 232.6 170.784 232.6C169.68 232.6 168.816 232.928 168.192 233.584C167.584 234.24 167.28 235.16 167.28 236.344V240.808C167.28 242.072 167.568 243.024 168.144 243.664C168.736 244.288 169.616 244.6 170.784 244.6Z" fill="#1D1D1F"/>
<path d="M19.6 301V287H21.28V299.48H28.36V301H19.6ZM35.0198 301.28C34.0332 301.28 33.1598 301.073 32.3998 300.66C31.6532 300.247 31.0665 299.667 30.6398 298.92C30.2265 298.16 30.0198 297.267 30.0198 296.24V295.98C30.0198 294.967 30.2265 294.08 30.6398 293.32C31.0665 292.56 31.6532 291.973 32.3998 291.56C33.1598 291.147 34.0332 290.94 35.0198 290.94C36.0065 290.94 36.8732 291.147 37.6198 291.56C38.3798 291.973 38.9665 292.56 39.3798 293.32C39.8065 294.08 40.0198 294.967 40.0198 295.98V296.24C40.0198 297.267 39.8065 298.16 39.3798 298.92C38.9665 299.667 38.3798 300.247 37.6198 300.66C36.8732 301.073 36.0065 301.28 35.0198 301.28ZM35.0198 299.86C36.0598 299.86 36.8865 299.533 37.4998 298.88C38.1265 298.213 38.4398 297.32 38.4398 296.2V296.02C38.4398 294.9 38.1265 294.013 37.4998 293.36C36.8865 292.693 36.0598 292.36 35.0198 292.36C33.9932 292.36 33.1665 292.693 32.5398 293.36C31.9132 294.013 31.5998 294.9 31.5998 296.02V296.2C31.5998 297.32 31.9132 298.213 32.5398 298.88C33.1665 299.533 33.9932 299.86 35.0198 299.86ZM45.8631 301.28C45.1831 301.28 44.5631 301.16 44.0031 300.92C43.4431 300.68 43.0031 300.333 42.6831 299.88C42.3631 299.427 42.2031 298.873 42.2031 298.22C42.2031 297.553 42.3631 297.007 42.6831 296.58C43.0031 296.14 43.4431 295.813 44.0031 295.6C44.5631 295.373 45.1898 295.26 45.8831 295.26H49.1831V294.54C49.1831 293.847 48.9765 293.3 48.5631 292.9C48.1631 292.5 47.5631 292.3 46.7631 292.3C45.9765 292.3 45.3631 292.493 44.9231 292.88C44.4831 293.253 44.1831 293.76 44.0231 294.4L42.5431 293.92C42.7031 293.373 42.9565 292.88 43.3031 292.44C43.6498 291.987 44.1098 291.627 44.6831 291.36C45.2698 291.08 45.9698 290.94 46.7831 290.94C48.0365 290.94 49.0098 291.267 49.7031 291.92C50.3965 292.56 50.7431 293.467 50.7431 294.64V299.06C50.7431 299.46 50.9298 299.66 51.3031 299.66H52.2031V301H50.8231C50.3831 301 50.0298 300.88 49.7631 300.64C49.4965 300.387 49.3631 300.053 49.3631 299.64V299.54H49.1231C48.9765 299.793 48.7765 300.06 48.5231 300.34C48.2831 300.607 47.9498 300.827 47.5231 301C47.0965 301.187 46.5431 301.28 45.8631 301.28ZM46.0431 299.92C46.9765 299.92 47.7298 299.647 48.3031 299.1C48.8898 298.54 49.1831 297.76 49.1831 296.76V296.54H45.9431C45.3165 296.54 44.7965 296.68 44.3831 296.96C43.9831 297.227 43.7831 297.633 43.7831 298.18C43.7831 298.727 43.9898 299.153 44.4031 299.46C44.8298 299.767 45.3765 299.92 46.0431 299.92ZM54.367 301V291.22H55.907V292.88H56.187C56.4004 292.413 56.7604 291.993 57.267 291.62C57.787 291.233 58.547 291.04 59.547 291.04C60.2804 291.04 60.9337 291.193 61.507 291.5C62.0937 291.807 62.5604 292.26 62.907 292.86C63.2537 293.46 63.427 294.2 63.427 295.08V301H61.847V295.2C61.847 294.227 61.6004 293.52 61.107 293.08C60.627 292.64 59.9737 292.42 59.147 292.42C58.2004 292.42 57.427 292.727 56.827 293.34C56.2404 293.953 55.947 294.867 55.947 296.08V301H54.367ZM70.3555 301L74.6755 287H77.6355L81.9555 301H80.2155L79.1355 297.46H73.1755L72.0955 301H70.3555ZM73.5955 295.94H78.6955L76.2955 288.02H76.0155L73.5955 295.94ZM84.1131 301V291.22H85.6531V292.44H85.9331C86.1198 292.093 86.4265 291.773 86.8531 291.48C87.2798 291.187 87.8798 291.04 88.6531 291.04C89.4131 291.04 90.0265 291.207 90.4931 291.54C90.9731 291.873 91.3198 292.28 91.5331 292.76H91.8131C92.0398 292.28 92.3798 291.873 92.8331 291.54C93.2998 291.207 93.9465 291.04 94.7731 291.04C95.4265 291.04 95.9998 291.173 96.4931 291.44C96.9865 291.707 97.3731 292.093 97.6531 292.6C97.9465 293.093 98.0931 293.687 98.0931 294.38V301H96.5131V294.52C96.5131 293.867 96.3198 293.353 95.9331 292.98C95.5598 292.593 95.0331 292.4 94.3531 292.4C93.6331 292.4 93.0398 292.633 92.5731 293.1C92.1198 293.567 91.8931 294.24 91.8931 295.12V301H90.3131V294.52C90.3131 293.867 90.1198 293.353 89.7331 292.98C89.3598 292.593 88.8331 292.4 88.1531 292.4C87.4331 292.4 86.8398 292.633 86.3731 293.1C85.9198 293.567 85.6931 294.24 85.6931 295.12V301H84.1131ZM105.84 301.28C104.853 301.28 103.98 301.073 103.22 300.66C102.473 300.247 101.887 299.667 101.46 298.92C101.047 298.16 100.84 297.267 100.84 296.24V295.98C100.84 294.967 101.047 294.08 101.46 293.32C101.887 292.56 102.473 291.973 103.22 291.56C103.98 291.147 104.853 290.94 105.84 290.94C106.827 290.94 107.693 291.147 108.44 291.56C109.2 291.973 109.787 292.56 110.2 293.32C110.627 294.08 110.84 294.967 110.84 295.98V296.24C110.84 297.267 110.627 298.16 110.2 298.92C109.787 299.667 109.2 300.247 108.44 300.66C107.693 301.073 106.827 301.28 105.84 301.28ZM105.84 299.86C106.88 299.86 107.707 299.533 108.32 298.88C108.947 298.213 109.26 297.32 109.26 296.2V296.02C109.26 294.9 108.947 294.013 108.32 293.36C107.707 292.693 106.88 292.36 105.84 292.36C104.813 292.36 103.987 292.693 103.36 293.36C102.733 294.013 102.42 294.9 102.42 296.02V296.2C102.42 297.32 102.733 298.213 103.36 298.88C103.987 299.533 104.813 299.86 105.84 299.86ZM117.423 301.18C116.717 301.18 116.063 301.027 115.463 300.72C114.877 300.413 114.41 299.96 114.063 299.36C113.73 298.747 113.563 298.007 113.563 297.14V291.22H115.143V297.02C115.143 297.993 115.383 298.7 115.863 299.14C116.357 299.58 117.017 299.8 117.843 299.8C118.777 299.8 119.543 299.493 120.143 298.88C120.743 298.267 121.043 297.353 121.043 296.14V291.22H122.623V301H121.083V299.34H120.803C120.59 299.807 120.223 300.233 119.703 300.62C119.183 300.993 118.423 301.18 117.423 301.18ZM125.93 301V291.22H127.47V292.88H127.75C127.963 292.413 128.323 291.993 128.83 291.62C129.35 291.233 130.11 291.04 131.11 291.04C131.843 291.04 132.496 291.193 133.07 291.5C133.656 291.807 134.123 292.26 134.47 292.86C134.816 293.46 134.99 294.2 134.99 295.08V301H133.41V295.2C133.41 294.227 133.163 293.52 132.67 293.08C132.19 292.64 131.536 292.42 130.71 292.42C129.763 292.42 128.99 292.727 128.39 293.34C127.803 293.953 127.51 294.867 127.51 296.08V301H125.93ZM141.522 301C140.962 301 140.528 300.847 140.222 300.54C139.928 300.233 139.782 299.813 139.782 299.28V292.6H136.842V291.22H139.782V287.74H141.362V291.22H144.562V292.6H141.362V299.04C141.362 299.44 141.555 299.64 141.942 299.64H144.122V301H141.522Z" fill="#797979"/>
<path d="M26.064 330V325.68C26.064 325.296 25.96 324.984 25.752 324.744C25.56 324.504 25.232 324.384 24.768 324.384H19.296V321.504H23.664C24.608 321.504 25.32 321.28 25.8 320.832C26.296 320.368 26.544 319.656 26.544 318.696C26.544 317.736 26.296 317.032 25.8 316.584C25.32 316.12 24.608 315.888 23.664 315.888H19.296V313.2H32.256V315.648H28.128V316.08C28.592 316.384 28.96 316.76 29.232 317.208C29.52 317.656 29.664 318.304 29.664 319.152C29.664 320.016 29.44 320.728 28.992 321.288C28.56 321.848 27.968 322.256 27.216 322.512V322.944C27.856 322.976 28.352 323.2 28.704 323.616C29.056 324.016 29.232 324.552 29.232 325.224V330H26.064ZM19.296 319.92V317.472H32.256V319.92H19.296ZM46.2234 330.336C44.9434 330.336 43.8074 330.144 42.8154 329.76C41.8394 329.376 41.0714 328.824 40.5114 328.104C39.9674 327.368 39.6954 326.504 39.6954 325.512V325.224C39.6954 324.456 39.8314 323.824 40.1034 323.328C40.3754 322.816 40.7114 322.416 41.1114 322.128C41.5274 321.84 41.9194 321.64 42.2874 321.528V321.096C41.9194 320.968 41.5514 320.76 41.1834 320.472C40.8154 320.184 40.5114 319.8 40.2714 319.32C40.0474 318.84 39.9354 318.264 39.9354 317.592V317.304C39.9354 316.424 40.1914 315.656 40.7034 315C41.2314 314.328 41.9674 313.808 42.9114 313.44C43.8554 313.056 44.9594 312.864 46.2234 312.864C47.4874 312.864 48.5914 313.056 49.5354 313.44C50.4794 313.808 51.2074 314.328 51.7194 315C52.2474 315.656 52.5114 316.424 52.5114 317.304V317.592C52.5114 318.264 52.3914 318.84 52.1514 319.32C51.9274 319.8 51.6314 320.184 51.2634 320.472C50.9114 320.76 50.5434 320.968 50.1594 321.096V321.528C50.5434 321.64 50.9354 321.84 51.3354 322.128C51.7354 322.416 52.0714 322.816 52.3434 323.328C52.6154 323.824 52.7514 324.456 52.7514 325.224V325.512C52.7514 326.504 52.4714 327.368 51.9114 328.104C51.3674 328.824 50.5994 329.376 49.6074 329.76C48.6314 330.144 47.5034 330.336 46.2234 330.336ZM46.2234 327.6C47.3274 327.6 48.1754 327.392 48.7674 326.976C49.3754 326.544 49.6794 325.976 49.6794 325.272V325.08C49.6794 324.376 49.3834 323.816 48.7914 323.4C48.2154 322.968 47.3594 322.752 46.2234 322.752C45.1034 322.752 44.2474 322.968 43.6554 323.4C43.0634 323.816 42.7674 324.376 42.7674 325.08V325.272C42.7674 325.976 43.0634 326.544 43.6554 326.976C44.2634 327.392 45.1194 327.6 46.2234 327.6ZM46.2234 320.016C47.2474 320.016 48.0394 319.832 48.5994 319.464C49.1594 319.096 49.4394 318.576 49.4394 317.904V317.712C49.4394 317.04 49.1514 316.52 48.5754 316.152C47.9994 315.784 47.2154 315.6 46.2234 315.6C45.2314 315.6 44.4474 315.784 43.8714 316.152C43.2954 316.52 43.0074 317.04 43.0074 317.712V317.904C43.0074 318.576 43.2874 319.096 43.8474 319.464C44.4074 319.832 45.1994 320.016 46.2234 320.016ZM61.1901 330.336C59.2061 330.336 57.6141 329.792 56.4141 328.704C55.2141 327.6 54.6141 325.936 54.6141 323.712V319.488C54.6141 317.328 55.2141 315.688 56.4141 314.568C57.6141 313.432 59.2061 312.864 61.1901 312.864C63.1901 312.864 64.7821 313.432 65.9661 314.568C67.1661 315.688 67.7661 317.328 67.7661 319.488V323.712C67.7661 325.936 67.1661 327.6 65.9661 328.704C64.7821 329.792 63.1901 330.336 61.1901 330.336ZM61.1901 327.6C62.3901 327.6 63.2701 327.272 63.8301 326.616C64.4061 325.96 64.6941 325.024 64.6941 323.808V319.344C64.6941 318.112 64.3741 317.184 63.7341 316.56C63.1101 315.92 62.2621 315.6 61.1901 315.6C60.0861 315.6 59.2221 315.928 58.5981 316.584C57.9901 317.24 57.6861 318.16 57.6861 319.344V323.808C57.6861 325.072 57.9741 326.024 58.5501 326.664C59.1421 327.288 60.0221 327.6 61.1901 327.6ZM70.5913 333.528V331.896H71.5273C72.2633 331.896 72.6313 331.528 72.6313 330.792V330.024H72.2233C71.5833 330.024 71.0473 329.832 70.6153 329.448C70.1993 329.064 69.9913 328.576 69.9913 327.984C69.9913 327.344 70.1993 326.824 70.6153 326.424C71.0473 326.024 71.5833 325.824 72.2233 325.824C72.8793 325.824 73.4153 326.032 73.8313 326.448C74.2473 326.848 74.4553 327.392 74.4553 328.08V330.84C74.4553 332.632 73.5593 333.528 71.7673 333.528H70.5913ZM83.2448 330.336C81.2608 330.336 79.6688 329.792 78.4688 328.704C77.2688 327.6 76.6688 325.936 76.6688 323.712V319.488C76.6688 317.328 77.2688 315.688 78.4688 314.568C79.6688 313.432 81.2608 312.864 83.2448 312.864C85.2448 312.864 86.8368 313.432 88.0208 314.568C89.2208 315.688 89.8208 317.328 89.8208 319.488V323.712C89.8208 325.936 89.2208 327.6 88.0208 328.704C86.8368 329.792 85.2448 330.336 83.2448 330.336ZM83.2448 327.6C84.4448 327.6 85.3248 327.272 85.8848 326.616C86.4608 325.96 86.7488 325.024 86.7488 323.808V319.344C86.7488 318.112 86.4288 317.184 85.7888 316.56C85.1648 315.92 84.3168 315.6 83.2448 315.6C82.1408 315.6 81.2768 315.928 80.6528 316.584C80.0448 317.24 79.7408 318.16 79.7408 319.344V323.808C79.7408 325.072 80.0288 326.024 80.6048 326.664C81.1968 327.288 82.0768 327.6 83.2448 327.6ZM98.8073 330.336C96.8233 330.336 95.2313 329.792 94.0312 328.704C92.8313 327.6 92.2313 325.936 92.2313 323.712V319.488C92.2313 317.328 92.8313 315.688 94.0312 314.568C95.2313 313.432 96.8233 312.864 98.8073 312.864C100.807 312.864 102.399 313.432 103.583 314.568C104.783 315.688 105.383 317.328 105.383 319.488V323.712C105.383 325.936 104.783 327.6 103.583 328.704C102.399 329.792 100.807 330.336 98.8073 330.336ZM98.8073 327.6C100.007 327.6 100.887 327.272 101.447 326.616C102.023 325.96 102.311 325.024 102.311 323.808V319.344C102.311 318.112 101.991 317.184 101.351 316.56C100.727 315.92 99.8793 315.6 98.8073 315.6C97.7033 315.6 96.8393 315.928 96.2153 316.584C95.6073 317.24 95.3033 318.16 95.3033 319.344V323.808C95.3033 325.072 95.5913 326.024 96.1673 326.664C96.7593 327.288 97.6393 327.6 98.8073 327.6ZM108.209 333.528V331.896H109.145C109.881 331.896 110.249 331.528 110.249 330.792V330.024H109.84C109.201 330.024 108.665 329.832 108.233 329.448C107.817 329.064 107.609 328.576 107.609 327.984C107.609 327.344 107.817 326.824 108.233 326.424C108.665 326.024 109.201 325.824 109.84 325.824C110.497 325.824 111.033 326.032 111.449 326.448C111.865 326.848 112.073 327.392 112.073 328.08V330.84C112.073 332.632 111.177 333.528 109.385 333.528H108.209ZM120.862 330.336C118.878 330.336 117.286 329.792 116.086 328.704C114.886 327.6 114.286 325.936 114.286 323.712V319.488C114.286 317.328 114.886 315.688 116.086 314.568C117.286 313.432 118.878 312.864 120.862 312.864C122.862 312.864 124.454 313.432 125.638 314.568C126.838 315.688 127.438 317.328 127.438 319.488V323.712C127.438 325.936 126.838 327.6 125.638 328.704C124.454 329.792 122.862 330.336 120.862 330.336ZM120.862 327.6C122.062 327.6 122.942 327.272 123.502 326.616C124.078 325.96 124.366 325.024 124.366 323.808V319.344C124.366 318.112 124.046 317.184 123.406 316.56C122.782 315.92 121.934 315.6 120.862 315.6C119.758 315.6 118.894 315.928 118.27 316.584C117.662 317.24 117.358 318.16 117.358 319.344V323.808C117.358 325.072 117.646 326.024 118.222 326.664C118.814 327.288 119.694 327.6 120.862 327.6ZM136.424 330.336C134.44 330.336 132.848 329.792 131.648 328.704C130.448 327.6 129.848 325.936 129.848 323.712V319.488C129.848 317.328 130.448 315.688 131.648 314.568C132.848 313.432 134.44 312.864 136.424 312.864C138.424 312.864 140.016 313.432 141.2 314.568C142.4 315.688 143 317.328 143 319.488V323.712C143 325.936 142.4 327.6 141.2 328.704C140.016 329.792 138.424 330.336 136.424 330.336ZM136.424 327.6C137.624 327.6 138.504 327.272 139.064 326.616C139.64 325.96 139.928 325.024 139.928 323.808V319.344C139.928 318.112 139.608 317.184 138.968 316.56C138.344 315.92 137.496 315.6 136.424 315.6C135.32 315.6 134.456 315.928 133.832 316.584C133.224 317.24 132.92 318.16 132.92 319.344V323.808C132.92 325.072 133.208 326.024 133.784 326.664C134.376 327.288 135.256 327.6 136.424 327.6ZM151.987 330.336C150.003 330.336 148.411 329.792 147.211 328.704C146.011 327.6 145.411 325.936 145.411 323.712V319.488C145.411 317.328 146.011 315.688 147.211 314.568C148.411 313.432 150.003 312.864 151.987 312.864C153.987 312.864 155.579 313.432 156.763 314.568C157.963 315.688 158.563 317.328 158.563 319.488V323.712C158.563 325.936 157.963 327.6 156.763 328.704C155.579 329.792 153.987 330.336 151.987 330.336ZM151.987 327.6C153.187 327.6 154.067 327.272 154.627 326.616C155.203 325.96 155.491 325.024 155.491 323.808V319.344C155.491 318.112 155.171 317.184 154.531 316.56C153.907 315.92 153.059 315.6 151.987 315.6C150.883 315.6 150.019 315.928 149.395 316.584C148.787 317.24 148.483 318.16 148.483 319.344V323.808C148.483 325.072 148.771 326.024 149.347 326.664C149.939 327.288 150.819 327.6 151.987 327.6Z" fill="#1D1D1F"/>
<path d="M201.6 301V287H203.28V301H201.6ZM206.543 301V291.22H208.083V292.88H208.363C208.576 292.413 208.936 291.993 209.443 291.62C209.963 291.233 210.723 291.04 211.723 291.04C212.456 291.04 213.109 291.193 213.683 291.5C214.269 291.807 214.736 292.26 215.083 292.86C215.429 293.46 215.603 294.2 215.603 295.08V301H214.023V295.2C214.023 294.227 213.776 293.52 213.283 293.08C212.803 292.64 212.149 292.42 211.323 292.42C210.376 292.42 209.603 292.727 209.003 293.34C208.416 293.953 208.123 294.867 208.123 296.08V301H206.543ZM222.135 301C221.575 301 221.142 300.847 220.835 300.54C220.542 300.233 220.395 299.813 220.395 299.28V292.6H217.455V291.22H220.395V287.74H221.975V291.22H225.175V292.6H221.975V299.04C221.975 299.44 222.168 299.64 222.555 299.64H224.735V301H222.135ZM231.863 301.28C230.876 301.28 230.009 301.073 229.263 300.66C228.516 300.233 227.936 299.64 227.523 298.88C227.109 298.12 226.903 297.24 226.903 296.24V296C226.903 294.987 227.109 294.1 227.523 293.34C227.936 292.58 228.509 291.993 229.243 291.58C229.976 291.153 230.816 290.94 231.763 290.94C232.683 290.94 233.496 291.14 234.203 291.54C234.909 291.927 235.463 292.487 235.863 293.22C236.263 293.953 236.463 294.813 236.463 295.8V296.52H228.483C228.523 297.573 228.863 298.4 229.503 299C230.143 299.587 230.943 299.88 231.903 299.88C232.743 299.88 233.389 299.687 233.843 299.3C234.296 298.913 234.643 298.453 234.883 297.92L236.243 298.58C236.043 298.993 235.763 299.407 235.403 299.82C235.056 300.233 234.596 300.58 234.023 300.86C233.463 301.14 232.743 301.28 231.863 301.28ZM228.503 295.22H234.863C234.809 294.313 234.496 293.607 233.923 293.1C233.363 292.593 232.643 292.34 231.763 292.34C230.869 292.34 230.136 292.593 229.563 293.1C228.989 293.607 228.636 294.313 228.503 295.22ZM239.219 301V291.22H240.759V292.42H241.039C241.212 291.993 241.479 291.68 241.839 291.48C242.199 291.28 242.672 291.18 243.259 291.18H244.419V292.62H243.159C242.452 292.62 241.879 292.82 241.439 293.22C241.012 293.607 240.799 294.213 240.799 295.04V301H239.219ZM250.886 301.28C249.899 301.28 249.033 301.073 248.286 300.66C247.539 300.233 246.959 299.64 246.546 298.88C246.133 298.12 245.926 297.24 245.926 296.24V296C245.926 294.987 246.133 294.1 246.546 293.34C246.959 292.58 247.533 291.993 248.266 291.58C248.999 291.153 249.839 290.94 250.786 290.94C251.706 290.94 252.519 291.14 253.226 291.54C253.933 291.927 254.486 292.487 254.886 293.22C255.286 293.953 255.486 294.813 255.486 295.8V296.52H247.506C247.546 297.573 247.886 298.4 248.526 299C249.166 299.587 249.966 299.88 250.926 299.88C251.766 299.88 252.413 299.687 252.866 299.3C253.319 298.913 253.666 298.453 253.906 297.92L255.266 298.58C255.066 298.993 254.786 299.407 254.426 299.82C254.079 300.233 253.619 300.58 253.046 300.86C252.486 301.14 251.766 301.28 250.886 301.28ZM247.526 295.22H253.886C253.833 294.313 253.519 293.607 252.946 293.1C252.386 292.593 251.666 292.34 250.786 292.34C249.893 292.34 249.159 292.593 248.586 293.1C248.013 293.607 247.659 294.313 247.526 295.22ZM262.182 301.28C260.969 301.28 259.942 301 259.102 300.44C258.275 299.88 257.775 298.993 257.602 297.78L259.102 297.44C259.209 298.08 259.409 298.587 259.702 298.96C259.995 299.32 260.355 299.58 260.782 299.74C261.222 299.887 261.689 299.96 262.182 299.96C262.915 299.96 263.495 299.813 263.922 299.52C264.349 299.227 264.562 298.833 264.562 298.34C264.562 297.833 264.355 297.48 263.942 297.28C263.542 297.067 262.989 296.893 262.282 296.76L261.462 296.62C260.835 296.513 260.262 296.347 259.742 296.12C259.222 295.893 258.809 295.587 258.502 295.2C258.195 294.813 258.042 294.327 258.042 293.74C258.042 292.86 258.382 292.173 259.062 291.68C259.742 291.187 260.642 290.94 261.762 290.94C262.869 290.94 263.762 291.193 264.442 291.7C265.135 292.193 265.582 292.893 265.782 293.8L264.302 294.18C264.182 293.473 263.895 292.98 263.442 292.7C262.989 292.407 262.429 292.26 261.762 292.26C261.095 292.26 260.569 292.387 260.182 292.64C259.795 292.88 259.602 293.24 259.602 293.72C259.602 294.187 259.782 294.533 260.142 294.76C260.515 294.973 261.009 295.133 261.622 295.24L262.442 295.38C263.135 295.5 263.755 295.667 264.302 295.88C264.862 296.08 265.302 296.373 265.622 296.76C265.955 297.147 266.122 297.653 266.122 298.28C266.122 299.24 265.762 299.98 265.042 300.5C264.335 301.02 263.382 301.28 262.182 301.28ZM272.174 301C271.614 301 271.181 300.847 270.874 300.54C270.581 300.233 270.434 299.813 270.434 299.28V292.6H267.494V291.22H270.434V287.74H272.014V291.22H275.214V292.6H272.014V299.04C272.014 299.44 272.207 299.64 272.594 299.64H274.774V301H272.174Z" fill="#797979"/>
<path d="M206.192 330V315.456H205.76L203.504 320.784H200.288L203.72 313.2H209.264V330H206.192ZM218.628 330.336C216.644 330.336 215.052 329.792 213.852 328.704C212.652 327.6 212.052 325.936 212.052 323.712V319.488C212.052 317.328 212.652 315.688 213.852 314.568C215.052 313.432 216.644 312.864 218.628 312.864C220.628 312.864 222.22 313.432 223.404 314.568C224.604 315.688 225.204 317.328 225.204 319.488V323.712C225.204 325.936 224.604 327.6 223.404 328.704C222.22 329.792 220.628 330.336 218.628 330.336ZM218.628 327.6C219.828 327.6 220.708 327.272 221.268 326.616C221.844 325.96 222.132 325.024 222.132 323.808V319.344C222.132 318.112 221.812 317.184 221.172 316.56C220.548 315.92 219.7 315.6 218.628 315.6C217.524 315.6 216.66 315.928 216.036 316.584C215.428 317.24 215.124 318.16 215.124 319.344V323.808C215.124 325.072 215.412 326.024 215.988 326.664C216.58 327.288 217.46 327.6 218.628 327.6ZM236.06 330.312L234.236 328.848L247.148 312.888L248.972 314.352L236.06 330.312ZM246.188 330.24C244.972 330.24 244.02 329.92 243.332 329.28C242.644 328.624 242.3 327.736 242.3 326.616V326.448C242.3 325.312 242.644 324.424 243.332 323.784C244.02 323.128 244.972 322.8 246.188 322.8C247.372 322.8 248.316 323.128 249.02 323.784C249.724 324.424 250.076 325.312 250.076 326.448V326.616C250.076 327.736 249.732 328.624 249.044 329.28C248.356 329.92 247.404 330.24 246.188 330.24ZM246.188 328.272C246.652 328.272 247.012 328.128 247.268 327.84C247.54 327.552 247.676 327.176 247.676 326.712V326.328C247.676 325.864 247.54 325.488 247.268 325.2C247.012 324.912 246.652 324.768 246.188 324.768C245.724 324.768 245.356 324.912 245.084 325.2C244.828 325.488 244.7 325.864 244.7 326.328V326.712C244.7 327.176 244.828 327.552 245.084 327.84C245.356 328.128 245.724 328.272 246.188 328.272ZM237.02 320.4C235.804 320.4 234.852 320.08 234.164 319.44C233.476 318.784 233.132 317.896 233.132 316.776V316.608C233.132 315.472 233.476 314.584 234.164 313.944C234.852 313.288 235.804 312.96 237.02 312.96C238.204 312.96 239.148 313.288 239.852 313.944C240.556 314.584 240.908 315.472 240.908 316.608V316.776C240.908 317.896 240.564 318.784 239.876 319.44C239.188 320.08 238.236 320.4 237.02 320.4ZM237.02 318.432C237.484 318.432 237.844 318.288 238.1 318C238.372 317.712 238.508 317.336 238.508 316.872V316.488C238.508 316.024 238.372 315.648 238.1 315.36C237.844 315.072 237.484 314.928 237.02 314.928C236.556 314.928 236.188 315.072 235.916 315.36C235.66 315.648 235.532 316.024 235.532 316.488V316.872C235.532 317.336 235.66 317.712 235.916 318C236.188 318.288 236.556 318.432 237.02 318.432Z" fill="#1D1D1F"/>
<path d="M23.04 384V371.52H18.54V370H29.22V371.52H24.72V384H23.04ZM33.9056 384.28C32.919 384.28 32.0523 384.073 31.3056 383.66C30.559 383.233 29.979 382.64 29.5656 381.88C29.1523 381.12 28.9456 380.24 28.9456 379.24V379C28.9456 377.987 29.1523 377.1 29.5656 376.34C29.979 375.58 30.5523 374.993 31.2856 374.58C32.019 374.153 32.859 373.94 33.8056 373.94C34.7256 373.94 35.539 374.14 36.2456 374.54C36.9523 374.927 37.5056 375.487 37.9056 376.22C38.3056 376.953 38.5056 377.813 38.5056 378.8V379.52H30.5256C30.5656 380.573 30.9056 381.4 31.5456 382C32.1856 382.587 32.9856 382.88 33.9456 382.88C34.7856 382.88 35.4323 382.687 35.8856 382.3C36.339 381.913 36.6856 381.453 36.9256 380.92L38.2856 381.58C38.0856 381.993 37.8056 382.407 37.4456 382.82C37.099 383.233 36.639 383.58 36.0656 383.86C35.5056 384.14 34.7856 384.28 33.9056 384.28ZM30.5456 378.22H36.9056C36.8523 377.313 36.539 376.607 35.9656 376.1C35.4056 375.593 34.6856 375.34 33.8056 375.34C32.9123 375.34 32.179 375.593 31.6056 376.1C31.0323 376.607 30.679 377.313 30.5456 378.22ZM41.2616 384V374.22H42.8016V375.88H43.0816C43.2949 375.413 43.6549 374.993 44.1616 374.62C44.6816 374.233 45.4416 374.04 46.4416 374.04C47.1749 374.04 47.8282 374.193 48.4016 374.5C48.9882 374.807 49.4549 375.26 49.8016 375.86C50.1482 376.46 50.3216 377.2 50.3216 378.08V384H48.7416V378.2C48.7416 377.227 48.4949 376.52 48.0016 376.08C47.5216 375.64 46.8682 375.42 46.0416 375.42C45.0949 375.42 44.3216 375.727 43.7216 376.34C43.1349 376.953 42.8416 377.867 42.8416 379.08V384H41.2616ZM57.1109 384.18C56.4043 384.18 55.7509 384.027 55.1509 383.72C54.5643 383.413 54.0976 382.96 53.7509 382.36C53.4176 381.747 53.2509 381.007 53.2509 380.14V374.22H54.8309V380.02C54.8309 380.993 55.0709 381.7 55.5509 382.14C56.0443 382.58 56.7043 382.8 57.5309 382.8C58.4643 382.8 59.2309 382.493 59.8309 381.88C60.4309 381.267 60.7309 380.353 60.7309 379.14V374.22H62.3109V384H60.7709V382.34H60.4909C60.2776 382.807 59.9109 383.233 59.3909 383.62C58.8709 383.993 58.1109 384.18 57.1109 384.18ZM65.617 384V374.22H67.157V375.42H67.437C67.6104 374.993 67.877 374.68 68.237 374.48C68.597 374.28 69.0704 374.18 69.657 374.18H70.817V375.62H69.557C68.8504 375.62 68.277 375.82 67.837 376.22C67.4104 376.607 67.197 377.213 67.197 378.04V384H65.617ZM77.2845 384.28C76.2979 384.28 75.4312 384.073 74.6845 383.66C73.9379 383.233 73.3579 382.64 72.9445 381.88C72.5312 381.12 72.3245 380.24 72.3245 379.24V379C72.3245 377.987 72.5312 377.1 72.9445 376.34C73.3579 375.58 73.9312 374.993 74.6645 374.58C75.3979 374.153 76.2379 373.94 77.1845 373.94C78.1045 373.94 78.9179 374.14 79.6245 374.54C80.3312 374.927 80.8845 375.487 81.2845 376.22C81.6845 376.953 81.8845 377.813 81.8845 378.8V379.52H73.9045C73.9445 380.573 74.2845 381.4 74.9245 382C75.5645 382.587 76.3645 382.88 77.3245 382.88C78.1645 382.88 78.8112 382.687 79.2645 382.3C79.7179 381.913 80.0645 381.453 80.3045 380.92L81.6645 381.58C81.4645 381.993 81.1845 382.407 80.8245 382.82C80.4779 383.233 80.0179 383.58 79.4445 383.86C78.8845 384.14 78.1645 384.28 77.2845 384.28ZM73.9245 378.22H80.2845C80.2312 377.313 79.9179 376.607 79.3445 376.1C78.7845 375.593 78.0645 375.34 77.1845 375.34C76.2912 375.34 75.5579 375.593 74.9845 376.1C74.4112 376.607 74.0579 377.313 73.9245 378.22Z" fill="#797979"/>
<path d="M19.008 413V410.984C19.008 409.816 19.2 408.848 19.584 408.08C19.968 407.296 20.52 406.656 21.24 406.16C21.976 405.648 22.872 405.232 23.928 404.912L25.536 404.408C26.128 404.216 26.624 403.984 27.024 403.712C27.424 403.424 27.728 403.08 27.936 402.68C28.16 402.28 28.272 401.824 28.272 401.312V401.216C28.272 400.416 28 399.784 27.456 399.32C26.912 398.84 26.168 398.6 25.224 398.6C24.296 398.6 23.544 398.856 22.968 399.368C22.408 399.864 22.128 400.584 22.128 401.528V401.96H19.056V401.576C19.056 400.36 19.328 399.328 19.872 398.48C20.416 397.632 21.152 396.984 22.08 396.536C23.024 396.088 24.072 395.864 25.224 395.864C26.376 395.864 27.416 396.088 28.344 396.536C29.272 396.968 30 397.584 30.528 398.384C31.072 399.168 31.344 400.096 31.344 401.168V401.408C31.344 402.48 31.12 403.392 30.672 404.144C30.24 404.88 29.648 405.488 28.896 405.968C28.144 406.432 27.288 406.816 26.328 407.12L24.792 407.6C24.104 407.808 23.568 408.04 23.184 408.296C22.8 408.536 22.528 408.808 22.368 409.112C22.224 409.4 22.152 409.752 22.152 410.168V410.264H31.2V413H19.008ZM40.026 413.336C38.042 413.336 36.45 412.792 35.25 411.704C34.05 410.6 33.45 408.936 33.45 406.712V402.488C33.45 400.328 34.05 398.688 35.25 397.568C36.45 396.432 38.042 395.864 40.026 395.864C42.026 395.864 43.618 396.432 44.802 397.568C46.002 398.688 46.602 400.328 46.602 402.488V406.712C46.602 408.936 46.002 410.6 44.802 411.704C43.618 412.792 42.026 413.336 40.026 413.336ZM40.026 410.6C41.226 410.6 42.106 410.272 42.666 409.616C43.242 408.96 43.53 408.024 43.53 406.808V402.344C43.53 401.112 43.21 400.184 42.57 399.56C41.946 398.92 41.098 398.6 40.026 398.6C38.922 398.6 38.058 398.928 37.434 399.584C36.826 400.24 36.522 401.16 36.522 402.344V406.808C36.522 408.072 36.81 409.024 37.386 409.664C37.978 410.288 38.858 410.6 40.026 410.6ZM56.8823 417.8V415.16H63.3623C63.8103 415.16 64.0343 414.92 64.0343 414.44V411.44H63.6023C63.4743 411.712 63.2743 411.984 63.0023 412.256C62.7303 412.528 62.3623 412.752 61.8983 412.928C61.4343 413.104 60.8423 413.192 60.1223 413.192C59.1943 413.192 58.3783 412.984 57.6743 412.568C56.9863 412.136 56.4503 411.544 56.0663 410.792C55.6823 410.04 55.4902 409.176 55.4902 408.2V401.096H58.5143V407.96C58.5143 408.856 58.7303 409.528 59.1623 409.976C59.6103 410.424 60.2423 410.648 61.0583 410.648C61.9863 410.648 62.7063 410.344 63.2183 409.736C63.7303 409.112 63.9863 408.248 63.9863 407.144V401.096H67.0103V415.112C67.0103 415.928 66.7703 416.576 66.2903 417.056C65.8103 417.552 65.1703 417.8 64.3703 417.8H56.8823ZM75.7993 413.336C74.6153 413.336 73.5673 413.088 72.6553 412.592C71.7593 412.08 71.0553 411.368 70.5433 410.456C70.0473 409.528 69.7993 408.44 69.7993 407.192V406.904C69.7993 405.656 70.0473 404.576 70.5433 403.664C71.0393 402.736 71.7353 402.024 72.6313 401.528C73.5273 401.016 74.5673 400.76 75.7513 400.76C76.9193 400.76 77.9353 401.024 78.7993 401.552C79.6633 402.064 80.3353 402.784 80.8153 403.712C81.2953 404.624 81.5353 405.688 81.5353 406.904V407.936H72.8713C72.9033 408.752 73.2073 409.416 73.7833 409.928C74.3593 410.44 75.0633 410.696 75.8953 410.696C76.7433 410.696 77.3673 410.512 77.7673 410.144C78.1673 409.776 78.4713 409.368 78.6793 408.92L81.1513 410.216C80.9273 410.632 80.5993 411.088 80.1673 411.584C79.7513 412.064 79.1913 412.48 78.4873 412.832C77.7833 413.168 76.8873 413.336 75.7993 413.336ZM72.8953 405.68H78.4633C78.3993 404.992 78.1193 404.44 77.6233 404.024C77.1433 403.608 76.5113 403.4 75.7273 403.4C74.9113 403.4 74.2633 403.608 73.7833 404.024C73.3033 404.44 73.0073 404.992 72.8953 405.68ZM87.9229 413.336C87.0749 413.336 86.3149 413.192 85.6429 412.904C84.9709 412.6 84.4349 412.168 84.0349 411.608C83.6509 411.032 83.4589 410.336 83.4589 409.52C83.4589 408.704 83.6509 408.024 84.0349 407.48C84.4349 406.92 84.9789 406.504 85.6669 406.232C86.3709 405.944 87.1709 405.8 88.0669 405.8H91.3309V405.128C91.3309 404.568 91.1549 404.112 90.8029 403.76C90.4509 403.392 89.8909 403.208 89.1229 403.208C88.3709 403.208 87.8109 403.384 87.4429 403.736C87.0749 404.072 86.8349 404.512 86.7229 405.056L83.9389 404.12C84.1309 403.512 84.4349 402.96 84.8509 402.464C85.2829 401.952 85.8509 401.544 86.5549 401.24C87.2749 400.92 88.1469 400.76 89.1709 400.76C90.7389 400.76 91.9789 401.152 92.8909 401.936C93.8029 402.72 94.2589 403.856 94.2589 405.344V409.784C94.2589 410.264 94.4829 410.504 94.9309 410.504H95.8909V413H93.8749C93.2829 413 92.7949 412.856 92.4109 412.568C92.0269 412.28 91.8349 411.896 91.8349 411.416V411.392H91.3789C91.3149 411.584 91.1709 411.84 90.9469 412.16C90.7229 412.464 90.3709 412.736 89.8909 412.976C89.4109 413.216 88.7549 413.336 87.9229 413.336ZM88.4509 410.888C89.2989 410.888 89.9869 410.656 90.5149 410.192C91.0589 409.712 91.3309 409.08 91.3309 408.296V408.056H88.2829C87.7229 408.056 87.2829 408.176 86.9629 408.416C86.6429 408.656 86.4829 408.992 86.4829 409.424C86.4829 409.856 86.6509 410.208 86.9869 410.48C87.3229 410.752 87.8109 410.888 88.4509 410.888ZM98.1019 413V401.096H101.078V402.44H101.51C101.686 401.96 101.974 401.608 102.374 401.384C102.79 401.16 103.27 401.048 103.814 401.048H105.254V403.736H103.766C102.998 403.736 102.366 403.944 101.87 404.36C101.374 404.76 101.126 405.384 101.126 406.232V413H98.1019ZM112.28 413.336C110.728 413.336 109.456 413 108.464 412.328C107.472 411.656 106.872 410.696 106.664 409.448L109.448 408.728C109.56 409.288 109.744 409.728 110 410.048C110.272 410.368 110.6 410.6 110.984 410.744C111.384 410.872 111.816 410.936 112.28 410.936C112.984 410.936 113.504 410.816 113.84 410.576C114.176 410.32 114.344 410.008 114.344 409.64C114.344 409.272 114.184 408.992 113.864 408.8C113.544 408.592 113.032 408.424 112.328 408.296L111.656 408.176C110.824 408.016 110.064 407.8 109.376 407.528C108.688 407.24 108.136 406.848 107.72 406.352C107.304 405.856 107.096 405.216 107.096 404.432C107.096 403.248 107.528 402.344 108.392 401.72C109.256 401.08 110.392 400.76 111.8 400.76C113.128 400.76 114.232 401.056 115.112 401.648C115.992 402.24 116.568 403.016 116.84 403.976L114.032 404.84C113.904 404.232 113.64 403.8 113.24 403.544C112.856 403.288 112.376 403.16 111.8 403.16C111.224 403.16 110.784 403.264 110.48 403.472C110.176 403.664 110.024 403.936 110.024 404.288C110.024 404.672 110.184 404.96 110.504 405.152C110.824 405.328 111.256 405.464 111.8 405.56L112.472 405.68C113.368 405.84 114.176 406.056 114.896 406.328C115.632 406.584 116.208 406.96 116.624 407.456C117.056 407.936 117.272 408.592 117.272 409.424C117.272 410.672 116.816 411.64 115.904 412.328C115.008 413 113.8 413.336 112.28 413.336Z" fill="#1D1D1F"/>
<path d="M19.6 467V453H28.22V454.52H21.28V459.2H27.66V460.72H21.28V465.48H28.32V467H19.6ZM34.8695 467.28C33.6562 467.28 32.6295 467 31.7895 466.44C30.9629 465.88 30.4629 464.993 30.2895 463.78L31.7895 463.44C31.8962 464.08 32.0962 464.587 32.3895 464.96C32.6829 465.32 33.0429 465.58 33.4695 465.74C33.9095 465.887 34.3762 465.96 34.8695 465.96C35.6029 465.96 36.1829 465.813 36.6095 465.52C37.0362 465.227 37.2495 464.833 37.2495 464.34C37.2495 463.833 37.0429 463.48 36.6295 463.28C36.2295 463.067 35.6762 462.893 34.9695 462.76L34.1495 462.62C33.5229 462.513 32.9495 462.347 32.4295 462.12C31.9095 461.893 31.4962 461.587 31.1895 461.2C30.8829 460.813 30.7295 460.327 30.7295 459.74C30.7295 458.86 31.0695 458.173 31.7495 457.68C32.4295 457.187 33.3295 456.94 34.4495 456.94C35.5562 456.94 36.4495 457.193 37.1295 457.7C37.8229 458.193 38.2695 458.893 38.4695 459.8L36.9895 460.18C36.8695 459.473 36.5829 458.98 36.1295 458.7C35.6762 458.407 35.1162 458.26 34.4495 458.26C33.7829 458.26 33.2562 458.387 32.8695 458.64C32.4829 458.88 32.2895 459.24 32.2895 459.72C32.2895 460.187 32.4695 460.533 32.8295 460.76C33.2029 460.973 33.6962 461.133 34.3095 461.24L35.1295 461.38C35.8229 461.5 36.4429 461.667 36.9895 461.88C37.5495 462.08 37.9895 462.373 38.3095 462.76C38.6429 463.147 38.8095 463.653 38.8095 464.28C38.8095 465.24 38.4495 465.98 37.7295 466.5C37.0229 467.02 36.0695 467.28 34.8695 467.28ZM44.8616 467C44.3016 467 43.8682 466.847 43.5616 466.54C43.2682 466.233 43.1216 465.813 43.1216 465.28V458.6H40.1816V457.22H43.1216V453.74H44.7016V457.22H47.9016V458.6H44.7016V465.04C44.7016 465.44 44.8949 465.64 45.2816 465.64H47.4616V467H44.8616ZM50.4608 467V457.22H52.0408V467H50.4608ZM51.2608 455.7C50.9141 455.7 50.6208 455.587 50.3808 455.36C50.1541 455.133 50.0408 454.847 50.0408 454.5C50.0408 454.14 50.1541 453.847 50.3808 453.62C50.6208 453.393 50.9141 453.28 51.2608 453.28C51.6074 453.28 51.8941 453.393 52.1208 453.62C52.3474 453.847 52.4608 454.14 52.4608 454.5C52.4608 454.847 52.3474 455.133 52.1208 455.36C51.8941 455.587 51.6074 455.7 51.2608 455.7ZM55.3631 467V457.22H56.9031V458.44H57.1831C57.3698 458.093 57.6765 457.773 58.1031 457.48C58.5298 457.187 59.1298 457.04 59.9031 457.04C60.6631 457.04 61.2765 457.207 61.7431 457.54C62.2231 457.873 62.5698 458.28 62.7831 458.76H63.0631C63.2898 458.28 63.6298 457.873 64.0831 457.54C64.5498 457.207 65.1965 457.04 66.0231 457.04C66.6765 457.04 67.2498 457.173 67.7431 457.44C68.2365 457.707 68.6231 458.093 68.9031 458.6C69.1965 459.093 69.3431 459.687 69.3431 460.38V467H67.7631V460.52C67.7631 459.867 67.5698 459.353 67.1831 458.98C66.8098 458.593 66.2831 458.4 65.6031 458.4C64.8831 458.4 64.2898 458.633 63.8231 459.1C63.3698 459.567 63.1431 460.24 63.1431 461.12V467H61.5631V460.52C61.5631 459.867 61.3698 459.353 60.9831 458.98C60.6098 458.593 60.0831 458.4 59.4031 458.4C58.6831 458.4 58.0898 458.633 57.6231 459.1C57.1698 459.567 56.9431 460.24 56.9431 461.12V467H55.3631ZM75.5702 467.28C74.8902 467.28 74.2702 467.16 73.7102 466.92C73.1502 466.68 72.7102 466.333 72.3902 465.88C72.0702 465.427 71.9102 464.873 71.9102 464.22C71.9102 463.553 72.0702 463.007 72.3902 462.58C72.7102 462.14 73.1502 461.813 73.7102 461.6C74.2702 461.373 74.8968 461.26 75.5902 461.26H78.8902V460.54C78.8902 459.847 78.6835 459.3 78.2702 458.9C77.8702 458.5 77.2702 458.3 76.4702 458.3C75.6835 458.3 75.0702 458.493 74.6302 458.88C74.1902 459.253 73.8902 459.76 73.7302 460.4L72.2502 459.92C72.4102 459.373 72.6635 458.88 73.0102 458.44C73.3568 457.987 73.8168 457.627 74.3902 457.36C74.9768 457.08 75.6768 456.94 76.4902 456.94C77.7435 456.94 78.7168 457.267 79.4102 457.92C80.1035 458.56 80.4502 459.467 80.4502 460.64V465.06C80.4502 465.46 80.6368 465.66 81.0102 465.66H81.9102V467H80.5302C80.0902 467 79.7368 466.88 79.4702 466.64C79.2035 466.387 79.0702 466.053 79.0702 465.64V465.54H78.8302C78.6835 465.793 78.4835 466.06 78.2302 466.34C77.9902 466.607 77.6568 466.827 77.2302 467C76.8035 467.187 76.2502 467.28 75.5702 467.28ZM75.7502 465.92C76.6835 465.92 77.4368 465.647 78.0102 465.1C78.5968 464.54 78.8902 463.76 78.8902 462.76V462.54H75.6502C75.0235 462.54 74.5035 462.68 74.0902 462.96C73.6902 463.227 73.4902 463.633 73.4902 464.18C73.4902 464.727 73.6968 465.153 74.1102 465.46C74.5368 465.767 75.0835 465.92 75.7502 465.92ZM87.0295 467C86.4695 467 86.0362 466.847 85.7295 466.54C85.4362 466.233 85.2895 465.813 85.2895 465.28V458.6H82.3495V457.22H85.2895V453.74H86.8695V457.22H90.0695V458.6H86.8695V465.04C86.8695 465.44 87.0629 465.64 87.4495 465.64H89.6295V467H87.0295ZM96.7572 467.28C95.7705 467.28 94.9039 467.073 94.1572 466.66C93.4105 466.233 92.8305 465.64 92.4172 464.88C92.0039 464.12 91.7972 463.24 91.7972 462.24V462C91.7972 460.987 92.0039 460.1 92.4172 459.34C92.8305 458.58 93.4039 457.993 94.1372 457.58C94.8705 457.153 95.7105 456.94 96.6572 456.94C97.5772 456.94 98.3905 457.14 99.0972 457.54C99.8039 457.927 100.357 458.487 100.757 459.22C101.157 459.953 101.357 460.813 101.357 461.8V462.52H93.3772C93.4172 463.573 93.7572 464.4 94.3972 465C95.0372 465.587 95.8372 465.88 96.7972 465.88C97.6372 465.88 98.2839 465.687 98.7372 465.3C99.1905 464.913 99.5372 464.453 99.7772 463.92L101.137 464.58C100.937 464.993 100.657 465.407 100.297 465.82C99.9505 466.233 99.4905 466.58 98.9172 466.86C98.3572 467.14 97.6372 467.28 96.7572 467.28ZM93.3972 461.22H99.7572C99.7039 460.313 99.3905 459.607 98.8172 459.1C98.2572 458.593 97.5372 458.34 96.6572 458.34C95.7639 458.34 95.0305 458.593 94.4572 459.1C93.8839 459.607 93.5305 460.313 93.3972 461.22ZM108.253 467.28C107.413 467.28 106.64 467.08 105.933 466.68C105.226 466.28 104.666 465.7 104.253 464.94C103.84 464.18 103.633 463.28 103.633 462.24V461.98C103.633 460.94 103.84 460.047 104.253 459.3C104.666 458.54 105.22 457.96 105.913 457.56C106.62 457.147 107.4 456.94 108.253 456.94C108.933 456.94 109.506 457.033 109.973 457.22C110.453 457.393 110.84 457.62 111.133 457.9C111.426 458.167 111.653 458.453 111.813 458.76H112.093V453H113.673V467H112.133V465.38H111.853C111.586 465.873 111.173 466.313 110.613 466.7C110.053 467.087 109.266 467.28 108.253 467.28ZM108.673 465.88C109.686 465.88 110.506 465.56 111.133 464.92C111.773 464.267 112.093 463.36 112.093 462.2V462.02C112.093 460.86 111.773 459.96 111.133 459.32C110.506 458.667 109.686 458.34 108.673 458.34C107.673 458.34 106.846 458.667 106.193 459.32C105.553 459.96 105.233 460.86 105.233 462.02V462.2C105.233 463.36 105.553 464.267 106.193 464.92C106.846 465.56 107.673 465.88 108.673 465.88ZM122.061 467V453H125.261L128.981 465.94H129.241L132.961 453H136.161V467H134.541V454.1H134.261L130.561 467H127.661L123.961 454.1H123.681V467H122.061ZM143.946 467.28C142.959 467.28 142.086 467.073 141.326 466.66C140.579 466.247 139.992 465.667 139.566 464.92C139.152 464.16 138.946 463.267 138.946 462.24V461.98C138.946 460.967 139.152 460.08 139.566 459.32C139.992 458.56 140.579 457.973 141.326 457.56C142.086 457.147 142.959 456.94 143.946 456.94C144.932 456.94 145.799 457.147 146.546 457.56C147.306 457.973 147.892 458.56 148.306 459.32C148.732 460.08 148.946 460.967 148.946 461.98V462.24C148.946 463.267 148.732 464.16 148.306 464.92C147.892 465.667 147.306 466.247 146.546 466.66C145.799 467.073 144.932 467.28 143.946 467.28ZM143.946 465.86C144.986 465.86 145.812 465.533 146.426 464.88C147.052 464.213 147.366 463.32 147.366 462.2V462.02C147.366 460.9 147.052 460.013 146.426 459.36C145.812 458.693 144.986 458.36 143.946 458.36C142.919 458.36 142.092 458.693 141.466 459.36C140.839 460.013 140.526 460.9 140.526 462.02V462.2C140.526 463.32 140.839 464.213 141.466 464.88C142.092 465.533 142.919 465.86 143.946 465.86ZM151.789 467V457.22H153.329V458.88H153.609C153.822 458.413 154.182 457.993 154.689 457.62C155.209 457.233 155.969 457.04 156.969 457.04C157.702 457.04 158.356 457.193 158.929 457.5C159.516 457.807 159.982 458.26 160.329 458.86C160.676 459.46 160.849 460.2 160.849 461.08V467H159.269V461.2C159.269 460.227 159.022 459.52 158.529 459.08C158.049 458.64 157.396 458.42 156.569 458.42C155.622 458.42 154.849 458.727 154.249 459.34C153.662 459.953 153.369 460.867 153.369 462.08V467H151.789ZM167.381 467C166.821 467 166.388 466.847 166.081 466.54C165.788 466.233 165.641 465.813 165.641 465.28V458.6H162.701V457.22H165.641V453.74H167.221V457.22H170.421V458.6H167.221V465.04C167.221 465.44 167.414 465.64 167.801 465.64H169.981V467H167.381ZM172.98 467V453H174.56V458.78H174.84C174.974 458.487 175.174 458.213 175.44 457.96C175.72 457.693 176.074 457.473 176.5 457.3C176.94 457.127 177.494 457.04 178.16 457.04C178.894 457.04 179.547 457.2 180.12 457.52C180.707 457.827 181.174 458.28 181.52 458.88C181.867 459.467 182.04 460.2 182.04 461.08V467H180.46V461.2C180.46 460.227 180.214 459.52 179.72 459.08C179.24 458.64 178.587 458.42 177.76 458.42C176.814 458.42 176.04 458.727 175.44 459.34C174.854 459.953 174.56 460.867 174.56 462.08V467H172.98ZM185.246 467V453H186.826V467H185.246ZM191.328 471V469.6H196.928C197.315 469.6 197.508 469.4 197.508 469V465.44H197.228C197.095 465.72 196.888 466 196.608 466.28C196.342 466.547 195.988 466.767 195.548 466.94C195.108 467.1 194.555 467.18 193.888 467.18C193.182 467.18 192.528 467.027 191.928 466.72C191.342 466.413 190.875 465.96 190.528 465.36C190.195 464.76 190.028 464.027 190.028 463.16V457.22H191.608V463.04C191.608 464 191.848 464.7 192.328 465.14C192.822 465.58 193.482 465.8 194.308 465.8C195.242 465.8 196.008 465.493 196.608 464.88C197.208 464.267 197.508 463.353 197.508 462.14V457.22H199.088V469.28C199.088 469.813 198.935 470.233 198.628 470.54C198.335 470.847 197.902 471 197.328 471H191.328ZM207.471 467V453H216.091V454.52H209.151V459.2H215.531V460.72H209.151V465.48H216.191V467H207.471ZM218.741 467V453H221.941L225.661 465.94H225.921L229.641 453H232.841V467H231.221V454.1H230.941L227.241 467H224.341L220.641 454.1H220.361V467H218.741ZM236.045 467V453H237.725V467H236.045Z" fill="#797979"/>
<path d="M26.064 496V491.68C26.064 491.296 25.96 490.984 25.752 490.744C25.56 490.504 25.232 490.384 24.768 490.384H19.296V487.504H23.664C24.608 487.504 25.32 487.28 25.8 486.832C26.296 486.368 26.544 485.656 26.544 484.696C26.544 483.736 26.296 483.032 25.8 482.584C25.32 482.12 24.608 481.888 23.664 481.888H19.296V479.2H32.256V481.648H28.128V482.08C28.592 482.384 28.96 482.76 29.232 483.208C29.52 483.656 29.664 484.304 29.664 485.152C29.664 486.016 29.44 486.728 28.992 487.288C28.56 487.848 27.968 488.256 27.216 488.512V488.944C27.856 488.976 28.352 489.2 28.704 489.616C29.056 490.016 29.232 490.552 29.232 491.224V496H26.064ZM19.296 485.92V483.472H32.256V485.92H19.296ZM46.3194 496.336C45.0554 496.336 43.9354 496.112 42.9594 495.664C41.9834 495.216 41.2154 494.576 40.6554 493.744C40.1114 492.896 39.8394 491.896 39.8394 490.744V490.312H42.9114V490.648C42.9114 491.544 43.2234 492.264 43.8474 492.808C44.4714 493.336 45.2954 493.6 46.3194 493.6C47.3594 493.6 48.1594 493.352 48.7194 492.856C49.2954 492.36 49.5834 491.736 49.5834 490.984V490.744C49.5834 490.232 49.4554 489.816 49.1994 489.496C48.9434 489.176 48.5994 488.944 48.1674 488.8C47.7354 488.64 47.2474 488.56 46.7034 488.56H43.3434V485.2L48.7674 482.32V481.936H40.2714V479.2H52.1754V483.28L47.1114 485.968V486.352H47.9994C48.7514 486.352 49.4794 486.504 50.1834 486.808C50.9034 487.112 51.4954 487.584 51.9594 488.224C52.4234 488.848 52.6554 489.664 52.6554 490.672V490.96C52.6554 492.048 52.3914 493 51.8634 493.816C51.3354 494.616 50.5914 495.24 49.6314 495.688C48.6874 496.12 47.5834 496.336 46.3194 496.336ZM60.921 496.336C59.657 496.336 58.537 496.112 57.561 495.664C56.585 495.216 55.817 494.576 55.257 493.744C54.713 492.896 54.441 491.896 54.441 490.744V490.312H57.513V490.648C57.513 491.544 57.825 492.264 58.449 492.808C59.073 493.336 59.897 493.6 60.921 493.6C61.961 493.6 62.761 493.352 63.321 492.856C63.897 492.36 64.185 491.736 64.185 490.984V490.744C64.185 490.232 64.057 489.816 63.801 489.496C63.545 489.176 63.201 488.944 62.769 488.8C62.337 488.64 61.849 488.56 61.305 488.56H57.945V485.2L63.369 482.32V481.936H54.873V479.2H66.777V483.28L61.713 485.968V486.352H62.601C63.353 486.352 64.081 486.504 64.785 486.808C65.505 487.112 66.097 487.584 66.561 488.224C67.025 488.848 67.257 489.664 67.257 490.672V490.96C67.257 492.048 66.993 493 66.465 493.816C65.937 494.616 65.193 495.24 64.233 495.688C63.289 496.12 62.185 496.336 60.921 496.336ZM70.1226 499.528V497.896H71.0586C71.7946 497.896 72.1626 497.528 72.1626 496.792V496.024H71.7546C71.1146 496.024 70.5786 495.832 70.1466 495.448C69.7306 495.064 69.5226 494.576 69.5226 493.984C69.5226 493.344 69.7306 492.824 70.1466 492.424C70.5786 492.024 71.1146 491.824 71.7546 491.824C72.4106 491.824 72.9466 492.032 73.3626 492.448C73.7786 492.848 73.9866 493.392 73.9866 494.08V496.84C73.9866 498.632 73.0906 499.528 71.2986 499.528H70.1226ZM84.1613 496V492.592H75.9053V489.04L81.7133 479.2H87.2333V489.856H90.0173V492.592H87.2333V496H84.1613ZM78.8333 489.856H84.1613V481.168H83.7293L78.8333 489.472V489.856ZM97.8111 496.336C96.4991 496.336 95.3631 496.104 94.4031 495.64C93.4591 495.176 92.7311 494.52 92.2191 493.672C91.7071 492.824 91.4511 491.84 91.4511 490.72V490.48H94.5711V490.696C94.5711 491.496 94.8351 492.184 95.3631 492.76C95.9071 493.32 96.7071 493.6 97.7631 493.6C98.8191 493.6 99.6271 493.32 100.187 492.76C100.763 492.184 101.051 491.44 101.051 490.528V490.288C101.051 489.392 100.763 488.68 100.187 488.152C99.6271 487.624 98.9231 487.36 98.0751 487.36C97.6111 487.36 97.2271 487.424 96.9231 487.552C96.6191 487.68 96.3711 487.84 96.1791 488.032C95.9871 488.224 95.8271 488.416 95.6991 488.608H91.9791V479.2H103.451V481.984H95.0511V486.088H95.4831C95.6431 485.88 95.8591 485.68 96.1311 485.488C96.4031 485.296 96.7551 485.136 97.1871 485.008C97.6191 484.88 98.1311 484.816 98.7231 484.816C99.7151 484.816 100.619 485.024 101.435 485.44C102.251 485.856 102.899 486.472 103.379 487.288C103.875 488.088 104.123 489.08 104.123 490.264V490.552C104.123 491.736 103.867 492.76 103.355 493.624C102.859 494.488 102.139 495.16 101.195 495.64C100.251 496.104 99.1231 496.336 97.8111 496.336ZM112.13 496.336C110.85 496.336 109.714 496.144 108.722 495.76C107.746 495.376 106.978 494.824 106.418 494.104C105.874 493.368 105.602 492.504 105.602 491.512V491.224C105.602 490.456 105.738 489.824 106.01 489.328C106.282 488.816 106.618 488.416 107.018 488.128C107.434 487.84 107.826 487.64 108.194 487.528V487.096C107.826 486.968 107.458 486.76 107.09 486.472C106.722 486.184 106.418 485.8 106.178 485.32C105.954 484.84 105.842 484.264 105.842 483.592V483.304C105.842 482.424 106.098 481.656 106.61 481C107.138 480.328 107.874 479.808 108.818 479.44C109.762 479.056 110.866 478.864 112.13 478.864C113.394 478.864 114.498 479.056 115.442 479.44C116.386 479.808 117.114 480.328 117.626 481C118.154 481.656 118.418 482.424 118.418 483.304V483.592C118.418 484.264 118.298 484.84 118.058 485.32C117.834 485.8 117.538 486.184 117.17 486.472C116.818 486.76 116.45 486.968 116.066 487.096V487.528C116.45 487.64 116.842 487.84 117.242 488.128C117.642 488.416 117.978 488.816 118.25 489.328C118.522 489.824 118.658 490.456 118.658 491.224V491.512C118.658 492.504 118.378 493.368 117.818 494.104C117.274 494.824 116.506 495.376 115.514 495.76C114.538 496.144 113.41 496.336 112.13 496.336ZM112.13 493.6C113.234 493.6 114.082 493.392 114.674 492.976C115.282 492.544 115.586 491.976 115.586 491.272V491.08C115.586 490.376 115.29 489.816 114.698 489.4C114.122 488.968 113.266 488.752 112.13 488.752C111.01 488.752 110.154 488.968 109.562 489.4C108.97 489.816 108.674 490.376 108.674 491.08V491.272C108.674 491.976 108.97 492.544 109.562 492.976C110.17 493.392 111.026 493.6 112.13 493.6ZM112.13 486.016C113.154 486.016 113.946 485.832 114.506 485.464C115.066 485.096 115.346 484.576 115.346 483.904V483.712C115.346 483.04 115.058 482.52 114.482 482.152C113.906 481.784 113.122 481.6 112.13 481.6C111.138 481.6 110.354 481.784 109.778 482.152C109.202 482.52 108.914 483.04 108.914 483.712V483.904C108.914 484.576 109.194 485.096 109.754 485.464C110.314 485.832 111.106 486.016 112.13 486.016Z" fill="#1D1D1F"/>
<g opacity="0.3">
<path d="M213 -113H357.219V67.5762H334.192C267.26 67.5762 213 13.3166 213 -53.6159V-113Z" fill="#C2CEFF" fill-opacity="0.5"/>
<path d="M232.391 -113H376.609V67.5762H353.583C286.65 67.5762 232.391 13.3166 232.391 -53.6159V-113Z" fill="#C2CEFF" fill-opacity="0.5"/>
<path d="M251.781 -113H396V67.5762H372.973C306.041 67.5762 251.781 13.3166 251.781 -53.6159V-113Z" fill="#C2CEFF"/>
</g>
</g>
</g>
<defs>
<filter id="filter0_d_1294_4448" x="0" y="0" width="366" height="540" filterUnits="userSpaceOnUse" color-interpolation-filters="sRGB">
<feFlood flood-opacity="0" result="BackgroundImageFix"/>
<feColorMatrix in="SourceAlpha" type="matrix" values="0 0 0 0 0 0 0 0 0 0 0 0 0 0 0 0 0 0 127 0" result="hardAlpha"/>
<feOffset/>
<feGaussianBlur stdDeviation="4"/>
<feComposite in2="hardAlpha" operator="out"/>
<feColorMatrix type="matrix" values="0 0 0 0 0.5 0 0 0 0 0.5 0 0 0 0 0.5 0 0 0 0.15 0"/>
<feBlend mode="normal" in2="BackgroundImageFix" result="effect1_dropShadow_1294_4448"/>
<feBlend mode="normal" in="SourceGraphic" in2="effect1_dropShadow_1294_4448" result="shape"/>
</filter>
<clipPath id="clip0_1294_4448">
<rect x="8" y="8" width="350" height="524" rx="20" fill="white"/>
</clipPath>
</defs>
</svg>
