<svg width="390" height="291" viewBox="0 0 390 291" fill="none" xmlns="http://www.w3.org/2000/svg">
<g filter="url(#filter0_b_704_1688)">
<rect width="390" height="291" fill="white" fill-opacity="0.34" style="mix-blend-mode:lighten"/>
<rect width="390" height="291" fill="#535353" style="mix-blend-mode:color-dodge"/>
<rect width="390" height="291" fill="#EBF0F7" fill-opacity="0.5"/>
<rect width="390" height="291" fill="#DEDEDE" style="mix-blend-mode:color-burn"/>
<rect width="390" height="291" fill="black" fill-opacity="0.13" style="mix-blend-mode:darken"/>
<rect width="390" height="291" fill="#DEDEDE" style="mix-blend-mode:color-burn"/>
<g filter="url(#filter1_d_704_1688)">
<rect x="133.5" y="165" width="123" height="46" rx="5" fill="#FCFCFE" shape-rendering="crispEdges"/>
<path d="M194.476 196.305C193.133 196.305 191.981 195.935 191.021 195.194C190.061 194.454 189.324 193.404 188.812 192.045C188.307 190.678 188.055 189.062 188.055 187.199V187.174C188.055 185.311 188.307 183.699 188.812 182.34C189.324 180.973 190.061 179.923 191.021 179.191C191.981 178.45 193.133 178.08 194.476 178.08C195.818 178.08 196.97 178.45 197.93 179.191C198.899 179.923 199.639 180.973 200.152 182.34C200.673 183.699 200.933 185.311 200.933 187.174V187.199C200.933 189.062 200.673 190.678 200.152 192.045C199.639 193.404 198.899 194.454 197.93 195.194C196.97 195.935 195.818 196.305 194.476 196.305ZM194.476 194.389C195.363 194.389 196.124 194.1 196.758 193.522C197.393 192.936 197.877 192.106 198.211 191.032C198.553 189.949 198.724 188.672 198.724 187.199V187.174C198.724 185.701 198.553 184.428 198.211 183.354C197.877 182.279 197.393 181.453 196.758 180.875C196.124 180.298 195.363 180.009 194.476 180.009C193.589 180.009 192.828 180.298 192.193 180.875C191.566 181.453 191.086 182.279 190.752 183.354C190.427 184.428 190.264 185.701 190.264 187.174V187.199C190.264 188.672 190.427 189.949 190.752 191.032C191.086 192.106 191.566 192.936 192.193 193.522C192.828 194.1 193.589 194.389 194.476 194.389Z" fill="black"/>
</g>
<path d="M325.939 183.27C326.099 183.27 326.249 183.33 326.359 183.45C326.379 183.48 326.409 183.51 326.429 183.54L329.039 186.15L331.659 183.53C331.659 183.53 331.699 183.47 331.729 183.45C331.899 183.28 332.159 183.23 332.379 183.32C332.599 183.41 332.749 183.63 332.749 183.87C332.749 184.03 332.689 184.18 332.579 184.29L329.889 187L332.509 189.61C332.509 189.61 332.569 189.65 332.589 189.68C332.759 189.85 332.809 190.11 332.719 190.33C332.629 190.55 332.409 190.7 332.169 190.7C332.009 190.7 331.859 190.64 331.749 190.53L329.049 187.84L326.359 190.54H326.349C326.299 190.58 326.229 190.63 326.159 190.66C325.939 190.75 325.679 190.7 325.509 190.53C325.399 190.42 325.329 190.27 325.329 190.11C325.329 189.95 325.389 189.8 325.509 189.69C325.539 189.66 325.569 189.64 325.609 189.61L328.209 187.01L325.509 184.31C325.459 184.25 325.409 184.18 325.379 184.11C325.289 183.89 325.339 183.63 325.509 183.46C325.619 183.35 325.769 183.28 325.929 183.28L325.939 183.27ZM333.009 179.33H325.619C325.529 179.33 325.449 179.33 325.369 179.33C325.219 179.33 325.069 179.33 324.879 179.33C324.549 179.33 324.209 179.36 323.889 179.42C323.589 179.47 323.309 179.57 323.039 179.7C322.779 179.83 322.529 180.01 322.319 180.22C322.319 180.22 322.299 180.24 322.269 180.27C322.209 180.33 322.199 180.35 322.179 180.37C322.079 180.46 321.989 180.55 321.899 180.64C321.849 180.69 321.799 180.74 321.749 180.79L321.569 180.97L319.269 183.27C319.269 183.27 319.229 183.31 319.219 183.32C319.179 183.36 319.129 183.41 319.079 183.45L319.019 183.51C319.019 183.51 318.989 183.54 318.979 183.55L318.939 183.59L318.889 183.64L316.829 185.7C316.829 185.7 316.749 185.79 316.689 185.84C316.689 185.84 316.663 185.867 316.609 185.92C316.609 185.92 316.529 186 316.449 186.08C316.299 186.22 316.169 186.38 316.039 186.54L315.999 186.59C315.999 186.59 315.939 186.67 315.919 186.71C315.869 186.89 315.869 187.07 315.919 187.25C315.939 187.29 315.969 187.33 315.999 187.37L316.039 187.42C316.169 187.58 316.309 187.73 316.469 187.89C316.499 187.92 316.529 187.95 316.559 187.99L316.719 188.15C316.719 188.15 316.789 188.22 316.819 188.25L318.889 190.32L319.049 190.47C319.049 190.47 319.079 190.5 319.089 190.51C319.169 190.59 319.199 190.62 319.229 190.65C319.229 190.65 319.249 190.67 319.279 190.7L321.579 193.01C321.749 193.18 321.819 193.25 321.919 193.35C322.039 193.47 322.109 193.54 322.189 193.62C322.209 193.64 322.209 193.64 322.279 193.72C322.299 193.74 322.319 193.76 322.329 193.77C322.539 193.98 322.779 194.16 323.039 194.29C323.309 194.43 323.599 194.52 323.889 194.57C324.219 194.62 324.549 194.65 324.889 194.66C325.059 194.66 325.219 194.66 325.379 194.66H333.219C333.359 194.66 333.509 194.66 333.719 194.66C334.059 194.66 334.389 194.63 334.719 194.57C335.019 194.52 335.309 194.42 335.579 194.29C335.849 194.15 336.089 193.98 336.299 193.77C336.509 193.56 336.689 193.31 336.829 193.05C336.969 192.78 337.059 192.49 337.109 192.19C337.159 191.86 337.189 191.52 337.199 191.17C337.199 191.07 337.199 190.99 337.199 190.8C337.199 190.76 337.199 190.74 337.199 190.72V183.23C337.199 183.23 337.199 183.21 337.199 183.19C337.199 183.07 337.199 183.02 337.199 182.96C337.199 182.9 337.199 182.85 337.199 182.79C337.199 182.46 337.169 182.12 337.109 181.8C337.059 181.5 336.959 181.21 336.829 180.95C336.689 180.68 336.519 180.44 336.309 180.23C336.099 180.02 335.859 179.84 335.599 179.71C335.329 179.57 335.039 179.48 334.759 179.43C334.429 179.38 334.099 179.35 333.759 179.34C333.579 179.34 333.419 179.34 333.269 179.34C333.189 179.34 333.119 179.34 333.019 179.34L333.009 179.33ZM333.099 178H333.259C333.419 178 333.589 178 333.769 178C334.169 178 334.569 178.04 334.969 178.11C335.399 178.18 335.809 178.32 336.199 178.52C336.589 178.72 336.949 178.98 337.259 179.29C337.569 179.6 337.829 179.95 338.029 180.35C338.219 180.74 338.359 181.15 338.429 181.58C338.489 181.97 338.529 182.37 338.529 182.76C338.529 182.82 338.529 182.87 338.529 182.94C338.529 183.01 338.529 183.06 338.529 183.18C338.529 183.213 338.529 183.25 338.529 183.29V190.69C338.529 190.73 338.529 190.77 338.529 190.81C338.529 191 338.529 191.09 338.529 191.19C338.529 191.59 338.489 192 338.419 192.4C338.349 192.83 338.209 193.25 338.009 193.64C337.809 194.03 337.549 194.39 337.239 194.7C336.929 195.01 336.569 195.27 336.169 195.47C335.779 195.67 335.359 195.8 334.929 195.88C334.529 195.95 334.129 195.98 333.729 195.99C333.519 195.99 333.359 195.99 333.209 195.99H325.359C325.189 195.99 325.019 195.99 324.849 195.99C324.449 195.99 324.049 195.95 323.649 195.88C323.219 195.81 322.809 195.67 322.419 195.47C322.029 195.27 321.669 195.01 321.379 194.72C321.359 194.7 321.339 194.68 321.289 194.63C321.159 194.5 321.079 194.42 320.949 194.3C320.909 194.26 320.879 194.23 320.839 194.19L320.609 193.96L318.329 191.68C318.259 191.61 318.219 191.57 318.149 191.51C318.109 191.47 318.079 191.44 318.039 191.4L317.919 191.28L315.849 189.2L315.809 189.16L315.709 189.05C315.709 189.05 315.689 189.03 315.669 189.01C315.599 188.94 315.539 188.88 315.509 188.84C315.339 188.67 315.169 188.49 315.019 188.3C314.879 188.15 314.759 187.97 314.679 187.78L314.659 187.72C314.509 187.26 314.509 186.76 314.659 186.29L314.679 186.23C314.759 186.04 314.879 185.86 315.019 185.71C315.169 185.52 315.339 185.34 315.499 185.18C315.569 185.11 315.619 185.05 315.679 184.99L315.709 184.96C315.709 184.96 315.719 184.95 315.729 184.94C315.779 184.89 315.819 184.85 315.859 184.81L317.929 182.74L317.979 182.69C317.979 182.69 317.999 182.67 318.019 182.65C318.069 182.6 318.099 182.57 318.129 182.54C318.189 182.48 318.249 182.42 318.319 182.35L318.339 182.33C318.339 182.33 318.369 182.3 318.389 182.28L318.469 182.2C318.469 182.2 318.499 182.17 318.519 182.15L318.649 182.02C318.649 182.02 318.699 181.97 318.729 181.94L319.349 181.32C319.519 181.15 319.709 180.96 319.919 180.75L320.619 180.05C320.719 179.95 320.809 179.86 320.889 179.79L320.959 179.72C321.059 179.62 321.159 179.53 321.259 179.42C321.349 179.33 321.359 179.32 321.369 179.3C321.679 178.99 322.029 178.73 322.429 178.53C322.819 178.34 323.229 178.2 323.659 178.12C324.049 178.06 324.449 178.02 324.839 178.02C325.029 178.02 325.199 178.02 325.349 178.02C325.409 178.02 325.459 178.02 325.519 178.02H333.089L333.099 178Z" fill="black"/>
<g filter="url(#filter2_d_704_1688)">
<rect x="4.5" y="112" width="123" height="46" rx="5" fill="#FCFCFE" shape-rendering="crispEdges"/>
<path d="M51.4365 149.778V148.626H53.2432C53.6663 148.626 53.9951 148.519 54.2295 148.304C54.4671 148.086 54.5859 147.776 54.5859 147.376V147.366C54.5859 146.966 54.4671 146.658 54.2295 146.443C53.9951 146.229 53.6663 146.121 53.2432 146.121H51.4365V144.954H53.6045C54.0993 144.954 54.5322 145.055 54.9033 145.257C55.2744 145.455 55.5625 145.735 55.7676 146.097C55.9759 146.458 56.0801 146.88 56.0801 147.361V147.371C56.0801 147.856 55.9759 148.279 55.7676 148.641C55.5625 149.002 55.2744 149.282 54.9033 149.48C54.5322 149.679 54.0993 149.778 53.6045 149.778H51.4365ZM50.6992 152V144.954H52.1738V152H50.6992ZM62.5186 152.181C61.8219 152.181 61.2197 152.031 60.7119 151.731C60.2041 151.429 59.8118 151.001 59.5352 150.447C59.2617 149.894 59.125 149.238 59.125 148.479V148.47C59.125 147.708 59.2633 147.052 59.54 146.502C59.82 145.949 60.2139 145.522 60.7217 145.223C61.2295 144.923 61.8285 144.773 62.5186 144.773C63.2119 144.773 63.8109 144.923 64.3154 145.223C64.8232 145.522 65.2155 145.949 65.4922 146.502C65.7689 147.055 65.9072 147.711 65.9072 148.47V148.479C65.9072 149.238 65.7689 149.894 65.4922 150.447C65.2188 151.001 64.8281 151.429 64.3203 151.731C63.8125 152.031 63.2119 152.181 62.5186 152.181ZM62.5186 150.931C62.8994 150.931 63.2314 150.83 63.5146 150.628C63.7979 150.426 64.016 150.141 64.1689 149.773C64.3252 149.406 64.4033 148.974 64.4033 148.479V148.47C64.4033 147.972 64.3252 147.54 64.1689 147.176C64.016 146.808 63.7979 146.525 63.5146 146.326C63.2314 146.124 62.8994 146.023 62.5186 146.023C62.1377 146.023 61.8057 146.124 61.5225 146.326C61.2393 146.525 61.0195 146.808 60.8633 147.176C60.707 147.54 60.6289 147.972 60.6289 148.47V148.479C60.6289 148.974 60.7054 149.406 60.8584 149.773C61.0146 150.141 61.2327 150.426 61.5127 150.628C61.7959 150.83 62.1312 150.931 62.5186 150.931ZM64.3057 152.698L62.04 149.681H63.4121L65.6777 152.698H64.3057ZM69.3086 152V144.954H72.2432C72.777 144.954 73.2311 145.045 73.6055 145.228C73.9831 145.407 74.2695 145.664 74.4648 145.999C74.6634 146.334 74.7627 146.733 74.7627 147.195V147.205C74.7627 147.658 74.6504 148.064 74.4258 148.426C74.2044 148.784 73.8919 149.043 73.4883 149.202L74.9727 152H73.3027L71.9893 149.422C71.9795 149.422 71.9681 149.422 71.9551 149.422C71.9421 149.422 71.9307 149.422 71.9209 149.422H70.7832V152H69.3086ZM70.7832 148.348H72.082C72.4499 148.348 72.7363 148.25 72.9414 148.055C73.1497 147.856 73.2539 147.583 73.2539 147.234V147.225C73.2539 146.883 73.1481 146.611 72.9365 146.409C72.7249 146.207 72.4336 146.106 72.0625 146.106H70.7832V148.348ZM80.7715 152.181C80.2116 152.181 79.7249 152.096 79.3115 151.927C78.8981 151.757 78.5726 151.52 78.335 151.214C78.1006 150.905 77.9688 150.542 77.9395 150.125L77.9346 150.047H79.3555L79.3604 150.096C79.3799 150.271 79.4515 150.426 79.5752 150.56C79.7021 150.69 79.8714 150.792 80.083 150.867C80.2946 150.942 80.5371 150.979 80.8105 150.979C81.0742 150.979 81.3053 150.94 81.5039 150.862C81.7025 150.784 81.8571 150.677 81.9678 150.54C82.0817 150.4 82.1387 150.241 82.1387 150.062V150.057C82.1387 149.826 82.0443 149.64 81.8555 149.5C81.6699 149.36 81.3574 149.244 80.918 149.153L80.1758 149.002C79.4434 148.852 78.9111 148.606 78.5791 148.265C78.2471 147.923 78.0811 147.485 78.0811 146.951V146.946C78.0811 146.51 78.1966 146.129 78.4277 145.804C78.6589 145.478 78.9762 145.226 79.3799 145.047C79.7835 144.865 80.2458 144.773 80.7666 144.773C81.3135 144.773 81.7822 144.863 82.1729 145.042C82.5667 145.218 82.8743 145.46 83.0957 145.77C83.3171 146.076 83.4424 146.425 83.4717 146.819L83.4766 146.883H82.0898L82.0801 146.824C82.0508 146.655 81.9792 146.507 81.8652 146.38C81.7546 146.253 81.6048 146.154 81.416 146.082C81.2305 146.007 81.014 145.97 80.7666 145.97C80.5257 145.97 80.3141 146.006 80.1318 146.077C79.9495 146.149 79.8079 146.25 79.707 146.38C79.6061 146.507 79.5557 146.658 79.5557 146.834V146.839C79.5557 147.067 79.6468 147.254 79.8291 147.4C80.0146 147.544 80.3141 147.658 80.7275 147.742L81.4746 147.894C81.9727 147.994 82.3779 148.131 82.6904 148.304C83.0062 148.476 83.2389 148.693 83.3887 148.953C83.5384 149.214 83.6133 149.528 83.6133 149.896V149.9C83.6133 150.366 83.4977 150.77 83.2666 151.111C83.0387 151.45 82.7116 151.714 82.2852 151.902C81.862 152.088 81.3574 152.181 80.7715 152.181Z" fill="black"/>
<path d="M61.1055 136L69.0645 120.399V120.338H59.5918V118.385H71.2495V120.424L63.4126 136H61.1055Z" fill="black"/>
</g>
<g filter="url(#filter3_d_704_1688)">
<rect x="133.5" y="112" width="123" height="46" rx="5" fill="#FCFCFE" shape-rendering="crispEdges"/>
<path d="M185.351 152V146.17H183.236V144.954H188.939V146.17H186.825V152H185.351ZM195.192 152.181C194.59 152.181 194.068 152.072 193.625 151.854C193.186 151.635 192.844 151.331 192.6 150.94C192.359 150.55 192.238 150.092 192.238 149.568V144.954H193.713V149.437C193.713 149.739 193.77 150.003 193.884 150.228C194.001 150.449 194.169 150.621 194.387 150.745C194.608 150.869 194.877 150.931 195.192 150.931C195.508 150.931 195.775 150.869 195.993 150.745C196.215 150.621 196.382 150.449 196.496 150.228C196.61 150.003 196.667 149.739 196.667 149.437V144.954H198.142V149.568C198.142 150.089 198.021 150.547 197.78 150.94C197.543 151.331 197.202 151.635 196.76 151.854C196.32 152.072 195.798 152.181 195.192 152.181ZM203.696 152L201.348 144.954H203.003L204.561 150.359H204.648L206.201 144.954H207.861L205.513 152H203.696Z" fill="black"/>
<path d="M194.488 136.293C193.243 136.293 192.14 136.077 191.18 135.646C190.219 135.215 189.463 134.621 188.909 133.864C188.364 133.099 188.091 132.224 188.091 131.239V131.215C188.091 130.491 188.25 129.819 188.567 129.201C188.885 128.582 189.328 128.057 189.898 127.626C190.468 127.187 191.127 126.881 191.875 126.71V126.662C190.915 126.361 190.15 125.864 189.581 125.172C189.011 124.481 188.726 123.671 188.726 122.743V122.719C188.726 121.832 188.974 121.042 189.471 120.351C189.967 119.651 190.651 119.101 191.521 118.703C192.392 118.296 193.381 118.092 194.488 118.092C195.603 118.092 196.591 118.296 197.454 118.703C198.325 119.101 199.008 119.651 199.505 120.351C200.001 121.042 200.25 121.832 200.25 122.719V122.743C200.25 123.671 199.965 124.481 199.395 125.172C198.833 125.864 198.069 126.361 197.1 126.662V126.71C197.857 126.881 198.516 127.187 199.078 127.626C199.647 128.057 200.091 128.582 200.408 129.201C200.726 129.819 200.884 130.491 200.884 131.215V131.239C200.884 132.224 200.612 133.099 200.066 133.864C199.521 134.621 198.764 135.215 197.796 135.646C196.836 136.077 195.733 136.293 194.488 136.293ZM194.488 134.376C195.302 134.376 196.018 134.238 196.636 133.961C197.263 133.677 197.755 133.29 198.113 132.802C198.471 132.305 198.65 131.74 198.65 131.105V131.081C198.65 130.438 198.471 129.868 198.113 129.372C197.763 128.875 197.275 128.485 196.648 128.2C196.022 127.915 195.302 127.772 194.488 127.772C193.674 127.772 192.954 127.915 192.327 128.2C191.701 128.485 191.208 128.875 190.85 129.372C190.5 129.868 190.325 130.438 190.325 131.081V131.105C190.325 131.74 190.504 132.305 190.862 132.802C191.22 133.29 191.713 133.677 192.339 133.961C192.966 134.238 193.682 134.376 194.488 134.376ZM194.488 125.844C195.196 125.844 195.818 125.722 196.355 125.478C196.893 125.225 197.312 124.879 197.613 124.44C197.914 124 198.064 123.496 198.064 122.926V122.902C198.064 122.332 197.914 121.828 197.613 121.388C197.312 120.949 196.893 120.607 196.355 120.363C195.818 120.111 195.196 119.984 194.488 119.984C193.78 119.984 193.157 120.111 192.62 120.363C192.083 120.607 191.664 120.949 191.363 121.388C191.062 121.828 190.911 122.332 190.911 122.902V122.926C190.911 123.496 191.062 124 191.363 124.44C191.664 124.879 192.083 125.225 192.62 125.478C193.157 125.722 193.78 125.844 194.488 125.844Z" fill="black"/>
</g>
<g filter="url(#filter4_d_704_1688)">
<rect x="262.5" y="112" width="123" height="46" rx="5" fill="#FCFCFE" shape-rendering="crispEdges"/>
<path d="M308.18 152L306.314 144.954H307.848L308.946 149.988H309.024L310.309 144.954H311.554L312.862 149.988H312.94L314.029 144.954H315.553L313.683 152H312.301L310.968 147.254H310.89L309.571 152H308.18ZM318.412 152L320.99 147.913L320.648 149.109V148.436L318.422 144.954H320.16L321.654 147.493H322.338L321.381 148.064L323.197 144.954H324.848L322.538 148.46V149.139L322.191 147.942L324.813 152H323.134L321.591 149.529H320.907L321.889 148.978L320.004 152H318.412ZM330.08 152V149.368L327.629 144.954H329.226L330.778 147.918H330.866L332.414 144.954H334.011L331.555 149.368V152H330.08ZM337.017 152V151.038L340.562 146.258V146.17H337.1V144.954H342.358V145.911L338.823 150.696V150.784H342.456V152H337.017Z" fill="black"/>
<path d="M323.39 118.08C324.204 118.08 325.006 118.235 325.795 118.544C326.584 118.845 327.3 119.337 327.943 120.021C328.594 120.705 329.111 121.608 329.494 122.731C329.876 123.854 330.067 125.233 330.067 126.869V126.894C330.067 128.871 329.799 130.564 329.262 131.972C328.725 133.38 327.947 134.454 326.93 135.194C325.913 135.935 324.684 136.305 323.244 136.305C322.251 136.305 321.352 136.126 320.546 135.768C319.748 135.41 319.081 134.914 318.544 134.279C318.007 133.636 317.641 132.887 317.445 132.033L317.409 131.874H319.63L319.679 132.008C319.858 132.488 320.111 132.908 320.436 133.266C320.77 133.616 321.173 133.888 321.645 134.083C322.125 134.271 322.666 134.364 323.268 134.364C324.367 134.364 325.25 134.047 325.917 133.412C326.584 132.777 327.081 131.939 327.406 130.897C327.732 129.856 327.911 128.721 327.943 127.492C327.951 127.402 327.956 127.317 327.956 127.235C327.956 127.154 327.956 127.073 327.956 126.991L327.431 124.098C327.431 123.333 327.252 122.646 326.894 122.035C326.544 121.425 326.063 120.941 325.453 120.583C324.851 120.216 324.171 120.033 323.415 120.033C322.666 120.033 321.986 120.212 321.376 120.57C320.774 120.92 320.294 121.396 319.936 121.999C319.577 122.601 319.398 123.276 319.398 124.025V124.049C319.398 124.814 319.569 125.494 319.911 126.088C320.253 126.682 320.721 127.15 321.315 127.492C321.917 127.833 322.605 128.004 323.378 128.004C324.151 128.004 324.843 127.838 325.453 127.504C326.063 127.162 326.544 126.698 326.894 126.112C327.252 125.526 327.431 124.859 327.431 124.11V124.098H328.163V127.113H327.882C327.646 127.626 327.296 128.098 326.833 128.529C326.377 128.952 325.823 129.29 325.172 129.542C324.521 129.795 323.797 129.921 323 129.921C321.885 129.921 320.888 129.669 320.009 129.164C319.13 128.66 318.434 127.968 317.921 127.089C317.417 126.21 317.165 125.213 317.165 124.098V124.074C317.165 122.91 317.433 121.881 317.97 120.985C318.515 120.082 319.252 119.374 320.18 118.861C321.116 118.34 322.186 118.08 323.39 118.08Z" fill="black"/>
</g>
<g filter="url(#filter5_d_704_1688)">
<rect x="4.5" y="60" width="123" height="46" rx="5" fill="#FCFCFE" shape-rendering="crispEdges"/>
<path d="M59.6094 100.181C59.0853 100.181 58.6149 100.096 58.1982 99.9268C57.7816 99.7542 57.4268 99.5085 57.1338 99.1895C56.8441 98.8672 56.6211 98.4782 56.4648 98.0225C56.3086 97.5635 56.2305 97.0475 56.2305 96.4746V96.4648C56.2305 95.7096 56.3672 95.057 56.6406 94.5068C56.9141 93.9535 57.3014 93.527 57.8027 93.2275C58.304 92.9248 58.8949 92.7734 59.5752 92.7734C60.1318 92.7734 60.6299 92.8727 61.0693 93.0713C61.5088 93.2699 61.8669 93.5465 62.1436 93.9014C62.4235 94.2562 62.5977 94.668 62.666 95.1367L62.6758 95.1855H61.2109L61.2012 95.1367C61.1035 94.7852 60.9115 94.5117 60.625 94.3164C60.3385 94.1211 59.9886 94.0234 59.5752 94.0234C59.1976 94.0234 58.8704 94.1227 58.5938 94.3213C58.3203 94.5166 58.1087 94.7965 57.959 95.1611C57.8092 95.5225 57.7344 95.9521 57.7344 96.4502V96.46C57.7344 96.8408 57.7783 97.1842 57.8662 97.4902C57.9541 97.793 58.0811 98.0518 58.2471 98.2666C58.4131 98.4814 58.6133 98.6458 58.8477 98.7598C59.082 98.8737 59.3441 98.9307 59.6338 98.9307C59.9561 98.9307 60.2409 98.8688 60.4883 98.7451C60.7357 98.6214 60.9294 98.4489 61.0693 98.2275C61.2093 98.0062 61.2842 97.7474 61.2939 97.4512L61.2988 97.3193H59.7754V96.2451H62.7344V97.1387C62.7344 97.6042 62.6628 98.0241 62.5195 98.3984C62.3763 98.7728 62.168 99.0934 61.8945 99.3604C61.6211 99.624 61.2907 99.8275 60.9033 99.9707C60.5192 100.111 60.0879 100.181 59.6094 100.181ZM66.1504 100V92.9541H67.625V95.8154H70.7988V92.9541H72.2734V100H70.7988V97.0312H67.625V100H66.1504ZM75.9824 100V92.9541H77.457V100H75.9824Z" fill="black"/>
<path d="M67.6973 84V80.3379H58.8838V78.3481C59.3965 77.5506 59.9092 76.7531 60.4219 75.9556C60.9346 75.1499 61.4473 74.3483 61.96 73.5508C62.4808 72.7533 62.9976 71.9557 63.5103 71.1582C64.0229 70.3525 64.5356 69.555 65.0483 68.7656C65.5692 67.9681 66.0819 67.1746 66.5864 66.3853H69.8335V78.4092H72.3237V80.3379H69.8335V84H67.6973ZM61.0688 78.4092H67.6973V68.2896H67.624C67.1846 68.9487 66.7451 69.612 66.3057 70.2793C65.8743 70.9466 65.439 71.618 64.9995 72.2935C64.5682 72.9608 64.1287 73.6322 63.6812 74.3076C63.2417 74.9831 62.8022 75.6585 62.3628 76.334C61.9315 77.0013 61.5002 77.6727 61.0688 78.3481V78.4092Z" fill="black"/>
</g>
<g filter="url(#filter6_d_704_1688)">
<rect x="133.5" y="60" width="123" height="46" rx="5" fill="#FCFCFE" shape-rendering="crispEdges"/>
<path d="M186.718 100.181C186.353 100.181 186.026 100.129 185.736 100.024C185.447 99.9235 185.199 99.777 184.994 99.585C184.792 99.3929 184.634 99.1634 184.521 98.8965C184.41 98.6263 184.35 98.3252 184.34 97.9932V97.9541H185.771V97.9834C185.78 98.1624 185.821 98.3219 185.893 98.4619C185.967 98.6019 186.072 98.7109 186.205 98.7891C186.342 98.8672 186.506 98.9062 186.698 98.9062C187.011 98.9062 187.247 98.8135 187.406 98.6279C187.569 98.4424 187.65 98.1738 187.65 97.8223V92.9541H189.125V97.832C189.125 98.3268 189.031 98.75 188.842 99.1016C188.653 99.4499 188.378 99.7168 188.017 99.9023C187.659 100.088 187.226 100.181 186.718 100.181ZM194.221 97.959L194.167 96.1182H194.401L197.004 92.9541H198.645L195.983 96.1523L195.104 96.8945L194.221 97.959ZM192.839 100V92.9541H194.313V100H192.839ZM197.058 100L194.934 96.8848L195.993 95.918L198.825 100H197.058ZM201.938 100V92.9541H203.413V98.7842H206.548V100H201.938Z" fill="black"/>
<path d="M195.146 84.3052C194.032 84.3052 193.035 84.0895 192.156 83.6582C191.285 83.2269 190.585 82.6369 190.056 81.8882C189.535 81.1395 189.23 80.2931 189.141 79.3491L189.128 79.2148H191.277L191.289 79.3125C191.362 79.8822 191.574 80.403 191.924 80.875C192.274 81.3389 192.725 81.7051 193.279 81.9736C193.84 82.2422 194.471 82.3765 195.171 82.3765C195.968 82.3765 196.668 82.2056 197.271 81.8638C197.881 81.522 198.357 81.05 198.699 80.4478C199.041 79.8374 199.211 79.1375 199.211 78.3481V78.3237C199.211 77.5506 199.036 76.867 198.687 76.2729C198.345 75.6707 197.873 75.1987 197.271 74.8569C196.676 74.5151 195.989 74.3442 195.208 74.3442C194.613 74.3442 194.064 74.4338 193.56 74.6128C193.055 74.7837 192.607 75.0482 192.217 75.4062C192.062 75.5527 191.912 75.7114 191.765 75.8823C191.627 76.0532 191.501 76.2404 191.387 76.4438H189.446L190.361 66.3853H200.408V68.3384H192.156L191.558 74.271H191.631C191.899 73.8722 192.233 73.5386 192.632 73.27C193.039 73.0015 193.494 72.798 193.999 72.6597C194.504 72.5132 195.037 72.4399 195.598 72.4399C196.721 72.4399 197.718 72.6963 198.589 73.209C199.468 73.7135 200.155 74.4053 200.652 75.2842C201.148 76.1549 201.396 77.1559 201.396 78.2871V78.3115C201.396 79.4834 201.128 80.521 200.591 81.4243C200.062 82.3276 199.325 83.0356 198.381 83.5483C197.445 84.0529 196.367 84.3052 195.146 84.3052Z" fill="black"/>
</g>
<g filter="url(#filter7_d_704_1688)">
<rect x="262.5" y="60" width="123" height="46" rx="5" fill="#FCFCFE" shape-rendering="crispEdges"/>
<path d="M311.54 100V92.9541H313.229L315.178 98.1104H315.266L317.209 92.9541H318.898V100H317.585V95.2051H316.857L318.264 93.1494L315.681 100H314.758L312.18 93.1494L313.581 95.2051H312.854V100H311.54ZM322.612 100V92.9541H323.843L327.471 97.9639L326.44 97.4414H327.173V92.9541H328.584V100H327.363L323.726 94.9707L324.761 95.4932H324.023V100H322.612ZM335.379 100.181C334.682 100.181 334.08 100.031 333.572 99.7314C333.064 99.4287 332.672 99.0007 332.396 98.4473C332.122 97.8939 331.985 97.238 331.985 96.4795V96.4697C331.985 95.708 332.124 95.0521 332.4 94.502C332.68 93.9486 333.074 93.5221 333.582 93.2227C334.09 92.9232 334.689 92.7734 335.379 92.7734C336.072 92.7734 336.671 92.9232 337.176 93.2227C337.684 93.5221 338.076 93.9486 338.353 94.502C338.629 95.0553 338.768 95.7113 338.768 96.4697V96.4795C338.768 97.238 338.629 97.8939 338.353 98.4473C338.079 99.0007 337.688 99.4287 337.181 99.7314C336.673 100.031 336.072 100.181 335.379 100.181ZM335.379 98.9307C335.76 98.9307 336.092 98.8298 336.375 98.6279C336.658 98.4261 336.876 98.1413 337.029 97.7734C337.186 97.4056 337.264 96.9743 337.264 96.4795V96.4697C337.264 95.9717 337.186 95.5404 337.029 95.1758C336.876 94.8079 336.658 94.5247 336.375 94.3262C336.092 94.1243 335.76 94.0234 335.379 94.0234C334.998 94.0234 334.666 94.1243 334.383 94.3262C334.1 94.5247 333.88 94.8079 333.724 95.1758C333.567 95.5404 333.489 95.9717 333.489 96.4697V96.4795C333.489 96.9743 333.566 97.4056 333.719 97.7734C333.875 98.1413 334.093 98.4261 334.373 98.6279C334.656 98.8298 334.992 98.9307 335.379 98.9307Z" fill="black"/>
<path d="M323.598 84.3052C322.784 84.3052 321.982 84.1546 321.193 83.8535C320.412 83.5443 319.695 83.0479 319.044 82.3643C318.402 81.6807 317.885 80.7773 317.494 79.6543C317.112 78.5312 316.92 77.1519 316.92 75.5161V75.4917C316.92 73.5142 317.189 71.8215 317.726 70.4136C318.271 69.0057 319.053 67.9315 320.07 67.1909C321.087 66.4504 322.312 66.0801 323.744 66.0801C324.745 66.0801 325.644 66.2591 326.442 66.6172C327.248 66.9671 327.919 67.4635 328.456 68.1064C328.993 68.7493 329.359 69.498 329.555 70.3525L329.591 70.5112H327.357L327.309 70.377C327.138 69.8887 326.885 69.4696 326.552 69.1196C326.218 68.7697 325.811 68.5011 325.331 68.314C324.859 68.1187 324.322 68.021 323.72 68.021C322.637 68.021 321.758 68.3384 321.083 68.9731C320.408 69.6079 319.907 70.4461 319.582 71.4878C319.264 72.5213 319.089 73.6566 319.057 74.8936C319.049 74.9749 319.044 75.0563 319.044 75.1377C319.044 75.2191 319.044 75.3045 319.044 75.394L319.569 78.2871C319.569 79.0439 319.744 79.7316 320.094 80.3501C320.452 80.9604 320.932 81.4487 321.535 81.8149C322.145 82.173 322.825 82.3521 323.573 82.3521C324.322 82.3521 325.001 82.1771 325.612 81.8271C326.222 81.4691 326.706 80.9889 327.064 80.3867C327.423 79.7845 327.602 79.109 327.602 78.3604V78.3359C327.602 77.571 327.431 76.8914 327.089 76.2974C326.747 75.7033 326.275 75.2354 325.673 74.8936C325.071 74.5518 324.383 74.3809 323.61 74.3809C322.845 74.3809 322.157 74.5518 321.547 74.8936C320.937 75.2272 320.452 75.687 320.094 76.2729C319.744 76.8589 319.569 77.5262 319.569 78.2749V78.2871H318.837V75.272H319.118C319.354 74.7593 319.7 74.2913 320.155 73.8682C320.619 73.4368 321.173 73.0951 321.815 72.8428C322.466 72.5905 323.191 72.4644 323.988 72.4644C325.111 72.4644 326.112 72.7166 326.991 73.2212C327.87 73.7257 328.562 74.4175 329.066 75.2964C329.579 76.1753 329.835 77.1722 329.835 78.2871V78.3115C329.835 79.4753 329.563 80.5088 329.018 81.4121C328.48 82.3073 327.744 83.0153 326.808 83.5361C325.872 84.0488 324.802 84.3052 323.598 84.3052Z" fill="black"/>
</g>
<g filter="url(#filter8_d_704_1688)">
<rect x="4.5" y="6" width="123" height="46" rx="5" fill="#FCFCFE" shape-rendering="crispEdges"/>
<path d="M65.8906 30V14.729H65.8174L61.1787 17.9761V15.7544L65.8662 12.3853H68.0269V30H65.8906Z" fill="black"/>
</g>
<g filter="url(#filter9_d_704_1688)">
<rect x="133.5" y="6" width="123" height="46" rx="5" fill="#FCFCFE" shape-rendering="crispEdges"/>
<path d="M183.017 46L185.463 38.9541H186.718V40.3604H186.288L184.564 46H183.017ZM184.325 44.291L184.687 43.1875H187.943L188.305 44.291H184.325ZM188.095 46L186.376 40.3604V38.9541H187.196L189.647 46H188.095ZM193.581 46V44.9014H195.632C196.058 44.9014 196.382 44.8135 196.604 44.6377C196.828 44.4619 196.94 44.2064 196.94 43.8711V43.8613C196.94 43.6432 196.888 43.4593 196.784 43.3096C196.683 43.1598 196.532 43.0475 196.33 42.9727C196.132 42.8945 195.887 42.8555 195.598 42.8555H193.581V41.8838H195.427C195.824 41.8838 196.128 41.804 196.34 41.6445C196.551 41.485 196.657 41.2604 196.657 40.9707V40.9609C196.657 40.6745 196.56 40.4515 196.364 40.292C196.172 40.1292 195.9 40.0479 195.549 40.0479H193.581V38.9541H195.925C196.384 38.9541 196.774 39.0257 197.097 39.1689C197.422 39.3089 197.671 39.5107 197.844 39.7744C198.02 40.0348 198.107 40.3457 198.107 40.707V40.7168C198.107 40.9642 198.05 41.1953 197.937 41.4102C197.826 41.625 197.674 41.804 197.482 41.9473C197.29 42.0905 197.074 42.18 196.833 42.2158V42.3037C197.146 42.3265 197.422 42.4144 197.663 42.5674C197.907 42.7204 198.098 42.9189 198.234 43.1631C198.374 43.4072 198.444 43.679 198.444 43.9785V43.9883C198.444 44.3984 198.345 44.7549 198.146 45.0576C197.951 45.3571 197.671 45.5898 197.307 45.7559C196.945 45.9186 196.512 46 196.008 46H193.581ZM192.844 46V38.9541H194.318V46H192.844ZM204.771 46.1807C204.09 46.1807 203.503 46.0309 203.008 45.7314C202.513 45.432 202.132 45.0055 201.865 44.4521C201.598 43.8988 201.465 43.2412 201.465 42.4795V42.4697C201.465 41.708 201.598 41.0505 201.865 40.4971C202.132 39.9437 202.511 39.5189 203.003 39.2227C203.498 38.9232 204.087 38.7734 204.771 38.7734C205.327 38.7734 205.827 38.8825 206.27 39.1006C206.715 39.3187 207.075 39.6198 207.349 40.0039C207.622 40.388 207.782 40.8275 207.827 41.3223V41.3857H206.396L206.392 41.3516C206.343 41.0879 206.243 40.8568 206.094 40.6582C205.944 40.4564 205.755 40.3001 205.527 40.1895C205.303 40.0788 205.05 40.0234 204.771 40.0234C204.403 40.0234 204.084 40.1227 203.813 40.3213C203.543 40.5166 203.335 40.7982 203.188 41.166C203.045 41.5306 202.974 41.9652 202.974 42.4697V42.4795C202.974 42.9808 203.045 43.4154 203.188 43.7832C203.335 44.151 203.543 44.4342 203.813 44.6328C204.084 44.8314 204.404 44.9307 204.775 44.9307C205.059 44.9307 205.311 44.8802 205.532 44.7793C205.757 44.6751 205.942 44.5303 206.089 44.3447C206.239 44.1559 206.338 43.9362 206.387 43.6855L206.396 43.6416H207.832V43.7002C207.78 44.1917 207.619 44.623 207.349 44.9941C207.078 45.3652 206.724 45.6566 206.284 45.8682C205.845 46.0765 205.34 46.1807 204.771 46.1807Z" fill="black"/>
<path d="M189.36 30V28.4863L195.525 22.0166C196.314 21.1947 196.921 20.5151 197.344 19.978C197.767 19.4328 198.056 18.9445 198.21 18.5132C198.373 18.0819 198.455 17.618 198.455 17.1216V17.0972C198.455 16.495 198.312 15.9619 198.027 15.498C197.751 15.026 197.364 14.6598 196.868 14.3994C196.379 14.1309 195.81 13.9966 195.159 13.9966C194.434 13.9966 193.787 14.1471 193.218 14.4482C192.648 14.7493 192.196 15.1562 191.863 15.6689C191.537 16.1816 191.375 16.7594 191.375 17.4023V17.4634H189.25V17.3901C189.25 16.3729 189.511 15.4655 190.032 14.668C190.561 13.8623 191.273 13.2316 192.168 12.7759C193.063 12.312 194.056 12.0801 195.146 12.0801C196.213 12.0801 197.161 12.2957 197.991 12.7271C198.821 13.1584 199.472 13.7443 199.944 14.4849C200.424 15.2254 200.664 16.0555 200.664 16.9751V16.9995C200.664 17.6424 200.542 18.269 200.298 18.8794C200.062 19.4816 199.647 20.1611 199.053 20.918C198.459 21.6667 197.62 22.5944 196.538 23.7012L191.741 28.6206L192.375 27.3145V28.6206L191.753 28.0469H200.957V30H189.36Z" fill="black"/>
</g>
<g filter="url(#filter10_d_704_1688)">
<rect x="262.5" y="6" width="123" height="46" rx="5" fill="#FCFCFE" shape-rendering="crispEdges"/>
<path d="M313.516 46V38.9541H316.289C316.989 38.9541 317.585 39.0908 318.076 39.3643C318.568 39.6344 318.944 40.0283 319.204 40.5459C319.465 41.0635 319.595 41.6901 319.595 42.4258V42.4355C319.595 43.194 319.465 43.8385 319.204 44.3691C318.947 44.8997 318.573 45.305 318.081 45.585C317.59 45.8617 316.992 46 316.289 46H313.516ZM314.99 44.7842H316.055C316.491 44.7842 316.86 44.6947 317.163 44.5156C317.466 44.3366 317.695 44.0745 317.852 43.7295C318.011 43.3812 318.091 42.958 318.091 42.46V42.4502C318.091 41.9652 318.009 41.5534 317.847 41.2148C317.687 40.873 317.454 40.6143 317.148 40.4385C316.846 40.2594 316.481 40.1699 316.055 40.1699H314.99V44.7842ZM322.996 46V38.9541H327.664V40.1699H324.471V41.8691H327.483V43.002H324.471V44.7842H327.664V46H322.996ZM331.217 46V38.9541H335.831V40.1699H332.691V42.0596H335.558V43.2266H332.691V46H331.217Z" fill="black"/>
<path d="M323.988 30.293C322.775 30.293 321.717 30.0854 320.814 29.6704C319.911 29.2554 319.194 28.6857 318.666 27.9614C318.145 27.2371 317.844 26.4111 317.762 25.4834L317.75 25.3369H319.862L319.874 25.459C319.939 26.0368 320.147 26.5454 320.497 26.9849C320.855 27.4243 321.331 27.7702 321.925 28.0225C322.519 28.2666 323.207 28.3887 323.988 28.3887C324.761 28.3887 325.436 28.2544 326.014 27.9858C326.6 27.7173 327.056 27.347 327.381 26.875C327.707 26.3949 327.87 25.8455 327.87 25.2271V25.2026C327.87 24.1203 327.507 23.2902 326.783 22.7124C326.067 22.1265 325.09 21.8335 323.854 21.8335H321.644V19.978H323.756C324.456 19.978 325.074 19.8478 325.611 19.5874C326.148 19.3188 326.568 18.9567 326.869 18.501C327.17 18.0371 327.32 17.5122 327.32 16.9263V16.9019C327.32 16.2834 327.19 15.7585 326.93 15.3271C326.669 14.8958 326.287 14.5662 325.782 14.3384C325.286 14.1105 324.68 13.9966 323.963 13.9966C323.272 13.9966 322.653 14.1146 322.108 14.3506C321.571 14.5785 321.139 14.908 320.814 15.3394C320.488 15.7707 320.293 16.2834 320.228 16.8774L320.216 16.9995H318.104L318.116 16.8774C318.214 15.9172 318.515 15.0789 319.02 14.3628C319.532 13.6466 320.208 13.0892 321.046 12.6904C321.892 12.2917 322.865 12.0923 323.963 12.0923C325.086 12.0923 326.063 12.2876 326.893 12.6782C327.731 13.0607 328.378 13.5938 328.834 14.2773C329.298 14.9528 329.53 15.7381 329.53 16.6333V16.6577C329.53 17.382 329.371 18.0249 329.054 18.5864C328.736 19.1479 328.297 19.6159 327.735 19.9902C327.174 20.3646 326.527 20.6291 325.794 20.7837V20.8325C327.08 20.9383 328.118 21.3737 328.907 22.1387C329.705 22.8955 330.104 23.9006 330.104 25.1538V25.1782C330.104 26.1548 329.839 27.0296 329.31 27.8027C328.781 28.5758 328.057 29.1862 327.137 29.6338C326.218 30.0732 325.168 30.293 323.988 30.293Z" fill="black"/>
</g>
<rect width="139" height="5" rx="2.5" transform="matrix(-1 0 0 1 264.5 278)" fill="black"/>
</g>
<defs>
<filter id="filter0_b_704_1688" x="-101.5" y="-100" width="593" height="491" filterUnits="userSpaceOnUse" color-interpolation-filters="sRGB">
<feFlood flood-opacity="0" result="BackgroundImageFix"/>
<feGaussianBlur in="BackgroundImageFix" stdDeviation="50"/>
<feComposite in2="SourceAlpha" operator="in" result="effect1_backgroundBlur_704_1688"/>
<feBlend mode="normal" in="SourceGraphic" in2="effect1_backgroundBlur_704_1688" result="shape"/>
</filter>
<filter id="filter1_d_704_1688" x="133.5" y="165" width="123" height="47" filterUnits="userSpaceOnUse" color-interpolation-filters="sRGB">
<feFlood flood-opacity="0" result="BackgroundImageFix"/>
<feColorMatrix in="SourceAlpha" type="matrix" values="0 0 0 0 0 0 0 0 0 0 0 0 0 0 0 0 0 0 127 0" result="hardAlpha"/>
<feOffset dy="1"/>
<feComposite in2="hardAlpha" operator="out"/>
<feColorMatrix type="matrix" values="0 0 0 0 0.537255 0 0 0 0 0.541176 0 0 0 0 0.552941 0 0 0 1 0"/>
<feBlend mode="normal" in2="BackgroundImageFix" result="effect1_dropShadow_704_1688"/>
<feBlend mode="normal" in="SourceGraphic" in2="effect1_dropShadow_704_1688" result="shape"/>
</filter>
<filter id="filter2_d_704_1688" x="4.5" y="112" width="123" height="47" filterUnits="userSpaceOnUse" color-interpolation-filters="sRGB">
<feFlood flood-opacity="0" result="BackgroundImageFix"/>
<feColorMatrix in="SourceAlpha" type="matrix" values="0 0 0 0 0 0 0 0 0 0 0 0 0 0 0 0 0 0 127 0" result="hardAlpha"/>
<feOffset dy="1"/>
<feComposite in2="hardAlpha" operator="out"/>
<feColorMatrix type="matrix" values="0 0 0 0 0.537255 0 0 0 0 0.541176 0 0 0 0 0.552941 0 0 0 1 0"/>
<feBlend mode="normal" in2="BackgroundImageFix" result="effect1_dropShadow_704_1688"/>
<feBlend mode="normal" in="SourceGraphic" in2="effect1_dropShadow_704_1688" result="shape"/>
</filter>
<filter id="filter3_d_704_1688" x="133.5" y="112" width="123" height="47" filterUnits="userSpaceOnUse" color-interpolation-filters="sRGB">
<feFlood flood-opacity="0" result="BackgroundImageFix"/>
<feColorMatrix in="SourceAlpha" type="matrix" values="0 0 0 0 0 0 0 0 0 0 0 0 0 0 0 0 0 0 127 0" result="hardAlpha"/>
<feOffset dy="1"/>
<feComposite in2="hardAlpha" operator="out"/>
<feColorMatrix type="matrix" values="0 0 0 0 0.537255 0 0 0 0 0.541176 0 0 0 0 0.552941 0 0 0 1 0"/>
<feBlend mode="normal" in2="BackgroundImageFix" result="effect1_dropShadow_704_1688"/>
<feBlend mode="normal" in="SourceGraphic" in2="effect1_dropShadow_704_1688" result="shape"/>
</filter>
<filter id="filter4_d_704_1688" x="262.5" y="112" width="123" height="47" filterUnits="userSpaceOnUse" color-interpolation-filters="sRGB">
<feFlood flood-opacity="0" result="BackgroundImageFix"/>
<feColorMatrix in="SourceAlpha" type="matrix" values="0 0 0 0 0 0 0 0 0 0 0 0 0 0 0 0 0 0 127 0" result="hardAlpha"/>
<feOffset dy="1"/>
<feComposite in2="hardAlpha" operator="out"/>
<feColorMatrix type="matrix" values="0 0 0 0 0.537255 0 0 0 0 0.541176 0 0 0 0 0.552941 0 0 0 1 0"/>
<feBlend mode="normal" in2="BackgroundImageFix" result="effect1_dropShadow_704_1688"/>
<feBlend mode="normal" in="SourceGraphic" in2="effect1_dropShadow_704_1688" result="shape"/>
</filter>
<filter id="filter5_d_704_1688" x="4.5" y="60" width="123" height="47" filterUnits="userSpaceOnUse" color-interpolation-filters="sRGB">
<feFlood flood-opacity="0" result="BackgroundImageFix"/>
<feColorMatrix in="SourceAlpha" type="matrix" values="0 0 0 0 0 0 0 0 0 0 0 0 0 0 0 0 0 0 127 0" result="hardAlpha"/>
<feOffset dy="1"/>
<feComposite in2="hardAlpha" operator="out"/>
<feColorMatrix type="matrix" values="0 0 0 0 0.537255 0 0 0 0 0.541176 0 0 0 0 0.552941 0 0 0 1 0"/>
<feBlend mode="normal" in2="BackgroundImageFix" result="effect1_dropShadow_704_1688"/>
<feBlend mode="normal" in="SourceGraphic" in2="effect1_dropShadow_704_1688" result="shape"/>
</filter>
<filter id="filter6_d_704_1688" x="133.5" y="60" width="123" height="47" filterUnits="userSpaceOnUse" color-interpolation-filters="sRGB">
<feFlood flood-opacity="0" result="BackgroundImageFix"/>
<feColorMatrix in="SourceAlpha" type="matrix" values="0 0 0 0 0 0 0 0 0 0 0 0 0 0 0 0 0 0 127 0" result="hardAlpha"/>
<feOffset dy="1"/>
<feComposite in2="hardAlpha" operator="out"/>
<feColorMatrix type="matrix" values="0 0 0 0 0.537255 0 0 0 0 0.541176 0 0 0 0 0.552941 0 0 0 1 0"/>
<feBlend mode="normal" in2="BackgroundImageFix" result="effect1_dropShadow_704_1688"/>
<feBlend mode="normal" in="SourceGraphic" in2="effect1_dropShadow_704_1688" result="shape"/>
</filter>
<filter id="filter7_d_704_1688" x="262.5" y="60" width="123" height="47" filterUnits="userSpaceOnUse" color-interpolation-filters="sRGB">
<feFlood flood-opacity="0" result="BackgroundImageFix"/>
<feColorMatrix in="SourceAlpha" type="matrix" values="0 0 0 0 0 0 0 0 0 0 0 0 0 0 0 0 0 0 127 0" result="hardAlpha"/>
<feOffset dy="1"/>
<feComposite in2="hardAlpha" operator="out"/>
<feColorMatrix type="matrix" values="0 0 0 0 0.537255 0 0 0 0 0.541176 0 0 0 0 0.552941 0 0 0 1 0"/>
<feBlend mode="normal" in2="BackgroundImageFix" result="effect1_dropShadow_704_1688"/>
<feBlend mode="normal" in="SourceGraphic" in2="effect1_dropShadow_704_1688" result="shape"/>
</filter>
<filter id="filter8_d_704_1688" x="4.5" y="6" width="123" height="47" filterUnits="userSpaceOnUse" color-interpolation-filters="sRGB">
<feFlood flood-opacity="0" result="BackgroundImageFix"/>
<feColorMatrix in="SourceAlpha" type="matrix" values="0 0 0 0 0 0 0 0 0 0 0 0 0 0 0 0 0 0 127 0" result="hardAlpha"/>
<feOffset dy="1"/>
<feComposite in2="hardAlpha" operator="out"/>
<feColorMatrix type="matrix" values="0 0 0 0 0.537255 0 0 0 0 0.541176 0 0 0 0 0.552941 0 0 0 1 0"/>
<feBlend mode="normal" in2="BackgroundImageFix" result="effect1_dropShadow_704_1688"/>
<feBlend mode="normal" in="SourceGraphic" in2="effect1_dropShadow_704_1688" result="shape"/>
</filter>
<filter id="filter9_d_704_1688" x="133.5" y="6" width="123" height="47" filterUnits="userSpaceOnUse" color-interpolation-filters="sRGB">
<feFlood flood-opacity="0" result="BackgroundImageFix"/>
<feColorMatrix in="SourceAlpha" type="matrix" values="0 0 0 0 0 0 0 0 0 0 0 0 0 0 0 0 0 0 127 0" result="hardAlpha"/>
<feOffset dy="1"/>
<feComposite in2="hardAlpha" operator="out"/>
<feColorMatrix type="matrix" values="0 0 0 0 0.537255 0 0 0 0 0.541176 0 0 0 0 0.552941 0 0 0 1 0"/>
<feBlend mode="normal" in2="BackgroundImageFix" result="effect1_dropShadow_704_1688"/>
<feBlend mode="normal" in="SourceGraphic" in2="effect1_dropShadow_704_1688" result="shape"/>
</filter>
<filter id="filter10_d_704_1688" x="262.5" y="6" width="123" height="47" filterUnits="userSpaceOnUse" color-interpolation-filters="sRGB">
<feFlood flood-opacity="0" result="BackgroundImageFix"/>
<feColorMatrix in="SourceAlpha" type="matrix" values="0 0 0 0 0 0 0 0 0 0 0 0 0 0 0 0 0 0 127 0" result="hardAlpha"/>
<feOffset dy="1"/>
<feComposite in2="hardAlpha" operator="out"/>
<feColorMatrix type="matrix" values="0 0 0 0 0.537255 0 0 0 0 0.541176 0 0 0 0 0.552941 0 0 0 1 0"/>
<feBlend mode="normal" in2="BackgroundImageFix" result="effect1_dropShadow_704_1688"/>
<feBlend mode="normal" in="SourceGraphic" in2="effect1_dropShadow_704_1688" result="shape"/>
</filter>
</defs>
</svg>
