<svg width="350" height="330" viewBox="0 0 350 330" fill="none" xmlns="http://www.w3.org/2000/svg">
<rect x="0.5" y="0.5" width="349" height="329" rx="23.5" fill="white"/>
<rect x="0.5" y="0.5" width="349" height="329" rx="23.5" stroke="#E6E6E6"/>
<g filter="url(#filter0_d_1178_5370)">
<path d="M35.756 48.168C35.148 48.168 34.604 48.06 34.124 47.844C33.644 47.628 33.264 47.304 32.984 46.872C32.712 46.432 32.576 45.884 32.576 45.228V44.976H33.572V45.228C33.572 45.924 33.776 46.444 34.184 46.788C34.592 47.124 35.116 47.292 35.756 47.292C36.412 47.292 36.912 47.144 37.256 46.848C37.6 46.552 37.772 46.18 37.772 45.732C37.772 45.42 37.692 45.172 37.532 44.988C37.38 44.804 37.164 44.656 36.884 44.544C36.604 44.424 36.276 44.32 35.9 44.232L35.276 44.076C34.788 43.948 34.356 43.792 33.98 43.608C33.604 43.424 33.308 43.184 33.092 42.888C32.884 42.584 32.78 42.196 32.78 41.724C32.78 41.252 32.896 40.844 33.128 40.5C33.368 40.156 33.7 39.892 34.124 39.708C34.556 39.524 35.052 39.432 35.612 39.432C36.18 39.432 36.688 39.532 37.136 39.732C37.592 39.924 37.948 40.212 38.204 40.596C38.468 40.972 38.6 41.448 38.6 42.024V42.528H37.604V42.024C37.604 41.616 37.516 41.288 37.34 41.04C37.172 40.792 36.936 40.608 36.632 40.488C36.336 40.368 35.996 40.308 35.612 40.308C35.06 40.308 34.616 40.432 34.28 40.68C33.944 40.92 33.776 41.264 33.776 41.712C33.776 42.008 33.848 42.248 33.992 42.432C34.136 42.616 34.34 42.768 34.604 42.888C34.868 43 35.184 43.1 35.552 43.188L36.176 43.344C36.664 43.448 37.1 43.592 37.484 43.776C37.876 43.952 38.188 44.196 38.42 44.508C38.652 44.812 38.768 45.212 38.768 45.708C38.768 46.204 38.644 46.636 38.396 47.004C38.148 47.372 37.796 47.66 37.34 47.868C36.892 48.068 36.364 48.168 35.756 48.168ZM42.5154 48C42.1794 48 41.9194 47.908 41.7354 47.724C41.5594 47.54 41.4714 47.288 41.4714 46.968V42.96H39.7074V42.132H41.4714V40.044H42.4194V42.132H44.3394V42.96H42.4194V46.824C42.4194 47.064 42.5354 47.184 42.7674 47.184H44.0754V48H42.5154ZM48.352 48.168C47.76 48.168 47.24 48.044 46.792 47.796C46.344 47.54 45.996 47.184 45.748 46.728C45.5 46.272 45.376 45.744 45.376 45.144V45C45.376 44.392 45.5 43.86 45.748 43.404C45.996 42.948 46.34 42.596 46.78 42.348C47.22 42.092 47.724 41.964 48.292 41.964C48.844 41.964 49.332 42.084 49.756 42.324C50.18 42.556 50.512 42.892 50.752 43.332C50.992 43.772 51.112 44.288 51.112 44.88V45.312H46.324C46.348 45.944 46.552 46.44 46.936 46.8C47.32 47.152 47.8 47.328 48.376 47.328C48.88 47.328 49.268 47.212 49.54 46.98C49.812 46.748 50.02 46.472 50.164 46.152L50.98 46.548C50.86 46.796 50.692 47.044 50.476 47.292C50.268 47.54 49.992 47.748 49.648 47.916C49.312 48.084 48.88 48.168 48.352 48.168ZM46.336 44.532H50.152C50.12 43.988 49.932 43.564 49.588 43.26C49.252 42.956 48.82 42.804 48.292 42.804C47.756 42.804 47.316 42.956 46.972 43.26C46.628 43.564 46.416 43.988 46.336 44.532ZM52.7655 50.4V42.132H53.6895V43.104H53.8575C54.0095 42.808 54.2535 42.544 54.5895 42.312C54.9335 42.08 55.4095 41.964 56.0175 41.964C56.5215 41.964 56.9815 42.088 57.3975 42.336C57.8215 42.576 58.1575 42.92 58.4055 43.368C58.6615 43.816 58.7895 44.356 58.7895 44.988V45.144C58.7895 45.768 58.6655 46.308 58.4175 46.764C58.1695 47.22 57.8335 47.568 57.4095 47.808C56.9935 48.048 56.5295 48.168 56.0175 48.168C55.6095 48.168 55.2615 48.112 54.9735 48C54.6935 47.896 54.4655 47.76 54.2895 47.592C54.1135 47.424 53.9775 47.252 53.8815 47.076H53.7135V50.4H52.7655ZM55.7655 47.328C56.3735 47.328 56.8655 47.136 57.2415 46.752C57.6255 46.36 57.8175 45.816 57.8175 45.12V45.012C57.8175 44.316 57.6255 43.776 57.2415 43.392C56.8655 43 56.3735 42.804 55.7655 42.804C55.1655 42.804 54.6695 43 54.2775 43.392C53.8935 43.776 53.7015 44.316 53.7015 45.012V45.12C53.7015 45.816 53.8935 46.36 54.2775 46.752C54.6695 47.136 55.1655 47.328 55.7655 47.328ZM65.6582 48V40.248H65.4782L63.8462 43.236H62.7902L64.7942 39.6H66.6302V48H65.6582Z" fill="#003673"/>
<path d="M35.48 71L32.075 60.2H33.935L36.785 69.245L39.6725 60.2H41.5325L38.1275 71H35.48ZM45.4483 71.225C44.6283 71.225 43.9083 71.0475 43.2883 70.6925C42.6683 70.3375 42.1833 69.845 41.8333 69.215C41.4883 68.585 41.3158 67.86 41.3158 67.04C41.3158 66.155 41.4858 65.3875 41.8258 64.7375C42.1658 64.0825 42.6383 63.575 43.2433 63.215C43.8483 62.855 44.5483 62.675 45.3433 62.675C46.1833 62.675 46.8958 62.8725 47.4808 63.2675C48.0708 63.6575 48.5083 64.21 48.7933 64.925C49.0783 65.64 49.1858 66.4825 49.1158 67.4525H47.3233V66.7925C47.3183 65.9125 47.1633 65.27 46.8583 64.865C46.5533 64.46 46.0733 64.2575 45.4183 64.2575C44.6783 64.2575 44.1283 64.4875 43.7683 64.9475C43.4083 65.4025 43.2283 66.07 43.2283 66.95C43.2283 67.77 43.4083 68.405 43.7683 68.855C44.1283 69.305 44.6533 69.53 45.3433 69.53C45.7883 69.53 46.1708 69.4325 46.4908 69.2375C46.8158 69.0375 47.0658 68.75 47.2408 68.375L49.0258 68.915C48.7158 69.645 48.2358 70.2125 47.5858 70.6175C46.9408 71.0225 46.2283 71.225 45.4483 71.225ZM42.6583 67.4525V66.0875H48.2308V67.4525H42.6583ZM50.7893 71V62.9H52.3868V64.8725L52.1918 64.6175C52.2918 64.3475 52.4243 64.1025 52.5893 63.8825C52.7593 63.6575 52.9618 63.4725 53.1968 63.3275C53.3968 63.1925 53.6168 63.0875 53.8568 63.0125C54.1018 62.9325 54.3518 62.885 54.6068 62.87C54.8618 62.85 55.1093 62.86 55.3493 62.9V64.5875C55.1093 64.5175 54.8318 64.495 54.5168 64.52C54.2068 64.545 53.9268 64.6325 53.6768 64.7825C53.4268 64.9175 53.2218 65.09 53.0618 65.3C52.9068 65.51 52.7918 65.75 52.7168 66.02C52.6418 66.285 52.6043 66.5725 52.6043 66.8825V71H50.7893ZM56.9305 61.67V60.0125H58.738V61.67H56.9305ZM56.9305 71V62.9H58.738V71H56.9305ZM61.6896 71V62.7725C61.6896 62.5675 61.6971 62.3425 61.7121 62.0975C61.7271 61.8475 61.7696 61.6 61.8396 61.355C61.9096 61.11 62.0371 60.8875 62.2221 60.6875C62.4521 60.4325 62.6996 60.2575 62.9646 60.1625C63.2346 60.0625 63.4996 60.0075 63.7596 59.9975C64.0196 59.9825 64.2471 59.975 64.4421 59.975H65.4546V61.445H64.5171C64.1721 61.445 63.9146 61.5325 63.7446 61.7075C63.5796 61.8775 63.4971 62.1025 63.4971 62.3825V71H61.6896ZM60.3846 64.3175V62.9H65.4546V64.3175H60.3846ZM67.7185 74.6L69.2785 70.3175L69.3085 71.5775L65.776 62.9H67.6585L70.1635 69.32H69.6835L72.121 62.9H73.9285L69.4135 74.6H67.7185ZM75.1971 61.67V60.0125H77.0046V61.67H75.1971ZM75.1971 71V62.9H77.0046V71H75.1971ZM84.8537 71V67.1C84.8537 66.845 84.8362 66.5625 84.8012 66.2525C84.7662 65.9425 84.6837 65.645 84.5537 65.36C84.4287 65.07 84.2387 64.8325 83.9837 64.6475C83.7337 64.4625 83.3937 64.37 82.9637 64.37C82.7337 64.37 82.5062 64.4075 82.2812 64.4825C82.0562 64.5575 81.8512 64.6875 81.6662 64.8725C81.4862 65.0525 81.3412 65.3025 81.2312 65.6225C81.1212 65.9375 81.0662 66.3425 81.0662 66.8375L79.9937 66.38C79.9937 65.69 80.1262 65.065 80.3912 64.505C80.6612 63.945 81.0562 63.5 81.5762 63.17C82.0962 62.835 82.7362 62.6675 83.4962 62.6675C84.0962 62.6675 84.5912 62.7675 84.9812 62.9675C85.3712 63.1675 85.6812 63.4225 85.9112 63.7325C86.1412 64.0425 86.3112 64.3725 86.4212 64.7225C86.5312 65.0725 86.6012 65.405 86.6312 65.72C86.6662 66.03 86.6837 66.2825 86.6837 66.4775V71H84.8537ZM79.2362 71V62.9H80.8487V65.4125H81.0662V71H79.2362ZM92.0458 74.825C91.5958 74.825 91.1633 74.755 90.7483 74.615C90.3383 74.475 89.9683 74.2725 89.6383 74.0075C89.3083 73.7475 89.0383 73.4325 88.8283 73.0625L90.4933 72.2375C90.6483 72.5325 90.8658 72.75 91.1458 72.89C91.4308 73.035 91.7333 73.1075 92.0533 73.1075C92.4283 73.1075 92.7633 73.04 93.0583 72.905C93.3533 72.775 93.5808 72.58 93.7408 72.32C93.9058 72.065 93.9833 71.745 93.9733 71.36V69.0575H94.1983V62.9H95.7808V71.39C95.7808 71.595 95.7708 71.79 95.7508 71.975C95.7358 72.165 95.7083 72.35 95.6683 72.53C95.5483 73.055 95.3183 73.485 94.9783 73.82C94.6383 74.16 94.2158 74.4125 93.7108 74.5775C93.2108 74.7425 92.6558 74.825 92.0458 74.825ZM91.8883 71.225C91.1433 71.225 90.4933 71.0375 89.9383 70.6625C89.3833 70.2875 88.9533 69.7775 88.6483 69.1325C88.3433 68.4875 88.1908 67.76 88.1908 66.95C88.1908 66.13 88.3433 65.4 88.6483 64.76C88.9583 64.115 89.3958 63.6075 89.9608 63.2375C90.5258 62.8625 91.1908 62.675 91.9558 62.675C92.7258 62.675 93.3708 62.8625 93.8908 63.2375C94.4158 63.6075 94.8133 64.115 95.0833 64.76C95.3533 65.405 95.4883 66.135 95.4883 66.95C95.4883 67.755 95.3533 68.4825 95.0833 69.1325C94.8133 69.7775 94.4108 70.2875 93.8758 70.6625C93.3408 71.0375 92.6783 71.225 91.8883 71.225ZM92.1658 69.605C92.6508 69.605 93.0408 69.495 93.3358 69.275C93.6358 69.05 93.8533 68.7375 93.9883 68.3375C94.1283 67.9375 94.1983 67.475 94.1983 66.95C94.1983 66.42 94.1283 65.9575 93.9883 65.5625C93.8533 65.1625 93.6408 64.8525 93.3508 64.6325C93.0608 64.4075 92.6858 64.295 92.2258 64.295C91.7408 64.295 91.3408 64.415 91.0258 64.655C90.7108 64.89 90.4783 65.21 90.3283 65.615C90.1783 66.015 90.1033 66.46 90.1033 66.95C90.1033 67.445 90.1758 67.895 90.3208 68.3C90.4708 68.7 90.6983 69.0175 91.0033 69.2525C91.3083 69.4875 91.6958 69.605 92.1658 69.605ZM101.952 74.6L103.512 70.3175L103.542 71.5775L100.009 62.9H101.892L104.397 69.32H103.917L106.354 62.9H108.162L103.647 74.6H101.952ZM112.565 71.225C111.755 71.225 111.048 71.0425 110.443 70.6775C109.838 70.3125 109.368 69.81 109.033 69.17C108.703 68.525 108.538 67.785 108.538 66.95C108.538 66.1 108.708 65.355 109.048 64.715C109.388 64.075 109.86 63.575 110.465 63.215C111.07 62.855 111.77 62.675 112.565 62.675C113.38 62.675 114.09 62.8575 114.695 63.2225C115.3 63.5875 115.77 64.0925 116.105 64.7375C116.44 65.3775 116.608 66.115 116.608 66.95C116.608 67.79 116.438 68.5325 116.098 69.1775C115.763 69.8175 115.293 70.32 114.688 70.685C114.083 71.045 113.375 71.225 112.565 71.225ZM112.565 69.53C113.285 69.53 113.82 69.29 114.17 68.81C114.52 68.33 114.695 67.71 114.695 66.95C114.695 66.165 114.518 65.54 114.163 65.075C113.808 64.605 113.275 64.37 112.565 64.37C112.08 64.37 111.68 64.48 111.365 64.7C111.055 64.915 110.825 65.2175 110.675 65.6075C110.525 65.9925 110.45 66.44 110.45 66.95C110.45 67.735 110.628 68.3625 110.983 68.8325C111.343 69.2975 111.87 69.53 112.565 69.53ZM121.297 71.2325C120.697 71.2325 120.202 71.1325 119.812 70.9325C119.422 70.7325 119.112 70.4775 118.882 70.1675C118.652 69.8575 118.482 69.5275 118.372 69.1775C118.262 68.8275 118.19 68.4975 118.155 68.1875C118.125 67.8725 118.11 67.6175 118.11 67.4225V62.9H119.94V66.8C119.94 67.05 119.957 67.3325 119.992 67.6475C120.027 67.9575 120.107 68.2575 120.232 68.5475C120.362 68.8325 120.552 69.0675 120.802 69.2525C121.057 69.4375 121.4 69.53 121.83 69.53C122.06 69.53 122.287 69.4925 122.512 69.4175C122.737 69.3425 122.94 69.215 123.12 69.035C123.305 68.85 123.452 68.5975 123.562 68.2775C123.672 67.9575 123.727 67.5525 123.727 67.0625L124.8 67.52C124.8 68.21 124.665 68.835 124.395 69.395C124.13 69.955 123.737 70.4025 123.217 70.7375C122.697 71.0675 122.057 71.2325 121.297 71.2325ZM123.945 71V68.4875H123.727V62.9H125.542V71H123.945ZM127.65 71V62.9H129.247V64.8725L129.052 64.6175C129.152 64.3475 129.285 64.1025 129.45 63.8825C129.62 63.6575 129.822 63.4725 130.057 63.3275C130.257 63.1925 130.477 63.0875 130.717 63.0125C130.962 62.9325 131.212 62.885 131.467 62.87C131.722 62.85 131.97 62.86 132.21 62.9V64.5875C131.97 64.5175 131.692 64.495 131.377 64.52C131.067 64.545 130.787 64.6325 130.537 64.7825C130.287 64.9175 130.082 65.09 129.922 65.3C129.767 65.51 129.652 65.75 129.577 66.02C129.502 66.285 129.465 66.5725 129.465 66.8825V71H127.65ZM136.794 71V60.2H138.601V71H136.794ZM144.095 71.225C143.35 71.225 142.7 71.0375 142.145 70.6625C141.59 70.2875 141.16 69.7775 140.855 69.1325C140.55 68.4875 140.398 67.76 140.398 66.95C140.398 66.13 140.55 65.4 140.855 64.76C141.165 64.115 141.603 63.6075 142.168 63.2375C142.733 62.8625 143.398 62.675 144.163 62.675C144.933 62.675 145.578 62.8625 146.098 63.2375C146.623 63.6075 147.02 64.115 147.29 64.76C147.56 65.405 147.695 66.135 147.695 66.95C147.695 67.755 147.56 68.4825 147.29 69.1325C147.02 69.7775 146.618 70.2875 146.083 70.6625C145.548 71.0375 144.885 71.225 144.095 71.225ZM144.373 69.605C144.858 69.605 145.248 69.495 145.543 69.275C145.843 69.05 146.06 68.7375 146.195 68.3375C146.335 67.9375 146.405 67.475 146.405 66.95C146.405 66.42 146.335 65.9575 146.195 65.5625C146.06 65.1625 145.848 64.8525 145.558 64.6325C145.268 64.4075 144.893 64.295 144.433 64.295C143.948 64.295 143.548 64.415 143.233 64.655C142.918 64.89 142.685 65.21 142.535 65.615C142.385 66.015 142.31 66.46 142.31 66.95C142.31 67.445 142.383 67.895 142.528 68.3C142.678 68.7 142.905 69.0175 143.21 69.2525C143.515 69.4875 143.903 69.605 144.373 69.605ZM146.405 71V65.315H146.18V60.2H148.003V71H146.405ZM153.788 71.225C152.968 71.225 152.248 71.0475 151.628 70.6925C151.008 70.3375 150.523 69.845 150.173 69.215C149.828 68.585 149.656 67.86 149.656 67.04C149.656 66.155 149.826 65.3875 150.166 64.7375C150.506 64.0825 150.978 63.575 151.583 63.215C152.188 62.855 152.888 62.675 153.683 62.675C154.523 62.675 155.236 62.8725 155.821 63.2675C156.411 63.6575 156.848 64.21 157.133 64.925C157.418 65.64 157.526 66.4825 157.456 67.4525H155.663V66.7925C155.658 65.9125 155.503 65.27 155.198 64.865C154.893 64.46 154.413 64.2575 153.758 64.2575C153.018 64.2575 152.468 64.4875 152.108 64.9475C151.748 65.4025 151.568 66.07 151.568 66.95C151.568 67.77 151.748 68.405 152.108 68.855C152.468 69.305 152.993 69.53 153.683 69.53C154.128 69.53 154.511 69.4325 154.831 69.2375C155.156 69.0375 155.406 68.75 155.581 68.375L157.366 68.915C157.056 69.645 156.576 70.2125 155.926 70.6175C155.281 71.0225 154.568 71.225 153.788 71.225ZM150.998 67.4525V66.0875H156.571V67.4525H150.998ZM164.512 71V67.1C164.512 66.845 164.494 66.5625 164.459 66.2525C164.424 65.9425 164.342 65.645 164.212 65.36C164.087 65.07 163.897 64.8325 163.642 64.6475C163.392 64.4625 163.052 64.37 162.622 64.37C162.392 64.37 162.164 64.4075 161.939 64.4825C161.714 64.5575 161.509 64.6875 161.324 64.8725C161.144 65.0525 160.999 65.3025 160.889 65.6225C160.779 65.9375 160.724 66.3425 160.724 66.8375L159.652 66.38C159.652 65.69 159.784 65.065 160.049 64.505C160.319 63.945 160.714 63.5 161.234 63.17C161.754 62.835 162.394 62.6675 163.154 62.6675C163.754 62.6675 164.249 62.7675 164.639 62.9675C165.029 63.1675 165.339 63.4225 165.569 63.7325C165.799 64.0425 165.969 64.3725 166.079 64.7225C166.189 65.0725 166.259 65.405 166.289 65.72C166.324 66.03 166.342 66.2825 166.342 66.4775V71H164.512ZM158.894 71V62.9H160.507V65.4125H160.724V71H158.894ZM173.047 71C172.512 71.1 171.987 71.1425 171.472 71.1275C170.962 71.1175 170.504 71.025 170.099 70.85C169.694 70.67 169.387 70.3875 169.177 70.0025C168.992 69.6525 168.894 69.295 168.884 68.93C168.874 68.565 168.869 68.1525 168.869 67.6925V60.65H170.669V67.5875C170.669 67.9125 170.672 68.1975 170.677 68.4425C170.687 68.6875 170.739 68.8875 170.834 69.0425C171.014 69.3425 171.302 69.51 171.697 69.545C172.092 69.58 172.542 69.56 173.047 69.485V71ZM167.399 64.3175V62.9H173.047V64.3175H167.399ZM174.938 61.67V60.0125H176.746V61.67H174.938ZM174.938 71V62.9H176.746V71H174.938ZM183.74 71C183.205 71.1 182.68 71.1425 182.165 71.1275C181.655 71.1175 181.197 71.025 180.792 70.85C180.387 70.67 180.08 70.3875 179.87 70.0025C179.685 69.6525 179.587 69.295 179.577 68.93C179.567 68.565 179.562 68.1525 179.562 67.6925V60.65H181.362V67.5875C181.362 67.9125 181.365 68.1975 181.37 68.4425C181.38 68.6875 181.432 68.8875 181.527 69.0425C181.707 69.3425 181.995 69.51 182.39 69.545C182.785 69.58 183.235 69.56 183.74 69.485V71ZM178.092 64.3175V62.9H183.74V64.3175H178.092ZM186.327 74.6L187.887 70.3175L187.917 71.5775L184.384 62.9H186.267L188.772 69.32H188.292L190.729 62.9H192.537L188.022 74.6H186.327Z" fill="#1D1D1F"/>
<rect x="264" y="40" width="54" height="20" rx="10" fill="#00B76A"/>
<path d="M276.564 54V52.848H277.692V46.752H276.564V45.6H279.924C281.044 45.6 281.9 45.884 282.492 46.452C283.092 47.02 283.392 47.876 283.392 49.02V50.592C283.392 51.736 283.092 52.592 282.492 53.16C281.9 53.72 281.044 54 279.924 54H276.564ZM279 52.824H279.936C280.664 52.824 281.204 52.64 281.556 52.272C281.908 51.904 282.084 51.356 282.084 50.628V48.972C282.084 48.236 281.908 47.688 281.556 47.328C281.204 46.968 280.664 46.788 279.936 46.788H279V52.824ZM287.664 54.168C287.072 54.168 286.544 54.048 286.08 53.808C285.624 53.56 285.264 53.208 285 52.752C284.736 52.296 284.604 51.756 284.604 51.132V50.952C284.604 50.328 284.736 49.792 285 49.344C285.264 48.888 285.624 48.536 286.08 48.288C286.544 48.04 287.072 47.916 287.664 47.916C288.256 47.916 288.784 48.04 289.248 48.288C289.712 48.536 290.076 48.888 290.34 49.344C290.604 49.792 290.736 50.328 290.736 50.952V51.132C290.736 51.756 290.604 52.296 290.34 52.752C290.076 53.208 289.712 53.56 289.248 53.808C288.784 54.048 288.256 54.168 287.664 54.168ZM287.664 53.064C288.208 53.064 288.648 52.892 288.984 52.548C289.328 52.196 289.5 51.712 289.5 51.096V50.988C289.5 50.372 289.332 49.892 288.996 49.548C288.66 49.196 288.216 49.02 287.664 49.02C287.128 49.02 286.688 49.196 286.344 49.548C286.008 49.892 285.84 50.372 285.84 50.988V51.096C285.84 51.712 286.008 52.196 286.344 52.548C286.688 52.892 287.128 53.064 287.664 53.064ZM292.275 54V48.084H293.487V48.972H293.679C293.791 48.732 293.991 48.508 294.279 48.3C294.567 48.092 294.995 47.988 295.563 47.988C296.011 47.988 296.407 48.088 296.751 48.288C297.103 48.488 297.379 48.772 297.579 49.14C297.779 49.5 297.879 49.936 297.879 50.448V54H296.643V50.544C296.643 50.032 296.515 49.656 296.259 49.416C296.003 49.168 295.651 49.044 295.203 49.044C294.691 49.044 294.279 49.212 293.967 49.548C293.663 49.884 293.511 50.372 293.511 51.012V54H292.275ZM302.37 54.168C301.77 54.168 301.246 54.044 300.798 53.796C300.35 53.54 299.998 53.184 299.742 52.728C299.494 52.264 299.37 51.728 299.37 51.12V50.976C299.37 50.36 299.494 49.824 299.742 49.368C299.99 48.904 300.334 48.548 300.774 48.3C301.222 48.044 301.738 47.916 302.322 47.916C302.89 47.916 303.386 48.044 303.81 48.3C304.242 48.548 304.578 48.896 304.818 49.344C305.058 49.792 305.178 50.316 305.178 50.916V51.384H300.63C300.646 51.904 300.818 52.32 301.146 52.632C301.482 52.936 301.898 53.088 302.394 53.088C302.858 53.088 303.206 52.984 303.438 52.776C303.678 52.568 303.862 52.328 303.99 52.056L305.01 52.584C304.898 52.808 304.734 53.044 304.518 53.292C304.31 53.54 304.034 53.748 303.69 53.916C303.346 54.084 302.906 54.168 302.37 54.168ZM300.642 50.436H303.918C303.886 49.988 303.726 49.64 303.438 49.392C303.15 49.136 302.774 49.008 302.31 49.008C301.846 49.008 301.466 49.136 301.17 49.392C300.882 49.64 300.706 49.988 300.642 50.436Z" fill="white"/>
</g>
<rect x="42" y="105.5" width="2" height="27" fill="#D9D9D9"/>
<path d="M35.78 159.168C35.18 159.168 34.644 159.064 34.172 158.856C33.7 158.64 33.328 158.316 33.056 157.884C32.784 157.444 32.648 156.888 32.648 156.216V155.988H33.416V156.216C33.416 156.992 33.636 157.568 34.076 157.944C34.524 158.312 35.092 158.496 35.78 158.496C36.476 158.496 37.012 158.336 37.388 158.016C37.764 157.688 37.952 157.272 37.952 156.768C37.952 156.432 37.868 156.164 37.7 155.964C37.54 155.756 37.312 155.592 37.016 155.472C36.728 155.344 36.392 155.232 36.008 155.136L35.24 154.944C34.784 154.824 34.376 154.676 34.016 154.5C33.656 154.316 33.372 154.08 33.164 153.792C32.956 153.496 32.852 153.12 32.852 152.664C32.852 152.208 32.968 151.812 33.2 151.476C33.44 151.14 33.768 150.884 34.184 150.708C34.6 150.524 35.084 150.432 35.636 150.432C36.188 150.432 36.684 150.528 37.124 150.72C37.572 150.912 37.924 151.196 38.18 151.572C38.444 151.94 38.576 152.404 38.576 152.964V153.528H37.808V152.964C37.808 152.524 37.712 152.168 37.52 151.896C37.328 151.624 37.068 151.424 36.74 151.296C36.412 151.168 36.044 151.104 35.636 151.104C35.052 151.104 34.568 151.24 34.184 151.512C33.808 151.776 33.62 152.16 33.62 152.664C33.62 153 33.696 153.268 33.848 153.468C34.008 153.668 34.228 153.828 34.508 153.948C34.796 154.068 35.132 154.176 35.516 154.272L36.284 154.464C36.724 154.568 37.128 154.708 37.496 154.884C37.864 155.052 38.16 155.288 38.384 155.592C38.608 155.888 38.72 156.28 38.72 156.768C38.72 157.256 38.596 157.68 38.348 158.04C38.108 158.4 37.768 158.68 37.328 158.88C36.888 159.072 36.372 159.168 35.78 159.168ZM42.5625 159C42.2505 159 42.0145 158.92 41.8545 158.76C41.7025 158.6 41.6265 158.376 41.6265 158.088V153.816H39.7545V153.168H41.6265V150.984H42.3465V153.168H44.3865V153.816H42.3465V157.992C42.3465 158.232 42.4665 158.352 42.7065 158.352H44.0745V159H42.5625ZM48.4706 159.168C47.8706 159.168 47.3466 159.044 46.8986 158.796C46.4586 158.54 46.1146 158.184 45.8666 157.728C45.6186 157.272 45.4946 156.748 45.4946 156.156V156.012C45.4946 155.412 45.6186 154.888 45.8666 154.44C46.1146 153.984 46.4546 153.632 46.8866 153.384C47.3266 153.128 47.8266 153 48.3866 153C48.9306 153 49.4106 153.116 49.8266 153.348C50.2506 153.572 50.5826 153.9 50.8226 154.332C51.0626 154.756 51.1826 155.264 51.1826 155.856V156.24H46.2146C46.2386 156.968 46.4586 157.532 46.8746 157.932C47.2986 158.324 47.8306 158.52 48.4706 158.52C49.0146 158.52 49.4346 158.396 49.7306 158.148C50.0346 157.9 50.2666 157.596 50.4266 157.236L51.0746 157.524C50.9546 157.788 50.7866 158.048 50.5706 158.304C50.3626 158.552 50.0906 158.76 49.7546 158.928C49.4186 159.088 48.9906 159.168 48.4706 159.168ZM46.2266 155.616H50.4506C50.4186 154.984 50.2146 154.5 49.8386 154.164C49.4626 153.82 48.9786 153.648 48.3866 153.648C47.8026 153.648 47.3186 153.82 46.9346 154.164C46.5506 154.5 46.3146 154.984 46.2266 155.616ZM52.9544 161.4V153.168H53.6504V154.236H53.7944C53.9624 153.916 54.2224 153.632 54.5744 153.384C54.9344 153.128 55.4344 153 56.0744 153C56.5944 153 57.0664 153.124 57.4904 153.372C57.9144 153.612 58.2504 153.956 58.4984 154.404C58.7544 154.852 58.8824 155.388 58.8824 156.012V156.156C58.8824 156.772 58.7584 157.308 58.5104 157.764C58.2624 158.212 57.9264 158.56 57.5024 158.808C57.0784 159.048 56.6024 159.168 56.0744 159.168C55.6504 159.168 55.2864 159.112 54.9824 159C54.6864 158.88 54.4424 158.728 54.2504 158.544C54.0664 158.36 53.9224 158.172 53.8184 157.98H53.6744V161.4H52.9544ZM55.9064 158.52C56.5704 158.52 57.1064 158.308 57.5144 157.884C57.9304 157.46 58.1384 156.876 58.1384 156.132V156.036C58.1384 155.292 57.9304 154.708 57.5144 154.284C57.1064 153.86 56.5704 153.648 55.9064 153.648C55.2504 153.648 54.7144 153.86 54.2984 154.284C53.8824 154.708 53.6744 155.292 53.6744 156.036V156.132C53.6744 156.876 53.8824 157.46 54.2984 157.884C54.7144 158.308 55.2504 158.52 55.9064 158.52ZM63.446 159V158.172C63.446 157.572 63.554 157.1 63.77 156.756C63.986 156.404 64.286 156.124 64.67 155.916C65.062 155.708 65.522 155.524 66.05 155.364L66.65 155.172C67.042 155.052 67.386 154.908 67.682 154.74C67.986 154.564 68.222 154.34 68.39 154.068C68.558 153.796 68.642 153.452 68.642 153.036V152.988C68.642 152.404 68.438 151.944 68.03 151.608C67.63 151.272 67.118 151.104 66.494 151.104C65.83 151.104 65.286 151.284 64.862 151.644C64.438 151.996 64.226 152.536 64.226 153.264V153.42H63.506V153.264C63.506 152.656 63.634 152.144 63.89 151.728C64.146 151.304 64.498 150.984 64.946 150.768C65.402 150.544 65.918 150.432 66.494 150.432C67.07 150.432 67.574 150.54 68.006 150.756C68.446 150.964 68.786 151.26 69.026 151.644C69.266 152.02 69.386 152.46 69.386 152.964V153.072C69.386 153.616 69.278 154.064 69.062 154.416C68.854 154.76 68.558 155.044 68.174 155.268C67.79 155.484 67.338 155.676 66.818 155.844L66.218 156.024C65.786 156.16 65.418 156.304 65.114 156.456C64.818 156.6 64.59 156.796 64.43 157.044C64.27 157.284 64.19 157.62 64.19 158.052V158.328H69.314V159H63.446Z" fill="#797979"/>
<path d="M33.05 182V171.2H39.4475V172.767H34.6175V175.812H38.5475V177.387H34.6175V182H33.05ZM44.1718 182.225C43.3668 182.225 42.6593 182.05 42.0493 181.7C41.4443 181.345 40.9718 180.852 40.6318 180.222C40.2968 179.587 40.1293 178.852 40.1293 178.017C40.1293 177.132 40.2943 176.365 40.6243 175.715C40.9593 175.065 41.4243 174.562 42.0193 174.207C42.6143 173.852 43.3068 173.675 44.0968 173.675C44.9218 173.675 45.6243 173.867 46.2043 174.253C46.7843 174.632 47.2168 175.175 47.5018 175.88C47.7918 176.585 47.9068 177.422 47.8468 178.392H46.2793V177.822C46.2693 176.882 46.0893 176.187 45.7393 175.737C45.3943 175.287 44.8668 175.062 44.1568 175.062C43.3718 175.062 42.7818 175.31 42.3868 175.805C41.9918 176.3 41.7943 177.015 41.7943 177.95C41.7943 178.84 41.9918 179.53 42.3868 180.02C42.7818 180.505 43.3518 180.747 44.0968 180.747C44.5868 180.747 45.0093 180.637 45.3643 180.417C45.7243 180.192 46.0043 179.872 46.2043 179.457L47.7418 179.945C47.4268 180.67 46.9493 181.232 46.3093 181.632C45.6693 182.027 44.9568 182.225 44.1718 182.225ZM41.2843 178.392V177.17H47.0668V178.392H41.2843ZM54.1645 182C53.6545 182.1 53.1545 182.143 52.6645 182.128C52.1745 182.113 51.737 182.017 51.352 181.842C50.967 181.667 50.677 181.392 50.482 181.017C50.307 180.682 50.212 180.342 50.197 179.997C50.187 179.647 50.182 179.252 50.182 178.812V171.65H51.757V178.737C51.757 179.062 51.7595 179.345 51.7645 179.585C51.7745 179.825 51.827 180.027 51.922 180.192C52.102 180.502 52.387 180.68 52.777 180.725C53.172 180.765 53.6345 180.747 54.1645 180.672V182ZM48.6295 175.16V173.9H54.1645V175.16H48.6295ZM58.9711 182.225C58.1411 182.225 57.4361 182.04 56.8561 181.67C56.2761 181.3 55.8311 180.792 55.5211 180.147C55.2161 179.502 55.0611 178.77 55.0561 177.95C55.0611 177.115 55.2211 176.377 55.5361 175.737C55.8511 175.092 56.3011 174.587 56.8861 174.222C57.4711 173.857 58.1736 173.675 58.9936 173.675C59.8786 173.675 60.6336 173.895 61.2586 174.335C61.8886 174.775 62.3036 175.377 62.5036 176.142L60.9436 176.592C60.7886 176.137 60.5336 175.785 60.1786 175.535C59.8286 175.28 59.4261 175.152 58.9711 175.152C58.4561 175.152 58.0336 175.275 57.7036 175.52C57.3736 175.76 57.1286 176.09 56.9686 176.51C56.8086 176.93 56.7261 177.41 56.7211 177.95C56.7261 178.785 56.9161 179.46 57.2911 179.975C57.6711 180.49 58.2311 180.747 58.9711 180.747C59.4761 180.747 59.8836 180.632 60.1936 180.402C60.5086 180.167 60.7486 179.832 60.9136 179.397L62.5036 179.772C62.2386 180.562 61.8011 181.17 61.1911 181.595C60.5811 182.015 59.8411 182.225 58.9711 182.225ZM69.7164 182V178.017C69.7164 177.702 69.6889 177.38 69.6339 177.05C69.5839 176.715 69.4839 176.405 69.3339 176.12C69.1889 175.835 68.9814 175.605 68.7114 175.43C68.4464 175.255 68.0989 175.167 67.6689 175.167C67.3889 175.167 67.1239 175.215 66.8739 175.31C66.6239 175.4 66.4039 175.547 66.2139 175.752C66.0289 175.957 65.8814 176.227 65.7714 176.562C65.6664 176.897 65.6139 177.305 65.6139 177.785L64.6389 177.417C64.6389 176.682 64.7764 176.035 65.0514 175.475C65.3264 174.91 65.7214 174.47 66.2364 174.155C66.7514 173.84 67.3739 173.682 68.1039 173.682C68.6639 173.682 69.1339 173.772 69.5139 173.952C69.8939 174.132 70.2014 174.37 70.4364 174.665C70.6764 174.955 70.8589 175.272 70.9839 175.617C71.1089 175.962 71.1939 176.3 71.2389 176.63C71.2839 176.96 71.3064 177.25 71.3064 177.5V182H69.7164ZM64.0239 182V171.2H65.4264V177.027H65.6139V182H64.0239ZM73.41 172.572V171.05H74.9775V172.572H73.41ZM73.41 182V173.9H74.9775V182H73.41ZM82.9147 182V178.017C82.9147 177.702 82.8872 177.38 82.8322 177.05C82.7822 176.715 82.6822 176.405 82.5322 176.12C82.3872 175.835 82.1797 175.605 81.9097 175.43C81.6447 175.255 81.2972 175.167 80.8672 175.167C80.5872 175.167 80.3222 175.215 80.0722 175.31C79.8222 175.4 79.6022 175.547 79.4122 175.752C79.2272 175.957 79.0797 176.227 78.9697 176.562C78.8647 176.897 78.8122 177.305 78.8122 177.785L77.8372 177.417C77.8372 176.682 77.9747 176.035 78.2497 175.475C78.5247 174.91 78.9197 174.47 79.4347 174.155C79.9497 173.84 80.5722 173.682 81.3022 173.682C81.8622 173.682 82.3322 173.772 82.7122 173.952C83.0922 174.132 83.3997 174.37 83.6347 174.665C83.8747 174.955 84.0572 175.272 84.1822 175.617C84.3072 175.962 84.3922 176.3 84.4372 176.63C84.4822 176.96 84.5047 177.25 84.5047 177.5V182H82.9147ZM77.2222 182V173.9H78.6247V176.24H78.8122V182H77.2222ZM89.7957 185.825C89.3607 185.825 88.9382 185.758 88.5282 185.623C88.1232 185.488 87.7532 185.288 87.4182 185.023C87.0832 184.763 86.8057 184.44 86.5857 184.055L88.0332 183.32C88.2082 183.665 88.4582 183.918 88.7832 184.078C89.1082 184.238 89.4507 184.318 89.8107 184.318C90.2557 184.318 90.6357 184.238 90.9507 184.078C91.2657 183.923 91.5032 183.688 91.6632 183.373C91.8282 183.058 91.9082 182.668 91.9032 182.203V179.937H92.0907V173.9H93.4782V182.218C93.4782 182.433 93.4707 182.638 93.4557 182.833C93.4407 183.028 93.4132 183.223 93.3732 183.418C93.2582 183.963 93.0382 184.413 92.7132 184.768C92.3932 185.123 91.9832 185.388 91.4832 185.563C90.9882 185.738 90.4257 185.825 89.7957 185.825ZM89.6757 182.225C88.9207 182.225 88.2682 182.038 87.7182 181.662C87.1732 181.287 86.7507 180.777 86.4507 180.132C86.1557 179.482 86.0082 178.752 86.0082 177.942C86.0082 177.127 86.1582 176.4 86.4582 175.76C86.7582 175.115 87.1832 174.607 87.7332 174.237C88.2882 173.862 88.9457 173.675 89.7057 173.675C90.4707 173.675 91.1132 173.862 91.6332 174.237C92.1582 174.607 92.5532 175.115 92.8182 175.76C93.0882 176.405 93.2232 177.132 93.2232 177.942C93.2232 178.752 93.0882 179.48 92.8182 180.125C92.5482 180.77 92.1507 181.282 91.6257 181.662C91.1007 182.038 90.4507 182.225 89.6757 182.225ZM89.8932 180.807C90.4082 180.807 90.8282 180.685 91.1532 180.44C91.4782 180.195 91.7157 179.857 91.8657 179.427C92.0157 178.997 92.0907 178.502 92.0907 177.942C92.0907 177.382 92.0132 176.887 91.8582 176.457C91.7082 176.027 91.4732 175.692 91.1532 175.452C90.8382 175.212 90.4357 175.092 89.9457 175.092C89.4257 175.092 88.9982 175.22 88.6632 175.475C88.3282 175.73 88.0782 176.072 87.9132 176.502C87.7532 176.932 87.6732 177.412 87.6732 177.942C87.6732 178.477 87.7532 178.962 87.9132 179.397C88.0782 179.827 88.3232 180.17 88.6482 180.425C88.9782 180.68 89.3932 180.807 89.8932 180.807ZM102.39 182.225C101.615 182.225 100.965 182.038 100.44 181.662C99.9146 181.282 99.5171 180.77 99.2471 180.125C98.9771 179.48 98.8421 178.752 98.8421 177.942C98.8421 177.132 98.9746 176.405 99.2396 175.76C99.5096 175.115 99.9046 174.607 100.425 174.237C100.95 173.862 101.595 173.675 102.36 173.675C103.12 173.675 103.775 173.862 104.325 174.237C104.88 174.607 105.307 175.115 105.607 175.76C105.907 176.4 106.057 177.127 106.057 177.942C106.057 178.752 105.907 179.482 105.607 180.132C105.312 180.777 104.89 181.287 104.34 181.662C103.795 182.038 103.145 182.225 102.39 182.225ZM98.5796 185.6V173.9H99.9746V179.727H100.155V185.6H98.5796ZM102.172 180.807C102.672 180.807 103.085 180.68 103.41 180.425C103.74 180.17 103.985 179.827 104.145 179.397C104.31 178.962 104.392 178.477 104.392 177.942C104.392 177.412 104.31 176.932 104.145 176.502C103.985 176.072 103.737 175.73 103.402 175.475C103.067 175.22 102.64 175.092 102.12 175.092C101.63 175.092 101.225 175.212 100.905 175.452C100.59 175.692 100.355 176.027 100.2 176.457C100.05 176.887 99.9746 177.382 99.9746 177.942C99.9746 178.502 100.05 178.997 100.2 179.427C100.35 179.857 100.587 180.195 100.912 180.44C101.237 180.685 101.657 180.807 102.172 180.807ZM107.713 182V173.9H109.108V175.865L108.913 175.61C109.013 175.35 109.143 175.112 109.303 174.897C109.463 174.677 109.648 174.497 109.858 174.357C110.063 174.207 110.291 174.092 110.541 174.012C110.796 173.927 111.056 173.877 111.321 173.862C111.586 173.842 111.841 173.855 112.086 173.9V175.37C111.821 175.3 111.526 175.28 111.201 175.31C110.881 175.34 110.586 175.442 110.316 175.617C110.061 175.782 109.858 175.982 109.708 176.217C109.563 176.452 109.458 176.715 109.393 177.005C109.328 177.29 109.296 177.592 109.296 177.912V182H107.713ZM116.885 182.225C116.075 182.225 115.372 182.043 114.777 181.677C114.182 181.312 113.722 180.81 113.397 180.17C113.077 179.525 112.917 178.782 112.917 177.942C112.917 177.097 113.082 176.355 113.412 175.715C113.742 175.07 114.205 174.57 114.8 174.215C115.395 173.855 116.09 173.675 116.885 173.675C117.695 173.675 118.397 173.857 118.992 174.222C119.587 174.587 120.047 175.09 120.372 175.73C120.697 176.37 120.86 177.107 120.86 177.942C120.86 178.787 120.695 179.532 120.365 180.177C120.04 180.817 119.58 181.32 118.985 181.685C118.39 182.045 117.69 182.225 116.885 182.225ZM116.885 180.747C117.66 180.747 118.237 180.487 118.617 179.967C119.002 179.442 119.195 178.767 119.195 177.942C119.195 177.097 119 176.422 118.61 175.917C118.225 175.407 117.65 175.152 116.885 175.152C116.36 175.152 115.927 175.272 115.587 175.512C115.247 175.747 114.995 176.075 114.83 176.495C114.665 176.91 114.582 177.392 114.582 177.942C114.582 178.792 114.777 179.472 115.167 179.982C115.557 180.492 116.13 180.747 116.885 180.747ZM126.311 182.225C125.536 182.225 124.886 182.038 124.361 181.662C123.836 181.282 123.438 180.77 123.168 180.125C122.898 179.48 122.763 178.752 122.763 177.942C122.763 177.132 122.896 176.405 123.161 175.76C123.431 175.115 123.826 174.607 124.346 174.237C124.871 173.862 125.516 173.675 126.281 173.675C127.041 173.675 127.696 173.862 128.246 174.237C128.801 174.607 129.228 175.115 129.528 175.76C129.828 176.4 129.978 177.127 129.978 177.942C129.978 178.752 129.828 179.482 129.528 180.132C129.233 180.777 128.811 181.287 128.261 181.662C127.716 182.038 127.066 182.225 126.311 182.225ZM122.501 185.6V173.9H123.896V179.727H124.076V185.6H122.501ZM126.093 180.807C126.593 180.807 127.006 180.68 127.331 180.425C127.661 180.17 127.906 179.827 128.066 179.397C128.231 178.962 128.313 178.477 128.313 177.942C128.313 177.412 128.231 176.932 128.066 176.502C127.906 176.072 127.658 175.73 127.323 175.475C126.988 175.22 126.561 175.092 126.041 175.092C125.551 175.092 125.146 175.212 124.826 175.452C124.511 175.692 124.276 176.027 124.121 176.457C123.971 176.887 123.896 177.382 123.896 177.942C123.896 178.502 123.971 178.997 124.121 179.427C124.271 179.857 124.508 180.195 124.833 180.44C125.158 180.685 125.578 180.807 126.093 180.807ZM135.226 182.225C134.421 182.225 133.714 182.05 133.104 181.7C132.499 181.345 132.026 180.852 131.686 180.222C131.351 179.587 131.184 178.852 131.184 178.017C131.184 177.132 131.349 176.365 131.679 175.715C132.014 175.065 132.479 174.562 133.074 174.207C133.669 173.852 134.361 173.675 135.151 173.675C135.976 173.675 136.679 173.867 137.259 174.253C137.839 174.632 138.271 175.175 138.556 175.88C138.846 176.585 138.961 177.422 138.901 178.392H137.334V177.822C137.324 176.882 137.144 176.187 136.794 175.737C136.449 175.287 135.921 175.062 135.211 175.062C134.426 175.062 133.836 175.31 133.441 175.805C133.046 176.3 132.849 177.015 132.849 177.95C132.849 178.84 133.046 179.53 133.441 180.02C133.836 180.505 134.406 180.747 135.151 180.747C135.641 180.747 136.064 180.637 136.419 180.417C136.779 180.192 137.059 179.872 137.259 179.457L138.796 179.945C138.481 180.67 138.004 181.232 137.364 181.632C136.724 182.027 136.011 182.225 135.226 182.225ZM132.339 178.392V177.17H138.121V178.392H132.339ZM140.584 182V173.9H141.979V175.865L141.784 175.61C141.884 175.35 142.014 175.112 142.174 174.897C142.334 174.677 142.519 174.497 142.729 174.357C142.934 174.207 143.162 174.092 143.412 174.012C143.667 173.927 143.927 173.877 144.192 173.862C144.457 173.842 144.712 173.855 144.957 173.9V175.37C144.692 175.3 144.397 175.28 144.072 175.31C143.752 175.34 143.457 175.442 143.187 175.617C142.932 175.782 142.729 175.982 142.579 176.217C142.434 176.452 142.329 176.715 142.264 177.005C142.199 177.29 142.167 177.592 142.167 177.912V182H140.584ZM151.02 182C150.51 182.1 150.01 182.143 149.52 182.128C149.03 182.113 148.592 182.017 148.207 181.842C147.822 181.667 147.532 181.392 147.337 181.017C147.162 180.682 147.067 180.342 147.052 179.997C147.042 179.647 147.037 179.252 147.037 178.812V171.65H148.612V178.737C148.612 179.062 148.615 179.345 148.62 179.585C148.63 179.825 148.682 180.027 148.777 180.192C148.957 180.502 149.242 180.68 149.632 180.725C150.027 180.765 150.49 180.747 151.02 180.672V182ZM145.485 175.16V173.9H151.02V175.16H145.485ZM153.603 185.6L155.171 181.332L155.193 182.593L151.661 173.9H153.296L155.936 180.612H155.456L157.976 173.9H159.566L155.096 185.6H153.603ZM166.961 182.225C166.206 182.225 165.553 182.038 165.003 181.662C164.458 181.287 164.036 180.777 163.736 180.132C163.441 179.482 163.293 178.752 163.293 177.942C163.293 177.127 163.443 176.4 163.743 175.76C164.043 175.115 164.468 174.607 165.018 174.237C165.573 173.862 166.231 173.675 166.991 173.675C167.756 173.675 168.398 173.862 168.918 174.237C169.443 174.607 169.838 175.115 170.103 175.76C170.373 176.405 170.508 177.132 170.508 177.942C170.508 178.752 170.373 179.48 170.103 180.125C169.833 180.77 169.436 181.282 168.911 181.662C168.386 182.038 167.736 182.225 166.961 182.225ZM167.178 180.807C167.693 180.807 168.113 180.685 168.438 180.44C168.763 180.195 169.001 179.857 169.151 179.427C169.301 178.997 169.376 178.502 169.376 177.942C169.376 177.382 169.298 176.887 169.143 176.457C168.993 176.027 168.758 175.692 168.438 175.452C168.123 175.212 167.721 175.092 167.231 175.092C166.711 175.092 166.283 175.22 165.948 175.475C165.613 175.73 165.363 176.072 165.198 176.502C165.038 176.932 164.958 177.412 164.958 177.942C164.958 178.477 165.038 178.962 165.198 179.397C165.363 179.827 165.608 180.17 165.933 180.425C166.263 180.68 166.678 180.807 167.178 180.807ZM169.376 182V176.172H169.196V171.2H170.771V182H169.376ZM176.462 182.225C175.657 182.225 174.949 182.05 174.339 181.7C173.734 181.345 173.262 180.852 172.922 180.222C172.587 179.587 172.419 178.852 172.419 178.017C172.419 177.132 172.584 176.365 172.914 175.715C173.249 175.065 173.714 174.562 174.309 174.207C174.904 173.852 175.597 173.675 176.387 173.675C177.212 173.675 177.914 173.867 178.494 174.253C179.074 174.632 179.507 175.175 179.792 175.88C180.082 176.585 180.197 177.422 180.137 178.392H178.569V177.822C178.559 176.882 178.379 176.187 178.029 175.737C177.684 175.287 177.157 175.062 176.447 175.062C175.662 175.062 175.072 175.31 174.677 175.805C174.282 176.3 174.084 177.015 174.084 177.95C174.084 178.84 174.282 179.53 174.677 180.02C175.072 180.505 175.642 180.747 176.387 180.747C176.877 180.747 177.299 180.637 177.654 180.417C178.014 180.192 178.294 179.872 178.494 179.457L180.032 179.945C179.717 180.67 179.239 181.232 178.599 181.632C177.959 182.027 177.247 182.225 176.462 182.225ZM173.574 178.392V177.17H179.357V178.392H173.574ZM186.455 182C185.945 182.1 185.445 182.143 184.955 182.128C184.465 182.113 184.027 182.017 183.642 181.842C183.257 181.667 182.967 181.392 182.772 181.017C182.597 180.682 182.502 180.342 182.487 179.997C182.477 179.647 182.472 179.252 182.472 178.812V171.65H184.047V178.737C184.047 179.062 184.05 179.345 184.055 179.585C184.065 179.825 184.117 180.027 184.212 180.192C184.392 180.502 184.677 180.68 185.067 180.725C185.462 180.765 185.925 180.747 186.455 180.672V182ZM180.92 175.16V173.9H186.455V175.16H180.92ZM190.45 182.225C189.85 182.225 189.347 182.115 188.942 181.895C188.537 181.67 188.23 181.375 188.02 181.01C187.815 180.64 187.712 180.235 187.712 179.795C187.712 179.385 187.785 179.025 187.93 178.715C188.075 178.405 188.29 178.142 188.575 177.927C188.86 177.707 189.21 177.53 189.625 177.395C189.985 177.29 190.392 177.197 190.847 177.117C191.302 177.037 191.78 176.962 192.28 176.892C192.785 176.822 193.285 176.752 193.78 176.682L193.21 176.997C193.22 176.362 193.085 175.892 192.805 175.587C192.53 175.277 192.055 175.122 191.38 175.122C190.955 175.122 190.565 175.222 190.21 175.422C189.855 175.617 189.607 175.942 189.467 176.397L188.005 175.947C188.205 175.252 188.585 174.7 189.145 174.29C189.71 173.88 190.46 173.675 191.395 173.675C192.12 173.675 192.75 173.8 193.285 174.05C193.825 174.295 194.22 174.685 194.47 175.22C194.6 175.485 194.68 175.765 194.71 176.06C194.74 176.355 194.755 176.672 194.755 177.012V182H193.367V180.147L193.637 180.387C193.302 181.007 192.875 181.47 192.355 181.775C191.84 182.075 191.205 182.225 190.45 182.225ZM190.727 180.942C191.172 180.942 191.555 180.865 191.875 180.71C192.195 180.55 192.452 180.347 192.647 180.102C192.842 179.857 192.97 179.602 193.03 179.337C193.115 179.097 193.162 178.827 193.172 178.527C193.187 178.227 193.195 177.987 193.195 177.807L193.705 177.995C193.21 178.07 192.76 178.137 192.355 178.197C191.95 178.257 191.582 178.317 191.252 178.377C190.927 178.432 190.637 178.5 190.382 178.58C190.167 178.655 189.975 178.745 189.805 178.85C189.64 178.955 189.507 179.082 189.407 179.232C189.312 179.382 189.265 179.565 189.265 179.78C189.265 179.99 189.317 180.185 189.422 180.365C189.527 180.54 189.687 180.68 189.902 180.785C190.117 180.89 190.392 180.942 190.727 180.942ZM196.852 172.572V171.05H198.42V172.572H196.852ZM196.852 182V173.9H198.42V182H196.852ZM200.822 182V170.975H202.39V182H200.822ZM207.739 182.218C206.754 182.218 205.952 182 205.332 181.565C204.712 181.13 204.332 180.517 204.192 179.727L205.797 179.48C205.897 179.9 206.127 180.232 206.487 180.477C206.852 180.717 207.304 180.837 207.844 180.837C208.334 180.837 208.717 180.737 208.992 180.537C209.272 180.337 209.412 180.062 209.412 179.712C209.412 179.507 209.362 179.342 209.262 179.217C209.167 179.087 208.964 178.965 208.654 178.85C208.344 178.735 207.872 178.592 207.237 178.422C206.542 178.242 205.989 178.05 205.579 177.845C205.174 177.635 204.884 177.392 204.709 177.117C204.539 176.837 204.454 176.5 204.454 176.105C204.454 175.615 204.584 175.187 204.844 174.822C205.104 174.457 205.469 174.175 205.939 173.975C206.414 173.775 206.969 173.675 207.604 173.675C208.224 173.675 208.777 173.772 209.262 173.967C209.747 174.162 210.139 174.44 210.439 174.8C210.739 175.155 210.919 175.572 210.979 176.052L209.374 176.345C209.319 175.955 209.137 175.647 208.827 175.422C208.517 175.197 208.114 175.075 207.619 175.055C207.144 175.035 206.759 175.115 206.464 175.295C206.169 175.47 206.022 175.712 206.022 176.022C206.022 176.202 206.077 176.355 206.187 176.48C206.302 176.605 206.522 176.725 206.847 176.84C207.172 176.955 207.652 177.092 208.287 177.252C208.967 177.427 209.507 177.622 209.907 177.837C210.307 178.047 210.592 178.3 210.762 178.595C210.937 178.885 211.024 179.237 211.024 179.652C211.024 180.452 210.732 181.08 210.147 181.535C209.567 181.99 208.764 182.218 207.739 182.218Z" fill="#1D1D1F"/>
<rect x="264" y="151" width="54" height="20" rx="10" fill="#00B76A"/>
<path d="M276.564 165V163.848H277.692V157.752H276.564V156.6H279.924C281.044 156.6 281.9 156.884 282.492 157.452C283.092 158.02 283.392 158.876 283.392 160.02V161.592C283.392 162.736 283.092 163.592 282.492 164.16C281.9 164.72 281.044 165 279.924 165H276.564ZM279 163.824H279.936C280.664 163.824 281.204 163.64 281.556 163.272C281.908 162.904 282.084 162.356 282.084 161.628V159.972C282.084 159.236 281.908 158.688 281.556 158.328C281.204 157.968 280.664 157.788 279.936 157.788H279V163.824ZM287.664 165.168C287.072 165.168 286.544 165.048 286.08 164.808C285.624 164.56 285.264 164.208 285 163.752C284.736 163.296 284.604 162.756 284.604 162.132V161.952C284.604 161.328 284.736 160.792 285 160.344C285.264 159.888 285.624 159.536 286.08 159.288C286.544 159.04 287.072 158.916 287.664 158.916C288.256 158.916 288.784 159.04 289.248 159.288C289.712 159.536 290.076 159.888 290.34 160.344C290.604 160.792 290.736 161.328 290.736 161.952V162.132C290.736 162.756 290.604 163.296 290.34 163.752C290.076 164.208 289.712 164.56 289.248 164.808C288.784 165.048 288.256 165.168 287.664 165.168ZM287.664 164.064C288.208 164.064 288.648 163.892 288.984 163.548C289.328 163.196 289.5 162.712 289.5 162.096V161.988C289.5 161.372 289.332 160.892 288.996 160.548C288.66 160.196 288.216 160.02 287.664 160.02C287.128 160.02 286.688 160.196 286.344 160.548C286.008 160.892 285.84 161.372 285.84 161.988V162.096C285.84 162.712 286.008 163.196 286.344 163.548C286.688 163.892 287.128 164.064 287.664 164.064ZM292.275 165V159.084H293.487V159.972H293.679C293.791 159.732 293.991 159.508 294.279 159.3C294.567 159.092 294.995 158.988 295.563 158.988C296.011 158.988 296.407 159.088 296.751 159.288C297.103 159.488 297.379 159.772 297.579 160.14C297.779 160.5 297.879 160.936 297.879 161.448V165H296.643V161.544C296.643 161.032 296.515 160.656 296.259 160.416C296.003 160.168 295.651 160.044 295.203 160.044C294.691 160.044 294.279 160.212 293.967 160.548C293.663 160.884 293.511 161.372 293.511 162.012V165H292.275ZM302.37 165.168C301.77 165.168 301.246 165.044 300.798 164.796C300.35 164.54 299.998 164.184 299.742 163.728C299.494 163.264 299.37 162.728 299.37 162.12V161.976C299.37 161.36 299.494 160.824 299.742 160.368C299.99 159.904 300.334 159.548 300.774 159.3C301.222 159.044 301.738 158.916 302.322 158.916C302.89 158.916 303.386 159.044 303.81 159.3C304.242 159.548 304.578 159.896 304.818 160.344C305.058 160.792 305.178 161.316 305.178 161.916V162.384H300.63C300.646 162.904 300.818 163.32 301.146 163.632C301.482 163.936 301.898 164.088 302.394 164.088C302.858 164.088 303.206 163.984 303.438 163.776C303.678 163.568 303.862 163.328 303.99 163.056L305.01 163.584C304.898 163.808 304.734 164.044 304.518 164.292C304.31 164.54 304.034 164.748 303.69 164.916C303.346 165.084 302.906 165.168 302.37 165.168ZM300.642 161.436H303.918C303.886 160.988 303.726 160.64 303.438 160.392C303.15 160.136 302.774 160.008 302.31 160.008C301.846 160.008 301.466 160.136 301.17 160.392C300.882 160.64 300.706 160.988 300.642 161.436Z" fill="white"/>
<rect x="42" y="216.5" width="2" height="27" fill="#D9D9D9"/>
<path d="M35.78 270.168C35.18 270.168 34.644 270.064 34.172 269.856C33.7 269.64 33.328 269.316 33.056 268.884C32.784 268.444 32.648 267.888 32.648 267.216V266.988H33.416V267.216C33.416 267.992 33.636 268.568 34.076 268.944C34.524 269.312 35.092 269.496 35.78 269.496C36.476 269.496 37.012 269.336 37.388 269.016C37.764 268.688 37.952 268.272 37.952 267.768C37.952 267.432 37.868 267.164 37.7 266.964C37.54 266.756 37.312 266.592 37.016 266.472C36.728 266.344 36.392 266.232 36.008 266.136L35.24 265.944C34.784 265.824 34.376 265.676 34.016 265.5C33.656 265.316 33.372 265.08 33.164 264.792C32.956 264.496 32.852 264.12 32.852 263.664C32.852 263.208 32.968 262.812 33.2 262.476C33.44 262.14 33.768 261.884 34.184 261.708C34.6 261.524 35.084 261.432 35.636 261.432C36.188 261.432 36.684 261.528 37.124 261.72C37.572 261.912 37.924 262.196 38.18 262.572C38.444 262.94 38.576 263.404 38.576 263.964V264.528H37.808V263.964C37.808 263.524 37.712 263.168 37.52 262.896C37.328 262.624 37.068 262.424 36.74 262.296C36.412 262.168 36.044 262.104 35.636 262.104C35.052 262.104 34.568 262.24 34.184 262.512C33.808 262.776 33.62 263.16 33.62 263.664C33.62 264 33.696 264.268 33.848 264.468C34.008 264.668 34.228 264.828 34.508 264.948C34.796 265.068 35.132 265.176 35.516 265.272L36.284 265.464C36.724 265.568 37.128 265.708 37.496 265.884C37.864 266.052 38.16 266.288 38.384 266.592C38.608 266.888 38.72 267.28 38.72 267.768C38.72 268.256 38.596 268.68 38.348 269.04C38.108 269.4 37.768 269.68 37.328 269.88C36.888 270.072 36.372 270.168 35.78 270.168ZM42.5625 270C42.2505 270 42.0145 269.92 41.8545 269.76C41.7025 269.6 41.6265 269.376 41.6265 269.088V264.816H39.7545V264.168H41.6265V261.984H42.3465V264.168H44.3865V264.816H42.3465V268.992C42.3465 269.232 42.4665 269.352 42.7065 269.352H44.0745V270H42.5625ZM48.4706 270.168C47.8706 270.168 47.3466 270.044 46.8986 269.796C46.4586 269.54 46.1146 269.184 45.8666 268.728C45.6186 268.272 45.4946 267.748 45.4946 267.156V267.012C45.4946 266.412 45.6186 265.888 45.8666 265.44C46.1146 264.984 46.4546 264.632 46.8866 264.384C47.3266 264.128 47.8266 264 48.3866 264C48.9306 264 49.4106 264.116 49.8266 264.348C50.2506 264.572 50.5826 264.9 50.8226 265.332C51.0626 265.756 51.1826 266.264 51.1826 266.856V267.24H46.2146C46.2386 267.968 46.4586 268.532 46.8746 268.932C47.2986 269.324 47.8306 269.52 48.4706 269.52C49.0146 269.52 49.4346 269.396 49.7306 269.148C50.0346 268.9 50.2666 268.596 50.4266 268.236L51.0746 268.524C50.9546 268.788 50.7866 269.048 50.5706 269.304C50.3626 269.552 50.0906 269.76 49.7546 269.928C49.4186 270.088 48.9906 270.168 48.4706 270.168ZM46.2266 266.616H50.4506C50.4186 265.984 50.2146 265.5 49.8386 265.164C49.4626 264.82 48.9786 264.648 48.3866 264.648C47.8026 264.648 47.3186 264.82 46.9346 265.164C46.5506 265.5 46.3146 265.984 46.2266 266.616ZM52.9544 272.4V264.168H53.6504V265.236H53.7944C53.9624 264.916 54.2224 264.632 54.5744 264.384C54.9344 264.128 55.4344 264 56.0744 264C56.5944 264 57.0664 264.124 57.4904 264.372C57.9144 264.612 58.2504 264.956 58.4984 265.404C58.7544 265.852 58.8824 266.388 58.8824 267.012V267.156C58.8824 267.772 58.7584 268.308 58.5104 268.764C58.2624 269.212 57.9264 269.56 57.5024 269.808C57.0784 270.048 56.6024 270.168 56.0744 270.168C55.6504 270.168 55.2864 270.112 54.9824 270C54.6864 269.88 54.4424 269.728 54.2504 269.544C54.0664 269.36 53.9224 269.172 53.8184 268.98H53.6744V272.4H52.9544ZM55.9064 269.52C56.5704 269.52 57.1064 269.308 57.5144 268.884C57.9304 268.46 58.1384 267.876 58.1384 267.132V267.036C58.1384 266.292 57.9304 265.708 57.5144 265.284C57.1064 264.86 56.5704 264.648 55.9064 264.648C55.2504 264.648 54.7144 264.86 54.2984 265.284C53.8824 265.708 53.6744 266.292 53.6744 267.036V267.132C53.6744 267.876 53.8824 268.46 54.2984 268.884C54.7144 269.308 55.2504 269.52 55.9064 269.52ZM66.386 270.168C65.802 270.168 65.278 270.056 64.814 269.832C64.358 269.608 63.998 269.284 63.734 268.86C63.478 268.428 63.35 267.908 63.35 267.3V267.072H64.094V267.312C64.094 267.992 64.306 268.528 64.73 268.92C65.154 269.304 65.706 269.496 66.386 269.496C67.074 269.496 67.61 269.312 67.994 268.944C68.378 268.576 68.57 268.112 68.57 267.552V267.48C68.57 267.064 68.47 266.728 68.27 266.472C68.078 266.216 67.814 266.028 67.478 265.908C67.15 265.78 66.786 265.716 66.386 265.716H65.15V264.708L68.558 262.392V262.272H63.542V261.6H69.302V262.68L65.93 264.972V265.092H66.59C67.11 265.092 67.574 265.184 67.982 265.368C68.39 265.544 68.714 265.808 68.954 266.16C69.194 266.504 69.314 266.936 69.314 267.456V267.576C69.314 268.096 69.194 268.552 68.954 268.944C68.714 269.328 68.374 269.628 67.934 269.844C67.494 270.06 66.978 270.168 66.386 270.168Z" fill="#797979"/>
<path d="M33.2 293V282.2H34.7675V291.522H39.6575V293H33.2ZM41.0809 283.572V282.05H42.6484V283.572H41.0809ZM41.0809 293V284.9H42.6484V293H41.0809ZM50.5856 293V289.017C50.5856 288.702 50.5581 288.38 50.5031 288.05C50.4531 287.715 50.3531 287.405 50.2031 287.12C50.0581 286.835 49.8506 286.605 49.5806 286.43C49.3156 286.255 48.9681 286.167 48.5381 286.167C48.2581 286.167 47.9931 286.215 47.7431 286.31C47.4931 286.4 47.2731 286.547 47.0831 286.752C46.8981 286.957 46.7506 287.227 46.6406 287.562C46.5356 287.897 46.4831 288.305 46.4831 288.785L45.5081 288.417C45.5081 287.682 45.6456 287.035 45.9206 286.475C46.1956 285.91 46.5906 285.47 47.1056 285.155C47.6206 284.84 48.2431 284.682 48.9731 284.682C49.5331 284.682 50.0031 284.772 50.3831 284.952C50.7631 285.132 51.0706 285.37 51.3056 285.665C51.5456 285.955 51.7281 286.272 51.8531 286.617C51.9781 286.962 52.0631 287.3 52.1081 287.63C52.1531 287.96 52.1756 288.25 52.1756 288.5V293H50.5856ZM44.8931 293V284.9H46.2956V287.24H46.4831V293H44.8931ZM54.1216 293L54.1291 282.2H55.7191V288.8L58.8991 284.9H60.8941L57.5341 288.95L61.2391 293H59.1091L55.7191 289.1V293H54.1216ZM62.1453 283.572V282.05H63.7128V283.572H62.1453ZM62.1453 293V284.9H63.7128V293H62.1453ZM71.65 293V289.017C71.65 288.702 71.6225 288.38 71.5675 288.05C71.5175 287.715 71.4175 287.405 71.2675 287.12C71.1225 286.835 70.915 286.605 70.645 286.43C70.38 286.255 70.0325 286.167 69.6025 286.167C69.3225 286.167 69.0575 286.215 68.8075 286.31C68.5575 286.4 68.3375 286.547 68.1475 286.752C67.9625 286.957 67.815 287.227 67.705 287.562C67.6 287.897 67.5475 288.305 67.5475 288.785L66.5725 288.417C66.5725 287.682 66.71 287.035 66.985 286.475C67.26 285.91 67.655 285.47 68.17 285.155C68.685 284.84 69.3075 284.682 70.0375 284.682C70.5975 284.682 71.0675 284.772 71.4475 284.952C71.8275 285.132 72.135 285.37 72.37 285.665C72.61 285.955 72.7925 286.272 72.9175 286.617C73.0425 286.962 73.1275 287.3 73.1725 287.63C73.2175 287.96 73.24 288.25 73.24 288.5V293H71.65ZM65.9575 293V284.9H67.36V287.24H67.5475V293H65.9575ZM78.5311 296.825C78.0961 296.825 77.6736 296.758 77.2636 296.623C76.8586 296.488 76.4886 296.288 76.1536 296.023C75.8186 295.763 75.5411 295.44 75.3211 295.055L76.7686 294.32C76.9436 294.665 77.1936 294.918 77.5186 295.078C77.8436 295.238 78.1861 295.318 78.5461 295.318C78.9911 295.318 79.3711 295.238 79.6861 295.078C80.0011 294.923 80.2386 294.688 80.3986 294.373C80.5636 294.058 80.6436 293.668 80.6386 293.203V290.937H80.8261V284.9H82.2136V293.218C82.2136 293.433 82.2061 293.638 82.1911 293.833C82.1761 294.028 82.1486 294.223 82.1086 294.418C81.9936 294.963 81.7736 295.413 81.4486 295.768C81.1286 296.123 80.7186 296.388 80.2186 296.563C79.7236 296.738 79.1611 296.825 78.5311 296.825ZM78.4111 293.225C77.6561 293.225 77.0036 293.038 76.4536 292.662C75.9086 292.287 75.4861 291.777 75.1861 291.132C74.8911 290.482 74.7436 289.752 74.7436 288.942C74.7436 288.127 74.8936 287.4 75.1936 286.76C75.4936 286.115 75.9186 285.607 76.4686 285.237C77.0236 284.862 77.6811 284.675 78.4411 284.675C79.2061 284.675 79.8486 284.862 80.3686 285.237C80.8936 285.607 81.2886 286.115 81.5536 286.76C81.8236 287.405 81.9586 288.132 81.9586 288.942C81.9586 289.752 81.8236 290.48 81.5536 291.125C81.2836 291.77 80.8861 292.282 80.3611 292.662C79.8361 293.038 79.1861 293.225 78.4111 293.225ZM78.6286 291.807C79.1436 291.807 79.5636 291.685 79.8886 291.44C80.2136 291.195 80.4511 290.857 80.6011 290.427C80.7511 289.997 80.8261 289.502 80.8261 288.942C80.8261 288.382 80.7486 287.887 80.5936 287.457C80.4436 287.027 80.2086 286.692 79.8886 286.452C79.5736 286.212 79.1711 286.092 78.6811 286.092C78.1611 286.092 77.7336 286.22 77.3986 286.475C77.0636 286.73 76.8136 287.072 76.6486 287.502C76.4886 287.932 76.4086 288.412 76.4086 288.942C76.4086 289.477 76.4886 289.962 76.6486 290.397C76.8136 290.827 77.0586 291.17 77.3836 291.425C77.7136 291.68 78.1286 291.807 78.6286 291.807ZM91.125 293.225C90.35 293.225 89.7 293.038 89.175 292.662C88.65 292.282 88.2525 291.77 87.9825 291.125C87.7125 290.48 87.5775 289.752 87.5775 288.942C87.5775 288.132 87.71 287.405 87.975 286.76C88.245 286.115 88.64 285.607 89.16 285.237C89.685 284.862 90.33 284.675 91.095 284.675C91.855 284.675 92.51 284.862 93.06 285.237C93.615 285.607 94.0425 286.115 94.3425 286.76C94.6425 287.4 94.7925 288.127 94.7925 288.942C94.7925 289.752 94.6425 290.482 94.3425 291.132C94.0475 291.777 93.625 292.287 93.075 292.662C92.53 293.038 91.88 293.225 91.125 293.225ZM87.315 296.6V284.9H88.71V290.727H88.89V296.6H87.315ZM90.9075 291.807C91.4075 291.807 91.82 291.68 92.145 291.425C92.475 291.17 92.72 290.827 92.88 290.397C93.045 289.962 93.1275 289.477 93.1275 288.942C93.1275 288.412 93.045 287.932 92.88 287.502C92.72 287.072 92.4725 286.73 92.1375 286.475C91.8025 286.22 91.375 286.092 90.855 286.092C90.365 286.092 89.96 286.212 89.64 286.452C89.325 286.692 89.09 287.027 88.935 287.457C88.785 287.887 88.71 288.382 88.71 288.942C88.71 289.502 88.785 289.997 88.935 290.427C89.085 290.857 89.3225 291.195 89.6475 291.44C89.9725 291.685 90.3925 291.807 90.9075 291.807ZM96.4484 293V284.9H97.8434V286.865L97.6484 286.61C97.7484 286.35 97.8784 286.112 98.0384 285.897C98.1984 285.677 98.3834 285.497 98.5934 285.357C98.7984 285.207 99.0259 285.092 99.2759 285.012C99.5309 284.927 99.7909 284.877 100.056 284.862C100.321 284.842 100.576 284.855 100.821 284.9V286.37C100.556 286.3 100.261 286.28 99.9359 286.31C99.6159 286.34 99.3209 286.442 99.0509 286.617C98.7959 286.782 98.5934 286.982 98.4434 287.217C98.2984 287.452 98.1934 287.715 98.1284 288.005C98.0634 288.29 98.0309 288.592 98.0309 288.912V293H96.4484ZM105.62 293.225C104.81 293.225 104.108 293.043 103.513 292.677C102.918 292.312 102.458 291.81 102.133 291.17C101.813 290.525 101.653 289.782 101.653 288.942C101.653 288.097 101.818 287.355 102.148 286.715C102.478 286.07 102.94 285.57 103.535 285.215C104.13 284.855 104.825 284.675 105.62 284.675C106.43 284.675 107.133 284.857 107.728 285.222C108.323 285.587 108.783 286.09 109.108 286.73C109.433 287.37 109.595 288.107 109.595 288.942C109.595 289.787 109.43 290.532 109.1 291.177C108.775 291.817 108.315 292.32 107.72 292.685C107.125 293.045 106.425 293.225 105.62 293.225ZM105.62 291.747C106.395 291.747 106.973 291.487 107.353 290.967C107.738 290.442 107.93 289.767 107.93 288.942C107.93 288.097 107.735 287.422 107.345 286.917C106.96 286.407 106.385 286.152 105.62 286.152C105.095 286.152 104.663 286.272 104.323 286.512C103.983 286.747 103.73 287.075 103.565 287.495C103.4 287.91 103.318 288.392 103.318 288.942C103.318 289.792 103.513 290.472 103.903 290.982C104.293 291.492 104.865 291.747 105.62 291.747ZM115.046 293.225C114.271 293.225 113.621 293.038 113.096 292.662C112.571 292.282 112.173 291.77 111.903 291.125C111.633 290.48 111.498 289.752 111.498 288.942C111.498 288.132 111.631 287.405 111.896 286.76C112.166 286.115 112.561 285.607 113.081 285.237C113.606 284.862 114.251 284.675 115.016 284.675C115.776 284.675 116.431 284.862 116.981 285.237C117.536 285.607 117.963 286.115 118.263 286.76C118.563 287.4 118.713 288.127 118.713 288.942C118.713 289.752 118.563 290.482 118.263 291.132C117.968 291.777 117.546 292.287 116.996 292.662C116.451 293.038 115.801 293.225 115.046 293.225ZM111.236 296.6V284.9H112.631V290.727H112.811V296.6H111.236ZM114.828 291.807C115.328 291.807 115.741 291.68 116.066 291.425C116.396 291.17 116.641 290.827 116.801 290.397C116.966 289.962 117.048 289.477 117.048 288.942C117.048 288.412 116.966 287.932 116.801 287.502C116.641 287.072 116.393 286.73 116.058 286.475C115.723 286.22 115.296 286.092 114.776 286.092C114.286 286.092 113.881 286.212 113.561 286.452C113.246 286.692 113.011 287.027 112.856 287.457C112.706 287.887 112.631 288.382 112.631 288.942C112.631 289.502 112.706 289.997 112.856 290.427C113.006 290.857 113.243 291.195 113.568 291.44C113.893 291.685 114.313 291.807 114.828 291.807ZM123.962 293.225C123.157 293.225 122.449 293.05 121.839 292.7C121.234 292.345 120.762 291.852 120.422 291.222C120.087 290.587 119.919 289.852 119.919 289.017C119.919 288.132 120.084 287.365 120.414 286.715C120.749 286.065 121.214 285.562 121.809 285.207C122.404 284.852 123.097 284.675 123.887 284.675C124.712 284.675 125.414 284.867 125.994 285.253C126.574 285.632 127.007 286.175 127.292 286.88C127.582 287.585 127.697 288.422 127.637 289.392H126.069V288.822C126.059 287.882 125.879 287.187 125.529 286.737C125.184 286.287 124.657 286.062 123.947 286.062C123.162 286.062 122.572 286.31 122.177 286.805C121.782 287.3 121.584 288.015 121.584 288.95C121.584 289.84 121.782 290.53 122.177 291.02C122.572 291.505 123.142 291.747 123.887 291.747C124.377 291.747 124.799 291.637 125.154 291.417C125.514 291.192 125.794 290.872 125.994 290.457L127.532 290.945C127.217 291.67 126.739 292.232 126.099 292.632C125.459 293.027 124.747 293.225 123.962 293.225ZM121.074 289.392V288.17H126.857V289.392H121.074ZM129.32 293V284.9H130.715V286.865L130.52 286.61C130.62 286.35 130.75 286.112 130.91 285.897C131.07 285.677 131.255 285.497 131.465 285.357C131.67 285.207 131.897 285.092 132.147 285.012C132.402 284.927 132.662 284.877 132.927 284.862C133.192 284.842 133.447 284.855 133.692 284.9V286.37C133.427 286.3 133.132 286.28 132.807 286.31C132.487 286.34 132.192 286.442 131.922 286.617C131.667 286.782 131.465 286.982 131.315 287.217C131.17 287.452 131.065 287.715 131 288.005C130.935 288.29 130.902 288.592 130.902 288.912V293H129.32ZM139.755 293C139.245 293.1 138.745 293.143 138.255 293.128C137.765 293.113 137.328 293.017 136.943 292.842C136.558 292.667 136.268 292.392 136.073 292.017C135.898 291.682 135.803 291.342 135.788 290.997C135.778 290.647 135.773 290.252 135.773 289.812V282.65H137.348V289.737C137.348 290.062 137.35 290.345 137.355 290.585C137.365 290.825 137.418 291.027 137.513 291.192C137.693 291.502 137.978 291.68 138.368 291.725C138.763 291.765 139.225 291.747 139.755 291.672V293ZM134.22 286.16V284.9H139.755V286.16H134.22ZM142.338 296.6L143.906 292.332L143.928 293.593L140.396 284.9H142.031L144.671 291.612H144.191L146.711 284.9H148.301L143.831 296.6H142.338ZM157.114 293C156.604 293.1 156.104 293.143 155.614 293.128C155.124 293.113 154.686 293.017 154.301 292.842C153.916 292.667 153.626 292.392 153.431 292.017C153.256 291.682 153.161 291.342 153.146 290.997C153.136 290.647 153.131 290.252 153.131 289.812V282.65H154.706V289.737C154.706 290.062 154.709 290.345 154.714 290.585C154.724 290.825 154.776 291.027 154.871 291.192C155.051 291.502 155.336 291.68 155.726 291.725C156.121 291.765 156.584 291.747 157.114 291.672V293ZM151.579 286.16V284.9H157.114V286.16H151.579ZM161.973 293.225C161.163 293.225 160.46 293.043 159.865 292.677C159.27 292.312 158.81 291.81 158.485 291.17C158.165 290.525 158.005 289.782 158.005 288.942C158.005 288.097 158.17 287.355 158.5 286.715C158.83 286.07 159.293 285.57 159.888 285.215C160.483 284.855 161.178 284.675 161.973 284.675C162.783 284.675 163.485 284.857 164.08 285.222C164.675 285.587 165.135 286.09 165.46 286.73C165.785 287.37 165.948 288.107 165.948 288.942C165.948 289.787 165.783 290.532 165.453 291.177C165.128 291.817 164.668 292.32 164.073 292.685C163.478 293.045 162.778 293.225 161.973 293.225ZM161.973 291.747C162.748 291.747 163.325 291.487 163.705 290.967C164.09 290.442 164.283 289.767 164.283 288.942C164.283 288.097 164.088 287.422 163.698 286.917C163.313 286.407 162.738 286.152 161.973 286.152C161.448 286.152 161.015 286.272 160.675 286.512C160.335 286.747 160.083 287.075 159.918 287.495C159.753 287.91 159.67 288.392 159.67 288.942C159.67 289.792 159.865 290.472 160.255 290.982C160.645 291.492 161.218 291.747 161.973 291.747ZM172.886 293.225C172.286 293.225 171.784 293.115 171.379 292.895C170.974 292.67 170.666 292.375 170.456 292.01C170.251 291.64 170.149 291.235 170.149 290.795C170.149 290.385 170.221 290.025 170.366 289.715C170.511 289.405 170.726 289.142 171.011 288.927C171.296 288.707 171.646 288.53 172.061 288.395C172.421 288.29 172.829 288.197 173.284 288.117C173.739 288.037 174.216 287.962 174.716 287.892C175.221 287.822 175.721 287.752 176.216 287.682L175.646 287.997C175.656 287.362 175.521 286.892 175.241 286.587C174.966 286.277 174.491 286.122 173.816 286.122C173.391 286.122 173.001 286.222 172.646 286.422C172.291 286.617 172.044 286.942 171.904 287.397L170.441 286.947C170.641 286.252 171.021 285.7 171.581 285.29C172.146 284.88 172.896 284.675 173.831 284.675C174.556 284.675 175.186 284.8 175.721 285.05C176.261 285.295 176.656 285.685 176.906 286.22C177.036 286.485 177.116 286.765 177.146 287.06C177.176 287.355 177.191 287.672 177.191 288.012V293H175.804V291.147L176.074 291.387C175.739 292.007 175.311 292.47 174.791 292.775C174.276 293.075 173.641 293.225 172.886 293.225ZM173.164 291.942C173.609 291.942 173.991 291.865 174.311 291.71C174.631 291.55 174.889 291.347 175.084 291.102C175.279 290.857 175.406 290.602 175.466 290.337C175.551 290.097 175.599 289.827 175.609 289.527C175.624 289.227 175.631 288.987 175.631 288.807L176.141 288.995C175.646 289.07 175.196 289.137 174.791 289.197C174.386 289.257 174.019 289.317 173.689 289.377C173.364 289.432 173.074 289.5 172.819 289.58C172.604 289.655 172.411 289.745 172.241 289.85C172.076 289.955 171.944 290.082 171.844 290.232C171.749 290.382 171.701 290.565 171.701 290.78C171.701 290.99 171.754 291.185 171.859 291.365C171.964 291.54 172.124 291.68 172.339 291.785C172.554 291.89 172.829 291.942 173.164 291.942ZM182.604 293.225C181.774 293.225 181.069 293.04 180.489 292.67C179.909 292.3 179.464 291.792 179.154 291.147C178.849 290.502 178.694 289.77 178.689 288.95C178.694 288.115 178.854 287.377 179.169 286.737C179.484 286.092 179.934 285.587 180.519 285.222C181.104 284.857 181.806 284.675 182.626 284.675C183.511 284.675 184.266 284.895 184.891 285.335C185.521 285.775 185.936 286.377 186.136 287.142L184.576 287.592C184.421 287.137 184.166 286.785 183.811 286.535C183.461 286.28 183.059 286.152 182.604 286.152C182.089 286.152 181.666 286.275 181.336 286.52C181.006 286.76 180.761 287.09 180.601 287.51C180.441 287.93 180.359 288.41 180.354 288.95C180.359 289.785 180.549 290.46 180.924 290.975C181.304 291.49 181.864 291.747 182.604 291.747C183.109 291.747 183.516 291.632 183.826 291.402C184.141 291.167 184.381 290.832 184.546 290.397L186.136 290.772C185.871 291.562 185.434 292.17 184.824 292.595C184.214 293.015 183.474 293.225 182.604 293.225ZM190.91 293.225C190.08 293.225 189.375 293.04 188.795 292.67C188.215 292.3 187.77 291.792 187.46 291.147C187.155 290.502 187 289.77 186.995 288.95C187 288.115 187.16 287.377 187.475 286.737C187.79 286.092 188.24 285.587 188.825 285.222C189.41 284.857 190.112 284.675 190.932 284.675C191.817 284.675 192.572 284.895 193.197 285.335C193.827 285.775 194.242 286.377 194.442 287.142L192.882 287.592C192.727 287.137 192.472 286.785 192.117 286.535C191.767 286.28 191.365 286.152 190.91 286.152C190.395 286.152 189.972 286.275 189.642 286.52C189.312 286.76 189.067 287.09 188.907 287.51C188.747 287.93 188.665 288.41 188.66 288.95C188.665 289.785 188.855 290.46 189.23 290.975C189.61 291.49 190.17 291.747 190.91 291.747C191.415 291.747 191.822 291.632 192.132 291.402C192.447 291.167 192.687 290.832 192.852 290.397L194.442 290.772C194.177 291.562 193.74 292.17 193.13 292.595C192.52 293.015 191.78 293.225 190.91 293.225ZM199.268 293.225C198.458 293.225 197.755 293.043 197.16 292.677C196.565 292.312 196.105 291.81 195.78 291.17C195.46 290.525 195.3 289.782 195.3 288.942C195.3 288.097 195.465 287.355 195.795 286.715C196.125 286.07 196.588 285.57 197.183 285.215C197.778 284.855 198.473 284.675 199.268 284.675C200.078 284.675 200.78 284.857 201.375 285.222C201.97 285.587 202.43 286.09 202.755 286.73C203.08 287.37 203.243 288.107 203.243 288.942C203.243 289.787 203.078 290.532 202.748 291.177C202.423 291.817 201.963 292.32 201.368 292.685C200.773 293.045 200.073 293.225 199.268 293.225ZM199.268 291.747C200.043 291.747 200.62 291.487 201 290.967C201.385 290.442 201.578 289.767 201.578 288.942C201.578 288.097 201.383 287.422 200.993 286.917C200.608 286.407 200.033 286.152 199.268 286.152C198.743 286.152 198.31 286.272 197.97 286.512C197.63 286.747 197.378 287.075 197.213 287.495C197.048 287.91 196.965 288.392 196.965 288.942C196.965 289.792 197.16 290.472 197.55 290.982C197.94 291.492 198.513 291.747 199.268 291.747ZM207.943 293.218C207.383 293.218 206.913 293.128 206.533 292.947C206.153 292.767 205.843 292.532 205.603 292.242C205.368 291.947 205.188 291.627 205.063 291.282C204.938 290.937 204.853 290.6 204.808 290.27C204.763 289.94 204.741 289.65 204.741 289.4V284.9H206.331V288.882C206.331 289.197 206.356 289.522 206.406 289.857C206.461 290.187 206.561 290.495 206.706 290.78C206.856 291.065 207.063 291.295 207.328 291.47C207.598 291.645 207.948 291.732 208.378 291.732C208.658 291.732 208.923 291.687 209.173 291.597C209.423 291.502 209.641 291.352 209.826 291.147C210.016 290.942 210.163 290.672 210.268 290.337C210.378 290.002 210.433 289.595 210.433 289.115L211.408 289.482C211.408 290.217 211.271 290.867 210.996 291.432C210.721 291.992 210.326 292.43 209.811 292.745C209.296 293.06 208.673 293.218 207.943 293.218ZM210.621 293V290.66H210.433V284.9H212.016V293H210.621ZM219.804 293V289.017C219.804 288.702 219.777 288.38 219.722 288.05C219.672 287.715 219.572 287.405 219.422 287.12C219.277 286.835 219.069 286.605 218.799 286.43C218.534 286.255 218.187 286.167 217.757 286.167C217.477 286.167 217.212 286.215 216.962 286.31C216.712 286.4 216.492 286.547 216.302 286.752C216.117 286.957 215.969 287.227 215.859 287.562C215.754 287.897 215.702 288.305 215.702 288.785L214.727 288.417C214.727 287.682 214.864 287.035 215.139 286.475C215.414 285.91 215.809 285.47 216.324 285.155C216.839 284.84 217.462 284.682 218.192 284.682C218.752 284.682 219.222 284.772 219.602 284.952C219.982 285.132 220.289 285.37 220.524 285.665C220.764 285.955 220.947 286.272 221.072 286.617C221.197 286.962 221.282 287.3 221.327 287.63C221.372 287.96 221.394 288.25 221.394 288.5V293H219.804ZM214.112 293V284.9H215.514V287.24H215.702V293H214.112ZM227.983 293C227.473 293.1 226.973 293.143 226.483 293.128C225.993 293.113 225.555 293.017 225.17 292.842C224.785 292.667 224.495 292.392 224.3 292.017C224.125 291.682 224.03 291.342 224.015 290.997C224.005 290.647 224 290.252 224 289.812V282.65H225.575V289.737C225.575 290.062 225.578 290.345 225.583 290.585C225.593 290.825 225.645 291.027 225.74 291.192C225.92 291.502 226.205 291.68 226.595 291.725C226.99 291.765 227.453 291.747 227.983 291.672V293ZM222.448 286.16V284.9H227.983V286.16H222.448Z" fill="#1D1D1F"/>
<rect x="264" y="262" width="54" height="20" rx="10" fill="#00B76A"/>
<path d="M276.564 276V274.848H277.692V268.752H276.564V267.6H279.924C281.044 267.6 281.9 267.884 282.492 268.452C283.092 269.02 283.392 269.876 283.392 271.02V272.592C283.392 273.736 283.092 274.592 282.492 275.16C281.9 275.72 281.044 276 279.924 276H276.564ZM279 274.824H279.936C280.664 274.824 281.204 274.64 281.556 274.272C281.908 273.904 282.084 273.356 282.084 272.628V270.972C282.084 270.236 281.908 269.688 281.556 269.328C281.204 268.968 280.664 268.788 279.936 268.788H279V274.824ZM287.664 276.168C287.072 276.168 286.544 276.048 286.08 275.808C285.624 275.56 285.264 275.208 285 274.752C284.736 274.296 284.604 273.756 284.604 273.132V272.952C284.604 272.328 284.736 271.792 285 271.344C285.264 270.888 285.624 270.536 286.08 270.288C286.544 270.04 287.072 269.916 287.664 269.916C288.256 269.916 288.784 270.04 289.248 270.288C289.712 270.536 290.076 270.888 290.34 271.344C290.604 271.792 290.736 272.328 290.736 272.952V273.132C290.736 273.756 290.604 274.296 290.34 274.752C290.076 275.208 289.712 275.56 289.248 275.808C288.784 276.048 288.256 276.168 287.664 276.168ZM287.664 275.064C288.208 275.064 288.648 274.892 288.984 274.548C289.328 274.196 289.5 273.712 289.5 273.096V272.988C289.5 272.372 289.332 271.892 288.996 271.548C288.66 271.196 288.216 271.02 287.664 271.02C287.128 271.02 286.688 271.196 286.344 271.548C286.008 271.892 285.84 272.372 285.84 272.988V273.096C285.84 273.712 286.008 274.196 286.344 274.548C286.688 274.892 287.128 275.064 287.664 275.064ZM292.275 276V270.084H293.487V270.972H293.679C293.791 270.732 293.991 270.508 294.279 270.3C294.567 270.092 294.995 269.988 295.563 269.988C296.011 269.988 296.407 270.088 296.751 270.288C297.103 270.488 297.379 270.772 297.579 271.14C297.779 271.5 297.879 271.936 297.879 272.448V276H296.643V272.544C296.643 272.032 296.515 271.656 296.259 271.416C296.003 271.168 295.651 271.044 295.203 271.044C294.691 271.044 294.279 271.212 293.967 271.548C293.663 271.884 293.511 272.372 293.511 273.012V276H292.275ZM302.37 276.168C301.77 276.168 301.246 276.044 300.798 275.796C300.35 275.54 299.998 275.184 299.742 274.728C299.494 274.264 299.37 273.728 299.37 273.12V272.976C299.37 272.36 299.494 271.824 299.742 271.368C299.99 270.904 300.334 270.548 300.774 270.3C301.222 270.044 301.738 269.916 302.322 269.916C302.89 269.916 303.386 270.044 303.81 270.3C304.242 270.548 304.578 270.896 304.818 271.344C305.058 271.792 305.178 272.316 305.178 272.916V273.384H300.63C300.646 273.904 300.818 274.32 301.146 274.632C301.482 274.936 301.898 275.088 302.394 275.088C302.858 275.088 303.206 274.984 303.438 274.776C303.678 274.568 303.862 274.328 303.99 274.056L305.01 274.584C304.898 274.808 304.734 275.044 304.518 275.292C304.31 275.54 304.034 275.748 303.69 275.916C303.346 276.084 302.906 276.168 302.37 276.168ZM300.642 272.436H303.918C303.886 271.988 303.726 271.64 303.438 271.392C303.15 271.136 302.774 271.008 302.31 271.008C301.846 271.008 301.466 271.136 301.17 271.392C300.882 271.64 300.706 271.988 300.642 272.436Z" fill="white"/>
<defs>
<filter id="filter0_d_1178_5370" x="4" y="4" width="342" height="103" filterUnits="userSpaceOnUse" color-interpolation-filters="sRGB">
<feFlood flood-opacity="0" result="BackgroundImageFix"/>
<feColorMatrix in="SourceAlpha" type="matrix" values="0 0 0 0 0 0 0 0 0 0 0 0 0 0 0 0 0 0 127 0" result="hardAlpha"/>
<feOffset/>
<feGaussianBlur stdDeviation="2"/>
<feComposite in2="hardAlpha" operator="out"/>
<feColorMatrix type="matrix" values="0 0 0 0 0 0 0 0 0 0 0 0 0 0 0 0 0 0 0.15 0"/>
<feBlend mode="normal" in2="BackgroundImageFix" result="effect1_dropShadow_1178_5370"/>
<feBlend mode="normal" in="SourceGraphic" in2="effect1_dropShadow_1178_5370" result="shape"/>
</filter>
</defs>
</svg>
