<svg width="390" height="585" viewBox="0 0 390 585" fill="none" xmlns="http://www.w3.org/2000/svg">
<circle cx="195" cy="111.5" r="70" fill="#00B407" fill-opacity="0.1"/>
<circle cx="195.001" cy="111.502" r="55.5484" fill="#00B407" fill-opacity="0.3"/>
<circle cx="194.998" cy="110.873" r="35" fill="#00B407"/>
<path d="M183.749 113.043L190.266 119.56L206.015 104.625" stroke="white" stroke-width="3.0521"/>
<path d="M157.996 289.78C156.916 289.78 155.963 289.587 155.136 289.2C154.31 288.813 153.663 288.26 153.196 287.54C152.73 286.82 152.496 285.953 152.496 284.94V284.38H155.096V284.94C155.096 285.78 155.356 286.413 155.876 286.84C156.396 287.253 157.103 287.46 157.996 287.46C158.903 287.46 159.576 287.28 160.016 286.92C160.47 286.56 160.696 286.1 160.696 285.54C160.696 285.153 160.583 284.84 160.356 284.6C160.143 284.36 159.823 284.167 159.396 284.02C158.983 283.86 158.476 283.713 157.876 283.58L157.416 283.48C156.456 283.267 155.63 283 154.936 282.68C154.256 282.347 153.73 281.913 153.356 281.38C152.996 280.847 152.816 280.153 152.816 279.3C152.816 278.447 153.016 277.72 153.416 277.12C153.83 276.507 154.403 276.04 155.136 275.72C155.883 275.387 156.756 275.22 157.756 275.22C158.756 275.22 159.643 275.393 160.416 275.74C161.203 276.073 161.816 276.58 162.256 277.26C162.71 277.927 162.936 278.767 162.936 279.78V280.38H160.336V279.78C160.336 279.247 160.23 278.82 160.016 278.5C159.816 278.167 159.523 277.927 159.136 277.78C158.75 277.62 158.29 277.54 157.756 277.54C156.956 277.54 156.363 277.693 155.976 278C155.603 278.293 155.416 278.7 155.416 279.22C155.416 279.567 155.503 279.86 155.676 280.1C155.863 280.34 156.136 280.54 156.496 280.7C156.856 280.86 157.316 281 157.876 281.12L158.336 281.22C159.336 281.433 160.203 281.707 160.936 282.04C161.683 282.373 162.263 282.813 162.676 283.36C163.09 283.907 163.296 284.607 163.296 285.46C163.296 286.313 163.076 287.067 162.636 287.72C162.21 288.36 161.596 288.867 160.796 289.24C160.01 289.6 159.076 289.78 157.996 289.78ZM169.125 289.66C168.352 289.66 167.672 289.487 167.085 289.14C166.512 288.78 166.065 288.287 165.745 287.66C165.425 287.033 165.265 286.313 165.265 285.5V279.58H167.785V285.3C167.785 286.047 167.965 286.607 168.325 286.98C168.699 287.353 169.225 287.54 169.905 287.54C170.679 287.54 171.279 287.287 171.705 286.78C172.132 286.26 172.345 285.54 172.345 284.62V279.58H174.865V289.5H172.385V288.2H172.025C171.865 288.533 171.565 288.86 171.125 289.18C170.685 289.5 170.019 289.66 169.125 289.66ZM182.33 289.78C181.37 289.78 180.496 289.58 179.71 289.18C178.936 288.78 178.323 288.2 177.87 287.44C177.416 286.68 177.19 285.76 177.19 284.68V284.4C177.19 283.32 177.416 282.4 177.87 281.64C178.323 280.88 178.936 280.3 179.71 279.9C180.496 279.5 181.37 279.3 182.33 279.3C183.276 279.3 184.09 279.467 184.77 279.8C185.45 280.133 185.996 280.593 186.41 281.18C186.836 281.753 187.116 282.407 187.25 283.14L184.81 283.66C184.756 283.26 184.636 282.9 184.45 282.58C184.263 282.26 183.996 282.007 183.65 281.82C183.316 281.633 182.896 281.54 182.39 281.54C181.883 281.54 181.423 281.653 181.01 281.88C180.61 282.093 180.29 282.42 180.05 282.86C179.823 283.287 179.71 283.813 179.71 284.44V284.64C179.71 285.267 179.823 285.8 180.05 286.24C180.29 286.667 180.61 286.993 181.01 287.22C181.423 287.433 181.883 287.54 182.39 287.54C183.15 287.54 183.723 287.347 184.11 286.96C184.51 286.56 184.763 286.04 184.87 285.4L187.31 285.98C187.136 286.687 186.836 287.333 186.41 287.92C185.996 288.493 185.45 288.947 184.77 289.28C184.09 289.613 183.276 289.78 182.33 289.78ZM194.048 289.78C193.088 289.78 192.215 289.58 191.428 289.18C190.655 288.78 190.042 288.2 189.588 287.44C189.135 286.68 188.908 285.76 188.908 284.68V284.4C188.908 283.32 189.135 282.4 189.588 281.64C190.042 280.88 190.655 280.3 191.428 279.9C192.215 279.5 193.088 279.3 194.048 279.3C194.995 279.3 195.808 279.467 196.488 279.8C197.168 280.133 197.715 280.593 198.128 281.18C198.555 281.753 198.835 282.407 198.968 283.14L196.528 283.66C196.475 283.26 196.355 282.9 196.168 282.58C195.982 282.26 195.715 282.007 195.368 281.82C195.035 281.633 194.615 281.54 194.108 281.54C193.602 281.54 193.142 281.653 192.728 281.88C192.328 282.093 192.008 282.42 191.768 282.86C191.542 283.287 191.428 283.813 191.428 284.44V284.64C191.428 285.267 191.542 285.8 191.768 286.24C192.008 286.667 192.328 286.993 192.728 287.22C193.142 287.433 193.602 287.54 194.108 287.54C194.868 287.54 195.442 287.347 195.828 286.96C196.228 286.56 196.482 286.04 196.588 285.4L199.028 285.98C198.855 286.687 198.555 287.333 198.128 287.92C197.715 288.493 197.168 288.947 196.488 289.28C195.808 289.613 194.995 289.78 194.048 289.78ZM205.627 289.78C204.64 289.78 203.767 289.573 203.007 289.16C202.26 288.733 201.674 288.14 201.247 287.38C200.834 286.607 200.627 285.7 200.627 284.66V284.42C200.627 283.38 200.834 282.48 201.247 281.72C201.66 280.947 202.24 280.353 202.987 279.94C203.734 279.513 204.6 279.3 205.587 279.3C206.56 279.3 207.407 279.52 208.127 279.96C208.847 280.387 209.407 280.987 209.807 281.76C210.207 282.52 210.407 283.407 210.407 284.42V285.28H203.187C203.214 285.96 203.467 286.513 203.947 286.94C204.427 287.367 205.014 287.58 205.707 287.58C206.414 287.58 206.934 287.427 207.267 287.12C207.6 286.813 207.854 286.473 208.027 286.1L210.087 287.18C209.9 287.527 209.627 287.907 209.267 288.32C208.92 288.72 208.454 289.067 207.867 289.36C207.28 289.64 206.534 289.78 205.627 289.78ZM203.207 283.4H207.847C207.794 282.827 207.56 282.367 207.147 282.02C206.747 281.673 206.22 281.5 205.567 281.5C204.887 281.5 204.347 281.673 203.947 282.02C203.547 282.367 203.3 282.827 203.207 283.4ZM216.77 289.78C215.477 289.78 214.417 289.5 213.59 288.94C212.763 288.38 212.263 287.58 212.09 286.54L214.41 285.94C214.503 286.407 214.657 286.773 214.87 287.04C215.097 287.307 215.37 287.5 215.69 287.62C216.023 287.727 216.383 287.78 216.77 287.78C217.357 287.78 217.79 287.68 218.07 287.48C218.35 287.267 218.49 287.007 218.49 286.7C218.49 286.393 218.357 286.16 218.09 286C217.823 285.827 217.397 285.687 216.81 285.58L216.25 285.48C215.557 285.347 214.923 285.167 214.35 284.94C213.777 284.7 213.317 284.373 212.97 283.96C212.623 283.547 212.45 283.013 212.45 282.36C212.45 281.373 212.81 280.62 213.53 280.1C214.25 279.567 215.197 279.3 216.37 279.3C217.477 279.3 218.397 279.547 219.13 280.04C219.863 280.533 220.343 281.18 220.57 281.98L218.23 282.7C218.123 282.193 217.903 281.833 217.57 281.62C217.25 281.407 216.85 281.3 216.37 281.3C215.89 281.3 215.523 281.387 215.27 281.56C215.017 281.72 214.89 281.947 214.89 282.24C214.89 282.56 215.023 282.8 215.29 282.96C215.557 283.107 215.917 283.22 216.37 283.3L216.93 283.4C217.677 283.533 218.35 283.713 218.95 283.94C219.563 284.153 220.043 284.467 220.39 284.88C220.75 285.28 220.93 285.827 220.93 286.52C220.93 287.56 220.55 288.367 219.79 288.94C219.043 289.5 218.037 289.78 216.77 289.78ZM227.258 289.78C225.965 289.78 224.905 289.5 224.078 288.94C223.252 288.38 222.752 287.58 222.578 286.54L224.898 285.94C224.992 286.407 225.145 286.773 225.358 287.04C225.585 287.307 225.858 287.5 226.178 287.62C226.512 287.727 226.872 287.78 227.258 287.78C227.845 287.78 228.278 287.68 228.558 287.48C228.838 287.267 228.978 287.007 228.978 286.7C228.978 286.393 228.845 286.16 228.578 286C228.312 285.827 227.885 285.687 227.298 285.58L226.738 285.48C226.045 285.347 225.412 285.167 224.838 284.94C224.265 284.7 223.805 284.373 223.458 283.96C223.112 283.547 222.938 283.013 222.938 282.36C222.938 281.373 223.298 280.62 224.018 280.1C224.738 279.567 225.685 279.3 226.858 279.3C227.965 279.3 228.885 279.547 229.618 280.04C230.352 280.533 230.832 281.18 231.058 281.98L228.718 282.7C228.612 282.193 228.392 281.833 228.058 281.62C227.738 281.407 227.338 281.3 226.858 281.3C226.378 281.3 226.012 281.387 225.758 281.56C225.505 281.72 225.378 281.947 225.378 282.24C225.378 282.56 225.512 282.8 225.778 282.96C226.045 283.107 226.405 283.22 226.858 283.3L227.418 283.4C228.165 283.533 228.838 283.713 229.438 283.94C230.052 284.153 230.532 284.467 230.878 284.88C231.238 285.28 231.418 285.827 231.418 286.52C231.418 287.56 231.038 288.367 230.278 288.94C229.532 289.5 228.525 289.78 227.258 289.78ZM233.927 284.9V275.5H236.487V284.9H233.927ZM235.207 289.78C234.673 289.78 234.22 289.607 233.847 289.26C233.487 288.9 233.307 288.44 233.307 287.88C233.307 287.32 233.487 286.867 233.847 286.52C234.22 286.16 234.673 285.98 235.207 285.98C235.753 285.98 236.207 286.16 236.567 286.52C236.927 286.867 237.107 287.32 237.107 287.88C237.107 288.44 236.927 288.9 236.567 289.26C236.207 289.607 235.753 289.78 235.207 289.78ZM84.5977 316.5V311.68L79.8377 302.5H82.7777L85.7377 308.5H86.0977L89.0577 302.5H91.9977L87.2377 311.68V316.5H84.5977ZM96.5204 316.78C95.5337 316.78 94.6471 316.58 93.8604 316.18C93.0737 315.78 92.4537 315.2 92.0004 314.44C91.5471 313.68 91.3204 312.767 91.3204 311.7V311.38C91.3204 310.313 91.5471 309.4 92.0004 308.64C92.4537 307.88 93.0737 307.3 93.8604 306.9C94.6471 306.5 95.5337 306.3 96.5204 306.3C97.5071 306.3 98.3937 306.5 99.1804 306.9C99.9671 307.3 100.587 307.88 101.04 308.64C101.494 309.4 101.72 310.313 101.72 311.38V311.7C101.72 312.767 101.494 313.68 101.04 314.44C100.587 315.2 99.9671 315.78 99.1804 316.18C98.3937 316.58 97.5071 316.78 96.5204 316.78ZM96.5204 314.54C97.2937 314.54 97.9337 314.293 98.4404 313.8C98.9471 313.293 99.2004 312.573 99.2004 311.64V311.44C99.2004 310.507 98.9471 309.793 98.4404 309.3C97.9471 308.793 97.3071 308.54 96.5204 308.54C95.7471 308.54 95.1071 308.793 94.6004 309.3C94.0937 309.793 93.8404 310.507 93.8404 311.44V311.64C93.8404 312.573 94.0937 313.293 94.6004 313.8C95.1071 314.293 95.7471 314.54 96.5204 314.54ZM107.826 316.66C107.053 316.66 106.373 316.487 105.786 316.14C105.213 315.78 104.766 315.287 104.446 314.66C104.126 314.033 103.966 313.313 103.966 312.5V306.58H106.486V312.3C106.486 313.047 106.666 313.607 107.026 313.98C107.4 314.353 107.926 314.54 108.606 314.54C109.38 314.54 109.98 314.287 110.406 313.78C110.833 313.26 111.046 312.54 111.046 311.62V306.58H113.566V316.5H111.086V315.2H110.726C110.566 315.533 110.266 315.86 109.826 316.18C109.386 316.5 108.72 316.66 107.826 316.66ZM116.371 316.5V306.58H118.851V307.7H119.211C119.357 307.3 119.597 307.007 119.931 306.82C120.277 306.633 120.677 306.54 121.131 306.54H122.331V308.78H121.091C120.451 308.78 119.924 308.953 119.511 309.3C119.097 309.633 118.891 310.153 118.891 310.86V316.5H116.371ZM129.379 316.5V302.5H131.899V316.5H129.379ZM139.411 316.78C138.424 316.78 137.538 316.58 136.751 316.18C135.964 315.78 135.344 315.2 134.891 314.44C134.438 313.68 134.211 312.767 134.211 311.7V311.38C134.211 310.313 134.438 309.4 134.891 308.64C135.344 307.88 135.964 307.3 136.751 306.9C137.538 306.5 138.424 306.3 139.411 306.3C140.398 306.3 141.284 306.5 142.071 306.9C142.858 307.3 143.478 307.88 143.931 308.64C144.384 309.4 144.611 310.313 144.611 311.38V311.7C144.611 312.767 144.384 313.68 143.931 314.44C143.478 315.2 142.858 315.78 142.071 316.18C141.284 316.58 140.398 316.78 139.411 316.78ZM139.411 314.54C140.184 314.54 140.824 314.293 141.331 313.8C141.838 313.293 142.091 312.573 142.091 311.64V311.44C142.091 310.507 141.838 309.793 141.331 309.3C140.838 308.793 140.198 308.54 139.411 308.54C138.638 308.54 137.998 308.793 137.491 309.3C136.984 309.793 136.731 310.507 136.731 311.44V311.64C136.731 312.573 136.984 313.293 137.491 313.8C137.998 314.293 138.638 314.54 139.411 314.54ZM150.017 316.78C149.31 316.78 148.677 316.66 148.117 316.42C147.557 316.167 147.11 315.807 146.777 315.34C146.457 314.86 146.297 314.28 146.297 313.6C146.297 312.92 146.457 312.353 146.777 311.9C147.11 311.433 147.564 311.087 148.137 310.86C148.724 310.62 149.39 310.5 150.137 310.5H152.857V309.94C152.857 309.473 152.71 309.093 152.417 308.8C152.124 308.493 151.657 308.34 151.017 308.34C150.39 308.34 149.924 308.487 149.617 308.78C149.31 309.06 149.11 309.427 149.017 309.88L146.697 309.1C146.857 308.593 147.11 308.133 147.457 307.72C147.817 307.293 148.29 306.953 148.877 306.7C149.477 306.433 150.204 306.3 151.057 306.3C152.364 306.3 153.397 306.627 154.157 307.28C154.917 307.933 155.297 308.88 155.297 310.12V313.82C155.297 314.22 155.484 314.42 155.857 314.42H156.657V316.5H154.977C154.484 316.5 154.077 316.38 153.757 316.14C153.437 315.9 153.277 315.58 153.277 315.18V315.16H152.897C152.844 315.32 152.724 315.533 152.537 315.8C152.35 316.053 152.057 316.28 151.657 316.48C151.257 316.68 150.71 316.78 150.017 316.78ZM150.457 314.74C151.164 314.74 151.737 314.547 152.177 314.16C152.63 313.76 152.857 313.233 152.857 312.58V312.38H150.317C149.85 312.38 149.484 312.48 149.217 312.68C148.95 312.88 148.817 313.16 148.817 313.52C148.817 313.88 148.957 314.173 149.237 314.4C149.517 314.627 149.924 314.74 150.457 314.74ZM158.5 316.5V306.58H160.98V307.88H161.34C161.5 307.533 161.8 307.207 162.24 306.9C162.68 306.58 163.346 306.42 164.24 306.42C165.013 306.42 165.686 306.6 166.26 306.96C166.846 307.307 167.3 307.793 167.62 308.42C167.94 309.033 168.1 309.753 168.1 310.58V316.5H165.58V310.78C165.58 310.033 165.393 309.473 165.02 309.1C164.66 308.727 164.14 308.54 163.46 308.54C162.686 308.54 162.086 308.8 161.66 309.32C161.233 309.827 161.02 310.54 161.02 311.46V316.5H158.5ZM175.902 316.5V306.58H178.422V316.5H175.902ZM177.162 305.42C176.709 305.42 176.322 305.273 176.002 304.98C175.695 304.687 175.542 304.3 175.542 303.82C175.542 303.34 175.695 302.953 176.002 302.66C176.322 302.367 176.709 302.22 177.162 302.22C177.629 302.22 178.015 302.367 178.322 302.66C178.629 302.953 178.782 303.34 178.782 303.82C178.782 304.3 178.629 304.687 178.322 304.98C178.015 305.273 177.629 305.42 177.162 305.42ZM185.334 316.78C184.041 316.78 182.981 316.5 182.154 315.94C181.328 315.38 180.828 314.58 180.654 313.54L182.974 312.94C183.068 313.407 183.221 313.773 183.434 314.04C183.661 314.307 183.934 314.5 184.254 314.62C184.588 314.727 184.948 314.78 185.334 314.78C185.921 314.78 186.354 314.68 186.634 314.48C186.914 314.267 187.054 314.007 187.054 313.7C187.054 313.393 186.921 313.16 186.654 313C186.388 312.827 185.961 312.687 185.374 312.58L184.814 312.48C184.121 312.347 183.488 312.167 182.914 311.94C182.341 311.7 181.881 311.373 181.534 310.96C181.188 310.547 181.014 310.013 181.014 309.36C181.014 308.373 181.374 307.62 182.094 307.1C182.814 306.567 183.761 306.3 184.934 306.3C186.041 306.3 186.961 306.547 187.694 307.04C188.428 307.533 188.908 308.18 189.134 308.98L186.794 309.7C186.688 309.193 186.468 308.833 186.134 308.62C185.814 308.407 185.414 308.3 184.934 308.3C184.454 308.3 184.088 308.387 183.834 308.56C183.581 308.72 183.454 308.947 183.454 309.24C183.454 309.56 183.588 309.8 183.854 309.96C184.121 310.107 184.481 310.22 184.934 310.3L185.494 310.4C186.241 310.533 186.914 310.713 187.514 310.94C188.128 311.153 188.608 311.467 188.954 311.88C189.314 312.28 189.494 312.827 189.494 313.52C189.494 314.56 189.114 315.367 188.354 315.94C187.608 316.5 186.601 316.78 185.334 316.78ZM200.901 316.78C199.608 316.78 198.548 316.5 197.721 315.94C196.894 315.38 196.394 314.58 196.221 313.54L198.541 312.94C198.634 313.407 198.788 313.773 199.001 314.04C199.228 314.307 199.501 314.5 199.821 314.62C200.154 314.727 200.514 314.78 200.901 314.78C201.488 314.78 201.921 314.68 202.201 314.48C202.481 314.267 202.621 314.007 202.621 313.7C202.621 313.393 202.488 313.16 202.221 313C201.954 312.827 201.528 312.687 200.941 312.58L200.381 312.48C199.688 312.347 199.054 312.167 198.481 311.94C197.908 311.7 197.448 311.373 197.101 310.96C196.754 310.547 196.581 310.013 196.581 309.36C196.581 308.373 196.941 307.62 197.661 307.1C198.381 306.567 199.328 306.3 200.501 306.3C201.608 306.3 202.528 306.547 203.261 307.04C203.994 307.533 204.474 308.18 204.701 308.98L202.361 309.7C202.254 309.193 202.034 308.833 201.701 308.62C201.381 308.407 200.981 308.3 200.501 308.3C200.021 308.3 199.654 308.387 199.401 308.56C199.148 308.72 199.021 308.947 199.021 309.24C199.021 309.56 199.154 309.8 199.421 309.96C199.688 310.107 200.048 310.22 200.501 310.3L201.061 310.4C201.808 310.533 202.481 310.713 203.081 310.94C203.694 311.153 204.174 311.467 204.521 311.88C204.881 312.28 205.061 312.827 205.061 313.52C205.061 314.56 204.681 315.367 203.921 315.94C203.174 316.5 202.168 316.78 200.901 316.78ZM210.271 316.78C209.564 316.78 208.931 316.66 208.371 316.42C207.811 316.167 207.364 315.807 207.031 315.34C206.711 314.86 206.551 314.28 206.551 313.6C206.551 312.92 206.711 312.353 207.031 311.9C207.364 311.433 207.818 311.087 208.391 310.86C208.978 310.62 209.644 310.5 210.391 310.5H213.111V309.94C213.111 309.473 212.964 309.093 212.671 308.8C212.378 308.493 211.911 308.34 211.271 308.34C210.644 308.34 210.178 308.487 209.871 308.78C209.564 309.06 209.364 309.427 209.271 309.88L206.951 309.1C207.111 308.593 207.364 308.133 207.711 307.72C208.071 307.293 208.544 306.953 209.131 306.7C209.731 306.433 210.458 306.3 211.311 306.3C212.618 306.3 213.651 306.627 214.411 307.28C215.171 307.933 215.551 308.88 215.551 310.12V313.82C215.551 314.22 215.738 314.42 216.111 314.42H216.911V316.5H215.231C214.738 316.5 214.331 316.38 214.011 316.14C213.691 315.9 213.531 315.58 213.531 315.18V315.16H213.151C213.098 315.32 212.978 315.533 212.791 315.8C212.604 316.053 212.311 316.28 211.911 316.48C211.511 316.68 210.964 316.78 210.271 316.78ZM210.711 314.74C211.418 314.74 211.991 314.547 212.431 314.16C212.884 313.76 213.111 313.233 213.111 312.58V312.38H210.571C210.104 312.38 209.738 312.48 209.471 312.68C209.204 312.88 209.071 313.16 209.071 313.52C209.071 313.88 209.211 314.173 209.491 314.4C209.771 314.627 210.178 314.74 210.711 314.74ZM218.754 316.5V306.58H221.234V307.88H221.594C221.754 307.533 222.054 307.207 222.494 306.9C222.934 306.58 223.6 306.42 224.494 306.42C225.267 306.42 225.94 306.6 226.514 306.96C227.1 307.307 227.554 307.793 227.874 308.42C228.194 309.033 228.354 309.753 228.354 310.58V316.5H225.834V310.78C225.834 310.033 225.647 309.473 225.274 309.1C224.914 308.727 224.394 308.54 223.714 308.54C222.94 308.54 222.34 308.8 221.914 309.32C221.487 309.827 221.274 310.54 221.274 311.46V316.5H218.754ZM235.738 316.78C234.778 316.78 233.904 316.58 233.118 316.18C232.344 315.78 231.731 315.2 231.278 314.44C230.824 313.68 230.598 312.76 230.598 311.68V311.4C230.598 310.32 230.824 309.4 231.278 308.64C231.731 307.88 232.344 307.3 233.118 306.9C233.904 306.5 234.778 306.3 235.738 306.3C236.684 306.3 237.498 306.467 238.178 306.8C238.858 307.133 239.404 307.593 239.818 308.18C240.244 308.753 240.524 309.407 240.658 310.14L238.218 310.66C238.164 310.26 238.044 309.9 237.858 309.58C237.671 309.26 237.404 309.007 237.058 308.82C236.724 308.633 236.304 308.54 235.798 308.54C235.291 308.54 234.831 308.653 234.418 308.88C234.018 309.093 233.698 309.42 233.458 309.86C233.231 310.287 233.118 310.813 233.118 311.44V311.64C233.118 312.267 233.231 312.8 233.458 313.24C233.698 313.667 234.018 313.993 234.418 314.22C234.831 314.433 235.291 314.54 235.798 314.54C236.558 314.54 237.131 314.347 237.518 313.96C237.918 313.56 238.171 313.04 238.278 312.4L240.718 312.98C240.544 313.687 240.244 314.333 239.818 314.92C239.404 315.493 238.858 315.947 238.178 316.28C237.498 316.613 236.684 316.78 235.738 316.78ZM246.264 316.5C245.611 316.5 245.078 316.3 244.664 315.9C244.264 315.487 244.064 314.94 244.064 314.26V308.66H241.584V306.58H244.064V303.5H246.584V306.58H249.304V308.66H246.584V313.82C246.584 314.22 246.771 314.42 247.144 314.42H249.064V316.5H246.264ZM251.586 316.5V306.58H254.106V316.5H251.586ZM252.846 305.42C252.392 305.42 252.006 305.273 251.686 304.98C251.379 304.687 251.226 304.3 251.226 303.82C251.226 303.34 251.379 302.953 251.686 302.66C252.006 302.367 252.392 302.22 252.846 302.22C253.312 302.22 253.699 302.367 254.006 302.66C254.312 302.953 254.466 303.34 254.466 303.82C254.466 304.3 254.312 304.687 254.006 304.98C253.699 305.273 253.312 305.42 252.846 305.42ZM261.618 316.78C260.631 316.78 259.745 316.58 258.958 316.18C258.171 315.78 257.551 315.2 257.098 314.44C256.645 313.68 256.418 312.767 256.418 311.7V311.38C256.418 310.313 256.645 309.4 257.098 308.64C257.551 307.88 258.171 307.3 258.958 306.9C259.745 306.5 260.631 306.3 261.618 306.3C262.605 306.3 263.491 306.5 264.278 306.9C265.065 307.3 265.685 307.88 266.138 308.64C266.591 309.4 266.818 310.313 266.818 311.38V311.7C266.818 312.767 266.591 313.68 266.138 314.44C265.685 315.2 265.065 315.78 264.278 316.18C263.491 316.58 262.605 316.78 261.618 316.78ZM261.618 314.54C262.391 314.54 263.031 314.293 263.538 313.8C264.045 313.293 264.298 312.573 264.298 311.64V311.44C264.298 310.507 264.045 309.793 263.538 309.3C263.045 308.793 262.405 308.54 261.618 308.54C260.845 308.54 260.205 308.793 259.698 309.3C259.191 309.793 258.938 310.507 258.938 311.44V311.64C258.938 312.573 259.191 313.293 259.698 313.8C260.205 314.293 260.845 314.54 261.618 314.54ZM269.144 316.5V306.58H271.624V307.88H271.984C272.144 307.533 272.444 307.207 272.884 306.9C273.324 306.58 273.991 306.42 274.884 306.42C275.657 306.42 276.331 306.6 276.904 306.96C277.491 307.307 277.944 307.793 278.264 308.42C278.584 309.033 278.744 309.753 278.744 310.58V316.5H276.224V310.78C276.224 310.033 276.037 309.473 275.664 309.1C275.304 308.727 274.784 308.54 274.104 308.54C273.331 308.54 272.731 308.8 272.304 309.32C271.877 309.827 271.664 310.54 271.664 311.46V316.5H269.144ZM285.988 316.78C285.002 316.78 284.128 316.573 283.368 316.16C282.622 315.733 282.035 315.14 281.608 314.38C281.195 313.607 280.988 312.7 280.988 311.66V311.42C280.988 310.38 281.195 309.48 281.608 308.72C282.022 307.947 282.602 307.353 283.348 306.94C284.095 306.513 284.962 306.3 285.948 306.3C286.922 306.3 287.768 306.52 288.488 306.96C289.208 307.387 289.768 307.987 290.168 308.76C290.568 309.52 290.768 310.407 290.768 311.42V312.28H283.548C283.575 312.96 283.828 313.513 284.308 313.94C284.788 314.367 285.375 314.58 286.068 314.58C286.775 314.58 287.295 314.427 287.628 314.12C287.962 313.813 288.215 313.473 288.388 313.1L290.448 314.18C290.262 314.527 289.988 314.907 289.628 315.32C289.282 315.72 288.815 316.067 288.228 316.36C287.642 316.64 286.895 316.78 285.988 316.78ZM283.568 310.4H288.208C288.155 309.827 287.922 309.367 287.508 309.02C287.108 308.673 286.582 308.5 285.928 308.5C285.248 308.5 284.708 308.673 284.308 309.02C283.908 309.367 283.662 309.827 283.568 310.4ZM297.011 316.78C296.225 316.78 295.485 316.587 294.791 316.2C294.111 315.8 293.565 315.22 293.151 314.46C292.738 313.7 292.531 312.78 292.531 311.7V311.38C292.531 310.3 292.738 309.38 293.151 308.62C293.565 307.86 294.111 307.287 294.791 306.9C295.471 306.5 296.211 306.3 297.011 306.3C297.611 306.3 298.111 306.373 298.511 306.52C298.925 306.653 299.258 306.827 299.511 307.04C299.765 307.253 299.958 307.48 300.091 307.72H300.451V302.5H302.971V316.5H300.491V315.3H300.131C299.905 315.673 299.551 316.013 299.071 316.32C298.605 316.627 297.918 316.78 297.011 316.78ZM297.771 314.58C298.545 314.58 299.191 314.333 299.711 313.84C300.231 313.333 300.491 312.6 300.491 311.64V311.44C300.491 310.48 300.231 309.753 299.711 309.26C299.205 308.753 298.558 308.5 297.771 308.5C296.998 308.5 296.351 308.753 295.831 309.26C295.311 309.753 295.051 310.48 295.051 311.44V311.64C295.051 312.6 295.311 313.333 295.831 313.84C296.351 314.333 296.998 314.58 297.771 314.58ZM306.065 311.9V302.5H308.625V311.9H306.065ZM307.345 316.78C306.812 316.78 306.359 316.607 305.985 316.26C305.625 315.9 305.445 315.44 305.445 314.88C305.445 314.32 305.625 313.867 305.985 313.52C306.359 313.16 306.812 312.98 307.345 312.98C307.892 312.98 308.345 313.16 308.705 313.52C309.065 313.867 309.245 314.32 309.245 314.88C309.245 315.44 309.065 315.9 308.705 316.26C308.345 316.607 307.892 316.78 307.345 316.78Z" fill="black"/>
<path d="M86.9206 351.5V340.3H88.2646V345.276H93.5126V340.3H94.8566V351.5H93.5126V346.492H88.2646V351.5H86.9206ZM101.053 351.724C100.263 351.724 99.57 351.559 98.9726 351.228C98.3753 350.887 97.9113 350.412 97.5806 349.804C97.25 349.196 97.0846 348.492 97.0846 347.692V347.5C97.0846 346.689 97.25 345.98 97.5806 345.372C97.9113 344.764 98.37 344.295 98.9566 343.964C99.5433 343.623 100.215 343.452 100.973 343.452C101.709 343.452 102.359 343.612 102.925 343.932C103.49 344.241 103.933 344.689 104.253 345.276C104.573 345.863 104.733 346.551 104.733 347.34V347.916H98.3486C98.3806 348.759 98.6526 349.42 99.1646 349.9C99.6766 350.369 100.317 350.604 101.085 350.604C101.757 350.604 102.274 350.449 102.637 350.14C102.999 349.831 103.277 349.463 103.469 349.036L104.557 349.564C104.397 349.895 104.173 350.225 103.885 350.556C103.607 350.887 103.239 351.164 102.781 351.388C102.333 351.612 101.757 351.724 101.053 351.724ZM98.3646 346.876H103.453C103.41 346.151 103.159 345.585 102.701 345.18C102.253 344.775 101.677 344.572 100.973 344.572C100.258 344.572 99.6713 344.775 99.2126 345.18C98.754 345.585 98.4713 346.151 98.3646 346.876ZM109.337 351.724C108.793 351.724 108.297 351.628 107.849 351.436C107.401 351.244 107.049 350.967 106.793 350.604C106.537 350.241 106.409 349.799 106.409 349.276C106.409 348.743 106.537 348.305 106.793 347.964C107.049 347.612 107.401 347.351 107.849 347.18C108.297 346.999 108.799 346.908 109.353 346.908H111.993V346.332C111.993 345.777 111.828 345.34 111.497 345.02C111.177 344.7 110.697 344.54 110.057 344.54C109.428 344.54 108.937 344.695 108.585 345.004C108.233 345.303 107.993 345.708 107.865 346.22L106.681 345.836C106.809 345.399 107.012 345.004 107.289 344.652C107.567 344.289 107.935 344.001 108.393 343.788C108.863 343.564 109.423 343.452 110.073 343.452C111.076 343.452 111.855 343.713 112.409 344.236C112.964 344.748 113.241 345.473 113.241 346.412V349.948C113.241 350.268 113.391 350.428 113.689 350.428H114.409V351.5H113.305C112.953 351.5 112.671 351.404 112.457 351.212C112.244 351.009 112.137 350.743 112.137 350.412V350.332H111.945C111.828 350.535 111.668 350.748 111.465 350.972C111.273 351.185 111.007 351.361 110.665 351.5C110.324 351.649 109.881 351.724 109.337 351.724ZM109.481 350.636C110.228 350.636 110.831 350.417 111.289 349.98C111.759 349.532 111.993 348.908 111.993 348.108V347.932H109.401C108.9 347.932 108.484 348.044 108.153 348.268C107.833 348.481 107.673 348.807 107.673 349.244C107.673 349.681 107.839 350.023 108.169 350.268C108.511 350.513 108.948 350.636 109.481 350.636ZM119.234 351.724C118.562 351.724 117.943 351.564 117.378 351.244C116.812 350.924 116.364 350.46 116.034 349.852C115.703 349.244 115.538 348.524 115.538 347.692V347.484C115.538 346.652 115.703 345.937 116.034 345.34C116.364 344.732 116.807 344.268 117.362 343.948C117.927 343.617 118.551 343.452 119.234 343.452C119.778 343.452 120.236 343.527 120.61 343.676C120.994 343.815 121.303 343.996 121.538 344.22C121.772 344.433 121.954 344.663 122.082 344.908H122.306V340.3H123.57V351.5H122.338V350.204H122.114C121.9 350.599 121.57 350.951 121.122 351.26C120.674 351.569 120.044 351.724 119.234 351.724ZM119.57 350.604C120.38 350.604 121.036 350.348 121.538 349.836C122.05 349.313 122.306 348.588 122.306 347.66V347.516C122.306 346.588 122.05 345.868 121.538 345.356C121.036 344.833 120.38 344.572 119.57 344.572C118.77 344.572 118.108 344.833 117.586 345.356C117.074 345.868 116.818 346.588 116.818 347.516V347.66C116.818 348.588 117.074 349.313 117.586 349.836C118.108 350.348 118.77 350.604 119.57 350.604ZM133.944 351.724C133.155 351.724 132.456 351.559 131.848 351.228C131.251 350.897 130.781 350.433 130.44 349.836C130.109 349.228 129.944 348.513 129.944 347.692V347.484C129.944 346.673 130.109 345.964 130.44 345.356C130.781 344.748 131.251 344.279 131.848 343.948C132.456 343.617 133.155 343.452 133.944 343.452C134.733 343.452 135.427 343.617 136.024 343.948C136.632 344.279 137.101 344.748 137.432 345.356C137.773 345.964 137.944 346.673 137.944 347.484V347.692C137.944 348.513 137.773 349.228 137.432 349.836C137.101 350.433 136.632 350.897 136.024 351.228C135.427 351.559 134.733 351.724 133.944 351.724ZM133.944 350.588C134.776 350.588 135.437 350.327 135.928 349.804C136.429 349.271 136.68 348.556 136.68 347.66V347.516C136.68 346.62 136.429 345.911 135.928 345.388C135.437 344.855 134.776 344.588 133.944 344.588C133.123 344.588 132.461 344.855 131.96 345.388C131.459 345.911 131.208 346.62 131.208 347.516V347.66C131.208 348.556 131.459 349.271 131.96 349.804C132.461 350.327 133.123 350.588 133.944 350.588ZM141.875 351.5L139.075 343.676H140.419L142.771 350.556H142.995L145.347 343.676H146.691L143.891 351.5H141.875ZM151.771 351.724C150.982 351.724 150.289 351.559 149.691 351.228C149.094 350.887 148.63 350.412 148.299 349.804C147.969 349.196 147.803 348.492 147.803 347.692V347.5C147.803 346.689 147.969 345.98 148.299 345.372C148.63 344.764 149.089 344.295 149.675 343.964C150.262 343.623 150.934 343.452 151.691 343.452C152.427 343.452 153.078 343.612 153.643 343.932C154.209 344.241 154.651 344.689 154.971 345.276C155.291 345.863 155.451 346.551 155.451 347.34V347.916H149.067C149.099 348.759 149.371 349.42 149.883 349.9C150.395 350.369 151.035 350.604 151.803 350.604C152.475 350.604 152.993 350.449 153.355 350.14C153.718 349.831 153.995 349.463 154.187 349.036L155.275 349.564C155.115 349.895 154.891 350.225 154.603 350.556C154.326 350.887 153.958 351.164 153.499 351.388C153.051 351.612 152.475 351.724 151.771 351.724ZM149.083 346.876H154.171C154.129 346.151 153.878 345.585 153.419 345.18C152.971 344.775 152.395 344.572 151.691 344.572C150.977 344.572 150.39 344.775 149.931 345.18C149.473 345.585 149.19 346.151 149.083 346.876ZM157.656 351.5V343.676H158.888V344.636H159.112C159.251 344.295 159.464 344.044 159.752 343.884C160.04 343.724 160.419 343.644 160.888 343.644H161.816V344.796H160.808C160.243 344.796 159.784 344.956 159.432 345.276C159.091 345.585 158.92 346.071 158.92 346.732V351.5H157.656ZM170.677 351.5C170.229 351.5 169.882 351.377 169.637 351.132C169.402 350.887 169.285 350.551 169.285 350.124V344.78H166.933V343.676H169.285V340.892H170.549V343.676H173.109V344.78H170.549V349.932C170.549 350.252 170.703 350.412 171.013 350.412H172.757V351.5H170.677ZM178.491 351.724C177.702 351.724 177.003 351.559 176.395 351.228C175.798 350.897 175.328 350.433 174.987 349.836C174.656 349.228 174.491 348.513 174.491 347.692V347.484C174.491 346.673 174.656 345.964 174.987 345.356C175.328 344.748 175.798 344.279 176.395 343.948C177.003 343.617 177.702 343.452 178.491 343.452C179.28 343.452 179.974 343.617 180.571 343.948C181.179 344.279 181.648 344.748 181.979 345.356C182.32 345.964 182.491 346.673 182.491 347.484V347.692C182.491 348.513 182.32 349.228 181.979 349.836C181.648 350.433 181.179 350.897 180.571 351.228C179.974 351.559 179.28 351.724 178.491 351.724ZM178.491 350.588C179.323 350.588 179.984 350.327 180.475 349.804C180.976 349.271 181.227 348.556 181.227 347.66V347.516C181.227 346.62 180.976 345.911 180.475 345.388C179.984 344.855 179.323 344.588 178.491 344.588C177.67 344.588 177.008 344.855 176.507 345.388C176.006 345.911 175.755 346.62 175.755 347.516V347.66C175.755 348.556 176.006 349.271 176.507 349.804C177.008 350.327 177.67 350.588 178.491 350.588ZM191.755 351.5C191.307 351.5 190.96 351.377 190.715 351.132C190.48 350.887 190.363 350.551 190.363 350.124V344.78H188.011V343.676H190.363V340.892H191.627V343.676H194.187V344.78H191.627V349.932C191.627 350.252 191.782 350.412 192.091 350.412H193.835V351.5H191.755ZM196.234 351.5V340.3H197.498V344.924H197.722C197.829 344.689 197.989 344.471 198.202 344.268C198.426 344.055 198.709 343.879 199.05 343.74C199.402 343.601 199.845 343.532 200.378 343.532C200.965 343.532 201.488 343.66 201.946 343.916C202.416 344.161 202.789 344.524 203.066 345.004C203.344 345.473 203.482 346.06 203.482 346.764V351.5H202.218V346.86C202.218 346.081 202.021 345.516 201.626 345.164C201.242 344.812 200.72 344.636 200.058 344.636C199.301 344.636 198.682 344.881 198.202 345.372C197.733 345.863 197.498 346.593 197.498 347.564V351.5H196.234ZM209.631 351.724C208.841 351.724 208.148 351.559 207.551 351.228C206.953 350.887 206.489 350.412 206.159 349.804C205.828 349.196 205.663 348.492 205.663 347.692V347.5C205.663 346.689 205.828 345.98 206.159 345.372C206.489 344.764 206.948 344.295 207.535 343.964C208.121 343.623 208.793 343.452 209.551 343.452C210.287 343.452 210.937 343.612 211.503 343.932C212.068 344.241 212.511 344.689 212.831 345.276C213.151 345.863 213.311 346.551 213.311 347.34V347.916H206.927C206.959 348.759 207.231 349.42 207.743 349.9C208.255 350.369 208.895 350.604 209.663 350.604C210.335 350.604 210.852 350.449 211.215 350.14C211.577 349.831 211.855 349.463 212.047 349.036L213.135 349.564C212.975 349.895 212.751 350.225 212.463 350.556C212.185 350.887 211.817 351.164 211.359 351.388C210.911 351.612 210.335 351.724 209.631 351.724ZM206.943 346.876H212.031C211.988 346.151 211.737 345.585 211.279 345.18C210.831 344.775 210.255 344.572 209.551 344.572C208.836 344.572 208.249 344.775 207.791 345.18C207.332 345.585 207.049 346.151 206.943 346.876ZM219.625 351.5V340.3H220.889V344.924H221.113C221.22 344.689 221.38 344.471 221.593 344.268C221.817 344.055 222.1 343.879 222.441 343.74C222.793 343.601 223.236 343.532 223.769 343.532C224.356 343.532 224.878 343.66 225.337 343.916C225.806 344.161 226.18 344.524 226.457 345.004C226.734 345.473 226.873 346.06 226.873 346.764V351.5H225.609V346.86C225.609 346.081 225.412 345.516 225.017 345.164C224.633 344.812 224.11 344.636 223.449 344.636C222.692 344.636 222.073 344.881 221.593 345.372C221.124 345.863 220.889 346.593 220.889 347.564V351.5H219.625ZM233.053 351.724C232.264 351.724 231.565 351.559 230.957 351.228C230.36 350.897 229.891 350.433 229.549 349.836C229.219 349.228 229.053 348.513 229.053 347.692V347.484C229.053 346.673 229.219 345.964 229.549 345.356C229.891 344.748 230.36 344.279 230.957 343.948C231.565 343.617 232.264 343.452 233.053 343.452C233.843 343.452 234.536 343.617 235.133 343.948C235.741 344.279 236.211 344.748 236.541 345.356C236.883 345.964 237.053 346.673 237.053 347.484V347.692C237.053 348.513 236.883 349.228 236.541 349.836C236.211 350.433 235.741 350.897 235.133 351.228C234.536 351.559 233.843 351.724 233.053 351.724ZM233.053 350.588C233.885 350.588 234.547 350.327 235.037 349.804C235.539 349.271 235.789 348.556 235.789 347.66V347.516C235.789 346.62 235.539 345.911 235.037 345.388C234.547 344.855 233.885 344.588 233.053 344.588C232.232 344.588 231.571 344.855 231.069 345.388C230.568 345.911 230.317 346.62 230.317 347.516V347.66C230.317 348.556 230.568 349.271 231.069 349.804C231.571 350.327 232.232 350.588 233.053 350.588ZM239.328 351.5V343.676H240.56V344.652H240.784C240.933 344.375 241.179 344.119 241.52 343.884C241.861 343.649 242.341 343.532 242.96 343.532C243.568 343.532 244.059 343.665 244.432 343.932C244.816 344.199 245.093 344.524 245.264 344.908H245.488C245.669 344.524 245.941 344.199 246.304 343.932C246.677 343.665 247.195 343.532 247.856 343.532C248.379 343.532 248.837 343.639 249.232 343.852C249.627 344.065 249.936 344.375 250.16 344.78C250.395 345.175 250.512 345.649 250.512 346.204V351.5H249.248V346.316C249.248 345.793 249.093 345.383 248.784 345.084C248.485 344.775 248.064 344.62 247.52 344.62C246.944 344.62 246.469 344.807 246.096 345.18C245.733 345.553 245.552 346.092 245.552 346.796V351.5H244.288V346.316C244.288 345.793 244.133 345.383 243.824 345.084C243.525 344.775 243.104 344.62 242.56 344.62C241.984 344.62 241.509 344.807 241.136 345.18C240.773 345.553 240.592 346.092 240.592 346.796V351.5H239.328ZM256.678 351.724C255.888 351.724 255.195 351.559 254.598 351.228C254 350.887 253.536 350.412 253.206 349.804C252.875 349.196 252.71 348.492 252.71 347.692V347.5C252.71 346.689 252.875 345.98 253.206 345.372C253.536 344.764 253.995 344.295 254.582 343.964C255.168 343.623 255.84 343.452 256.598 343.452C257.334 343.452 257.984 343.612 258.55 343.932C259.115 344.241 259.558 344.689 259.878 345.276C260.198 345.863 260.358 346.551 260.358 347.34V347.916H253.974C254.006 348.759 254.278 349.42 254.79 349.9C255.302 350.369 255.942 350.604 256.71 350.604C257.382 350.604 257.899 350.449 258.262 350.14C258.624 349.831 258.902 349.463 259.094 349.036L260.182 349.564C260.022 349.895 259.798 350.225 259.51 350.556C259.232 350.887 258.864 351.164 258.406 351.388C257.958 351.612 257.382 351.724 256.678 351.724ZM253.99 346.876H259.078C259.035 346.151 258.784 345.585 258.326 345.18C257.878 344.775 257.302 344.572 256.598 344.572C255.883 344.572 255.296 344.775 254.838 345.18C254.379 345.585 254.096 346.151 253.99 346.876ZM266.672 354.7V343.676H267.904V344.972H268.128C268.33 344.577 268.656 344.225 269.104 343.916C269.562 343.607 270.197 343.452 271.008 343.452C271.68 343.452 272.293 343.617 272.848 343.948C273.413 344.268 273.861 344.727 274.192 345.324C274.533 345.921 274.704 346.641 274.704 347.484V347.692C274.704 348.524 274.538 349.244 274.208 349.852C273.877 350.46 273.429 350.924 272.864 351.244C272.309 351.564 271.69 351.724 271.008 351.724C270.464 351.724 270 351.649 269.616 351.5C269.242 351.361 268.938 351.18 268.704 350.956C268.469 350.732 268.288 350.503 268.16 350.268H267.936V354.7H266.672ZM270.672 350.604C271.482 350.604 272.138 350.348 272.64 349.836C273.152 349.313 273.408 348.588 273.408 347.66V347.516C273.408 346.588 273.152 345.868 272.64 345.356C272.138 344.833 271.482 344.572 270.672 344.572C269.872 344.572 269.21 344.833 268.688 345.356C268.176 345.868 267.92 346.588 267.92 347.516V347.66C267.92 348.588 268.176 349.313 268.688 349.836C269.21 350.348 269.872 350.604 270.672 350.604ZM279.369 351.724C278.825 351.724 278.329 351.628 277.881 351.436C277.433 351.244 277.081 350.967 276.825 350.604C276.569 350.241 276.441 349.799 276.441 349.276C276.441 348.743 276.569 348.305 276.825 347.964C277.081 347.612 277.433 347.351 277.881 347.18C278.329 346.999 278.83 346.908 279.385 346.908H282.025V346.332C282.025 345.777 281.859 345.34 281.529 345.02C281.209 344.7 280.729 344.54 280.089 344.54C279.459 344.54 278.969 344.695 278.617 345.004C278.265 345.303 278.025 345.708 277.897 346.22L276.713 345.836C276.841 345.399 277.043 345.004 277.321 344.652C277.598 344.289 277.966 344.001 278.425 343.788C278.894 343.564 279.454 343.452 280.105 343.452C281.107 343.452 281.886 343.713 282.441 344.236C282.995 344.748 283.273 345.473 283.273 346.412V349.948C283.273 350.268 283.422 350.428 283.721 350.428H284.441V351.5H283.337C282.985 351.5 282.702 351.404 282.489 351.212C282.275 351.009 282.169 350.743 282.169 350.412V350.332H281.977C281.859 350.535 281.699 350.748 281.497 350.972C281.305 351.185 281.038 351.361 280.697 351.5C280.355 351.649 279.913 351.724 279.369 351.724ZM279.513 350.636C280.259 350.636 280.862 350.417 281.321 349.98C281.79 349.532 282.025 348.908 282.025 348.108V347.932H279.433C278.931 347.932 278.515 348.044 278.185 348.268C277.865 348.481 277.705 348.807 277.705 349.244C277.705 349.681 277.87 350.023 278.201 350.268C278.542 350.513 278.979 350.636 279.513 350.636ZM285.569 347.628V347.404C285.569 346.583 285.734 345.879 286.065 345.292C286.396 344.705 286.844 344.252 287.409 343.932C287.974 343.612 288.593 343.452 289.265 343.452C290.086 343.452 290.716 343.612 291.153 343.932C291.601 344.241 291.932 344.588 292.145 344.972H292.369V343.676H293.569V353.324C293.569 353.751 293.452 354.087 293.217 354.332C292.982 354.577 292.641 354.7 292.193 354.7H286.881V353.58H291.857C292.177 353.58 292.337 353.42 292.337 353.1V350.124H292.113C291.985 350.359 291.804 350.588 291.569 350.812C291.334 351.036 291.03 351.223 290.657 351.372C290.284 351.511 289.82 351.58 289.265 351.58C288.593 351.58 287.974 351.42 287.409 351.1C286.844 350.78 286.396 350.327 286.065 349.74C285.734 349.143 285.569 348.439 285.569 347.628ZM289.601 350.46C290.412 350.46 291.068 350.204 291.569 349.692C292.081 349.18 292.337 348.476 292.337 347.58V347.452C292.337 346.545 292.081 345.841 291.569 345.34C291.068 344.828 290.412 344.572 289.601 344.572C288.801 344.572 288.14 344.828 287.617 345.34C287.105 345.841 286.849 346.545 286.849 347.452V347.58C286.849 348.476 287.105 349.18 287.617 349.692C288.14 350.204 288.801 350.46 289.601 350.46ZM299.803 351.724C299.013 351.724 298.32 351.559 297.723 351.228C297.125 350.887 296.661 350.412 296.331 349.804C296 349.196 295.835 348.492 295.835 347.692V347.5C295.835 346.689 296 345.98 296.331 345.372C296.661 344.764 297.12 344.295 297.707 343.964C298.293 343.623 298.965 343.452 299.723 343.452C300.459 343.452 301.109 343.612 301.675 343.932C302.24 344.241 302.683 344.689 303.003 345.276C303.323 345.863 303.483 346.551 303.483 347.34V347.916H297.099C297.131 348.759 297.403 349.42 297.915 349.9C298.427 350.369 299.067 350.604 299.835 350.604C300.507 350.604 301.024 350.449 301.387 350.14C301.749 349.831 302.027 349.463 302.219 349.036L303.307 349.564C303.147 349.895 302.923 350.225 302.635 350.556C302.357 350.887 301.989 351.164 301.531 351.388C301.083 351.612 300.507 351.724 299.803 351.724ZM297.115 346.876H302.203C302.16 346.151 301.909 345.585 301.451 345.18C301.003 344.775 300.427 344.572 299.723 344.572C299.008 344.572 298.421 344.775 297.963 345.18C297.504 345.585 297.221 346.151 297.115 346.876ZM119.638 371.5C119.19 371.5 118.843 371.377 118.598 371.132C118.363 370.887 118.246 370.551 118.246 370.124V364.78H115.894V363.676H118.246V360.892H119.51V363.676H122.07V364.78H119.51V369.932C119.51 370.252 119.664 370.412 119.974 370.412H121.718V371.5H119.638ZM127.452 371.724C126.662 371.724 125.964 371.559 125.356 371.228C124.758 370.897 124.289 370.433 123.948 369.836C123.617 369.228 123.452 368.513 123.452 367.692V367.484C123.452 366.673 123.617 365.964 123.948 365.356C124.289 364.748 124.758 364.279 125.356 363.948C125.964 363.617 126.662 363.452 127.452 363.452C128.241 363.452 128.934 363.617 129.532 363.948C130.14 364.279 130.609 364.748 130.94 365.356C131.281 365.964 131.452 366.673 131.452 367.484V367.692C131.452 368.513 131.281 369.228 130.94 369.836C130.609 370.433 130.14 370.897 129.532 371.228C128.934 371.559 128.241 371.724 127.452 371.724ZM127.452 370.588C128.284 370.588 128.945 370.327 129.436 369.804C129.937 369.271 130.188 368.556 130.188 367.66V367.516C130.188 366.62 129.937 365.911 129.436 365.388C128.945 364.855 128.284 364.588 127.452 364.588C126.63 364.588 125.969 364.855 125.468 365.388C124.966 365.911 124.716 366.62 124.716 367.516V367.66C124.716 368.556 124.966 369.271 125.468 369.804C125.969 370.327 126.63 370.588 127.452 370.588ZM137.836 371.5V363.676H139.068V364.652H139.292C139.441 364.375 139.686 364.119 140.028 363.884C140.369 363.649 140.849 363.532 141.468 363.532C142.076 363.532 142.566 363.665 142.94 363.932C143.324 364.199 143.601 364.524 143.772 364.908H143.996C144.177 364.524 144.449 364.199 144.812 363.932C145.185 363.665 145.702 363.532 146.364 363.532C146.886 363.532 147.345 363.639 147.74 363.852C148.134 364.065 148.444 364.375 148.668 364.78C148.902 365.175 149.02 365.649 149.02 366.204V371.5H147.756V366.316C147.756 365.793 147.601 365.383 147.292 365.084C146.993 364.775 146.572 364.62 146.028 364.62C145.452 364.62 144.977 364.807 144.604 365.18C144.241 365.553 144.06 366.092 144.06 366.796V371.5H142.796V366.316C142.796 365.793 142.641 365.383 142.332 365.084C142.033 364.775 141.612 364.62 141.068 364.62C140.492 364.62 140.017 364.807 139.644 365.18C139.281 365.553 139.1 366.092 139.1 366.796V371.5H137.836ZM154.001 371.724C153.457 371.724 152.961 371.628 152.513 371.436C152.065 371.244 151.713 370.967 151.457 370.604C151.201 370.241 151.073 369.799 151.073 369.276C151.073 368.743 151.201 368.305 151.457 367.964C151.713 367.612 152.065 367.351 152.513 367.18C152.961 366.999 153.463 366.908 154.017 366.908H156.657V366.332C156.657 365.777 156.492 365.34 156.161 365.02C155.841 364.7 155.361 364.54 154.721 364.54C154.092 364.54 153.601 364.695 153.249 365.004C152.897 365.303 152.657 365.708 152.529 366.22L151.345 365.836C151.473 365.399 151.676 365.004 151.953 364.652C152.231 364.289 152.599 364.001 153.057 363.788C153.527 363.564 154.087 363.452 154.737 363.452C155.74 363.452 156.519 363.713 157.073 364.236C157.628 364.748 157.905 365.473 157.905 366.412V369.948C157.905 370.268 158.055 370.428 158.353 370.428H159.073V371.5H157.969C157.617 371.5 157.335 371.404 157.121 371.212C156.908 371.009 156.801 370.743 156.801 370.412V370.332H156.609C156.492 370.535 156.332 370.748 156.129 370.972C155.937 371.185 155.671 371.361 155.329 371.5C154.988 371.649 154.545 371.724 154.001 371.724ZM154.145 370.636C154.892 370.636 155.495 370.417 155.953 369.98C156.423 369.532 156.657 368.908 156.657 368.108V367.932H154.065C153.564 367.932 153.148 368.044 152.817 368.268C152.497 368.481 152.337 368.807 152.337 369.244C152.337 369.681 152.503 370.023 152.833 370.268C153.175 370.513 153.612 370.636 154.145 370.636ZM160.805 371.5V363.676H162.037V365.004H162.261C162.431 364.631 162.719 364.295 163.125 363.996C163.541 363.687 164.149 363.532 164.949 363.532C165.535 363.532 166.058 363.655 166.517 363.9C166.986 364.145 167.359 364.508 167.637 364.988C167.914 365.468 168.053 366.06 168.053 366.764V371.5H166.789V366.86C166.789 366.081 166.591 365.516 166.197 365.164C165.813 364.812 165.29 364.636 164.629 364.636C163.871 364.636 163.253 364.881 162.773 365.372C162.303 365.863 162.069 366.593 162.069 367.564V371.5H160.805ZM173.017 371.724C172.473 371.724 171.977 371.628 171.529 371.436C171.081 371.244 170.729 370.967 170.473 370.604C170.217 370.241 170.089 369.799 170.089 369.276C170.089 368.743 170.217 368.305 170.473 367.964C170.729 367.612 171.081 367.351 171.529 367.18C171.977 366.999 172.478 366.908 173.033 366.908H175.673V366.332C175.673 365.777 175.508 365.34 175.177 365.02C174.857 364.7 174.377 364.54 173.737 364.54C173.108 364.54 172.617 364.695 172.265 365.004C171.913 365.303 171.673 365.708 171.545 366.22L170.361 365.836C170.489 365.399 170.692 365.004 170.969 364.652C171.246 364.289 171.614 364.001 172.073 363.788C172.542 363.564 173.102 363.452 173.753 363.452C174.756 363.452 175.534 363.713 176.089 364.236C176.644 364.748 176.921 365.473 176.921 366.412V369.948C176.921 370.268 177.07 370.428 177.369 370.428H178.089V371.5H176.985C176.633 371.5 176.35 371.404 176.137 371.212C175.924 371.009 175.817 370.743 175.817 370.412V370.332H175.625C175.508 370.535 175.348 370.748 175.145 370.972C174.953 371.185 174.686 371.361 174.345 371.5C174.004 371.649 173.561 371.724 173.017 371.724ZM173.161 370.636C173.908 370.636 174.51 370.417 174.969 369.98C175.438 369.532 175.673 368.908 175.673 368.108V367.932H173.081C172.58 367.932 172.164 368.044 171.833 368.268C171.513 368.481 171.353 368.807 171.353 369.244C171.353 369.681 171.518 370.023 171.849 370.268C172.19 370.513 172.628 370.636 173.161 370.636ZM179.217 367.628V367.404C179.217 366.583 179.383 365.879 179.713 365.292C180.044 364.705 180.492 364.252 181.057 363.932C181.623 363.612 182.241 363.452 182.913 363.452C183.735 363.452 184.364 363.612 184.801 363.932C185.249 364.241 185.58 364.588 185.793 364.972H186.017V363.676H187.217V373.324C187.217 373.751 187.1 374.087 186.865 374.332C186.631 374.577 186.289 374.7 185.841 374.7H180.529V373.58H185.505C185.825 373.58 185.985 373.42 185.985 373.1V370.124H185.761C185.633 370.359 185.452 370.588 185.217 370.812C184.983 371.036 184.679 371.223 184.305 371.372C183.932 371.511 183.468 371.58 182.913 371.58C182.241 371.58 181.623 371.42 181.057 371.1C180.492 370.78 180.044 370.327 179.713 369.74C179.383 369.143 179.217 368.439 179.217 367.628ZM183.249 370.46C184.06 370.46 184.716 370.204 185.217 369.692C185.729 369.18 185.985 368.476 185.985 367.58V367.452C185.985 366.545 185.729 365.841 185.217 365.34C184.716 364.828 184.06 364.572 183.249 364.572C182.449 364.572 181.788 364.828 181.265 365.34C180.753 365.841 180.497 366.545 180.497 367.452V367.58C180.497 368.476 180.753 369.18 181.265 369.692C181.788 370.204 182.449 370.46 183.249 370.46ZM193.451 371.724C192.662 371.724 191.968 371.559 191.371 371.228C190.774 370.887 190.31 370.412 189.979 369.804C189.648 369.196 189.483 368.492 189.483 367.692V367.5C189.483 366.689 189.648 365.98 189.979 365.372C190.31 364.764 190.768 364.295 191.355 363.964C191.942 363.623 192.614 363.452 193.371 363.452C194.107 363.452 194.758 363.612 195.323 363.932C195.888 364.241 196.331 364.689 196.651 365.276C196.971 365.863 197.131 366.551 197.131 367.34V367.916H190.747C190.779 368.759 191.051 369.42 191.563 369.9C192.075 370.369 192.715 370.604 193.483 370.604C194.155 370.604 194.672 370.449 195.035 370.14C195.398 369.831 195.675 369.463 195.867 369.036L196.955 369.564C196.795 369.895 196.571 370.225 196.283 370.556C196.006 370.887 195.638 371.164 195.179 371.388C194.731 371.612 194.155 371.724 193.451 371.724ZM190.763 366.876H195.851C195.808 366.151 195.558 365.585 195.099 365.18C194.651 364.775 194.075 364.572 193.371 364.572C192.656 364.572 192.07 364.775 191.611 365.18C191.152 365.585 190.87 366.151 190.763 366.876ZM204.389 374.7V373.58H208.869C209.179 373.58 209.333 373.42 209.333 373.1V370.252H209.109C209.003 370.476 208.837 370.7 208.613 370.924C208.4 371.137 208.117 371.313 207.765 371.452C207.413 371.58 206.971 371.644 206.437 371.644C205.872 371.644 205.349 371.521 204.869 371.276C204.4 371.031 204.027 370.668 203.749 370.188C203.483 369.708 203.349 369.121 203.349 368.428V363.676H204.613V368.332C204.613 369.1 204.805 369.66 205.189 370.012C205.584 370.364 206.112 370.54 206.773 370.54C207.52 370.54 208.133 370.295 208.613 369.804C209.093 369.313 209.333 368.583 209.333 367.612V363.676H210.597V373.324C210.597 373.751 210.475 374.087 210.229 374.332C209.995 374.577 209.648 374.7 209.189 374.7H204.389ZM216.858 371.724C216.069 371.724 215.37 371.559 214.762 371.228C214.165 370.897 213.695 370.433 213.354 369.836C213.023 369.228 212.858 368.513 212.858 367.692V367.484C212.858 366.673 213.023 365.964 213.354 365.356C213.695 364.748 214.165 364.279 214.762 363.948C215.37 363.617 216.069 363.452 216.858 363.452C217.647 363.452 218.341 363.617 218.938 363.948C219.546 364.279 220.015 364.748 220.346 365.356C220.687 365.964 220.858 366.673 220.858 367.484V367.692C220.858 368.513 220.687 369.228 220.346 369.836C220.015 370.433 219.546 370.897 218.938 371.228C218.341 371.559 217.647 371.724 216.858 371.724ZM216.858 370.588C217.69 370.588 218.351 370.327 218.842 369.804C219.343 369.271 219.594 368.556 219.594 367.66V367.516C219.594 366.62 219.343 365.911 218.842 365.388C218.351 364.855 217.69 364.588 216.858 364.588C216.037 364.588 215.375 364.855 214.874 365.388C214.373 365.911 214.122 366.62 214.122 367.516V367.66C214.122 368.556 214.373 369.271 214.874 369.804C215.375 370.327 216.037 370.588 216.858 370.588ZM226.125 371.644C225.559 371.644 225.037 371.521 224.557 371.276C224.087 371.031 223.714 370.668 223.437 370.188C223.17 369.697 223.037 369.105 223.037 368.412V363.676H224.301V368.316C224.301 369.095 224.493 369.66 224.877 370.012C225.271 370.364 225.799 370.54 226.461 370.54C227.207 370.54 227.821 370.295 228.301 369.804C228.781 369.313 229.021 368.583 229.021 367.612V363.676H230.285V371.5H229.053V370.172H228.829C228.658 370.545 228.365 370.887 227.949 371.196C227.533 371.495 226.925 371.644 226.125 371.644ZM232.93 371.5V363.676H234.162V364.636H234.386C234.524 364.295 234.738 364.044 235.026 363.884C235.314 363.724 235.692 363.644 236.162 363.644H237.09V364.796H236.082C235.516 364.796 235.058 364.956 234.706 365.276C234.364 365.585 234.194 366.071 234.194 366.732V371.5H232.93ZM243.07 371.5V360.3H244.334V371.5H243.07ZM250.608 371.724C249.819 371.724 249.12 371.559 248.512 371.228C247.915 370.897 247.445 370.433 247.104 369.836C246.773 369.228 246.608 368.513 246.608 367.692V367.484C246.608 366.673 246.773 365.964 247.104 365.356C247.445 364.748 247.915 364.279 248.512 363.948C249.12 363.617 249.819 363.452 250.608 363.452C251.397 363.452 252.091 363.617 252.688 363.948C253.296 364.279 253.765 364.748 254.096 365.356C254.437 365.964 254.608 366.673 254.608 367.484V367.692C254.608 368.513 254.437 369.228 254.096 369.836C253.765 370.433 253.296 370.897 252.688 371.228C252.091 371.559 251.397 371.724 250.608 371.724ZM250.608 370.588C251.44 370.588 252.101 370.327 252.592 369.804C253.093 369.271 253.344 368.556 253.344 367.66V367.516C253.344 366.62 253.093 365.911 252.592 365.388C252.101 364.855 251.44 364.588 250.608 364.588C249.787 364.588 249.125 364.855 248.624 365.388C248.123 365.911 247.872 366.62 247.872 367.516V367.66C247.872 368.556 248.123 369.271 248.624 369.804C249.125 370.327 249.787 370.588 250.608 370.588ZM259.283 371.724C258.739 371.724 258.243 371.628 257.795 371.436C257.347 371.244 256.995 370.967 256.739 370.604C256.483 370.241 256.355 369.799 256.355 369.276C256.355 368.743 256.483 368.305 256.739 367.964C256.995 367.612 257.347 367.351 257.795 367.18C258.243 366.999 258.744 366.908 259.299 366.908H261.939V366.332C261.939 365.777 261.773 365.34 261.443 365.02C261.123 364.7 260.643 364.54 260.003 364.54C259.373 364.54 258.883 364.695 258.531 365.004C258.179 365.303 257.939 365.708 257.811 366.22L256.627 365.836C256.755 365.399 256.957 365.004 257.235 364.652C257.512 364.289 257.88 364.001 258.339 363.788C258.808 363.564 259.368 363.452 260.019 363.452C261.021 363.452 261.8 363.713 262.355 364.236C262.909 364.748 263.187 365.473 263.187 366.412V369.948C263.187 370.268 263.336 370.428 263.635 370.428H264.355V371.5H263.251C262.899 371.5 262.616 371.404 262.403 371.212C262.189 371.009 262.083 370.743 262.083 370.412V370.332H261.891C261.773 370.535 261.613 370.748 261.411 370.972C261.219 371.185 260.952 371.361 260.611 371.5C260.269 371.649 259.827 371.724 259.283 371.724ZM259.427 370.636C260.173 370.636 260.776 370.417 261.235 369.98C261.704 369.532 261.939 368.908 261.939 368.108V367.932H259.347C258.845 367.932 258.429 368.044 258.099 368.268C257.779 368.481 257.619 368.807 257.619 369.244C257.619 369.681 257.784 370.023 258.115 370.268C258.456 370.513 258.893 370.636 259.427 370.636ZM266.086 371.5V363.676H267.318V365.004H267.542C267.712 364.631 268 364.295 268.406 363.996C268.822 363.687 269.43 363.532 270.23 363.532C270.816 363.532 271.339 363.655 271.798 363.9C272.267 364.145 272.64 364.508 272.918 364.988C273.195 365.468 273.334 366.06 273.334 366.764V371.5H272.07V366.86C272.07 366.081 271.872 365.516 271.478 365.164C271.094 364.812 270.571 364.636 269.91 364.636C269.152 364.636 268.534 364.881 268.054 365.372C267.584 365.863 267.35 366.593 267.35 367.564V371.5H266.086Z" fill="#797979"/>
<path d="M28.3 497.5L30.892 489.1H32.668L35.26 497.5H34.216L33.568 495.376H29.992L29.344 497.5H28.3ZM30.244 494.464H33.304L31.864 489.712H31.696L30.244 494.464ZM36.5546 499.9V491.632H37.4786V492.604H37.6466C37.7986 492.308 38.0426 492.044 38.3786 491.812C38.7226 491.58 39.1986 491.464 39.8066 491.464C40.3106 491.464 40.7706 491.588 41.1866 491.836C41.6106 492.076 41.9466 492.42 42.1946 492.868C42.4506 493.316 42.5786 493.856 42.5786 494.488V494.644C42.5786 495.268 42.4546 495.808 42.2066 496.264C41.9586 496.72 41.6226 497.068 41.1986 497.308C40.7826 497.548 40.3186 497.668 39.8066 497.668C39.3986 497.668 39.0506 497.612 38.7626 497.5C38.4826 497.396 38.2546 497.26 38.0786 497.092C37.9026 496.924 37.7666 496.752 37.6706 496.576H37.5026V499.9H36.5546ZM39.5546 496.828C40.1626 496.828 40.6546 496.636 41.0306 496.252C41.4146 495.86 41.6066 495.316 41.6066 494.62V494.512C41.6066 493.816 41.4146 493.276 41.0306 492.892C40.6546 492.5 40.1626 492.304 39.5546 492.304C38.9546 492.304 38.4586 492.5 38.0666 492.892C37.6826 493.276 37.4906 493.816 37.4906 494.512V494.62C37.4906 495.316 37.6826 495.86 38.0666 496.252C38.4586 496.636 38.9546 496.828 39.5546 496.828ZM44.2773 499.9V491.632H45.2013V492.604H45.3693C45.5213 492.308 45.7653 492.044 46.1013 491.812C46.4453 491.58 46.9213 491.464 47.5293 491.464C48.0333 491.464 48.4933 491.588 48.9093 491.836C49.3333 492.076 49.6693 492.42 49.9173 492.868C50.1733 493.316 50.3013 493.856 50.3013 494.488V494.644C50.3013 495.268 50.1773 495.808 49.9293 496.264C49.6813 496.72 49.3453 497.068 48.9213 497.308C48.5053 497.548 48.0413 497.668 47.5293 497.668C47.1213 497.668 46.7733 497.612 46.4853 497.5C46.2053 497.396 45.9773 497.26 45.8013 497.092C45.6253 496.924 45.4893 496.752 45.3933 496.576H45.2253V499.9H44.2773ZM47.2773 496.828C47.8853 496.828 48.3773 496.636 48.7533 496.252C49.1373 495.86 49.3293 495.316 49.3293 494.62V494.512C49.3293 493.816 49.1373 493.276 48.7533 492.892C48.3773 492.5 47.8853 492.304 47.2773 492.304C46.6773 492.304 46.1813 492.5 45.7893 492.892C45.4053 493.276 45.2133 493.816 45.2133 494.512V494.62C45.2133 495.316 45.4053 495.86 45.7893 496.252C46.1813 496.636 46.6773 496.828 47.2773 496.828ZM51.9999 497.5V489.1H52.9479V497.5H51.9999ZM54.9413 497.5V491.632H55.8893V497.5H54.9413ZM55.4213 490.72C55.2133 490.72 55.0373 490.652 54.8933 490.516C54.7573 490.38 54.6893 490.208 54.6893 490C54.6893 489.784 54.7573 489.608 54.8933 489.472C55.0373 489.336 55.2133 489.268 55.4213 489.268C55.6293 489.268 55.8013 489.336 55.9373 489.472C56.0733 489.608 56.1413 489.784 56.1413 490C56.1413 490.208 56.0733 490.38 55.9373 490.516C55.8013 490.652 55.6293 490.72 55.4213 490.72ZM60.5827 497.668C60.0147 497.668 59.5027 497.548 59.0467 497.308C58.5987 497.06 58.2427 496.708 57.9787 496.252C57.7227 495.796 57.5947 495.256 57.5947 494.632V494.5C57.5947 493.868 57.7227 493.328 57.9787 492.88C58.2427 492.424 58.5987 492.076 59.0467 491.836C59.5027 491.588 60.0147 491.464 60.5827 491.464C61.1427 491.464 61.6187 491.568 62.0107 491.776C62.4107 491.984 62.7227 492.26 62.9467 492.604C63.1787 492.948 63.3267 493.316 63.3907 493.708L62.4667 493.9C62.4267 493.612 62.3307 493.348 62.1787 493.108C62.0347 492.868 61.8307 492.676 61.5667 492.532C61.3027 492.388 60.9787 492.316 60.5947 492.316C60.2027 492.316 59.8507 492.404 59.5387 492.58C59.2347 492.756 58.9907 493.008 58.8067 493.336C58.6307 493.664 58.5427 494.056 58.5427 494.512V494.62C58.5427 495.076 58.6307 495.468 58.8067 495.796C58.9907 496.124 59.2347 496.376 59.5387 496.552C59.8507 496.728 60.2027 496.816 60.5947 496.816C61.1787 496.816 61.6227 496.664 61.9267 496.36C62.2387 496.056 62.4307 495.68 62.5027 495.232L63.4387 495.436C63.3507 495.82 63.1907 496.184 62.9587 496.528C62.7267 496.872 62.4107 497.148 62.0107 497.356C61.6187 497.564 61.1427 497.668 60.5827 497.668ZM66.8546 497.668C66.4466 497.668 66.0746 497.596 65.7386 497.452C65.4026 497.308 65.1386 497.1 64.9466 496.828C64.7546 496.556 64.6586 496.224 64.6586 495.832C64.6586 495.432 64.7546 495.104 64.9466 494.848C65.1386 494.584 65.4026 494.388 65.7386 494.26C66.0746 494.124 66.4506 494.056 66.8666 494.056H68.8466V493.624C68.8466 493.208 68.7226 492.88 68.4746 492.64C68.2346 492.4 67.8746 492.28 67.3946 492.28C66.9226 492.28 66.5546 492.396 66.2906 492.628C66.0266 492.852 65.8466 493.156 65.7506 493.54L64.8626 493.252C64.9586 492.924 65.1106 492.628 65.3186 492.364C65.5266 492.092 65.8026 491.876 66.1466 491.716C66.4986 491.548 66.9186 491.464 67.4066 491.464C68.1586 491.464 68.7426 491.66 69.1586 492.052C69.5746 492.436 69.7826 492.98 69.7826 493.684V496.336C69.7826 496.576 69.8946 496.696 70.1186 496.696H70.6586V497.5H69.8306C69.5666 497.5 69.3546 497.428 69.1946 497.284C69.0346 497.132 68.9546 496.932 68.9546 496.684V496.624H68.8106C68.7226 496.776 68.6026 496.936 68.4506 497.104C68.3066 497.264 68.1066 497.396 67.8506 497.5C67.5946 497.612 67.2626 497.668 66.8546 497.668ZM66.9626 496.852C67.5226 496.852 67.9746 496.688 68.3186 496.36C68.6706 496.024 68.8466 495.556 68.8466 494.956V494.824H66.9026C66.5266 494.824 66.2146 494.908 65.9666 495.076C65.7266 495.236 65.6066 495.48 65.6066 495.808C65.6066 496.136 65.7306 496.392 65.9786 496.576C66.2346 496.76 66.5626 496.852 66.9626 496.852ZM73.7302 497.5C73.3942 497.5 73.1342 497.408 72.9502 497.224C72.7742 497.04 72.6862 496.788 72.6862 496.468V492.46H70.9222V491.632H72.6862V489.544H73.6342V491.632H75.5542V492.46H73.6342V496.324C73.6342 496.564 73.7502 496.684 73.9822 496.684H75.2902V497.5H73.7302ZM77.0898 497.5V491.632H78.0378V497.5H77.0898ZM77.5698 490.72C77.3618 490.72 77.1858 490.652 77.0418 490.516C76.9058 490.38 76.8378 490.208 76.8378 490C76.8378 489.784 76.9058 489.608 77.0418 489.472C77.1858 489.336 77.3618 489.268 77.5698 489.268C77.7778 489.268 77.9498 489.336 78.0858 489.472C78.2218 489.608 78.2898 489.784 78.2898 490C78.2898 490.208 78.2218 490.38 78.0858 490.516C77.9498 490.652 77.7778 490.72 77.5698 490.72ZM82.7432 497.668C82.1512 497.668 81.6272 497.544 81.1712 497.296C80.7232 497.048 80.3712 496.7 80.1152 496.252C79.8672 495.796 79.7432 495.26 79.7432 494.644V494.488C79.7432 493.88 79.8672 493.348 80.1152 492.892C80.3712 492.436 80.7232 492.084 81.1712 491.836C81.6272 491.588 82.1512 491.464 82.7432 491.464C83.3352 491.464 83.8552 491.588 84.3032 491.836C84.7592 492.084 85.1112 492.436 85.3592 492.892C85.6152 493.348 85.7432 493.88 85.7432 494.488V494.644C85.7432 495.26 85.6152 495.796 85.3592 496.252C85.1112 496.7 84.7592 497.048 84.3032 497.296C83.8552 497.544 83.3352 497.668 82.7432 497.668ZM82.7432 496.816C83.3672 496.816 83.8632 496.62 84.2312 496.228C84.6072 495.828 84.7952 495.292 84.7952 494.62V494.512C84.7952 493.84 84.6072 493.308 84.2312 492.916C83.8632 492.516 83.3672 492.316 82.7432 492.316C82.1272 492.316 81.6312 492.516 81.2552 492.916C80.8792 493.308 80.6912 493.84 80.6912 494.512V494.62C80.6912 495.292 80.8792 495.828 81.2552 496.228C81.6312 496.62 82.1272 496.816 82.7432 496.816ZM87.4491 497.5V491.632H88.3731V492.628H88.5411C88.6691 492.348 88.8851 492.096 89.1891 491.872C89.5011 491.64 89.9571 491.524 90.5571 491.524C90.9971 491.524 91.3891 491.616 91.7331 491.8C92.0851 491.984 92.3651 492.256 92.5731 492.616C92.7811 492.976 92.8851 493.42 92.8851 493.948V497.5H91.9371V494.02C91.9371 493.436 91.7891 493.012 91.4931 492.748C91.2051 492.484 90.8131 492.352 90.3171 492.352C89.7491 492.352 89.2851 492.536 88.9251 492.904C88.5731 493.272 88.3971 493.82 88.3971 494.548V497.5H87.4491ZM97.8545 497.5V489.1H99.8105L102.739 496.864H102.895V489.1H103.891V497.5H101.935L99.0185 489.724H98.8505V497.5H97.8545ZM108.103 497.608C107.679 497.608 107.287 497.516 106.927 497.332C106.575 497.148 106.295 496.876 106.087 496.516C105.887 496.148 105.787 495.704 105.787 495.184V491.632H106.735V495.112C106.735 495.696 106.879 496.12 107.167 496.384C107.463 496.648 107.859 496.78 108.355 496.78C108.915 496.78 109.375 496.596 109.735 496.228C110.095 495.86 110.275 495.312 110.275 494.584V491.632H111.223V497.5H110.299V496.504H110.131C110.003 496.784 109.783 497.04 109.471 497.272C109.159 497.496 108.703 497.608 108.103 497.608ZM113.207 497.5V491.632H114.131V492.364H114.299C114.411 492.156 114.595 491.964 114.851 491.788C115.107 491.612 115.467 491.524 115.931 491.524C116.387 491.524 116.755 491.624 117.035 491.824C117.323 492.024 117.531 492.268 117.659 492.556H117.827C117.963 492.268 118.167 492.024 118.439 491.824C118.719 491.624 119.107 491.524 119.603 491.524C119.995 491.524 120.339 491.604 120.635 491.764C120.931 491.924 121.163 492.156 121.331 492.46C121.507 492.756 121.595 493.112 121.595 493.528V497.5H120.647V493.612C120.647 493.22 120.531 492.912 120.299 492.688C120.075 492.456 119.759 492.34 119.351 492.34C118.919 492.34 118.563 492.48 118.283 492.76C118.011 493.04 117.875 493.444 117.875 493.972V497.5H116.927V493.612C116.927 493.22 116.811 492.912 116.579 492.688C116.355 492.456 116.039 492.34 115.631 492.34C115.199 492.34 114.843 492.48 114.563 492.76C114.291 493.04 114.155 493.444 114.155 493.972V497.5H113.207ZM126.783 497.668C126.175 497.668 125.699 497.552 125.355 497.32C125.019 497.088 124.775 496.824 124.623 496.528H124.455V497.5H123.531V489.1H124.479V492.556H124.647C124.743 492.372 124.879 492.2 125.055 492.04C125.231 491.872 125.459 491.736 125.739 491.632C126.027 491.52 126.375 491.464 126.783 491.464C127.295 491.464 127.759 491.588 128.175 491.836C128.599 492.076 128.935 492.424 129.183 492.88C129.431 493.328 129.555 493.864 129.555 494.488V494.644C129.555 495.268 129.427 495.808 129.171 496.264C128.923 496.72 128.587 497.068 128.163 497.308C127.747 497.548 127.287 497.668 126.783 497.668ZM126.531 496.828C127.139 496.828 127.631 496.636 128.007 496.252C128.391 495.86 128.583 495.316 128.583 494.62V494.512C128.583 493.816 128.391 493.276 128.007 492.892C127.631 492.5 127.139 492.304 126.531 492.304C125.931 492.304 125.435 492.5 125.043 492.892C124.659 493.276 124.467 493.816 124.467 494.512V494.62C124.467 495.316 124.659 495.86 125.043 496.252C125.435 496.636 125.931 496.828 126.531 496.828ZM133.942 497.668C133.35 497.668 132.83 497.544 132.382 497.296C131.934 497.04 131.586 496.684 131.338 496.228C131.09 495.772 130.966 495.244 130.966 494.644V494.5C130.966 493.892 131.09 493.36 131.338 492.904C131.586 492.448 131.93 492.096 132.37 491.848C132.81 491.592 133.314 491.464 133.882 491.464C134.434 491.464 134.922 491.584 135.346 491.824C135.77 492.056 136.102 492.392 136.342 492.832C136.582 493.272 136.702 493.788 136.702 494.38V494.812H131.914C131.938 495.444 132.142 495.94 132.526 496.3C132.91 496.652 133.39 496.828 133.966 496.828C134.47 496.828 134.858 496.712 135.13 496.48C135.402 496.248 135.61 495.972 135.754 495.652L136.57 496.048C136.45 496.296 136.282 496.544 136.066 496.792C135.858 497.04 135.582 497.248 135.238 497.416C134.902 497.584 134.47 497.668 133.942 497.668ZM131.926 494.032H135.742C135.71 493.488 135.522 493.064 135.178 492.76C134.842 492.456 134.41 492.304 133.882 492.304C133.346 492.304 132.906 492.456 132.562 492.76C132.218 493.064 132.006 493.488 131.926 494.032ZM138.355 497.5V491.632H139.279V492.352H139.447C139.551 492.096 139.711 491.908 139.927 491.788C140.143 491.668 140.427 491.608 140.779 491.608H141.475V492.472H140.719C140.295 492.472 139.951 492.592 139.687 492.832C139.431 493.064 139.303 493.428 139.303 493.924V497.5H138.355Z" fill="#797979"/>
<path d="M32.732 519.696C31.5 519.696 30.52 519.36 29.792 518.688C29.064 518.007 28.7 517.036 28.7 515.776V513.424C28.7 512.164 29.064 511.198 29.792 510.526C30.52 509.845 31.5 509.504 32.732 509.504C33.964 509.504 34.944 509.845 35.672 510.526C36.4 511.198 36.764 512.164 36.764 513.424V515.776C36.764 517.036 36.4 518.007 35.672 518.688C34.944 519.36 33.964 519.696 32.732 519.696ZM32.732 518.044C33.4227 518.044 33.9593 517.843 34.342 517.442C34.7247 517.041 34.916 516.504 34.916 515.832V513.368C34.916 512.696 34.7247 512.159 34.342 511.758C33.9593 511.357 33.4227 511.156 32.732 511.156C32.0507 511.156 31.514 511.357 31.122 511.758C30.7393 512.159 30.548 512.696 30.548 513.368V515.832C30.548 516.504 30.7393 517.041 31.122 517.442C31.514 517.843 32.0507 518.044 32.732 518.044ZM33.376 522.02C32.9187 522.02 32.5453 521.875 32.256 521.586C31.976 521.306 31.836 520.928 31.836 520.452V519.5H33.628V520.172C33.628 520.452 33.7587 520.592 34.02 520.592H34.846V522.02H33.376ZM38.3849 519.5V509.7H44.6849V511.38H40.2329V513.718H44.2929V515.398H40.2329V517.82H44.7689V519.5H38.3849ZM45.8569 519.5V517.876H47.1449V511.324H45.8569V509.7H49.8889C51.2049 509.7 52.2036 510.036 52.8849 510.708C53.5756 511.371 53.9209 512.36 53.9209 513.676V515.524C53.9209 516.84 53.5756 517.834 52.8849 518.506C52.2036 519.169 51.2049 519.5 49.8889 519.5H45.8569ZM48.9929 517.82H49.9169C50.6636 517.82 51.2096 517.624 51.5549 517.232C51.9002 516.84 52.0729 516.289 52.0729 515.58V513.62C52.0729 512.901 51.9002 512.351 51.5549 511.968C51.2096 511.576 50.6636 511.38 49.9169 511.38H48.9929V517.82ZM58.1491 519.5V511.016H57.8971L56.5811 514.124H54.7051L56.7071 509.7H59.9411V519.5H58.1491ZM61.4552 519.5V518.324C61.4552 517.643 61.5672 517.078 61.7912 516.63C62.0152 516.173 62.3372 515.799 62.7572 515.51C63.1865 515.211 63.7092 514.969 64.3252 514.782L65.2632 514.488C65.6085 514.376 65.8979 514.241 66.1312 514.082C66.3645 513.914 66.5419 513.713 66.6632 513.48C66.7939 513.247 66.8592 512.981 66.8592 512.682V512.626C66.8592 512.159 66.7005 511.791 66.3832 511.52C66.0659 511.24 65.6319 511.1 65.0812 511.1C64.5399 511.1 64.1012 511.249 63.7652 511.548C63.4385 511.837 63.2752 512.257 63.2752 512.808V513.06H61.4832V512.836C61.4832 512.127 61.6419 511.525 61.9592 511.03C62.2765 510.535 62.7059 510.157 63.2472 509.896C63.7979 509.635 64.4092 509.504 65.0812 509.504C65.7532 509.504 66.3599 509.635 66.9012 509.896C67.4425 510.148 67.8672 510.507 68.1752 510.974C68.4925 511.431 68.6512 511.973 68.6512 512.598V512.738C68.6512 513.363 68.5205 513.895 68.2592 514.334C68.0072 514.763 67.6619 515.118 67.2232 515.398C66.7845 515.669 66.2852 515.893 65.7252 516.07L64.8292 516.35C64.4279 516.471 64.1152 516.607 63.8912 516.756C63.6672 516.896 63.5085 517.055 63.4152 517.232C63.3312 517.4 63.2892 517.605 63.2892 517.848V517.904H68.5672V519.5H61.4552ZM73.4357 519.696C72.6984 519.696 72.045 519.565 71.4757 519.304C70.9064 519.043 70.4584 518.669 70.1317 518.184C69.8144 517.689 69.6557 517.106 69.6557 516.434V516.182H71.4477V516.378C71.4477 516.901 71.6297 517.321 71.9937 517.638C72.3577 517.946 72.8384 518.1 73.4357 518.1C74.0424 518.1 74.509 517.955 74.8357 517.666C75.1717 517.377 75.3397 517.013 75.3397 516.574V516.434C75.3397 516.135 75.265 515.893 75.1157 515.706C74.9664 515.519 74.7657 515.384 74.5137 515.3C74.2617 515.207 73.977 515.16 73.6597 515.16H71.6997V513.2L74.8637 511.52V511.296H69.9077V509.7H76.8517V512.08L73.8977 513.648V513.872H74.4157C74.8544 513.872 75.279 513.961 75.6897 514.138C76.1097 514.315 76.455 514.591 76.7257 514.964C76.9964 515.328 77.1317 515.804 77.1317 516.392V516.56C77.1317 517.195 76.9777 517.75 76.6697 518.226C76.3617 518.693 75.9277 519.057 75.3677 519.318C74.817 519.57 74.173 519.696 73.4357 519.696ZM82.8773 519.5V517.512H78.0613V515.44L81.4493 509.7H84.6693V515.916H86.2933V517.512H84.6693V519.5H82.8773ZM79.7693 515.916H82.8773V510.848H82.6253L79.7693 515.692V515.916ZM90.8397 519.696C90.0743 519.696 89.4117 519.561 88.8517 519.29C88.301 519.019 87.8763 518.637 87.5777 518.142C87.279 517.647 87.1297 517.073 87.1297 516.42V516.28H88.9497V516.406C88.9497 516.873 89.1037 517.274 89.4117 517.61C89.729 517.937 90.1957 518.1 90.8117 518.1C91.4277 518.1 91.899 517.937 92.2257 517.61C92.5617 517.274 92.7297 516.84 92.7297 516.308V516.168C92.7297 515.645 92.5617 515.23 92.2257 514.922C91.899 514.614 91.4883 514.46 90.9937 514.46C90.723 514.46 90.499 514.497 90.3217 514.572C90.1443 514.647 89.9997 514.74 89.8877 514.852C89.7757 514.964 89.6823 515.076 89.6077 515.188H87.4377V509.7H94.1297V511.324H89.2297V513.718H89.4817C89.575 513.597 89.701 513.48 89.8597 513.368C90.0183 513.256 90.2237 513.163 90.4757 513.088C90.7277 513.013 91.0263 512.976 91.3717 512.976C91.9503 512.976 92.4777 513.097 92.9537 513.34C93.4297 513.583 93.8077 513.942 94.0877 514.418C94.377 514.885 94.5217 515.463 94.5217 516.154V516.322C94.5217 517.013 94.3723 517.61 94.0737 518.114C93.7843 518.618 93.3643 519.01 92.8137 519.29C92.263 519.561 91.605 519.696 90.8397 519.696ZM99.3602 519.696C98.6135 519.696 97.9649 519.556 97.4142 519.276C96.8635 518.996 96.4389 518.609 96.1402 518.114C95.8415 517.619 95.6922 517.05 95.6922 516.406V513.06C95.6922 512.267 95.8509 511.609 96.1682 511.086C96.4949 510.554 96.9382 510.157 97.4982 509.896C98.0675 509.635 98.7162 509.504 99.4442 509.504C100.172 509.504 100.802 509.625 101.334 509.868C101.876 510.111 102.291 510.461 102.58 510.918C102.879 511.375 103.028 511.921 103.028 512.556H101.208C101.208 512.164 101.073 511.823 100.802 511.534C100.532 511.245 100.079 511.1 99.4442 511.1C98.8189 511.1 98.3335 511.263 97.9882 511.59C97.6522 511.917 97.4842 512.369 97.4842 512.948V513.956H97.7362C97.8949 513.769 98.1375 513.592 98.4642 513.424C98.7909 513.256 99.2669 513.172 99.8922 513.172C100.462 513.172 100.984 513.293 101.46 513.536C101.946 513.779 102.338 514.133 102.636 514.6C102.935 515.057 103.084 515.613 103.084 516.266V516.434C103.084 517.078 102.93 517.647 102.622 518.142C102.314 518.627 101.88 519.01 101.32 519.29C100.76 519.561 100.107 519.696 99.3602 519.696ZM99.3882 518.1C99.9762 518.1 100.438 517.946 100.774 517.638C101.12 517.33 101.292 516.919 101.292 516.406V516.294C101.292 515.949 101.213 515.65 101.054 515.398C100.905 515.146 100.686 514.95 100.396 514.81C100.116 514.67 99.7802 514.6 99.3882 514.6C99.0055 514.6 98.6695 514.67 98.3802 514.81C98.0909 514.95 97.8669 515.146 97.7082 515.398C97.5589 515.65 97.4842 515.949 97.4842 516.294V516.406C97.4842 516.919 97.6522 517.33 97.9882 517.638C98.3335 517.946 98.8002 518.1 99.3882 518.1ZM105.262 519.5V519.136C105.262 518.772 105.29 518.464 105.346 518.212C105.402 517.951 105.523 517.657 105.71 517.33L109 511.52V511.296H103.792V509.7H110.848V511.828L107.376 518.03C107.254 518.245 107.17 518.436 107.124 518.604C107.077 518.772 107.054 518.977 107.054 519.22V519.5H105.262ZM115.38 519.696C114.633 519.696 113.97 519.584 113.392 519.36C112.822 519.136 112.374 518.814 112.048 518.394C111.73 517.965 111.572 517.461 111.572 516.882V516.714C111.572 516.266 111.651 515.897 111.81 515.608C111.968 515.309 112.164 515.076 112.398 514.908C112.64 514.74 112.869 514.623 113.084 514.558V514.306C112.869 514.231 112.654 514.11 112.44 513.942C112.225 513.774 112.048 513.55 111.908 513.27C111.777 512.99 111.712 512.654 111.712 512.262V512.094C111.712 511.581 111.861 511.133 112.16 510.75C112.468 510.358 112.897 510.055 113.448 509.84C113.998 509.616 114.642 509.504 115.38 509.504C116.117 509.504 116.761 509.616 117.312 509.84C117.862 510.055 118.287 510.358 118.586 510.75C118.894 511.133 119.048 511.581 119.048 512.094V512.262C119.048 512.654 118.978 512.99 118.838 513.27C118.707 513.55 118.534 513.774 118.32 513.942C118.114 514.11 117.9 514.231 117.676 514.306V514.558C117.9 514.623 118.128 514.74 118.362 514.908C118.595 515.076 118.791 515.309 118.95 515.608C119.108 515.897 119.188 516.266 119.188 516.714V516.882C119.188 517.461 119.024 517.965 118.698 518.394C118.38 518.814 117.932 519.136 117.354 519.36C116.784 519.584 116.126 519.696 115.38 519.696ZM115.38 518.1C116.024 518.1 116.518 517.979 116.864 517.736C117.218 517.484 117.396 517.153 117.396 516.742V516.63C117.396 516.219 117.223 515.893 116.878 515.65C116.542 515.398 116.042 515.272 115.38 515.272C114.726 515.272 114.227 515.398 113.882 515.65C113.536 515.893 113.364 516.219 113.364 516.63V516.742C113.364 517.153 113.536 517.484 113.882 517.736C114.236 517.979 114.736 518.1 115.38 518.1ZM115.38 513.676C115.977 513.676 116.439 513.569 116.766 513.354C117.092 513.139 117.256 512.836 117.256 512.444V512.332C117.256 511.94 117.088 511.637 116.752 511.422C116.416 511.207 115.958 511.1 115.38 511.1C114.801 511.1 114.344 511.207 114.008 511.422C113.672 511.637 113.504 511.94 113.504 512.332V512.444C113.504 512.836 113.667 513.139 113.994 513.354C114.32 513.569 114.782 513.676 115.38 513.676ZM123.774 519.696C123.046 519.696 122.412 519.575 121.87 519.332C121.338 519.089 120.923 518.739 120.624 518.282C120.335 517.825 120.19 517.279 120.19 516.644H122.01C122.01 517.036 122.146 517.377 122.416 517.666C122.696 517.955 123.149 518.1 123.774 518.1C124.409 518.1 124.894 517.937 125.23 517.61C125.566 517.274 125.734 516.821 125.734 516.252V515.244H125.482C125.324 515.431 125.081 515.608 124.754 515.776C124.437 515.944 123.961 516.028 123.326 516.028C122.766 516.028 122.244 515.907 121.758 515.664C121.273 515.421 120.881 515.071 120.582 514.614C120.284 514.147 120.134 513.587 120.134 512.934V512.766C120.134 512.113 120.288 511.543 120.596 511.058C120.904 510.573 121.338 510.195 121.898 509.924C122.458 509.644 123.112 509.504 123.858 509.504C124.605 509.504 125.254 509.644 125.804 509.924C126.355 510.204 126.78 510.591 127.078 511.086C127.377 511.581 127.526 512.15 127.526 512.794V516.14C127.526 516.933 127.363 517.596 127.036 518.128C126.719 518.651 126.276 519.043 125.706 519.304C125.146 519.565 124.502 519.696 123.774 519.696ZM123.83 514.6C124.222 514.6 124.558 514.53 124.838 514.39C125.128 514.25 125.347 514.054 125.496 513.802C125.655 513.55 125.734 513.251 125.734 512.906V512.794C125.734 512.271 125.562 511.861 125.216 511.562C124.88 511.254 124.418 511.1 123.83 511.1C123.242 511.1 122.776 511.254 122.43 511.562C122.094 511.861 121.926 512.271 121.926 512.794V512.906C121.926 513.251 122.001 513.55 122.15 513.802C122.309 514.054 122.533 514.25 122.822 514.39C123.112 514.53 123.448 514.6 123.83 514.6ZM132.765 519.696C131.607 519.696 130.679 519.379 129.979 518.744C129.279 518.1 128.929 517.129 128.929 515.832V513.368C128.929 512.108 129.279 511.151 129.979 510.498C130.679 509.835 131.607 509.504 132.765 509.504C133.931 509.504 134.86 509.835 135.551 510.498C136.251 511.151 136.601 512.108 136.601 513.368V515.832C136.601 517.129 136.251 518.1 135.551 518.744C134.86 519.379 133.931 519.696 132.765 519.696ZM132.765 518.1C133.465 518.1 133.978 517.909 134.305 517.526C134.641 517.143 134.809 516.597 134.809 515.888V513.284C134.809 512.565 134.622 512.024 134.249 511.66C133.885 511.287 133.39 511.1 132.765 511.1C132.121 511.1 131.617 511.291 131.253 511.674C130.898 512.057 130.721 512.593 130.721 513.284V515.888C130.721 516.625 130.889 517.181 131.225 517.554C131.57 517.918 132.083 518.1 132.765 518.1ZM137.615 519.5L140.485 514.558L137.643 509.7H139.743L141.689 513.242H141.941L143.887 509.7H145.987L143.145 514.558L146.015 519.5H143.915L141.941 515.874H141.689L139.715 519.5H137.615ZM147.24 519.5V509.7H150.67L152.364 518.24H152.616L154.31 509.7H157.74V519.5H155.948V511.058H155.696L154.016 519.5H150.964L149.284 511.058H149.032V519.5H147.24ZM159.306 519.5V517.876H160.594V511.324H159.306V509.7H163.338C164.654 509.7 165.653 510.036 166.334 510.708C167.025 511.371 167.37 512.36 167.37 513.676V515.524C167.37 516.84 167.025 517.834 166.334 518.506C165.653 519.169 164.654 519.5 163.338 519.5H159.306ZM162.442 517.82H163.366C164.113 517.82 164.659 517.624 165.004 517.232C165.349 516.84 165.522 516.289 165.522 515.58V513.62C165.522 512.901 165.349 512.351 165.004 511.968C164.659 511.576 164.113 511.38 163.366 511.38H162.442V517.82Z" fill="#1D1D1F"/>
<path opacity="0.4" fill-rule="evenodd" clip-rule="evenodd" d="M349.809 490.61C349.92 490.61 350.01 490.52 350.005 490.41C349.916 488.491 348.555 487 346.559 487H341.369C339.299 487 337.919 488.45 337.919 490.6V497.29C337.919 499.333 339.292 500.794 341.289 500.885C341.4 500.891 341.489 500.801 341.489 500.69V495.71C341.489 492.76 343.569 490.61 346.439 490.61H349.809Z" fill="#00B76A"/>
<path fill-rule="evenodd" clip-rule="evenodd" d="M351.635 492.113H346.44C344.379 492.113 342.994 493.558 342.994 495.709V502.404C342.994 504.554 344.379 506 346.44 506H351.634C353.696 506 355.081 504.554 355.081 502.404V495.709C355.081 493.558 353.696 492.113 351.635 492.113Z" fill="#00B76A"/>
<path d="M334.996 524.668C333.996 524.668 333.2 524.38 332.608 523.804C332.016 523.22 331.72 522.372 331.72 521.26V519.34C331.72 518.228 332.016 517.384 332.608 516.808C333.2 516.224 333.996 515.932 334.996 515.932C335.988 515.932 336.748 516.208 337.276 516.76C337.812 517.312 338.08 518.068 338.08 519.028V519.088H337.084V518.992C337.084 518.36 336.912 517.844 336.568 517.444C336.232 517.036 335.708 516.832 334.996 516.832C334.284 516.832 333.728 517.052 333.328 517.492C332.928 517.924 332.728 518.532 332.728 519.316V521.284C332.728 522.068 332.928 522.68 333.328 523.12C333.728 523.552 334.284 523.768 334.996 523.768C335.708 523.768 336.232 523.568 336.568 523.168C336.912 522.76 337.084 522.24 337.084 521.608V521.416H338.08V521.572C338.08 522.532 337.812 523.288 337.276 523.84C336.748 524.392 335.988 524.668 334.996 524.668ZM342.407 524.668C341.815 524.668 341.291 524.544 340.835 524.296C340.387 524.048 340.035 523.7 339.779 523.252C339.531 522.796 339.407 522.26 339.407 521.644V521.488C339.407 520.88 339.531 520.348 339.779 519.892C340.035 519.436 340.387 519.084 340.835 518.836C341.291 518.588 341.815 518.464 342.407 518.464C342.999 518.464 343.519 518.588 343.967 518.836C344.423 519.084 344.775 519.436 345.023 519.892C345.279 520.348 345.407 520.88 345.407 521.488V521.644C345.407 522.26 345.279 522.796 345.023 523.252C344.775 523.7 344.423 524.048 343.967 524.296C343.519 524.544 342.999 524.668 342.407 524.668ZM342.407 523.816C343.031 523.816 343.527 523.62 343.895 523.228C344.271 522.828 344.459 522.292 344.459 521.62V521.512C344.459 520.84 344.271 520.308 343.895 519.916C343.527 519.516 343.031 519.316 342.407 519.316C341.791 519.316 341.295 519.516 340.919 519.916C340.543 520.308 340.355 520.84 340.355 521.512V521.62C340.355 522.292 340.543 522.828 340.919 523.228C341.295 523.62 341.791 523.816 342.407 523.816ZM347.113 526.9V518.632H348.037V519.604H348.205C348.357 519.308 348.601 519.044 348.937 518.812C349.281 518.58 349.757 518.464 350.365 518.464C350.869 518.464 351.329 518.588 351.745 518.836C352.169 519.076 352.505 519.42 352.753 519.868C353.009 520.316 353.137 520.856 353.137 521.488V521.644C353.137 522.268 353.013 522.808 352.765 523.264C352.517 523.72 352.181 524.068 351.757 524.308C351.341 524.548 350.877 524.668 350.365 524.668C349.957 524.668 349.609 524.612 349.321 524.5C349.041 524.396 348.813 524.26 348.637 524.092C348.461 523.924 348.325 523.752 348.229 523.576H348.061V526.9H347.113ZM350.113 523.828C350.721 523.828 351.213 523.636 351.589 523.252C351.973 522.86 352.165 522.316 352.165 521.62V521.512C352.165 520.816 351.973 520.276 351.589 519.892C351.213 519.5 350.721 519.304 350.113 519.304C349.513 519.304 349.017 519.5 348.625 519.892C348.241 520.276 348.049 520.816 348.049 521.512V521.62C348.049 522.316 348.241 522.86 348.625 523.252C349.017 523.636 349.513 523.828 350.113 523.828ZM355.544 526.9V526.06H358.904C359.136 526.06 359.252 525.94 359.252 525.7V523.564H359.084C359.004 523.732 358.88 523.9 358.712 524.068C358.552 524.228 358.34 524.36 358.076 524.464C357.812 524.56 357.48 524.608 357.08 524.608C356.656 524.608 356.264 524.516 355.904 524.332C355.552 524.148 355.272 523.876 355.064 523.516C354.864 523.156 354.764 522.716 354.764 522.196V518.632H355.712V522.124C355.712 522.7 355.856 523.12 356.144 523.384C356.44 523.648 356.836 523.78 357.332 523.78C357.892 523.78 358.352 523.596 358.712 523.228C359.072 522.86 359.252 522.312 359.252 521.584V518.632H360.2V525.868C360.2 526.188 360.108 526.44 359.924 526.624C359.748 526.808 359.488 526.9 359.144 526.9H355.544Z" fill="#00B76A"/>
</svg>
