<svg width="342" height="490" viewBox="0 0 342 490" fill="none" xmlns="http://www.w3.org/2000/svg">
<rect x="0.5" y="0.5" width="341" height="489" rx="23.5" fill="white"/>
<rect x="0.5" y="0.5" width="341" height="489" rx="23.5" stroke="#E6E6E6"/>
<g filter="url(#filter0_d_1177_4419)">
<rect x="8" y="8" width="326" height="95" rx="16" fill="#FAFAFA" shape-rendering="crispEdges"/>
<path d="M35.756 48.168C35.148 48.168 34.604 48.06 34.124 47.844C33.644 47.628 33.264 47.304 32.984 46.872C32.712 46.432 32.576 45.884 32.576 45.228V44.976H33.572V45.228C33.572 45.924 33.776 46.444 34.184 46.788C34.592 47.124 35.116 47.292 35.756 47.292C36.412 47.292 36.912 47.144 37.256 46.848C37.6 46.552 37.772 46.18 37.772 45.732C37.772 45.42 37.692 45.172 37.532 44.988C37.38 44.804 37.164 44.656 36.884 44.544C36.604 44.424 36.276 44.32 35.9 44.232L35.276 44.076C34.788 43.948 34.356 43.792 33.98 43.608C33.604 43.424 33.308 43.184 33.092 42.888C32.884 42.584 32.78 42.196 32.78 41.724C32.78 41.252 32.896 40.844 33.128 40.5C33.368 40.156 33.7 39.892 34.124 39.708C34.556 39.524 35.052 39.432 35.612 39.432C36.18 39.432 36.688 39.532 37.136 39.732C37.592 39.924 37.948 40.212 38.204 40.596C38.468 40.972 38.6 41.448 38.6 42.024V42.528H37.604V42.024C37.604 41.616 37.516 41.288 37.34 41.04C37.172 40.792 36.936 40.608 36.632 40.488C36.336 40.368 35.996 40.308 35.612 40.308C35.06 40.308 34.616 40.432 34.28 40.68C33.944 40.92 33.776 41.264 33.776 41.712C33.776 42.008 33.848 42.248 33.992 42.432C34.136 42.616 34.34 42.768 34.604 42.888C34.868 43 35.184 43.1 35.552 43.188L36.176 43.344C36.664 43.448 37.1 43.592 37.484 43.776C37.876 43.952 38.188 44.196 38.42 44.508C38.652 44.812 38.768 45.212 38.768 45.708C38.768 46.204 38.644 46.636 38.396 47.004C38.148 47.372 37.796 47.66 37.34 47.868C36.892 48.068 36.364 48.168 35.756 48.168ZM42.5154 48C42.1794 48 41.9194 47.908 41.7354 47.724C41.5594 47.54 41.4714 47.288 41.4714 46.968V42.96H39.7074V42.132H41.4714V40.044H42.4194V42.132H44.3394V42.96H42.4194V46.824C42.4194 47.064 42.5354 47.184 42.7674 47.184H44.0754V48H42.5154ZM48.352 48.168C47.76 48.168 47.24 48.044 46.792 47.796C46.344 47.54 45.996 47.184 45.748 46.728C45.5 46.272 45.376 45.744 45.376 45.144V45C45.376 44.392 45.5 43.86 45.748 43.404C45.996 42.948 46.34 42.596 46.78 42.348C47.22 42.092 47.724 41.964 48.292 41.964C48.844 41.964 49.332 42.084 49.756 42.324C50.18 42.556 50.512 42.892 50.752 43.332C50.992 43.772 51.112 44.288 51.112 44.88V45.312H46.324C46.348 45.944 46.552 46.44 46.936 46.8C47.32 47.152 47.8 47.328 48.376 47.328C48.88 47.328 49.268 47.212 49.54 46.98C49.812 46.748 50.02 46.472 50.164 46.152L50.98 46.548C50.86 46.796 50.692 47.044 50.476 47.292C50.268 47.54 49.992 47.748 49.648 47.916C49.312 48.084 48.88 48.168 48.352 48.168ZM46.336 44.532H50.152C50.12 43.988 49.932 43.564 49.588 43.26C49.252 42.956 48.82 42.804 48.292 42.804C47.756 42.804 47.316 42.956 46.972 43.26C46.628 43.564 46.416 43.988 46.336 44.532ZM52.7655 50.4V42.132H53.6895V43.104H53.8575C54.0095 42.808 54.2535 42.544 54.5895 42.312C54.9335 42.08 55.4095 41.964 56.0175 41.964C56.5215 41.964 56.9815 42.088 57.3975 42.336C57.8215 42.576 58.1575 42.92 58.4055 43.368C58.6615 43.816 58.7895 44.356 58.7895 44.988V45.144C58.7895 45.768 58.6655 46.308 58.4175 46.764C58.1695 47.22 57.8335 47.568 57.4095 47.808C56.9935 48.048 56.5295 48.168 56.0175 48.168C55.6095 48.168 55.2615 48.112 54.9735 48C54.6935 47.896 54.4655 47.76 54.2895 47.592C54.1135 47.424 53.9775 47.252 53.8815 47.076H53.7135V50.4H52.7655ZM55.7655 47.328C56.3735 47.328 56.8655 47.136 57.2415 46.752C57.6255 46.36 57.8175 45.816 57.8175 45.12V45.012C57.8175 44.316 57.6255 43.776 57.2415 43.392C56.8655 43 56.3735 42.804 55.7655 42.804C55.1655 42.804 54.6695 43 54.2775 43.392C53.8935 43.776 53.7015 44.316 53.7015 45.012V45.12C53.7015 45.816 53.8935 46.36 54.2775 46.752C54.6695 47.136 55.1655 47.328 55.7655 47.328ZM65.6582 48V40.248H65.4782L63.8462 43.236H62.7902L64.7942 39.6H66.6302V48H65.6582Z" fill="#00B76A"/>
<path d="M36.635 71.21C35.825 71.21 35.11 71.065 34.49 70.775C33.87 70.485 33.385 70.07 33.035 69.53C32.685 68.99 32.51 68.34 32.51 67.58V67.16H34.46V67.58C34.46 68.21 34.655 68.685 35.045 69.005C35.435 69.315 35.965 69.47 36.635 69.47C37.315 69.47 37.82 69.335 38.15 69.065C38.49 68.795 38.66 68.45 38.66 68.03C38.66 67.74 38.575 67.505 38.405 67.325C38.245 67.145 38.005 67 37.685 66.89C37.375 66.77 36.995 66.66 36.545 66.56L36.2 66.485C35.48 66.325 34.86 66.125 34.34 65.885C33.83 65.635 33.435 65.31 33.155 64.91C32.885 64.51 32.75 63.99 32.75 63.35C32.75 62.71 32.9 62.165 33.2 61.715C33.51 61.255 33.94 60.905 34.49 60.665C35.05 60.415 35.705 60.29 36.455 60.29C37.205 60.29 37.87 60.42 38.45 60.68C39.04 60.93 39.5 61.31 39.83 61.82C40.17 62.32 40.34 62.95 40.34 63.71V64.16H38.39V63.71C38.39 63.31 38.31 62.99 38.15 62.75C38 62.5 37.78 62.32 37.49 62.21C37.2 62.09 36.855 62.03 36.455 62.03C35.855 62.03 35.41 62.145 35.12 62.375C34.84 62.595 34.7 62.9 34.7 63.29C34.7 63.55 34.765 63.77 34.895 63.95C35.035 64.13 35.24 64.28 35.51 64.4C35.78 64.52 36.125 64.625 36.545 64.715L36.89 64.79C37.64 64.95 38.29 65.155 38.84 65.405C39.4 65.655 39.835 65.985 40.145 66.395C40.455 66.805 40.61 67.33 40.61 67.97C40.61 68.61 40.445 69.175 40.115 69.665C39.795 70.145 39.335 70.525 38.735 70.805C38.145 71.075 37.445 71.21 36.635 71.21ZM45.5367 71.21C44.7967 71.21 44.1417 71.055 43.5717 70.745C43.0117 70.425 42.5717 69.98 42.2517 69.41C41.9417 68.83 41.7867 68.15 41.7867 67.37V67.19C41.7867 66.41 41.9417 65.735 42.2517 65.165C42.5617 64.585 42.9967 64.14 43.5567 63.83C44.1167 63.51 44.7667 63.35 45.5067 63.35C46.2367 63.35 46.8717 63.515 47.4117 63.845C47.9517 64.165 48.3717 64.615 48.6717 65.195C48.9717 65.765 49.1217 66.43 49.1217 67.19V67.835H43.7067C43.7267 68.345 43.9167 68.76 44.2767 69.08C44.6367 69.4 45.0767 69.56 45.5967 69.56C46.1267 69.56 46.5167 69.445 46.7667 69.215C47.0167 68.985 47.2067 68.73 47.3367 68.45L48.8817 69.26C48.7417 69.52 48.5367 69.805 48.2667 70.115C48.0067 70.415 47.6567 70.675 47.2167 70.895C46.7767 71.105 46.2167 71.21 45.5367 71.21ZM43.7217 66.425H47.2017C47.1617 65.995 46.9867 65.65 46.6767 65.39C46.3767 65.13 45.9817 65 45.4917 65C44.9817 65 44.5767 65.13 44.2767 65.39C43.9767 65.65 43.7917 65.995 43.7217 66.425ZM50.8039 71V60.5H52.6939V71H50.8039ZM58.1783 71.21C57.4383 71.21 56.7833 71.055 56.2133 70.745C55.6533 70.425 55.2133 69.98 54.8933 69.41C54.5833 68.83 54.4283 68.15 54.4283 67.37V67.19C54.4283 66.41 54.5833 65.735 54.8933 65.165C55.2033 64.585 55.6383 64.14 56.1983 63.83C56.7583 63.51 57.4083 63.35 58.1483 63.35C58.8783 63.35 59.5133 63.515 60.0533 63.845C60.5933 64.165 61.0133 64.615 61.3133 65.195C61.6133 65.765 61.7633 66.43 61.7633 67.19V67.835H56.3483C56.3683 68.345 56.5583 68.76 56.9183 69.08C57.2783 69.4 57.7183 69.56 58.2383 69.56C58.7683 69.56 59.1583 69.445 59.4083 69.215C59.6583 68.985 59.8483 68.73 59.9783 68.45L61.5233 69.26C61.3833 69.52 61.1783 69.805 60.9083 70.115C60.6483 70.415 60.2983 70.675 59.8583 70.895C59.4183 71.105 58.8583 71.21 58.1783 71.21ZM56.3633 66.425H59.8433C59.8033 65.995 59.6283 65.65 59.3183 65.39C59.0183 65.13 58.6233 65 58.1333 65C57.6233 65 57.2183 65.13 56.9183 65.39C56.6183 65.65 56.4333 65.995 56.3633 66.425ZM66.9405 71.21C66.2205 71.21 65.5655 71.06 64.9755 70.76C64.3955 70.46 63.9355 70.025 63.5955 69.455C63.2555 68.885 63.0855 68.195 63.0855 67.385V67.175C63.0855 66.365 63.2555 65.675 63.5955 65.105C63.9355 64.535 64.3955 64.1 64.9755 63.8C65.5655 63.5 66.2205 63.35 66.9405 63.35C67.6505 63.35 68.2605 63.475 68.7705 63.725C69.2805 63.975 69.6905 64.32 70.0005 64.76C70.3205 65.19 70.5305 65.68 70.6305 66.23L68.8005 66.62C68.7605 66.32 68.6705 66.05 68.5305 65.81C68.3905 65.57 68.1905 65.38 67.9305 65.24C67.6805 65.1 67.3655 65.03 66.9855 65.03C66.6055 65.03 66.2605 65.115 65.9505 65.285C65.6505 65.445 65.4105 65.69 65.2305 66.02C65.0605 66.34 64.9755 66.735 64.9755 67.205V67.355C64.9755 67.825 65.0605 68.225 65.2305 68.555C65.4105 68.875 65.6505 69.12 65.9505 69.29C66.2605 69.45 66.6055 69.53 66.9855 69.53C67.5555 69.53 67.9855 69.385 68.2755 69.095C68.5755 68.795 68.7655 68.405 68.8455 67.925L70.6755 68.36C70.5455 68.89 70.3205 69.375 70.0005 69.815C69.6905 70.245 69.2805 70.585 68.7705 70.835C68.2605 71.085 67.6505 71.21 66.9405 71.21ZM74.8355 71C74.3455 71 73.9455 70.85 73.6355 70.55C73.3355 70.24 73.1855 69.83 73.1855 69.32V65.12H71.3255V63.56H73.1855V61.25H75.0755V63.56H77.1155V65.12H75.0755V68.99C75.0755 69.29 75.2155 69.44 75.4955 69.44H76.9355V71H74.8355ZM84.945 71.21C84.415 71.21 83.94 71.12 83.52 70.94C83.1 70.75 82.765 70.48 82.515 70.13C82.275 69.77 82.155 69.335 82.155 68.825C82.155 68.315 82.275 67.89 82.515 67.55C82.765 67.2 83.105 66.94 83.535 66.77C83.975 66.59 84.475 66.5 85.035 66.5H87.075V66.08C87.075 65.73 86.965 65.445 86.745 65.225C86.525 64.995 86.175 64.88 85.695 64.88C85.225 64.88 84.875 64.99 84.645 65.21C84.415 65.42 84.265 65.695 84.195 66.035L82.455 65.45C82.575 65.07 82.765 64.725 83.025 64.415C83.295 64.095 83.65 63.84 84.09 63.65C84.54 63.45 85.085 63.35 85.725 63.35C86.705 63.35 87.48 63.595 88.05 64.085C88.62 64.575 88.905 65.285 88.905 66.215V68.99C88.905 69.29 89.045 69.44 89.325 69.44H89.925V71H88.665C88.295 71 87.99 70.91 87.75 70.73C87.51 70.55 87.39 70.31 87.39 70.01V69.995H87.105C87.065 70.115 86.975 70.275 86.835 70.475C86.695 70.665 86.475 70.835 86.175 70.985C85.875 71.135 85.465 71.21 84.945 71.21ZM85.275 69.68C85.805 69.68 86.235 69.535 86.565 69.245C86.905 68.945 87.075 68.55 87.075 68.06V67.91H85.17C84.82 67.91 84.545 67.985 84.345 68.135C84.145 68.285 84.045 68.495 84.045 68.765C84.045 69.035 84.15 69.255 84.36 69.425C84.57 69.595 84.875 69.68 85.275 69.68ZM99.5854 71.21C98.9154 71.21 98.4004 71.095 98.0404 70.865C97.6804 70.635 97.4154 70.38 97.2454 70.1H96.9754V71H95.1154V60.5H97.0054V64.415H97.2754C97.3854 64.235 97.5304 64.065 97.7104 63.905C97.9004 63.745 98.1454 63.615 98.4454 63.515C98.7554 63.405 99.1354 63.35 99.5854 63.35C100.185 63.35 100.74 63.5 101.25 63.8C101.76 64.09 102.17 64.52 102.48 65.09C102.79 65.66 102.945 66.35 102.945 67.16V67.4C102.945 68.21 102.79 68.9 102.48 69.47C102.17 70.04 101.76 70.475 101.25 70.775C100.74 71.065 100.185 71.21 99.5854 71.21ZM99.0154 69.56C99.5954 69.56 100.08 69.375 100.47 69.005C100.86 68.625 101.055 68.075 101.055 67.355V67.205C101.055 66.485 100.86 65.94 100.47 65.57C100.09 65.19 99.6054 65 99.0154 65C98.4354 65 97.9504 65.19 97.5604 65.57C97.1704 65.94 96.9754 66.485 96.9754 67.205V67.355C96.9754 68.075 97.1704 68.625 97.5604 69.005C97.9504 69.375 98.4354 69.56 99.0154 69.56ZM106.991 71.21C106.461 71.21 105.986 71.12 105.566 70.94C105.146 70.75 104.811 70.48 104.561 70.13C104.321 69.77 104.201 69.335 104.201 68.825C104.201 68.315 104.321 67.89 104.561 67.55C104.811 67.2 105.151 66.94 105.581 66.77C106.021 66.59 106.521 66.5 107.081 66.5H109.121V66.08C109.121 65.73 109.011 65.445 108.791 65.225C108.571 64.995 108.221 64.88 107.741 64.88C107.271 64.88 106.921 64.99 106.691 65.21C106.461 65.42 106.311 65.695 106.241 66.035L104.501 65.45C104.621 65.07 104.811 64.725 105.071 64.415C105.341 64.095 105.696 63.84 106.136 63.65C106.586 63.45 107.131 63.35 107.771 63.35C108.751 63.35 109.526 63.595 110.096 64.085C110.666 64.575 110.951 65.285 110.951 66.215V68.99C110.951 69.29 111.091 69.44 111.371 69.44H111.971V71H110.711C110.341 71 110.036 70.91 109.796 70.73C109.556 70.55 109.436 70.31 109.436 70.01V69.995H109.151C109.111 70.115 109.021 70.275 108.881 70.475C108.741 70.665 108.521 70.835 108.221 70.985C107.921 71.135 107.511 71.21 106.991 71.21ZM107.321 69.68C107.851 69.68 108.281 69.535 108.611 69.245C108.951 68.945 109.121 68.55 109.121 68.06V67.91H107.216C106.866 67.91 106.591 67.985 106.391 68.135C106.191 68.285 106.091 68.495 106.091 68.765C106.091 69.035 106.196 69.255 106.406 69.425C106.616 69.595 106.921 69.68 107.321 69.68ZM113.353 71V63.56H115.213V64.535H115.483C115.603 64.275 115.828 64.03 116.158 63.8C116.488 63.56 116.988 63.44 117.658 63.44C118.238 63.44 118.743 63.575 119.173 63.845C119.613 64.105 119.953 64.47 120.193 64.94C120.433 65.4 120.553 65.94 120.553 66.56V71H118.663V66.71C118.663 66.15 118.523 65.73 118.243 65.45C117.973 65.17 117.583 65.03 117.073 65.03C116.493 65.03 116.043 65.225 115.723 65.615C115.403 65.995 115.243 66.53 115.243 67.22V71H113.353ZM122.596 71V60.5H124.486V66.305H124.756L127.216 63.56H129.676L126.241 67.16L129.796 71H127.366L124.756 68.045H124.486V71H122.596Z" fill="#1D1D1F"/>
</g>
<rect x="42" y="113" width="2" height="27" fill="#D9D9D9"/>
<path d="M35.756 174.168C35.148 174.168 34.604 174.06 34.124 173.844C33.644 173.628 33.264 173.304 32.984 172.872C32.712 172.432 32.576 171.884 32.576 171.228V170.976H33.572V171.228C33.572 171.924 33.776 172.444 34.184 172.788C34.592 173.124 35.116 173.292 35.756 173.292C36.412 173.292 36.912 173.144 37.256 172.848C37.6 172.552 37.772 172.18 37.772 171.732C37.772 171.42 37.692 171.172 37.532 170.988C37.38 170.804 37.164 170.656 36.884 170.544C36.604 170.424 36.276 170.32 35.9 170.232L35.276 170.076C34.788 169.948 34.356 169.792 33.98 169.608C33.604 169.424 33.308 169.184 33.092 168.888C32.884 168.584 32.78 168.196 32.78 167.724C32.78 167.252 32.896 166.844 33.128 166.5C33.368 166.156 33.7 165.892 34.124 165.708C34.556 165.524 35.052 165.432 35.612 165.432C36.18 165.432 36.688 165.532 37.136 165.732C37.592 165.924 37.948 166.212 38.204 166.596C38.468 166.972 38.6 167.448 38.6 168.024V168.528H37.604V168.024C37.604 167.616 37.516 167.288 37.34 167.04C37.172 166.792 36.936 166.608 36.632 166.488C36.336 166.368 35.996 166.308 35.612 166.308C35.06 166.308 34.616 166.432 34.28 166.68C33.944 166.92 33.776 167.264 33.776 167.712C33.776 168.008 33.848 168.248 33.992 168.432C34.136 168.616 34.34 168.768 34.604 168.888C34.868 169 35.184 169.1 35.552 169.188L36.176 169.344C36.664 169.448 37.1 169.592 37.484 169.776C37.876 169.952 38.188 170.196 38.42 170.508C38.652 170.812 38.768 171.212 38.768 171.708C38.768 172.204 38.644 172.636 38.396 173.004C38.148 173.372 37.796 173.66 37.34 173.868C36.892 174.068 36.364 174.168 35.756 174.168ZM42.5154 174C42.1794 174 41.9194 173.908 41.7354 173.724C41.5594 173.54 41.4714 173.288 41.4714 172.968V168.96H39.7074V168.132H41.4714V166.044H42.4194V168.132H44.3394V168.96H42.4194V172.824C42.4194 173.064 42.5354 173.184 42.7674 173.184H44.0754V174H42.5154ZM48.352 174.168C47.76 174.168 47.24 174.044 46.792 173.796C46.344 173.54 45.996 173.184 45.748 172.728C45.5 172.272 45.376 171.744 45.376 171.144V171C45.376 170.392 45.5 169.86 45.748 169.404C45.996 168.948 46.34 168.596 46.78 168.348C47.22 168.092 47.724 167.964 48.292 167.964C48.844 167.964 49.332 168.084 49.756 168.324C50.18 168.556 50.512 168.892 50.752 169.332C50.992 169.772 51.112 170.288 51.112 170.88V171.312H46.324C46.348 171.944 46.552 172.44 46.936 172.8C47.32 173.152 47.8 173.328 48.376 173.328C48.88 173.328 49.268 173.212 49.54 172.98C49.812 172.748 50.02 172.472 50.164 172.152L50.98 172.548C50.86 172.796 50.692 173.044 50.476 173.292C50.268 173.54 49.992 173.748 49.648 173.916C49.312 174.084 48.88 174.168 48.352 174.168ZM46.336 170.532H50.152C50.12 169.988 49.932 169.564 49.588 169.26C49.252 168.956 48.82 168.804 48.292 168.804C47.756 168.804 47.316 168.956 46.972 169.26C46.628 169.564 46.416 169.988 46.336 170.532ZM52.7655 176.4V168.132H53.6895V169.104H53.8575C54.0095 168.808 54.2535 168.544 54.5895 168.312C54.9335 168.08 55.4095 167.964 56.0175 167.964C56.5215 167.964 56.9815 168.088 57.3975 168.336C57.8215 168.576 58.1575 168.92 58.4055 169.368C58.6615 169.816 58.7895 170.356 58.7895 170.988V171.144C58.7895 171.768 58.6655 172.308 58.4175 172.764C58.1695 173.22 57.8335 173.568 57.4095 173.808C56.9935 174.048 56.5295 174.168 56.0175 174.168C55.6095 174.168 55.2615 174.112 54.9735 174C54.6935 173.896 54.4655 173.76 54.2895 173.592C54.1135 173.424 53.9775 173.252 53.8815 173.076H53.7135V176.4H52.7655ZM55.7655 173.328C56.3735 173.328 56.8655 173.136 57.2415 172.752C57.6255 172.36 57.8175 171.816 57.8175 171.12V171.012C57.8175 170.316 57.6255 169.776 57.2415 169.392C56.8655 169 56.3735 168.804 55.7655 168.804C55.1655 168.804 54.6695 169 54.2775 169.392C53.8935 169.776 53.7015 170.316 53.7015 171.012V171.12C53.7015 171.816 53.8935 172.36 54.2775 172.752C54.6695 173.136 55.1655 173.328 55.7655 173.328ZM63.2102 174V173.124C63.2102 172.524 63.3142 172.044 63.5222 171.684C63.7382 171.324 64.0342 171.036 64.4102 170.82C64.7942 170.596 65.2502 170.404 65.7782 170.244L66.4382 170.04C66.7982 169.928 67.1142 169.792 67.3862 169.632C67.6582 169.464 67.8702 169.256 68.0222 169.008C68.1742 168.752 68.2502 168.44 68.2502 168.072V168.024C68.2502 167.496 68.0662 167.08 67.6982 166.776C67.3302 166.464 66.8582 166.308 66.2822 166.308C65.6742 166.308 65.1782 166.472 64.7942 166.8C64.4102 167.12 64.2182 167.608 64.2182 168.264V168.432H63.2582V168.276C63.2582 167.668 63.3902 167.152 63.6542 166.728C63.9182 166.304 64.2782 165.984 64.7342 165.768C65.1902 165.544 65.7062 165.432 66.2822 165.432C66.8582 165.432 67.3662 165.54 67.8062 165.756C68.2542 165.972 68.6022 166.272 68.8502 166.656C69.0982 167.04 69.2222 167.488 69.2222 168V168.108C69.2222 168.652 69.1142 169.104 68.8982 169.464C68.6822 169.816 68.3822 170.104 67.9982 170.328C67.6222 170.552 67.1782 170.744 66.6662 170.904L66.0182 171.108C65.6102 171.236 65.2702 171.372 64.9982 171.516C64.7342 171.652 64.5342 171.828 64.3982 172.044C64.2622 172.26 64.1942 172.552 64.1942 172.92V173.124H69.1502V174H63.2102Z" fill="#797979"/>
<path d="M32.99 197V186.5H39.59V188.3H34.97V190.835H39.23V192.635H34.97V197H32.99ZM41.0627 197V189.56H42.9527V197H41.0627ZM42.0077 188.69C41.6677 188.69 41.3777 188.58 41.1377 188.36C40.9077 188.14 40.7927 187.85 40.7927 187.49C40.7927 187.13 40.9077 186.84 41.1377 186.62C41.3777 186.4 41.6677 186.29 42.0077 186.29C42.3577 186.29 42.6477 186.4 42.8777 186.62C43.1077 186.84 43.2227 187.13 43.2227 187.49C43.2227 187.85 43.1077 188.14 42.8777 188.36C42.6477 188.58 42.3577 188.69 42.0077 188.69ZM45.0471 197V186.5H46.9371V197H45.0471ZM49.0314 197V186.5H50.9214V197H49.0314ZM56.8244 197V186.5H58.7144V197H56.8244ZM64.3488 197.21C63.6088 197.21 62.9438 197.06 62.3538 196.76C61.7638 196.46 61.2988 196.025 60.9588 195.455C60.6188 194.885 60.4488 194.2 60.4488 193.4V193.16C60.4488 192.36 60.6188 191.675 60.9588 191.105C61.2988 190.535 61.7638 190.1 62.3538 189.8C62.9438 189.5 63.6088 189.35 64.3488 189.35C65.0888 189.35 65.7538 189.5 66.3438 189.8C66.9338 190.1 67.3988 190.535 67.7388 191.105C68.0788 191.675 68.2488 192.36 68.2488 193.16V193.4C68.2488 194.2 68.0788 194.885 67.7388 195.455C67.3988 196.025 66.9338 196.46 66.3438 196.76C65.7538 197.06 65.0888 197.21 64.3488 197.21ZM64.3488 195.53C64.9288 195.53 65.4088 195.345 65.7888 194.975C66.1688 194.595 66.3588 194.055 66.3588 193.355V193.205C66.3588 192.505 66.1688 191.97 65.7888 191.6C65.4188 191.22 64.9388 191.03 64.3488 191.03C63.7688 191.03 63.2888 191.22 62.9088 191.6C62.5288 191.97 62.3388 192.505 62.3388 193.205V193.355C62.3388 194.055 62.5288 194.595 62.9088 194.975C63.2888 195.345 63.7688 195.53 64.3488 195.53ZM72.3034 197.21C71.7734 197.21 71.2984 197.12 70.8784 196.94C70.4584 196.75 70.1234 196.48 69.8734 196.13C69.6334 195.77 69.5134 195.335 69.5134 194.825C69.5134 194.315 69.6334 193.89 69.8734 193.55C70.1234 193.2 70.4634 192.94 70.8934 192.77C71.3334 192.59 71.8334 192.5 72.3934 192.5H74.4334V192.08C74.4334 191.73 74.3234 191.445 74.1034 191.225C73.8834 190.995 73.5334 190.88 73.0534 190.88C72.5834 190.88 72.2334 190.99 72.0034 191.21C71.7734 191.42 71.6234 191.695 71.5534 192.035L69.8134 191.45C69.9334 191.07 70.1234 190.725 70.3834 190.415C70.6534 190.095 71.0084 189.84 71.4484 189.65C71.8984 189.45 72.4434 189.35 73.0834 189.35C74.0634 189.35 74.8384 189.595 75.4084 190.085C75.9784 190.575 76.2634 191.285 76.2634 192.215V194.99C76.2634 195.29 76.4034 195.44 76.6834 195.44H77.2834V197H76.0234C75.6534 197 75.3484 196.91 75.1084 196.73C74.8684 196.55 74.7484 196.31 74.7484 196.01V195.995H74.4634C74.4234 196.115 74.3334 196.275 74.1934 196.475C74.0534 196.665 73.8334 196.835 73.5334 196.985C73.2334 197.135 72.8234 197.21 72.3034 197.21ZM72.6334 195.68C73.1634 195.68 73.5934 195.535 73.9234 195.245C74.2634 194.945 74.4334 194.55 74.4334 194.06V193.91H72.5284C72.1784 193.91 71.9034 193.985 71.7034 194.135C71.5034 194.285 71.4034 194.495 71.4034 194.765C71.4034 195.035 71.5084 195.255 71.7184 195.425C71.9284 195.595 72.2334 195.68 72.6334 195.68ZM78.6652 197V189.56H80.5252V190.535H80.7952C80.9152 190.275 81.1402 190.03 81.4702 189.8C81.8002 189.56 82.3002 189.44 82.9702 189.44C83.5502 189.44 84.0552 189.575 84.4852 189.845C84.9252 190.105 85.2652 190.47 85.5052 190.94C85.7452 191.4 85.8652 191.94 85.8652 192.56V197H83.9752V192.71C83.9752 192.15 83.8352 191.73 83.5552 191.45C83.2852 191.17 82.8952 191.03 82.3852 191.03C81.8052 191.03 81.3552 191.225 81.0352 191.615C80.7152 191.995 80.5552 192.53 80.5552 193.22V197H78.6652ZM94.027 197.21C93.497 197.21 93.022 197.12 92.602 196.94C92.182 196.75 91.847 196.48 91.597 196.13C91.357 195.77 91.237 195.335 91.237 194.825C91.237 194.315 91.357 193.89 91.597 193.55C91.847 193.2 92.187 192.94 92.617 192.77C93.057 192.59 93.557 192.5 94.117 192.5H96.157V192.08C96.157 191.73 96.047 191.445 95.827 191.225C95.607 190.995 95.257 190.88 94.777 190.88C94.307 190.88 93.957 190.99 93.727 191.21C93.497 191.42 93.347 191.695 93.277 192.035L91.537 191.45C91.657 191.07 91.847 190.725 92.107 190.415C92.377 190.095 92.732 189.84 93.172 189.65C93.622 189.45 94.167 189.35 94.807 189.35C95.787 189.35 96.562 189.595 97.132 190.085C97.702 190.575 97.987 191.285 97.987 192.215V194.99C97.987 195.29 98.127 195.44 98.407 195.44H99.007V197H97.747C97.377 197 97.072 196.91 96.832 196.73C96.592 196.55 96.472 196.31 96.472 196.01V195.995H96.187C96.147 196.115 96.057 196.275 95.917 196.475C95.777 196.665 95.557 196.835 95.257 196.985C94.957 197.135 94.547 197.21 94.027 197.21ZM94.357 195.68C94.887 195.68 95.317 195.535 95.647 195.245C95.987 194.945 96.157 194.55 96.157 194.06V193.91H94.252C93.902 193.91 93.627 193.985 93.427 194.135C93.227 194.285 93.127 194.495 93.127 194.765C93.127 195.035 93.232 195.255 93.442 195.425C93.652 195.595 93.957 195.68 94.357 195.68ZM100.389 200V189.56H102.249V190.46H102.519C102.689 190.17 102.954 189.915 103.314 189.695C103.674 189.465 104.189 189.35 104.859 189.35C105.459 189.35 106.014 189.5 106.524 189.8C107.034 190.09 107.444 190.52 107.754 191.09C108.064 191.66 108.219 192.35 108.219 193.16V193.4C108.219 194.21 108.064 194.9 107.754 195.47C107.444 196.04 107.034 196.475 106.524 196.775C106.014 197.065 105.459 197.21 104.859 197.21C104.409 197.21 104.029 197.155 103.719 197.045C103.419 196.945 103.174 196.815 102.984 196.655C102.804 196.485 102.659 196.315 102.549 196.145H102.279V200H100.389ZM104.289 195.56C104.879 195.56 105.364 195.375 105.744 195.005C106.134 194.625 106.329 194.075 106.329 193.355V193.205C106.329 192.485 106.134 191.94 105.744 191.57C105.354 191.19 104.869 191 104.289 191C103.709 191 103.224 191.19 102.834 191.57C102.444 191.94 102.249 192.485 102.249 193.205V193.355C102.249 194.075 102.444 194.625 102.834 195.005C103.224 195.375 103.709 195.56 104.289 195.56ZM109.954 200V189.56H111.814V190.46H112.084C112.254 190.17 112.519 189.915 112.879 189.695C113.239 189.465 113.754 189.35 114.424 189.35C115.024 189.35 115.579 189.5 116.089 189.8C116.599 190.09 117.009 190.52 117.319 191.09C117.629 191.66 117.784 192.35 117.784 193.16V193.4C117.784 194.21 117.629 194.9 117.319 195.47C117.009 196.04 116.599 196.475 116.089 196.775C115.579 197.065 115.024 197.21 114.424 197.21C113.974 197.21 113.594 197.155 113.284 197.045C112.984 196.945 112.739 196.815 112.549 196.655C112.369 196.485 112.224 196.315 112.114 196.145H111.844V200H109.954ZM113.854 195.56C114.444 195.56 114.929 195.375 115.309 195.005C115.699 194.625 115.894 194.075 115.894 193.355V193.205C115.894 192.485 115.699 191.94 115.309 191.57C114.919 191.19 114.434 191 113.854 191C113.274 191 112.789 191.19 112.399 191.57C112.009 191.94 111.814 192.485 111.814 193.205V193.355C111.814 194.075 112.009 194.625 112.399 195.005C112.789 195.375 113.274 195.56 113.854 195.56ZM119.52 197V186.5H121.41V197H119.52ZM123.504 197V189.56H125.394V197H123.504ZM124.449 188.69C124.109 188.69 123.819 188.58 123.579 188.36C123.349 188.14 123.234 187.85 123.234 187.49C123.234 187.13 123.349 186.84 123.579 186.62C123.819 186.4 124.109 186.29 124.449 186.29C124.799 186.29 125.089 186.4 125.319 186.62C125.549 186.84 125.664 187.13 125.664 187.49C125.664 187.85 125.549 188.14 125.319 188.36C125.089 188.58 124.799 188.69 124.449 188.69ZM130.983 197.21C130.263 197.21 129.608 197.06 129.018 196.76C128.438 196.46 127.978 196.025 127.638 195.455C127.298 194.885 127.128 194.195 127.128 193.385V193.175C127.128 192.365 127.298 191.675 127.638 191.105C127.978 190.535 128.438 190.1 129.018 189.8C129.608 189.5 130.263 189.35 130.983 189.35C131.693 189.35 132.303 189.475 132.813 189.725C133.323 189.975 133.733 190.32 134.043 190.76C134.363 191.19 134.573 191.68 134.673 192.23L132.843 192.62C132.803 192.32 132.713 192.05 132.573 191.81C132.433 191.57 132.233 191.38 131.973 191.24C131.723 191.1 131.408 191.03 131.028 191.03C130.648 191.03 130.303 191.115 129.993 191.285C129.693 191.445 129.453 191.69 129.273 192.02C129.103 192.34 129.018 192.735 129.018 193.205V193.355C129.018 193.825 129.103 194.225 129.273 194.555C129.453 194.875 129.693 195.12 129.993 195.29C130.303 195.45 130.648 195.53 131.028 195.53C131.598 195.53 132.028 195.385 132.318 195.095C132.618 194.795 132.808 194.405 132.888 193.925L134.718 194.36C134.588 194.89 134.363 195.375 134.043 195.815C133.733 196.245 133.323 196.585 132.813 196.835C132.303 197.085 131.693 197.21 130.983 197.21ZM138.588 197.21C138.058 197.21 137.583 197.12 137.163 196.94C136.743 196.75 136.408 196.48 136.158 196.13C135.918 195.77 135.798 195.335 135.798 194.825C135.798 194.315 135.918 193.89 136.158 193.55C136.408 193.2 136.748 192.94 137.178 192.77C137.618 192.59 138.118 192.5 138.678 192.5H140.718V192.08C140.718 191.73 140.608 191.445 140.388 191.225C140.168 190.995 139.818 190.88 139.338 190.88C138.868 190.88 138.518 190.99 138.288 191.21C138.058 191.42 137.908 191.695 137.838 192.035L136.098 191.45C136.218 191.07 136.408 190.725 136.668 190.415C136.938 190.095 137.293 189.84 137.733 189.65C138.183 189.45 138.728 189.35 139.368 189.35C140.348 189.35 141.123 189.595 141.693 190.085C142.263 190.575 142.548 191.285 142.548 192.215V194.99C142.548 195.29 142.688 195.44 142.968 195.44H143.568V197H142.308C141.938 197 141.633 196.91 141.393 196.73C141.153 196.55 141.033 196.31 141.033 196.01V195.995H140.748C140.708 196.115 140.618 196.275 140.478 196.475C140.338 196.665 140.118 196.835 139.818 196.985C139.518 197.135 139.108 197.21 138.588 197.21ZM138.918 195.68C139.448 195.68 139.878 195.535 140.208 195.245C140.548 194.945 140.718 194.55 140.718 194.06V193.91H138.813C138.463 193.91 138.188 193.985 137.988 194.135C137.788 194.285 137.688 194.495 137.688 194.765C137.688 195.035 137.793 195.255 138.003 195.425C138.213 195.595 138.518 195.68 138.918 195.68ZM147.257 197C146.767 197 146.367 196.85 146.057 196.55C145.757 196.24 145.607 195.83 145.607 195.32V191.12H143.747V189.56H145.607V187.25H147.497V189.56H149.537V191.12H147.497V194.99C147.497 195.29 147.637 195.44 147.917 195.44H149.357V197H147.257ZM151.248 197V189.56H153.138V197H151.248ZM152.193 188.69C151.853 188.69 151.563 188.58 151.323 188.36C151.093 188.14 150.978 187.85 150.978 187.49C150.978 187.13 151.093 186.84 151.323 186.62C151.563 186.4 151.853 186.29 152.193 186.29C152.543 186.29 152.833 186.4 153.063 186.62C153.293 186.84 153.408 187.13 153.408 187.49C153.408 187.85 153.293 188.14 153.063 188.36C152.833 188.58 152.543 188.69 152.193 188.69ZM158.773 197.21C158.033 197.21 157.368 197.06 156.778 196.76C156.188 196.46 155.723 196.025 155.383 195.455C155.043 194.885 154.873 194.2 154.873 193.4V193.16C154.873 192.36 155.043 191.675 155.383 191.105C155.723 190.535 156.188 190.1 156.778 189.8C157.368 189.5 158.033 189.35 158.773 189.35C159.513 189.35 160.178 189.5 160.768 189.8C161.358 190.1 161.823 190.535 162.163 191.105C162.503 191.675 162.673 192.36 162.673 193.16V193.4C162.673 194.2 162.503 194.885 162.163 195.455C161.823 196.025 161.358 196.46 160.768 196.76C160.178 197.06 159.513 197.21 158.773 197.21ZM158.773 195.53C159.353 195.53 159.833 195.345 160.213 194.975C160.593 194.595 160.783 194.055 160.783 193.355V193.205C160.783 192.505 160.593 191.97 160.213 191.6C159.843 191.22 159.363 191.03 158.773 191.03C158.193 191.03 157.713 191.22 157.333 191.6C156.953 191.97 156.763 192.505 156.763 193.205V193.355C156.763 194.055 156.953 194.595 157.333 194.975C157.713 195.345 158.193 195.53 158.773 195.53ZM164.417 197V189.56H166.277V190.535H166.547C166.667 190.275 166.892 190.03 167.222 189.8C167.552 189.56 168.052 189.44 168.722 189.44C169.302 189.44 169.807 189.575 170.237 189.845C170.677 190.105 171.017 190.47 171.257 190.94C171.497 191.4 171.617 191.94 171.617 192.56V197H169.727V192.71C169.727 192.15 169.587 191.73 169.307 191.45C169.037 191.17 168.647 191.03 168.137 191.03C167.557 191.03 167.107 191.225 166.787 191.615C166.467 191.995 166.307 192.53 166.307 193.22V197H164.417Z" fill="#1D1D1F"/>
<rect x="42" y="239" width="2" height="27" fill="#D9D9D9"/>
<path d="M35.756 300.168C35.148 300.168 34.604 300.06 34.124 299.844C33.644 299.628 33.264 299.304 32.984 298.872C32.712 298.432 32.576 297.884 32.576 297.228V296.976H33.572V297.228C33.572 297.924 33.776 298.444 34.184 298.788C34.592 299.124 35.116 299.292 35.756 299.292C36.412 299.292 36.912 299.144 37.256 298.848C37.6 298.552 37.772 298.18 37.772 297.732C37.772 297.42 37.692 297.172 37.532 296.988C37.38 296.804 37.164 296.656 36.884 296.544C36.604 296.424 36.276 296.32 35.9 296.232L35.276 296.076C34.788 295.948 34.356 295.792 33.98 295.608C33.604 295.424 33.308 295.184 33.092 294.888C32.884 294.584 32.78 294.196 32.78 293.724C32.78 293.252 32.896 292.844 33.128 292.5C33.368 292.156 33.7 291.892 34.124 291.708C34.556 291.524 35.052 291.432 35.612 291.432C36.18 291.432 36.688 291.532 37.136 291.732C37.592 291.924 37.948 292.212 38.204 292.596C38.468 292.972 38.6 293.448 38.6 294.024V294.528H37.604V294.024C37.604 293.616 37.516 293.288 37.34 293.04C37.172 292.792 36.936 292.608 36.632 292.488C36.336 292.368 35.996 292.308 35.612 292.308C35.06 292.308 34.616 292.432 34.28 292.68C33.944 292.92 33.776 293.264 33.776 293.712C33.776 294.008 33.848 294.248 33.992 294.432C34.136 294.616 34.34 294.768 34.604 294.888C34.868 295 35.184 295.1 35.552 295.188L36.176 295.344C36.664 295.448 37.1 295.592 37.484 295.776C37.876 295.952 38.188 296.196 38.42 296.508C38.652 296.812 38.768 297.212 38.768 297.708C38.768 298.204 38.644 298.636 38.396 299.004C38.148 299.372 37.796 299.66 37.34 299.868C36.892 300.068 36.364 300.168 35.756 300.168ZM42.5154 300C42.1794 300 41.9194 299.908 41.7354 299.724C41.5594 299.54 41.4714 299.288 41.4714 298.968V294.96H39.7074V294.132H41.4714V292.044H42.4194V294.132H44.3394V294.96H42.4194V298.824C42.4194 299.064 42.5354 299.184 42.7674 299.184H44.0754V300H42.5154ZM48.352 300.168C47.76 300.168 47.24 300.044 46.792 299.796C46.344 299.54 45.996 299.184 45.748 298.728C45.5 298.272 45.376 297.744 45.376 297.144V297C45.376 296.392 45.5 295.86 45.748 295.404C45.996 294.948 46.34 294.596 46.78 294.348C47.22 294.092 47.724 293.964 48.292 293.964C48.844 293.964 49.332 294.084 49.756 294.324C50.18 294.556 50.512 294.892 50.752 295.332C50.992 295.772 51.112 296.288 51.112 296.88V297.312H46.324C46.348 297.944 46.552 298.44 46.936 298.8C47.32 299.152 47.8 299.328 48.376 299.328C48.88 299.328 49.268 299.212 49.54 298.98C49.812 298.748 50.02 298.472 50.164 298.152L50.98 298.548C50.86 298.796 50.692 299.044 50.476 299.292C50.268 299.54 49.992 299.748 49.648 299.916C49.312 300.084 48.88 300.168 48.352 300.168ZM46.336 296.532H50.152C50.12 295.988 49.932 295.564 49.588 295.26C49.252 294.956 48.82 294.804 48.292 294.804C47.756 294.804 47.316 294.956 46.972 295.26C46.628 295.564 46.416 295.988 46.336 296.532ZM52.7655 302.4V294.132H53.6895V295.104H53.8575C54.0095 294.808 54.2535 294.544 54.5895 294.312C54.9335 294.08 55.4095 293.964 56.0175 293.964C56.5215 293.964 56.9815 294.088 57.3975 294.336C57.8215 294.576 58.1575 294.92 58.4055 295.368C58.6615 295.816 58.7895 296.356 58.7895 296.988V297.144C58.7895 297.768 58.6655 298.308 58.4175 298.764C58.1695 299.22 57.8335 299.568 57.4095 299.808C56.9935 300.048 56.5295 300.168 56.0175 300.168C55.6095 300.168 55.2615 300.112 54.9735 300C54.6935 299.896 54.4655 299.76 54.2895 299.592C54.1135 299.424 53.9775 299.252 53.8815 299.076H53.7135V302.4H52.7655ZM55.7655 299.328C56.3735 299.328 56.8655 299.136 57.2415 298.752C57.6255 298.36 57.8175 297.816 57.8175 297.12V297.012C57.8175 296.316 57.6255 295.776 57.2415 295.392C56.8655 295 56.3735 294.804 55.7655 294.804C55.1655 294.804 54.6695 295 54.2775 295.392C53.8935 295.776 53.7015 296.316 53.7015 297.012V297.12C53.7015 297.816 53.8935 298.36 54.2775 298.752C54.6695 299.136 55.1655 299.328 55.7655 299.328ZM66.2102 300.168C65.6182 300.168 65.0862 300.056 64.6142 299.832C64.1502 299.608 63.7822 299.284 63.5102 298.86C63.2462 298.436 63.1142 297.924 63.1142 297.324V297.096H64.0862V297.312C64.0862 297.928 64.2822 298.412 64.6742 298.764C65.0662 299.116 65.5782 299.292 66.2102 299.292C66.8502 299.292 67.3462 299.128 67.6982 298.8C68.0582 298.464 68.2382 298.044 68.2382 297.54V297.444C68.2382 297.076 68.1502 296.78 67.9742 296.556C67.7982 296.324 67.5582 296.156 67.2542 296.052C66.9582 295.94 66.6302 295.884 66.2702 295.884H64.9022V294.672L68.1062 292.62V292.476H63.3182V291.6H69.1382V292.956L66.0062 294.972V295.116H66.6062C67.0782 295.116 67.5102 295.204 67.9022 295.38C68.3022 295.548 68.6182 295.804 68.8502 296.148C69.0902 296.484 69.2102 296.908 69.2102 297.42V297.552C69.2102 298.08 69.0862 298.54 68.8382 298.932C68.5902 299.324 68.2422 299.628 67.7942 299.844C67.3462 300.06 66.8182 300.168 66.2102 300.168Z" fill="#797979"/>
<path d="M32.99 323V312.5H34.97V321.2H39.77V323H32.99ZM41.1799 323V315.56H43.0699V323H41.1799ZM42.1249 314.69C41.7849 314.69 41.4949 314.58 41.2549 314.36C41.0249 314.14 40.9099 313.85 40.9099 313.49C40.9099 313.13 41.0249 312.84 41.2549 312.62C41.4949 312.4 41.7849 312.29 42.1249 312.29C42.4749 312.29 42.7649 312.4 42.9949 312.62C43.2249 312.84 43.3399 313.13 43.3399 313.49C43.3399 313.85 43.2249 314.14 42.9949 314.36C42.7649 314.58 42.4749 314.69 42.1249 314.69ZM45.1643 323V315.56H47.0243V316.535H47.2943C47.4143 316.275 47.6393 316.03 47.9693 315.8C48.2993 315.56 48.7993 315.44 49.4693 315.44C50.0493 315.44 50.5543 315.575 50.9843 315.845C51.4243 316.105 51.7643 316.47 52.0043 316.94C52.2443 317.4 52.3643 317.94 52.3643 318.56V323H50.4743V318.71C50.4743 318.15 50.3343 317.73 50.0543 317.45C49.7843 317.17 49.3943 317.03 48.8843 317.03C48.3043 317.03 47.8543 317.225 47.5343 317.615C47.2143 317.995 47.0543 318.53 47.0543 319.22V323H45.1643ZM54.4074 323V312.5H56.2974V318.305H56.5674L59.0274 315.56H61.4874L58.0524 319.16L61.6074 323H59.1774L56.5674 320.045H56.2974V323H54.4074ZM65.3928 326L69.8028 312.5H71.6928L67.2828 326H65.3928ZM79.1418 323.12C78.5618 323.12 78.0518 322.99 77.6118 322.73C77.1818 322.46 76.8468 322.09 76.6068 321.62C76.3668 321.15 76.2468 320.61 76.2468 320V315.56H78.1368V319.85C78.1368 320.41 78.2718 320.83 78.5418 321.11C78.8218 321.39 79.2168 321.53 79.7268 321.53C80.3068 321.53 80.7568 321.34 81.0768 320.96C81.3968 320.57 81.5568 320.03 81.5568 319.34V315.56H83.4468V323H81.5868V322.025H81.3168C81.1968 322.275 80.9718 322.52 80.6418 322.76C80.3118 323 79.8118 323.12 79.1418 323.12ZM85.55 326V315.56H87.41V316.46H87.68C87.85 316.17 88.115 315.915 88.475 315.695C88.835 315.465 89.35 315.35 90.02 315.35C90.62 315.35 91.175 315.5 91.685 315.8C92.195 316.09 92.605 316.52 92.915 317.09C93.225 317.66 93.38 318.35 93.38 319.16V319.4C93.38 320.21 93.225 320.9 92.915 321.47C92.605 322.04 92.195 322.475 91.685 322.775C91.175 323.065 90.62 323.21 90.02 323.21C89.57 323.21 89.19 323.155 88.88 323.045C88.58 322.945 88.335 322.815 88.145 322.655C87.965 322.485 87.82 322.315 87.71 322.145H87.44V326H85.55ZM89.45 321.56C90.04 321.56 90.525 321.375 90.905 321.005C91.295 320.625 91.49 320.075 91.49 319.355V319.205C91.49 318.485 91.295 317.94 90.905 317.57C90.515 317.19 90.03 317 89.45 317C88.87 317 88.385 317.19 87.995 317.57C87.605 317.94 87.41 318.485 87.41 319.205V319.355C87.41 320.075 87.605 320.625 87.995 321.005C88.385 321.375 88.87 321.56 89.45 321.56ZM95.1154 323V312.5H97.0054V323H95.1154ZM102.64 323.21C101.9 323.21 101.235 323.06 100.645 322.76C100.055 322.46 99.5898 322.025 99.2498 321.455C98.9098 320.885 98.7398 320.2 98.7398 319.4V319.16C98.7398 318.36 98.9098 317.675 99.2498 317.105C99.5898 316.535 100.055 316.1 100.645 315.8C101.235 315.5 101.9 315.35 102.64 315.35C103.38 315.35 104.045 315.5 104.635 315.8C105.225 316.1 105.69 316.535 106.03 317.105C106.37 317.675 106.54 318.36 106.54 319.16V319.4C106.54 320.2 106.37 320.885 106.03 321.455C105.69 322.025 105.225 322.46 104.635 322.76C104.045 323.06 103.38 323.21 102.64 323.21ZM102.64 321.53C103.22 321.53 103.7 321.345 104.08 320.975C104.46 320.595 104.65 320.055 104.65 319.355V319.205C104.65 318.505 104.46 317.97 104.08 317.6C103.71 317.22 103.23 317.03 102.64 317.03C102.06 317.03 101.58 317.22 101.2 317.6C100.82 317.97 100.63 318.505 100.63 319.205V319.355C100.63 320.055 100.82 320.595 101.2 320.975C101.58 321.345 102.06 321.53 102.64 321.53ZM110.594 323.21C110.064 323.21 109.589 323.12 109.169 322.94C108.749 322.75 108.414 322.48 108.164 322.13C107.924 321.77 107.804 321.335 107.804 320.825C107.804 320.315 107.924 319.89 108.164 319.55C108.414 319.2 108.754 318.94 109.184 318.77C109.624 318.59 110.124 318.5 110.684 318.5H112.724V318.08C112.724 317.73 112.614 317.445 112.394 317.225C112.174 316.995 111.824 316.88 111.344 316.88C110.874 316.88 110.524 316.99 110.294 317.21C110.064 317.42 109.914 317.695 109.844 318.035L108.104 317.45C108.224 317.07 108.414 316.725 108.674 316.415C108.944 316.095 109.299 315.84 109.739 315.65C110.189 315.45 110.734 315.35 111.374 315.35C112.354 315.35 113.129 315.595 113.699 316.085C114.269 316.575 114.554 317.285 114.554 318.215V320.99C114.554 321.29 114.694 321.44 114.974 321.44H115.574V323H114.314C113.944 323 113.639 322.91 113.399 322.73C113.159 322.55 113.039 322.31 113.039 322.01V321.995H112.754C112.714 322.115 112.624 322.275 112.484 322.475C112.344 322.665 112.124 322.835 111.824 322.985C111.524 323.135 111.114 323.21 110.594 323.21ZM110.924 321.68C111.454 321.68 111.884 321.535 112.214 321.245C112.554 320.945 112.724 320.55 112.724 320.06V319.91H110.819C110.469 319.91 110.194 319.985 109.994 320.135C109.794 320.285 109.694 320.495 109.694 320.765C109.694 321.035 109.799 321.255 110.009 321.425C110.219 321.595 110.524 321.68 110.924 321.68ZM119.81 323.21C119.22 323.21 118.665 323.065 118.145 322.775C117.635 322.475 117.225 322.04 116.915 321.47C116.605 320.9 116.45 320.21 116.45 319.4V319.16C116.45 318.35 116.605 317.66 116.915 317.09C117.225 316.52 117.635 316.09 118.145 315.8C118.655 315.5 119.21 315.35 119.81 315.35C120.26 315.35 120.635 315.405 120.935 315.515C121.245 315.615 121.495 315.745 121.685 315.905C121.875 316.065 122.02 316.235 122.12 316.415H122.39V312.5H124.28V323H122.42V322.1H122.15C121.98 322.38 121.715 322.635 121.355 322.865C121.005 323.095 120.49 323.21 119.81 323.21ZM120.38 321.56C120.96 321.56 121.445 321.375 121.835 321.005C122.225 320.625 122.42 320.075 122.42 319.355V319.205C122.42 318.485 122.225 317.94 121.835 317.57C121.455 317.19 120.97 317 120.38 317C119.8 317 119.315 317.19 118.925 317.57C118.535 317.94 118.34 318.485 118.34 319.205V319.355C118.34 320.075 118.535 320.625 118.925 321.005C119.315 321.375 119.8 321.56 120.38 321.56ZM133.679 323.21C132.959 323.21 132.304 323.06 131.714 322.76C131.134 322.46 130.674 322.025 130.334 321.455C129.994 320.885 129.824 320.195 129.824 319.385V319.175C129.824 318.365 129.994 317.675 130.334 317.105C130.674 316.535 131.134 316.1 131.714 315.8C132.304 315.5 132.959 315.35 133.679 315.35C134.389 315.35 134.999 315.475 135.509 315.725C136.019 315.975 136.429 316.32 136.739 316.76C137.059 317.19 137.269 317.68 137.369 318.23L135.539 318.62C135.499 318.32 135.409 318.05 135.269 317.81C135.129 317.57 134.929 317.38 134.669 317.24C134.419 317.1 134.104 317.03 133.724 317.03C133.344 317.03 132.999 317.115 132.689 317.285C132.389 317.445 132.149 317.69 131.969 318.02C131.799 318.34 131.714 318.735 131.714 319.205V319.355C131.714 319.825 131.799 320.225 131.969 320.555C132.149 320.875 132.389 321.12 132.689 321.29C132.999 321.45 133.344 321.53 133.724 321.53C134.294 321.53 134.724 321.385 135.014 321.095C135.314 320.795 135.504 320.405 135.584 319.925L137.414 320.36C137.284 320.89 137.059 321.375 136.739 321.815C136.429 322.245 136.019 322.585 135.509 322.835C134.999 323.085 134.389 323.21 133.679 323.21ZM138.973 323V315.56H140.833V316.4H141.103C141.213 316.1 141.393 315.88 141.643 315.74C141.903 315.6 142.203 315.53 142.543 315.53H143.443V317.21H142.513C142.033 317.21 141.638 317.34 141.328 317.6C141.018 317.85 140.863 318.24 140.863 318.77V323H138.973ZM148.046 323.21C147.306 323.21 146.651 323.055 146.081 322.745C145.521 322.425 145.081 321.98 144.761 321.41C144.451 320.83 144.296 320.15 144.296 319.37V319.19C144.296 318.41 144.451 317.735 144.761 317.165C145.071 316.585 145.506 316.14 146.066 315.83C146.626 315.51 147.276 315.35 148.016 315.35C148.746 315.35 149.381 315.515 149.921 315.845C150.461 316.165 150.881 316.615 151.181 317.195C151.481 317.765 151.631 318.43 151.631 319.19V319.835H146.216C146.236 320.345 146.426 320.76 146.786 321.08C147.146 321.4 147.586 321.56 148.106 321.56C148.636 321.56 149.026 321.445 149.276 321.215C149.526 320.985 149.716 320.73 149.846 320.45L151.391 321.26C151.251 321.52 151.046 321.805 150.776 322.115C150.516 322.415 150.166 322.675 149.726 322.895C149.286 323.105 148.726 323.21 148.046 323.21ZM146.231 318.425H149.711C149.671 317.995 149.496 317.65 149.186 317.39C148.886 317.13 148.491 317 148.001 317C147.491 317 147.086 317.13 146.786 317.39C146.486 317.65 146.301 317.995 146.231 318.425ZM156.314 323.21C155.724 323.21 155.169 323.065 154.649 322.775C154.139 322.475 153.729 322.04 153.419 321.47C153.109 320.9 152.954 320.21 152.954 319.4V319.16C152.954 318.35 153.109 317.66 153.419 317.09C153.729 316.52 154.139 316.09 154.649 315.8C155.159 315.5 155.714 315.35 156.314 315.35C156.764 315.35 157.139 315.405 157.439 315.515C157.749 315.615 157.999 315.745 158.189 315.905C158.379 316.065 158.524 316.235 158.624 316.415H158.894V312.5H160.784V323H158.924V322.1H158.654C158.484 322.38 158.219 322.635 157.859 322.865C157.509 323.095 156.994 323.21 156.314 323.21ZM156.884 321.56C157.464 321.56 157.949 321.375 158.339 321.005C158.729 320.625 158.924 320.075 158.924 319.355V319.205C158.924 318.485 158.729 317.94 158.339 317.57C157.959 317.19 157.474 317 156.884 317C156.304 317 155.819 317.19 155.429 317.57C155.039 317.94 154.844 318.485 154.844 319.205V319.355C154.844 320.075 155.039 320.625 155.429 321.005C155.819 321.375 156.304 321.56 156.884 321.56ZM166.269 323.21C165.529 323.21 164.874 323.055 164.304 322.745C163.744 322.425 163.304 321.98 162.984 321.41C162.674 320.83 162.519 320.15 162.519 319.37V319.19C162.519 318.41 162.674 317.735 162.984 317.165C163.294 316.585 163.729 316.14 164.289 315.83C164.849 315.51 165.499 315.35 166.239 315.35C166.969 315.35 167.604 315.515 168.144 315.845C168.684 316.165 169.104 316.615 169.404 317.195C169.704 317.765 169.854 318.43 169.854 319.19V319.835H164.439C164.459 320.345 164.649 320.76 165.009 321.08C165.369 321.4 165.809 321.56 166.329 321.56C166.859 321.56 167.249 321.445 167.499 321.215C167.749 320.985 167.939 320.73 168.069 320.45L169.614 321.26C169.474 321.52 169.269 321.805 168.999 322.115C168.739 322.415 168.389 322.675 167.949 322.895C167.509 323.105 166.949 323.21 166.269 323.21ZM164.454 318.425H167.934C167.894 317.995 167.719 317.65 167.409 317.39C167.109 317.13 166.714 317 166.224 317C165.714 317 165.309 317.13 165.009 317.39C164.709 317.65 164.524 317.995 164.454 318.425ZM171.536 323V315.56H173.396V316.535H173.666C173.786 316.275 174.011 316.03 174.341 315.8C174.671 315.56 175.171 315.44 175.841 315.44C176.421 315.44 176.926 315.575 177.356 315.845C177.796 316.105 178.136 316.47 178.376 316.94C178.616 317.4 178.736 317.94 178.736 318.56V323H176.846V318.71C176.846 318.15 176.706 317.73 176.426 317.45C176.156 317.17 175.766 317.03 175.256 317.03C174.676 317.03 174.226 317.225 173.906 317.615C173.586 317.995 173.426 318.53 173.426 319.22V323H171.536ZM183.424 323C182.934 323 182.534 322.85 182.224 322.55C181.924 322.24 181.774 321.83 181.774 321.32V317.12H179.914V315.56H181.774V313.25H183.664V315.56H185.704V317.12H183.664V320.99C183.664 321.29 183.804 321.44 184.084 321.44H185.524V323H183.424ZM187.415 323V315.56H189.305V323H187.415ZM188.36 314.69C188.02 314.69 187.73 314.58 187.49 314.36C187.26 314.14 187.145 313.85 187.145 313.49C187.145 313.13 187.26 312.84 187.49 312.62C187.73 312.4 188.02 312.29 188.36 312.29C188.71 312.29 189 312.4 189.23 312.62C189.46 312.84 189.575 313.13 189.575 313.49C189.575 313.85 189.46 314.14 189.23 314.36C189 314.58 188.71 314.69 188.36 314.69ZM193.71 323.21C193.18 323.21 192.705 323.12 192.285 322.94C191.865 322.75 191.53 322.48 191.28 322.13C191.04 321.77 190.92 321.335 190.92 320.825C190.92 320.315 191.04 319.89 191.28 319.55C191.53 319.2 191.87 318.94 192.3 318.77C192.74 318.59 193.24 318.5 193.8 318.5H195.84V318.08C195.84 317.73 195.73 317.445 195.51 317.225C195.29 316.995 194.94 316.88 194.46 316.88C193.99 316.88 193.64 316.99 193.41 317.21C193.18 317.42 193.03 317.695 192.96 318.035L191.22 317.45C191.34 317.07 191.53 316.725 191.79 316.415C192.06 316.095 192.415 315.84 192.855 315.65C193.305 315.45 193.85 315.35 194.49 315.35C195.47 315.35 196.245 315.595 196.815 316.085C197.385 316.575 197.67 317.285 197.67 318.215V320.99C197.67 321.29 197.81 321.44 198.09 321.44H198.69V323H197.43C197.06 323 196.755 322.91 196.515 322.73C196.275 322.55 196.155 322.31 196.155 322.01V321.995H195.87C195.83 322.115 195.74 322.275 195.6 322.475C195.46 322.665 195.24 322.835 194.94 322.985C194.64 323.135 194.23 323.21 193.71 323.21ZM194.04 321.68C194.57 321.68 195 321.535 195.33 321.245C195.67 320.945 195.84 320.55 195.84 320.06V319.91H193.935C193.585 319.91 193.31 319.985 193.11 320.135C192.91 320.285 192.81 320.495 192.81 320.765C192.81 321.035 192.915 321.255 193.125 321.425C193.335 321.595 193.64 321.68 194.04 321.68ZM200.071 323V312.5H201.961V323H200.071ZM207.146 323.21C206.176 323.21 205.381 323 204.761 322.58C204.141 322.16 203.766 321.56 203.636 320.78L205.376 320.33C205.446 320.68 205.561 320.955 205.721 321.155C205.891 321.355 206.096 321.5 206.336 321.59C206.586 321.67 206.856 321.71 207.146 321.71C207.586 321.71 207.911 321.635 208.121 321.485C208.331 321.325 208.436 321.13 208.436 320.9C208.436 320.67 208.336 320.495 208.136 320.375C207.936 320.245 207.616 320.14 207.176 320.06L206.756 319.985C206.236 319.885 205.761 319.75 205.331 319.58C204.901 319.4 204.556 319.155 204.296 318.845C204.036 318.535 203.906 318.135 203.906 317.645C203.906 316.905 204.176 316.34 204.716 315.95C205.256 315.55 205.966 315.35 206.846 315.35C207.676 315.35 208.366 315.535 208.916 315.905C209.466 316.275 209.826 316.76 209.996 317.36L208.241 317.9C208.161 317.52 207.996 317.25 207.746 317.09C207.506 316.93 207.206 316.85 206.846 316.85C206.486 316.85 206.211 316.915 206.021 317.045C205.831 317.165 205.736 317.335 205.736 317.555C205.736 317.795 205.836 317.975 206.036 318.095C206.236 318.205 206.506 318.29 206.846 318.35L207.266 318.425C207.826 318.525 208.331 318.66 208.781 318.83C209.241 318.99 209.601 319.225 209.861 319.535C210.131 319.835 210.266 320.245 210.266 320.765C210.266 321.545 209.981 322.15 209.411 322.58C208.851 323 208.096 323.21 207.146 323.21Z" fill="#1D1D1F"/>
<rect x="42" y="349" width="2" height="27" fill="#D9D9D9"/>
<path d="M35.756 410.168C35.148 410.168 34.604 410.06 34.124 409.844C33.644 409.628 33.264 409.304 32.984 408.872C32.712 408.432 32.576 407.884 32.576 407.228V406.976H33.572V407.228C33.572 407.924 33.776 408.444 34.184 408.788C34.592 409.124 35.116 409.292 35.756 409.292C36.412 409.292 36.912 409.144 37.256 408.848C37.6 408.552 37.772 408.18 37.772 407.732C37.772 407.42 37.692 407.172 37.532 406.988C37.38 406.804 37.164 406.656 36.884 406.544C36.604 406.424 36.276 406.32 35.9 406.232L35.276 406.076C34.788 405.948 34.356 405.792 33.98 405.608C33.604 405.424 33.308 405.184 33.092 404.888C32.884 404.584 32.78 404.196 32.78 403.724C32.78 403.252 32.896 402.844 33.128 402.5C33.368 402.156 33.7 401.892 34.124 401.708C34.556 401.524 35.052 401.432 35.612 401.432C36.18 401.432 36.688 401.532 37.136 401.732C37.592 401.924 37.948 402.212 38.204 402.596C38.468 402.972 38.6 403.448 38.6 404.024V404.528H37.604V404.024C37.604 403.616 37.516 403.288 37.34 403.04C37.172 402.792 36.936 402.608 36.632 402.488C36.336 402.368 35.996 402.308 35.612 402.308C35.06 402.308 34.616 402.432 34.28 402.68C33.944 402.92 33.776 403.264 33.776 403.712C33.776 404.008 33.848 404.248 33.992 404.432C34.136 404.616 34.34 404.768 34.604 404.888C34.868 405 35.184 405.1 35.552 405.188L36.176 405.344C36.664 405.448 37.1 405.592 37.484 405.776C37.876 405.952 38.188 406.196 38.42 406.508C38.652 406.812 38.768 407.212 38.768 407.708C38.768 408.204 38.644 408.636 38.396 409.004C38.148 409.372 37.796 409.66 37.34 409.868C36.892 410.068 36.364 410.168 35.756 410.168ZM42.5154 410C42.1794 410 41.9194 409.908 41.7354 409.724C41.5594 409.54 41.4714 409.288 41.4714 408.968V404.96H39.7074V404.132H41.4714V402.044H42.4194V404.132H44.3394V404.96H42.4194V408.824C42.4194 409.064 42.5354 409.184 42.7674 409.184H44.0754V410H42.5154ZM48.352 410.168C47.76 410.168 47.24 410.044 46.792 409.796C46.344 409.54 45.996 409.184 45.748 408.728C45.5 408.272 45.376 407.744 45.376 407.144V407C45.376 406.392 45.5 405.86 45.748 405.404C45.996 404.948 46.34 404.596 46.78 404.348C47.22 404.092 47.724 403.964 48.292 403.964C48.844 403.964 49.332 404.084 49.756 404.324C50.18 404.556 50.512 404.892 50.752 405.332C50.992 405.772 51.112 406.288 51.112 406.88V407.312H46.324C46.348 407.944 46.552 408.44 46.936 408.8C47.32 409.152 47.8 409.328 48.376 409.328C48.88 409.328 49.268 409.212 49.54 408.98C49.812 408.748 50.02 408.472 50.164 408.152L50.98 408.548C50.86 408.796 50.692 409.044 50.476 409.292C50.268 409.54 49.992 409.748 49.648 409.916C49.312 410.084 48.88 410.168 48.352 410.168ZM46.336 406.532H50.152C50.12 405.988 49.932 405.564 49.588 405.26C49.252 404.956 48.82 404.804 48.292 404.804C47.756 404.804 47.316 404.956 46.972 405.26C46.628 405.564 46.416 405.988 46.336 406.532ZM52.7655 412.4V404.132H53.6895V405.104H53.8575C54.0095 404.808 54.2535 404.544 54.5895 404.312C54.9335 404.08 55.4095 403.964 56.0175 403.964C56.5215 403.964 56.9815 404.088 57.3975 404.336C57.8215 404.576 58.1575 404.92 58.4055 405.368C58.6615 405.816 58.7895 406.356 58.7895 406.988V407.144C58.7895 407.768 58.6655 408.308 58.4175 408.764C58.1695 409.22 57.8335 409.568 57.4095 409.808C56.9935 410.048 56.5295 410.168 56.0175 410.168C55.6095 410.168 55.2615 410.112 54.9735 410C54.6935 409.896 54.4655 409.76 54.2895 409.592C54.1135 409.424 53.9775 409.252 53.8815 409.076H53.7135V412.4H52.7655ZM55.7655 409.328C56.3735 409.328 56.8655 409.136 57.2415 408.752C57.6255 408.36 57.8175 407.816 57.8175 407.12V407.012C57.8175 406.316 57.6255 405.776 57.2415 405.392C56.8655 405 56.3735 404.804 55.7655 404.804C55.1655 404.804 54.6695 405 54.2775 405.392C53.8935 405.776 53.7015 406.316 53.7015 407.012V407.12C53.7015 407.816 53.8935 408.36 54.2775 408.752C54.6695 409.136 55.1655 409.328 55.7655 409.328ZM67.3382 410V408.284H62.9582V407.132L66.4862 401.6H68.3102V407.408H69.7502V408.284H68.3102V410H67.3382ZM63.9302 407.408H67.3382V402.188H67.1702L63.9302 407.264V407.408Z" fill="#797979"/>
<path d="M36.98 433.21C35.68 433.21 34.65 432.85 33.89 432.13C33.13 431.4 32.75 430.36 32.75 429.01V426.49C32.75 425.14 33.13 424.105 33.89 423.385C34.65 422.655 35.68 422.29 36.98 422.29C38.27 422.29 39.265 422.645 39.965 423.355C40.675 424.055 41.03 425.02 41.03 426.25V426.34H39.08V426.19C39.08 425.57 38.905 425.06 38.555 424.66C38.215 424.26 37.69 424.06 36.98 424.06C36.28 424.06 35.73 424.275 35.33 424.705C34.93 425.135 34.73 425.72 34.73 426.46V429.04C34.73 429.77 34.93 430.355 35.33 430.795C35.73 431.225 36.28 431.44 36.98 431.44C37.69 431.44 38.215 431.24 38.555 430.84C38.905 430.43 39.08 429.92 39.08 429.31V429.04H41.03V429.25C41.03 430.48 40.675 431.45 39.965 432.16C39.265 432.86 38.27 433.21 36.98 433.21ZM42.7033 433V422.5H44.5933V426.475H44.8633C44.9433 426.315 45.0683 426.155 45.2383 425.995C45.4083 425.835 45.6333 425.705 45.9133 425.605C46.2033 425.495 46.5683 425.44 47.0083 425.44C47.5883 425.44 48.0933 425.575 48.5233 425.845C48.9633 426.105 49.3033 426.47 49.5433 426.94C49.7833 427.4 49.9033 427.94 49.9033 428.56V433H48.0133V428.71C48.0133 428.15 47.8733 427.73 47.5933 427.45C47.3233 427.17 46.9333 427.03 46.4233 427.03C45.8433 427.03 45.3933 427.225 45.0733 427.615C44.7533 427.995 44.5933 428.53 44.5933 429.22V433H42.7033ZM55.3365 433.21C54.5965 433.21 53.9415 433.055 53.3715 432.745C52.8115 432.425 52.3715 431.98 52.0515 431.41C51.7415 430.83 51.5865 430.15 51.5865 429.37V429.19C51.5865 428.41 51.7415 427.735 52.0515 427.165C52.3615 426.585 52.7965 426.14 53.3565 425.83C53.9165 425.51 54.5665 425.35 55.3065 425.35C56.0365 425.35 56.6715 425.515 57.2115 425.845C57.7515 426.165 58.1715 426.615 58.4715 427.195C58.7715 427.765 58.9215 428.43 58.9215 429.19V429.835H53.5065C53.5265 430.345 53.7165 430.76 54.0765 431.08C54.4365 431.4 54.8765 431.56 55.3965 431.56C55.9265 431.56 56.3165 431.445 56.5665 431.215C56.8165 430.985 57.0065 430.73 57.1365 430.45L58.6815 431.26C58.5415 431.52 58.3365 431.805 58.0665 432.115C57.8065 432.415 57.4565 432.675 57.0165 432.895C56.5765 433.105 56.0165 433.21 55.3365 433.21ZM53.5215 428.425H57.0015C56.9615 427.995 56.7865 427.65 56.4765 427.39C56.1765 427.13 55.7815 427 55.2915 427C54.7815 427 54.3765 427.13 54.0765 427.39C53.7765 427.65 53.5915 427.995 53.5215 428.425ZM64.0987 433.21C63.3787 433.21 62.7237 433.06 62.1337 432.76C61.5537 432.46 61.0937 432.025 60.7537 431.455C60.4137 430.885 60.2437 430.195 60.2437 429.385V429.175C60.2437 428.365 60.4137 427.675 60.7537 427.105C61.0937 426.535 61.5537 426.1 62.1337 425.8C62.7237 425.5 63.3787 425.35 64.0987 425.35C64.8087 425.35 65.4187 425.475 65.9287 425.725C66.4387 425.975 66.8487 426.32 67.1587 426.76C67.4787 427.19 67.6887 427.68 67.7887 428.23L65.9587 428.62C65.9187 428.32 65.8287 428.05 65.6887 427.81C65.5487 427.57 65.3487 427.38 65.0887 427.24C64.8387 427.1 64.5237 427.03 64.1437 427.03C63.7637 427.03 63.4187 427.115 63.1087 427.285C62.8087 427.445 62.5687 427.69 62.3887 428.02C62.2187 428.34 62.1337 428.735 62.1337 429.205V429.355C62.1337 429.825 62.2187 430.225 62.3887 430.555C62.5687 430.875 62.8087 431.12 63.1087 431.29C63.4187 431.45 63.7637 431.53 64.1437 431.53C64.7137 431.53 65.1437 431.385 65.4337 431.095C65.7337 430.795 65.9237 430.405 66.0037 429.925L67.8337 430.36C67.7037 430.89 67.4787 431.375 67.1587 431.815C66.8487 432.245 66.4387 432.585 65.9287 432.835C65.4187 433.085 64.8087 433.21 64.0987 433.21ZM69.3928 433V422.5H71.2828V428.305H71.5528L74.0128 425.56H76.4728L73.0378 429.16L76.5928 433H74.1628L71.5528 430.045H71.2828V433H69.3928ZM85.0582 433.21C84.3182 433.21 83.6632 433.055 83.0932 432.745C82.5332 432.425 82.0932 431.98 81.7732 431.41C81.4632 430.83 81.3082 430.15 81.3082 429.37V429.19C81.3082 428.41 81.4632 427.735 81.7732 427.165C82.0832 426.585 82.5182 426.14 83.0782 425.83C83.6382 425.51 84.2882 425.35 85.0282 425.35C85.7582 425.35 86.3932 425.515 86.9332 425.845C87.4732 426.165 87.8932 426.615 88.1932 427.195C88.4932 427.765 88.6432 428.43 88.6432 429.19V429.835H83.2282C83.2482 430.345 83.4382 430.76 83.7982 431.08C84.1582 431.4 84.5982 431.56 85.1182 431.56C85.6482 431.56 86.0382 431.445 86.2882 431.215C86.5382 430.985 86.7282 430.73 86.8582 430.45L88.4032 431.26C88.2632 431.52 88.0582 431.805 87.7882 432.115C87.5282 432.415 87.1782 432.675 86.7382 432.895C86.2982 433.105 85.7382 433.21 85.0582 433.21ZM83.2432 428.425H86.7232C86.6832 427.995 86.5082 427.65 86.1982 427.39C85.8982 427.13 85.5032 427 85.0132 427C84.5032 427 84.0982 427.13 83.7982 427.39C83.4982 427.65 83.3132 427.995 83.2432 428.425ZM90.3254 433V422.5H92.2154V433H90.3254ZM94.3098 433V425.56H96.1998V433H94.3098ZM95.2548 424.69C94.9148 424.69 94.6248 424.58 94.3848 424.36C94.1548 424.14 94.0398 423.85 94.0398 423.49C94.0398 423.13 94.1548 422.84 94.3848 422.62C94.6248 422.4 94.9148 422.29 95.2548 422.29C95.6048 422.29 95.8948 422.4 96.1248 422.62C96.3548 422.84 96.4698 423.13 96.4698 423.49C96.4698 423.85 96.3548 424.14 96.1248 424.36C95.8948 424.58 95.6048 424.69 95.2548 424.69ZM97.9341 429.31V429.07C97.9341 428.29 98.0891 427.625 98.3991 427.075C98.7091 426.515 99.1191 426.09 99.6291 425.8C100.149 425.5 100.714 425.35 101.324 425.35C102.004 425.35 102.519 425.47 102.869 425.71C103.219 425.95 103.474 426.2 103.634 426.46H103.904V425.56H105.764V434.32C105.764 434.83 105.614 435.235 105.314 435.535C105.014 435.845 104.614 436 104.114 436H99.1341V434.35H103.454C103.734 434.35 103.874 434.2 103.874 433.9V431.965H103.604C103.504 432.125 103.364 432.29 103.184 432.46C103.004 432.62 102.764 432.755 102.464 432.865C102.164 432.975 101.784 433.03 101.324 433.03C100.714 433.03 100.149 432.885 99.6291 432.595C99.1191 432.295 98.7091 431.87 98.3991 431.32C98.0891 430.76 97.9341 430.09 97.9341 429.31ZM101.864 431.38C102.444 431.38 102.929 431.195 103.319 430.825C103.709 430.455 103.904 429.935 103.904 429.265V429.115C103.904 428.435 103.709 427.915 103.319 427.555C102.939 427.185 102.454 427 101.864 427C101.284 427 100.799 427.185 100.409 427.555C100.019 427.915 99.8241 428.435 99.8241 429.115V429.265C99.8241 429.935 100.019 430.455 100.409 430.825C100.799 431.195 101.284 431.38 101.864 431.38ZM107.86 433V425.56H109.75V433H107.86ZM108.805 424.69C108.465 424.69 108.175 424.58 107.935 424.36C107.705 424.14 107.59 423.85 107.59 423.49C107.59 423.13 107.705 422.84 107.935 422.62C108.175 422.4 108.465 422.29 108.805 422.29C109.155 422.29 109.445 422.4 109.675 422.62C109.905 422.84 110.02 423.13 110.02 423.49C110.02 423.85 109.905 424.14 109.675 424.36C109.445 424.58 109.155 424.69 108.805 424.69ZM116.314 433.21C115.644 433.21 115.129 433.095 114.769 432.865C114.409 432.635 114.144 432.38 113.974 432.1H113.704V433H111.844V422.5H113.734V426.415H114.004C114.114 426.235 114.259 426.065 114.439 425.905C114.629 425.745 114.874 425.615 115.174 425.515C115.484 425.405 115.864 425.35 116.314 425.35C116.914 425.35 117.469 425.5 117.979 425.8C118.489 426.09 118.899 426.52 119.209 427.09C119.519 427.66 119.674 428.35 119.674 429.16V429.4C119.674 430.21 119.519 430.9 119.209 431.47C118.899 432.04 118.489 432.475 117.979 432.775C117.469 433.065 116.914 433.21 116.314 433.21ZM115.744 431.56C116.324 431.56 116.809 431.375 117.199 431.005C117.589 430.625 117.784 430.075 117.784 429.355V429.205C117.784 428.485 117.589 427.94 117.199 427.57C116.819 427.19 116.334 427 115.744 427C115.164 427 114.679 427.19 114.289 427.57C113.899 427.94 113.704 428.485 113.704 429.205V429.355C113.704 430.075 113.899 430.625 114.289 431.005C114.679 431.375 115.164 431.56 115.744 431.56ZM121.409 433V425.56H123.299V433H121.409ZM122.354 424.69C122.014 424.69 121.724 424.58 121.484 424.36C121.254 424.14 121.139 423.85 121.139 423.49C121.139 423.13 121.254 422.84 121.484 422.62C121.724 422.4 122.014 422.29 122.354 422.29C122.704 422.29 122.994 422.4 123.224 422.62C123.454 422.84 123.569 423.13 123.569 423.49C123.569 423.85 123.454 424.14 123.224 424.36C122.994 424.58 122.704 424.69 122.354 424.69ZM125.394 433V422.5H127.284V433H125.394ZM129.378 433V425.56H131.268V433H129.378ZM130.323 424.69C129.983 424.69 129.693 424.58 129.453 424.36C129.223 424.14 129.108 423.85 129.108 423.49C129.108 423.13 129.223 422.84 129.453 422.62C129.693 422.4 129.983 422.29 130.323 422.29C130.673 422.29 130.963 422.4 131.193 422.62C131.423 422.84 131.538 423.13 131.538 423.49C131.538 423.85 131.423 424.14 131.193 424.36C130.963 424.58 130.673 424.69 130.323 424.69ZM136.213 433C135.723 433 135.323 432.85 135.013 432.55C134.713 432.24 134.563 431.83 134.563 431.32V427.12H132.703V425.56H134.563V423.25H136.453V425.56H138.493V427.12H136.453V430.99C136.453 431.29 136.593 431.44 136.873 431.44H138.313V433H136.213ZM141.013 436V434.35H145.063C145.343 434.35 145.483 434.2 145.483 433.9V432.025H145.213C145.133 432.195 145.008 432.365 144.838 432.535C144.668 432.705 144.438 432.845 144.148 432.955C143.858 433.065 143.488 433.12 143.038 433.12C142.458 433.12 141.948 432.99 141.508 432.73C141.078 432.46 140.743 432.09 140.503 431.62C140.263 431.15 140.143 430.61 140.143 430V425.56H142.033V429.85C142.033 430.41 142.168 430.83 142.438 431.11C142.718 431.39 143.113 431.53 143.623 431.53C144.203 431.53 144.653 431.34 144.973 430.96C145.293 430.57 145.453 430.03 145.453 429.34V425.56H147.343V434.32C147.343 434.83 147.193 435.235 146.893 435.535C146.593 435.845 146.193 436 145.693 436H141.013Z" fill="#1D1D1F"/>
<defs>
<filter id="filter0_d_1177_4419" x="4" y="4" width="334" height="103" filterUnits="userSpaceOnUse" color-interpolation-filters="sRGB">
<feFlood flood-opacity="0" result="BackgroundImageFix"/>
<feColorMatrix in="SourceAlpha" type="matrix" values="0 0 0 0 0 0 0 0 0 0 0 0 0 0 0 0 0 0 127 0" result="hardAlpha"/>
<feOffset/>
<feGaussianBlur stdDeviation="2"/>
<feComposite in2="hardAlpha" operator="out"/>
<feColorMatrix type="matrix" values="0 0 0 0 0 0 0 0 0 0 0 0 0 0 0 0 0 0 0.15 0"/>
<feBlend mode="normal" in2="BackgroundImageFix" result="effect1_dropShadow_1177_4419"/>
<feBlend mode="normal" in="SourceGraphic" in2="effect1_dropShadow_1177_4419" result="shape"/>
</filter>
</defs>
</svg>
