<svg width="366" height="176" viewBox="0 0 366 176" fill="none" xmlns="http://www.w3.org/2000/svg">
<g filter="url(#filter0_d_704_1346)">
<g clip-path="url(#clip0_704_1346)">
<rect x="8" y="8" width="350" height="160" rx="24" fill="white"/>
<path d="M32.35 58L35.374 48.2H37.446L40.47 58H39.252L38.496 55.522H34.324L33.568 58H32.35ZM34.618 54.458H38.188L36.508 48.914H36.312L34.618 54.458ZM45.1304 58.196C44.4677 58.196 43.8704 58.056 43.3384 57.776C42.8157 57.4867 42.4004 57.076 42.0924 56.544C41.7937 56.012 41.6444 55.382 41.6444 54.654V54.5C41.6444 53.7627 41.7937 53.1327 42.0924 52.61C42.4004 52.078 42.8157 51.672 43.3384 51.392C43.8704 51.1027 44.4677 50.958 45.1304 50.958C45.7837 50.958 46.339 51.0793 46.7964 51.322C47.263 51.5647 47.627 51.8867 47.8884 52.288C48.159 52.6893 48.3317 53.1187 48.4064 53.576L47.3284 53.8C47.2817 53.464 47.1697 53.156 46.9924 52.876C46.8244 52.596 46.5864 52.372 46.2784 52.204C45.9704 52.036 45.5924 51.952 45.1444 51.952C44.687 51.952 44.2764 52.0547 43.9124 52.26C43.5577 52.4653 43.273 52.7593 43.0584 53.142C42.853 53.5247 42.7504 53.982 42.7504 54.514V54.64C42.7504 55.172 42.853 55.6293 43.0584 56.012C43.273 56.3947 43.5577 56.6887 43.9124 56.894C44.2764 57.0993 44.687 57.202 45.1444 57.202C45.8257 57.202 46.3437 57.0247 46.6984 56.67C47.0624 56.3153 47.2864 55.8767 47.3704 55.354L48.4624 55.592C48.3597 56.04 48.173 56.4647 47.9024 56.866C47.6317 57.2673 47.263 57.5893 46.7964 57.832C46.339 58.0747 45.7837 58.196 45.1304 58.196ZM53.4975 58.196C52.8349 58.196 52.2375 58.056 51.7055 57.776C51.1829 57.4867 50.7675 57.076 50.4595 56.544C50.1609 56.012 50.0115 55.382 50.0115 54.654V54.5C50.0115 53.7627 50.1609 53.1327 50.4595 52.61C50.7675 52.078 51.1829 51.672 51.7055 51.392C52.2375 51.1027 52.8349 50.958 53.4975 50.958C54.1509 50.958 54.7062 51.0793 55.1635 51.322C55.6302 51.5647 55.9942 51.8867 56.2555 52.288C56.5262 52.6893 56.6989 53.1187 56.7735 53.576L55.6955 53.8C55.6489 53.464 55.5369 53.156 55.3595 52.876C55.1915 52.596 54.9535 52.372 54.6455 52.204C54.3375 52.036 53.9595 51.952 53.5115 51.952C53.0542 51.952 52.6435 52.0547 52.2795 52.26C51.9249 52.4653 51.6402 52.7593 51.4255 53.142C51.2202 53.5247 51.1175 53.982 51.1175 54.514V54.64C51.1175 55.172 51.2202 55.6293 51.4255 56.012C51.6402 56.3947 51.9249 56.6887 52.2795 56.894C52.6435 57.0993 53.0542 57.202 53.5115 57.202C54.1929 57.202 54.7109 57.0247 55.0655 56.67C55.4295 56.3153 55.6535 55.8767 55.7375 55.354L56.8295 55.592C56.7269 56.04 56.5402 56.4647 56.2695 56.866C55.9989 57.2673 55.6302 57.5893 55.1635 57.832C54.7062 58.0747 54.1509 58.196 53.4975 58.196ZM61.8787 58.196C61.1881 58.196 60.5767 58.0513 60.0447 57.762C59.5221 57.4727 59.1114 57.0667 58.8127 56.544C58.5234 56.012 58.3787 55.3867 58.3787 54.668V54.486C58.3787 53.7767 58.5234 53.156 58.8127 52.624C59.1114 52.092 59.5221 51.6813 60.0447 51.392C60.5767 51.1027 61.1881 50.958 61.8787 50.958C62.5694 50.958 63.1761 51.1027 63.6987 51.392C64.2307 51.6813 64.6414 52.092 64.9307 52.624C65.2294 53.156 65.3787 53.7767 65.3787 54.486V54.668C65.3787 55.3867 65.2294 56.012 64.9307 56.544C64.6414 57.0667 64.2307 57.4727 63.6987 57.762C63.1761 58.0513 62.5694 58.196 61.8787 58.196ZM61.8787 57.202C62.6067 57.202 63.1854 56.9733 63.6147 56.516C64.0534 56.0493 64.2727 55.424 64.2727 54.64V54.514C64.2727 53.73 64.0534 53.1093 63.6147 52.652C63.1854 52.1853 62.6067 51.952 61.8787 51.952C61.1601 51.952 60.5814 52.1853 60.1427 52.652C59.7041 53.1093 59.4847 53.73 59.4847 54.514V54.64C59.4847 55.424 59.7041 56.0493 60.1427 56.516C60.5814 56.9733 61.1601 57.202 61.8787 57.202ZM69.987 58.126C69.4924 58.126 69.035 58.0187 68.615 57.804C68.2044 57.5893 67.8777 57.272 67.635 56.852C67.4017 56.4227 67.285 55.9047 67.285 55.298V51.154H68.391V55.214C68.391 55.8953 68.559 56.39 68.895 56.698C69.2404 57.006 69.7024 57.16 70.281 57.16C70.9344 57.16 71.471 56.9453 71.891 56.516C72.311 56.0867 72.521 55.4473 72.521 54.598V51.154H73.627V58H72.549V56.838H72.353C72.2037 57.1647 71.947 57.4633 71.583 57.734C71.219 57.9953 70.687 58.126 69.987 58.126ZM75.9413 58V51.154H77.0193V52.316H77.2153C77.3646 51.9893 77.6166 51.6953 77.9713 51.434C78.3353 51.1633 78.8673 51.028 79.5673 51.028C80.0806 51.028 80.538 51.1353 80.9393 51.35C81.35 51.5647 81.6766 51.882 81.9193 52.302C82.162 52.722 82.2833 53.24 82.2833 53.856V58H81.1773V53.94C81.1773 53.2587 81.0046 52.764 80.6593 52.456C80.3233 52.148 79.866 51.994 79.2873 51.994C78.6246 51.994 78.0833 52.2087 77.6633 52.638C77.2526 53.0673 77.0473 53.7067 77.0473 54.556V58H75.9413ZM86.8558 58C86.4638 58 86.1605 57.8927 85.9458 57.678C85.7405 57.4633 85.6378 57.1693 85.6378 56.796V52.12H83.5798V51.154H85.6378V48.718H86.7438V51.154H88.9838V52.12H86.7438V56.628C86.7438 56.908 86.8792 57.048 87.1498 57.048H88.6758V58H86.8558ZM93.3813 58L96.4053 48.2H98.4773L101.501 58H100.283L99.5273 55.522H95.3553L94.5993 58H93.3813ZM95.6493 54.458H99.2193L97.5393 48.914H97.3433L95.6493 54.458ZM105.91 58.196C105.322 58.196 104.78 58.056 104.286 57.776C103.791 57.496 103.399 57.09 103.11 56.558C102.82 56.026 102.676 55.396 102.676 54.668V54.486C102.676 53.758 102.82 53.1327 103.11 52.61C103.399 52.078 103.786 51.672 104.272 51.392C104.766 51.1027 105.312 50.958 105.91 50.958C106.386 50.958 106.787 51.0233 107.114 51.154C107.45 51.2753 107.72 51.434 107.926 51.63C108.131 51.8167 108.29 52.0173 108.402 52.232H108.598V48.2H109.704V58H108.626V56.866H108.43C108.243 57.2113 107.954 57.5193 107.562 57.79C107.17 58.0607 106.619 58.196 105.91 58.196ZM106.204 57.216C106.913 57.216 107.487 56.992 107.926 56.544C108.374 56.0867 108.598 55.452 108.598 54.64V54.514C108.598 53.702 108.374 53.072 107.926 52.624C107.487 52.1667 106.913 51.938 106.204 51.938C105.504 51.938 104.925 52.1667 104.468 52.624C104.02 53.072 103.796 53.702 103.796 54.514V54.64C103.796 55.452 104.02 56.0867 104.468 56.544C104.925 56.992 105.504 57.216 106.204 57.216ZM114.919 58.196C114.331 58.196 113.79 58.056 113.295 57.776C112.801 57.496 112.409 57.09 112.119 56.558C111.83 56.026 111.685 55.396 111.685 54.668V54.486C111.685 53.758 111.83 53.1327 112.119 52.61C112.409 52.078 112.796 51.672 113.281 51.392C113.776 51.1027 114.322 50.958 114.919 50.958C115.395 50.958 115.797 51.0233 116.123 51.154C116.459 51.2753 116.73 51.434 116.935 51.63C117.141 51.8167 117.299 52.0173 117.411 52.232H117.607V48.2H118.713V58H117.635V56.866H117.439C117.253 57.2113 116.963 57.5193 116.571 57.79C116.179 58.0607 115.629 58.196 114.919 58.196ZM115.213 57.216C115.923 57.216 116.497 56.992 116.935 56.544C117.383 56.0867 117.607 55.452 117.607 54.64V54.514C117.607 53.702 117.383 53.072 116.935 52.624C116.497 52.1667 115.923 51.938 115.213 51.938C114.513 51.938 113.935 52.1667 113.477 52.624C113.029 53.072 112.805 53.702 112.805 54.514V54.64C112.805 55.452 113.029 56.0867 113.477 56.544C113.935 56.992 114.513 57.216 115.213 57.216ZM121.031 58V51.154H122.109V51.994H122.305C122.426 51.6953 122.613 51.476 122.865 51.336C123.117 51.196 123.448 51.126 123.859 51.126H124.671V52.134H123.789C123.294 52.134 122.893 52.274 122.585 52.554C122.286 52.8247 122.137 53.2493 122.137 53.828V58H121.031ZM129.198 58.196C128.508 58.196 127.901 58.0513 127.378 57.762C126.856 57.4633 126.45 57.048 126.16 56.516C125.871 55.984 125.726 55.368 125.726 54.668V54.5C125.726 53.7907 125.871 53.17 126.16 52.638C126.45 52.106 126.851 51.6953 127.364 51.406C127.878 51.1073 128.466 50.958 129.128 50.958C129.772 50.958 130.342 51.098 130.836 51.378C131.331 51.6487 131.718 52.0407 131.998 52.554C132.278 53.0673 132.418 53.6693 132.418 54.36V54.864H126.832C126.86 55.6013 127.098 56.18 127.546 56.6C127.994 57.0107 128.554 57.216 129.226 57.216C129.814 57.216 130.267 57.0807 130.584 56.81C130.902 56.5393 131.144 56.2173 131.312 55.844L132.264 56.306C132.124 56.5953 131.928 56.8847 131.676 57.174C131.434 57.4633 131.112 57.706 130.71 57.902C130.318 58.098 129.814 58.196 129.198 58.196ZM126.846 53.954H131.298C131.261 53.3193 131.042 52.8247 130.64 52.47C130.248 52.1153 129.744 51.938 129.128 51.938C128.503 51.938 127.99 52.1153 127.588 52.47C127.187 52.8247 126.94 53.3193 126.846 53.954ZM137.106 58.196C136.256 58.196 135.538 58 134.95 57.608C134.371 57.216 134.021 56.5953 133.9 55.746L134.95 55.508C135.024 55.956 135.164 56.3107 135.37 56.572C135.575 56.824 135.827 57.006 136.126 57.118C136.434 57.2207 136.76 57.272 137.106 57.272C137.619 57.272 138.025 57.1693 138.324 56.964C138.622 56.7587 138.772 56.4833 138.772 56.138C138.772 55.7833 138.627 55.536 138.338 55.396C138.058 55.2467 137.67 55.1253 137.176 55.032L136.602 54.934C136.163 54.8593 135.762 54.7427 135.398 54.584C135.034 54.4253 134.744 54.2107 134.53 53.94C134.315 53.6693 134.208 53.3287 134.208 52.918C134.208 52.302 134.446 51.8213 134.922 51.476C135.398 51.1307 136.028 50.958 136.812 50.958C137.586 50.958 138.212 51.1353 138.688 51.49C139.173 51.8353 139.486 52.3253 139.626 52.96L138.59 53.226C138.506 52.7313 138.305 52.386 137.988 52.19C137.67 51.9847 137.278 51.882 136.812 51.882C136.345 51.882 135.976 51.9707 135.706 52.148C135.435 52.316 135.3 52.568 135.3 52.904C135.3 53.2307 135.426 53.4733 135.678 53.632C135.939 53.7813 136.284 53.8933 136.714 53.968L137.288 54.066C137.773 54.15 138.207 54.2667 138.59 54.416C138.982 54.556 139.29 54.7613 139.514 55.032C139.747 55.3027 139.864 55.6573 139.864 56.096C139.864 56.768 139.612 57.286 139.108 57.65C138.613 58.014 137.946 58.196 137.106 58.196ZM144.488 58.196C143.639 58.196 142.92 58 142.332 57.608C141.754 57.216 141.404 56.5953 141.282 55.746L142.332 55.508C142.407 55.956 142.547 56.3107 142.752 56.572C142.958 56.824 143.21 57.006 143.508 57.118C143.816 57.2207 144.143 57.272 144.488 57.272C145.002 57.272 145.408 57.1693 145.706 56.964C146.005 56.7587 146.154 56.4833 146.154 56.138C146.154 55.7833 146.01 55.536 145.72 55.396C145.44 55.2467 145.053 55.1253 144.558 55.032L143.984 54.934C143.546 54.8593 143.144 54.7427 142.78 54.584C142.416 54.4253 142.127 54.2107 141.912 53.94C141.698 53.6693 141.59 53.3287 141.59 52.918C141.59 52.302 141.828 51.8213 142.304 51.476C142.78 51.1307 143.41 50.958 144.194 50.958C144.969 50.958 145.594 51.1353 146.07 51.49C146.556 51.8353 146.868 52.3253 147.008 52.96L145.972 53.226C145.888 52.7313 145.688 52.386 145.37 52.19C145.053 51.9847 144.661 51.882 144.194 51.882C143.728 51.882 143.359 51.9707 143.088 52.148C142.818 52.316 142.682 52.568 142.682 52.904C142.682 53.2307 142.808 53.4733 143.06 53.632C143.322 53.7813 143.667 53.8933 144.096 53.968L144.67 54.066C145.156 54.15 145.59 54.2667 145.972 54.416C146.364 54.556 146.672 54.7613 146.896 55.032C147.13 55.3027 147.246 55.6573 147.246 56.096C147.246 56.768 146.994 57.286 146.49 57.65C145.996 58.014 145.328 58.196 144.488 58.196Z" fill="#797979"/>
<path d="M33.4 82V72.08H35.88V73.38H36.24C36.4 73.0333 36.7 72.7067 37.14 72.4C37.58 72.08 38.2467 71.92 39.14 71.92C39.9133 71.92 40.5867 72.1 41.16 72.46C41.7467 72.8067 42.2 73.2933 42.52 73.92C42.84 74.5333 43 75.2533 43 76.08V82H40.48V76.28C40.48 75.5333 40.2933 74.9733 39.92 74.6C39.56 74.2267 39.04 74.04 38.36 74.04C37.5867 74.04 36.9867 74.3 36.56 74.82C36.1333 75.3267 35.92 76.04 35.92 76.96V82H33.4ZM48.6042 82.28C47.8976 82.28 47.2642 82.16 46.7042 81.92C46.1442 81.6667 45.6976 81.3067 45.3642 80.84C45.0442 80.36 44.8842 79.78 44.8842 79.1C44.8842 78.42 45.0442 77.8533 45.3642 77.4C45.6976 76.9333 46.1509 76.5867 46.7242 76.36C47.3109 76.12 47.9776 76 48.7242 76H51.4442V75.44C51.4442 74.9733 51.2976 74.5933 51.0042 74.3C50.7109 73.9933 50.2442 73.84 49.6042 73.84C48.9776 73.84 48.5109 73.9867 48.2042 74.28C47.8976 74.56 47.6976 74.9267 47.6042 75.38L45.2842 74.6C45.4442 74.0933 45.6976 73.6333 46.0442 73.22C46.4042 72.7933 46.8776 72.4533 47.4642 72.2C48.0642 71.9333 48.7909 71.8 49.6442 71.8C50.9509 71.8 51.9842 72.1267 52.7442 72.78C53.5042 73.4333 53.8842 74.38 53.8842 75.62V79.32C53.8842 79.72 54.0709 79.92 54.4442 79.92H55.2442V82H53.5642C53.0709 82 52.6642 81.88 52.3442 81.64C52.0242 81.4 51.8642 81.08 51.8642 80.68V80.66H51.4842C51.4309 80.82 51.3109 81.0333 51.1242 81.3C50.9376 81.5533 50.6442 81.78 50.2442 81.98C49.8442 82.18 49.2976 82.28 48.6042 82.28ZM49.0442 80.24C49.7509 80.24 50.3242 80.0467 50.7642 79.66C51.2176 79.26 51.4442 78.7333 51.4442 78.08V77.88H48.9042C48.4376 77.88 48.0709 77.98 47.8042 78.18C47.5376 78.38 47.4042 78.66 47.4042 79.02C47.4042 79.38 47.5442 79.6733 47.8242 79.9C48.1042 80.1267 48.5109 80.24 49.0442 80.24ZM56.8867 82V72.08H59.3667V73.38H59.7267C59.8867 73.0333 60.1867 72.7067 60.6267 72.4C61.0667 72.08 61.7334 71.92 62.6267 71.92C63.4001 71.92 64.0734 72.1 64.6467 72.46C65.2334 72.8067 65.6867 73.2933 66.0067 73.92C66.3267 74.5333 66.4867 75.2533 66.4867 76.08V82H63.9667V76.28C63.9667 75.5333 63.7801 74.9733 63.4067 74.6C63.0467 74.2267 62.5267 74.04 61.8467 74.04C61.0734 74.04 60.4734 74.3 60.0467 74.82C59.6201 75.3267 59.4067 76.04 59.4067 76.96V82H56.8867ZM73.0109 82.28C72.2243 82.28 71.4843 82.0867 70.7909 81.7C70.1109 81.3 69.5643 80.72 69.1509 79.96C68.7376 79.2 68.5309 78.28 68.5309 77.2V76.88C68.5309 75.8 68.7376 74.88 69.1509 74.12C69.5643 73.36 70.1109 72.7867 70.7909 72.4C71.4709 72 72.2109 71.8 73.0109 71.8C73.6109 71.8 74.1109 71.8733 74.5109 72.02C74.9243 72.1533 75.2576 72.3267 75.5109 72.54C75.7643 72.7533 75.9576 72.98 76.0909 73.22H76.4509V68H78.9709V82H76.4909V80.8H76.1309C75.9043 81.1733 75.5509 81.5133 75.0709 81.82C74.6043 82.1267 73.9176 82.28 73.0109 82.28ZM73.7709 80.08C74.5443 80.08 75.1909 79.8333 75.7109 79.34C76.2309 78.8333 76.4909 78.1 76.4909 77.14V76.94C76.4909 75.98 76.2309 75.2533 75.7109 74.76C75.2043 74.2533 74.5576 74 73.7709 74C72.9976 74 72.3509 74.2533 71.8309 74.76C71.3109 75.2533 71.0509 75.98 71.0509 76.94V77.14C71.0509 78.1 71.3109 78.8333 71.8309 79.34C72.3509 79.8333 72.9976 80.08 73.7709 80.08ZM84.6448 82.28C83.9382 82.28 83.3048 82.16 82.7448 81.92C82.1848 81.6667 81.7382 81.3067 81.4048 80.84C81.0848 80.36 80.9248 79.78 80.9248 79.1C80.9248 78.42 81.0848 77.8533 81.4048 77.4C81.7382 76.9333 82.1915 76.5867 82.7648 76.36C83.3515 76.12 84.0182 76 84.7648 76H87.4848V75.44C87.4848 74.9733 87.3382 74.5933 87.0448 74.3C86.7515 73.9933 86.2848 73.84 85.6448 73.84C85.0182 73.84 84.5515 73.9867 84.2448 74.28C83.9382 74.56 83.7382 74.9267 83.6448 75.38L81.3248 74.6C81.4848 74.0933 81.7382 73.6333 82.0848 73.22C82.4448 72.7933 82.9182 72.4533 83.5048 72.2C84.1048 71.9333 84.8315 71.8 85.6848 71.8C86.9915 71.8 88.0248 72.1267 88.7848 72.78C89.5448 73.4333 89.9248 74.38 89.9248 75.62V79.32C89.9248 79.72 90.1115 79.92 90.4848 79.92H91.2848V82H89.6048C89.1115 82 88.7048 81.88 88.3848 81.64C88.0648 81.4 87.9048 81.08 87.9048 80.68V80.66H87.5248C87.4715 80.82 87.3515 81.0333 87.1648 81.3C86.9782 81.5533 86.6848 81.78 86.2848 81.98C85.8848 82.18 85.3382 82.28 84.6448 82.28ZM85.0848 80.24C85.7915 80.24 86.3648 80.0467 86.8048 79.66C87.2582 79.26 87.4848 78.7333 87.4848 78.08V77.88H84.9448C84.4782 77.88 84.1115 77.98 83.8448 78.18C83.5782 78.38 83.4448 78.66 83.4448 79.02C83.4448 79.38 83.5848 79.6733 83.8648 79.9C84.1448 80.1267 84.5515 80.24 85.0848 80.24ZM92.9273 82V72.08H95.4073V73.38H95.7673C95.9273 73.0333 96.2273 72.7067 96.6673 72.4C97.1073 72.08 97.774 71.92 98.6673 71.92C99.4407 71.92 100.114 72.1 100.687 72.46C101.274 72.8067 101.727 73.2933 102.047 73.92C102.367 74.5333 102.527 75.2533 102.527 76.08V82H100.007V76.28C100.007 75.5333 99.8207 74.9733 99.4473 74.6C99.0873 74.2267 98.5673 74.04 97.8873 74.04C97.114 74.04 96.514 74.3 96.0873 74.82C95.6607 75.3267 95.4473 76.04 95.4473 76.96V82H92.9273ZM114.132 86C112.225 86 110.585 85.6333 109.212 84.9C107.852 84.18 106.805 83.1533 106.072 81.82C105.338 80.4867 104.972 78.9067 104.972 77.08V76.6C104.972 74.7733 105.332 73.2 106.052 71.88C106.772 70.5467 107.798 69.52 109.132 68.8C110.465 68.08 112.052 67.72 113.892 67.72H114.332C116.012 67.72 117.478 68.0733 118.732 68.78C119.985 69.4733 120.958 70.4467 121.652 71.7C122.345 72.9533 122.692 74.4133 122.692 76.08V77.56C122.692 78.96 122.405 80.0533 121.832 80.84C121.258 81.6133 120.398 82 119.252 82H118.092C117.465 82 116.985 81.8733 116.652 81.62C116.318 81.3667 116.152 81.0267 116.152 80.6V80.56H115.792C115.685 80.84 115.525 81.1 115.312 81.34C115.112 81.58 114.852 81.7733 114.532 81.92C114.212 82.0533 113.805 82.12 113.312 82.12C112.472 82.12 111.745 81.9 111.132 81.46C110.532 81.0067 110.065 80.4067 109.732 79.66C109.412 78.9133 109.252 78.08 109.252 77.16V76.84C109.252 75.9067 109.405 75.0667 109.712 74.32C110.032 73.5733 110.478 72.98 111.052 72.54C111.638 72.1 112.325 71.88 113.112 71.88C113.605 71.88 114.012 71.94 114.332 72.06C114.652 72.18 114.912 72.34 115.112 72.54C115.312 72.74 115.478 72.96 115.612 73.2H115.972V72H118.412V79.08C118.412 79.3067 118.458 79.48 118.552 79.6C118.645 79.7067 118.805 79.76 119.032 79.76H119.112C119.498 79.76 119.778 79.58 119.952 79.22C120.125 78.8467 120.212 78.2933 120.212 77.56V76.12C120.212 74.8533 119.992 73.7667 119.552 72.86C119.125 71.94 118.472 71.2333 117.592 70.74C116.712 70.2467 115.598 70 114.252 70H113.972C112.625 70 111.465 70.2533 110.492 70.76C109.518 71.2667 108.765 72.02 108.232 73.02C107.712 74.0067 107.452 75.2267 107.452 76.68V77C107.452 78.4533 107.718 79.68 108.252 80.68C108.798 81.68 109.578 82.4333 110.592 82.94C111.618 83.46 112.852 83.72 114.292 83.72H118.452V86H114.132ZM113.832 79.96C114.485 79.96 115.005 79.7067 115.392 79.2C115.778 78.6933 115.972 78 115.972 77.12V76.88C115.972 76 115.778 75.3067 115.392 74.8C115.005 74.2933 114.485 74.04 113.832 74.04C113.178 74.04 112.665 74.2933 112.292 74.8C111.918 75.3067 111.732 76 111.732 76.88V77.12C111.732 78 111.918 78.6933 112.292 79.2C112.665 79.7067 113.178 79.96 113.832 79.96ZM126.765 82V74.16H124.245V72.08H126.765V70.24C126.765 69.56 126.965 69.02 127.365 68.62C127.778 68.2067 128.312 68 128.965 68H131.365V70.08H129.845C129.472 70.08 129.285 70.28 129.285 70.68V72.08H133.285V74.16H129.285V82H126.765ZM133.285 82V72.08H135.805V82H133.285ZM134.545 71C134.092 71 133.705 70.8533 133.385 70.56C133.078 70.2667 132.925 69.88 132.925 69.4C132.925 68.92 133.078 68.5333 133.385 68.24C133.705 67.9467 134.092 67.8 134.545 67.8C135.012 67.8 135.398 67.9467 135.705 68.24C136.012 68.5333 136.165 68.92 136.165 69.4C136.165 69.88 136.012 70.2667 135.705 70.56C135.398 70.8533 135.012 71 134.545 71ZM138.402 82V72.08H140.882V73.38H141.242C141.402 73.0333 141.702 72.7067 142.142 72.4C142.582 72.08 143.248 71.92 144.142 71.92C144.915 71.92 145.588 72.1 146.162 72.46C146.748 72.8067 147.202 73.2933 147.522 73.92C147.842 74.5333 148.002 75.2533 148.002 76.08V82H145.482V76.28C145.482 75.5333 145.295 74.9733 144.922 74.6C144.562 74.2267 144.042 74.04 143.362 74.04C142.588 74.04 141.988 74.3 141.562 74.82C141.135 75.3267 140.922 76.04 140.922 76.96V82H138.402ZM154.052 82C153.399 82 152.866 81.8 152.452 81.4C152.052 80.9867 151.852 80.44 151.852 79.76V74.16H149.372V72.08H151.852V69H154.372V72.08H157.092V74.16H154.372V79.32C154.372 79.72 154.559 79.92 154.932 79.92H156.852V82H154.052ZM163.342 82.28C162.355 82.28 161.482 82.0733 160.722 81.66C159.975 81.2333 159.389 80.64 158.962 79.88C158.549 79.1067 158.342 78.2 158.342 77.16V76.92C158.342 75.88 158.549 74.98 158.962 74.22C159.375 73.4467 159.955 72.8533 160.702 72.44C161.449 72.0133 162.315 71.8 163.302 71.8C164.275 71.8 165.122 72.02 165.842 72.46C166.562 72.8867 167.122 73.4867 167.522 74.26C167.922 75.02 168.122 75.9067 168.122 76.92V77.78H160.902C160.929 78.46 161.182 79.0133 161.662 79.44C162.142 79.8667 162.729 80.08 163.422 80.08C164.129 80.08 164.649 79.9267 164.982 79.62C165.315 79.3133 165.569 78.9733 165.742 78.6L167.802 79.68C167.615 80.0267 167.342 80.4067 166.982 80.82C166.635 81.22 166.169 81.5667 165.582 81.86C164.995 82.14 164.249 82.28 163.342 82.28ZM160.922 75.9H165.562C165.509 75.3267 165.275 74.8667 164.862 74.52C164.462 74.1733 163.935 74 163.282 74C162.602 74 162.062 74.1733 161.662 74.52C161.262 74.8667 161.015 75.3267 160.922 75.9ZM170.165 82V72.08H172.645V73.2H173.005C173.152 72.8 173.392 72.5067 173.725 72.32C174.072 72.1333 174.472 72.04 174.925 72.04H176.125V74.28H174.885C174.245 74.28 173.718 74.4533 173.305 74.8C172.892 75.1333 172.685 75.6533 172.685 76.36V82H170.165ZM177.895 82V72.08H180.375V73.38H180.735C180.895 73.0333 181.195 72.7067 181.635 72.4C182.075 72.08 182.741 71.92 183.635 71.92C184.408 71.92 185.081 72.1 185.655 72.46C186.241 72.8067 186.695 73.2933 187.015 73.92C187.335 74.5333 187.495 75.2533 187.495 76.08V82H184.975V76.28C184.975 75.5333 184.788 74.9733 184.415 74.6C184.055 74.2267 183.535 74.04 182.855 74.04C182.081 74.04 181.481 74.3 181.055 74.82C180.628 75.3267 180.415 76.04 180.415 76.96V82H177.895ZM194.539 82.28C193.552 82.28 192.679 82.0733 191.919 81.66C191.172 81.2333 190.585 80.64 190.159 79.88C189.745 79.1067 189.539 78.2 189.539 77.16V76.92C189.539 75.88 189.745 74.98 190.159 74.22C190.572 73.4467 191.152 72.8533 191.899 72.44C192.645 72.0133 193.512 71.8 194.499 71.8C195.472 71.8 196.319 72.02 197.039 72.46C197.759 72.8867 198.319 73.4867 198.719 74.26C199.119 75.02 199.319 75.9067 199.319 76.92V77.78H192.099C192.125 78.46 192.379 79.0133 192.859 79.44C193.339 79.8667 193.925 80.08 194.619 80.08C195.325 80.08 195.845 79.9267 196.179 79.62C196.512 79.3133 196.765 78.9733 196.939 78.6L198.999 79.68C198.812 80.0267 198.539 80.4067 198.179 80.82C197.832 81.22 197.365 81.5667 196.779 81.86C196.192 82.14 195.445 82.28 194.539 82.28ZM192.119 75.9H196.759C196.705 75.3267 196.472 74.8667 196.059 74.52C195.659 74.1733 195.132 74 194.479 74C193.799 74 193.259 74.1733 192.859 74.52C192.459 74.8667 192.212 75.3267 192.119 75.9ZM204.83 82C204.176 82 203.643 81.8 203.23 81.4C202.83 80.9867 202.63 80.44 202.63 79.76V74.16H200.15V72.08H202.63V69H205.15V72.08H207.87V74.16H205.15V79.32C205.15 79.72 205.336 79.92 205.71 79.92H207.63V82H204.83Z" fill="#1D1D1F"/>
<g opacity="0.6">
<path d="M241 -33H385.219V147.576H362.192C295.26 147.576 241 93.3166 241 26.3841V-33Z" fill="#E6E6E6" fill-opacity="0.5"/>
<path d="M260.391 -33H404.609V147.576H381.583C314.65 147.576 260.391 93.3166 260.391 26.3841V-33Z" fill="#E6E6E6" fill-opacity="0.5"/>
<path d="M279.781 -33H424V147.576H400.973C334.041 147.576 279.781 93.3166 279.781 26.3841V-33Z" fill="#E6E6E6"/>
</g>
<g clip-path="url(#clip1_704_1346)">
<path d="M326.667 79.3333C327.551 79.3323 328.398 78.9808 329.023 78.3559C329.648 77.731 329.999 76.8837 330 76V70.162C330.001 69.8116 329.933 69.4644 329.799 69.1407C329.664 68.8169 329.467 68.523 329.219 68.276L327.724 66.7813C327.477 66.5328 327.183 66.3357 326.859 66.2016C326.536 66.0675 326.189 65.999 325.838 66H322.667C321.783 66.0011 320.936 66.3526 320.311 66.9775C319.686 67.6024 319.335 68.4496 319.333 69.3333V76C319.335 76.8837 319.686 77.731 320.311 78.3559C320.936 78.9808 321.783 79.3323 322.667 79.3333H326.667ZM320.667 76V69.3333C320.667 68.8029 320.878 68.2942 321.253 67.9191C321.628 67.5441 322.136 67.3333 322.667 67.3333C322.667 67.3333 325.946 67.3427 326 67.3493V68.6667C326 69.0203 326.141 69.3594 326.391 69.6095C326.641 69.8595 326.98 70 327.333 70H328.651C328.657 70.054 328.667 76 328.667 76C328.667 76.5304 328.456 77.0392 328.081 77.4142C327.706 77.7893 327.197 78 326.667 78H322.667C322.136 78 321.628 77.7893 321.253 77.4142C320.878 77.0392 320.667 76.5304 320.667 76ZM332.667 71.3333V78.6667C332.666 79.5504 332.314 80.3976 331.689 81.0225C331.064 81.6474 330.217 81.999 329.333 82H323.333C323.157 82 322.987 81.9298 322.862 81.8048C322.737 81.6797 322.667 81.5102 322.667 81.3333C322.667 81.1565 322.737 80.987 322.862 80.8619C322.987 80.7369 323.157 80.6667 323.333 80.6667H329.333C329.864 80.6667 330.373 80.456 330.748 80.0809C331.123 79.7058 331.333 79.1971 331.333 78.6667V71.3333C331.333 71.1565 331.404 70.987 331.529 70.8619C331.654 70.7369 331.823 70.6667 332 70.6667C332.177 70.6667 332.347 70.7369 332.472 70.8619C332.597 70.987 332.667 71.1565 332.667 71.3333Z" fill="#00B76A"/>
</g>
<g clip-path="url(#clip2_704_1346)">
<path opacity="0.4" d="M37.1519 144C37.0776 144 37.0033 143.983 36.9363 143.948L34.7756 142.83C34.1625 142.512 33.6829 142.156 33.3084 141.74C32.4887 140.832 32.0327 139.666 32.0254 138.456L32 134.475C31.997 134.015 32.2936 133.603 32.737 133.447L36.7043 132.064C36.9399 131.98 37.2027 131.979 37.4425 132.06L41.4249 133.396C41.8707 133.545 42.1721 133.954 42.1745 134.413L42.1999 138.398C42.2078 139.606 41.7674 140.776 40.9604 141.695C40.5901 142.116 40.1147 142.478 39.5077 142.802L37.3664 143.945C37.2999 143.981 37.2262 143.999 37.1519 144Z" fill="#00B347"/>
<path d="M36.6917 139.392C36.5757 139.393 36.4598 139.351 36.3704 139.265L35.2203 138.159C35.0427 137.987 35.0409 137.708 35.2166 137.535C35.3924 137.362 35.6793 137.36 35.8575 137.531L36.6851 138.327L38.7056 136.334C38.882 136.161 39.1689 136.159 39.3465 136.33C39.5247 136.502 39.5265 136.782 39.3507 136.954L37.0113 139.261C36.9231 139.348 36.8077 139.392 36.6917 139.392Z" fill="#00B347"/>
</g>
<path d="M51.271 136.045C51.2284 135.686 51.0556 135.406 50.7526 135.207C50.4495 135.009 50.0779 134.909 49.6375 134.909C49.3155 134.909 49.0338 134.961 48.7923 135.065C48.5532 135.17 48.3662 135.313 48.2313 135.495C48.0987 135.677 48.0324 135.884 48.0324 136.116C48.0324 136.311 48.0786 136.478 48.1709 136.617C48.2656 136.754 48.3863 136.869 48.5331 136.962C48.6799 137.052 48.8338 137.126 48.9948 137.185C49.1557 137.242 49.3037 137.288 49.4387 137.324L50.1773 137.523C50.3667 137.572 50.5774 137.641 50.8094 137.729C51.0438 137.816 51.2675 137.936 51.4806 138.087C51.696 138.237 51.8736 138.428 52.0132 138.663C52.1529 138.897 52.2227 139.185 52.2227 139.526C52.2227 139.919 52.1198 140.274 51.9138 140.591C51.7102 140.908 51.4119 141.16 51.0189 141.347C50.6283 141.534 50.1536 141.628 49.5949 141.628C49.0741 141.628 48.6231 141.544 48.2419 141.376C47.8631 141.208 47.5648 140.973 47.347 140.673C47.1316 140.372 47.0097 140.023 46.9813 139.625H47.8904C47.914 139.9 48.0064 140.127 48.1673 140.307C48.3307 140.484 48.5367 140.617 48.7852 140.705C49.0362 140.79 49.3061 140.832 49.5949 140.832C49.9311 140.832 50.2329 140.778 50.5004 140.669C50.768 140.558 50.9798 140.404 51.1361 140.207C51.2923 140.009 51.3705 139.777 51.3705 139.511C51.3705 139.27 51.303 139.073 51.1681 138.922C51.0331 138.77 50.8556 138.647 50.6354 138.553C50.4152 138.458 50.1773 138.375 49.9216 138.304L49.0267 138.048C48.4585 137.885 48.0087 137.652 47.6773 137.349C47.3459 137.046 47.1801 136.649 47.1801 136.159C47.1801 135.752 47.2902 135.397 47.5104 135.094C47.7329 134.788 48.0312 134.552 48.4053 134.384C48.7817 134.213 49.2019 134.128 49.6659 134.128C50.1347 134.128 50.5513 134.212 50.9159 134.38C51.2805 134.546 51.5693 134.773 51.7824 135.062C51.9978 135.351 52.1115 135.679 52.1233 136.045H51.271ZM55.844 141.614C55.3184 141.614 54.8651 141.498 54.4839 141.266C54.1051 141.031 53.8128 140.705 53.6068 140.286C53.4032 139.864 53.3014 139.374 53.3014 138.815C53.3014 138.257 53.4032 137.764 53.6068 137.338C53.8128 136.91 54.0992 136.576 54.4662 136.337C54.8355 136.095 55.2664 135.974 55.7588 135.974C56.0429 135.974 56.3234 136.022 56.6004 136.116C56.8774 136.211 57.1295 136.365 57.3568 136.578C57.5841 136.789 57.7652 137.068 57.9001 137.416C58.0351 137.764 58.1025 138.193 58.1025 138.702V139.057H53.898V138.332H57.2503C57.2503 138.025 57.1887 137.75 57.0656 137.509C56.9449 137.267 56.772 137.076 56.5471 136.937C56.3246 136.797 56.0618 136.727 55.7588 136.727C55.425 136.727 55.1362 136.81 54.8923 136.976C54.6508 137.139 54.465 137.352 54.3348 137.615C54.2046 137.878 54.1395 138.16 54.1395 138.46V138.943C54.1395 139.355 54.2105 139.704 54.3525 139.991C54.497 140.275 54.697 140.491 54.9527 140.641C55.2084 140.787 55.5055 140.861 55.844 140.861C56.0642 140.861 56.2631 140.83 56.4406 140.768C56.6205 140.705 56.7756 140.61 56.9058 140.484C57.036 140.357 57.1366 140.198 57.2077 140.009L58.0173 140.236C57.9321 140.51 57.7889 140.752 57.5876 140.96C57.3864 141.166 57.1378 141.327 56.8419 141.443C56.546 141.557 56.2133 141.614 55.844 141.614ZM61.5933 141.614C61.0819 141.614 60.6416 141.493 60.2723 141.251C59.903 141.01 59.6189 140.677 59.42 140.254C59.2211 139.83 59.1217 139.346 59.1217 138.801C59.1217 138.247 59.2235 137.758 59.4271 137.335C59.6331 136.908 59.9195 136.576 60.2865 136.337C60.6558 136.095 61.0867 135.974 61.5791 135.974C61.9626 135.974 62.3083 136.045 62.616 136.188C62.9238 136.33 63.1759 136.528 63.3724 136.784C63.5689 137.04 63.6908 137.338 63.7382 137.679H62.9001C62.8362 137.43 62.6942 137.21 62.474 137.018C62.2562 136.824 61.9626 136.727 61.5933 136.727C61.2666 136.727 60.9801 136.812 60.7339 136.983C60.4901 137.151 60.2995 137.389 60.1622 137.697C60.0273 138.002 59.9598 138.361 59.9598 138.773C59.9598 139.194 60.0261 139.561 60.1586 139.874C60.2936 140.186 60.483 140.429 60.7268 140.602C60.973 140.774 61.2619 140.861 61.5933 140.861C61.8111 140.861 62.0088 140.823 62.1863 140.747C62.3639 140.671 62.5142 140.562 62.6373 140.42C62.7604 140.278 62.848 140.108 62.9001 139.909H63.7382C63.6908 140.231 63.5737 140.521 63.3866 140.779C63.202 141.035 62.9569 141.238 62.6515 141.39C62.3485 141.539 61.9958 141.614 61.5933 141.614ZM68.4008 139.27V136.045H69.2389V141.5H68.4008V140.577H68.344C68.2162 140.854 68.0173 141.089 67.7474 141.283C67.4775 141.475 67.1366 141.571 66.7247 141.571C66.3838 141.571 66.0808 141.496 65.8156 141.347C65.5505 141.196 65.3421 140.969 65.1906 140.665C65.0391 140.36 64.9633 139.975 64.9633 139.511V136.045H65.8014V139.455C65.8014 139.852 65.9127 140.17 66.1352 140.406C66.3601 140.643 66.6466 140.761 66.9946 140.761C67.2029 140.761 67.4148 140.708 67.6302 140.602C67.848 140.495 68.0303 140.332 68.1771 140.112C68.3263 139.891 68.4008 139.611 68.4008 139.27ZM70.7739 141.5V136.045H71.5835V136.869H71.6404C71.7398 136.599 71.9197 136.38 72.1801 136.212C72.4405 136.044 72.7341 135.96 73.0608 135.96C73.1224 135.96 73.1993 135.961 73.2916 135.964C73.384 135.966 73.4538 135.97 73.5012 135.974V136.827C73.4727 136.82 73.4076 136.809 73.3058 136.795C73.2064 136.778 73.1011 136.77 72.9898 136.77C72.7246 136.77 72.4879 136.826 72.2796 136.937C72.0736 137.046 71.9102 137.197 71.7895 137.391C71.6711 137.583 71.6119 137.802 71.6119 138.048V141.5H70.7739ZM76.6155 141.614C76.0899 141.614 75.6366 141.498 75.2554 141.266C74.8766 141.031 74.5843 140.705 74.3783 140.286C74.1747 139.864 74.0729 139.374 74.0729 138.815C74.0729 138.257 74.1747 137.764 74.3783 137.338C74.5843 136.91 74.8707 136.576 75.2377 136.337C75.607 136.095 76.0378 135.974 76.5303 135.974C76.8144 135.974 77.0949 136.022 77.3719 136.116C77.6489 136.211 77.901 136.365 78.1283 136.578C78.3556 136.789 78.5367 137.068 78.6716 137.416C78.8066 137.764 78.874 138.193 78.874 138.702V139.057H74.6695V138.332H78.0218C78.0218 138.025 77.9602 137.75 77.8371 137.509C77.7164 137.267 77.5435 137.076 77.3186 136.937C77.0961 136.797 76.8333 136.727 76.5303 136.727C76.1965 136.727 75.9076 136.81 75.6638 136.976C75.4223 137.139 75.2365 137.352 75.1063 137.615C74.9761 137.878 74.911 138.16 74.911 138.46V138.943C74.911 139.355 74.982 139.704 75.124 139.991C75.2684 140.275 75.4685 140.491 75.7242 140.641C75.9798 140.787 76.277 140.861 76.6155 140.861C76.8357 140.861 77.0345 140.83 77.2121 140.768C77.392 140.705 77.5471 140.61 77.6773 140.484C77.8075 140.357 77.9081 140.198 77.9791 140.009L78.7888 140.236C78.7036 140.51 78.5603 140.752 78.3591 140.96C78.1579 141.166 77.9093 141.327 77.6134 141.443C77.3174 141.557 76.9848 141.614 76.6155 141.614ZM82.2085 141.614C81.754 141.614 81.3527 141.499 81.0047 141.269C80.6567 141.037 80.3844 140.71 80.1879 140.289C79.9914 139.865 79.8932 139.365 79.8932 138.787C79.8932 138.214 79.9914 137.717 80.1879 137.295C80.3844 136.874 80.6579 136.549 81.0083 136.319C81.3586 136.089 81.7635 135.974 82.2227 135.974C82.5779 135.974 82.8584 136.034 83.0644 136.152C83.2727 136.268 83.4313 136.401 83.5402 136.55C83.6515 136.696 83.7379 136.817 83.7994 136.912H83.8705V134.227H84.7085V141.5H83.8989V140.662H83.7994C83.7379 140.761 83.6503 140.887 83.5367 141.038C83.423 141.187 83.2609 141.321 83.0502 141.44C82.8395 141.556 82.5589 141.614 82.2085 141.614ZM82.3222 140.861C82.6584 140.861 82.9424 140.773 83.1744 140.598C83.4065 140.42 83.5828 140.175 83.7036 139.863C83.8243 139.548 83.8847 139.185 83.8847 138.773C83.8847 138.366 83.8255 138.009 83.7071 137.704C83.5887 137.396 83.4136 137.157 83.1816 136.987C82.9495 136.814 82.6631 136.727 82.3222 136.727C81.9671 136.727 81.6711 136.818 81.4344 137.001C81.2 137.181 81.0236 137.426 80.9053 137.736C80.7893 138.044 80.7313 138.389 80.7313 138.773C80.7313 139.161 80.7905 139.514 80.9088 139.831C81.0296 140.146 81.2071 140.397 81.4415 140.584C81.6782 140.768 81.9718 140.861 82.3222 140.861ZM89.286 141.5V134.227H90.124V136.912H90.195C90.2566 136.817 90.3418 136.696 90.4507 136.55C90.562 136.401 90.7206 136.268 90.9266 136.152C91.1349 136.034 91.4166 135.974 91.7718 135.974C92.231 135.974 92.6359 136.089 92.9862 136.319C93.3366 136.549 93.6101 136.874 93.8066 137.295C94.003 137.717 94.1013 138.214 94.1013 138.787C94.1013 139.365 94.003 139.865 93.8066 140.289C93.6101 140.71 93.3378 141.037 92.9898 141.269C92.6418 141.499 92.2405 141.614 91.786 141.614C91.4356 141.614 91.155 141.556 90.9443 141.44C90.7336 141.321 90.5715 141.187 90.4578 141.038C90.3442 140.887 90.2566 140.761 90.195 140.662H90.0956V141.5H89.286ZM90.1098 138.773C90.1098 139.185 90.1702 139.548 90.2909 139.863C90.4117 140.175 90.588 140.42 90.82 140.598C91.0521 140.773 91.3361 140.861 91.6723 140.861C92.0227 140.861 92.3151 140.768 92.5494 140.584C92.7862 140.397 92.9637 140.146 93.0821 139.831C93.2029 139.514 93.2632 139.161 93.2632 138.773C93.2632 138.389 93.204 138.044 93.0857 137.736C92.9697 137.426 92.7933 137.181 92.5566 137.001C92.3222 136.818 92.0274 136.727 91.6723 136.727C91.3314 136.727 91.045 136.814 90.8129 136.987C90.5809 137.157 90.4057 137.396 90.2874 137.704C90.169 138.009 90.1098 138.366 90.1098 138.773ZM95.7277 143.545C95.5857 143.545 95.459 143.534 95.3477 143.51C95.2365 143.489 95.1595 143.467 95.1169 143.446L95.33 142.707C95.5336 142.759 95.7135 142.778 95.8698 142.764C96.026 142.75 96.1645 142.68 96.2852 142.555C96.4084 142.432 96.5208 142.232 96.6226 141.955L96.7789 141.528L94.7618 136.045H95.6709L97.1766 140.392H97.2334L98.7391 136.045H99.6482L97.3328 142.295C97.2287 142.577 97.0996 142.81 96.9458 142.995C96.7919 143.182 96.6131 143.321 96.4095 143.411C96.2083 143.5 95.981 143.545 95.7277 143.545Z" fill="#797979"/>
<path d="M105.124 141.5V134.5H109.524V135.7H106.444V137.39H109.284V138.59H106.444V141.5H105.124ZM110.506 141.5V136.54H111.766V141.5H110.506ZM111.136 135.96C110.909 135.96 110.716 135.887 110.556 135.74C110.402 135.593 110.326 135.4 110.326 135.16C110.326 134.92 110.402 134.727 110.556 134.58C110.716 134.433 110.909 134.36 111.136 134.36C111.369 134.36 111.562 134.433 111.716 134.58C111.869 134.727 111.946 134.92 111.946 135.16C111.946 135.4 111.869 135.593 111.716 135.74C111.562 135.887 111.369 135.96 111.136 135.96ZM113.162 141.5V136.54H114.402V137.19H114.582C114.662 137.017 114.812 136.853 115.032 136.7C115.252 136.54 115.585 136.46 116.032 136.46C116.419 136.46 116.755 136.55 117.042 136.73C117.335 136.903 117.562 137.147 117.722 137.46C117.882 137.767 117.962 138.127 117.962 138.54V141.5H116.702V138.64C116.702 138.267 116.609 137.987 116.422 137.8C116.242 137.613 115.982 137.52 115.642 137.52C115.255 137.52 114.955 137.65 114.742 137.91C114.529 138.163 114.422 138.52 114.422 138.98V141.5H113.162ZM121.087 141.5C120.761 141.5 120.494 141.4 120.287 141.2C120.087 140.993 119.987 140.72 119.987 140.38V137.58H118.747V136.54H119.987V135H121.247V136.54H122.607V137.58H121.247V140.16C121.247 140.36 121.341 140.46 121.527 140.46H122.487V141.5H121.087ZM125.832 141.64C125.339 141.64 124.902 141.537 124.522 141.33C124.149 141.117 123.855 140.82 123.642 140.44C123.435 140.053 123.332 139.6 123.332 139.08V138.96C123.332 138.44 123.435 137.99 123.642 137.61C123.849 137.223 124.139 136.927 124.512 136.72C124.885 136.507 125.319 136.4 125.812 136.4C126.299 136.4 126.722 136.51 127.082 136.73C127.442 136.943 127.722 137.243 127.922 137.63C128.122 138.01 128.222 138.453 128.222 138.96V139.39H124.612C124.625 139.73 124.752 140.007 124.992 140.22C125.232 140.433 125.525 140.54 125.872 140.54C126.225 140.54 126.485 140.463 126.652 140.31C126.819 140.157 126.945 139.987 127.032 139.8L128.062 140.34C127.969 140.513 127.832 140.703 127.652 140.91C127.479 141.11 127.245 141.283 126.952 141.43C126.659 141.57 126.285 141.64 125.832 141.64ZM124.622 138.45H126.942C126.915 138.163 126.799 137.933 126.592 137.76C126.392 137.587 126.129 137.5 125.802 137.5C125.462 137.5 125.192 137.587 124.992 137.76C124.792 137.933 124.669 138.163 124.622 138.45ZM129.344 141.5V136.54H130.584V137.1H130.764C130.837 136.9 130.957 136.753 131.124 136.66C131.297 136.567 131.497 136.52 131.724 136.52H132.324V137.64H131.704C131.384 137.64 131.12 137.727 130.914 137.9C130.707 138.067 130.604 138.327 130.604 138.68V141.5H129.344ZM133.308 141.5V136.54H134.548V137.19H134.728C134.808 137.017 134.958 136.853 135.178 136.7C135.398 136.54 135.732 136.46 136.178 136.46C136.565 136.46 136.902 136.55 137.188 136.73C137.482 136.903 137.708 137.147 137.868 137.46C138.028 137.767 138.108 138.127 138.108 138.54V141.5H136.848V138.64C136.848 138.267 136.755 137.987 136.568 137.8C136.388 137.613 136.128 137.52 135.788 137.52C135.402 137.52 135.102 137.65 134.888 137.91C134.675 138.163 134.568 138.52 134.568 138.98V141.5H133.308ZM141.731 141.64C141.237 141.64 140.801 141.537 140.421 141.33C140.047 141.117 139.754 140.82 139.541 140.44C139.334 140.053 139.231 139.6 139.231 139.08V138.96C139.231 138.44 139.334 137.99 139.541 137.61C139.747 137.223 140.037 136.927 140.411 136.72C140.784 136.507 141.217 136.4 141.711 136.4C142.197 136.4 142.621 136.51 142.981 136.73C143.341 136.943 143.621 137.243 143.821 137.63C144.021 138.01 144.121 138.453 144.121 138.96V139.39H140.511C140.524 139.73 140.651 140.007 140.891 140.22C141.131 140.433 141.424 140.54 141.771 140.54C142.124 140.54 142.384 140.463 142.551 140.31C142.717 140.157 142.844 139.987 142.931 139.8L143.961 140.34C143.867 140.513 143.731 140.703 143.551 140.91C143.377 141.11 143.144 141.283 142.851 141.43C142.557 141.57 142.184 141.64 141.731 141.64ZM140.521 138.45H142.841C142.814 138.163 142.697 137.933 142.491 137.76C142.291 137.587 142.027 137.5 141.701 137.5C141.361 137.5 141.091 137.587 140.891 137.76C140.691 137.933 140.567 138.163 140.521 138.45ZM146.976 141.5C146.649 141.5 146.383 141.4 146.176 141.2C145.976 140.993 145.876 140.72 145.876 140.38V137.58H144.636V136.54H145.876V135H147.136V136.54H148.496V137.58H147.136V140.16C147.136 140.36 147.229 140.46 147.416 140.46H148.376V141.5H146.976Z" fill="#797979"/>
</g>
</g>
<defs>
<filter id="filter0_d_704_1346" x="0" y="0" width="366" height="176" filterUnits="userSpaceOnUse" color-interpolation-filters="sRGB">
<feFlood flood-opacity="0" result="BackgroundImageFix"/>
<feColorMatrix in="SourceAlpha" type="matrix" values="0 0 0 0 0 0 0 0 0 0 0 0 0 0 0 0 0 0 127 0" result="hardAlpha"/>
<feOffset/>
<feGaussianBlur stdDeviation="4"/>
<feComposite in2="hardAlpha" operator="out"/>
<feColorMatrix type="matrix" values="0 0 0 0 0.5 0 0 0 0 0.5 0 0 0 0 0.5 0 0 0 0.15 0"/>
<feBlend mode="normal" in2="BackgroundImageFix" result="effect1_dropShadow_704_1346"/>
<feBlend mode="normal" in="SourceGraphic" in2="effect1_dropShadow_704_1346" result="shape"/>
</filter>
<clipPath id="clip0_704_1346">
<rect x="8" y="8" width="350" height="160" rx="24" fill="white"/>
</clipPath>
<clipPath id="clip1_704_1346">
<rect width="16" height="16" fill="white" transform="translate(318 66)"/>
</clipPath>
<clipPath id="clip2_704_1346">
<rect width="10.2" height="12" fill="white" transform="translate(32 132)"/>
</clipPath>
</defs>
</svg>
