<svg width="78" height="81" viewBox="0 0 78 81" fill="none" xmlns="http://www.w3.org/2000/svg">
<path d="M74.7619 60.7934C71.0064 69.1894 64.6217 74.6192 56.2067 77.6045C55.0037 78.0311 53.756 78.4129 52.4701 78.744C50.6305 79.215 48.7144 79.5842 46.7222 79.8644C46.0093 79.9661 45.2899 80.0554 44.5579 80.1254C44.1124 80.1828 43.6668 80.2208 43.2085 80.259C38.7973 80.6218 34.055 80.5646 29.0454 80.1572C29.0264 80.1572 29.0008 80.1507 28.9818 80.1507C28.8736 80.1444 28.7654 80.1253 28.6571 80.119C26.6457 79.9471 24.5959 79.718 22.5016 79.4252C0.56625 76.4142 20.9739 67.0635 3.57078 59.9725C-3.18297 57.2289 3.43712 44.4661 12.7943 37.3369C22.1579 30.2139 0.171584 34.0841 9.25514 21.0286C18.3386 7.97947 45.7545 -2.3007 64.6091 4.89223C83.4573 12.0916 56.0413 29.7875 61.9738 31.0287C67.9063 32.2699 83.0624 42.2063 74.7619 60.7934Z" fill="#EFF0F4"/>
<path d="M52.8149 8.31199C50.4747 5.67219 53.5277 3.80008 55.9602 5.00759C58.0072 6.0238 57.2375 1.10514 59.6707 0.571828C63.0089 -0.159741 63.3309 4.94155 65.8453 4.79213C67.8953 4.67042 67.3805 1.90892 70.8628 1.3848C74.3451 0.860542 77.8497 6.10205 73.2966 8.31186C69.3277 10.2383 55.2895 11.1033 52.8149 8.31199Z" fill="#818181"/>
<path d="M21.6869 13.2779C11.1428 14.6659 12.4171 5.13756 16.0101 4.49081C19.603 3.84406 22.1984 8.3712 24.7451 7.29327C27.2918 6.21548 28.0823 12.4361 21.6869 13.2779Z" fill="#818181"/>
<path d="M55.6849 14.4825L55.3556 17.1182L55.9871 17.1971L56.3164 14.5614L55.6849 14.4825Z" fill="#818181"/>
<path d="M55.6839 20.4961L55.3545 23.1318L55.986 23.2107L56.3153 20.575L55.6839 20.4961Z" fill="#818181"/>
<path d="M26.589 14.939L26.2596 17.5747L26.8911 17.6536L27.2205 15.0179L26.589 14.939Z" fill="#818181"/>
<path d="M59.1627 17.0068L58.8334 19.6426L59.4649 19.7215L59.7942 17.0857L59.1627 17.0068Z" fill="#818181"/>
<path d="M50.4391 23.2355L50.1097 25.8711L50.7412 25.95L51.0706 23.3144L50.4391 23.2355Z" fill="#818181"/>
<path d="M24.3231 21.0699L23.9937 23.7061L24.6251 23.785L24.9546 21.1488L24.3231 21.0699Z" fill="#818181"/>
<path d="M52.4386 16.6232L52.1093 19.2588L52.7407 19.3377L53.0701 16.7021L52.4386 16.6232Z" fill="#818181"/>
<path d="M28.4032 18.6539L28.0739 21.2896L28.7053 21.3685L29.0347 18.7328L28.4032 18.6539Z" fill="#818181"/>
<path d="M22.1002 16.8321L21.7708 19.4683L22.4022 19.5472L22.7316 16.911L22.1002 16.8321Z" fill="#818181"/>
<path d="M35.0091 61.8312C33.3924 63.3015 31.0561 64.3456 28.6309 64.6447C26.8423 64.8675 25.0026 64.6829 23.3731 63.9827C22.3674 63.5498 21.4379 62.9133 20.6486 62.054C20.2667 61.6402 19.9547 61.131 19.7001 60.5326C16.9057 54.0843 20.9541 38.0371 22.3737 34.8162C22.8702 33.6959 23.6531 32.4991 24.767 31.4616C27.1541 29.2274 31.4354 27.0628 36.9696 29.2274C36.9696 29.2274 38.542 58.6167 35.0091 61.8312Z" fill="#040404"/>
<path d="M19.7003 60.5328C16.9058 54.0846 20.9542 38.0374 22.3738 34.8165C22.8703 33.6961 23.6532 32.4994 24.7671 31.4619C25.1937 31.5828 25.5628 31.8056 25.8493 32.1239C28.2873 34.8292 26.4539 55.676 19.7003 60.5328Z" fill="#744277"/>
<path d="M29.6684 63.0661C29.6684 63.0661 29.2673 63.83 28.6308 64.6448C26.8422 64.8676 25.0025 64.683 23.373 63.9828C24.7725 63.9354 25.7348 63.1227 26.3584 61.7358L29.6684 63.0661Z" fill="#472549"/>
<path d="M52.3942 78.7249C50.5547 79.1959 48.6387 79.5651 46.6462 79.8453C45.9333 79.9472 45.214 80.0363 44.4819 80.1063C44.0365 80.1635 43.5907 80.2017 43.1325 80.2399C38.7213 80.6028 33.979 80.5455 28.9693 80.1381C28.9757 79.6034 28.9757 79.1196 28.9629 78.693C28.9438 77.9801 28.9247 77.3054 28.9119 76.6688C28.8992 76.3632 28.8928 76.064 28.8865 75.7777V75.7203C28.8802 75.5039 28.8737 75.2874 28.8737 75.0838C28.8164 73.1677 28.7783 71.761 28.7591 71.1117C28.7591 71.0099 28.7528 70.9271 28.7528 70.8635V70.7235C28.7528 70.6216 28.7528 70.5325 28.7591 70.4562C28.8036 68.4701 29.5167 67.9291 30.2232 67.4389C30.9106 66.9615 31.5916 66.5351 31.6681 64.88C31.6681 64.8736 31.6681 64.8736 31.6681 64.8545C31.6745 64.7844 31.6808 64.7209 31.6935 64.6508C31.7508 64.2306 31.8336 63.7915 31.9418 63.3331L33.495 63.2567L49.6886 62.4229C49.6886 62.4229 49.9242 62.9894 50.2297 63.8933C50.2487 63.9506 50.2679 64.0206 50.2934 64.0907C50.5734 64.8736 50.879 65.8666 51.1845 66.9424C51.229 67.1015 51.2736 67.3243 51.3309 67.6108C51.3882 67.9737 51.4582 68.4319 51.5282 68.9984C51.6174 69.6923 51.7128 70.5325 51.8083 71.5128C51.891 72.3404 51.9801 73.2634 52.0693 74.2627C52.1906 75.5995 52.2988 77.0953 52.3942 78.7249Z" fill="#3C3C3D"/>
<path d="M34.8638 71.4621C34.8638 71.4621 32.6995 74.7212 28.8866 75.7206C28.8803 75.5042 28.8739 75.2877 28.8739 75.0841C28.8165 73.168 28.7784 71.7613 28.7593 71.112C28.8357 71.093 28.8865 71.0611 28.8865 70.9976L34.8638 71.4621Z" fill="#27272D"/>
<path d="M28.2332 67.5647C28.2785 70.7797 28.4805 71.2495 28.96 71.6134C30.0237 72.4208 37.1355 72.8594 44.321 72.271C49.7032 71.8301 51.6946 70.5657 52.0521 70.0584C52.4096 69.5511 52.3059 66.3035 51.7441 65.8139C51.1823 65.3243 28.5185 67.6074 28.5185 67.6074L28.2332 67.5647Z" fill="black"/>
<path d="M52.5906 65.2238C52.6223 66.9871 48.1857 68.2856 41.712 68.7375C35.6776 69.1577 28.8601 68.9157 27.5617 66.9425C27.2179 66.4205 26.9633 65.7904 26.7787 65.0774C25.8495 61.5127 26.6578 55.8667 26.6833 51.118C26.6833 50.5833 26.677 50.0614 26.6578 49.5585C26.3968 43.1675 25.7158 33.4921 27.5171 32.1872C29.3312 30.876 31.4447 30.0484 33.6407 29.5773C37.3072 28.7753 41.1838 28.9726 44.2201 29.5838C47.2818 30.1948 48.9884 31.7105 49.1343 32.3782C49.8966 35.8692 51.1139 44.8608 51.2031 50.6789C51.2095 50.9716 51.2158 51.2581 51.2221 51.5446C51.2985 54.2944 51.5213 56.7261 51.7632 58.7693C52.145 61.9457 52.5714 64.1927 52.5906 65.2238Z" fill="#7A7A7A"/>
<path d="M26.3804 58.5155C24.1432 60.2379 23.0948 55.7914 23.7687 54.6401C24.4428 53.4886 27.2791 53.1797 27.2791 53.1797L26.3804 58.5155Z" fill="#472549"/>
<path d="M35.3528 49.062C33.5068 57.4517 29.051 63.6134 26.7785 65.0775C25.8492 61.5127 26.6576 55.8667 26.6831 51.1181L31.0116 47.5088L35.3528 49.062Z" fill="black"/>
<path d="M30.1331 51.2584C29.9103 51.6658 29.6175 52.0413 29.2738 52.3724C27.517 54.0656 24.3533 56.5163 20.3813 57.0192C15.6709 57.6112 13.1184 55.6697 14.3914 51.3412C15.2699 48.3431 22.2655 33.4162 29.0765 31.4429C29.0765 31.4429 30.3495 36.6689 29.9485 39.6861C29.5411 42.697 26.7404 45.6188 26.7404 45.6188C26.7404 45.6188 27.3706 45.3387 29.4139 46.1853C29.9932 46.4272 30.3432 46.9619 30.5533 47.5857C30.6552 47.904 30.7251 48.2223 30.7506 48.5469C30.8398 49.4888 30.6105 50.4308 30.1331 51.2584Z" fill="#7A7A7A"/>
<path d="M24.5873 47.8078L24.3612 47.5837C24.4128 47.5316 29.5111 42.3056 29.6899 35.7559L30.008 35.7647C29.8254 42.442 24.6399 47.7547 24.5873 47.8078Z" fill="black"/>
<path d="M17.6864 51.7846L17.3823 51.6911C18.2978 48.7156 27.5999 46.6703 27.9955 46.5845L28.0627 46.8954C27.9678 46.9159 18.5477 48.986 17.6864 51.7846Z" fill="black"/>
<path d="M18.954 48.6926L18.8857 48.3818C21.1313 47.8912 22.3733 48.277 22.4254 48.2936L22.3284 48.5966C22.3168 48.5927 21.1046 48.2228 18.954 48.6926Z" fill="black"/>
<path d="M30.7806 45.135C30.7806 45.135 31.4823 43.5754 32.5682 43.463C33.654 43.3506 32.9613 44.4739 32.9613 44.4739L30.7806 45.135Z" fill="#EDEDED"/>
<path d="M29.5352 30.6574C29.3956 31.1392 33.179 38.6704 31.8286 48.7708C31.114 54.1164 25.4725 59.0398 25.4725 59.0398C25.1803 60.183 25.3883 61.1181 26.3577 61.7363C26.3577 61.7363 33.5576 54.8903 34.6072 48.8832C35.7602 42.2837 32.6992 29.6221 31.9797 29.7957C30.9562 30.0425 29.6747 30.1754 29.5352 30.6574Z" fill="#040404"/>
<path d="M30.5474 45.2983C32.3317 44.0327 32.8311 44.0449 32.9509 44.0449C33.0708 44.0449 35.6274 44.3992 35.7874 44.6715C35.9471 44.9438 35.5676 45.6429 35.6675 45.7227C35.7674 45.8027 36.027 46.1821 36.067 46.3419C36.1069 46.5017 35.6076 47.001 35.6675 47.081C35.7274 47.1608 36.0715 47.4604 36.0692 47.76C36.0669 48.0596 35.4677 48.4191 35.5875 48.6389C35.7074 48.8587 34.8678 49.578 34.5003 49.4097C34.5003 49.4097 33.7817 49.1113 33.3083 49.1318C33.0844 49.1415 32.4315 49.4578 31.6525 49.358C30.8736 49.2581 30.0146 48.7987 30.0146 48.7987C30.0146 48.7987 29.5353 46.6214 29.5353 46.5216C29.5353 46.422 30.0753 45.6332 30.5474 45.2983Z" fill="#EDEDED"/>
<path d="M31.274 44.9059C31.2403 44.9059 31.2073 44.8888 31.1882 44.8577C31.1599 44.8104 31.1751 44.749 31.2222 44.7202L31.8132 44.3645C31.8599 44.3358 31.9214 44.3514 31.9506 44.3987C31.9789 44.4459 31.9638 44.5073 31.9165 44.5361L31.3256 44.8918C31.3095 44.9015 31.2915 44.9059 31.274 44.9059Z" fill="black"/>
<path d="M35.5356 45.7115C35.5288 45.7115 35.5216 45.711 35.5146 45.7095L33.6189 45.3022C33.5648 45.2906 33.5307 45.2374 33.542 45.1834C33.5536 45.1298 33.6083 45.0957 33.6609 45.1065L35.5567 45.5138C35.6107 45.5254 35.6449 45.5786 35.6336 45.6327C35.6235 45.6793 35.582 45.7115 35.5356 45.7115Z" fill="black"/>
<path d="M35.5917 47.0593C35.5863 47.0593 35.5809 47.0587 35.5757 47.0582L34.2276 46.839C34.173 46.8296 34.1359 46.7786 34.1447 46.7239C34.154 46.6693 34.2071 46.6362 34.2597 46.6411L35.6079 46.8604C35.6623 46.8697 35.6994 46.9208 35.6907 46.9754C35.6824 47.0246 35.64 47.0593 35.5917 47.0593Z" fill="black"/>
<path d="M35.6891 48.4401C35.6832 48.4401 35.6769 48.4396 35.6706 48.4386L34.4361 48.2091C34.382 48.1989 34.3464 48.1468 34.3563 48.0921C34.3665 48.0386 34.4166 48.003 34.4731 48.0122L35.7078 48.2417C35.7619 48.2519 35.7975 48.3041 35.7877 48.3587C35.7783 48.4063 35.7365 48.4401 35.6891 48.4401Z" fill="black"/>
<path d="M32.6991 45.8662C32.6538 45.8662 32.6123 45.8351 32.6017 45.7893L32.4707 45.2275C32.4581 45.1734 32.4917 45.1198 32.5452 45.1071C32.6018 45.093 32.6534 45.1285 32.6656 45.1817L32.7967 45.7435C32.8094 45.7976 32.7757 45.8511 32.7221 45.8637C32.7141 45.8657 32.7063 45.8662 32.6991 45.8662Z" fill="black"/>
<path d="M29.5984 46.3838L28.4869 46.8497C28.4869 46.8497 27.9335 49.5749 29.5435 50.3237C29.5435 50.3237 30.7363 49.6221 31.1829 49.061C31.6395 48.4869 29.5984 46.3838 29.5984 46.3838Z" fill="#EDEDED"/>
<path d="M44.2199 29.5837C44.2199 29.5837 44.2199 29.5964 44.2136 29.6219C44.1117 31.0732 43.4879 32.7918 41.2091 33.2437C41.1199 33.2629 41.0372 33.2755 40.9482 33.2884C40.9417 33.2884 40.9417 33.2884 40.9354 33.2884C40.9291 33.2884 40.9164 33.2947 40.91 33.2947C36.9952 33.8357 33.7998 29.7746 33.6406 29.5772C37.307 28.7753 41.1836 28.9726 44.2199 29.5837Z" fill="#EDEDED"/>
<path d="M42.6349 29.4947C42.6349 29.4947 42.6349 29.5074 42.6223 29.5202C42.5649 29.7747 42.0176 31.8181 40.8463 32.0726C40.2416 32.2 39.5349 32.0599 38.8157 31.7863L38.7902 31.7735C36.9443 31.0669 35.0792 29.4947 35.0792 29.4947C35.0792 29.4947 35.7922 27.7633 36.015 26.1084C36.2059 24.638 36.295 23.6004 36.3269 22.8875C36.3395 22.5882 36.3395 22.3464 36.3395 22.1555C36.3332 21.7481 36.3077 21.5572 36.295 21.5062C36.295 21.5062 40.4834 21.4489 41.2855 22.7285C41.3874 22.8876 41.4319 23.0722 41.4128 23.2758C41.3364 24.0652 41.521 25.2173 41.7501 26.2739C41.8456 26.7386 41.9602 27.1777 42.0621 27.5724C42.1258 27.8017 42.1957 28.0498 42.2722 28.2981C42.4313 28.8391 42.5904 29.3484 42.6286 29.4693C42.6349 29.4884 42.6349 29.4947 42.6349 29.4947Z" fill="#EDEDED"/>
<path d="M42.6286 29.4692C42.3358 29.8574 41.922 30.1185 41.3492 30.2076C38.1855 30.6914 36.2782 26.5385 36.3268 22.8873C36.3301 22.6383 36.3076 22.3908 36.3076 22.1489L36.3394 22.1554L41.2854 22.7282C41.3872 22.8873 41.4317 23.0719 41.4127 23.2756C41.3363 24.0649 41.5209 25.217 41.75 26.2737C41.8455 26.7383 41.9601 27.1775 42.062 27.5721C42.1256 27.8014 42.1956 28.0495 42.272 28.2978C42.4313 28.8391 42.5903 29.3483 42.6286 29.4692Z" fill="#636363"/>
<path d="M45.6977 23.4155C45.6901 23.4432 45.6755 23.469 45.6678 23.4967C45.6214 23.6104 45.5801 23.7331 45.5299 23.8608C44.8977 25.4738 43.8256 27.4249 42.9699 28.2046C42.5358 28.6003 42.1096 29.1785 41.3497 29.1669C40.8559 29.1592 40.1387 28.7822 39.4681 28.3543C36.1574 26.2423 36.4649 21.6229 36.4649 21.6229L36.4314 18.187C36.4314 18.187 36.3361 17.1849 36.7528 16.1083C37.1627 15.0297 38.0849 13.8768 40.1217 13.5684C42.7899 13.1589 44.9446 14.4995 45.8328 16.7562C46.1755 17.6181 46.3288 18.5992 46.2621 19.6756C46.2554 19.8078 46.2491 19.9923 46.2452 20.2222C46.22 20.9602 46.1572 22.1571 45.6977 23.4155Z" fill="#EDEDED"/>
<path d="M36.5446 19.7791C36.7262 20.5048 36.9523 21.5332 36.9117 21.698C36.9494 21.602 37.6325 21.6521 37.6325 21.6521C37.6325 21.6521 37.7917 16.4287 40.935 16.6023L39.2434 15.9158C40.0419 15.0596 37.8295 15.415 36.751 16.1108C36.2735 17.1443 36.4019 19.209 36.5446 19.7791Z" fill="#934444"/>
<path d="M37.4253 20.4171C37.4683 19.2719 36.3103 18.554 35.5425 19.0179C34.7747 19.4817 35.0967 21.5336 36.3509 22.3195C37.0271 22.7432 37.3535 22.3317 37.4253 20.4171Z" fill="#EDEDED"/>
<path d="M45.0603 16.9003C46.3113 17.9581 46.2335 20.0055 46.2455 20.1159C46.2527 19.8851 46.2556 19.7025 46.2647 19.5717C46.3306 18.494 46.1779 17.5093 45.8368 16.6525C45.3123 16.4923 45.0603 16.9003 45.0603 16.9003Z" fill="#8E654A"/>
<path d="M36.9708 20.6821C36.9099 19.288 35.9657 19.2271 35.7183 19.4866C35.4708 19.7461 35.884 19.8914 36.1618 20.2575C36.4396 20.6235 35.861 21.3002 36.2933 21.508C36.5279 21.6209 36.9929 21.1885 36.9708 20.6821Z" fill="#636363"/>
<path d="M40.5873 13.1559C47.5831 11.9541 48.7908 20.2665 48.7908 20.2665C48.7908 20.2665 47.1059 19.8734 45.9182 18.1736C44.6636 16.378 40.5873 13.1559 40.5873 13.1559Z" fill="#161616"/>
<path d="M41.0164 21.2652C40.5579 21.2652 40.2382 21.192 40.2145 21.1868C40.1604 21.1742 40.1272 21.1201 40.1394 21.066C40.1525 21.0124 40.2037 20.9808 40.2602 20.9909C40.2699 20.9934 41.2921 21.2243 42.2988 20.8403C42.3528 20.8189 42.4089 20.8466 42.4283 20.8978C42.4483 20.9499 42.4224 21.008 42.3708 21.0274C41.8837 21.2136 41.4014 21.2652 41.0164 21.2652Z" fill="#5A5A5A"/>
<path d="M45.6372 21.9566C45.398 21.9566 44.9463 21.9045 44.2203 21.6336C44.1681 21.614 44.1419 21.5567 44.1613 21.5045C44.1803 21.4524 44.2373 21.4256 44.2904 21.4456C45.3617 21.8456 45.7929 21.7448 45.7979 21.7432C45.8505 21.7301 45.9055 21.7612 45.9201 21.8144C45.9342 21.8674 45.9036 21.922 45.8504 21.9366C45.8438 21.939 45.7766 21.9566 45.6372 21.9566Z" fill="#5A5A5A"/>
<path d="M42.5258 26.0025C42.2428 26.0025 41.9835 25.8314 41.8501 25.6964C41.8116 25.6574 41.8116 25.5942 41.8506 25.5557C41.89 25.5167 41.9529 25.5177 41.9924 25.5557C42.0109 25.5747 42.4597 26.0136 42.8524 25.6746C43.0745 25.4841 43.0882 24.8844 43.1013 24.3046C43.114 23.7535 43.1266 23.184 43.2942 22.7674C43.3147 22.7153 43.3716 22.688 43.4238 22.7119C43.4754 22.7323 43.5003 22.7902 43.4793 22.8414C43.3258 23.2248 43.3132 23.7759 43.301 24.3089C43.2859 24.9895 43.2723 25.5776 42.9829 25.8267C42.8339 25.9543 42.6764 26.0025 42.5258 26.0025Z" fill="black"/>
<path d="M42.3451 27.7296C42.3042 27.7296 42.2657 27.7042 42.2511 27.6638C42.2506 27.6633 42.1 27.3451 41.2285 27.5347C41.1719 27.5484 41.1212 27.5123 41.1095 27.4587C41.0973 27.4046 41.1315 27.3516 41.1855 27.3399C42.2278 27.1079 42.4206 27.545 42.4391 27.5956C42.4582 27.6478 42.4309 27.7048 42.3793 27.7238C42.368 27.7276 42.3563 27.7296 42.3451 27.7296Z" fill="black"/>
<path d="M36.4811 17.1592C38.6745 19.3664 43.3865 20.4463 44.2557 20.3319L43.3865 18.5395C43.3865 18.5395 44.617 19.911 45.4628 20.6732C46.6002 21.6979 47.3268 21.7995 47.3268 21.7995C47.3268 21.7995 48.2305 15.9485 45.209 14.0397C42.1875 12.1309 38.9669 12.3202 37.4741 13.9164C36.2478 15.2276 36.4811 17.1592 36.4811 17.1592Z" fill="#161616"/>
<path d="M36.4811 17.1592C37.7168 18.9633 40.4687 20.116 40.4687 20.116C40.4687 20.116 41.0116 19.2544 39.9071 18.3656C38.8026 17.477 36.4811 17.1592 36.4811 17.1592Z" fill="#161616"/>
<path d="M44.2136 29.6221C44.1118 31.0734 43.488 32.792 41.2091 33.2439C41.12 33.2631 41.0373 33.2757 40.9482 33.2886C43.5198 32.8238 44.1435 29.9721 44.2136 29.6221Z" fill="#D33120"/>
<path d="M37.4265 16.2979C37.6689 16.5745 37.9035 16.8184 38.1513 17.0525C38.4064 17.2789 38.664 17.498 38.9342 17.7064C39.4726 18.1289 40.0378 18.5154 40.6021 18.9751C40.238 18.9243 39.8951 18.8008 39.5679 18.6481C39.2394 18.4962 38.9307 18.3031 38.6405 18.0824C38.3576 17.8524 38.0903 17.597 37.8732 17.2983C37.6594 16.9984 37.4894 16.659 37.4265 16.2979Z" fill="black"/>
<path d="M42.6287 13.4956C43.2821 13.6224 43.9357 13.8446 44.5105 14.2135C45.1043 14.5548 45.6119 15.037 46.0434 15.5703C46.468 16.1112 46.805 16.7208 47.0156 17.3696C47.2313 18.0133 47.3449 18.6962 47.2837 19.3665C46.8771 18.1005 46.3304 16.9453 45.5433 15.9634C45.1583 15.4696 44.7204 15.0139 44.2244 14.6171C43.7407 14.1988 43.1893 13.8693 42.6287 13.4956Z" fill="black"/>
<path d="M40.4126 15.4136C40.6949 15.6042 40.9344 15.7959 41.17 15.9927C41.412 16.183 41.6349 16.387 41.8637 16.5883C42.3108 17.0045 42.7505 17.4249 43.1274 17.9827C42.7924 17.9187 42.494 17.7842 42.2145 17.6247C41.9322 17.4673 41.6775 17.2702 41.4349 17.0582C40.971 16.62 40.5469 16.0826 40.4126 15.4136Z" fill="black"/>
<path d="M37.8805 14.5239C37.9699 14.7822 38.0282 14.9673 38.1399 15.1397C38.2427 15.3165 38.3788 15.475 38.5417 15.6893C38.2674 15.7031 38.0131 15.5411 37.8672 15.3033C37.7967 15.183 37.7525 15.0435 37.7576 14.9044C37.752 14.7664 37.8054 14.6332 37.8805 14.5239Z" fill="black"/>
<path d="M39.9867 13.4956C40.2612 13.4066 40.5465 13.4558 40.7987 13.5687C41.0431 13.6912 41.2764 13.8872 41.3498 14.1728C41.0896 14.0595 40.8816 13.9605 40.6621 13.856C40.4444 13.7495 40.2256 13.6552 39.9867 13.4956Z" fill="black"/>
<path d="M48.4659 31.4844C53.3682 35.2769 58.2905 53.2974 54.9034 55.0706C51.5162 56.8439 49.137 53.5312 49.137 46.8497C49.137 40.1681 48.4659 31.4844 48.4659 31.4844Z" fill="#7A7A7A"/>
<path d="M29.2935 46.5117C29.2593 46.7402 29.3298 47.2384 29.3298 47.2384C29.3298 47.2384 29.6137 47.3454 29.781 47.605C29.781 47.605 29.9925 47.6403 30.0312 47.79C30.0699 47.9398 29.965 47.9892 29.965 47.9892L30.0136 48.1478C30.0136 48.1478 30.2198 48.1795 30.2322 48.4047C30.2396 48.538 30.1348 48.6135 30.1348 48.6135C30.1348 48.6135 30.1507 48.6756 30.086 48.8856C30.0507 49.0003 29.98 49.0931 29.98 49.0931L30.3789 49.7598L30.2146 49.8739C30.2146 49.8739 29.4296 49.4993 29.4221 49.4754C29.4147 49.4516 29.0376 47.8059 29.0376 47.8059L28.9248 46.8086L29.1756 46.5612L29.2935 46.5117Z" fill="#636363"/>
<path d="M66.2436 42.4346C66.4279 42.5818 66.4722 42.8482 66.3485 43.049C60.5351 52.4989 55.4658 56.4867 52.9271 55.8137C50.608 55.1987 49.0872 52.4405 52.7189 49.0875C55.921 46.1312 61.9418 41.5799 63.3213 40.5446C63.4913 40.417 63.7234 40.4224 63.8896 40.5551L66.2436 42.4346Z" fill="#7A7A7A"/>
<path d="M30.1517 51.2603C29.5279 51.3048 28.4909 50.5772 28.1154 48.9795L29.5352 49.1548C29.325 50.3929 30.0162 50.0264 30.4335 49.7217C30.5973 49.6021 30.7449 49.4897 30.7449 49.4897C30.8429 49.7499 30.4118 50.8095 30.1517 51.2603Z" fill="black"/>
<path d="M29.1753 46.5609C28.8986 48.0685 30.2143 49.8736 30.2143 49.8736L30.4335 49.7213C30.4335 49.7213 30.5174 50.0343 30.4335 50.1467C30.3496 50.2589 29.7884 50.5419 29.6756 50.5679C29.4627 50.617 28.6131 49.9852 28.2762 48.5643C27.9541 47.2063 28.1986 46.9015 28.3157 46.7535C28.3849 46.6659 29.224 46.3974 29.3223 46.3834C29.4207 46.3693 29.4282 46.4548 29.4282 46.4548L29.1753 46.5609Z" fill="white"/>
<path d="M28.7749 49.6667C29.4321 49.6667 29.9649 49.1339 29.9649 48.4767C29.9649 47.8194 29.4321 47.2866 28.7749 47.2866C28.1176 47.2866 27.5848 47.8194 27.5848 48.4767C27.5848 49.1339 28.1176 49.6667 28.7749 49.6667Z" fill="white"/>
<path d="M29.6943 48.4575C29.6943 48.9973 29.2567 49.4349 28.7169 49.4349C28.177 49.4349 27.7394 48.9973 27.7394 48.4575C27.7394 47.9176 28.177 47.48 28.7169 47.48C29.2567 47.48 29.6943 47.9177 29.6943 48.4575Z" fill="#DEF2FF"/>
<path d="M29.6944 47.9963C29.6462 47.9963 29.598 47.9739 29.5668 47.932C29.5141 47.8614 29.5287 47.762 29.5993 47.7093L29.727 47.6143C29.7976 47.5616 29.8971 47.5758 29.9496 47.6469C30.0023 47.7176 29.9876 47.817 29.9169 47.8696L29.7893 47.9647C29.7607 47.9861 29.7275 47.9963 29.6944 47.9963Z" fill="white"/>
<path d="M29.8664 48.4645C29.7957 48.4645 29.7314 48.4173 29.7124 48.3461C29.6899 48.2613 29.7402 48.1741 29.8254 48.1513L29.953 48.1171C30.0388 48.0961 30.1256 48.1454 30.1479 48.2302C30.1703 48.315 30.12 48.4022 30.0348 48.425L29.9072 48.459C29.8937 48.4626 29.88 48.4645 29.8664 48.4645Z" fill="white"/>
<path d="M27.4953 30.1075C27.2495 29.7972 27.2045 29.3079 27.3646 28.8935C27.5271 28.4811 27.8157 28.1415 28.1383 27.8726C28.7949 27.3435 29.5755 27.0462 30.3708 26.9086C31.168 26.7685 31.9946 26.8011 32.7938 27.0601C33.1906 27.2026 33.5849 27.4268 33.8694 27.7704C34.1461 28.1143 34.282 28.5755 34.1542 28.9563C33.874 28.2007 33.2174 28.0006 32.5834 27.926C31.9244 27.869 31.2314 27.907 30.5617 28.0254C29.8903 28.1395 29.2258 28.3208 28.6316 28.6111C28.0596 28.908 27.4859 29.292 27.4953 30.1075Z" fill="#040404"/>
<path d="M25.8268 31.9998L25.2675 31.6963C25.2889 31.6567 25.802 30.7277 27.1393 30.124L27.4015 30.7038C26.2711 31.2144 25.8311 31.9921 25.8268 31.9998Z" fill="#CA7DD1"/>
<path d="M20.1818 60.5613L19.8563 60.0146C20.9487 59.3645 21.8203 57.7333 21.8286 57.7168L22.3919 58.014C22.3529 58.0872 21.4296 59.8192 20.1818 60.5613Z" fill="#CA7DD1"/>
<path d="M40.8366 67.2122C37.126 67.2122 32.2585 66.842 28.7086 65.2225L28.8412 64.9331C35.2702 67.8657 46.1264 66.6446 46.2355 66.633L46.2726 66.9487C46.2224 66.9545 43.932 67.2122 40.8366 67.2122Z" fill="black"/>
<path d="M46.6902 64.4955C45.9009 64.4955 45.0425 64.3785 44.1426 64.0969L44.238 63.7928C46.6848 64.5597 48.8077 64.0618 49.9781 63.3402C50.7094 62.8891 51.1659 62.3102 51.2643 61.71L51.5781 61.7616C51.4651 62.4539 50.9565 63.1111 50.1452 63.6111C49.3489 64.1023 48.1372 64.4955 46.6902 64.4955Z" fill="black"/>
<path d="M37.3252 36.9198L37.311 36.6022C37.3446 36.6007 40.6929 36.4034 44.367 32.6436L44.5951 32.8658C40.8254 36.723 37.4665 36.9135 37.3252 36.9198Z" fill="black"/>
<path d="M40.9362 37.5897L40.863 37.2798C42.0767 36.9942 42.5523 36.6387 42.5571 36.6348L42.7514 36.8867C42.7311 36.9027 42.2282 37.2856 40.9362 37.5897Z" fill="black"/>
<path d="M30.0782 76.2546C30.0085 76.2546 29.9447 76.2083 29.9248 76.1382C29.9014 76.0534 29.9506 75.9657 30.0353 75.9418C33.0863 75.0882 34.3404 73.1646 34.353 73.1456C34.4003 73.0716 34.4992 73.0492 34.5723 73.0969C34.6469 73.1436 34.6683 73.2421 34.621 73.3162C34.5683 73.3995 33.2885 75.3625 30.121 76.2487C30.1071 76.2527 30.0924 76.2546 30.0782 76.2546Z" fill="#5C5C6B"/>
<path d="M41.508 80.2143C41.4876 80.2143 41.4667 80.2103 41.4467 80.2017C41.3658 80.1681 41.3274 80.0745 41.3614 79.9936C41.4262 79.8381 42.9794 76.1683 45.5139 74.3107C45.5851 74.2585 45.6845 74.274 45.7361 74.3448C45.7882 74.4154 45.7731 74.5154 45.702 74.567C43.2401 76.3721 41.6702 80.0795 41.6546 80.1165C41.6294 80.1773 41.5704 80.2143 41.508 80.2143Z" fill="#5C5C6B"/>
<path d="M34.9939 29.7988C34.9812 29.7988 34.968 29.7963 34.9554 29.791C34.9043 29.7701 34.8803 29.7111 34.9018 29.6605L35.0778 29.2395C35.0992 29.1889 35.1561 29.1635 35.2084 29.186C35.2595 29.207 35.2835 29.2658 35.262 29.3165L35.086 29.7374C35.0699 29.776 35.0328 29.7988 34.9939 29.7988Z" fill="black"/>
<path d="M42.7484 29.9431C42.7123 29.9431 42.6773 29.9237 42.6592 29.889L42.4322 29.4467C42.4073 29.3975 42.4262 29.3371 42.4755 29.3117C42.5242 29.2878 42.5846 29.306 42.6104 29.3551L42.8375 29.7975C42.8623 29.8468 42.8432 29.9071 42.794 29.9325C42.7797 29.9397 42.7641 29.9431 42.7484 29.9431Z" fill="black"/>
<path d="M64.3569 39.6744C64.3569 39.6744 64.7487 38.0022 64.9186 37.6251C65.0886 37.2479 66.0871 35.2534 66.9053 34.9544C67.0727 34.8933 67.187 36.0732 67.0171 36.4503C66.8472 36.8275 66.0643 37.6531 66.0643 37.6531C66.0643 37.6531 67.4258 36.8117 68.0703 36.5548C68.7147 36.2978 70.3165 39.2396 69.7308 39.8005C69.1451 40.3614 68.5288 40.8611 67.6596 40.9757C66.7905 41.0902 64.3569 39.6744 64.3569 39.6744Z" fill="#EDEDED"/>
<path d="M67.7997 36.8499C68.4395 36.2296 68.8063 35.2584 69.1051 34.8228C69.404 34.3872 69.8129 34.3545 69.9423 34.4766C70.0716 34.5987 69.1746 36.5235 69.0451 36.7278C68.9157 36.932 68.4546 37.4894 68.4546 37.4894L67.7997 36.8499Z" fill="#EDEDED"/>
<path d="M68.3486 37.4782C69.0746 36.8826 69.5446 35.8946 69.8963 35.463C70.2482 35.0314 70.7592 34.9523 70.8844 35.0917C71.0097 35.2311 69.8211 37.2552 69.6673 37.4585C69.5136 37.6618 68.9808 38.2069 68.9808 38.2069L68.3486 37.4782Z" fill="#EDEDED"/>
<path d="M64.3569 39.6743L63.5566 40.8722C63.4087 42.0381 64.7708 42.8732 66.1315 42.7635L67.3393 40.6196L64.3569 39.6743Z" fill="#EDEDED"/>
<path d="M70.7729 33.5518L69.3162 38.8221L68.8047 40.6757C68.7434 40.9007 68.4855 41.0235 68.2564 40.9293L68.2483 40.9251L65.7892 39.8531C65.6091 39.7754 65.515 39.5871 65.5722 39.399L65.7604 38.7483L65.8014 38.6092L66.3987 36.5674L67.2007 33.8217L67.209 33.8013L67.2948 33.5107L67.4381 33.0115C67.4953 32.8275 67.6875 32.7128 67.8799 32.7333L70.3431 33.0566L70.4454 33.0688C70.6707 33.1058 70.8303 33.3227 70.7729 33.5518Z" fill="#2E3B60"/>
<path d="M69.2356 39.259C69.3719 38.6199 69.6125 37.1232 69.7482 36.5831C69.8839 36.0431 70.2761 35.8612 70.4486 35.9344C70.6211 36.0077 70.4213 38.3223 70.4066 38.5767C70.3797 39.0415 69.7307 39.8006 69.7307 39.8006L69.2356 39.259Z" fill="#EDEDED"/>
<path d="M70.2922 34.8057C70.2834 34.8057 70.2746 34.8048 70.2658 34.8023C70.2113 34.7877 70.1786 34.7316 70.1932 34.677L70.4193 33.8337C70.4338 33.7791 70.4913 33.7471 70.5444 33.7611C70.599 33.7757 70.6316 33.8317 70.617 33.8864L70.3909 34.7298C70.379 34.7755 70.3375 34.8057 70.2922 34.8057Z" fill="#92B6FF"/>
<path d="M69.994 35.8933C69.9852 35.8933 69.976 35.8922 69.9672 35.8899C69.9126 35.8748 69.8805 35.8187 69.8952 35.7641L70.074 35.1068C70.0891 35.0522 70.1461 35.0202 70.1996 35.0348C70.2542 35.0499 70.2864 35.1059 70.2717 35.1604L70.0929 35.8177C70.0803 35.8635 70.0393 35.8933 69.994 35.8933Z" fill="#92B6FF"/>
<path d="M69.8564 35.1352C69.3899 36.8415 68.592 40.4382 68.2483 40.925L65.7892 39.853C65.6091 39.7753 65.515 39.587 65.5722 39.3988L65.7604 38.7481L65.8014 38.6091L66.3987 36.5672L66.4397 36.4282L67.2007 33.8217L67.209 33.8013L67.2948 33.5107L67.4381 33.0115C67.4953 32.8275 67.6875 32.7128 67.8799 32.7333L70.0322 33.0156L70.3432 33.0566C70.4088 33.3348 70.2861 33.5639 69.8564 35.1352Z" fill="#3972FF"/>
<path d="M70.0323 33.0156L66.4397 36.4282L67.2007 33.8217L67.2089 33.8013L67.2948 33.5107L67.4381 33.0115C67.4953 32.8275 67.6875 32.7128 67.8799 32.7333L70.0323 33.0156Z" fill="#696969"/>
<path d="M66.7501 37.1426C66.7223 37.1426 66.6946 37.1313 66.6741 37.1089C66.6362 37.0665 66.6396 37.0023 66.6815 36.9643L69.0966 34.7873C69.1394 34.7502 69.2033 34.7527 69.2413 34.7945C69.2792 34.8369 69.2759 34.9012 69.2341 34.9392L66.8189 37.1162C66.7988 37.1338 66.7744 37.1426 66.7501 37.1426Z" fill="#696969"/>
<path d="M66.1314 38.9451C66.1037 38.9451 66.0753 38.9338 66.0553 38.9115C66.0174 38.8691 66.0208 38.8049 66.0626 38.7668L68.4782 36.59C68.5212 36.553 68.5859 36.5555 68.6229 36.5973C68.661 36.6398 68.6574 36.704 68.6156 36.742L66.1999 38.9189C66.1801 38.9363 66.1557 38.9451 66.1314 38.9451Z" fill="#696969"/>
<path d="M50.9222 54.6287C50.7716 53.9719 50.74 52.499 50.6967 50.46C50.608 46.3235 50.4745 40.0725 49.1726 35.0687L49.4806 34.9888C50.7917 40.0286 50.9262 46.3021 51.0149 50.4532C51.0563 52.3973 51.089 53.933 51.2322 54.5576L50.9222 54.6287Z" fill="black"/>
<path d="M53.3213 50.3647L53.0134 50.2828C53.7053 47.6805 55.318 46.7494 55.3862 46.7109L55.5425 46.9882C55.5269 46.9974 53.9766 47.9003 53.3213 50.3647Z" fill="black"/>
<path d="M53.0303 47.6139L52.7915 47.4035C53.7417 46.3262 55.3387 46.3691 55.4045 46.374L55.3934 46.6916C55.3783 46.6927 53.8781 46.6531 53.0303 47.6139Z" fill="black"/>
<path d="M41.6642 22.9971C41.6266 23.2598 41.4553 23.4527 41.2816 23.4279C41.108 23.4029 40.9977 23.1699 41.0353 22.907C41.073 22.6443 41.2442 22.4515 41.4177 22.4763C41.5916 22.5012 41.7019 22.7344 41.6642 22.9971Z" fill="#373737"/>
<path d="M45.0033 23.6988C44.9656 23.9615 44.7944 24.1544 44.6209 24.1296C44.4473 24.1047 44.3369 23.8716 44.3746 23.6087C44.4121 23.346 44.5835 23.1531 44.757 23.1779C44.9307 23.2029 45.041 23.4359 45.0033 23.6988Z" fill="#373737"/>
</svg>
