<svg width="342" height="68" viewBox="0 0 342 68" fill="none" xmlns="http://www.w3.org/2000/svg">
<rect x="34" y="1" width="58" height="66" rx="13" fill="white"/>
<rect x="34" y="1" width="58" height="66" rx="13" stroke="#E31837" stroke-width="2"/>
<path d="M61.8954 40.2987L62.1113 35.5032L58.0658 38.1055L56.8272 35.9464L61.1226 33.7532L56.8272 31.56L58.0658 29.4009L62.1113 32.0032L61.8954 27.2077H64.3613L64.1454 32.0032L68.1908 29.4009L69.4295 31.56L65.134 33.7532L69.4295 35.9464L68.1908 38.1055L64.1454 35.5032L64.3613 40.2987H61.8954Z" fill="#1D1D1F"/>
<rect x="106.5" y="1.5" width="57" height="65" rx="12.5" fill="white"/>
<rect x="106.5" y="1.5" width="57" height="65" rx="12.5" stroke="#A6A6A6"/>
<path d="M133.895 40.2987L134.111 35.5032L130.066 38.1055L128.827 35.9464L133.123 33.7532L128.827 31.56L130.066 29.4009L134.111 32.0032L133.895 27.2077H136.361L136.145 32.0032L140.191 29.4009L141.429 31.56L137.134 33.7532L141.429 35.9464L140.191 38.1055L136.145 35.5032L136.361 40.2987H133.895Z" fill="#1D1D1F"/>
<rect x="178.5" y="1.5" width="57" height="65" rx="12.5" fill="white"/>
<rect x="178.5" y="1.5" width="57" height="65" rx="12.5" stroke="#A6A6A6"/>
<path d="M205.895 40.2987L206.111 35.5032L202.066 38.1055L200.827 35.9464L205.123 33.7532L200.827 31.56L202.066 29.4009L206.111 32.0032L205.895 27.2077H208.361L208.145 32.0032L212.191 29.4009L213.429 31.56L209.134 33.7532L213.429 35.9464L212.191 38.1055L208.145 35.5032L208.361 40.2987H205.895Z" fill="#1D1D1F"/>
<rect x="250.5" y="1.5" width="57" height="65" rx="12.5" fill="white"/>
<rect x="250.5" y="1.5" width="57" height="65" rx="12.5" stroke="#A6A6A6"/>
<path d="M277.895 40.2987L278.111 35.5032L274.066 38.1055L272.827 35.9464L277.123 33.7532L272.827 31.56L274.066 29.4009L278.111 32.0032L277.895 27.2077H280.361L280.145 32.0032L284.191 29.4009L285.429 31.56L281.134 33.7532L285.429 35.9464L284.191 38.1055L280.145 35.5032L280.361 40.2987H277.895Z" fill="#1D1D1F"/>
</svg>
