<svg width="307" height="141" viewBox="0 0 307 141" fill="none" xmlns="http://www.w3.org/2000/svg">
<path d="M4.8 7V-4.76837e-07H5.64V6.24H9.18V7H4.8ZM11.789 7.14C11.449 7.14 11.139 7.08 10.859 6.96C10.579 6.84 10.359 6.66667 10.199 6.44C10.039 6.21333 9.95898 5.93667 9.95898 5.61C9.95898 5.27667 10.039 5.00333 10.199 4.79C10.359 4.57 10.579 4.40667 10.859 4.3C11.139 4.18667 11.4523 4.13 11.799 4.13H13.449V3.77C13.449 3.42333 13.3457 3.15 13.139 2.95C12.939 2.75 12.639 2.65 12.239 2.65C11.8457 2.65 11.539 2.74667 11.319 2.94C11.099 3.12667 10.949 3.38 10.869 3.7L10.129 3.46C10.209 3.18667 10.3357 2.94 10.509 2.72C10.6823 2.49333 10.9123 2.31333 11.199 2.18C11.4923 2.04 11.8423 1.97 12.249 1.97C12.8757 1.97 13.3623 2.13333 13.709 2.46C14.0557 2.78 14.229 3.23333 14.229 3.82V6.03C14.229 6.23 14.3223 6.33 14.509 6.33H14.959V7H14.269C14.049 7 13.8723 6.94 13.739 6.82C13.6057 6.69333 13.539 6.52667 13.539 6.32V6.27H13.419C13.3457 6.39667 13.2457 6.53 13.119 6.67C12.999 6.80333 12.8323 6.91333 12.619 7C12.4057 7.09333 12.129 7.14 11.789 7.14ZM11.879 6.46C12.3457 6.46 12.7223 6.32333 13.009 6.05C13.3023 5.77 13.449 5.38 13.449 4.88V4.77H11.829C11.5157 4.77 11.2557 4.84 11.049 4.98C10.849 5.11333 10.749 5.31667 10.749 5.59C10.749 5.86333 10.8523 6.07667 11.059 6.23C11.2723 6.38333 11.5457 6.46 11.879 6.46ZM16.0409 7V2.11H16.8109V2.94H16.9509C17.0576 2.70667 17.2376 2.49667 17.4909 2.31C17.7509 2.11667 18.1309 2.02 18.6309 2.02C18.9976 2.02 19.3243 2.09667 19.6109 2.25C19.9043 2.40333 20.1376 2.63 20.3109 2.93C20.4843 3.23 20.5709 3.6 20.5709 4.04V7H19.7809V4.1C19.7809 3.61333 19.6576 3.26 19.4109 3.04C19.1709 2.82 18.8443 2.71 18.4309 2.71C17.9576 2.71 17.5709 2.86333 17.2709 3.17C16.9776 3.47667 16.8309 3.93333 16.8309 4.54V7H16.0409ZM24.2438 7.14C23.8238 7.14 23.4371 7.04 23.0838 6.84C22.7304 6.64 22.4504 6.35 22.2438 5.97C22.0371 5.59 21.9338 5.14 21.9338 4.62V4.49C21.9338 3.97 22.0371 3.52333 22.2438 3.15C22.4504 2.77 22.7271 2.48 23.0738 2.28C23.4271 2.07333 23.8171 1.97 24.2438 1.97C24.5838 1.97 24.8704 2.01667 25.1038 2.11C25.3438 2.19667 25.5371 2.31 25.6838 2.45C25.8304 2.58333 25.9438 2.72667 26.0238 2.88H26.1638V-4.76837e-07H26.9538V7H26.1838V6.19H26.0438C25.9104 6.43667 25.7038 6.65667 25.4238 6.85C25.1438 7.04333 24.7504 7.14 24.2438 7.14ZM24.4538 6.44C24.9604 6.44 25.3704 6.28 25.6838 5.96C26.0038 5.63333 26.1638 5.18 26.1638 4.6V4.51C26.1638 3.93 26.0038 3.48 25.6838 3.16C25.3704 2.83333 24.9604 2.67 24.4538 2.67C23.9538 2.67 23.5404 2.83333 23.2138 3.16C22.8938 3.48 22.7338 3.93 22.7338 4.51V4.6C22.7338 5.18 22.8938 5.63333 23.2138 5.96C23.5404 6.28 23.9538 6.44 24.4538 6.44ZM31.1477 7V-4.76837e-07H31.9877V7H31.1477ZM33.2591 7V6.25H34.2391V0.75H33.2591V-4.76837e-07H35.9891C36.9091 -4.76837e-07 37.6191 0.233333 38.1191 0.699999C38.6257 1.16667 38.8791 1.88333 38.8791 2.85V4.15C38.8791 5.12333 38.6257 5.84333 38.1191 6.31C37.6191 6.77 36.9091 7 35.9891 7H33.2591ZM35.0791 6.24H35.9891C36.6691 6.24 37.1824 6.07333 37.5291 5.74C37.8757 5.40667 38.0491 4.89 38.0491 4.19V2.82C38.0491 2.10667 37.8757 1.58667 37.5291 1.26C37.1824 0.933333 36.6691 0.77 35.9891 0.77H35.0791V6.24Z" fill="#797979"/>
<path d="M4.288 28L7.232 16.8H10.912L13.856 28H11.68L11.072 25.536H7.072L6.464 28H4.288ZM7.568 23.584H10.576L9.216 18.128H8.928L7.568 23.584ZM14.4926 28L17.7726 22.352L14.5246 16.8H16.9246L19.1486 20.848H19.4366L21.6606 16.8H24.0606L20.8126 22.352L24.0926 28H21.6926L19.4366 23.856H19.1486L16.8926 28H14.4926ZM25.4935 28V16.8H29.4135L31.3495 26.56H31.6375L33.5735 16.8H37.4935V28H35.4455V18.352H35.1575L33.2375 28H29.7495L27.8295 18.352H27.5415V28H25.4935ZM39.2829 28V26.144H40.7549V18.656H39.2829V16.8H43.8909C45.3949 16.8 46.5362 17.184 47.3149 17.952C48.1042 18.7093 48.4989 19.84 48.4989 21.344V23.456C48.4989 24.96 48.1042 26.096 47.3149 26.864C46.5362 27.6213 45.3949 28 43.8909 28H39.2829ZM42.8669 26.08H43.9229C44.7762 26.08 45.4002 25.856 45.7949 25.408C46.1895 24.96 46.3869 24.3307 46.3869 23.52V21.28C46.3869 20.4587 46.1895 19.8293 45.7949 19.392C45.4002 18.944 44.7762 18.72 43.9229 18.72H42.8669V26.08ZM53.3311 28V18.304H53.0431L51.5391 21.856H49.3951L51.6831 16.8H55.3791V28H53.3311ZM57.4935 28V16.8H64.6935V18.72H59.6055V21.392H64.2455V23.312H59.6055V26.08H64.7895V28H57.4935ZM66.3529 28V16.8H73.5529V18.72H68.4649V21.392H73.1049V23.312H68.4649V26.08H73.6489V28H66.3529ZM74.8923 28V26.144H76.3643V18.656H74.8923V16.8H79.5003C81.0043 16.8 82.1456 17.184 82.9243 17.952C83.7136 18.7093 84.1083 19.84 84.1083 21.344V23.456C84.1083 24.96 83.7136 26.096 82.9243 26.864C82.1456 27.6213 81.0043 28 79.5003 28H74.8923ZM78.4763 26.08H79.5323C80.3856 26.08 81.0096 25.856 81.4043 25.408C81.7989 24.96 81.9963 24.3307 81.9963 23.52V21.28C81.9963 20.4587 81.7989 19.8293 81.4043 19.392C81.0096 18.944 80.3856 18.72 79.5323 18.72H78.4763V26.08Z" fill="#1D1D1F"/>
<rect x="89.5" y="17.5" width="10" height="10" rx="5" fill="#0091FF"/>
<rect x="89.5" y="17.5" width="10" height="10" rx="5" stroke="#0091FF"/>
<path d="M96.5725 20.6094L97.25 21.297L94.4546 24.0509C94.2679 24.2376 94.0223 24.3307 93.7757 24.3307C93.5291 24.3307 93.2811 24.2366 93.0924 24.0484L91.75 22.7475L92.4222 22.0541L93.7699 23.3603L96.5725 20.6094Z" fill="white"/>
<path d="M124.8 7V-4.76837e-07H127.48C127.9 -4.76837e-07 128.273 0.083333 128.6 0.25C128.933 0.41 129.197 0.64 129.39 0.94C129.583 1.24 129.68 1.60333 129.68 2.03V2.16C129.68 2.58 129.58 2.94333 129.38 3.25C129.187 3.55 128.923 3.78 128.59 3.94C128.257 4.1 127.887 4.18 127.48 4.18H125.64V7H124.8ZM125.64 3.42H127.39C127.837 3.42 128.19 3.31 128.45 3.09C128.71 2.86333 128.84 2.54667 128.84 2.14V2.04C128.84 1.63333 128.71 1.32 128.45 1.1C128.197 0.873333 127.843 0.76 127.39 0.76H125.64V3.42ZM130.836 7V2.11H131.606V2.71H131.746C131.833 2.49667 131.966 2.34 132.146 2.24C132.326 2.14 132.563 2.09 132.856 2.09H133.436V2.81H132.806C132.453 2.81 132.166 2.91 131.946 3.11C131.733 3.30333 131.626 3.60667 131.626 4.02V7H130.836ZM136.69 7.14C136.196 7.14 135.76 7.03667 135.38 6.83C135.006 6.62333 134.713 6.33333 134.5 5.96C134.293 5.58 134.19 5.13333 134.19 4.62V4.49C134.19 3.98333 134.293 3.54 134.5 3.16C134.713 2.78 135.006 2.48667 135.38 2.28C135.76 2.07333 136.196 1.97 136.69 1.97C137.183 1.97 137.616 2.07333 137.99 2.28C138.37 2.48667 138.663 2.78 138.87 3.16C139.083 3.54 139.19 3.98333 139.19 4.49V4.62C139.19 5.13333 139.083 5.58 138.87 5.96C138.663 6.33333 138.37 6.62333 137.99 6.83C137.616 7.03667 137.183 7.14 136.69 7.14ZM136.69 6.43C137.21 6.43 137.623 6.26667 137.93 5.94C138.243 5.60667 138.4 5.16 138.4 4.6V4.51C138.4 3.95 138.243 3.50667 137.93 3.18C137.623 2.84667 137.21 2.68 136.69 2.68C136.176 2.68 135.763 2.84667 135.45 3.18C135.136 3.50667 134.98 3.95 134.98 4.51V4.6C134.98 5.16 135.136 5.60667 135.45 5.94C135.763 6.26667 136.176 6.43 136.69 6.43ZM140.611 9V2.11H141.381V2.92H141.521C141.648 2.67333 141.851 2.45333 142.131 2.26C142.418 2.06667 142.815 1.97 143.321 1.97C143.741 1.97 144.125 2.07333 144.471 2.28C144.825 2.48 145.105 2.76667 145.311 3.14C145.525 3.51333 145.631 3.96333 145.631 4.49V4.62C145.631 5.14 145.528 5.59 145.321 5.97C145.115 6.35 144.835 6.64 144.481 6.84C144.135 7.04 143.748 7.14 143.321 7.14C142.981 7.14 142.691 7.09333 142.451 7C142.218 6.91333 142.028 6.8 141.881 6.66C141.735 6.52 141.621 6.37667 141.541 6.23H141.401V9H140.611ZM143.111 6.44C143.618 6.44 144.028 6.28 144.341 5.96C144.661 5.63333 144.821 5.18 144.821 4.6V4.51C144.821 3.93 144.661 3.48 144.341 3.16C144.028 2.83333 143.618 2.67 143.111 2.67C142.611 2.67 142.198 2.83333 141.871 3.16C141.551 3.48 141.391 3.93 141.391 4.51V4.6C141.391 5.18 141.551 5.63333 141.871 5.96C142.198 6.28 142.611 6.44 143.111 6.44ZM149.287 7.14C148.793 7.14 148.36 7.03667 147.987 6.83C147.613 6.61667 147.323 6.32 147.117 5.94C146.91 5.56 146.807 5.12 146.807 4.62V4.5C146.807 3.99333 146.91 3.55 147.117 3.17C147.323 2.79 147.61 2.49667 147.977 2.29C148.343 2.07667 148.763 1.97 149.237 1.97C149.697 1.97 150.103 2.07 150.457 2.27C150.81 2.46333 151.087 2.74333 151.287 3.11C151.487 3.47667 151.587 3.90667 151.587 4.4V4.76H147.597C147.617 5.28667 147.787 5.7 148.107 6C148.427 6.29333 148.827 6.44 149.307 6.44C149.727 6.44 150.05 6.34333 150.277 6.15C150.503 5.95667 150.677 5.72667 150.797 5.46L151.477 5.79C151.377 5.99667 151.237 6.20333 151.057 6.41C150.883 6.61667 150.653 6.79 150.367 6.93C150.087 7.07 149.727 7.14 149.287 7.14ZM147.607 4.11H150.787C150.76 3.65667 150.603 3.30333 150.317 3.05C150.037 2.79667 149.677 2.67 149.237 2.67C148.79 2.67 148.423 2.79667 148.137 3.05C147.85 3.30333 147.673 3.65667 147.607 4.11ZM152.965 7V2.11H153.735V2.71H153.875C153.961 2.49667 154.095 2.34 154.275 2.24C154.455 2.14 154.691 2.09 154.985 2.09H155.565V2.81H154.935C154.581 2.81 154.295 2.91 154.075 3.11C153.861 3.30333 153.755 3.60667 153.755 4.02V7H152.965ZM158.534 7C158.254 7 158.038 6.92333 157.884 6.77C157.738 6.61667 157.664 6.40667 157.664 6.14V2.8H156.194V2.11H157.664V0.37H158.454V2.11H160.054V2.8H158.454V6.02C158.454 6.22 158.551 6.32 158.744 6.32H159.834V7H158.534ZM161.924 9V8.3H164.724C164.917 8.3 165.014 8.2 165.014 8V6.22H164.874C164.807 6.36 164.704 6.5 164.564 6.64C164.431 6.77333 164.254 6.88333 164.034 6.97C163.814 7.05 163.537 7.09 163.204 7.09C162.851 7.09 162.524 7.01333 162.224 6.86C161.931 6.70667 161.697 6.48 161.524 6.18C161.357 5.88 161.274 5.51333 161.274 5.08V2.11H162.064V5.02C162.064 5.5 162.184 5.85 162.424 6.07C162.671 6.29 163.001 6.4 163.414 6.4C163.881 6.4 164.264 6.24667 164.564 5.94C164.864 5.63333 165.014 5.17667 165.014 4.57V2.11H165.804V8.14C165.804 8.40667 165.727 8.61667 165.574 8.77C165.427 8.92333 165.211 9 164.924 9H161.924ZM171.452 7V0.76H169.202V-4.76837e-07H174.542V0.76H172.292V7H171.452ZM175.459 9V8.3H178.259C178.452 8.3 178.549 8.2 178.549 8V6.22H178.409C178.342 6.36 178.239 6.5 178.099 6.64C177.966 6.77333 177.789 6.88333 177.569 6.97C177.349 7.05 177.072 7.09 176.739 7.09C176.386 7.09 176.059 7.01333 175.759 6.86C175.466 6.70667 175.232 6.48 175.059 6.18C174.892 5.88 174.809 5.51333 174.809 5.08V2.11H175.599V5.02C175.599 5.5 175.719 5.85 175.959 6.07C176.206 6.29 176.536 6.4 176.949 6.4C177.416 6.4 177.799 6.24667 178.099 5.94C178.399 5.63333 178.549 5.17667 178.549 4.57V2.11H179.339V8.14C179.339 8.40667 179.262 8.61667 179.109 8.77C178.962 8.92333 178.746 9 178.459 9H175.459ZM180.992 9V2.11H181.762V2.92H181.902C182.029 2.67333 182.232 2.45333 182.512 2.26C182.799 2.06667 183.195 1.97 183.702 1.97C184.122 1.97 184.505 2.07333 184.852 2.28C185.205 2.48 185.485 2.76667 185.692 3.14C185.905 3.51333 186.012 3.96333 186.012 4.49V4.62C186.012 5.14 185.909 5.59 185.702 5.97C185.495 6.35 185.215 6.64 184.862 6.84C184.515 7.04 184.129 7.14 183.702 7.14C183.362 7.14 183.072 7.09333 182.832 7C182.599 6.91333 182.409 6.8 182.262 6.66C182.115 6.52 182.002 6.37667 181.922 6.23H181.782V9H180.992ZM183.492 6.44C183.999 6.44 184.409 6.28 184.722 5.96C185.042 5.63333 185.202 5.18 185.202 4.6V4.51C185.202 3.93 185.042 3.48 184.722 3.16C184.409 2.83333 183.999 2.67 183.492 2.67C182.992 2.67 182.579 2.83333 182.252 3.16C181.932 3.48 181.772 3.93 181.772 4.51V4.6C181.772 5.18 181.932 5.63333 182.252 5.96C182.579 6.28 182.992 6.44 183.492 6.44ZM189.668 7.14C189.174 7.14 188.741 7.03667 188.368 6.83C187.994 6.61667 187.704 6.32 187.498 5.94C187.291 5.56 187.188 5.12 187.188 4.62V4.5C187.188 3.99333 187.291 3.55 187.498 3.17C187.704 2.79 187.991 2.49667 188.358 2.29C188.724 2.07667 189.144 1.97 189.618 1.97C190.078 1.97 190.484 2.07 190.838 2.27C191.191 2.46333 191.468 2.74333 191.668 3.11C191.868 3.47667 191.968 3.90667 191.968 4.4V4.76H187.978C187.998 5.28667 188.168 5.7 188.488 6C188.808 6.29333 189.208 6.44 189.688 6.44C190.108 6.44 190.431 6.34333 190.658 6.15C190.884 5.95667 191.058 5.72667 191.178 5.46L191.858 5.79C191.758 5.99667 191.618 6.20333 191.438 6.41C191.264 6.61667 191.034 6.79 190.748 6.93C190.468 7.07 190.108 7.14 189.668 7.14ZM187.988 4.11H191.168C191.141 3.65667 190.984 3.30333 190.698 3.05C190.418 2.79667 190.058 2.67 189.618 2.67C189.171 2.67 188.804 2.79667 188.518 3.05C188.231 3.30333 188.054 3.65667 187.988 4.11Z" fill="#797979"/>
<path d="M125.056 28V16.8H129.92C130.624 16.8 131.237 16.9227 131.76 17.168C132.283 17.4133 132.688 17.76 132.976 18.208C133.264 18.656 133.408 19.184 133.408 19.792V19.984C133.408 20.656 133.248 21.2 132.928 21.616C132.608 22.032 132.213 22.336 131.744 22.528V22.816C132.171 22.8373 132.501 22.9867 132.736 23.264C132.971 23.5307 133.088 23.888 133.088 24.336V28H130.976V24.64C130.976 24.384 130.907 24.176 130.768 24.016C130.64 23.856 130.421 23.776 130.112 23.776H127.168V28H125.056ZM127.168 21.856H129.696C130.197 21.856 130.587 21.7227 130.864 21.456C131.152 21.1787 131.296 20.816 131.296 20.368V20.208C131.296 19.76 131.157 19.4027 130.88 19.136C130.603 18.8587 130.208 18.72 129.696 18.72H127.168V21.856ZM138.845 28.224C138.056 28.224 137.357 28.0587 136.749 27.728C136.152 27.3867 135.683 26.912 135.341 26.304C135.011 25.6853 134.845 24.96 134.845 24.128V23.936C134.845 23.104 135.011 22.384 135.341 21.776C135.672 21.1573 136.136 20.6827 136.733 20.352C137.331 20.0107 138.024 19.84 138.813 19.84C139.592 19.84 140.269 20.016 140.845 20.368C141.421 20.7093 141.869 21.1893 142.189 21.808C142.509 22.416 142.669 23.1253 142.669 23.936V24.624H136.893C136.915 25.168 137.117 25.6107 137.501 25.952C137.885 26.2933 138.355 26.464 138.909 26.464C139.475 26.464 139.891 26.3413 140.157 26.096C140.424 25.8507 140.627 25.5787 140.765 25.28L142.413 26.144C142.264 26.4213 142.045 26.7253 141.757 27.056C141.48 27.376 141.107 27.6533 140.637 27.888C140.168 28.112 139.571 28.224 138.845 28.224ZM136.909 23.12H140.621C140.579 22.6613 140.392 22.2933 140.061 22.016C139.741 21.7387 139.32 21.6 138.797 21.6C138.253 21.6 137.821 21.7387 137.501 22.016C137.181 22.2933 136.984 22.6613 136.909 23.12ZM147.76 28.224C146.725 28.224 145.877 28 145.216 27.552C144.554 27.104 144.154 26.464 144.016 25.632L145.872 25.152C145.946 25.5253 146.069 25.8187 146.24 26.032C146.421 26.2453 146.64 26.4 146.896 26.496C147.162 26.5813 147.45 26.624 147.76 26.624C148.229 26.624 148.576 26.544 148.8 26.384C149.024 26.2133 149.136 26.0053 149.136 25.76C149.136 25.5147 149.029 25.328 148.816 25.2C148.602 25.0613 148.261 24.9493 147.792 24.864L147.344 24.784C146.789 24.6773 146.282 24.5333 145.824 24.352C145.365 24.16 144.997 23.8987 144.72 23.568C144.442 23.2373 144.304 22.8107 144.304 22.288C144.304 21.4987 144.592 20.896 145.168 20.48C145.744 20.0533 146.501 19.84 147.44 19.84C148.325 19.84 149.061 20.0373 149.648 20.432C150.234 20.8267 150.618 21.344 150.8 21.984L148.928 22.56C148.842 22.1547 148.666 21.8667 148.4 21.696C148.144 21.5253 147.824 21.44 147.44 21.44C147.056 21.44 146.762 21.5093 146.56 21.648C146.357 21.776 146.256 21.9573 146.256 22.192C146.256 22.448 146.362 22.64 146.576 22.768C146.789 22.8853 147.077 22.976 147.44 23.04L147.888 23.12C148.485 23.2267 149.024 23.3707 149.504 23.552C149.994 23.7227 150.378 23.9733 150.656 24.304C150.944 24.624 151.088 25.0613 151.088 25.616C151.088 26.448 150.784 27.0933 150.176 27.552C149.578 28 148.773 28.224 147.76 28.224ZM152.854 28V20.064H154.87V28H152.854ZM153.862 19.136C153.5 19.136 153.19 19.0187 152.934 18.784C152.689 18.5493 152.566 18.24 152.566 17.856C152.566 17.472 152.689 17.1627 152.934 16.928C153.19 16.6933 153.5 16.576 153.862 16.576C154.236 16.576 154.545 16.6933 154.79 16.928C155.036 17.1627 155.158 17.472 155.158 17.856C155.158 18.24 155.036 18.5493 154.79 18.784C154.545 19.0187 154.236 19.136 153.862 19.136ZM160.304 28.224C159.675 28.224 159.083 28.0693 158.528 27.76C157.984 27.44 157.547 26.976 157.216 26.368C156.886 25.76 156.72 25.024 156.72 24.16V23.904C156.72 23.04 156.886 22.304 157.216 21.696C157.547 21.088 157.984 20.6293 158.528 20.32C159.072 20 159.664 19.84 160.304 19.84C160.784 19.84 161.184 19.8987 161.504 20.016C161.835 20.1227 162.102 20.2613 162.304 20.432C162.507 20.6027 162.662 20.784 162.768 20.976H163.056V16.8H165.072V28H163.088V27.04H162.8C162.619 27.3387 162.336 27.6107 161.952 27.856C161.579 28.1013 161.03 28.224 160.304 28.224ZM160.912 26.464C161.531 26.464 162.048 26.2667 162.464 25.872C162.88 25.4667 163.088 24.88 163.088 24.112V23.952C163.088 23.184 162.88 22.6027 162.464 22.208C162.059 21.8027 161.542 21.6 160.912 21.6C160.294 21.6 159.776 21.8027 159.36 22.208C158.944 22.6027 158.736 23.184 158.736 23.952V24.112C158.736 24.88 158.944 25.4667 159.36 25.872C159.776 26.2667 160.294 26.464 160.912 26.464ZM170.924 28.224C170.134 28.224 169.436 28.0587 168.828 27.728C168.23 27.3867 167.761 26.912 167.42 26.304C167.089 25.6853 166.924 24.96 166.924 24.128V23.936C166.924 23.104 167.089 22.384 167.42 21.776C167.75 21.1573 168.214 20.6827 168.812 20.352C169.409 20.0107 170.102 19.84 170.891 19.84C171.67 19.84 172.348 20.016 172.924 20.368C173.5 20.7093 173.948 21.1893 174.267 21.808C174.588 22.416 174.748 23.1253 174.748 23.936V24.624H168.972C168.993 25.168 169.196 25.6107 169.58 25.952C169.964 26.2933 170.433 26.464 170.988 26.464C171.553 26.464 171.969 26.3413 172.236 26.096C172.502 25.8507 172.705 25.5787 172.844 25.28L174.492 26.144C174.342 26.4213 174.124 26.7253 173.836 27.056C173.558 27.376 173.185 27.6533 172.716 27.888C172.246 28.112 171.649 28.224 170.924 28.224ZM168.988 23.12H172.7C172.657 22.6613 172.47 22.2933 172.14 22.016C171.82 21.7387 171.398 21.6 170.876 21.6C170.332 21.6 169.9 21.7387 169.58 22.016C169.26 22.2933 169.062 22.6613 168.988 23.12ZM176.542 28V20.064H178.526V21.104H178.814C178.942 20.8267 179.182 20.5653 179.534 20.32C179.886 20.064 180.419 19.936 181.134 19.936C181.753 19.936 182.291 20.08 182.75 20.368C183.219 20.6453 183.582 21.0347 183.838 21.536C184.094 22.0267 184.222 22.6027 184.222 23.264V28H182.206V23.424C182.206 22.8267 182.057 22.3787 181.758 22.08C181.47 21.7813 181.054 21.632 180.51 21.632C179.891 21.632 179.411 21.84 179.07 22.256C178.729 22.6613 178.558 23.232 178.558 23.968V28H176.542ZM189.223 28C188.7 28 188.273 27.84 187.943 27.52C187.623 27.1893 187.463 26.752 187.463 26.208V21.728H185.479V20.064H187.463V17.6H189.479V20.064H191.655V21.728H189.479V25.856C189.479 26.176 189.628 26.336 189.927 26.336H191.463V28H189.223ZM193.479 28V20.064H195.495V28H193.479ZM194.487 19.136C194.125 19.136 193.815 19.0187 193.559 18.784C193.314 18.5493 193.191 18.24 193.191 17.856C193.191 17.472 193.314 17.1627 193.559 16.928C193.815 16.6933 194.125 16.576 194.487 16.576C194.861 16.576 195.17 16.6933 195.415 16.928C195.661 17.1627 195.783 17.472 195.783 17.856C195.783 18.24 195.661 18.5493 195.415 18.784C195.17 19.0187 194.861 19.136 194.487 19.136ZM200.193 28.224C199.628 28.224 199.121 28.128 198.673 27.936C198.225 27.7333 197.868 27.4453 197.601 27.072C197.345 26.688 197.217 26.224 197.217 25.68C197.217 25.136 197.345 24.6827 197.601 24.32C197.868 23.9467 198.231 23.6693 198.689 23.488C199.159 23.296 199.692 23.2 200.289 23.2H202.465V22.752C202.465 22.3787 202.348 22.0747 202.113 21.84C201.879 21.5947 201.505 21.472 200.993 21.472C200.492 21.472 200.119 21.5893 199.873 21.824C199.628 22.048 199.468 22.3413 199.393 22.704L197.537 22.08C197.665 21.6747 197.868 21.3067 198.145 20.976C198.433 20.6347 198.812 20.3627 199.281 20.16C199.761 19.9467 200.343 19.84 201.025 19.84C202.071 19.84 202.897 20.1013 203.505 20.624C204.113 21.1467 204.417 21.904 204.417 22.896V25.856C204.417 26.176 204.567 26.336 204.865 26.336H205.505V28H204.161C203.767 28 203.441 27.904 203.185 27.712C202.929 27.52 202.801 27.264 202.801 26.944V26.928H202.497C202.455 27.056 202.359 27.2267 202.209 27.44C202.06 27.6427 201.825 27.824 201.505 27.984C201.185 28.144 200.748 28.224 200.193 28.224ZM200.545 26.592C201.111 26.592 201.569 26.4373 201.921 26.128C202.284 25.808 202.465 25.3867 202.465 24.864V24.704H200.433C200.06 24.704 199.767 24.784 199.553 24.944C199.34 25.104 199.233 25.328 199.233 25.616C199.233 25.904 199.345 26.1387 199.569 26.32C199.793 26.5013 200.119 26.592 200.545 26.592ZM206.979 28V16.8H208.995V28H206.979Z" fill="#1D1D1F"/>
<path d="M6.36 59L4.25 52H5.12L7.03 58.49H7.16L9.07 52H9.94L7.83 59H6.36ZM12.1601 59.14C11.8201 59.14 11.5101 59.08 11.2301 58.96C10.9501 58.84 10.7301 58.6667 10.5701 58.44C10.4101 58.2133 10.3301 57.9367 10.3301 57.61C10.3301 57.2767 10.4101 57.0033 10.5701 56.79C10.7301 56.57 10.9501 56.4067 11.2301 56.3C11.5101 56.1867 11.8234 56.13 12.1701 56.13H13.8201V55.77C13.8201 55.4233 13.7167 55.15 13.5101 54.95C13.3101 54.75 13.0101 54.65 12.6101 54.65C12.2167 54.65 11.9101 54.7467 11.6901 54.94C11.4701 55.1267 11.3201 55.38 11.2401 55.7L10.5001 55.46C10.5801 55.1867 10.7067 54.94 10.8801 54.72C11.0534 54.4933 11.2834 54.3133 11.5701 54.18C11.8634 54.04 12.2134 53.97 12.6201 53.97C13.2467 53.97 13.7334 54.1333 14.0801 54.46C14.4267 54.78 14.6001 55.2333 14.6001 55.82V58.03C14.6001 58.23 14.6934 58.33 14.8801 58.33H15.3301V59H14.6401C14.4201 59 14.2434 58.94 14.1101 58.82C13.9767 58.6933 13.9101 58.5267 13.9101 58.32V58.27H13.7901C13.7167 58.3967 13.6167 58.53 13.4901 58.67C13.3701 58.8033 13.2034 58.9133 12.9901 59C12.7767 59.0933 12.5001 59.14 12.1601 59.14ZM12.2501 58.46C12.7167 58.46 13.0934 58.3233 13.3801 58.05C13.6734 57.77 13.8201 57.38 13.8201 56.88V56.77H12.2001C11.8867 56.77 11.6267 56.84 11.4201 56.98C11.2201 57.1133 11.1201 57.3167 11.1201 57.59C11.1201 57.8633 11.2234 58.0767 11.4301 58.23C11.6434 58.3833 11.9167 58.46 12.2501 58.46ZM16.412 59V52H17.202V59H16.412ZM20.7332 59.09C20.3799 59.09 20.0532 59.0133 19.7532 58.86C19.4599 58.7067 19.2265 58.48 19.0532 58.18C18.8865 57.8733 18.8032 57.5033 18.8032 57.07V54.11H19.5932V57.01C19.5932 57.4967 19.7132 57.85 19.9532 58.07C20.1999 58.29 20.5299 58.4 20.9432 58.4C21.4099 58.4 21.7932 58.2467 22.0932 57.94C22.3932 57.6333 22.5432 57.1767 22.5432 56.57V54.11H23.3332V59H22.5632V58.17H22.4232C22.3165 58.4033 22.1332 58.6167 21.8732 58.81C21.6132 58.9967 21.2332 59.09 20.7332 59.09ZM27.2263 59.14C26.7329 59.14 26.2996 59.0367 25.9263 58.83C25.5529 58.6167 25.2629 58.32 25.0563 57.94C24.8496 57.56 24.7463 57.12 24.7463 56.62V56.5C24.7463 55.9933 24.8496 55.55 25.0563 55.17C25.2629 54.79 25.5496 54.4967 25.9163 54.29C26.2829 54.0767 26.7029 53.97 27.1763 53.97C27.6363 53.97 28.0429 54.07 28.3963 54.27C28.7496 54.4633 29.0263 54.7433 29.2263 55.11C29.4263 55.4767 29.5263 55.9067 29.5263 56.4V56.76H25.5363C25.5563 57.2867 25.7263 57.7 26.0463 58C26.3663 58.2933 26.7663 58.44 27.2463 58.44C27.6663 58.44 27.9896 58.3433 28.2163 58.15C28.4429 57.9567 28.6163 57.7267 28.7363 57.46L29.4163 57.79C29.3163 57.9967 29.1763 58.2033 28.9963 58.41C28.8229 58.6167 28.5929 58.79 28.3063 58.93C28.0263 59.07 27.6663 59.14 27.2263 59.14ZM25.5463 56.11H28.7263C28.6996 55.6567 28.5429 55.3033 28.2563 55.05C27.9763 54.7967 27.6163 54.67 27.1763 54.67C26.7296 54.67 26.3629 54.7967 26.0763 55.05C25.7896 55.3033 25.6129 55.6567 25.5463 56.11Z" fill="#797979"/>
<path d="M5.056 80V68.8H9.92C10.624 68.8 11.2373 68.9227 11.76 69.168C12.2827 69.4133 12.688 69.76 12.976 70.208C13.264 70.656 13.408 71.184 13.408 71.792V71.984C13.408 72.656 13.248 73.2 12.928 73.616C12.608 74.032 12.2133 74.336 11.744 74.528V74.816C12.1707 74.8373 12.5013 74.9867 12.736 75.264C12.9707 75.5307 13.088 75.888 13.088 76.336V80H10.976V76.64C10.976 76.384 10.9067 76.176 10.768 76.016C10.64 75.856 10.4213 75.776 10.112 75.776H7.168V80H5.056ZM7.168 73.856H9.696C10.1973 73.856 10.5867 73.7227 10.864 73.456C11.152 73.1787 11.296 72.816 11.296 72.368V72.208C11.296 71.76 11.1573 71.4027 10.88 71.136C10.6027 70.8587 10.208 70.72 9.696 70.72H7.168V73.856ZM18.5254 80.224C17.4907 80.224 16.6427 80 15.9814 79.552C15.32 79.104 14.92 78.464 14.7814 77.632L16.6374 77.152C16.712 77.5253 16.8347 77.8187 17.0054 78.032C17.1867 78.2453 17.4054 78.4 17.6614 78.496C17.928 78.5813 18.216 78.624 18.5254 78.624C18.9947 78.624 19.3414 78.544 19.5654 78.384C19.7894 78.2133 19.9014 78.0053 19.9014 77.76C19.9014 77.5147 19.7947 77.328 19.5814 77.2C19.368 77.0613 19.0267 76.9493 18.5574 76.864L18.1094 76.784C17.5547 76.6773 17.048 76.5333 16.5894 76.352C16.1307 76.16 15.7627 75.8987 15.4854 75.568C15.208 75.2373 15.0694 74.8107 15.0694 74.288C15.0694 73.4987 15.3574 72.896 15.9334 72.48C16.5094 72.0533 17.2667 71.84 18.2054 71.84C19.0907 71.84 19.8267 72.0373 20.4134 72.432C21 72.8267 21.384 73.344 21.5654 73.984L19.6934 74.56C19.608 74.1547 19.432 73.8667 19.1654 73.696C18.9094 73.5253 18.5894 73.44 18.2054 73.44C17.8214 73.44 17.528 73.5093 17.3254 73.648C17.1227 73.776 17.0214 73.9573 17.0214 74.192C17.0214 74.448 17.128 74.64 17.3414 74.768C17.5547 74.8853 17.8427 74.976 18.2054 75.04L18.6534 75.12C19.2507 75.2267 19.7894 75.3707 20.2694 75.552C20.76 75.7227 21.144 75.9733 21.4214 76.304C21.7094 76.624 21.8534 77.0613 21.8534 77.616C21.8534 78.448 21.5494 79.0933 20.9414 79.552C20.344 80 19.5387 80.224 18.5254 80.224ZM30.6905 80V70.304H30.4025L28.8985 73.856H26.7545L29.0425 68.8H32.7385V80H30.6905ZM35.0609 82.352V81.264H35.6849C36.1755 81.264 36.4209 81.0187 36.4209 80.528V80.016H36.1489C35.7222 80.016 35.3649 79.888 35.0769 79.632C34.7995 79.376 34.6609 79.0507 34.6609 78.656C34.6609 78.2293 34.7995 77.8827 35.0769 77.616C35.3649 77.3493 35.7222 77.216 36.1489 77.216C36.5862 77.216 36.9435 77.3547 37.2209 77.632C37.4982 77.8987 37.6369 78.2613 37.6369 78.72V80.56C37.6369 81.7547 37.0395 82.352 35.8449 82.352H35.0609ZM43.4965 80.224C42.1738 80.224 41.1125 79.8613 40.3125 79.136C39.5125 78.4 39.1125 77.2907 39.1125 75.808V72.992C39.1125 71.552 39.5125 70.4587 40.3125 69.712C41.1125 68.9547 42.1738 68.576 43.4965 68.576C44.8298 68.576 45.8912 68.9547 46.6805 69.712C47.4805 70.4587 47.8805 71.552 47.8805 72.992V75.808C47.8805 77.2907 47.4805 78.4 46.6805 79.136C45.8912 79.8613 44.8298 80.224 43.4965 80.224ZM43.4965 78.4C44.2965 78.4 44.8832 78.1813 45.2565 77.744C45.6405 77.3067 45.8325 76.6827 45.8325 75.872V72.896C45.8325 72.0747 45.6192 71.456 45.1925 71.04C44.7765 70.6133 44.2112 70.4 43.4965 70.4C42.7605 70.4 42.1845 70.6187 41.7685 71.056C41.3632 71.4933 41.1605 72.1067 41.1605 72.896V75.872C41.1605 76.7147 41.3525 77.3493 41.7365 77.776C42.1312 78.192 42.7178 78.4 43.4965 78.4ZM53.8715 80.224C52.5488 80.224 51.4875 79.8613 50.6875 79.136C49.8875 78.4 49.4875 77.2907 49.4875 75.808V72.992C49.4875 71.552 49.8875 70.4587 50.6875 69.712C51.4875 68.9547 52.5488 68.576 53.8715 68.576C55.2048 68.576 56.2662 68.9547 57.0555 69.712C57.8555 70.4587 58.2555 71.552 58.2555 72.992V75.808C58.2555 77.2907 57.8555 78.4 57.0555 79.136C56.2662 79.8613 55.2048 80.224 53.8715 80.224ZM53.8715 78.4C54.6715 78.4 55.2582 78.1813 55.6315 77.744C56.0155 77.3067 56.2075 76.6827 56.2075 75.872V72.896C56.2075 72.0747 55.9942 71.456 55.5675 71.04C55.1515 70.6133 54.5862 70.4 53.8715 70.4C53.1355 70.4 52.5595 70.6187 52.1435 71.056C51.7382 71.4933 51.5355 72.1067 51.5355 72.896V75.872C51.5355 76.7147 51.7275 77.3493 52.1115 77.776C52.5062 78.192 53.0928 78.4 53.8715 78.4ZM60.139 82.352V81.264H60.763C61.2537 81.264 61.499 81.0187 61.499 80.528V80.016H61.227C60.8003 80.016 60.443 79.888 60.155 79.632C59.8777 79.376 59.739 79.0507 59.739 78.656C59.739 78.2293 59.8777 77.8827 60.155 77.616C60.443 77.3493 60.8003 77.216 61.227 77.216C61.6643 77.216 62.0217 77.3547 62.299 77.632C62.5763 77.8987 62.715 78.2613 62.715 78.72V80.56C62.715 81.7547 62.1177 82.352 60.923 82.352H60.139ZM68.5746 80.224C67.252 80.224 66.1906 79.8613 65.3906 79.136C64.5906 78.4 64.1906 77.2907 64.1906 75.808V72.992C64.1906 71.552 64.5906 70.4587 65.3906 69.712C66.1906 68.9547 67.252 68.576 68.5746 68.576C69.908 68.576 70.9693 68.9547 71.7586 69.712C72.5586 70.4587 72.9586 71.552 72.9586 72.992V75.808C72.9586 77.2907 72.5586 78.4 71.7586 79.136C70.9693 79.8613 69.908 80.224 68.5746 80.224ZM68.5746 78.4C69.3746 78.4 69.9613 78.1813 70.3346 77.744C70.7186 77.3067 70.9106 76.6827 70.9106 75.872V72.896C70.9106 72.0747 70.6973 71.456 70.2706 71.04C69.8546 70.6133 69.2893 70.4 68.5746 70.4C67.8386 70.4 67.2626 70.6187 66.8466 71.056C66.4413 71.4933 66.2386 72.1067 66.2386 72.896V75.872C66.2386 76.7147 66.4306 77.3493 66.8146 77.776C67.2093 78.192 67.796 78.4 68.5746 78.4ZM78.9496 80.224C77.627 80.224 76.5656 79.8613 75.7656 79.136C74.9656 78.4 74.5656 77.2907 74.5656 75.808V72.992C74.5656 71.552 74.9656 70.4587 75.7656 69.712C76.5656 68.9547 77.627 68.576 78.9496 68.576C80.283 68.576 81.3443 68.9547 82.1336 69.712C82.9336 70.4587 83.3336 71.552 83.3336 72.992V75.808C83.3336 77.2907 82.9336 78.4 82.1336 79.136C81.3443 79.8613 80.283 80.224 78.9496 80.224ZM78.9496 78.4C79.7496 78.4 80.3363 78.1813 80.7096 77.744C81.0936 77.3067 81.2856 76.6827 81.2856 75.872V72.896C81.2856 72.0747 81.0723 71.456 80.6456 71.04C80.2296 70.6133 79.6643 70.4 78.9496 70.4C78.2136 70.4 77.6376 70.6187 77.2216 71.056C76.8163 71.4933 76.6136 72.1067 76.6136 72.896V75.872C76.6136 76.7147 76.8056 77.3493 77.1896 77.776C77.5843 78.192 78.171 78.4 78.9496 78.4ZM85.2171 82.352V81.264H85.8411C86.3318 81.264 86.5771 81.0187 86.5771 80.528V80.016H86.3051C85.8785 80.016 85.5211 79.888 85.2331 79.632C84.9558 79.376 84.8171 79.0507 84.8171 78.656C84.8171 78.2293 84.9558 77.8827 85.2331 77.616C85.5211 77.3493 85.8785 77.216 86.3051 77.216C86.7425 77.216 87.0998 77.3547 87.3771 77.632C87.6545 77.8987 87.7931 78.2613 87.7931 78.72V80.56C87.7931 81.7547 87.1958 82.352 86.0011 82.352H85.2171ZM93.6528 80.224C92.3301 80.224 91.2688 79.8613 90.4688 79.136C89.6688 78.4 89.2688 77.2907 89.2688 75.808V72.992C89.2688 71.552 89.6688 70.4587 90.4688 69.712C91.2688 68.9547 92.3301 68.576 93.6528 68.576C94.9861 68.576 96.0474 68.9547 96.8368 69.712C97.6368 70.4587 98.0368 71.552 98.0368 72.992V75.808C98.0368 77.2907 97.6368 78.4 96.8368 79.136C96.0474 79.8613 94.9861 80.224 93.6528 80.224ZM93.6528 78.4C94.4528 78.4 95.0394 78.1813 95.4128 77.744C95.7968 77.3067 95.9888 76.6827 95.9888 75.872V72.896C95.9888 72.0747 95.7754 71.456 95.3488 71.04C94.9328 70.6133 94.3674 70.4 93.6528 70.4C92.9168 70.4 92.3408 70.6187 91.9248 71.056C91.5194 71.4933 91.3168 72.1067 91.3168 72.896V75.872C91.3168 76.7147 91.5088 77.3493 91.8928 77.776C92.2874 78.192 92.8741 78.4 93.6528 78.4ZM104.028 80.224C102.705 80.224 101.644 79.8613 100.844 79.136C100.044 78.4 99.6438 77.2907 99.6438 75.808V72.992C99.6438 71.552 100.044 70.4587 100.844 69.712C101.644 68.9547 102.705 68.576 104.028 68.576C105.361 68.576 106.422 68.9547 107.212 69.712C108.012 70.4587 108.412 71.552 108.412 72.992V75.808C108.412 77.2907 108.012 78.4 107.212 79.136C106.422 79.8613 105.361 80.224 104.028 80.224ZM104.028 78.4C104.828 78.4 105.414 78.1813 105.788 77.744C106.172 77.3067 106.364 76.6827 106.364 75.872V72.896C106.364 72.0747 106.15 71.456 105.724 71.04C105.308 70.6133 104.742 70.4 104.028 70.4C103.292 70.4 102.716 70.6187 102.3 71.056C101.894 71.4933 101.692 72.1067 101.692 72.896V75.872C101.692 76.7147 101.884 77.3493 102.268 77.776C102.662 78.192 103.249 78.4 104.028 78.4ZM114.403 80.224C113.08 80.224 112.019 79.8613 111.219 79.136C110.419 78.4 110.019 77.2907 110.019 75.808V72.992C110.019 71.552 110.419 70.4587 111.219 69.712C112.019 68.9547 113.08 68.576 114.403 68.576C115.736 68.576 116.797 68.9547 117.587 69.712C118.387 70.4587 118.787 71.552 118.787 72.992V75.808C118.787 77.2907 118.387 78.4 117.587 79.136C116.797 79.8613 115.736 80.224 114.403 80.224ZM114.403 78.4C115.203 78.4 115.789 78.1813 116.163 77.744C116.547 77.3067 116.739 76.6827 116.739 75.872V72.896C116.739 72.0747 116.525 71.456 116.099 71.04C115.683 70.6133 115.117 70.4 114.403 70.4C113.667 70.4 113.091 70.6187 112.675 71.056C112.269 71.4933 112.067 72.1067 112.067 72.896V75.872C112.067 76.7147 112.259 77.3493 112.643 77.776C113.037 78.192 113.624 78.4 114.403 78.4Z" fill="#0091FF"/>
<g filter="url(#filter0_d_1294_4274)">
<rect x="4" y="104" width="93" height="21" rx="10.5" fill="url(#paint0_linear_1294_4274)" shape-rendering="crispEdges"/>
<path d="M17.38 118.14C16.5 118.14 15.8 117.9 15.28 117.42C14.76 116.933 14.5 116.24 14.5 115.34V113.66C14.5 112.76 14.76 112.07 15.28 111.59C15.8 111.103 16.5 110.86 17.38 110.86C18.26 110.86 18.96 111.103 19.48 111.59C20 112.07 20.26 112.76 20.26 113.66V115.34C20.26 116.24 20 116.933 19.48 117.42C18.96 117.9 18.26 118.14 17.38 118.14ZM17.38 116.96C17.8733 116.96 18.2567 116.817 18.53 116.53C18.8033 116.243 18.94 115.86 18.94 115.38V113.62C18.94 113.14 18.8033 112.757 18.53 112.47C18.2567 112.183 17.8733 112.04 17.38 112.04C16.8933 112.04 16.51 112.183 16.23 112.47C15.9567 112.757 15.82 113.14 15.82 113.62V115.38C15.82 115.86 15.9567 116.243 16.23 116.53C16.51 116.817 16.8933 116.96 17.38 116.96ZM21.8578 118L21.1578 113.04H22.4078L22.8478 117.15H23.0278L23.6678 113.04H25.6878L26.3278 117.15H26.5078L26.9478 113.04H28.1978L27.4978 118H25.4078L24.7678 113.89H24.5878L23.9478 118H21.8578ZM29.2996 118V113.04H30.5396V113.69H30.7196C30.7996 113.517 30.9496 113.353 31.1696 113.2C31.3896 113.04 31.7229 112.96 32.1696 112.96C32.5563 112.96 32.8929 113.05 33.1796 113.23C33.4729 113.403 33.6996 113.647 33.8596 113.96C34.0196 114.267 34.0996 114.627 34.0996 115.04V118H32.8396V115.14C32.8396 114.767 32.7463 114.487 32.5596 114.3C32.3796 114.113 32.1196 114.02 31.7796 114.02C31.3929 114.02 31.0929 114.15 30.8796 114.41C30.6663 114.663 30.5596 115.02 30.5596 115.48V118H29.2996ZM37.7217 118.14C37.2284 118.14 36.7917 118.037 36.4117 117.83C36.0384 117.617 35.7451 117.32 35.5317 116.94C35.3251 116.553 35.2217 116.1 35.2217 115.58V115.46C35.2217 114.94 35.3251 114.49 35.5317 114.11C35.7384 113.723 36.0284 113.427 36.4017 113.22C36.7751 113.007 37.2084 112.9 37.7017 112.9C38.1884 112.9 38.6117 113.01 38.9717 113.23C39.3317 113.443 39.6117 113.743 39.8117 114.13C40.0117 114.51 40.1117 114.953 40.1117 115.46V115.89H36.5017C36.5151 116.23 36.6417 116.507 36.8817 116.72C37.1217 116.933 37.4151 117.04 37.7617 117.04C38.1151 117.04 38.3751 116.963 38.5417 116.81C38.7084 116.657 38.8351 116.487 38.9217 116.3L39.9517 116.84C39.8584 117.013 39.7217 117.203 39.5417 117.41C39.3684 117.61 39.1351 117.783 38.8417 117.93C38.5484 118.07 38.1751 118.14 37.7217 118.14ZM36.5117 114.95H38.8317C38.8051 114.663 38.6884 114.433 38.4817 114.26C38.2817 114.087 38.0184 114 37.6917 114C37.3517 114 37.0817 114.087 36.8817 114.26C36.6817 114.433 36.5584 114.663 36.5117 114.95ZM41.2332 118V113.04H42.4732V113.6H42.6532C42.7265 113.4 42.8465 113.253 43.0132 113.16C43.1865 113.067 43.3865 113.02 43.6132 113.02H44.2132V114.14H43.5932C43.2732 114.14 43.0099 114.227 42.8032 114.4C42.5965 114.567 42.4932 114.827 42.4932 115.18V118H41.2332ZM47.1409 118.14C46.4942 118.14 45.9642 118 45.5509 117.72C45.1375 117.44 44.8875 117.04 44.8009 116.52L45.9609 116.22C46.0075 116.453 46.0842 116.637 46.1909 116.77C46.3042 116.903 46.4409 117 46.6009 117.06C46.7675 117.113 46.9475 117.14 47.1409 117.14C47.4342 117.14 47.6509 117.09 47.7909 116.99C47.9309 116.883 48.0009 116.753 48.0009 116.6C48.0009 116.447 47.9342 116.33 47.8009 116.25C47.6675 116.163 47.4542 116.093 47.1609 116.04L46.8809 115.99C46.5342 115.923 46.2175 115.833 45.9309 115.72C45.6442 115.6 45.4142 115.437 45.2409 115.23C45.0675 115.023 44.9809 114.757 44.9809 114.43C44.9809 113.937 45.1609 113.56 45.5209 113.3C45.8809 113.033 46.3542 112.9 46.9409 112.9C47.4942 112.9 47.9542 113.023 48.3209 113.27C48.6875 113.517 48.9275 113.84 49.0409 114.24L47.8709 114.6C47.8175 114.347 47.7075 114.167 47.5409 114.06C47.3809 113.953 47.1809 113.9 46.9409 113.9C46.7009 113.9 46.5175 113.943 46.3909 114.03C46.2642 114.11 46.2009 114.223 46.2009 114.37C46.2009 114.53 46.2675 114.65 46.4009 114.73C46.5342 114.803 46.7142 114.86 46.9409 114.9L47.2209 114.95C47.5942 115.017 47.9309 115.107 48.2309 115.22C48.5375 115.327 48.7775 115.483 48.9509 115.69C49.1309 115.89 49.2209 116.163 49.2209 116.51C49.2209 117.03 49.0309 117.433 48.6509 117.72C48.2775 118 47.7742 118.14 47.1409 118.14ZM50.325 118V111H51.585V113.65H51.765C51.8183 113.543 51.9017 113.437 52.015 113.33C52.1283 113.223 52.2783 113.137 52.465 113.07C52.6583 112.997 52.9017 112.96 53.195 112.96C53.5817 112.96 53.9183 113.05 54.205 113.23C54.4983 113.403 54.725 113.647 54.885 113.96C55.045 114.267 55.125 114.627 55.125 115.04V118H53.865V115.14C53.865 114.767 53.7717 114.487 53.585 114.3C53.405 114.113 53.145 114.02 52.805 114.02C52.4183 114.02 52.1183 114.15 51.905 114.41C51.6917 114.663 51.585 115.02 51.585 115.48V118H50.325ZM56.4871 118V113.04H57.7471V118H56.4871ZM57.1171 112.46C56.8904 112.46 56.6971 112.387 56.5371 112.24C56.3838 112.093 56.3071 111.9 56.3071 111.66C56.3071 111.42 56.3838 111.227 56.5371 111.08C56.6971 110.933 56.8904 110.86 57.1171 110.86C57.3504 110.86 57.5438 110.933 57.6971 111.08C57.8504 111.227 57.9271 111.42 57.9271 111.66C57.9271 111.9 57.8504 112.093 57.6971 112.24C57.5438 112.387 57.3504 112.46 57.1171 112.46ZM59.1434 120V113.04H60.3834V113.64H60.5634C60.6767 113.447 60.8534 113.277 61.0934 113.13C61.3334 112.977 61.6767 112.9 62.1234 112.9C62.5234 112.9 62.8934 113 63.2334 113.2C63.5734 113.393 63.8467 113.68 64.0534 114.06C64.26 114.44 64.3634 114.9 64.3634 115.44V115.6C64.3634 116.14 64.26 116.6 64.0534 116.98C63.8467 117.36 63.5734 117.65 63.2334 117.85C62.8934 118.043 62.5234 118.14 62.1234 118.14C61.8234 118.14 61.57 118.103 61.3634 118.03C61.1634 117.963 61 117.877 60.8734 117.77C60.7534 117.657 60.6567 117.543 60.5834 117.43H60.4034V120H59.1434ZM61.7434 117.04C62.1367 117.04 62.46 116.917 62.7134 116.67C62.9734 116.417 63.1034 116.05 63.1034 115.57V115.47C63.1034 114.99 62.9734 114.627 62.7134 114.38C62.4534 114.127 62.13 114 61.7434 114C61.3567 114 61.0334 114.127 60.7734 114.38C60.5134 114.627 60.3834 114.99 60.3834 115.47V115.57C60.3834 116.05 60.5134 116.417 60.7734 116.67C61.0334 116.917 61.3567 117.04 61.7434 117.04Z" fill="#0091FF"/>
<rect x="76.5" y="109.5" width="10" height="10" rx="5" fill="#0091FF"/>
<rect x="76.5" y="109.5" width="10" height="10" rx="5" stroke="#0091FF"/>
<path d="M83.5725 112.609L84.25 113.297L81.4546 116.051C81.2679 116.238 81.0223 116.331 80.7757 116.331C80.5291 116.331 80.2811 116.237 80.0924 116.048L78.75 114.748L79.4222 114.054L80.7699 115.36L83.5725 112.609Z" fill="white"/>
</g>
<g filter="url(#filter1_d_1294_4274)">
<rect x="107" y="104" width="93" height="21" rx="10.5" fill="url(#paint1_linear_1294_4274)" shape-rendering="crispEdges"/>
<path d="M118.96 118L117.18 111H118.54L120.02 117.15H120.16L121.64 111H123L121.22 118H118.96ZM125.119 118.14C124.766 118.14 124.449 118.08 124.169 117.96C123.889 117.833 123.666 117.653 123.499 117.42C123.339 117.18 123.259 116.89 123.259 116.55C123.259 116.21 123.339 115.927 123.499 115.7C123.666 115.467 123.892 115.293 124.179 115.18C124.472 115.06 124.806 115 125.179 115H126.539V114.72C126.539 114.487 126.466 114.297 126.319 114.15C126.172 113.997 125.939 113.92 125.619 113.92C125.306 113.92 125.072 113.993 124.919 114.14C124.766 114.28 124.666 114.463 124.619 114.69L123.459 114.3C123.539 114.047 123.666 113.817 123.839 113.61C124.019 113.397 124.256 113.227 124.549 113.1C124.849 112.967 125.212 112.9 125.639 112.9C126.292 112.9 126.809 113.063 127.189 113.39C127.569 113.717 127.759 114.19 127.759 114.81V116.66C127.759 116.86 127.852 116.96 128.039 116.96H128.439V118H127.599C127.352 118 127.149 117.94 126.989 117.82C126.829 117.7 126.749 117.54 126.749 117.34V117.33H126.559C126.532 117.41 126.472 117.517 126.379 117.65C126.286 117.777 126.139 117.89 125.939 117.99C125.739 118.09 125.466 118.14 125.119 118.14ZM125.339 117.12C125.692 117.12 125.979 117.023 126.199 116.83C126.426 116.63 126.539 116.367 126.539 116.04V115.94H125.269C125.036 115.94 124.852 115.99 124.719 116.09C124.586 116.19 124.519 116.33 124.519 116.51C124.519 116.69 124.589 116.837 124.729 116.95C124.869 117.063 125.072 117.12 125.339 117.12ZM129.36 118V111H130.62V118H129.36ZM133.906 118.08C133.52 118.08 133.18 117.993 132.886 117.82C132.6 117.64 132.376 117.393 132.216 117.08C132.056 116.767 131.976 116.407 131.976 116V113.04H133.236V115.9C133.236 116.273 133.326 116.553 133.506 116.74C133.693 116.927 133.956 117.02 134.296 117.02C134.683 117.02 134.983 116.893 135.196 116.64C135.41 116.38 135.516 116.02 135.516 115.56V113.04H136.776V118H135.536V117.35H135.356C135.276 117.517 135.126 117.68 134.906 117.84C134.686 118 134.353 118.08 133.906 118.08ZM140.439 118.14C139.945 118.14 139.509 118.037 139.129 117.83C138.755 117.617 138.462 117.32 138.249 116.94C138.042 116.553 137.939 116.1 137.939 115.58V115.46C137.939 114.94 138.042 114.49 138.249 114.11C138.455 113.723 138.745 113.427 139.119 113.22C139.492 113.007 139.925 112.9 140.419 112.9C140.905 112.9 141.329 113.01 141.689 113.23C142.049 113.443 142.329 113.743 142.529 114.13C142.729 114.51 142.829 114.953 142.829 115.46V115.89H139.219C139.232 116.23 139.359 116.507 139.599 116.72C139.839 116.933 140.132 117.04 140.479 117.04C140.832 117.04 141.092 116.963 141.259 116.81C141.425 116.657 141.552 116.487 141.639 116.3L142.669 116.84C142.575 117.013 142.439 117.203 142.259 117.41C142.085 117.61 141.852 117.783 141.559 117.93C141.265 118.07 140.892 118.14 140.439 118.14ZM139.229 114.95H141.549C141.522 114.663 141.405 114.433 141.199 114.26C140.999 114.087 140.735 114 140.409 114C140.069 114 139.799 114.087 139.599 114.26C139.399 114.433 139.275 114.663 139.229 114.95Z" fill="#0091FF"/>
<rect x="179.5" y="109.5" width="10" height="10" rx="5" fill="#0091FF"/>
<rect x="179.5" y="109.5" width="10" height="10" rx="5" stroke="#0091FF"/>
<path d="M186.573 112.609L187.25 113.297L184.455 116.051C184.268 116.238 184.022 116.331 183.776 116.331C183.529 116.331 183.281 116.237 183.092 116.048L181.75 114.748L182.422 114.054L183.77 115.36L186.573 112.609Z" fill="white"/>
</g>
<g filter="url(#filter2_d_1294_4274)">
<rect x="210" y="104" width="93" height="21" rx="10.5" fill="url(#paint2_linear_1294_4274)" shape-rendering="crispEdges"/>
<path d="M220.66 118V111H223.17L224.56 117.1H224.74V111H226.04V118H223.53L222.14 111.9H221.96V118H220.66ZM230.079 118.14C229.199 118.14 228.499 117.9 227.979 117.42C227.459 116.933 227.199 116.24 227.199 115.34V113.66C227.199 112.76 227.459 112.07 227.979 111.59C228.499 111.103 229.199 110.86 230.079 110.86C230.959 110.86 231.659 111.103 232.179 111.59C232.699 112.07 232.959 112.76 232.959 113.66V115.34C232.959 116.24 232.699 116.933 232.179 117.42C231.659 117.9 230.959 118.14 230.079 118.14ZM230.079 116.96C230.573 116.96 230.956 116.817 231.229 116.53C231.503 116.243 231.639 115.86 231.639 115.38V113.62C231.639 113.14 231.503 112.757 231.229 112.47C230.956 112.183 230.573 112.04 230.079 112.04C229.593 112.04 229.209 112.183 228.929 112.47C228.656 112.757 228.519 113.14 228.519 113.62V115.38C228.519 115.86 228.656 116.243 228.929 116.53C229.209 116.817 229.593 116.96 230.079 116.96ZM236.777 118.14C235.91 118.14 235.224 117.9 234.717 117.42C234.21 116.933 233.957 116.24 233.957 115.34V113.66C233.957 112.76 234.21 112.07 234.717 111.59C235.224 111.103 235.91 110.86 236.777 110.86C237.637 110.86 238.3 111.097 238.767 111.57C239.24 112.037 239.477 112.68 239.477 113.5V113.56H238.177V113.46C238.177 113.047 238.06 112.707 237.827 112.44C237.6 112.173 237.25 112.04 236.777 112.04C236.31 112.04 235.944 112.183 235.677 112.47C235.41 112.757 235.277 113.147 235.277 113.64V115.36C235.277 115.847 235.41 116.237 235.677 116.53C235.944 116.817 236.31 116.96 236.777 116.96C237.25 116.96 237.6 116.827 237.827 116.56C238.06 116.287 238.177 115.947 238.177 115.54V115.36H239.477V115.5C239.477 116.32 239.24 116.967 238.767 117.44C238.3 117.907 237.637 118.14 236.777 118.14Z" fill="#0091FF"/>
<rect x="282.5" y="109.5" width="10" height="10" rx="5" fill="#0091FF"/>
<rect x="282.5" y="109.5" width="10" height="10" rx="5" stroke="#0091FF"/>
<path d="M289.573 112.609L290.25 113.297L287.455 116.051C287.268 116.238 287.022 116.331 286.776 116.331C286.529 116.331 286.281 116.237 286.092 116.048L284.75 114.748L285.422 114.054L286.77 115.36L289.573 112.609Z" fill="white"/>
</g>
<defs>
<filter id="filter0_d_1294_4274" x="0" y="104" width="101" height="29" filterUnits="userSpaceOnUse" color-interpolation-filters="sRGB">
<feFlood flood-opacity="0" result="BackgroundImageFix"/>
<feColorMatrix in="SourceAlpha" type="matrix" values="0 0 0 0 0 0 0 0 0 0 0 0 0 0 0 0 0 0 127 0" result="hardAlpha"/>
<feOffset dy="4"/>
<feGaussianBlur stdDeviation="2"/>
<feComposite in2="hardAlpha" operator="out"/>
<feColorMatrix type="matrix" values="0 0 0 0 0 0 0 0 0 0 0 0 0 0 0 0 0 0 0.25 0"/>
<feBlend mode="normal" in2="BackgroundImageFix" result="effect1_dropShadow_1294_4274"/>
<feBlend mode="normal" in="SourceGraphic" in2="effect1_dropShadow_1294_4274" result="shape"/>
</filter>
<filter id="filter1_d_1294_4274" x="103" y="104" width="101" height="29" filterUnits="userSpaceOnUse" color-interpolation-filters="sRGB">
<feFlood flood-opacity="0" result="BackgroundImageFix"/>
<feColorMatrix in="SourceAlpha" type="matrix" values="0 0 0 0 0 0 0 0 0 0 0 0 0 0 0 0 0 0 127 0" result="hardAlpha"/>
<feOffset dy="4"/>
<feGaussianBlur stdDeviation="2"/>
<feComposite in2="hardAlpha" operator="out"/>
<feColorMatrix type="matrix" values="0 0 0 0 0 0 0 0 0 0 0 0 0 0 0 0 0 0 0.25 0"/>
<feBlend mode="normal" in2="BackgroundImageFix" result="effect1_dropShadow_1294_4274"/>
<feBlend mode="normal" in="SourceGraphic" in2="effect1_dropShadow_1294_4274" result="shape"/>
</filter>
<filter id="filter2_d_1294_4274" x="206" y="104" width="101" height="29" filterUnits="userSpaceOnUse" color-interpolation-filters="sRGB">
<feFlood flood-opacity="0" result="BackgroundImageFix"/>
<feColorMatrix in="SourceAlpha" type="matrix" values="0 0 0 0 0 0 0 0 0 0 0 0 0 0 0 0 0 0 127 0" result="hardAlpha"/>
<feOffset dy="4"/>
<feGaussianBlur stdDeviation="2"/>
<feComposite in2="hardAlpha" operator="out"/>
<feColorMatrix type="matrix" values="0 0 0 0 0 0 0 0 0 0 0 0 0 0 0 0 0 0 0.25 0"/>
<feBlend mode="normal" in2="BackgroundImageFix" result="effect1_dropShadow_1294_4274"/>
<feBlend mode="normal" in="SourceGraphic" in2="effect1_dropShadow_1294_4274" result="shape"/>
</filter>
<linearGradient id="paint0_linear_1294_4274" x1="4" y1="114.5" x2="97" y2="114.5" gradientUnits="userSpaceOnUse">
<stop offset="0.43" stop-color="white"/>
<stop offset="1" stop-color="#CBE9FF"/>
</linearGradient>
<linearGradient id="paint1_linear_1294_4274" x1="107" y1="114.5" x2="200" y2="114.5" gradientUnits="userSpaceOnUse">
<stop offset="0.43" stop-color="white"/>
<stop offset="1" stop-color="#CBE9FF"/>
</linearGradient>
<linearGradient id="paint2_linear_1294_4274" x1="210" y1="114.5" x2="303" y2="114.5" gradientUnits="userSpaceOnUse">
<stop offset="0.43" stop-color="white"/>
<stop offset="1" stop-color="#CBE9FF"/>
</linearGradient>
</defs>
</svg>
