<svg width="366" height="286" viewBox="0 0 366 286" fill="none" xmlns="http://www.w3.org/2000/svg">
<g filter="url(#filter0_d_1294_4079)">
<g clip-path="url(#clip0_1294_4079)">
<rect x="8" y="8.5" width="350" height="269" rx="20" fill="white"/>
<path d="M28.8 95.5V88.5H31.48C31.9 88.5 32.2733 88.5833 32.6 88.75C32.9333 88.91 33.1967 89.14 33.39 89.44C33.5833 89.74 33.68 90.1033 33.68 90.53V90.66C33.68 91.08 33.58 91.4433 33.38 91.75C33.1867 92.05 32.9233 92.28 32.59 92.44C32.2567 92.6 31.8867 92.68 31.48 92.68H29.64V95.5H28.8ZM29.64 91.92H31.39C31.8367 91.92 32.19 91.81 32.45 91.59C32.71 91.3633 32.84 91.0467 32.84 90.64V90.54C32.84 90.1333 32.71 89.82 32.45 89.6C32.1967 89.3733 31.8433 89.26 31.39 89.26H29.64V91.92ZM34.8359 95.5V90.61H35.6059V91.21H35.7459C35.8325 90.9967 35.9659 90.84 36.1459 90.74C36.3259 90.64 36.5625 90.59 36.8559 90.59H37.4359V91.31H36.8059C36.4525 91.31 36.1659 91.41 35.9459 91.61C35.7325 91.8033 35.6259 92.1067 35.6259 92.52V95.5H34.8359ZM40.6896 95.64C40.1963 95.64 39.7596 95.5367 39.3796 95.33C39.0063 95.1233 38.7129 94.8333 38.4996 94.46C38.2929 94.08 38.1896 93.6333 38.1896 93.12V92.99C38.1896 92.4833 38.2929 92.04 38.4996 91.66C38.7129 91.28 39.0063 90.9867 39.3796 90.78C39.7596 90.5733 40.1963 90.47 40.6896 90.47C41.1829 90.47 41.6163 90.5733 41.9896 90.78C42.3696 90.9867 42.6629 91.28 42.8696 91.66C43.0829 92.04 43.1896 92.4833 43.1896 92.99V93.12C43.1896 93.6333 43.0829 94.08 42.8696 94.46C42.6629 94.8333 42.3696 95.1233 41.9896 95.33C41.6163 95.5367 41.1829 95.64 40.6896 95.64ZM40.6896 94.93C41.2096 94.93 41.6229 94.7667 41.9296 94.44C42.2429 94.1067 42.3996 93.66 42.3996 93.1V93.01C42.3996 92.45 42.2429 92.0067 41.9296 91.68C41.6229 91.3467 41.2096 91.18 40.6896 91.18C40.1763 91.18 39.7629 91.3467 39.4496 91.68C39.1363 92.0067 38.9796 92.45 38.9796 93.01V93.1C38.9796 93.66 39.1363 94.1067 39.4496 94.44C39.7629 94.7667 40.1763 94.93 40.6896 94.93ZM44.6113 97.5V90.61H45.3813V91.42H45.5213C45.6479 91.1733 45.8513 90.9533 46.1313 90.76C46.4179 90.5667 46.8146 90.47 47.3213 90.47C47.7413 90.47 48.1246 90.5733 48.4713 90.78C48.8246 90.98 49.1046 91.2667 49.3113 91.64C49.5246 92.0133 49.6313 92.4633 49.6313 92.99V93.12C49.6313 93.64 49.5279 94.09 49.3213 94.47C49.1146 94.85 48.8346 95.14 48.4813 95.34C48.1346 95.54 47.7479 95.64 47.3213 95.64C46.9813 95.64 46.6913 95.5933 46.4513 95.5C46.2179 95.4133 46.0279 95.3 45.8813 95.16C45.7346 95.02 45.6213 94.8767 45.5413 94.73H45.4013V97.5H44.6113ZM47.1113 94.94C47.6179 94.94 48.0279 94.78 48.3413 94.46C48.6613 94.1333 48.8213 93.68 48.8213 93.1V93.01C48.8213 92.43 48.6613 91.98 48.3413 91.66C48.0279 91.3333 47.6179 91.17 47.1113 91.17C46.6113 91.17 46.1979 91.3333 45.8713 91.66C45.5513 91.98 45.3913 92.43 45.3913 93.01V93.1C45.3913 93.68 45.5513 94.1333 45.8713 94.46C46.1979 94.78 46.6113 94.94 47.1113 94.94ZM53.2868 95.64C52.7935 95.64 52.3601 95.5367 51.9868 95.33C51.6135 95.1167 51.3235 94.82 51.1168 94.44C50.9101 94.06 50.8068 93.62 50.8068 93.12V93C50.8068 92.4933 50.9101 92.05 51.1168 91.67C51.3235 91.29 51.6101 90.9967 51.9768 90.79C52.3435 90.5767 52.7635 90.47 53.2368 90.47C53.6968 90.47 54.1035 90.57 54.4568 90.77C54.8101 90.9633 55.0868 91.2433 55.2868 91.61C55.4868 91.9767 55.5868 92.4067 55.5868 92.9V93.26H51.5968C51.6168 93.7867 51.7868 94.2 52.1068 94.5C52.4268 94.7933 52.8268 94.94 53.3068 94.94C53.7268 94.94 54.0501 94.8433 54.2768 94.65C54.5035 94.4567 54.6768 94.2267 54.7968 93.96L55.4768 94.29C55.3768 94.4967 55.2368 94.7033 55.0568 94.91C54.8835 95.1167 54.6535 95.29 54.3668 95.43C54.0868 95.57 53.7268 95.64 53.2868 95.64ZM51.6068 92.61H54.7868C54.7601 92.1567 54.6035 91.8033 54.3168 91.55C54.0368 91.2967 53.6768 91.17 53.2368 91.17C52.7901 91.17 52.4235 91.2967 52.1368 91.55C51.8501 91.8033 51.6735 92.1567 51.6068 92.61ZM56.9648 95.5V90.61H57.7348V91.21H57.8748C57.9614 90.9967 58.0948 90.84 58.2748 90.74C58.4548 90.64 58.6914 90.59 58.9848 90.59H59.5648V91.31H58.9348C58.5814 91.31 58.2948 91.41 58.0748 91.61C57.8614 91.8033 57.7548 92.1067 57.7548 92.52V95.5H56.9648ZM62.5343 95.5C62.2543 95.5 62.0376 95.4233 61.8843 95.27C61.7376 95.1167 61.6643 94.9067 61.6643 94.64V91.3H60.1943V90.61H61.6643V88.87H62.4543V90.61H64.0543V91.3H62.4543V94.52C62.4543 94.72 62.551 94.82 62.7443 94.82H63.8343V95.5H62.5343ZM65.9239 97.5V96.8H68.7239C68.9172 96.8 69.0139 96.7 69.0139 96.5V94.72H68.8739C68.8072 94.86 68.7039 95 68.5639 95.14C68.4306 95.2733 68.2539 95.3833 68.0339 95.47C67.8139 95.55 67.5372 95.59 67.2039 95.59C66.8506 95.59 66.5239 95.5133 66.2239 95.36C65.9306 95.2067 65.6972 94.98 65.5239 94.68C65.3572 94.38 65.2739 94.0133 65.2739 93.58V90.61H66.0639V93.52C66.0639 94 66.1839 94.35 66.4239 94.57C66.6706 94.79 67.0006 94.9 67.4139 94.9C67.8806 94.9 68.2639 94.7467 68.5639 94.44C68.8639 94.1333 69.0139 93.6767 69.0139 93.07V90.61H69.8039V96.64C69.8039 96.9067 69.7272 97.1167 69.5739 97.27C69.4272 97.4233 69.2106 97.5 68.9239 97.5H65.9239ZM73.9953 95.5V88.5H74.8353V95.5H73.9953ZM76.1067 95.5V94.75H77.0867V89.25H76.1067V88.5H78.8367C79.7567 88.5 80.4667 88.7333 80.9667 89.2C81.4734 89.6667 81.7267 90.3833 81.7267 91.35V92.65C81.7267 93.6233 81.4734 94.3433 80.9667 94.81C80.4667 95.27 79.7567 95.5 78.8367 95.5H76.1067ZM77.9267 94.74H78.8367C79.5167 94.74 80.0301 94.5733 80.3767 94.24C80.7234 93.9067 80.8967 93.39 80.8967 92.69V91.32C80.8967 90.6067 80.7234 90.0867 80.3767 89.76C80.0301 89.4333 79.5167 89.27 78.8367 89.27H77.9267V94.74Z" fill="#797979"/>
<path d="M28.288 116.5L31.232 105.3H34.912L37.856 116.5H35.68L35.072 114.036H31.072L30.464 116.5H28.288ZM31.568 112.084H34.576L33.216 106.628H32.928L31.568 112.084ZM38.4926 116.5L41.7726 110.852L38.5246 105.3H40.9246L43.1486 109.348H43.4366L45.6606 105.3H48.0606L44.8126 110.852L48.0926 116.5H45.6926L43.4366 112.356H43.1486L40.8926 116.5H38.4926ZM49.4935 116.5V105.3H53.4135L55.3495 115.06H55.6375L57.5735 105.3H61.4935V116.5H59.4455V106.852H59.1575L57.2375 116.5H53.7495L51.8295 106.852H51.5415V116.5H49.4935ZM63.2829 116.5V114.644H64.7549V107.156H63.2829V105.3H67.8909C69.3949 105.3 70.5362 105.684 71.3149 106.452C72.1042 107.209 72.4989 108.34 72.4989 109.844V111.956C72.4989 113.46 72.1042 114.596 71.3149 115.364C70.5362 116.121 69.3949 116.5 67.8909 116.5H63.2829ZM66.8669 114.58H67.9229C68.7762 114.58 69.4002 114.356 69.7949 113.908C70.1895 113.46 70.3869 112.831 70.3869 112.02V109.78C70.3869 108.959 70.1895 108.329 69.7949 107.892C69.4002 107.444 68.7762 107.22 67.9229 107.22H66.8669V114.58ZM77.3311 116.5V106.804H77.0431L75.5391 110.356H73.3951L75.6831 105.3H79.3791V116.5H77.3311ZM81.4935 116.5V105.3H88.6935V107.22H83.6055V109.892H88.2455V111.812H83.6055V114.58H88.7895V116.5H81.4935ZM90.3529 116.5V105.3H97.5529V107.22H92.4649V109.892H97.1049V111.812H92.4649V114.58H97.6489V116.5H90.3529ZM98.8923 116.5V114.644H100.364V107.156H98.8923V105.3H103.5C105.004 105.3 106.146 105.684 106.924 106.452C107.714 107.209 108.108 108.34 108.108 109.844V111.956C108.108 113.46 107.714 114.596 106.924 115.364C106.146 116.121 105.004 116.5 103.5 116.5H98.8923ZM102.476 114.58H103.532C104.386 114.58 105.01 114.356 105.404 113.908C105.799 113.46 105.996 112.831 105.996 112.02V109.78C105.996 108.959 105.799 108.329 105.404 107.892C105.01 107.444 104.386 107.22 103.532 107.22H102.476V114.58Z" fill="#1D1D1F"/>
<path d="M135.52 95.5V89.26H133.27V88.5H138.61V89.26H136.36V95.5H135.52ZM139.527 97.5V96.8H142.327C142.521 96.8 142.617 96.7 142.617 96.5V94.72H142.477C142.411 94.86 142.307 95 142.167 95.14C142.034 95.2733 141.857 95.3833 141.637 95.47C141.417 95.55 141.141 95.59 140.807 95.59C140.454 95.59 140.127 95.5133 139.827 95.36C139.534 95.2067 139.301 94.98 139.127 94.68C138.961 94.38 138.877 94.0133 138.877 93.58V90.61H139.667V93.52C139.667 94 139.787 94.35 140.027 94.57C140.274 94.79 140.604 94.9 141.017 94.9C141.484 94.9 141.867 94.7467 142.167 94.44C142.467 94.1333 142.617 93.6767 142.617 93.07V90.61H143.407V96.64C143.407 96.9067 143.331 97.1167 143.177 97.27C143.031 97.4233 142.814 97.5 142.527 97.5H139.527ZM145.06 97.5V90.61H145.83V91.42H145.97C146.097 91.1733 146.3 90.9533 146.58 90.76C146.867 90.5667 147.264 90.47 147.77 90.47C148.19 90.47 148.574 90.5733 148.92 90.78C149.274 90.98 149.554 91.2667 149.76 91.64C149.974 92.0133 150.08 92.4633 150.08 92.99V93.12C150.08 93.64 149.977 94.09 149.77 94.47C149.564 94.85 149.284 95.14 148.93 95.34C148.584 95.54 148.197 95.64 147.77 95.64C147.43 95.64 147.14 95.5933 146.9 95.5C146.667 95.4133 146.477 95.3 146.33 95.16C146.184 95.02 146.07 94.8767 145.99 94.73H145.85V97.5H145.06ZM147.56 94.94C148.067 94.94 148.477 94.78 148.79 94.46C149.11 94.1333 149.27 93.68 149.27 93.1V93.01C149.27 92.43 149.11 91.98 148.79 91.66C148.477 91.3333 148.067 91.17 147.56 91.17C147.06 91.17 146.647 91.3333 146.32 91.66C146 91.98 145.84 92.43 145.84 93.01V93.1C145.84 93.68 146 94.1333 146.32 94.46C146.647 94.78 147.06 94.94 147.56 94.94ZM153.736 95.64C153.243 95.64 152.809 95.5367 152.436 95.33C152.063 95.1167 151.773 94.82 151.566 94.44C151.359 94.06 151.256 93.62 151.256 93.12V93C151.256 92.4933 151.359 92.05 151.566 91.67C151.773 91.29 152.059 90.9967 152.426 90.79C152.793 90.5767 153.213 90.47 153.686 90.47C154.146 90.47 154.553 90.57 154.906 90.77C155.259 90.9633 155.536 91.2433 155.736 91.61C155.936 91.9767 156.036 92.4067 156.036 92.9V93.26H152.046C152.066 93.7867 152.236 94.2 152.556 94.5C152.876 94.7933 153.276 94.94 153.756 94.94C154.176 94.94 154.499 94.8433 154.726 94.65C154.953 94.4567 155.126 94.2267 155.246 93.96L155.926 94.29C155.826 94.4967 155.686 94.7033 155.506 94.91C155.333 95.1167 155.103 95.29 154.816 95.43C154.536 95.57 154.176 95.64 153.736 95.64ZM152.056 92.61H155.236C155.209 92.1567 155.053 91.8033 154.766 91.55C154.486 91.2967 154.126 91.17 153.686 91.17C153.239 91.17 152.873 91.2967 152.586 91.55C152.299 91.8033 152.123 92.1567 152.056 92.61Z" fill="#797979"/>
<path d="M134.056 116.5V105.3H138.92C139.624 105.3 140.237 105.423 140.76 105.668C141.283 105.913 141.688 106.26 141.976 106.708C142.264 107.156 142.408 107.684 142.408 108.292V108.484C142.408 109.156 142.248 109.7 141.928 110.116C141.608 110.532 141.213 110.836 140.744 111.028V111.316C141.171 111.337 141.501 111.487 141.736 111.764C141.971 112.031 142.088 112.388 142.088 112.836V116.5H139.976V113.14C139.976 112.884 139.907 112.676 139.768 112.516C139.64 112.356 139.421 112.276 139.112 112.276H136.168V116.5H134.056ZM136.168 110.356H138.696C139.197 110.356 139.587 110.223 139.864 109.956C140.152 109.679 140.296 109.316 140.296 108.868V108.708C140.296 108.26 140.157 107.903 139.88 107.636C139.603 107.359 139.208 107.22 138.696 107.22H136.168V110.356ZM147.845 116.724C147.056 116.724 146.357 116.559 145.749 116.228C145.152 115.887 144.683 115.412 144.341 114.804C144.011 114.185 143.845 113.46 143.845 112.628V112.436C143.845 111.604 144.011 110.884 144.341 110.276C144.672 109.657 145.136 109.183 145.733 108.852C146.331 108.511 147.024 108.34 147.813 108.34C148.592 108.34 149.269 108.516 149.845 108.868C150.421 109.209 150.869 109.689 151.189 110.308C151.509 110.916 151.669 111.625 151.669 112.436V113.124H145.893C145.915 113.668 146.117 114.111 146.501 114.452C146.885 114.793 147.355 114.964 147.909 114.964C148.475 114.964 148.891 114.841 149.157 114.596C149.424 114.351 149.627 114.079 149.765 113.78L151.413 114.644C151.264 114.921 151.045 115.225 150.757 115.556C150.48 115.876 150.107 116.153 149.637 116.388C149.168 116.612 148.571 116.724 147.845 116.724ZM145.909 111.62H149.621C149.579 111.161 149.392 110.793 149.061 110.516C148.741 110.239 148.32 110.1 147.797 110.1C147.253 110.1 146.821 110.239 146.501 110.516C146.181 110.793 145.984 111.161 145.909 111.62ZM156.76 116.724C155.725 116.724 154.877 116.5 154.216 116.052C153.554 115.604 153.154 114.964 153.016 114.132L154.872 113.652C154.946 114.025 155.069 114.319 155.24 114.532C155.421 114.745 155.64 114.9 155.896 114.996C156.162 115.081 156.45 115.124 156.76 115.124C157.229 115.124 157.576 115.044 157.8 114.884C158.024 114.713 158.136 114.505 158.136 114.26C158.136 114.015 158.029 113.828 157.816 113.7C157.602 113.561 157.261 113.449 156.792 113.364L156.344 113.284C155.789 113.177 155.282 113.033 154.824 112.852C154.365 112.66 153.997 112.399 153.72 112.068C153.442 111.737 153.304 111.311 153.304 110.788C153.304 109.999 153.592 109.396 154.168 108.98C154.744 108.553 155.501 108.34 156.44 108.34C157.325 108.34 158.061 108.537 158.648 108.932C159.234 109.327 159.618 109.844 159.8 110.484L157.928 111.06C157.842 110.655 157.666 110.367 157.4 110.196C157.144 110.025 156.824 109.94 156.44 109.94C156.056 109.94 155.762 110.009 155.56 110.148C155.357 110.276 155.256 110.457 155.256 110.692C155.256 110.948 155.362 111.14 155.576 111.268C155.789 111.385 156.077 111.476 156.44 111.54L156.888 111.62C157.485 111.727 158.024 111.871 158.504 112.052C158.994 112.223 159.378 112.473 159.656 112.804C159.944 113.124 160.088 113.561 160.088 114.116C160.088 114.948 159.784 115.593 159.176 116.052C158.578 116.5 157.773 116.724 156.76 116.724ZM161.854 116.5V108.564H163.87V116.5H161.854ZM162.862 107.636C162.5 107.636 162.19 107.519 161.934 107.284C161.689 107.049 161.566 106.74 161.566 106.356C161.566 105.972 161.689 105.663 161.934 105.428C162.19 105.193 162.5 105.076 162.862 105.076C163.236 105.076 163.545 105.193 163.79 105.428C164.036 105.663 164.158 105.972 164.158 106.356C164.158 106.74 164.036 107.049 163.79 107.284C163.545 107.519 163.236 107.636 162.862 107.636ZM169.304 116.724C168.675 116.724 168.083 116.569 167.528 116.26C166.984 115.94 166.547 115.476 166.216 114.868C165.886 114.26 165.72 113.524 165.72 112.66V112.404C165.72 111.54 165.886 110.804 166.216 110.196C166.547 109.588 166.984 109.129 167.528 108.82C168.072 108.5 168.664 108.34 169.304 108.34C169.784 108.34 170.184 108.399 170.504 108.516C170.835 108.623 171.102 108.761 171.304 108.932C171.507 109.103 171.662 109.284 171.768 109.476H172.056V105.3H174.072V116.5H172.088V115.54H171.8C171.619 115.839 171.336 116.111 170.952 116.356C170.579 116.601 170.03 116.724 169.304 116.724ZM169.912 114.964C170.531 114.964 171.048 114.767 171.464 114.372C171.88 113.967 172.088 113.38 172.088 112.612V112.452C172.088 111.684 171.88 111.103 171.464 110.708C171.059 110.303 170.542 110.1 169.912 110.1C169.294 110.1 168.776 110.303 168.36 110.708C167.944 111.103 167.736 111.684 167.736 112.452V112.612C167.736 113.38 167.944 113.967 168.36 114.372C168.776 114.767 169.294 114.964 169.912 114.964ZM179.924 116.724C179.134 116.724 178.436 116.559 177.828 116.228C177.23 115.887 176.761 115.412 176.42 114.804C176.089 114.185 175.924 113.46 175.924 112.628V112.436C175.924 111.604 176.089 110.884 176.42 110.276C176.75 109.657 177.214 109.183 177.812 108.852C178.409 108.511 179.102 108.34 179.891 108.34C180.67 108.34 181.348 108.516 181.924 108.868C182.5 109.209 182.948 109.689 183.267 110.308C183.588 110.916 183.748 111.625 183.748 112.436V113.124H177.972C177.993 113.668 178.196 114.111 178.58 114.452C178.964 114.793 179.433 114.964 179.988 114.964C180.553 114.964 180.969 114.841 181.236 114.596C181.502 114.351 181.705 114.079 181.844 113.78L183.492 114.644C183.342 114.921 183.124 115.225 182.836 115.556C182.558 115.876 182.185 116.153 181.716 116.388C181.246 116.612 180.649 116.724 179.924 116.724ZM177.988 111.62H181.7C181.657 111.161 181.47 110.793 181.14 110.516C180.82 110.239 180.398 110.1 179.876 110.1C179.332 110.1 178.9 110.239 178.58 110.516C178.26 110.793 178.062 111.161 177.988 111.62ZM185.542 116.5V108.564H187.526V109.604H187.814C187.942 109.327 188.182 109.065 188.534 108.82C188.886 108.564 189.419 108.436 190.134 108.436C190.753 108.436 191.291 108.58 191.75 108.868C192.219 109.145 192.582 109.535 192.838 110.036C193.094 110.527 193.222 111.103 193.222 111.764V116.5H191.206V111.924C191.206 111.327 191.057 110.879 190.758 110.58C190.47 110.281 190.054 110.132 189.51 110.132C188.891 110.132 188.411 110.34 188.07 110.756C187.729 111.161 187.558 111.732 187.558 112.468V116.5H185.542ZM198.223 116.5C197.7 116.5 197.273 116.34 196.943 116.02C196.623 115.689 196.463 115.252 196.463 114.708V110.228H194.479V108.564H196.463V106.1H198.479V108.564H200.655V110.228H198.479V114.356C198.479 114.676 198.628 114.836 198.927 114.836H200.463V116.5H198.223ZM202.479 116.5V108.564H204.495V116.5H202.479ZM203.487 107.636C203.125 107.636 202.815 107.519 202.559 107.284C202.314 107.049 202.191 106.74 202.191 106.356C202.191 105.972 202.314 105.663 202.559 105.428C202.815 105.193 203.125 105.076 203.487 105.076C203.861 105.076 204.17 105.193 204.415 105.428C204.661 105.663 204.783 105.972 204.783 106.356C204.783 106.74 204.661 107.049 204.415 107.284C204.17 107.519 203.861 107.636 203.487 107.636ZM209.193 116.724C208.628 116.724 208.121 116.628 207.673 116.436C207.225 116.233 206.868 115.945 206.601 115.572C206.345 115.188 206.217 114.724 206.217 114.18C206.217 113.636 206.345 113.183 206.601 112.82C206.868 112.447 207.231 112.169 207.689 111.988C208.159 111.796 208.692 111.7 209.289 111.7H211.465V111.252C211.465 110.879 211.348 110.575 211.113 110.34C210.879 110.095 210.505 109.972 209.993 109.972C209.492 109.972 209.119 110.089 208.873 110.324C208.628 110.548 208.468 110.841 208.393 111.204L206.537 110.58C206.665 110.175 206.868 109.807 207.145 109.476C207.433 109.135 207.812 108.863 208.281 108.66C208.761 108.447 209.343 108.34 210.025 108.34C211.071 108.34 211.897 108.601 212.505 109.124C213.113 109.647 213.417 110.404 213.417 111.396V114.356C213.417 114.676 213.567 114.836 213.865 114.836H214.505V116.5H213.161C212.767 116.5 212.441 116.404 212.185 116.212C211.929 116.02 211.801 115.764 211.801 115.444V115.428H211.497C211.455 115.556 211.359 115.727 211.209 115.94C211.06 116.143 210.825 116.324 210.505 116.484C210.185 116.644 209.748 116.724 209.193 116.724ZM209.545 115.092C210.111 115.092 210.569 114.937 210.921 114.628C211.284 114.308 211.465 113.887 211.465 113.364V113.204H209.433C209.06 113.204 208.767 113.284 208.553 113.444C208.34 113.604 208.233 113.828 208.233 114.116C208.233 114.404 208.345 114.639 208.569 114.82C208.793 115.001 209.119 115.092 209.545 115.092ZM215.979 116.5V105.3H217.995V116.5H215.979Z" fill="#1D1D1F"/>
<path d="M30.36 147.5L28.25 140.5H29.12L31.03 146.99H31.16L33.07 140.5H33.94L31.83 147.5H30.36ZM36.1601 147.64C35.8201 147.64 35.5101 147.58 35.2301 147.46C34.9501 147.34 34.7301 147.167 34.5701 146.94C34.4101 146.713 34.3301 146.437 34.3301 146.11C34.3301 145.777 34.4101 145.503 34.5701 145.29C34.7301 145.07 34.9501 144.907 35.2301 144.8C35.5101 144.687 35.8234 144.63 36.1701 144.63H37.8201V144.27C37.8201 143.923 37.7167 143.65 37.5101 143.45C37.3101 143.25 37.0101 143.15 36.6101 143.15C36.2167 143.15 35.9101 143.247 35.6901 143.44C35.4701 143.627 35.3201 143.88 35.2401 144.2L34.5001 143.96C34.5801 143.687 34.7067 143.44 34.8801 143.22C35.0534 142.993 35.2834 142.813 35.5701 142.68C35.8634 142.54 36.2134 142.47 36.6201 142.47C37.2467 142.47 37.7334 142.633 38.0801 142.96C38.4267 143.28 38.6001 143.733 38.6001 144.32V146.53C38.6001 146.73 38.6934 146.83 38.8801 146.83H39.3301V147.5H38.6401C38.4201 147.5 38.2434 147.44 38.1101 147.32C37.9767 147.193 37.9101 147.027 37.9101 146.82V146.77H37.7901C37.7167 146.897 37.6167 147.03 37.4901 147.17C37.3701 147.303 37.2034 147.413 36.9901 147.5C36.7767 147.593 36.5001 147.64 36.1601 147.64ZM36.2501 146.96C36.7167 146.96 37.0934 146.823 37.3801 146.55C37.6734 146.27 37.8201 145.88 37.8201 145.38V145.27H36.2001C35.8867 145.27 35.6267 145.34 35.4201 145.48C35.2201 145.613 35.1201 145.817 35.1201 146.09C35.1201 146.363 35.2234 146.577 35.4301 146.73C35.6434 146.883 35.9167 146.96 36.2501 146.96ZM40.412 147.5V140.5H41.202V147.5H40.412ZM44.7332 147.59C44.3799 147.59 44.0532 147.513 43.7532 147.36C43.4599 147.207 43.2265 146.98 43.0532 146.68C42.8865 146.373 42.8032 146.003 42.8032 145.57V142.61H43.5932V145.51C43.5932 145.997 43.7132 146.35 43.9532 146.57C44.1999 146.79 44.5299 146.9 44.9432 146.9C45.4099 146.9 45.7932 146.747 46.0932 146.44C46.3932 146.133 46.5432 145.677 46.5432 145.07V142.61H47.3332V147.5H46.5632V146.67H46.4232C46.3165 146.903 46.1332 147.117 45.8732 147.31C45.6132 147.497 45.2332 147.59 44.7332 147.59ZM51.2263 147.64C50.7329 147.64 50.2996 147.537 49.9263 147.33C49.5529 147.117 49.2629 146.82 49.0563 146.44C48.8496 146.06 48.7463 145.62 48.7463 145.12V145C48.7463 144.493 48.8496 144.05 49.0563 143.67C49.2629 143.29 49.5496 142.997 49.9163 142.79C50.2829 142.577 50.7029 142.47 51.1763 142.47C51.6363 142.47 52.0429 142.57 52.3963 142.77C52.7496 142.963 53.0263 143.243 53.2263 143.61C53.4263 143.977 53.5263 144.407 53.5263 144.9V145.26H49.5363C49.5563 145.787 49.7263 146.2 50.0463 146.5C50.3663 146.793 50.7663 146.94 51.2463 146.94C51.6663 146.94 51.9896 146.843 52.2163 146.65C52.4429 146.457 52.6163 146.227 52.7363 145.96L53.4163 146.29C53.3163 146.497 53.1763 146.703 52.9963 146.91C52.8229 147.117 52.5929 147.29 52.3063 147.43C52.0263 147.57 51.6663 147.64 51.2263 147.64ZM49.5463 144.61H52.7263C52.6996 144.157 52.5429 143.803 52.2563 143.55C51.9763 143.297 51.6163 143.17 51.1763 143.17C50.7296 143.17 50.3629 143.297 50.0763 143.55C49.7896 143.803 49.6129 144.157 49.5463 144.61Z" fill="#797979"/>
<path d="M33.376 168.5V165.62C33.376 165.364 33.3067 165.156 33.168 164.996C33.04 164.836 32.8213 164.756 32.512 164.756H28.864V162.836H31.776C32.4053 162.836 32.88 162.687 33.2 162.388C33.5307 162.079 33.696 161.604 33.696 160.964C33.696 160.324 33.5307 159.855 33.2 159.556C32.88 159.247 32.4053 159.092 31.776 159.092H28.864V157.3H37.504V158.932H34.752V159.22C35.0613 159.423 35.3067 159.673 35.488 159.972C35.68 160.271 35.776 160.703 35.776 161.268C35.776 161.844 35.6267 162.319 35.328 162.692C35.04 163.065 34.6453 163.337 34.144 163.508V163.796C34.5707 163.817 34.9013 163.967 35.136 164.244C35.3707 164.511 35.488 164.868 35.488 165.316V168.5H33.376ZM28.864 161.78V160.148H37.504V161.78H28.864ZM46.1436 168.5V158.804H45.8556L44.3516 162.356H42.2076L44.4956 157.3H48.1916V168.5H46.1436ZM50.514 170.852V169.764H51.138C51.6287 169.764 51.874 169.519 51.874 169.028V168.516H51.602C51.1753 168.516 50.818 168.388 50.53 168.132C50.2527 167.876 50.114 167.551 50.114 167.156C50.114 166.729 50.2527 166.383 50.53 166.116C50.818 165.849 51.1753 165.716 51.602 165.716C52.0393 165.716 52.3967 165.855 52.674 166.132C52.9513 166.399 53.09 166.761 53.09 167.22V169.06C53.09 170.255 52.4927 170.852 51.298 170.852H50.514ZM58.9496 168.724C57.627 168.724 56.5656 168.361 55.7656 167.636C54.9656 166.9 54.5656 165.791 54.5656 164.308V161.492C54.5656 160.052 54.9656 158.959 55.7656 158.212C56.5656 157.455 57.627 157.076 58.9496 157.076C60.283 157.076 61.3443 157.455 62.1336 158.212C62.9336 158.959 63.3336 160.052 63.3336 161.492V164.308C63.3336 165.791 62.9336 166.9 62.1336 167.636C61.3443 168.361 60.283 168.724 58.9496 168.724ZM58.9496 166.9C59.7496 166.9 60.3363 166.681 60.7096 166.244C61.0936 165.807 61.2856 165.183 61.2856 164.372V161.396C61.2856 160.575 61.0723 159.956 60.6456 159.54C60.2296 159.113 59.6643 158.9 58.9496 158.9C58.2136 158.9 57.6376 159.119 57.2216 159.556C56.8163 159.993 56.6136 160.607 56.6136 161.396V164.372C56.6136 165.215 56.8056 165.849 57.1896 166.276C57.5843 166.692 58.171 166.9 58.9496 166.9ZM69.3246 168.724C68.002 168.724 66.9406 168.361 66.1406 167.636C65.3406 166.9 64.9406 165.791 64.9406 164.308V161.492C64.9406 160.052 65.3406 158.959 66.1406 158.212C66.9406 157.455 68.002 157.076 69.3246 157.076C70.658 157.076 71.7193 157.455 72.5086 158.212C73.3086 158.959 73.7086 160.052 73.7086 161.492V164.308C73.7086 165.791 73.3086 166.9 72.5086 167.636C71.7193 168.361 70.658 168.724 69.3246 168.724ZM69.3246 166.9C70.1246 166.9 70.7113 166.681 71.0846 166.244C71.4686 165.807 71.6606 165.183 71.6606 164.372V161.396C71.6606 160.575 71.4473 159.956 71.0206 159.54C70.6046 159.113 70.0393 158.9 69.3246 158.9C68.5886 158.9 68.0126 159.119 67.5966 159.556C67.1913 159.993 66.9886 160.607 66.9886 161.396V164.372C66.9886 165.215 67.1806 165.849 67.5646 166.276C67.9593 166.692 68.546 166.9 69.3246 166.9ZM75.5921 170.852V169.764H76.2161C76.7068 169.764 76.9521 169.519 76.9521 169.028V168.516H76.6801C76.2535 168.516 75.8961 168.388 75.6081 168.132C75.3308 167.876 75.1921 167.551 75.1921 167.156C75.1921 166.729 75.3308 166.383 75.6081 166.116C75.8961 165.849 76.2535 165.716 76.6801 165.716C77.1175 165.716 77.4748 165.855 77.7521 166.132C78.0295 166.399 78.1681 166.761 78.1681 167.22V169.06C78.1681 170.255 77.5708 170.852 76.3761 170.852H75.5921ZM84.0278 168.724C82.7051 168.724 81.6438 168.361 80.8438 167.636C80.0438 166.9 79.6438 165.791 79.6438 164.308V161.492C79.6438 160.052 80.0438 158.959 80.8438 158.212C81.6438 157.455 82.7051 157.076 84.0278 157.076C85.3611 157.076 86.4224 157.455 87.2118 158.212C88.0118 158.959 88.4118 160.052 88.4118 161.492V164.308C88.4118 165.791 88.0118 166.9 87.2118 167.636C86.4224 168.361 85.3611 168.724 84.0278 168.724ZM84.0278 166.9C84.8278 166.9 85.4144 166.681 85.7878 166.244C86.1718 165.807 86.3638 165.183 86.3638 164.372V161.396C86.3638 160.575 86.1504 159.956 85.7238 159.54C85.3078 159.113 84.7424 158.9 84.0278 158.9C83.2918 158.9 82.7158 159.119 82.2998 159.556C81.8944 159.993 81.6918 160.607 81.6918 161.396V164.372C81.6918 165.215 81.8838 165.849 82.2678 166.276C82.6624 166.692 83.2491 166.9 84.0278 166.9ZM94.4028 168.724C93.0801 168.724 92.0188 168.361 91.2188 167.636C90.4188 166.9 90.0188 165.791 90.0188 164.308V161.492C90.0188 160.052 90.4188 158.959 91.2188 158.212C92.0188 157.455 93.0801 157.076 94.4028 157.076C95.7361 157.076 96.7974 157.455 97.5868 158.212C98.3868 158.959 98.7868 160.052 98.7868 161.492V164.308C98.7868 165.791 98.3868 166.9 97.5868 167.636C96.7974 168.361 95.7361 168.724 94.4028 168.724ZM94.4028 166.9C95.2028 166.9 95.7894 166.681 96.1628 166.244C96.5468 165.807 96.7388 165.183 96.7388 164.372V161.396C96.7388 160.575 96.5254 159.956 96.0988 159.54C95.6828 159.113 95.1174 158.9 94.4028 158.9C93.6668 158.9 93.0908 159.119 92.6748 159.556C92.2694 159.993 92.0668 160.607 92.0668 161.396V164.372C92.0668 165.215 92.2588 165.849 92.6428 166.276C93.0374 166.692 93.6241 166.9 94.4028 166.9ZM100.67 170.852V169.764H101.294C101.785 169.764 102.03 169.519 102.03 169.028V168.516H101.758C101.332 168.516 100.974 168.388 100.686 168.132C100.409 167.876 100.27 167.551 100.27 167.156C100.27 166.729 100.409 166.383 100.686 166.116C100.974 165.849 101.332 165.716 101.758 165.716C102.196 165.716 102.553 165.855 102.83 166.132C103.108 166.399 103.246 166.761 103.246 167.22V169.06C103.246 170.255 102.649 170.852 101.454 170.852H100.67ZM109.106 168.724C107.783 168.724 106.722 168.361 105.922 167.636C105.122 166.9 104.722 165.791 104.722 164.308V161.492C104.722 160.052 105.122 158.959 105.922 158.212C106.722 157.455 107.783 157.076 109.106 157.076C110.439 157.076 111.501 157.455 112.29 158.212C113.09 158.959 113.49 160.052 113.49 161.492V164.308C113.49 165.791 113.09 166.9 112.29 167.636C111.501 168.361 110.439 168.724 109.106 168.724ZM109.106 166.9C109.906 166.9 110.493 166.681 110.866 166.244C111.25 165.807 111.442 165.183 111.442 164.372V161.396C111.442 160.575 111.229 159.956 110.802 159.54C110.386 159.113 109.821 158.9 109.106 158.9C108.37 158.9 107.794 159.119 107.378 159.556C106.973 159.993 106.77 160.607 106.77 161.396V164.372C106.77 165.215 106.962 165.849 107.346 166.276C107.741 166.692 108.327 166.9 109.106 166.9ZM119.481 168.724C118.158 168.724 117.097 168.361 116.297 167.636C115.497 166.9 115.097 165.791 115.097 164.308V161.492C115.097 160.052 115.497 158.959 116.297 158.212C117.097 157.455 118.158 157.076 119.481 157.076C120.814 157.076 121.876 157.455 122.665 158.212C123.465 158.959 123.865 160.052 123.865 161.492V164.308C123.865 165.791 123.465 166.9 122.665 167.636C121.876 168.361 120.814 168.724 119.481 168.724ZM119.481 166.9C120.281 166.9 120.868 166.681 121.241 166.244C121.625 165.807 121.817 165.183 121.817 164.372V161.396C121.817 160.575 121.604 159.956 121.177 159.54C120.761 159.113 120.196 158.9 119.481 158.9C118.745 158.9 118.169 159.119 117.753 159.556C117.348 159.993 117.145 160.607 117.145 161.396V164.372C117.145 165.215 117.337 165.849 117.721 166.276C118.116 166.692 118.702 166.9 119.481 166.9ZM125.748 170.852V169.764H126.372C126.863 169.764 127.108 169.519 127.108 169.028V168.516H126.836C126.41 168.516 126.052 168.388 125.764 168.132C125.487 167.876 125.348 167.551 125.348 167.156C125.348 166.729 125.487 166.383 125.764 166.116C126.052 165.849 126.41 165.716 126.836 165.716C127.274 165.716 127.631 165.855 127.908 166.132C128.186 166.399 128.324 166.761 128.324 167.22V169.06C128.324 170.255 127.727 170.852 126.532 170.852H125.748ZM134.184 168.724C132.861 168.724 131.8 168.361 131 167.636C130.2 166.9 129.8 165.791 129.8 164.308V161.492C129.8 160.052 130.2 158.959 131 158.212C131.8 157.455 132.861 157.076 134.184 157.076C135.517 157.076 136.579 157.455 137.368 158.212C138.168 158.959 138.568 160.052 138.568 161.492V164.308C138.568 165.791 138.168 166.9 137.368 167.636C136.579 168.361 135.517 168.724 134.184 168.724ZM134.184 166.9C134.984 166.9 135.571 166.681 135.944 166.244C136.328 165.807 136.52 165.183 136.52 164.372V161.396C136.52 160.575 136.307 159.956 135.88 159.54C135.464 159.113 134.899 158.9 134.184 158.9C133.448 158.9 132.872 159.119 132.456 159.556C132.051 159.993 131.848 160.607 131.848 161.396V164.372C131.848 165.215 132.04 165.849 132.424 166.276C132.819 166.692 133.405 166.9 134.184 166.9ZM144.559 168.724C143.236 168.724 142.175 168.361 141.375 167.636C140.575 166.9 140.175 165.791 140.175 164.308V161.492C140.175 160.052 140.575 158.959 141.375 158.212C142.175 157.455 143.236 157.076 144.559 157.076C145.892 157.076 146.954 157.455 147.743 158.212C148.543 158.959 148.943 160.052 148.943 161.492V164.308C148.943 165.791 148.543 166.9 147.743 167.636C146.954 168.361 145.892 168.724 144.559 168.724ZM144.559 166.9C145.359 166.9 145.946 166.681 146.319 166.244C146.703 165.807 146.895 165.183 146.895 164.372V161.396C146.895 160.575 146.682 159.956 146.255 159.54C145.839 159.113 145.274 158.9 144.559 158.9C143.823 158.9 143.247 159.119 142.831 159.556C142.426 159.993 142.223 160.607 142.223 161.396V164.372C142.223 165.215 142.415 165.849 142.799 166.276C143.194 166.692 143.78 166.9 144.559 166.9Z" fill="#0091FF"/>
<g filter="url(#filter1_d_1294_4079)">
<rect x="28" y="192.5" width="93" height="21" rx="10.5" fill="url(#paint0_linear_1294_4079)" shape-rendering="crispEdges"/>
<path d="M41.38 206.64C40.5 206.64 39.8 206.4 39.28 205.92C38.76 205.433 38.5 204.74 38.5 203.84V202.16C38.5 201.26 38.76 200.57 39.28 200.09C39.8 199.603 40.5 199.36 41.38 199.36C42.26 199.36 42.96 199.603 43.48 200.09C44 200.57 44.26 201.26 44.26 202.16V203.84C44.26 204.74 44 205.433 43.48 205.92C42.96 206.4 42.26 206.64 41.38 206.64ZM41.38 205.46C41.8733 205.46 42.2567 205.317 42.53 205.03C42.8033 204.743 42.94 204.36 42.94 203.88V202.12C42.94 201.64 42.8033 201.257 42.53 200.97C42.2567 200.683 41.8733 200.54 41.38 200.54C40.8933 200.54 40.51 200.683 40.23 200.97C39.9567 201.257 39.82 201.64 39.82 202.12V203.88C39.82 204.36 39.9567 204.743 40.23 205.03C40.51 205.317 40.8933 205.46 41.38 205.46ZM45.8578 206.5L45.1578 201.54H46.4078L46.8478 205.65H47.0278L47.6678 201.54H49.6878L50.3278 205.65H50.5078L50.9478 201.54H52.1978L51.4978 206.5H49.4078L48.7678 202.39H48.5878L47.9478 206.5H45.8578ZM53.2996 206.5V201.54H54.5396V202.19H54.7196C54.7996 202.017 54.9496 201.853 55.1696 201.7C55.3896 201.54 55.7229 201.46 56.1696 201.46C56.5563 201.46 56.8929 201.55 57.1796 201.73C57.4729 201.903 57.6996 202.147 57.8596 202.46C58.0196 202.767 58.0996 203.127 58.0996 203.54V206.5H56.8396V203.64C56.8396 203.267 56.7463 202.987 56.5596 202.8C56.3796 202.613 56.1196 202.52 55.7796 202.52C55.3929 202.52 55.0929 202.65 54.8796 202.91C54.6663 203.163 54.5596 203.52 54.5596 203.98V206.5H53.2996ZM61.7217 206.64C61.2284 206.64 60.7917 206.537 60.4117 206.33C60.0384 206.117 59.7451 205.82 59.5317 205.44C59.3251 205.053 59.2217 204.6 59.2217 204.08V203.96C59.2217 203.44 59.3251 202.99 59.5317 202.61C59.7384 202.223 60.0284 201.927 60.4017 201.72C60.7751 201.507 61.2084 201.4 61.7017 201.4C62.1884 201.4 62.6117 201.51 62.9717 201.73C63.3317 201.943 63.6117 202.243 63.8117 202.63C64.0117 203.01 64.1117 203.453 64.1117 203.96V204.39H60.5017C60.5151 204.73 60.6417 205.007 60.8817 205.22C61.1217 205.433 61.4151 205.54 61.7617 205.54C62.1151 205.54 62.3751 205.463 62.5417 205.31C62.7084 205.157 62.8351 204.987 62.9217 204.8L63.9517 205.34C63.8584 205.513 63.7217 205.703 63.5417 205.91C63.3684 206.11 63.1351 206.283 62.8417 206.43C62.5484 206.57 62.1751 206.64 61.7217 206.64ZM60.5117 203.45H62.8317C62.8051 203.163 62.6884 202.933 62.4817 202.76C62.2817 202.587 62.0184 202.5 61.6917 202.5C61.3517 202.5 61.0817 202.587 60.8817 202.76C60.6817 202.933 60.5584 203.163 60.5117 203.45ZM65.2332 206.5V201.54H66.4732V202.1H66.6532C66.7265 201.9 66.8465 201.753 67.0132 201.66C67.1865 201.567 67.3865 201.52 67.6132 201.52H68.2132V202.64H67.5932C67.2732 202.64 67.0099 202.727 66.8032 202.9C66.5965 203.067 66.4932 203.327 66.4932 203.68V206.5H65.2332ZM71.1409 206.64C70.4942 206.64 69.9642 206.5 69.5509 206.22C69.1375 205.94 68.8875 205.54 68.8009 205.02L69.9609 204.72C70.0075 204.953 70.0842 205.137 70.1909 205.27C70.3042 205.403 70.4409 205.5 70.6009 205.56C70.7675 205.613 70.9475 205.64 71.1409 205.64C71.4342 205.64 71.6509 205.59 71.7909 205.49C71.9309 205.383 72.0009 205.253 72.0009 205.1C72.0009 204.947 71.9342 204.83 71.8009 204.75C71.6675 204.663 71.4542 204.593 71.1609 204.54L70.8809 204.49C70.5342 204.423 70.2175 204.333 69.9309 204.22C69.6442 204.1 69.4142 203.937 69.2409 203.73C69.0675 203.523 68.9809 203.257 68.9809 202.93C68.9809 202.437 69.1609 202.06 69.5209 201.8C69.8809 201.533 70.3542 201.4 70.9409 201.4C71.4942 201.4 71.9542 201.523 72.3209 201.77C72.6875 202.017 72.9275 202.34 73.0409 202.74L71.8709 203.1C71.8175 202.847 71.7075 202.667 71.5409 202.56C71.3809 202.453 71.1809 202.4 70.9409 202.4C70.7009 202.4 70.5175 202.443 70.3909 202.53C70.2642 202.61 70.2009 202.723 70.2009 202.87C70.2009 203.03 70.2675 203.15 70.4009 203.23C70.5342 203.303 70.7142 203.36 70.9409 203.4L71.2209 203.45C71.5942 203.517 71.9309 203.607 72.2309 203.72C72.5375 203.827 72.7775 203.983 72.9509 204.19C73.1309 204.39 73.2209 204.663 73.2209 205.01C73.2209 205.53 73.0309 205.933 72.6509 206.22C72.2775 206.5 71.7742 206.64 71.1409 206.64ZM74.325 206.5V199.5H75.585V202.15H75.765C75.8183 202.043 75.9017 201.937 76.015 201.83C76.1283 201.723 76.2783 201.637 76.465 201.57C76.6583 201.497 76.9017 201.46 77.195 201.46C77.5817 201.46 77.9183 201.55 78.205 201.73C78.4983 201.903 78.725 202.147 78.885 202.46C79.045 202.767 79.125 203.127 79.125 203.54V206.5H77.865V203.64C77.865 203.267 77.7717 202.987 77.585 202.8C77.405 202.613 77.145 202.52 76.805 202.52C76.4183 202.52 76.1183 202.65 75.905 202.91C75.6917 203.163 75.585 203.52 75.585 203.98V206.5H74.325ZM80.4871 206.5V201.54H81.7471V206.5H80.4871ZM81.1171 200.96C80.8904 200.96 80.6971 200.887 80.5371 200.74C80.3838 200.593 80.3071 200.4 80.3071 200.16C80.3071 199.92 80.3838 199.727 80.5371 199.58C80.6971 199.433 80.8904 199.36 81.1171 199.36C81.3504 199.36 81.5438 199.433 81.6971 199.58C81.8504 199.727 81.9271 199.92 81.9271 200.16C81.9271 200.4 81.8504 200.593 81.6971 200.74C81.5438 200.887 81.3504 200.96 81.1171 200.96ZM83.1434 208.5V201.54H84.3834V202.14H84.5634C84.6767 201.947 84.8534 201.777 85.0934 201.63C85.3334 201.477 85.6767 201.4 86.1234 201.4C86.5234 201.4 86.8934 201.5 87.2334 201.7C87.5734 201.893 87.8467 202.18 88.0534 202.56C88.26 202.94 88.3634 203.4 88.3634 203.94V204.1C88.3634 204.64 88.26 205.1 88.0534 205.48C87.8467 205.86 87.5734 206.15 87.2334 206.35C86.8934 206.543 86.5234 206.64 86.1234 206.64C85.8234 206.64 85.57 206.603 85.3634 206.53C85.1634 206.463 85 206.377 84.8734 206.27C84.7534 206.157 84.6567 206.043 84.5834 205.93H84.4034V208.5H83.1434ZM85.7434 205.54C86.1367 205.54 86.46 205.417 86.7134 205.17C86.9734 204.917 87.1034 204.55 87.1034 204.07V203.97C87.1034 203.49 86.9734 203.127 86.7134 202.88C86.4534 202.627 86.13 202.5 85.7434 202.5C85.3567 202.5 85.0334 202.627 84.7734 202.88C84.5134 203.127 84.3834 203.49 84.3834 203.97V204.07C84.3834 204.55 84.5134 204.917 84.7734 205.17C85.0334 205.417 85.3567 205.54 85.7434 205.54Z" fill="#0091FF"/>
<rect x="100.5" y="198" width="10" height="10" rx="5" fill="#0091FF"/>
<rect x="100.5" y="198" width="10" height="10" rx="5" stroke="#0091FF"/>
<path d="M107.573 201.109L108.25 201.797L105.455 204.551C105.268 204.738 105.022 204.831 104.776 204.831C104.529 204.831 104.281 204.737 104.092 204.548L102.75 203.248L103.422 202.554L104.77 203.86L107.573 201.109Z" fill="white"/>
</g>
<g filter="url(#filter2_d_1294_4079)">
<rect x="131" y="192.5" width="93" height="21" rx="10.5" fill="url(#paint1_linear_1294_4079)" shape-rendering="crispEdges"/>
<path d="M142.96 206.5L141.18 199.5H142.54L144.02 205.65H144.16L145.64 199.5H147L145.22 206.5H142.96ZM149.119 206.64C148.766 206.64 148.449 206.58 148.169 206.46C147.889 206.333 147.666 206.153 147.499 205.92C147.339 205.68 147.259 205.39 147.259 205.05C147.259 204.71 147.339 204.427 147.499 204.2C147.666 203.967 147.892 203.793 148.179 203.68C148.472 203.56 148.806 203.5 149.179 203.5H150.539V203.22C150.539 202.987 150.466 202.797 150.319 202.65C150.172 202.497 149.939 202.42 149.619 202.42C149.306 202.42 149.072 202.493 148.919 202.64C148.766 202.78 148.666 202.963 148.619 203.19L147.459 202.8C147.539 202.547 147.666 202.317 147.839 202.11C148.019 201.897 148.256 201.727 148.549 201.6C148.849 201.467 149.212 201.4 149.639 201.4C150.292 201.4 150.809 201.563 151.189 201.89C151.569 202.217 151.759 202.69 151.759 203.31V205.16C151.759 205.36 151.852 205.46 152.039 205.46H152.439V206.5H151.599C151.352 206.5 151.149 206.44 150.989 206.32C150.829 206.2 150.749 206.04 150.749 205.84V205.83H150.559C150.532 205.91 150.472 206.017 150.379 206.15C150.286 206.277 150.139 206.39 149.939 206.49C149.739 206.59 149.466 206.64 149.119 206.64ZM149.339 205.62C149.692 205.62 149.979 205.523 150.199 205.33C150.426 205.13 150.539 204.867 150.539 204.54V204.44H149.269C149.036 204.44 148.852 204.49 148.719 204.59C148.586 204.69 148.519 204.83 148.519 205.01C148.519 205.19 148.589 205.337 148.729 205.45C148.869 205.563 149.072 205.62 149.339 205.62ZM153.36 206.5V199.5H154.62V206.5H153.36ZM157.906 206.58C157.52 206.58 157.18 206.493 156.886 206.32C156.6 206.14 156.376 205.893 156.216 205.58C156.056 205.267 155.976 204.907 155.976 204.5V201.54H157.236V204.4C157.236 204.773 157.326 205.053 157.506 205.24C157.693 205.427 157.956 205.52 158.296 205.52C158.683 205.52 158.983 205.393 159.196 205.14C159.41 204.88 159.516 204.52 159.516 204.06V201.54H160.776V206.5H159.536V205.85H159.356C159.276 206.017 159.126 206.18 158.906 206.34C158.686 206.5 158.353 206.58 157.906 206.58ZM164.439 206.64C163.945 206.64 163.509 206.537 163.129 206.33C162.755 206.117 162.462 205.82 162.249 205.44C162.042 205.053 161.939 204.6 161.939 204.08V203.96C161.939 203.44 162.042 202.99 162.249 202.61C162.455 202.223 162.745 201.927 163.119 201.72C163.492 201.507 163.925 201.4 164.419 201.4C164.905 201.4 165.329 201.51 165.689 201.73C166.049 201.943 166.329 202.243 166.529 202.63C166.729 203.01 166.829 203.453 166.829 203.96V204.39H163.219C163.232 204.73 163.359 205.007 163.599 205.22C163.839 205.433 164.132 205.54 164.479 205.54C164.832 205.54 165.092 205.463 165.259 205.31C165.425 205.157 165.552 204.987 165.639 204.8L166.669 205.34C166.575 205.513 166.439 205.703 166.259 205.91C166.085 206.11 165.852 206.283 165.559 206.43C165.265 206.57 164.892 206.64 164.439 206.64ZM163.229 203.45H165.549C165.522 203.163 165.405 202.933 165.199 202.76C164.999 202.587 164.735 202.5 164.409 202.5C164.069 202.5 163.799 202.587 163.599 202.76C163.399 202.933 163.275 203.163 163.229 203.45Z" fill="#0091FF"/>
<rect x="203.5" y="198" width="10" height="10" rx="5" fill="#0091FF"/>
<rect x="203.5" y="198" width="10" height="10" rx="5" stroke="#0091FF"/>
<path d="M210.573 201.109L211.25 201.797L208.455 204.551C208.268 204.738 208.022 204.831 207.776 204.831C207.529 204.831 207.281 204.737 207.092 204.548L205.75 203.248L206.422 202.554L207.77 203.86L210.573 201.109Z" fill="white"/>
</g>
<g filter="url(#filter3_d_1294_4079)">
<rect x="234" y="192.5" width="93" height="21" rx="10.5" fill="url(#paint2_linear_1294_4079)" shape-rendering="crispEdges"/>
<path d="M244.66 206.5V199.5H247.17L248.56 205.6H248.74V199.5H250.04V206.5H247.53L246.14 200.4H245.96V206.5H244.66ZM254.079 206.64C253.199 206.64 252.499 206.4 251.979 205.92C251.459 205.433 251.199 204.74 251.199 203.84V202.16C251.199 201.26 251.459 200.57 251.979 200.09C252.499 199.603 253.199 199.36 254.079 199.36C254.959 199.36 255.659 199.603 256.179 200.09C256.699 200.57 256.959 201.26 256.959 202.16V203.84C256.959 204.74 256.699 205.433 256.179 205.92C255.659 206.4 254.959 206.64 254.079 206.64ZM254.079 205.46C254.573 205.46 254.956 205.317 255.229 205.03C255.503 204.743 255.639 204.36 255.639 203.88V202.12C255.639 201.64 255.503 201.257 255.229 200.97C254.956 200.683 254.573 200.54 254.079 200.54C253.593 200.54 253.209 200.683 252.929 200.97C252.656 201.257 252.519 201.64 252.519 202.12V203.88C252.519 204.36 252.656 204.743 252.929 205.03C253.209 205.317 253.593 205.46 254.079 205.46ZM260.777 206.64C259.91 206.64 259.224 206.4 258.717 205.92C258.21 205.433 257.957 204.74 257.957 203.84V202.16C257.957 201.26 258.21 200.57 258.717 200.09C259.224 199.603 259.91 199.36 260.777 199.36C261.637 199.36 262.3 199.597 262.767 200.07C263.24 200.537 263.477 201.18 263.477 202V202.06H262.177V201.96C262.177 201.547 262.06 201.207 261.827 200.94C261.6 200.673 261.25 200.54 260.777 200.54C260.31 200.54 259.944 200.683 259.677 200.97C259.41 201.257 259.277 201.647 259.277 202.14V203.86C259.277 204.347 259.41 204.737 259.677 205.03C259.944 205.317 260.31 205.46 260.777 205.46C261.25 205.46 261.6 205.327 261.827 205.06C262.06 204.787 262.177 204.447 262.177 204.04V203.86H263.477V204C263.477 204.82 263.24 205.467 262.767 205.94C262.3 206.407 261.637 206.64 260.777 206.64Z" fill="#0091FF"/>
<rect x="306.5" y="198" width="10" height="10" rx="5" fill="#0091FF"/>
<rect x="306.5" y="198" width="10" height="10" rx="5" stroke="#0091FF"/>
<path d="M313.573 201.109L314.25 201.797L311.455 204.551C311.268 204.738 311.022 204.831 310.776 204.831C310.529 204.831 310.281 204.737 310.092 204.548L308.75 203.248L309.422 202.554L310.77 203.86L313.573 201.109Z" fill="white"/>
</g>
<path d="M31.756 257.668C31.148 257.668 30.604 257.56 30.124 257.344C29.644 257.128 29.264 256.804 28.984 256.372C28.712 255.932 28.576 255.384 28.576 254.728V254.476H29.572V254.728C29.572 255.424 29.776 255.944 30.184 256.288C30.592 256.624 31.116 256.792 31.756 256.792C32.412 256.792 32.912 256.644 33.256 256.348C33.6 256.052 33.772 255.68 33.772 255.232C33.772 254.92 33.692 254.672 33.532 254.488C33.38 254.304 33.164 254.156 32.884 254.044C32.604 253.924 32.276 253.82 31.9 253.732L31.276 253.576C30.788 253.448 30.356 253.292 29.98 253.108C29.604 252.924 29.308 252.684 29.092 252.388C28.884 252.084 28.78 251.696 28.78 251.224C28.78 250.752 28.896 250.344 29.128 250C29.368 249.656 29.7 249.392 30.124 249.208C30.556 249.024 31.052 248.932 31.612 248.932C32.18 248.932 32.688 249.032 33.136 249.232C33.592 249.424 33.948 249.712 34.204 250.096C34.468 250.472 34.6 250.948 34.6 251.524V252.028H33.604V251.524C33.604 251.116 33.516 250.788 33.34 250.54C33.172 250.292 32.936 250.108 32.632 249.988C32.336 249.868 31.996 249.808 31.612 249.808C31.06 249.808 30.616 249.932 30.28 250.18C29.944 250.42 29.776 250.764 29.776 251.212C29.776 251.508 29.848 251.748 29.992 251.932C30.136 252.116 30.34 252.268 30.604 252.388C30.868 252.5 31.184 252.6 31.552 252.688L32.176 252.844C32.664 252.948 33.1 253.092 33.484 253.276C33.876 253.452 34.188 253.696 34.42 254.008C34.652 254.312 34.768 254.712 34.768 255.208C34.768 255.704 34.644 256.136 34.396 256.504C34.148 256.872 33.796 257.16 33.34 257.368C32.892 257.568 32.364 257.668 31.756 257.668ZM38.5154 257.5C38.1794 257.5 37.9194 257.408 37.7354 257.224C37.5594 257.04 37.4714 256.788 37.4714 256.468V252.46H35.7074V251.632H37.4714V249.544H38.4194V251.632H40.3394V252.46H38.4194V256.324C38.4194 256.564 38.5354 256.684 38.7674 256.684H40.0754V257.5H38.5154ZM43.6398 257.668C43.2318 257.668 42.8598 257.596 42.5238 257.452C42.1878 257.308 41.9238 257.1 41.7318 256.828C41.5398 256.556 41.4438 256.224 41.4438 255.832C41.4438 255.432 41.5398 255.104 41.7318 254.848C41.9238 254.584 42.1878 254.388 42.5238 254.26C42.8598 254.124 43.2358 254.056 43.6518 254.056H45.6318V253.624C45.6318 253.208 45.5078 252.88 45.2598 252.64C45.0198 252.4 44.6598 252.28 44.1798 252.28C43.7078 252.28 43.3398 252.396 43.0758 252.628C42.8118 252.852 42.6318 253.156 42.5358 253.54L41.6478 253.252C41.7438 252.924 41.8958 252.628 42.1038 252.364C42.3118 252.092 42.5878 251.876 42.9318 251.716C43.2838 251.548 43.7038 251.464 44.1918 251.464C44.9438 251.464 45.5278 251.66 45.9438 252.052C46.3598 252.436 46.5678 252.98 46.5678 253.684V256.336C46.5678 256.576 46.6798 256.696 46.9037 256.696H47.4438V257.5H46.6158C46.3518 257.5 46.1398 257.428 45.9798 257.284C45.8198 257.132 45.7398 256.932 45.7398 256.684V256.624H45.5958C45.5078 256.776 45.3878 256.936 45.2358 257.104C45.0918 257.264 44.8918 257.396 44.6358 257.5C44.3798 257.612 44.0478 257.668 43.6398 257.668ZM43.7478 256.852C44.3078 256.852 44.7598 256.688 45.1038 256.36C45.4558 256.024 45.6318 255.556 45.6318 254.956V254.824H43.6878C43.3118 254.824 42.9998 254.908 42.7518 255.076C42.5118 255.236 42.3918 255.48 42.3918 255.808C42.3918 256.136 42.5158 256.392 42.7638 256.576C43.0198 256.76 43.3478 256.852 43.7478 256.852ZM50.5154 257.5C50.1794 257.5 49.9194 257.408 49.7354 257.224C49.5594 257.04 49.4714 256.788 49.4714 256.468V252.46H47.7074V251.632H49.4714V249.544H50.4194V251.632H52.3394V252.46H50.4194V256.324C50.4194 256.564 50.5354 256.684 50.7674 256.684H52.0754V257.5H50.5154ZM56.352 257.668C55.76 257.668 55.24 257.544 54.792 257.296C54.344 257.04 53.996 256.684 53.748 256.228C53.5 255.772 53.376 255.244 53.376 254.644V254.5C53.376 253.892 53.5 253.36 53.748 252.904C53.996 252.448 54.34 252.096 54.78 251.848C55.22 251.592 55.724 251.464 56.292 251.464C56.844 251.464 57.332 251.584 57.756 251.824C58.18 252.056 58.512 252.392 58.752 252.832C58.992 253.272 59.112 253.788 59.112 254.38V254.812H54.324C54.348 255.444 54.552 255.94 54.936 256.3C55.32 256.652 55.8 256.828 56.376 256.828C56.88 256.828 57.268 256.712 57.54 256.48C57.812 256.248 58.02 255.972 58.164 255.652L58.98 256.048C58.86 256.296 58.692 256.544 58.476 256.792C58.268 257.04 57.992 257.248 57.648 257.416C57.312 257.584 56.88 257.668 56.352 257.668ZM54.336 254.032H58.152C58.12 253.488 57.932 253.064 57.588 252.76C57.252 252.456 56.82 252.304 56.292 252.304C55.756 252.304 55.316 252.456 54.972 252.76C54.628 253.064 54.416 253.488 54.336 254.032ZM63.8116 257.5V249.1H67.0276C67.5316 249.1 67.9796 249.2 68.3716 249.4C68.7716 249.592 69.0876 249.868 69.3196 250.228C69.5516 250.588 69.6676 251.024 69.6676 251.536V251.692C69.6676 252.196 69.5476 252.632 69.3076 253C69.0756 253.36 68.7596 253.636 68.3596 253.828C67.9596 254.02 67.5156 254.116 67.0276 254.116H64.8196V257.5H63.8116ZM64.8196 253.204H66.9196C67.4556 253.204 67.8796 253.072 68.1916 252.808C68.5036 252.536 68.6596 252.156 68.6596 251.668V251.548C68.6596 251.06 68.5036 250.684 68.1916 250.42C67.8876 250.148 67.4636 250.012 66.9196 250.012H64.8196V253.204ZM71.0546 257.5V251.632H71.9786V252.352H72.1466C72.2506 252.096 72.4106 251.908 72.6266 251.788C72.8426 251.668 73.1266 251.608 73.4786 251.608H74.1746V252.472H73.4186C72.9946 252.472 72.6506 252.592 72.3866 252.832C72.1306 253.064 72.0026 253.428 72.0026 253.924V257.5H71.0546ZM78.0791 257.668C77.4871 257.668 76.9631 257.544 76.5071 257.296C76.0591 257.048 75.7071 256.7 75.4511 256.252C75.2031 255.796 75.0791 255.26 75.0791 254.644V254.488C75.0791 253.88 75.2031 253.348 75.4511 252.892C75.7071 252.436 76.0591 252.084 76.5071 251.836C76.9631 251.588 77.4871 251.464 78.0791 251.464C78.6711 251.464 79.1911 251.588 79.6391 251.836C80.0951 252.084 80.4471 252.436 80.6951 252.892C80.9511 253.348 81.0791 253.88 81.0791 254.488V254.644C81.0791 255.26 80.9511 255.796 80.6951 256.252C80.4471 256.7 80.0951 257.048 79.6391 257.296C79.1911 257.544 78.6711 257.668 78.0791 257.668ZM78.0791 256.816C78.7031 256.816 79.1991 256.62 79.5671 256.228C79.9431 255.828 80.1311 255.292 80.1311 254.62V254.512C80.1311 253.84 79.9431 253.308 79.5671 252.916C79.1991 252.516 78.7031 252.316 78.0791 252.316C77.4631 252.316 76.9671 252.516 76.5911 252.916C76.2151 253.308 76.0271 253.84 76.0271 254.512V254.62C76.0271 255.292 76.2151 255.828 76.5911 256.228C76.9671 256.62 77.4631 256.816 78.0791 256.816ZM82.7851 259.9V251.632H83.7091V252.604H83.8771C84.0291 252.308 84.2731 252.044 84.6091 251.812C84.9531 251.58 85.4291 251.464 86.0371 251.464C86.5411 251.464 87.0011 251.588 87.4171 251.836C87.8411 252.076 88.1771 252.42 88.4251 252.868C88.6811 253.316 88.8091 253.856 88.8091 254.488V254.644C88.8091 255.268 88.6851 255.808 88.4371 256.264C88.1891 256.72 87.8531 257.068 87.4291 257.308C87.0131 257.548 86.5491 257.668 86.0371 257.668C85.6291 257.668 85.2811 257.612 84.9931 257.5C84.7131 257.396 84.4851 257.26 84.3091 257.092C84.1331 256.924 83.9971 256.752 83.9011 256.576H83.7331V259.9H82.7851ZM85.7851 256.828C86.3931 256.828 86.8851 256.636 87.2611 256.252C87.6451 255.86 87.8371 255.316 87.8371 254.62V254.512C87.8371 253.816 87.6451 253.276 87.2611 252.892C86.8851 252.5 86.3931 252.304 85.7851 252.304C85.1851 252.304 84.6891 252.5 84.2971 252.892C83.9131 253.276 83.7211 253.816 83.7211 254.512V254.62C83.7211 255.316 83.9131 255.86 84.2971 256.252C84.6891 256.636 85.1851 256.828 85.7851 256.828ZM93.1957 257.668C92.6037 257.668 92.0837 257.544 91.6357 257.296C91.1877 257.04 90.8397 256.684 90.5917 256.228C90.3437 255.772 90.2197 255.244 90.2197 254.644V254.5C90.2197 253.892 90.3437 253.36 90.5917 252.904C90.8397 252.448 91.1837 252.096 91.6237 251.848C92.0637 251.592 92.5677 251.464 93.1357 251.464C93.6877 251.464 94.1757 251.584 94.5997 251.824C95.0237 252.056 95.3557 252.392 95.5957 252.832C95.8357 253.272 95.9557 253.788 95.9557 254.38V254.812H91.1677C91.1917 255.444 91.3957 255.94 91.7797 256.3C92.1637 256.652 92.6437 256.828 93.2197 256.828C93.7237 256.828 94.1117 256.712 94.3837 256.48C94.6557 256.248 94.8637 255.972 95.0077 255.652L95.8237 256.048C95.7037 256.296 95.5357 256.544 95.3197 256.792C95.1117 257.04 94.8357 257.248 94.4917 257.416C94.1557 257.584 93.7237 257.668 93.1957 257.668ZM91.1797 254.032H94.9957C94.9637 253.488 94.7757 253.064 94.4317 252.76C94.0957 252.456 93.6637 252.304 93.1357 252.304C92.5997 252.304 92.1597 252.456 91.8157 252.76C91.4717 253.064 91.2597 253.488 91.1797 254.032ZM97.6093 257.5V251.632H98.5333V252.352H98.7013C98.8053 252.096 98.9653 251.908 99.1813 251.788C99.3973 251.668 99.6813 251.608 100.033 251.608H100.729V252.472H99.9733C99.5493 252.472 99.2053 252.592 98.9413 252.832C98.6853 253.064 98.5573 253.428 98.5573 253.924V257.5H97.6093ZM104.293 257.5C103.957 257.5 103.697 257.408 103.513 257.224C103.337 257.04 103.249 256.788 103.249 256.468V252.46H101.485V251.632H103.249V249.544H104.197V251.632H106.117V252.46H104.197V256.324C104.197 256.564 104.313 256.684 104.545 256.684H105.853V257.5H104.293ZM108.36 259.9V259.06H111.72C111.952 259.06 112.068 258.94 112.068 258.7V256.564H111.9C111.82 256.732 111.696 256.9 111.528 257.068C111.368 257.228 111.156 257.36 110.892 257.464C110.628 257.56 110.296 257.608 109.896 257.608C109.472 257.608 109.08 257.516 108.72 257.332C108.368 257.148 108.088 256.876 107.88 256.516C107.68 256.156 107.58 255.716 107.58 255.196V251.632H108.528V255.124C108.528 255.7 108.672 256.12 108.96 256.384C109.256 256.648 109.652 256.78 110.148 256.78C110.708 256.78 111.168 256.596 111.528 256.228C111.888 255.86 112.068 255.312 112.068 254.584V251.632H113.016V258.868C113.016 259.188 112.924 259.44 112.74 259.624C112.564 259.808 112.304 259.9 111.96 259.9H108.36ZM118.046 257.5V249.1H121.442C121.962 249.1 122.418 249.192 122.81 249.376C123.21 249.552 123.522 249.808 123.746 250.144C123.97 250.472 124.082 250.868 124.082 251.332V251.464C124.082 252.016 123.95 252.452 123.686 252.772C123.422 253.092 123.11 253.308 122.75 253.42V253.588C123.038 253.596 123.274 253.692 123.458 253.876C123.65 254.052 123.746 254.32 123.746 254.68V257.5H122.75V254.8C122.75 254.56 122.682 254.376 122.546 254.248C122.418 254.12 122.222 254.056 121.958 254.056H119.054V257.5H118.046ZM119.054 253.144H121.346C121.898 253.144 122.322 253.012 122.618 252.748C122.922 252.476 123.074 252.1 123.074 251.62V251.536C123.074 251.056 122.926 250.684 122.63 250.42C122.334 250.148 121.906 250.012 121.346 250.012H119.054V253.144ZM128.34 257.668C127.748 257.668 127.228 257.544 126.78 257.296C126.332 257.04 125.984 256.684 125.736 256.228C125.488 255.772 125.364 255.244 125.364 254.644V254.5C125.364 253.892 125.488 253.36 125.736 252.904C125.984 252.448 126.328 252.096 126.768 251.848C127.208 251.592 127.712 251.464 128.28 251.464C128.832 251.464 129.32 251.584 129.744 251.824C130.168 252.056 130.5 252.392 130.74 252.832C130.98 253.272 131.1 253.788 131.1 254.38V254.812H126.312C126.336 255.444 126.54 255.94 126.924 256.3C127.308 256.652 127.788 256.828 128.364 256.828C128.868 256.828 129.256 256.712 129.528 256.48C129.8 256.248 130.008 255.972 130.152 255.652L130.968 256.048C130.848 256.296 130.68 256.544 130.464 256.792C130.256 257.04 129.98 257.248 129.636 257.416C129.3 257.584 128.868 257.668 128.34 257.668ZM126.324 254.032H130.14C130.108 253.488 129.92 253.064 129.576 252.76C129.24 252.456 128.808 252.304 128.28 252.304C127.744 252.304 127.304 252.456 126.96 252.76C126.616 253.064 126.404 253.488 126.324 254.032ZM132.466 254.596V254.428C132.466 253.812 132.59 253.284 132.838 252.844C133.086 252.404 133.422 252.064 133.846 251.824C134.27 251.584 134.734 251.464 135.238 251.464C135.854 251.464 136.326 251.584 136.654 251.824C136.99 252.056 137.238 252.316 137.398 252.604H137.566V251.632H138.466V258.868C138.466 259.188 138.378 259.44 138.202 259.624C138.026 259.808 137.77 259.9 137.434 259.9H133.45V259.06H137.182C137.422 259.06 137.542 258.94 137.542 258.7V256.468H137.374C137.278 256.644 137.142 256.816 136.966 256.984C136.79 257.152 136.562 257.292 136.282 257.404C136.002 257.508 135.654 257.56 135.238 257.56C134.734 257.56 134.27 257.44 133.846 257.2C133.422 256.96 133.086 256.62 132.838 256.18C132.59 255.732 132.466 255.204 132.466 254.596ZM135.49 256.72C136.098 256.72 136.59 256.528 136.966 256.144C137.35 255.76 137.542 255.232 137.542 254.56V254.464C137.542 253.784 137.35 253.256 136.966 252.88C136.59 252.496 136.098 252.304 135.49 252.304C134.89 252.304 134.394 252.496 134.002 252.88C133.618 253.256 133.426 253.784 133.426 254.464V254.56C133.426 255.232 133.618 255.76 134.002 256.144C134.394 256.528 134.89 256.72 135.49 256.72ZM140.453 257.5V251.632H141.401V257.5H140.453ZM140.933 250.72C140.725 250.72 140.549 250.652 140.405 250.516C140.269 250.38 140.201 250.208 140.201 250C140.201 249.784 140.269 249.608 140.405 249.472C140.549 249.336 140.725 249.268 140.933 249.268C141.141 249.268 141.313 249.336 141.449 249.472C141.585 249.608 141.653 249.784 141.653 250C141.653 250.208 141.585 250.38 141.449 250.516C141.313 250.652 141.141 250.72 140.933 250.72ZM145.758 257.668C145.03 257.668 144.414 257.5 143.91 257.164C143.414 256.828 143.114 256.296 143.01 255.568L143.91 255.364C143.974 255.748 144.094 256.052 144.27 256.276C144.446 256.492 144.662 256.648 144.918 256.744C145.182 256.832 145.462 256.876 145.758 256.876C146.198 256.876 146.546 256.788 146.802 256.612C147.058 256.436 147.186 256.2 147.186 255.904C147.186 255.6 147.062 255.388 146.814 255.268C146.574 255.14 146.242 255.036 145.818 254.956L145.326 254.872C144.95 254.808 144.606 254.708 144.294 254.572C143.982 254.436 143.734 254.252 143.55 254.02C143.366 253.788 143.274 253.496 143.274 253.144C143.274 252.616 143.478 252.204 143.886 251.908C144.294 251.612 144.834 251.464 145.506 251.464C146.17 251.464 146.706 251.616 147.114 251.92C147.53 252.216 147.798 252.636 147.918 253.18L147.03 253.408C146.958 252.984 146.786 252.688 146.514 252.52C146.242 252.344 145.906 252.256 145.506 252.256C145.106 252.256 144.79 252.332 144.558 252.484C144.326 252.628 144.21 252.844 144.21 253.132C144.21 253.412 144.318 253.62 144.534 253.756C144.758 253.884 145.054 253.98 145.422 254.044L145.914 254.128C146.33 254.2 146.702 254.3 147.03 254.428C147.366 254.548 147.63 254.724 147.822 254.956C148.022 255.188 148.122 255.492 148.122 255.868C148.122 256.444 147.906 256.888 147.474 257.2C147.05 257.512 146.478 257.668 145.758 257.668ZM151.754 257.5C151.418 257.5 151.158 257.408 150.974 257.224C150.798 257.04 150.71 256.788 150.71 256.468V252.46H148.946V251.632H150.71V249.544H151.658V251.632H153.578V252.46H151.658V256.324C151.658 256.564 151.774 256.684 152.006 256.684H153.314V257.5H151.754ZM155.113 257.5V251.632H156.037V252.352H156.205C156.309 252.096 156.469 251.908 156.685 251.788C156.901 251.668 157.185 251.608 157.537 251.608H158.233V252.472H157.477C157.053 252.472 156.709 252.592 156.445 252.832C156.189 253.064 156.061 253.428 156.061 253.924V257.5H155.113ZM161.237 257.668C160.829 257.668 160.457 257.596 160.121 257.452C159.785 257.308 159.521 257.1 159.329 256.828C159.137 256.556 159.041 256.224 159.041 255.832C159.041 255.432 159.137 255.104 159.329 254.848C159.521 254.584 159.785 254.388 160.121 254.26C160.457 254.124 160.833 254.056 161.249 254.056H163.229V253.624C163.229 253.208 163.105 252.88 162.857 252.64C162.617 252.4 162.257 252.28 161.777 252.28C161.305 252.28 160.937 252.396 160.673 252.628C160.409 252.852 160.229 253.156 160.133 253.54L159.245 253.252C159.341 252.924 159.493 252.628 159.701 252.364C159.909 252.092 160.185 251.876 160.529 251.716C160.881 251.548 161.301 251.464 161.789 251.464C162.541 251.464 163.125 251.66 163.541 252.052C163.957 252.436 164.165 252.98 164.165 253.684V256.336C164.165 256.576 164.277 256.696 164.501 256.696H165.041V257.5H164.213C163.949 257.5 163.737 257.428 163.577 257.284C163.417 257.132 163.337 256.932 163.337 256.684V256.624H163.193C163.105 256.776 162.985 256.936 162.833 257.104C162.689 257.264 162.489 257.396 162.233 257.5C161.977 257.612 161.645 257.668 161.237 257.668ZM161.345 256.852C161.905 256.852 162.357 256.688 162.701 256.36C163.053 256.024 163.229 255.556 163.229 254.956V254.824H161.285C160.909 254.824 160.597 254.908 160.349 255.076C160.109 255.236 159.989 255.48 159.989 255.808C159.989 256.136 160.113 256.392 160.361 256.576C160.617 256.76 160.945 256.852 161.345 256.852ZM166.34 257.5V251.632H167.264V252.352H167.432C167.536 252.096 167.696 251.908 167.912 251.788C168.128 251.668 168.412 251.608 168.764 251.608H169.46V252.472H168.704C168.28 252.472 167.936 252.592 167.672 252.832C167.416 253.064 167.288 253.428 167.288 253.924V257.5H166.34Z" fill="#797979"/>
<g opacity="0.3">
<path d="M225 -52.5H369.219V128.076H346.192C279.26 128.076 225 73.8166 225 6.88411V-52.5Z" fill="#C2CEFF" fill-opacity="0.5"/>
<path d="M244.391 -52.5H388.609V128.076H365.583C298.65 128.076 244.391 73.8166 244.391 6.88411V-52.5Z" fill="#C2CEFF" fill-opacity="0.5"/>
<path d="M263.781 -52.5H408V128.076H384.973C318.041 128.076 263.781 73.8166 263.781 6.88411V-52.5Z" fill="#C2CEFF"/>
</g>
</g>
</g>
<defs>
<filter id="filter0_d_1294_4079" x="0" y="0.5" width="366" height="285" filterUnits="userSpaceOnUse" color-interpolation-filters="sRGB">
<feFlood flood-opacity="0" result="BackgroundImageFix"/>
<feColorMatrix in="SourceAlpha" type="matrix" values="0 0 0 0 0 0 0 0 0 0 0 0 0 0 0 0 0 0 127 0" result="hardAlpha"/>
<feOffset/>
<feGaussianBlur stdDeviation="4"/>
<feComposite in2="hardAlpha" operator="out"/>
<feColorMatrix type="matrix" values="0 0 0 0 0.5 0 0 0 0 0.5 0 0 0 0 0.5 0 0 0 0.15 0"/>
<feBlend mode="normal" in2="BackgroundImageFix" result="effect1_dropShadow_1294_4079"/>
<feBlend mode="normal" in="SourceGraphic" in2="effect1_dropShadow_1294_4079" result="shape"/>
</filter>
<filter id="filter1_d_1294_4079" x="24" y="192.5" width="101" height="29" filterUnits="userSpaceOnUse" color-interpolation-filters="sRGB">
<feFlood flood-opacity="0" result="BackgroundImageFix"/>
<feColorMatrix in="SourceAlpha" type="matrix" values="0 0 0 0 0 0 0 0 0 0 0 0 0 0 0 0 0 0 127 0" result="hardAlpha"/>
<feOffset dy="4"/>
<feGaussianBlur stdDeviation="2"/>
<feComposite in2="hardAlpha" operator="out"/>
<feColorMatrix type="matrix" values="0 0 0 0 0 0 0 0 0 0 0 0 0 0 0 0 0 0 0.25 0"/>
<feBlend mode="normal" in2="BackgroundImageFix" result="effect1_dropShadow_1294_4079"/>
<feBlend mode="normal" in="SourceGraphic" in2="effect1_dropShadow_1294_4079" result="shape"/>
</filter>
<filter id="filter2_d_1294_4079" x="127" y="192.5" width="101" height="29" filterUnits="userSpaceOnUse" color-interpolation-filters="sRGB">
<feFlood flood-opacity="0" result="BackgroundImageFix"/>
<feColorMatrix in="SourceAlpha" type="matrix" values="0 0 0 0 0 0 0 0 0 0 0 0 0 0 0 0 0 0 127 0" result="hardAlpha"/>
<feOffset dy="4"/>
<feGaussianBlur stdDeviation="2"/>
<feComposite in2="hardAlpha" operator="out"/>
<feColorMatrix type="matrix" values="0 0 0 0 0 0 0 0 0 0 0 0 0 0 0 0 0 0 0.25 0"/>
<feBlend mode="normal" in2="BackgroundImageFix" result="effect1_dropShadow_1294_4079"/>
<feBlend mode="normal" in="SourceGraphic" in2="effect1_dropShadow_1294_4079" result="shape"/>
</filter>
<filter id="filter3_d_1294_4079" x="230" y="192.5" width="101" height="29" filterUnits="userSpaceOnUse" color-interpolation-filters="sRGB">
<feFlood flood-opacity="0" result="BackgroundImageFix"/>
<feColorMatrix in="SourceAlpha" type="matrix" values="0 0 0 0 0 0 0 0 0 0 0 0 0 0 0 0 0 0 127 0" result="hardAlpha"/>
<feOffset dy="4"/>
<feGaussianBlur stdDeviation="2"/>
<feComposite in2="hardAlpha" operator="out"/>
<feColorMatrix type="matrix" values="0 0 0 0 0 0 0 0 0 0 0 0 0 0 0 0 0 0 0.25 0"/>
<feBlend mode="normal" in2="BackgroundImageFix" result="effect1_dropShadow_1294_4079"/>
<feBlend mode="normal" in="SourceGraphic" in2="effect1_dropShadow_1294_4079" result="shape"/>
</filter>
<linearGradient id="paint0_linear_1294_4079" x1="28" y1="203" x2="121" y2="203" gradientUnits="userSpaceOnUse">
<stop stop-color="white"/>
</linearGradient>
<linearGradient id="paint1_linear_1294_4079" x1="131" y1="203" x2="224" y2="203" gradientUnits="userSpaceOnUse">
<stop offset="0.43" stop-color="white"/>
</linearGradient>
<linearGradient id="paint2_linear_1294_4079" x1="234" y1="203" x2="327" y2="203" gradientUnits="userSpaceOnUse">
<stop offset="0.43" stop-color="white"/>
</linearGradient>
<clipPath id="clip0_1294_4079">
<rect x="8" y="8.5" width="350" height="269" rx="20" fill="white"/>
</clipPath>
</defs>
</svg>
