<svg width="350" height="50" viewBox="0 0 350 50" fill="none" xmlns="http://www.w3.org/2000/svg">
<rect y="28.5" width="95.5" height="1" fill="#E6E6E6"/>
<path d="M108.662 34V27.154H109.74V27.994H109.936C110.057 27.6953 110.244 27.476 110.496 27.336C110.748 27.196 111.079 27.126 111.49 27.126H112.302V28.134H111.42C110.925 28.134 110.524 28.274 110.216 28.554C109.917 28.8247 109.768 29.2493 109.768 29.828V34H108.662ZM116.829 34.196C116.139 34.196 115.532 34.0513 115.009 33.762C114.487 33.4633 114.081 33.048 113.791 32.516C113.502 31.984 113.357 31.368 113.357 30.668V30.5C113.357 29.7907 113.502 29.17 113.791 28.638C114.081 28.106 114.482 27.6953 114.995 27.406C115.509 27.1073 116.097 26.958 116.759 26.958C117.403 26.958 117.973 27.098 118.467 27.378C118.962 27.6487 119.349 28.0407 119.629 28.554C119.909 29.0673 120.049 29.6693 120.049 30.36V30.864H114.463C114.491 31.6013 114.729 32.18 115.177 32.6C115.625 33.0107 116.185 33.216 116.857 33.216C117.445 33.216 117.898 33.0807 118.215 32.81C118.533 32.5393 118.775 32.2173 118.943 31.844L119.895 32.306C119.755 32.5953 119.559 32.8847 119.307 33.174C119.065 33.4633 118.743 33.706 118.341 33.902C117.949 34.098 117.445 34.196 116.829 34.196ZM114.477 29.954H118.929C118.892 29.3193 118.673 28.8247 118.271 28.47C117.879 28.1153 117.375 27.938 116.759 27.938C116.134 27.938 115.621 28.1153 115.219 28.47C114.818 28.8247 114.571 29.3193 114.477 29.954ZM125.128 34.196C124.466 34.196 123.868 34.056 123.336 33.776C122.814 33.4867 122.398 33.076 122.09 32.544C121.792 32.012 121.642 31.382 121.642 30.654V30.5C121.642 29.7627 121.792 29.1327 122.09 28.61C122.398 28.078 122.814 27.672 123.336 27.392C123.868 27.1027 124.466 26.958 125.128 26.958C125.782 26.958 126.337 27.0793 126.794 27.322C127.261 27.5647 127.625 27.8867 127.886 28.288C128.157 28.6893 128.33 29.1187 128.404 29.576L127.326 29.8C127.28 29.464 127.168 29.156 126.99 28.876C126.822 28.596 126.584 28.372 126.276 28.204C125.968 28.036 125.59 27.952 125.142 27.952C124.685 27.952 124.274 28.0547 123.91 28.26C123.556 28.4653 123.271 28.7593 123.056 29.142C122.851 29.5247 122.748 29.982 122.748 30.514V30.64C122.748 31.172 122.851 31.6293 123.056 32.012C123.271 32.3947 123.556 32.6887 123.91 32.894C124.274 33.0993 124.685 33.202 125.142 33.202C125.824 33.202 126.342 33.0247 126.696 32.67C127.06 32.3153 127.284 31.8767 127.368 31.354L128.46 31.592C128.358 32.04 128.171 32.4647 127.9 32.866C127.63 33.2673 127.261 33.5893 126.794 33.832C126.337 34.0747 125.782 34.196 125.128 34.196ZM133.482 34.196C132.791 34.196 132.184 34.0513 131.662 33.762C131.139 33.4633 130.733 33.048 130.444 32.516C130.154 31.984 130.01 31.368 130.01 30.668V30.5C130.01 29.7907 130.154 29.17 130.444 28.638C130.733 28.106 131.134 27.6953 131.648 27.406C132.161 27.1073 132.749 26.958 133.412 26.958C134.056 26.958 134.625 27.098 135.12 27.378C135.614 27.6487 136.002 28.0407 136.282 28.554C136.562 29.0673 136.702 29.6693 136.702 30.36V30.864H131.116C131.144 31.6013 131.382 32.18 131.83 32.6C132.278 33.0107 132.838 33.216 133.51 33.216C134.098 33.216 134.55 33.0807 134.868 32.81C135.185 32.5393 135.428 32.2173 135.596 31.844L136.548 32.306C136.408 32.5953 136.212 32.8847 135.96 33.174C135.717 33.4633 135.395 33.706 134.994 33.902C134.602 34.098 134.098 34.196 133.482 34.196ZM131.13 29.954H135.582C135.544 29.3193 135.325 28.8247 134.924 28.47C134.532 28.1153 134.028 27.938 133.412 27.938C132.786 27.938 132.273 28.1153 131.872 28.47C131.47 28.8247 131.223 29.3193 131.13 29.954ZM138.631 34V27.154H139.709V28.316H139.905C140.054 27.9893 140.306 27.6953 140.661 27.434C141.025 27.1633 141.557 27.028 142.257 27.028C142.77 27.028 143.227 27.1353 143.629 27.35C144.039 27.5647 144.366 27.882 144.609 28.302C144.851 28.722 144.973 29.24 144.973 29.856V34H143.867V29.94C143.867 29.2587 143.694 28.764 143.349 28.456C143.013 28.148 142.555 27.994 141.977 27.994C141.314 27.994 140.773 28.2087 140.353 28.638C139.942 29.0673 139.737 29.7067 139.737 30.556V34H138.631ZM149.545 34C149.153 34 148.85 33.8927 148.635 33.678C148.43 33.4633 148.327 33.1693 148.327 32.796V28.12H146.269V27.154H148.327V24.718H149.433V27.154H151.673V28.12H149.433V32.628C149.433 32.908 149.569 33.048 149.839 33.048H151.365V34H149.545ZM159.58 34C159.188 34 158.885 33.8927 158.67 33.678C158.465 33.4633 158.362 33.1693 158.362 32.796V28.12H156.304V27.154H158.362V24.718H159.468V27.154H161.708V28.12H159.468V32.628C159.468 32.908 159.604 33.048 159.874 33.048H161.4V34H159.58ZM163.5 34V27.154H164.578V27.994H164.774C164.895 27.6953 165.082 27.476 165.334 27.336C165.586 27.196 165.917 27.126 166.328 27.126H167.14V28.134H166.258C165.763 28.134 165.362 28.274 165.054 28.554C164.755 28.8247 164.606 29.2493 164.606 29.828V34H163.5ZM170.645 34.196C170.169 34.196 169.735 34.112 169.343 33.944C168.951 33.776 168.643 33.5333 168.419 33.216C168.195 32.8987 168.083 32.5113 168.083 32.054C168.083 31.5873 168.195 31.2047 168.419 30.906C168.643 30.598 168.951 30.3693 169.343 30.22C169.735 30.0613 170.173 29.982 170.659 29.982H172.969V29.478C172.969 28.9927 172.824 28.61 172.535 28.33C172.255 28.05 171.835 27.91 171.275 27.91C170.724 27.91 170.295 28.0453 169.987 28.316C169.679 28.5773 169.469 28.932 169.357 29.38L168.321 29.044C168.433 28.6613 168.61 28.316 168.853 28.008C169.095 27.6907 169.417 27.4387 169.819 27.252C170.229 27.056 170.719 26.958 171.289 26.958C172.166 26.958 172.847 27.1867 173.333 27.644C173.818 28.092 174.061 28.7267 174.061 29.548V32.642C174.061 32.922 174.191 33.062 174.453 33.062H175.083V34H174.117C173.809 34 173.561 33.916 173.375 33.748C173.188 33.5707 173.095 33.3373 173.095 33.048V32.978H172.927C172.824 33.1553 172.684 33.342 172.507 33.538C172.339 33.7247 172.105 33.8787 171.807 34C171.508 34.1307 171.121 34.196 170.645 34.196ZM170.771 33.244C171.424 33.244 171.951 33.0527 172.353 32.67C172.763 32.278 172.969 31.732 172.969 31.032V30.878H170.701C170.262 30.878 169.898 30.976 169.609 31.172C169.329 31.3587 169.189 31.6433 169.189 32.026C169.189 32.4087 169.333 32.7073 169.623 32.922C169.921 33.1367 170.304 33.244 170.771 33.244ZM176.598 34V27.154H177.676V28.316H177.872C178.021 27.9893 178.273 27.6953 178.628 27.434C178.992 27.1633 179.524 27.028 180.224 27.028C180.737 27.028 181.194 27.1353 181.596 27.35C182.006 27.5647 182.333 27.882 182.576 28.302C182.818 28.722 182.94 29.24 182.94 29.856V34H181.834V29.94C181.834 29.2587 181.661 28.764 181.316 28.456C180.98 28.148 180.522 27.994 179.944 27.994C179.281 27.994 178.74 28.2087 178.32 28.638C177.909 29.0673 177.704 29.7067 177.704 30.556V34H176.598ZM187.941 34.196C187.092 34.196 186.373 34 185.785 33.608C185.207 33.216 184.857 32.5953 184.735 31.746L185.785 31.508C185.86 31.956 186 32.3107 186.205 32.572C186.411 32.824 186.663 33.006 186.961 33.118C187.269 33.2207 187.596 33.272 187.941 33.272C188.455 33.272 188.861 33.1693 189.159 32.964C189.458 32.7587 189.607 32.4833 189.607 32.138C189.607 31.7833 189.463 31.536 189.173 31.396C188.893 31.2467 188.506 31.1253 188.011 31.032L187.437 30.934C186.999 30.8593 186.597 30.7427 186.233 30.584C185.869 30.4253 185.58 30.2107 185.365 29.94C185.151 29.6693 185.043 29.3287 185.043 28.918C185.043 28.302 185.281 27.8213 185.757 27.476C186.233 27.1307 186.863 26.958 187.647 26.958C188.422 26.958 189.047 27.1353 189.523 27.49C190.009 27.8353 190.321 28.3253 190.461 28.96L189.425 29.226C189.341 28.7313 189.141 28.386 188.823 28.19C188.506 27.9847 188.114 27.882 187.647 27.882C187.181 27.882 186.812 27.9707 186.541 28.148C186.271 28.316 186.135 28.568 186.135 28.904C186.135 29.2307 186.261 29.4733 186.513 29.632C186.775 29.7813 187.12 29.8933 187.549 29.968L188.123 30.066C188.609 30.15 189.043 30.2667 189.425 30.416C189.817 30.556 190.125 30.7613 190.349 31.032C190.583 31.3027 190.699 31.6573 190.699 32.096C190.699 32.768 190.447 33.286 189.943 33.65C189.449 34.014 188.781 34.196 187.941 34.196ZM194.612 34.196C194.136 34.196 193.702 34.112 193.31 33.944C192.918 33.776 192.61 33.5333 192.386 33.216C192.162 32.8987 192.05 32.5113 192.05 32.054C192.05 31.5873 192.162 31.2047 192.386 30.906C192.61 30.598 192.918 30.3693 193.31 30.22C193.702 30.0613 194.14 29.982 194.626 29.982H196.936V29.478C196.936 28.9927 196.791 28.61 196.502 28.33C196.222 28.05 195.802 27.91 195.242 27.91C194.691 27.91 194.262 28.0453 193.954 28.316C193.646 28.5773 193.436 28.932 193.324 29.38L192.288 29.044C192.4 28.6613 192.577 28.316 192.82 28.008C193.062 27.6907 193.384 27.4387 193.786 27.252C194.196 27.056 194.686 26.958 195.256 26.958C196.133 26.958 196.814 27.1867 197.3 27.644C197.785 28.092 198.028 28.7267 198.028 29.548V32.642C198.028 32.922 198.158 33.062 198.42 33.062H199.05V34H198.084C197.776 34 197.528 33.916 197.342 33.748C197.155 33.5707 197.062 33.3373 197.062 33.048V32.978H196.894C196.791 33.1553 196.651 33.342 196.474 33.538C196.306 33.7247 196.072 33.8787 195.774 34C195.475 34.1307 195.088 34.196 194.612 34.196ZM194.738 33.244C195.391 33.244 195.918 33.0527 196.32 32.67C196.73 32.278 196.936 31.732 196.936 31.032V30.878H194.668C194.229 30.878 193.865 30.976 193.576 31.172C193.296 31.3587 193.156 31.6433 193.156 32.026C193.156 32.4087 193.3 32.7073 193.59 32.922C193.888 33.1367 194.271 33.244 194.738 33.244ZM203.523 34.196C202.86 34.196 202.263 34.056 201.731 33.776C201.208 33.4867 200.793 33.076 200.485 32.544C200.186 32.012 200.037 31.382 200.037 30.654V30.5C200.037 29.7627 200.186 29.1327 200.485 28.61C200.793 28.078 201.208 27.672 201.731 27.392C202.263 27.1027 202.86 26.958 203.523 26.958C204.176 26.958 204.732 27.0793 205.189 27.322C205.656 27.5647 206.02 27.8867 206.281 28.288C206.552 28.6893 206.724 29.1187 206.799 29.576L205.721 29.8C205.674 29.464 205.562 29.156 205.385 28.876C205.217 28.596 204.979 28.372 204.671 28.204C204.363 28.036 203.985 27.952 203.537 27.952C203.08 27.952 202.669 28.0547 202.305 28.26C201.95 28.4653 201.666 28.7593 201.451 29.142C201.246 29.5247 201.143 29.982 201.143 30.514V30.64C201.143 31.172 201.246 31.6293 201.451 32.012C201.666 32.3947 201.95 32.6887 202.305 32.894C202.669 33.0993 203.08 33.202 203.537 33.202C204.218 33.202 204.736 33.0247 205.091 32.67C205.455 32.3153 205.679 31.8767 205.763 31.354L206.855 31.592C206.752 32.04 206.566 32.4647 206.295 32.866C206.024 33.2673 205.656 33.5893 205.189 33.832C204.732 34.0747 204.176 34.196 203.523 34.196ZM210.973 34C210.581 34 210.278 33.8927 210.063 33.678C209.858 33.4633 209.755 33.1693 209.755 32.796V28.12H207.697V27.154H209.755V24.718H210.861V27.154H213.101V28.12H210.861V32.628C210.861 32.908 210.996 33.048 211.267 33.048H212.793V34H210.973ZM214.892 34V27.154H215.998V34H214.892ZM215.452 26.09C215.21 26.09 215.004 26.0107 214.836 25.852C214.678 25.6933 214.598 25.4927 214.598 25.25C214.598 24.998 214.678 24.7927 214.836 24.634C215.004 24.4753 215.21 24.396 215.452 24.396C215.695 24.396 215.896 24.4753 216.054 24.634C216.213 24.7927 216.292 24.998 216.292 25.25C216.292 25.4927 216.213 25.6933 216.054 25.852C215.896 26.0107 215.695 26.09 215.452 26.09ZM221.488 34.196C220.797 34.196 220.186 34.0513 219.654 33.762C219.131 33.4727 218.721 33.0667 218.422 32.544C218.133 32.012 217.988 31.3867 217.988 30.668V30.486C217.988 29.7767 218.133 29.156 218.422 28.624C218.721 28.092 219.131 27.6813 219.654 27.392C220.186 27.1027 220.797 26.958 221.488 26.958C222.179 26.958 222.785 27.1027 223.308 27.392C223.84 27.6813 224.251 28.092 224.54 28.624C224.839 29.156 224.988 29.7767 224.988 30.486V30.668C224.988 31.3867 224.839 32.012 224.54 32.544C224.251 33.0667 223.84 33.4727 223.308 33.762C222.785 34.0513 222.179 34.196 221.488 34.196ZM221.488 33.202C222.216 33.202 222.795 32.9733 223.224 32.516C223.663 32.0493 223.882 31.424 223.882 30.64V30.514C223.882 29.73 223.663 29.1093 223.224 28.652C222.795 28.1853 222.216 27.952 221.488 27.952C220.769 27.952 220.191 28.1853 219.752 28.652C219.313 29.1093 219.094 29.73 219.094 30.514V30.64C219.094 31.424 219.313 32.0493 219.752 32.516C220.191 32.9733 220.769 33.202 221.488 33.202ZM226.978 34V27.154H228.056V28.316H228.252C228.402 27.9893 228.654 27.6953 229.008 27.434C229.372 27.1633 229.904 27.028 230.604 27.028C231.118 27.028 231.575 27.1353 231.976 27.35C232.387 27.5647 232.714 27.882 232.956 28.302C233.199 28.722 233.32 29.24 233.32 29.856V34H232.214V29.94C232.214 29.2587 232.042 28.764 231.696 28.456C231.36 28.148 230.903 27.994 230.324 27.994C229.662 27.994 229.12 28.2087 228.7 28.638C228.29 29.0673 228.084 29.7067 228.084 30.556V34H226.978ZM238.322 34.196C237.473 34.196 236.754 34 236.166 33.608C235.588 33.216 235.238 32.5953 235.116 31.746L236.166 31.508C236.241 31.956 236.381 32.3107 236.586 32.572C236.792 32.824 237.044 33.006 237.342 33.118C237.65 33.2207 237.977 33.272 238.322 33.272C238.836 33.272 239.242 33.1693 239.54 32.964C239.839 32.7587 239.988 32.4833 239.988 32.138C239.988 31.7833 239.844 31.536 239.554 31.396C239.274 31.2467 238.887 31.1253 238.392 31.032L237.818 30.934C237.38 30.8593 236.978 30.7427 236.614 30.584C236.25 30.4253 235.961 30.2107 235.746 29.94C235.532 29.6693 235.424 29.3287 235.424 28.918C235.424 28.302 235.662 27.8213 236.138 27.476C236.614 27.1307 237.244 26.958 238.028 26.958C238.803 26.958 239.428 27.1353 239.904 27.49C240.39 27.8353 240.702 28.3253 240.842 28.96L239.806 29.226C239.722 28.7313 239.522 28.386 239.204 28.19C238.887 27.9847 238.495 27.882 238.028 27.882C237.562 27.882 237.193 27.9707 236.922 28.148C236.652 28.316 236.516 28.568 236.516 28.904C236.516 29.2307 236.642 29.4733 236.894 29.632C237.156 29.7813 237.501 29.8933 237.93 29.968L238.504 30.066C238.99 30.15 239.424 30.2667 239.806 30.416C240.198 30.556 240.506 30.7613 240.73 31.032C240.964 31.3027 241.08 31.6573 241.08 32.096C241.08 32.768 240.828 33.286 240.324 33.65C239.83 34.014 239.162 34.196 238.322 34.196Z" fill="#797979"/>
<rect x="254.5" y="28.5" width="95.5" height="1" fill="#E6E6E6"/>
</svg>
