<svg width="350" height="56" viewBox="0 0 350 56" fill="none" xmlns="http://www.w3.org/2000/svg">
<rect x="0.75" y="0.75" width="348.5" height="54.5" rx="11.25" fill="white"/>
<rect x="0.75" y="0.75" width="348.5" height="54.5" rx="11.25" stroke="#E6E6E6" stroke-width="1.5"/>
<path d="M20.252 33L22.828 23.2H26.048L28.624 33H26.72L26.188 30.844H22.688L22.156 33H20.252ZM23.122 29.136H25.754L24.564 24.362H24.312L23.122 29.136ZM29.181 33L32.051 28.058L29.209 23.2H31.309L33.255 26.742H33.507L35.453 23.2H37.553L34.711 28.058L37.581 33H35.481L33.507 29.374H33.255L31.281 33H29.181ZM38.8068 33V23.2H42.2368L43.9308 31.74H44.1828L45.8768 23.2H49.3068V33H47.5148V24.558H47.2628L45.5828 33H42.5308L40.8508 24.558H40.5988V33H38.8068ZM50.8725 33V31.376H52.1605V24.824H50.8725V23.2H54.9045C56.2205 23.2 57.2192 23.536 57.9005 24.208C58.5912 24.8707 58.9365 25.86 58.9365 27.176V29.024C58.9365 30.34 58.5912 31.334 57.9005 32.006C57.2192 32.6687 56.2205 33 54.9045 33H50.8725ZM54.0085 31.32H54.9325C55.6792 31.32 56.2252 31.124 56.5705 30.732C56.9158 30.34 57.0885 29.7893 57.0885 29.08V27.12C57.0885 26.4013 56.9158 25.8507 56.5705 25.468C56.2252 25.076 55.6792 24.88 54.9325 24.88H54.0085V31.32ZM63.1647 33V24.516H62.9127L61.5967 27.624H59.7207L61.7227 23.2H64.9567V33H63.1647ZM66.8068 33V23.2H73.1068V24.88H68.6548V27.218H72.7148V28.898H68.6548V31.32H73.1908V33H66.8068ZM74.5588 33V23.2H80.8588V24.88H76.4068V27.218H80.4668V28.898H76.4068V31.32H80.9428V33H74.5588ZM82.0307 33V31.376H83.3187V24.824H82.0307V23.2H86.0627C87.3787 23.2 88.3774 23.536 89.0587 24.208C89.7494 24.8707 90.0947 25.86 90.0947 27.176V29.024C90.0947 30.34 89.7494 31.334 89.0587 32.006C88.3774 32.6687 87.3787 33 86.0627 33H82.0307ZM85.1667 31.32H86.0907C86.8374 31.32 87.3834 31.124 87.7287 30.732C88.0741 30.34 88.2467 29.7893 88.2467 29.08V27.12C88.2467 26.4013 88.0741 25.8507 87.7287 25.468C87.3834 25.076 86.8374 24.88 86.0907 24.88H85.1667V31.32Z" fill="#111111"/>
<path d="M328.411 31.0384C328.192 31.0388 327.975 30.9959 327.773 30.9123C327.571 30.8286 327.387 30.7058 327.232 30.5509L322.822 26.1393L324 24.9609L328.411 29.3718L332.822 24.9609L334 26.1393L329.589 30.5501C329.435 30.7051 329.251 30.8281 329.049 30.9119C328.847 30.9957 328.63 31.0387 328.411 31.0384Z" fill="#00B76A"/>
</svg>
