<svg width="359" height="371" viewBox="0 0 359 371" fill="none" xmlns="http://www.w3.org/2000/svg">
<rect x="0.5" y="0.5" width="358" height="370" rx="23.5" fill="white"/>
<rect x="0.5" y="0.5" width="358" height="370" rx="23.5" stroke="#E6E6E6"/>
<g filter="url(#filter0_d_1140_3534)">
<rect x="8" y="8" width="343" height="95" rx="16" fill="#F5FAFF" shape-rendering="crispEdges"/>
<path d="M35.756 48.168C35.148 48.168 34.604 48.06 34.124 47.844C33.644 47.628 33.264 47.304 32.984 46.872C32.712 46.432 32.576 45.884 32.576 45.228V44.976H33.572V45.228C33.572 45.924 33.776 46.444 34.184 46.788C34.592 47.124 35.116 47.292 35.756 47.292C36.412 47.292 36.912 47.144 37.256 46.848C37.6 46.552 37.772 46.18 37.772 45.732C37.772 45.42 37.692 45.172 37.532 44.988C37.38 44.804 37.164 44.656 36.884 44.544C36.604 44.424 36.276 44.32 35.9 44.232L35.276 44.076C34.788 43.948 34.356 43.792 33.98 43.608C33.604 43.424 33.308 43.184 33.092 42.888C32.884 42.584 32.78 42.196 32.78 41.724C32.78 41.252 32.896 40.844 33.128 40.5C33.368 40.156 33.7 39.892 34.124 39.708C34.556 39.524 35.052 39.432 35.612 39.432C36.18 39.432 36.688 39.532 37.136 39.732C37.592 39.924 37.948 40.212 38.204 40.596C38.468 40.972 38.6 41.448 38.6 42.024V42.528H37.604V42.024C37.604 41.616 37.516 41.288 37.34 41.04C37.172 40.792 36.936 40.608 36.632 40.488C36.336 40.368 35.996 40.308 35.612 40.308C35.06 40.308 34.616 40.432 34.28 40.68C33.944 40.92 33.776 41.264 33.776 41.712C33.776 42.008 33.848 42.248 33.992 42.432C34.136 42.616 34.34 42.768 34.604 42.888C34.868 43 35.184 43.1 35.552 43.188L36.176 43.344C36.664 43.448 37.1 43.592 37.484 43.776C37.876 43.952 38.188 44.196 38.42 44.508C38.652 44.812 38.768 45.212 38.768 45.708C38.768 46.204 38.644 46.636 38.396 47.004C38.148 47.372 37.796 47.66 37.34 47.868C36.892 48.068 36.364 48.168 35.756 48.168ZM42.5154 48C42.1794 48 41.9194 47.908 41.7354 47.724C41.5594 47.54 41.4714 47.288 41.4714 46.968V42.96H39.7074V42.132H41.4714V40.044H42.4194V42.132H44.3394V42.96H42.4194V46.824C42.4194 47.064 42.5354 47.184 42.7674 47.184H44.0754V48H42.5154ZM48.352 48.168C47.76 48.168 47.24 48.044 46.792 47.796C46.344 47.54 45.996 47.184 45.748 46.728C45.5 46.272 45.376 45.744 45.376 45.144V45C45.376 44.392 45.5 43.86 45.748 43.404C45.996 42.948 46.34 42.596 46.78 42.348C47.22 42.092 47.724 41.964 48.292 41.964C48.844 41.964 49.332 42.084 49.756 42.324C50.18 42.556 50.512 42.892 50.752 43.332C50.992 43.772 51.112 44.288 51.112 44.88V45.312H46.324C46.348 45.944 46.552 46.44 46.936 46.8C47.32 47.152 47.8 47.328 48.376 47.328C48.88 47.328 49.268 47.212 49.54 46.98C49.812 46.748 50.02 46.472 50.164 46.152L50.98 46.548C50.86 46.796 50.692 47.044 50.476 47.292C50.268 47.54 49.992 47.748 49.648 47.916C49.312 48.084 48.88 48.168 48.352 48.168ZM46.336 44.532H50.152C50.12 43.988 49.932 43.564 49.588 43.26C49.252 42.956 48.82 42.804 48.292 42.804C47.756 42.804 47.316 42.956 46.972 43.26C46.628 43.564 46.416 43.988 46.336 44.532ZM52.7655 50.4V42.132H53.6895V43.104H53.8575C54.0095 42.808 54.2535 42.544 54.5895 42.312C54.9335 42.08 55.4095 41.964 56.0175 41.964C56.5215 41.964 56.9815 42.088 57.3975 42.336C57.8215 42.576 58.1575 42.92 58.4055 43.368C58.6615 43.816 58.7895 44.356 58.7895 44.988V45.144C58.7895 45.768 58.6655 46.308 58.4175 46.764C58.1695 47.22 57.8335 47.568 57.4095 47.808C56.9935 48.048 56.5295 48.168 56.0175 48.168C55.6095 48.168 55.2615 48.112 54.9735 48C54.6935 47.896 54.4655 47.76 54.2895 47.592C54.1135 47.424 53.9775 47.252 53.8815 47.076H53.7135V50.4H52.7655ZM55.7655 47.328C56.3735 47.328 56.8655 47.136 57.2415 46.752C57.6255 46.36 57.8175 45.816 57.8175 45.12V45.012C57.8175 44.316 57.6255 43.776 57.2415 43.392C56.8655 43 56.3735 42.804 55.7655 42.804C55.1655 42.804 54.6695 43 54.2775 43.392C53.8935 43.776 53.7015 44.316 53.7015 45.012V45.12C53.7015 45.816 53.8935 46.36 54.2775 46.752C54.6695 47.136 55.1655 47.328 55.7655 47.328ZM65.6582 48V40.248H65.4782L63.8462 43.236H62.7902L64.7942 39.6H66.6302V48H65.6582Z" fill="#003673"/>
<path d="M37.0475 71.225C36.2575 71.225 35.545 71.0875 34.91 70.8125C34.28 70.5375 33.76 70.145 33.35 69.635C32.945 69.12 32.6875 68.51 32.5775 67.805L34.4525 67.52C34.6125 68.16 34.94 68.655 35.435 69.005C35.935 69.355 36.51 69.53 37.16 69.53C37.545 69.53 37.9075 69.47 38.2475 69.35C38.5875 69.23 38.8625 69.055 39.0725 68.825C39.2875 68.595 39.395 68.3125 39.395 67.9775C39.395 67.8275 39.37 67.69 39.32 67.565C39.27 67.435 39.195 67.32 39.095 67.22C39 67.12 38.875 67.03 38.72 66.95C38.57 66.865 38.395 66.7925 38.195 66.7325L35.405 65.9075C35.165 65.8375 34.905 65.745 34.625 65.63C34.35 65.51 34.0875 65.3475 33.8375 65.1425C33.5925 64.9325 33.39 64.6675 33.23 64.3475C33.075 64.0225 32.9975 63.6225 32.9975 63.1475C32.9975 62.4525 33.1725 61.87 33.5225 61.4C33.8775 60.925 34.3525 60.57 34.9475 60.335C35.5475 60.1 36.2125 59.985 36.9425 59.99C37.6825 59.995 38.3425 60.1225 38.9225 60.3725C39.5025 60.6175 39.9875 60.975 40.3775 61.445C40.7675 61.915 41.0425 62.4825 41.2025 63.1475L39.26 63.485C39.18 63.105 39.025 62.7825 38.795 62.5175C38.57 62.2475 38.2925 62.0425 37.9625 61.9025C37.6375 61.7625 37.29 61.6875 36.92 61.6775C36.56 61.6725 36.225 61.7275 35.915 61.8425C35.61 61.9525 35.3625 62.1125 35.1725 62.3225C34.9875 62.5325 34.895 62.7775 34.895 63.0575C34.895 63.3225 34.975 63.54 35.135 63.71C35.295 63.875 35.4925 64.0075 35.7275 64.1075C35.9675 64.2025 36.21 64.2825 36.455 64.3475L38.39 64.8875C38.655 64.9575 38.9525 65.0525 39.2825 65.1725C39.6125 65.2925 39.93 65.46 40.235 65.675C40.54 65.89 40.79 66.1725 40.985 66.5225C41.185 66.8725 41.285 67.3175 41.285 67.8575C41.285 68.4175 41.1675 68.91 40.9325 69.335C40.7025 69.755 40.39 70.105 39.995 70.385C39.6 70.665 39.1475 70.875 38.6375 71.015C38.1325 71.155 37.6025 71.225 37.0475 71.225ZM46.5909 71.225C45.7709 71.225 45.0509 71.0475 44.4309 70.6925C43.8109 70.3375 43.3259 69.845 42.9759 69.215C42.6309 68.585 42.4584 67.86 42.4584 67.04C42.4584 66.155 42.6284 65.3875 42.9684 64.7375C43.3084 64.0825 43.7809 63.575 44.3859 63.215C44.9909 62.855 45.6909 62.675 46.4859 62.675C47.3259 62.675 48.0384 62.8725 48.6234 63.2675C49.2134 63.6575 49.6509 64.21 49.9359 64.925C50.2209 65.64 50.3284 66.4825 50.2584 67.4525H48.4659V66.7925C48.4609 65.9125 48.3059 65.27 48.0009 64.865C47.6959 64.46 47.2159 64.2575 46.5609 64.2575C45.8209 64.2575 45.2709 64.4875 44.9109 64.9475C44.5509 65.4025 44.3709 66.07 44.3709 66.95C44.3709 67.77 44.5509 68.405 44.9109 68.855C45.2709 69.305 45.7959 69.53 46.4859 69.53C46.9309 69.53 47.3134 69.4325 47.6334 69.2375C47.9584 69.0375 48.2084 68.75 48.3834 68.375L50.1684 68.915C49.8584 69.645 49.3784 70.2125 48.7284 70.6175C48.0834 71.0225 47.3709 71.225 46.5909 71.225ZM43.8009 67.4525V66.0875H49.3734V67.4525H43.8009ZM52.0818 71V59.975H53.8893V71H52.0818ZM59.8184 71.225C58.9984 71.225 58.2784 71.0475 57.6584 70.6925C57.0384 70.3375 56.5534 69.845 56.2034 69.215C55.8584 68.585 55.6859 67.86 55.6859 67.04C55.6859 66.155 55.8559 65.3875 56.1959 64.7375C56.5359 64.0825 57.0084 63.575 57.6134 63.215C58.2184 62.855 58.9184 62.675 59.7134 62.675C60.5534 62.675 61.2659 62.8725 61.8509 63.2675C62.4409 63.6575 62.8784 64.21 63.1634 64.925C63.4484 65.64 63.5559 66.4825 63.4859 67.4525H61.6934V66.7925C61.6884 65.9125 61.5334 65.27 61.2284 64.865C60.9234 64.46 60.4434 64.2575 59.7884 64.2575C59.0484 64.2575 58.4984 64.4875 58.1384 64.9475C57.7784 65.4025 57.5984 66.07 57.5984 66.95C57.5984 67.77 57.7784 68.405 58.1384 68.855C58.4984 69.305 59.0234 69.53 59.7134 69.53C60.1584 69.53 60.5409 69.4325 60.8609 69.2375C61.1859 69.0375 61.4359 68.75 61.6109 68.375L63.3959 68.915C63.0859 69.645 62.6059 70.2125 61.9559 70.6175C61.3109 71.0225 60.5984 71.225 59.8184 71.225ZM57.0284 67.4525V66.0875H62.6009V67.4525H57.0284ZM68.6769 71.225C67.8419 71.225 67.1294 71.04 66.5394 70.67C65.9494 70.295 65.4969 69.785 65.1819 69.14C64.8719 68.495 64.7144 67.765 64.7094 66.95C64.7144 66.12 64.8769 65.385 65.1969 64.745C65.5219 64.1 65.9819 63.595 66.5769 63.23C67.1719 62.86 67.8794 62.675 68.6994 62.675C69.6194 62.675 70.3969 62.9075 71.0319 63.3725C71.6719 63.8325 72.0894 64.4625 72.2844 65.2625L70.4844 65.75C70.3444 65.315 70.1119 64.9775 69.7869 64.7375C69.4619 64.4925 69.0919 64.37 68.6769 64.37C68.2069 64.37 67.8194 64.4825 67.5144 64.7075C67.2094 64.9275 66.9844 65.2325 66.8394 65.6225C66.6944 66.0125 66.6219 66.455 66.6219 66.95C66.6219 67.72 66.7944 68.3425 67.1394 68.8175C67.4844 69.2925 67.9969 69.53 68.6769 69.53C69.1569 69.53 69.5344 69.42 69.8094 69.2C70.0894 68.98 70.2994 68.6625 70.4394 68.2475L72.2844 68.66C72.0344 69.485 71.5969 70.12 70.9719 70.565C70.3469 71.005 69.5819 71.225 68.6769 71.225ZM78.5348 71C77.9998 71.1 77.4748 71.1425 76.9598 71.1275C76.4498 71.1175 75.9923 71.025 75.5873 70.85C75.1823 70.67 74.8748 70.3875 74.6648 70.0025C74.4798 69.6525 74.3823 69.295 74.3723 68.93C74.3623 68.565 74.3573 68.1525 74.3573 67.6925V60.65H76.1573V67.5875C76.1573 67.9125 76.1598 68.1975 76.1648 68.4425C76.1748 68.6875 76.2273 68.8875 76.3223 69.0425C76.5023 69.3425 76.7898 69.51 77.1848 69.545C77.5798 69.58 78.0298 69.56 78.5348 69.485V71ZM72.8873 64.3175V62.9H78.5348V64.3175H72.8873ZM87.172 71.225C86.382 71.225 85.7195 71.0375 85.1845 70.6625C84.6495 70.2875 84.247 69.7775 83.977 69.1325C83.707 68.4825 83.572 67.755 83.572 66.95C83.572 66.135 83.707 65.405 83.977 64.76C84.247 64.115 84.642 63.6075 85.162 63.2375C85.687 62.8625 86.3345 62.675 87.1045 62.675C87.8695 62.675 88.532 62.8625 89.092 63.2375C89.657 63.6075 90.0945 64.115 90.4045 64.76C90.7145 65.4 90.8695 66.13 90.8695 66.95C90.8695 67.76 90.717 68.4875 90.412 69.1325C90.107 69.7775 89.677 70.2875 89.122 70.6625C88.567 71.0375 87.917 71.225 87.172 71.225ZM83.2645 71V60.2H85.087V65.315H84.862V71H83.2645ZM86.8945 69.605C87.3645 69.605 87.752 69.4875 88.057 69.2525C88.362 69.0175 88.587 68.7 88.732 68.3C88.882 67.895 88.957 67.445 88.957 66.95C88.957 66.46 88.882 66.015 88.732 65.615C88.582 65.21 88.3495 64.89 88.0345 64.655C87.7195 64.415 87.3195 64.295 86.8345 64.295C86.3745 64.295 85.9995 64.4075 85.7095 64.6325C85.4195 64.8525 85.2045 65.1625 85.0645 65.5625C84.9295 65.9575 84.862 66.42 84.862 66.95C84.862 67.475 84.9295 67.9375 85.0645 68.3375C85.2045 68.7375 85.422 69.05 85.717 69.275C86.017 69.495 86.4095 69.605 86.8945 69.605ZM94.7877 71.225C94.2027 71.225 93.7077 71.115 93.3027 70.895C92.8977 70.67 92.5902 70.3725 92.3802 70.0025C92.1752 69.6325 92.0727 69.225 92.0727 68.78C92.0727 68.39 92.1377 68.04 92.2677 67.73C92.3977 67.415 92.5977 67.145 92.8677 66.92C93.1377 66.69 93.4877 66.5025 93.9177 66.3575C94.2427 66.2525 94.6227 66.1575 95.0577 66.0725C95.4977 65.9875 95.9727 65.91 96.4827 65.84C96.9977 65.765 97.5352 65.685 98.0952 65.6L97.4502 65.9675C97.4552 65.4075 97.3302 64.995 97.0752 64.73C96.8202 64.465 96.3902 64.3325 95.7852 64.3325C95.4202 64.3325 95.0677 64.4175 94.7277 64.5875C94.3877 64.7575 94.1502 65.05 94.0152 65.465L92.3652 64.9475C92.5652 64.2625 92.9452 63.7125 93.5052 63.2975C94.0702 62.8825 94.8302 62.675 95.7852 62.675C96.5052 62.675 97.1377 62.7925 97.6827 63.0275C98.2327 63.2625 98.6402 63.6475 98.9052 64.1825C99.0502 64.4675 99.1377 64.76 99.1677 65.06C99.1977 65.355 99.2127 65.6775 99.2127 66.0275V71H97.6302V69.245L97.8927 69.53C97.5277 70.115 97.1002 70.545 96.6102 70.82C96.1252 71.09 95.5177 71.225 94.7877 71.225ZM95.1477 69.785C95.5577 69.785 95.9077 69.7125 96.1977 69.5675C96.4877 69.4225 96.7177 69.245 96.8877 69.035C97.0627 68.825 97.1802 68.6275 97.2402 68.4425C97.3352 68.2125 97.3877 67.95 97.3977 67.655C97.4127 67.355 97.4202 67.1125 97.4202 66.9275L97.9752 67.0925C97.4302 67.1775 96.9627 67.2525 96.5727 67.3175C96.1827 67.3825 95.8477 67.445 95.5677 67.505C95.2877 67.56 95.0402 67.6225 94.8252 67.6925C94.6152 67.7675 94.4377 67.855 94.2927 67.955C94.1477 68.055 94.0352 68.17 93.9552 68.3C93.8802 68.43 93.8427 68.5825 93.8427 68.7575C93.8427 68.9575 93.8927 69.135 93.9927 69.29C94.0927 69.44 94.2377 69.56 94.4277 69.65C94.6227 69.74 94.8627 69.785 95.1477 69.785ZM106.768 71V67.1C106.768 66.845 106.75 66.5625 106.715 66.2525C106.68 65.9425 106.598 65.645 106.468 65.36C106.343 65.07 106.153 64.8325 105.898 64.6475C105.648 64.4625 105.308 64.37 104.878 64.37C104.648 64.37 104.42 64.4075 104.195 64.4825C103.97 64.5575 103.765 64.6875 103.58 64.8725C103.4 65.0525 103.255 65.3025 103.145 65.6225C103.035 65.9375 102.98 66.3425 102.98 66.8375L101.908 66.38C101.908 65.69 102.04 65.065 102.305 64.505C102.575 63.945 102.97 63.5 103.49 63.17C104.01 62.835 104.65 62.6675 105.41 62.6675C106.01 62.6675 106.505 62.7675 106.895 62.9675C107.285 63.1675 107.595 63.4225 107.825 63.7325C108.055 64.0425 108.225 64.3725 108.335 64.7225C108.445 65.0725 108.515 65.405 108.545 65.72C108.58 66.03 108.598 66.2825 108.598 66.4775V71H106.768ZM101.15 71V62.9H102.763V65.4125H102.98V71H101.15ZM110.54 71L110.555 60.2H112.385V66.8L115.347 62.9H117.605L114.462 66.95L117.875 71H115.482L112.385 67.1V71H110.54Z" fill="#1D1D1F"/>
<rect x="278" y="40" width="49" height="20" rx="10" fill="#CCE3FF"/>
<path d="M290.876 54V45.6H293.372L295.652 53.136H295.844V45.6H297.128V54H294.632L292.352 46.452H292.16V54H290.876ZM301.688 54.168C301.096 54.168 300.568 54.048 300.104 53.808C299.648 53.56 299.288 53.208 299.024 52.752C298.76 52.296 298.628 51.756 298.628 51.132V50.952C298.628 50.328 298.76 49.792 299.024 49.344C299.288 48.888 299.648 48.536 300.104 48.288C300.568 48.04 301.096 47.916 301.688 47.916C302.28 47.916 302.808 48.04 303.272 48.288C303.736 48.536 304.1 48.888 304.364 49.344C304.628 49.792 304.76 50.328 304.76 50.952V51.132C304.76 51.756 304.628 52.296 304.364 52.752C304.1 53.208 303.736 53.56 303.272 53.808C302.808 54.048 302.28 54.168 301.688 54.168ZM301.688 53.064C302.232 53.064 302.672 52.892 303.008 52.548C303.352 52.196 303.524 51.712 303.524 51.096V50.988C303.524 50.372 303.356 49.892 303.02 49.548C302.684 49.196 302.24 49.02 301.688 49.02C301.152 49.02 300.712 49.196 300.368 49.548C300.032 49.892 299.864 50.372 299.864 50.988V51.096C299.864 51.712 300.032 52.196 300.368 52.548C300.712 52.892 301.152 53.064 301.688 53.064ZM306.876 54L305.868 48.084H307.104L307.848 53.172H308.04L309.072 48.084H311.076L312.096 53.172H312.288L313.032 48.084H314.268L313.26 54H311.184L310.164 48.924H309.972L308.952 54H306.876Z" fill="#003673"/>
</g>
<rect x="42" y="119" width="2" height="27" fill="#D9D9D9"/>
<path d="M35.78 186.168C35.18 186.168 34.644 186.064 34.172 185.856C33.7 185.64 33.328 185.316 33.056 184.884C32.784 184.444 32.648 183.888 32.648 183.216V182.988H33.416V183.216C33.416 183.992 33.636 184.568 34.076 184.944C34.524 185.312 35.092 185.496 35.78 185.496C36.476 185.496 37.012 185.336 37.388 185.016C37.764 184.688 37.952 184.272 37.952 183.768C37.952 183.432 37.868 183.164 37.7 182.964C37.54 182.756 37.312 182.592 37.016 182.472C36.728 182.344 36.392 182.232 36.008 182.136L35.24 181.944C34.784 181.824 34.376 181.676 34.016 181.5C33.656 181.316 33.372 181.08 33.164 180.792C32.956 180.496 32.852 180.12 32.852 179.664C32.852 179.208 32.968 178.812 33.2 178.476C33.44 178.14 33.768 177.884 34.184 177.708C34.6 177.524 35.084 177.432 35.636 177.432C36.188 177.432 36.684 177.528 37.124 177.72C37.572 177.912 37.924 178.196 38.18 178.572C38.444 178.94 38.576 179.404 38.576 179.964V180.528H37.808V179.964C37.808 179.524 37.712 179.168 37.52 178.896C37.328 178.624 37.068 178.424 36.74 178.296C36.412 178.168 36.044 178.104 35.636 178.104C35.052 178.104 34.568 178.24 34.184 178.512C33.808 178.776 33.62 179.16 33.62 179.664C33.62 180 33.696 180.268 33.848 180.468C34.008 180.668 34.228 180.828 34.508 180.948C34.796 181.068 35.132 181.176 35.516 181.272L36.284 181.464C36.724 181.568 37.128 181.708 37.496 181.884C37.864 182.052 38.16 182.288 38.384 182.592C38.608 182.888 38.72 183.28 38.72 183.768C38.72 184.256 38.596 184.68 38.348 185.04C38.108 185.4 37.768 185.68 37.328 185.88C36.888 186.072 36.372 186.168 35.78 186.168ZM42.5625 186C42.2505 186 42.0145 185.92 41.8545 185.76C41.7025 185.6 41.6265 185.376 41.6265 185.088V180.816H39.7545V180.168H41.6265V177.984H42.3465V180.168H44.3865V180.816H42.3465V184.992C42.3465 185.232 42.4665 185.352 42.7065 185.352H44.0745V186H42.5625ZM48.4706 186.168C47.8706 186.168 47.3466 186.044 46.8986 185.796C46.4586 185.54 46.1146 185.184 45.8666 184.728C45.6186 184.272 45.4946 183.748 45.4946 183.156V183.012C45.4946 182.412 45.6186 181.888 45.8666 181.44C46.1146 180.984 46.4546 180.632 46.8866 180.384C47.3266 180.128 47.8266 180 48.3866 180C48.9306 180 49.4106 180.116 49.8266 180.348C50.2506 180.572 50.5826 180.9 50.8226 181.332C51.0626 181.756 51.1826 182.264 51.1826 182.856V183.24H46.2146C46.2386 183.968 46.4586 184.532 46.8746 184.932C47.2986 185.324 47.8306 185.52 48.4706 185.52C49.0146 185.52 49.4346 185.396 49.7306 185.148C50.0346 184.9 50.2666 184.596 50.4266 184.236L51.0746 184.524C50.9546 184.788 50.7866 185.048 50.5706 185.304C50.3626 185.552 50.0906 185.76 49.7546 185.928C49.4186 186.088 48.9906 186.168 48.4706 186.168ZM46.2266 182.616H50.4506C50.4186 181.984 50.2146 181.5 49.8386 181.164C49.4626 180.82 48.9786 180.648 48.3866 180.648C47.8026 180.648 47.3186 180.82 46.9346 181.164C46.5506 181.5 46.3146 181.984 46.2266 182.616ZM52.9544 188.4V180.168H53.6504V181.236H53.7944C53.9624 180.916 54.2224 180.632 54.5744 180.384C54.9344 180.128 55.4344 180 56.0744 180C56.5944 180 57.0664 180.124 57.4904 180.372C57.9144 180.612 58.2504 180.956 58.4984 181.404C58.7544 181.852 58.8824 182.388 58.8824 183.012V183.156C58.8824 183.772 58.7584 184.308 58.5104 184.764C58.2624 185.212 57.9264 185.56 57.5024 185.808C57.0784 186.048 56.6024 186.168 56.0744 186.168C55.6504 186.168 55.2864 186.112 54.9824 186C54.6864 185.88 54.4424 185.728 54.2504 185.544C54.0664 185.36 53.9224 185.172 53.8184 184.98H53.6744V188.4H52.9544ZM55.9064 185.52C56.5704 185.52 57.1064 185.308 57.5144 184.884C57.9304 184.46 58.1384 183.876 58.1384 183.132V183.036C58.1384 182.292 57.9304 181.708 57.5144 181.284C57.1064 180.86 56.5704 180.648 55.9064 180.648C55.2504 180.648 54.7144 180.86 54.2984 181.284C53.8824 181.708 53.6744 182.292 53.6744 183.036V183.132C53.6744 183.876 53.8824 184.46 54.2984 184.884C54.7144 185.308 55.2504 185.52 55.9064 185.52ZM63.446 186V185.172C63.446 184.572 63.554 184.1 63.77 183.756C63.986 183.404 64.286 183.124 64.67 182.916C65.062 182.708 65.522 182.524 66.05 182.364L66.65 182.172C67.042 182.052 67.386 181.908 67.682 181.74C67.986 181.564 68.222 181.34 68.39 181.068C68.558 180.796 68.642 180.452 68.642 180.036V179.988C68.642 179.404 68.438 178.944 68.03 178.608C67.63 178.272 67.118 178.104 66.494 178.104C65.83 178.104 65.286 178.284 64.862 178.644C64.438 178.996 64.226 179.536 64.226 180.264V180.42H63.506V180.264C63.506 179.656 63.634 179.144 63.89 178.728C64.146 178.304 64.498 177.984 64.946 177.768C65.402 177.544 65.918 177.432 66.494 177.432C67.07 177.432 67.574 177.54 68.006 177.756C68.446 177.964 68.786 178.26 69.026 178.644C69.266 179.02 69.386 179.46 69.386 179.964V180.072C69.386 180.616 69.278 181.064 69.062 181.416C68.854 181.76 68.558 182.044 68.174 182.268C67.79 182.484 67.338 182.676 66.818 182.844L66.218 183.024C65.786 183.16 65.418 183.304 65.114 183.456C64.818 183.6 64.59 183.796 64.43 184.044C64.27 184.284 64.19 184.62 64.19 185.052V185.328H69.314V186H63.446Z" fill="#797979"/>
<path d="M36.965 209.225C36.19 209.225 35.49 209.093 34.865 208.827C34.245 208.557 33.7325 208.175 33.3275 207.68C32.9275 207.18 32.6675 206.587 32.5475 205.902L34.1825 205.655C34.3475 206.315 34.6925 206.83 35.2175 207.2C35.7425 207.565 36.355 207.747 37.055 207.747C37.49 207.747 37.89 207.68 38.255 207.545C38.62 207.405 38.9125 207.207 39.1325 206.952C39.3575 206.692 39.47 206.382 39.47 206.022C39.47 205.827 39.435 205.655 39.365 205.505C39.3 205.355 39.2075 205.225 39.0875 205.115C38.9725 205 38.83 204.902 38.66 204.822C38.495 204.737 38.3125 204.665 38.1125 204.605L35.345 203.787C35.075 203.707 34.8 203.605 34.52 203.48C34.24 203.35 33.9825 203.182 33.7475 202.977C33.5175 202.767 33.33 202.51 33.185 202.205C33.04 201.895 32.9675 201.52 32.9675 201.08C32.9675 200.415 33.1375 199.852 33.4775 199.392C33.8225 198.927 34.2875 198.577 34.8725 198.342C35.4575 198.102 36.1125 197.982 36.8375 197.982C37.5675 197.992 38.22 198.122 38.795 198.372C39.375 198.622 39.855 198.982 40.235 199.452C40.62 199.917 40.885 200.482 41.03 201.147L39.35 201.432C39.275 201.027 39.115 200.68 38.87 200.39C38.625 200.095 38.325 199.87 37.97 199.715C37.615 199.555 37.23 199.472 36.815 199.467C36.415 199.457 36.0475 199.517 35.7125 199.647C35.3825 199.777 35.1175 199.96 34.9175 200.195C34.7225 200.43 34.625 200.7 34.625 201.005C34.625 201.305 34.7125 201.547 34.8875 201.732C35.0625 201.917 35.2775 202.065 35.5325 202.175C35.7925 202.28 36.05 202.367 36.305 202.437L38.3 203C38.55 203.07 38.8325 203.165 39.1475 203.285C39.4675 203.4 39.775 203.562 40.07 203.772C40.37 203.982 40.6175 204.262 40.8125 204.612C41.0075 204.957 41.105 205.392 41.105 205.917C41.105 206.462 40.995 206.942 40.775 207.357C40.555 207.767 40.2525 208.112 39.8675 208.392C39.4875 208.667 39.0475 208.875 38.5475 209.015C38.0475 209.155 37.52 209.225 36.965 209.225ZM46.2958 209.225C45.4908 209.225 44.7833 209.05 44.1733 208.7C43.5683 208.345 43.0958 207.852 42.7558 207.222C42.4208 206.587 42.2533 205.852 42.2533 205.017C42.2533 204.132 42.4183 203.365 42.7483 202.715C43.0833 202.065 43.5483 201.562 44.1433 201.207C44.7383 200.852 45.4308 200.675 46.2208 200.675C47.0458 200.675 47.7483 200.867 48.3283 201.253C48.9083 201.632 49.3408 202.175 49.6258 202.88C49.9158 203.585 50.0308 204.422 49.9708 205.392H48.4033V204.822C48.3933 203.882 48.2133 203.187 47.8633 202.737C47.5183 202.287 46.9908 202.062 46.2808 202.062C45.4958 202.062 44.9058 202.31 44.5108 202.805C44.1158 203.3 43.9183 204.015 43.9183 204.95C43.9183 205.84 44.1158 206.53 44.5108 207.02C44.9058 207.505 45.4758 207.747 46.2208 207.747C46.7108 207.747 47.1333 207.637 47.4883 207.417C47.8483 207.192 48.1283 206.872 48.3283 206.457L49.8658 206.945C49.5508 207.67 49.0733 208.232 48.4333 208.632C47.7933 209.027 47.0808 209.225 46.2958 209.225ZM43.4083 205.392V204.17H49.1908V205.392H43.4083ZM51.8035 209V197.975H53.371V209H51.8035ZM59.2157 209.225C58.4107 209.225 57.7032 209.05 57.0932 208.7C56.4882 208.345 56.0157 207.852 55.6757 207.222C55.3407 206.587 55.1732 205.852 55.1732 205.017C55.1732 204.132 55.3382 203.365 55.6682 202.715C56.0032 202.065 56.4682 201.562 57.0632 201.207C57.6582 200.852 58.3507 200.675 59.1407 200.675C59.9657 200.675 60.6682 200.867 61.2482 201.253C61.8282 201.632 62.2607 202.175 62.5457 202.88C62.8357 203.585 62.9507 204.422 62.8907 205.392H61.3232V204.822C61.3132 203.882 61.1332 203.187 60.7832 202.737C60.4382 202.287 59.9107 202.062 59.2007 202.062C58.4157 202.062 57.8257 202.31 57.4307 202.805C57.0357 203.3 56.8382 204.015 56.8382 204.95C56.8382 205.84 57.0357 206.53 57.4307 207.02C57.8257 207.505 58.3957 207.747 59.1407 207.747C59.6307 207.747 60.0532 207.637 60.4082 207.417C60.7682 207.192 61.0482 206.872 61.2482 206.457L62.7857 206.945C62.4707 207.67 61.9932 208.232 61.3532 208.632C60.7132 209.027 60.0007 209.225 59.2157 209.225ZM56.3282 205.392V204.17H62.1107V205.392H56.3282ZM68.0384 209.225C67.2084 209.225 66.5034 209.04 65.9234 208.67C65.3434 208.3 64.8984 207.792 64.5884 207.147C64.2834 206.502 64.1284 205.77 64.1234 204.95C64.1284 204.115 64.2884 203.377 64.6034 202.737C64.9184 202.092 65.3684 201.587 65.9534 201.222C66.5384 200.857 67.2409 200.675 68.0609 200.675C68.9459 200.675 69.7009 200.895 70.3259 201.335C70.9559 201.775 71.3709 202.377 71.5709 203.142L70.0109 203.592C69.8559 203.137 69.6009 202.785 69.2459 202.535C68.8959 202.28 68.4934 202.152 68.0384 202.152C67.5234 202.152 67.1009 202.275 66.7709 202.52C66.4409 202.76 66.1959 203.09 66.0359 203.51C65.8759 203.93 65.7934 204.41 65.7884 204.95C65.7934 205.785 65.9834 206.46 66.3584 206.975C66.7384 207.49 67.2984 207.747 68.0384 207.747C68.5434 207.747 68.9509 207.632 69.2609 207.402C69.5759 207.167 69.8159 206.832 69.9809 206.397L71.5709 206.772C71.3059 207.562 70.8684 208.17 70.2584 208.595C69.6484 209.015 68.9084 209.225 68.0384 209.225ZM77.7338 209C77.2238 209.1 76.7238 209.143 76.2338 209.128C75.7438 209.113 75.3063 209.017 74.9213 208.842C74.5363 208.667 74.2463 208.392 74.0513 208.017C73.8763 207.682 73.7813 207.342 73.7663 206.997C73.7563 206.647 73.7513 206.252 73.7513 205.812V198.65H75.3263V205.737C75.3263 206.062 75.3288 206.345 75.3338 206.585C75.3438 206.825 75.3963 207.027 75.4913 207.192C75.6713 207.502 75.9563 207.68 76.3463 207.725C76.7413 207.765 77.2038 207.747 77.7338 207.672V209ZM72.1988 202.16V200.9H77.7338V202.16H72.1988ZM84.732 209.225C84.132 209.225 83.6295 209.115 83.2245 208.895C82.8195 208.67 82.512 208.375 82.302 208.01C82.097 207.64 81.9945 207.235 81.9945 206.795C81.9945 206.385 82.067 206.025 82.212 205.715C82.357 205.405 82.572 205.142 82.857 204.927C83.142 204.707 83.492 204.53 83.907 204.395C84.267 204.29 84.6745 204.197 85.1295 204.117C85.5845 204.037 86.062 203.962 86.562 203.892C87.067 203.822 87.567 203.752 88.062 203.682L87.492 203.997C87.502 203.362 87.367 202.892 87.087 202.587C86.812 202.277 86.337 202.122 85.662 202.122C85.237 202.122 84.847 202.222 84.492 202.422C84.137 202.617 83.8895 202.942 83.7495 203.397L82.287 202.947C82.487 202.252 82.867 201.7 83.427 201.29C83.992 200.88 84.742 200.675 85.677 200.675C86.402 200.675 87.032 200.8 87.567 201.05C88.107 201.295 88.502 201.685 88.752 202.22C88.882 202.485 88.962 202.765 88.992 203.06C89.022 203.355 89.037 203.672 89.037 204.012V209H87.6495V207.147L87.9195 207.387C87.5845 208.007 87.157 208.47 86.637 208.775C86.122 209.075 85.487 209.225 84.732 209.225ZM85.0095 207.942C85.4545 207.942 85.837 207.865 86.157 207.71C86.477 207.55 86.7345 207.347 86.9295 207.102C87.1245 206.857 87.252 206.602 87.312 206.337C87.397 206.097 87.4445 205.827 87.4545 205.527C87.4695 205.227 87.477 204.987 87.477 204.807L87.987 204.995C87.492 205.07 87.042 205.137 86.637 205.197C86.232 205.257 85.8645 205.317 85.5345 205.377C85.2095 205.432 84.9195 205.5 84.6645 205.58C84.4495 205.655 84.257 205.745 84.087 205.85C83.922 205.955 83.7895 206.082 83.6895 206.232C83.5945 206.382 83.547 206.565 83.547 206.78C83.547 206.99 83.5995 207.185 83.7045 207.365C83.8095 207.54 83.9695 207.68 84.1845 207.785C84.3995 207.89 84.6745 207.942 85.0095 207.942ZM94.4496 209.225C93.6196 209.225 92.9146 209.04 92.3346 208.67C91.7546 208.3 91.3096 207.792 90.9996 207.147C90.6946 206.502 90.5396 205.77 90.5346 204.95C90.5396 204.115 90.6996 203.377 91.0146 202.737C91.3296 202.092 91.7796 201.587 92.3646 201.222C92.9496 200.857 93.6521 200.675 94.4721 200.675C95.3571 200.675 96.1121 200.895 96.7371 201.335C97.3671 201.775 97.7821 202.377 97.9821 203.142L96.4221 203.592C96.2671 203.137 96.0121 202.785 95.6571 202.535C95.3071 202.28 94.9046 202.152 94.4496 202.152C93.9346 202.152 93.5121 202.275 93.1821 202.52C92.8521 202.76 92.6071 203.09 92.4471 203.51C92.2871 203.93 92.2046 204.41 92.1996 204.95C92.2046 205.785 92.3946 206.46 92.7696 206.975C93.1496 207.49 93.7096 207.747 94.4496 207.747C94.9546 207.747 95.3621 207.632 95.6721 207.402C95.9871 207.167 96.2271 206.832 96.3921 206.397L97.9821 206.772C97.7171 207.562 97.2796 208.17 96.6696 208.595C96.0596 209.015 95.3196 209.225 94.4496 209.225ZM102.755 209.225C101.925 209.225 101.22 209.04 100.64 208.67C100.06 208.3 99.6152 207.792 99.3052 207.147C99.0002 206.502 98.8452 205.77 98.8402 204.95C98.8452 204.115 99.0052 203.377 99.3202 202.737C99.6352 202.092 100.085 201.587 100.67 201.222C101.255 200.857 101.958 200.675 102.778 200.675C103.663 200.675 104.418 200.895 105.043 201.335C105.673 201.775 106.088 202.377 106.288 203.142L104.728 203.592C104.573 203.137 104.318 202.785 103.963 202.535C103.613 202.28 103.21 202.152 102.755 202.152C102.24 202.152 101.818 202.275 101.488 202.52C101.158 202.76 100.913 203.09 100.753 203.51C100.593 203.93 100.51 204.41 100.505 204.95C100.51 205.785 100.7 206.46 101.075 206.975C101.455 207.49 102.015 207.747 102.755 207.747C103.26 207.747 103.668 207.632 103.978 207.402C104.293 207.167 104.533 206.832 104.698 206.397L106.288 206.772C106.023 207.562 105.585 208.17 104.975 208.595C104.365 209.015 103.625 209.225 102.755 209.225ZM111.113 209.225C110.303 209.225 109.601 209.043 109.006 208.677C108.411 208.312 107.951 207.81 107.626 207.17C107.306 206.525 107.146 205.782 107.146 204.942C107.146 204.097 107.311 203.355 107.641 202.715C107.971 202.07 108.433 201.57 109.028 201.215C109.623 200.855 110.318 200.675 111.113 200.675C111.923 200.675 112.626 200.857 113.221 201.222C113.816 201.587 114.276 202.09 114.601 202.73C114.926 203.37 115.088 204.107 115.088 204.942C115.088 205.787 114.923 206.532 114.593 207.177C114.268 207.817 113.808 208.32 113.213 208.685C112.618 209.045 111.918 209.225 111.113 209.225ZM111.113 207.747C111.888 207.747 112.466 207.487 112.846 206.967C113.231 206.442 113.423 205.767 113.423 204.942C113.423 204.097 113.228 203.422 112.838 202.917C112.453 202.407 111.878 202.152 111.113 202.152C110.588 202.152 110.156 202.272 109.816 202.512C109.476 202.747 109.223 203.075 109.058 203.495C108.893 203.91 108.811 204.392 108.811 204.942C108.811 205.792 109.006 206.472 109.396 206.982C109.786 207.492 110.358 207.747 111.113 207.747ZM119.789 209.218C119.229 209.218 118.759 209.128 118.379 208.947C117.999 208.767 117.689 208.532 117.449 208.242C117.214 207.947 117.034 207.627 116.909 207.282C116.784 206.937 116.699 206.6 116.654 206.27C116.609 205.94 116.587 205.65 116.587 205.4V200.9H118.177V204.882C118.177 205.197 118.202 205.522 118.252 205.857C118.307 206.187 118.407 206.495 118.552 206.78C118.702 207.065 118.909 207.295 119.174 207.47C119.444 207.645 119.794 207.732 120.224 207.732C120.504 207.732 120.769 207.687 121.019 207.597C121.269 207.502 121.487 207.352 121.672 207.147C121.862 206.942 122.009 206.672 122.114 206.337C122.224 206.002 122.279 205.595 122.279 205.115L123.254 205.482C123.254 206.217 123.117 206.867 122.842 207.432C122.567 207.992 122.172 208.43 121.657 208.745C121.142 209.06 120.519 209.218 119.789 209.218ZM122.467 209V206.66H122.279V200.9H123.862V209H122.467ZM131.65 209V205.017C131.65 204.702 131.623 204.38 131.568 204.05C131.518 203.715 131.418 203.405 131.268 203.12C131.123 202.835 130.915 202.605 130.645 202.43C130.38 202.255 130.033 202.167 129.603 202.167C129.323 202.167 129.058 202.215 128.808 202.31C128.558 202.4 128.338 202.547 128.148 202.752C127.963 202.957 127.815 203.227 127.705 203.562C127.6 203.897 127.548 204.305 127.548 204.785L126.573 204.417C126.573 203.682 126.71 203.035 126.985 202.475C127.26 201.91 127.655 201.47 128.17 201.155C128.685 200.84 129.308 200.682 130.038 200.682C130.598 200.682 131.068 200.772 131.448 200.952C131.828 201.132 132.135 201.37 132.37 201.665C132.61 201.955 132.793 202.272 132.918 202.617C133.043 202.962 133.128 203.3 133.173 203.63C133.218 203.96 133.24 204.25 133.24 204.5V209H131.65ZM125.958 209V200.9H127.36V203.24H127.548V209H125.958ZM139.829 209C139.319 209.1 138.819 209.143 138.329 209.128C137.839 209.113 137.401 209.017 137.016 208.842C136.631 208.667 136.341 208.392 136.146 208.017C135.971 207.682 135.876 207.342 135.861 206.997C135.851 206.647 135.846 206.252 135.846 205.812V198.65H137.421V205.737C137.421 206.062 137.424 206.345 137.429 206.585C137.439 206.825 137.491 207.027 137.586 207.192C137.766 207.502 138.051 207.68 138.441 207.725C138.836 207.765 139.299 207.747 139.829 207.672V209ZM134.294 202.16V200.9H139.829V202.16H134.294ZM144.634 209.218C143.649 209.218 142.846 209 142.226 208.565C141.606 208.13 141.226 207.517 141.086 206.727L142.691 206.48C142.791 206.9 143.021 207.232 143.381 207.477C143.746 207.717 144.199 207.837 144.739 207.837C145.229 207.837 145.611 207.737 145.886 207.537C146.166 207.337 146.306 207.062 146.306 206.712C146.306 206.507 146.256 206.342 146.156 206.217C146.061 206.087 145.859 205.965 145.549 205.85C145.239 205.735 144.766 205.592 144.131 205.422C143.436 205.242 142.884 205.05 142.474 204.845C142.069 204.635 141.779 204.392 141.604 204.117C141.434 203.837 141.349 203.5 141.349 203.105C141.349 202.615 141.479 202.187 141.739 201.822C141.999 201.457 142.364 201.175 142.834 200.975C143.309 200.775 143.864 200.675 144.499 200.675C145.119 200.675 145.671 200.772 146.156 200.967C146.641 201.162 147.034 201.44 147.334 201.8C147.634 202.155 147.814 202.572 147.874 203.052L146.269 203.345C146.214 202.955 146.031 202.647 145.721 202.422C145.411 202.197 145.009 202.075 144.514 202.055C144.039 202.035 143.654 202.115 143.359 202.295C143.064 202.47 142.916 202.712 142.916 203.022C142.916 203.202 142.971 203.355 143.081 203.48C143.196 203.605 143.416 203.725 143.741 203.84C144.066 203.955 144.546 204.092 145.181 204.252C145.861 204.427 146.401 204.622 146.801 204.837C147.201 205.047 147.486 205.3 147.656 205.595C147.831 205.885 147.919 206.237 147.919 206.652C147.919 207.452 147.626 208.08 147.041 208.535C146.461 208.99 145.659 209.218 144.634 209.218ZM157.216 209C156.706 209.1 156.206 209.143 155.716 209.128C155.226 209.113 154.789 209.017 154.404 208.842C154.019 208.667 153.729 208.392 153.534 208.017C153.359 207.682 153.264 207.342 153.249 206.997C153.239 206.647 153.234 206.252 153.234 205.812V198.65H154.809V205.737C154.809 206.062 154.811 206.345 154.816 206.585C154.826 206.825 154.879 207.027 154.974 207.192C155.154 207.502 155.439 207.68 155.829 207.725C156.224 207.765 156.686 207.747 157.216 207.672V209ZM151.681 202.16V200.9H157.216V202.16H151.681ZM162.075 209.225C161.265 209.225 160.563 209.043 159.968 208.677C159.373 208.312 158.913 207.81 158.588 207.17C158.268 206.525 158.108 205.782 158.108 204.942C158.108 204.097 158.273 203.355 158.603 202.715C158.933 202.07 159.395 201.57 159.99 201.215C160.585 200.855 161.28 200.675 162.075 200.675C162.885 200.675 163.588 200.857 164.183 201.222C164.778 201.587 165.238 202.09 165.563 202.73C165.888 203.37 166.05 204.107 166.05 204.942C166.05 205.787 165.885 206.532 165.555 207.177C165.23 207.817 164.77 208.32 164.175 208.685C163.58 209.045 162.88 209.225 162.075 209.225ZM162.075 207.747C162.85 207.747 163.428 207.487 163.808 206.967C164.193 206.442 164.385 205.767 164.385 204.942C164.385 204.097 164.19 203.422 163.8 202.917C163.415 202.407 162.84 202.152 162.075 202.152C161.55 202.152 161.118 202.272 160.778 202.512C160.438 202.747 160.185 203.075 160.02 203.495C159.855 203.91 159.773 204.392 159.773 204.942C159.773 205.792 159.968 206.472 160.358 206.982C160.748 207.492 161.32 207.747 162.075 207.747ZM170.851 209V197.975H172.419V209H170.851ZM174.821 199.572V198.05H176.389V199.572H174.821ZM174.821 209V200.9H176.389V209H174.821ZM184.326 209V205.017C184.326 204.702 184.298 204.38 184.243 204.05C184.193 203.715 184.093 203.405 183.943 203.12C183.798 202.835 183.591 202.605 183.321 202.43C183.056 202.255 182.708 202.167 182.278 202.167C181.998 202.167 181.733 202.215 181.483 202.31C181.233 202.4 181.013 202.547 180.823 202.752C180.638 202.957 180.491 203.227 180.381 203.562C180.276 203.897 180.223 204.305 180.223 204.785L179.248 204.417C179.248 203.682 179.386 203.035 179.661 202.475C179.936 201.91 180.331 201.47 180.846 201.155C181.361 200.84 181.983 200.682 182.713 200.682C183.273 200.682 183.743 200.772 184.123 200.952C184.503 201.132 184.811 201.37 185.046 201.665C185.286 201.955 185.468 202.272 185.593 202.617C185.718 202.962 185.803 203.3 185.848 203.63C185.893 203.96 185.916 204.25 185.916 204.5V209H184.326ZM178.633 209V200.9H180.036V203.24H180.223V209H178.633ZM187.862 209L187.869 198.2H189.459V204.8L192.639 200.9H194.634L191.274 204.95L194.979 209H192.849L189.459 205.1V209H187.862Z" fill="#1D1D1F"/>
<rect x="255" y="178" width="72" height="20" rx="10" fill="#FFEECC"/>
<path d="M267.876 192V183.6H271.212C271.724 183.6 272.18 183.704 272.58 183.912C272.988 184.112 273.304 184.4 273.528 184.776C273.76 185.144 273.876 185.588 273.876 186.108V186.264C273.876 186.784 273.756 187.232 273.516 187.608C273.284 187.984 272.968 188.272 272.568 188.472C272.168 188.672 271.716 188.772 271.212 188.772H269.172V192H267.876ZM269.172 187.596H271.08C271.536 187.596 271.9 187.476 272.172 187.236C272.444 186.996 272.58 186.668 272.58 186.252V186.132C272.58 185.708 272.444 185.376 272.172 185.136C271.9 184.896 271.536 184.776 271.08 184.776H269.172V187.596ZM277.69 192.168C277.09 192.168 276.566 192.044 276.118 191.796C275.67 191.54 275.318 191.184 275.062 190.728C274.814 190.264 274.69 189.728 274.69 189.12V188.976C274.69 188.36 274.814 187.824 275.062 187.368C275.31 186.904 275.654 186.548 276.094 186.3C276.542 186.044 277.058 185.916 277.642 185.916C278.21 185.916 278.706 186.044 279.13 186.3C279.562 186.548 279.898 186.896 280.138 187.344C280.378 187.792 280.498 188.316 280.498 188.916V189.384H275.95C275.966 189.904 276.138 190.32 276.466 190.632C276.802 190.936 277.218 191.088 277.714 191.088C278.178 191.088 278.526 190.984 278.758 190.776C278.998 190.568 279.182 190.328 279.31 190.056L280.33 190.584C280.218 190.808 280.054 191.044 279.838 191.292C279.63 191.54 279.354 191.748 279.01 191.916C278.666 192.084 278.226 192.168 277.69 192.168ZM275.962 188.436H279.238C279.206 187.988 279.046 187.64 278.758 187.392C278.47 187.136 278.094 187.008 277.63 187.008C277.166 187.008 276.786 187.136 276.49 187.392C276.202 187.64 276.026 187.988 275.962 188.436ZM281.986 192V186.084H283.198V186.972H283.39C283.502 186.732 283.702 186.508 283.99 186.3C284.278 186.092 284.706 185.988 285.274 185.988C285.722 185.988 286.118 186.088 286.462 186.288C286.814 186.488 287.09 186.772 287.29 187.14C287.49 187.5 287.59 187.936 287.59 188.448V192H286.354V188.544C286.354 188.032 286.226 187.656 285.97 187.416C285.714 187.168 285.362 187.044 284.914 187.044C284.402 187.044 283.99 187.212 283.678 187.548C283.374 187.884 283.222 188.372 283.222 189.012V192H281.986ZM291.817 192.168C291.329 192.168 290.877 192.048 290.461 191.808C290.045 191.568 289.709 191.224 289.453 190.776C289.205 190.32 289.081 189.772 289.081 189.132V188.952C289.081 188.32 289.205 187.776 289.453 187.32C289.701 186.864 290.033 186.516 290.449 186.276C290.865 186.036 291.321 185.916 291.817 185.916C292.201 185.916 292.521 185.964 292.777 186.06C293.041 186.156 293.257 186.28 293.425 186.432C293.593 186.576 293.721 186.728 293.809 186.888H294.001V183.6H295.237V192H294.025V191.16H293.833C293.681 191.416 293.449 191.648 293.137 191.856C292.833 192.064 292.393 192.168 291.817 192.168ZM292.165 191.088C292.701 191.088 293.141 190.916 293.485 190.572C293.837 190.228 294.013 189.736 294.013 189.096V188.988C294.013 188.356 293.841 187.868 293.497 187.524C293.153 187.18 292.709 187.008 292.165 187.008C291.637 187.008 291.197 187.18 290.845 187.524C290.501 187.868 290.329 188.356 290.329 188.988V189.096C290.329 189.736 290.501 190.228 290.845 190.572C291.197 190.916 291.637 191.088 292.165 191.088ZM297.057 192V186.084H298.293V192H297.057ZM297.681 185.28C297.441 185.28 297.237 185.204 297.069 185.052C296.909 184.892 296.829 184.688 296.829 184.44C296.829 184.192 296.909 183.992 297.069 183.84C297.237 183.68 297.441 183.6 297.681 183.6C297.929 183.6 298.133 183.68 298.293 183.84C298.453 183.992 298.533 184.192 298.533 184.44C298.533 184.688 298.453 184.892 298.293 185.052C298.133 185.204 297.929 185.28 297.681 185.28ZM300.127 192V186.084H301.339V186.972H301.531C301.643 186.732 301.843 186.508 302.131 186.3C302.419 186.092 302.847 185.988 303.415 185.988C303.863 185.988 304.259 186.088 304.603 186.288C304.955 186.488 305.231 186.772 305.431 187.14C305.631 187.5 305.731 187.936 305.731 188.448V192H304.495V188.544C304.495 188.032 304.367 187.656 304.111 187.416C303.855 187.168 303.503 187.044 303.055 187.044C302.543 187.044 302.131 187.212 301.819 187.548C301.515 187.884 301.363 188.372 301.363 189.012V192H300.127ZM307.222 189.072V188.892C307.222 188.268 307.346 187.736 307.594 187.296C307.85 186.856 308.186 186.516 308.602 186.276C309.018 186.036 309.474 185.916 309.97 185.916C310.546 185.916 310.986 186.024 311.29 186.24C311.602 186.456 311.83 186.688 311.974 186.936H312.166V186.084H313.366V193.212C313.366 193.572 313.258 193.86 313.042 194.076C312.834 194.292 312.546 194.4 312.178 194.4H308.194V193.32H311.794C312.026 193.32 312.142 193.2 312.142 192.96V191.076H311.95C311.862 191.22 311.738 191.368 311.578 191.52C311.418 191.672 311.206 191.796 310.942 191.892C310.686 191.988 310.362 192.036 309.97 192.036C309.474 192.036 309.014 191.92 308.59 191.688C308.174 191.448 307.842 191.108 307.594 190.668C307.346 190.22 307.222 189.688 307.222 189.072ZM310.306 190.956C310.842 190.956 311.282 190.788 311.626 190.452C311.978 190.108 312.154 189.636 312.154 189.036V188.928C312.154 188.312 311.982 187.84 311.638 187.512C311.294 187.176 310.85 187.008 310.306 187.008C309.778 187.008 309.338 187.176 308.986 187.512C308.642 187.84 308.47 188.312 308.47 188.928V189.036C308.47 189.636 308.642 190.108 308.986 190.452C309.338 190.788 309.778 190.956 310.306 190.956Z" fill="#CC8700"/>
<rect x="42" y="241" width="2" height="27" fill="#D9D9D9"/>
<path d="M35.78 308.168C35.18 308.168 34.644 308.064 34.172 307.856C33.7 307.64 33.328 307.316 33.056 306.884C32.784 306.444 32.648 305.888 32.648 305.216V304.988H33.416V305.216C33.416 305.992 33.636 306.568 34.076 306.944C34.524 307.312 35.092 307.496 35.78 307.496C36.476 307.496 37.012 307.336 37.388 307.016C37.764 306.688 37.952 306.272 37.952 305.768C37.952 305.432 37.868 305.164 37.7 304.964C37.54 304.756 37.312 304.592 37.016 304.472C36.728 304.344 36.392 304.232 36.008 304.136L35.24 303.944C34.784 303.824 34.376 303.676 34.016 303.5C33.656 303.316 33.372 303.08 33.164 302.792C32.956 302.496 32.852 302.12 32.852 301.664C32.852 301.208 32.968 300.812 33.2 300.476C33.44 300.14 33.768 299.884 34.184 299.708C34.6 299.524 35.084 299.432 35.636 299.432C36.188 299.432 36.684 299.528 37.124 299.72C37.572 299.912 37.924 300.196 38.18 300.572C38.444 300.94 38.576 301.404 38.576 301.964V302.528H37.808V301.964C37.808 301.524 37.712 301.168 37.52 300.896C37.328 300.624 37.068 300.424 36.74 300.296C36.412 300.168 36.044 300.104 35.636 300.104C35.052 300.104 34.568 300.24 34.184 300.512C33.808 300.776 33.62 301.16 33.62 301.664C33.62 302 33.696 302.268 33.848 302.468C34.008 302.668 34.228 302.828 34.508 302.948C34.796 303.068 35.132 303.176 35.516 303.272L36.284 303.464C36.724 303.568 37.128 303.708 37.496 303.884C37.864 304.052 38.16 304.288 38.384 304.592C38.608 304.888 38.72 305.28 38.72 305.768C38.72 306.256 38.596 306.68 38.348 307.04C38.108 307.4 37.768 307.68 37.328 307.88C36.888 308.072 36.372 308.168 35.78 308.168ZM42.5625 308C42.2505 308 42.0145 307.92 41.8545 307.76C41.7025 307.6 41.6265 307.376 41.6265 307.088V302.816H39.7545V302.168H41.6265V299.984H42.3465V302.168H44.3865V302.816H42.3465V306.992C42.3465 307.232 42.4665 307.352 42.7065 307.352H44.0745V308H42.5625ZM48.4706 308.168C47.8706 308.168 47.3466 308.044 46.8986 307.796C46.4586 307.54 46.1146 307.184 45.8666 306.728C45.6186 306.272 45.4946 305.748 45.4946 305.156V305.012C45.4946 304.412 45.6186 303.888 45.8666 303.44C46.1146 302.984 46.4546 302.632 46.8866 302.384C47.3266 302.128 47.8266 302 48.3866 302C48.9306 302 49.4106 302.116 49.8266 302.348C50.2506 302.572 50.5826 302.9 50.8226 303.332C51.0626 303.756 51.1826 304.264 51.1826 304.856V305.24H46.2146C46.2386 305.968 46.4586 306.532 46.8746 306.932C47.2986 307.324 47.8306 307.52 48.4706 307.52C49.0146 307.52 49.4346 307.396 49.7306 307.148C50.0346 306.9 50.2666 306.596 50.4266 306.236L51.0746 306.524C50.9546 306.788 50.7866 307.048 50.5706 307.304C50.3626 307.552 50.0906 307.76 49.7546 307.928C49.4186 308.088 48.9906 308.168 48.4706 308.168ZM46.2266 304.616H50.4506C50.4186 303.984 50.2146 303.5 49.8386 303.164C49.4626 302.82 48.9786 302.648 48.3866 302.648C47.8026 302.648 47.3186 302.82 46.9346 303.164C46.5506 303.5 46.3146 303.984 46.2266 304.616ZM52.9544 310.4V302.168H53.6504V303.236H53.7944C53.9624 302.916 54.2224 302.632 54.5744 302.384C54.9344 302.128 55.4344 302 56.0744 302C56.5944 302 57.0664 302.124 57.4904 302.372C57.9144 302.612 58.2504 302.956 58.4984 303.404C58.7544 303.852 58.8824 304.388 58.8824 305.012V305.156C58.8824 305.772 58.7584 306.308 58.5104 306.764C58.2624 307.212 57.9264 307.56 57.5024 307.808C57.0784 308.048 56.6024 308.168 56.0744 308.168C55.6504 308.168 55.2864 308.112 54.9824 308C54.6864 307.88 54.4424 307.728 54.2504 307.544C54.0664 307.36 53.9224 307.172 53.8184 306.98H53.6744V310.4H52.9544ZM55.9064 307.52C56.5704 307.52 57.1064 307.308 57.5144 306.884C57.9304 306.46 58.1384 305.876 58.1384 305.132V305.036C58.1384 304.292 57.9304 303.708 57.5144 303.284C57.1064 302.86 56.5704 302.648 55.9064 302.648C55.2504 302.648 54.7144 302.86 54.2984 303.284C53.8824 303.708 53.6744 304.292 53.6744 305.036V305.132C53.6744 305.876 53.8824 306.46 54.2984 306.884C54.7144 307.308 55.2504 307.52 55.9064 307.52ZM66.386 308.168C65.802 308.168 65.278 308.056 64.814 307.832C64.358 307.608 63.998 307.284 63.734 306.86C63.478 306.428 63.35 305.908 63.35 305.3V305.072H64.094V305.312C64.094 305.992 64.306 306.528 64.73 306.92C65.154 307.304 65.706 307.496 66.386 307.496C67.074 307.496 67.61 307.312 67.994 306.944C68.378 306.576 68.57 306.112 68.57 305.552V305.48C68.57 305.064 68.47 304.728 68.27 304.472C68.078 304.216 67.814 304.028 67.478 303.908C67.15 303.78 66.786 303.716 66.386 303.716H65.15V302.708L68.558 300.392V300.272H63.542V299.6H69.302V300.68L65.93 302.972V303.092H66.59C67.11 303.092 67.574 303.184 67.982 303.368C68.39 303.544 68.714 303.808 68.954 304.16C69.194 304.504 69.314 304.936 69.314 305.456V305.576C69.314 306.096 69.194 306.552 68.954 306.944C68.714 307.328 68.374 307.628 67.934 307.844C67.494 308.06 66.978 308.168 66.386 308.168Z" fill="#797979"/>
<path d="M32.3 331L35.81 320.2H38.0675L41.5775 331H39.95L36.7175 321.145H37.1225L33.9275 331H32.3ZM34.1225 328.562V327.092H39.7625V328.562H34.1225ZM45.9755 331.218C45.4155 331.218 44.9455 331.128 44.5655 330.947C44.1855 330.767 43.8755 330.532 43.6355 330.242C43.4005 329.947 43.2205 329.627 43.0955 329.282C42.9705 328.937 42.8855 328.6 42.8405 328.27C42.7955 327.94 42.773 327.65 42.773 327.4V322.9H44.363V326.882C44.363 327.197 44.388 327.522 44.438 327.857C44.493 328.187 44.593 328.495 44.738 328.78C44.888 329.065 45.0955 329.295 45.3605 329.47C45.6305 329.645 45.9805 329.732 46.4105 329.732C46.6905 329.732 46.9555 329.687 47.2055 329.597C47.4555 329.502 47.673 329.352 47.858 329.147C48.048 328.942 48.1955 328.672 48.3005 328.337C48.4105 328.002 48.4655 327.595 48.4655 327.115L49.4405 327.482C49.4405 328.217 49.303 328.867 49.028 329.432C48.753 329.992 48.358 330.43 47.843 330.745C47.328 331.06 46.7055 331.218 45.9755 331.218ZM48.653 331V328.66H48.4655V322.9H50.048V331H48.653ZM56.7866 331C56.2766 331.1 55.7766 331.143 55.2866 331.128C54.7966 331.113 54.3591 331.017 53.9741 330.842C53.5891 330.667 53.2991 330.392 53.1041 330.017C52.9291 329.682 52.8341 329.342 52.8191 328.997C52.8091 328.647 52.8041 328.252 52.8041 327.812V320.65H54.3791V327.737C54.3791 328.062 54.3816 328.345 54.3866 328.585C54.3966 328.825 54.4491 329.027 54.5441 329.192C54.7241 329.502 55.0091 329.68 55.3991 329.725C55.7941 329.765 56.2566 329.747 56.7866 329.672V331ZM51.2516 324.16V322.9H56.7866V324.16H51.2516ZM64.1793 331V327.017C64.1793 326.702 64.1518 326.38 64.0968 326.05C64.0468 325.715 63.9468 325.405 63.7968 325.12C63.6518 324.835 63.4443 324.605 63.1743 324.43C62.9093 324.255 62.5618 324.167 62.1318 324.167C61.8518 324.167 61.5868 324.215 61.3368 324.31C61.0868 324.4 60.8668 324.547 60.6768 324.752C60.4918 324.957 60.3443 325.227 60.2343 325.562C60.1293 325.897 60.0768 326.305 60.0768 326.785L59.1018 326.417C59.1018 325.682 59.2393 325.035 59.5143 324.475C59.7893 323.91 60.1843 323.47 60.6993 323.155C61.2143 322.84 61.8368 322.682 62.5668 322.682C63.1268 322.682 63.5968 322.772 63.9768 322.952C64.3568 323.132 64.6643 323.37 64.8993 323.665C65.1393 323.955 65.3218 324.272 65.4468 324.617C65.5718 324.962 65.6568 325.3 65.7018 325.63C65.7468 325.96 65.7693 326.25 65.7693 326.5V331H64.1793ZM58.4868 331V320.2H59.8893V326.027H60.0768V331H58.4868ZM71.2404 331.225C70.4304 331.225 69.7279 331.043 69.1329 330.677C68.5379 330.312 68.0779 329.81 67.7529 329.17C67.4329 328.525 67.2729 327.782 67.2729 326.942C67.2729 326.097 67.4379 325.355 67.7679 324.715C68.0979 324.07 68.5604 323.57 69.1554 323.215C69.7504 322.855 70.4454 322.675 71.2404 322.675C72.0504 322.675 72.7529 322.857 73.3479 323.222C73.9429 323.587 74.4029 324.09 74.7279 324.73C75.0529 325.37 75.2154 326.107 75.2154 326.942C75.2154 327.787 75.0504 328.532 74.7204 329.177C74.3954 329.817 73.9354 330.32 73.3404 330.685C72.7454 331.045 72.0454 331.225 71.2404 331.225ZM71.2404 329.747C72.0154 329.747 72.5929 329.487 72.9729 328.967C73.3579 328.442 73.5504 327.767 73.5504 326.942C73.5504 326.097 73.3554 325.422 72.9654 324.917C72.5804 324.407 72.0054 324.152 71.2404 324.152C70.7154 324.152 70.2829 324.272 69.9429 324.512C69.6029 324.747 69.3504 325.075 69.1854 325.495C69.0204 325.91 68.9379 326.392 68.9379 326.942C68.9379 327.792 69.1329 328.472 69.5229 328.982C69.9129 329.492 70.4854 329.747 71.2404 329.747ZM76.8635 331V322.9H78.2585V324.865L78.0635 324.61C78.1635 324.35 78.2935 324.112 78.4535 323.897C78.6135 323.677 78.7985 323.497 79.0085 323.357C79.2135 323.207 79.441 323.092 79.691 323.012C79.946 322.927 80.206 322.877 80.471 322.862C80.736 322.842 80.991 322.855 81.236 322.9V324.37C80.971 324.3 80.676 324.28 80.351 324.31C80.031 324.34 79.736 324.442 79.466 324.617C79.211 324.782 79.0085 324.982 78.8585 325.217C78.7135 325.452 78.6085 325.715 78.5435 326.005C78.4785 326.29 78.446 326.592 78.446 326.912V331H76.8635ZM82.8143 321.572V320.05H84.3818V321.572H82.8143ZM82.8143 331V322.9H84.3818V331H82.8143ZM85.884 331V330.753L90.4815 324.302H86.304V322.9H92.9715V323.155L88.3815 329.597H92.7465V331H85.884ZM97.6093 331.225C96.8043 331.225 96.0968 331.05 95.4868 330.7C94.8818 330.345 94.4093 329.852 94.0693 329.222C93.7343 328.587 93.5668 327.852 93.5668 327.017C93.5668 326.132 93.7318 325.365 94.0618 324.715C94.3968 324.065 94.8618 323.562 95.4568 323.207C96.0518 322.852 96.7443 322.675 97.5343 322.675C98.3593 322.675 99.0618 322.867 99.6418 323.253C100.222 323.632 100.654 324.175 100.939 324.88C101.229 325.585 101.344 326.422 101.284 327.392H99.7168V326.822C99.7068 325.882 99.5268 325.187 99.1768 324.737C98.8318 324.287 98.3043 324.062 97.5943 324.062C96.8093 324.062 96.2193 324.31 95.8243 324.805C95.4293 325.3 95.2318 326.015 95.2318 326.95C95.2318 327.84 95.4293 328.53 95.8243 329.02C96.2193 329.505 96.7893 329.747 97.5343 329.747C98.0243 329.747 98.4468 329.637 98.8018 329.417C99.1618 329.192 99.4418 328.872 99.6418 328.457L101.179 328.945C100.864 329.67 100.387 330.232 99.7468 330.632C99.1068 331.027 98.3943 331.225 97.6093 331.225ZM94.7218 327.392V326.17H100.504V327.392H94.7218Z" fill="#1D1D1F"/>
<rect x="255" y="300" width="72" height="20" rx="10" fill="#FFEECC"/>
<path d="M267.876 314V305.6H271.212C271.724 305.6 272.18 305.704 272.58 305.912C272.988 306.112 273.304 306.4 273.528 306.776C273.76 307.144 273.876 307.588 273.876 308.108V308.264C273.876 308.784 273.756 309.232 273.516 309.608C273.284 309.984 272.968 310.272 272.568 310.472C272.168 310.672 271.716 310.772 271.212 310.772H269.172V314H267.876ZM269.172 309.596H271.08C271.536 309.596 271.9 309.476 272.172 309.236C272.444 308.996 272.58 308.668 272.58 308.252V308.132C272.58 307.708 272.444 307.376 272.172 307.136C271.9 306.896 271.536 306.776 271.08 306.776H269.172V309.596ZM277.69 314.168C277.09 314.168 276.566 314.044 276.118 313.796C275.67 313.54 275.318 313.184 275.062 312.728C274.814 312.264 274.69 311.728 274.69 311.12V310.976C274.69 310.36 274.814 309.824 275.062 309.368C275.31 308.904 275.654 308.548 276.094 308.3C276.542 308.044 277.058 307.916 277.642 307.916C278.21 307.916 278.706 308.044 279.13 308.3C279.562 308.548 279.898 308.896 280.138 309.344C280.378 309.792 280.498 310.316 280.498 310.916V311.384H275.95C275.966 311.904 276.138 312.32 276.466 312.632C276.802 312.936 277.218 313.088 277.714 313.088C278.178 313.088 278.526 312.984 278.758 312.776C278.998 312.568 279.182 312.328 279.31 312.056L280.33 312.584C280.218 312.808 280.054 313.044 279.838 313.292C279.63 313.54 279.354 313.748 279.01 313.916C278.666 314.084 278.226 314.168 277.69 314.168ZM275.962 310.436H279.238C279.206 309.988 279.046 309.64 278.758 309.392C278.47 309.136 278.094 309.008 277.63 309.008C277.166 309.008 276.786 309.136 276.49 309.392C276.202 309.64 276.026 309.988 275.962 310.436ZM281.986 314V308.084H283.198V308.972H283.39C283.502 308.732 283.702 308.508 283.99 308.3C284.278 308.092 284.706 307.988 285.274 307.988C285.722 307.988 286.118 308.088 286.462 308.288C286.814 308.488 287.09 308.772 287.29 309.14C287.49 309.5 287.59 309.936 287.59 310.448V314H286.354V310.544C286.354 310.032 286.226 309.656 285.97 309.416C285.714 309.168 285.362 309.044 284.914 309.044C284.402 309.044 283.99 309.212 283.678 309.548C283.374 309.884 283.222 310.372 283.222 311.012V314H281.986ZM291.817 314.168C291.329 314.168 290.877 314.048 290.461 313.808C290.045 313.568 289.709 313.224 289.453 312.776C289.205 312.32 289.081 311.772 289.081 311.132V310.952C289.081 310.32 289.205 309.776 289.453 309.32C289.701 308.864 290.033 308.516 290.449 308.276C290.865 308.036 291.321 307.916 291.817 307.916C292.201 307.916 292.521 307.964 292.777 308.06C293.041 308.156 293.257 308.28 293.425 308.432C293.593 308.576 293.721 308.728 293.809 308.888H294.001V305.6H295.237V314H294.025V313.16H293.833C293.681 313.416 293.449 313.648 293.137 313.856C292.833 314.064 292.393 314.168 291.817 314.168ZM292.165 313.088C292.701 313.088 293.141 312.916 293.485 312.572C293.837 312.228 294.013 311.736 294.013 311.096V310.988C294.013 310.356 293.841 309.868 293.497 309.524C293.153 309.18 292.709 309.008 292.165 309.008C291.637 309.008 291.197 309.18 290.845 309.524C290.501 309.868 290.329 310.356 290.329 310.988V311.096C290.329 311.736 290.501 312.228 290.845 312.572C291.197 312.916 291.637 313.088 292.165 313.088ZM297.057 314V308.084H298.293V314H297.057ZM297.681 307.28C297.441 307.28 297.237 307.204 297.069 307.052C296.909 306.892 296.829 306.688 296.829 306.44C296.829 306.192 296.909 305.992 297.069 305.84C297.237 305.68 297.441 305.6 297.681 305.6C297.929 305.6 298.133 305.68 298.293 305.84C298.453 305.992 298.533 306.192 298.533 306.44C298.533 306.688 298.453 306.892 298.293 307.052C298.133 307.204 297.929 307.28 297.681 307.28ZM300.127 314V308.084H301.339V308.972H301.531C301.643 308.732 301.843 308.508 302.131 308.3C302.419 308.092 302.847 307.988 303.415 307.988C303.863 307.988 304.259 308.088 304.603 308.288C304.955 308.488 305.231 308.772 305.431 309.14C305.631 309.5 305.731 309.936 305.731 310.448V314H304.495V310.544C304.495 310.032 304.367 309.656 304.111 309.416C303.855 309.168 303.503 309.044 303.055 309.044C302.543 309.044 302.131 309.212 301.819 309.548C301.515 309.884 301.363 310.372 301.363 311.012V314H300.127ZM307.222 311.072V310.892C307.222 310.268 307.346 309.736 307.594 309.296C307.85 308.856 308.186 308.516 308.602 308.276C309.018 308.036 309.474 307.916 309.97 307.916C310.546 307.916 310.986 308.024 311.29 308.24C311.602 308.456 311.83 308.688 311.974 308.936H312.166V308.084H313.366V315.212C313.366 315.572 313.258 315.86 313.042 316.076C312.834 316.292 312.546 316.4 312.178 316.4H308.194V315.32H311.794C312.026 315.32 312.142 315.2 312.142 314.96V313.076H311.95C311.862 313.22 311.738 313.368 311.578 313.52C311.418 313.672 311.206 313.796 310.942 313.892C310.686 313.988 310.362 314.036 309.97 314.036C309.474 314.036 309.014 313.92 308.59 313.688C308.174 313.448 307.842 313.108 307.594 312.668C307.346 312.22 307.222 311.688 307.222 311.072ZM310.306 312.956C310.842 312.956 311.282 312.788 311.626 312.452C311.978 312.108 312.154 311.636 312.154 311.036V310.928C312.154 310.312 311.982 309.84 311.638 309.512C311.294 309.176 310.85 309.008 310.306 309.008C309.778 309.008 309.338 309.176 308.986 309.512C308.642 309.84 308.47 310.312 308.47 310.928V311.036C308.47 311.636 308.642 312.108 308.986 312.452C309.338 312.788 309.778 312.956 310.306 312.956Z" fill="#CC8700"/>
<defs>
<filter id="filter0_d_1140_3534" x="4" y="4" width="351" height="103" filterUnits="userSpaceOnUse" color-interpolation-filters="sRGB">
<feFlood flood-opacity="0" result="BackgroundImageFix"/>
<feColorMatrix in="SourceAlpha" type="matrix" values="0 0 0 0 0 0 0 0 0 0 0 0 0 0 0 0 0 0 127 0" result="hardAlpha"/>
<feOffset/>
<feGaussianBlur stdDeviation="2"/>
<feComposite in2="hardAlpha" operator="out"/>
<feColorMatrix type="matrix" values="0 0 0 0 0 0 0 0 0 0 0 0 0 0 0 0 0 0 0.15 0"/>
<feBlend mode="normal" in2="BackgroundImageFix" result="effect1_dropShadow_1140_3534"/>
<feBlend mode="normal" in="SourceGraphic" in2="effect1_dropShadow_1140_3534" result="shape"/>
</filter>
</defs>
</svg>
