<svg width="390" height="86" viewBox="0 0 390 86" fill="none" xmlns="http://www.w3.org/2000/svg">
<path d="M26.44 38L24.6 24H27.22L28.58 36.16H28.94L30.7 24H35.26L37.02 36.16H37.38L38.74 24H41.36L39.52 38H34.96L33.16 25.56H32.8L31 38H26.44ZM43.3688 38V24H45.8888V29.3H46.2488C46.3554 29.0867 46.5221 28.8733 46.7488 28.66C46.9754 28.4467 47.2754 28.2733 47.6488 28.14C48.0354 27.9933 48.5221 27.92 49.1088 27.92C49.8821 27.92 50.5554 28.1 51.1288 28.46C51.7154 28.8067 52.1688 29.2933 52.4888 29.92C52.8088 30.5333 52.9688 31.2533 52.9688 32.08V38H50.4488V32.28C50.4488 31.5333 50.2621 30.9733 49.8888 30.6C49.5288 30.2267 49.0088 30.04 48.3288 30.04C47.5554 30.04 46.9554 30.3 46.5288 30.82C46.1021 31.3267 45.8888 32.04 45.8888 32.96V38H43.3688ZM60.413 38.28C59.4263 38.28 58.5396 38.08 57.753 37.68C56.9663 37.28 56.3463 36.7 55.893 35.94C55.4396 35.18 55.213 34.2667 55.213 33.2V32.88C55.213 31.8133 55.4396 30.9 55.893 30.14C56.3463 29.38 56.9663 28.8 57.753 28.4C58.5396 28 59.4263 27.8 60.413 27.8C61.3996 27.8 62.2863 28 63.073 28.4C63.8596 28.8 64.4796 29.38 64.933 30.14C65.3863 30.9 65.613 31.8133 65.613 32.88V33.2C65.613 34.2667 65.3863 35.18 64.933 35.94C64.4796 36.7 63.8596 37.28 63.073 37.68C62.2863 38.08 61.3996 38.28 60.413 38.28ZM60.413 36.04C61.1863 36.04 61.8263 35.7933 62.333 35.3C62.8396 34.7933 63.093 34.0733 63.093 33.14V32.94C63.093 32.0067 62.8396 31.2933 62.333 30.8C61.8396 30.2933 61.1996 30.04 60.413 30.04C59.6396 30.04 58.9996 30.2933 58.493 30.8C57.9863 31.2933 57.733 32.0067 57.733 32.94V33.14C57.733 34.0733 57.9863 34.7933 58.493 35.3C58.9996 35.7933 59.6396 36.04 60.413 36.04ZM76.0972 38.28C75.3905 38.28 74.7572 38.16 74.1972 37.92C73.6372 37.6667 73.1905 37.3067 72.8572 36.84C72.5372 36.36 72.3772 35.78 72.3772 35.1C72.3772 34.42 72.5372 33.8533 72.8572 33.4C73.1905 32.9333 73.6439 32.5867 74.2172 32.36C74.8039 32.12 75.4705 32 76.2172 32H78.9372V31.44C78.9372 30.9733 78.7905 30.5933 78.4972 30.3C78.2039 29.9933 77.7372 29.84 77.0972 29.84C76.4705 29.84 76.0039 29.9867 75.6972 30.28C75.3905 30.56 75.1905 30.9267 75.0972 31.38L72.7772 30.6C72.9372 30.0933 73.1905 29.6333 73.5372 29.22C73.8972 28.7933 74.3705 28.4533 74.9572 28.2C75.5572 27.9333 76.2839 27.8 77.1372 27.8C78.4439 27.8 79.4772 28.1267 80.2372 28.78C80.9972 29.4333 81.3772 30.38 81.3772 31.62V35.32C81.3772 35.72 81.5639 35.92 81.9372 35.92H82.7372V38H81.0572C80.5639 38 80.1572 37.88 79.8372 37.64C79.5172 37.4 79.3572 37.08 79.3572 36.68V36.66H78.9772C78.9239 36.82 78.8039 37.0333 78.6172 37.3C78.4305 37.5533 78.1372 37.78 77.7372 37.98C77.3372 38.18 76.7905 38.28 76.0972 38.28ZM76.5372 36.24C77.2439 36.24 77.8172 36.0467 78.2572 35.66C78.7105 35.26 78.9372 34.7333 78.9372 34.08V33.88H76.3972C75.9305 33.88 75.5639 33.98 75.2972 34.18C75.0305 34.38 74.8972 34.66 74.8972 35.02C74.8972 35.38 75.0372 35.6733 75.3172 35.9C75.5972 36.1267 76.0039 36.24 76.5372 36.24ZM84.5797 38V28.08H87.0597V29.2H87.4197C87.5664 28.8 87.8064 28.5067 88.1397 28.32C88.4864 28.1333 88.8864 28.04 89.3397 28.04H90.5397V30.28H89.2997C88.6597 30.28 88.133 30.4533 87.7197 30.8C87.3064 31.1333 87.0997 31.6533 87.0997 32.36V38H84.5797ZM96.6778 38.28C95.6911 38.28 94.8178 38.0733 94.0578 37.66C93.3111 37.2333 92.7245 36.64 92.2978 35.88C91.8845 35.1067 91.6778 34.2 91.6778 33.16V32.92C91.6778 31.88 91.8845 30.98 92.2978 30.22C92.7111 29.4467 93.2911 28.8533 94.0378 28.44C94.7845 28.0133 95.6511 27.8 96.6378 27.8C97.6111 27.8 98.4578 28.02 99.1778 28.46C99.8978 28.8867 100.458 29.4867 100.858 30.26C101.258 31.02 101.458 31.9067 101.458 32.92V33.78H94.2378C94.2645 34.46 94.5178 35.0133 94.9978 35.44C95.4778 35.8667 96.0645 36.08 96.7578 36.08C97.4645 36.08 97.9845 35.9267 98.3178 35.62C98.6511 35.3133 98.9045 34.9733 99.0778 34.6L101.138 35.68C100.951 36.0267 100.678 36.4067 100.318 36.82C99.9711 37.22 99.5045 37.5667 98.9178 37.86C98.3311 38.14 97.5845 38.28 96.6778 38.28ZM94.2578 31.9H98.8978C98.8445 31.3267 98.6111 30.8667 98.1978 30.52C97.7978 30.1733 97.2711 30 96.6178 30C95.9378 30 95.3978 30.1733 94.9978 30.52C94.5978 30.8667 94.3511 31.3267 94.2578 31.9ZM109.859 42V39.8H115.259C115.632 39.8 115.819 39.6 115.819 39.2V36.7H115.459C115.352 36.9267 115.186 37.1533 114.959 37.38C114.732 37.6067 114.426 37.7933 114.039 37.94C113.652 38.0867 113.159 38.16 112.559 38.16C111.786 38.16 111.106 37.9867 110.519 37.64C109.946 37.28 109.499 36.7867 109.179 36.16C108.859 35.5333 108.699 34.8133 108.699 34V28.08H111.219V33.8C111.219 34.5467 111.399 35.1067 111.759 35.48C112.132 35.8533 112.659 36.04 113.339 36.04C114.112 36.04 114.712 35.7867 115.139 35.28C115.566 34.76 115.779 34.04 115.779 33.12V28.08H118.299V39.76C118.299 40.44 118.099 40.98 117.699 41.38C117.299 41.7933 116.766 42 116.099 42H109.859ZM125.823 38.28C124.836 38.28 123.95 38.08 123.163 37.68C122.376 37.28 121.756 36.7 121.303 35.94C120.85 35.18 120.623 34.2667 120.623 33.2V32.88C120.623 31.8133 120.85 30.9 121.303 30.14C121.756 29.38 122.376 28.8 123.163 28.4C123.95 28 124.836 27.8 125.823 27.8C126.81 27.8 127.696 28 128.483 28.4C129.27 28.8 129.89 29.38 130.343 30.14C130.796 30.9 131.023 31.8133 131.023 32.88V33.2C131.023 34.2667 130.796 35.18 130.343 35.94C129.89 36.7 129.27 37.28 128.483 37.68C127.696 38.08 126.81 38.28 125.823 38.28ZM125.823 36.04C126.596 36.04 127.236 35.7933 127.743 35.3C128.25 34.7933 128.503 34.0733 128.503 33.14V32.94C128.503 32.0067 128.25 31.2933 127.743 30.8C127.25 30.2933 126.61 30.04 125.823 30.04C125.05 30.04 124.41 30.2933 123.903 30.8C123.396 31.2933 123.143 32.0067 123.143 32.94V33.14C123.143 34.0733 123.396 34.7933 123.903 35.3C124.41 35.7933 125.05 36.04 125.823 36.04ZM137.129 38.16C136.356 38.16 135.676 37.9867 135.089 37.64C134.516 37.28 134.069 36.7867 133.749 36.16C133.429 35.5333 133.269 34.8133 133.269 34V28.08H135.789V33.8C135.789 34.5467 135.969 35.1067 136.329 35.48C136.703 35.8533 137.229 36.04 137.909 36.04C138.683 36.04 139.283 35.7867 139.709 35.28C140.136 34.76 140.349 34.04 140.349 33.12V28.08H142.869V38H140.389V36.7H140.029C139.869 37.0333 139.569 37.36 139.129 37.68C138.689 38 138.023 38.16 137.129 38.16ZM154.872 38.28C153.578 38.28 152.518 38 151.692 37.44C150.865 36.88 150.365 36.08 150.192 35.04L152.512 34.44C152.605 34.9067 152.758 35.2733 152.972 35.54C153.198 35.8067 153.472 36 153.792 36.12C154.125 36.2267 154.485 36.28 154.872 36.28C155.458 36.28 155.892 36.18 156.172 35.98C156.452 35.7667 156.592 35.5067 156.592 35.2C156.592 34.8933 156.458 34.66 156.192 34.5C155.925 34.3267 155.498 34.1867 154.912 34.08L154.352 33.98C153.658 33.8467 153.025 33.6667 152.452 33.44C151.878 33.2 151.418 32.8733 151.072 32.46C150.725 32.0467 150.552 31.5133 150.552 30.86C150.552 29.8733 150.912 29.12 151.632 28.6C152.352 28.0667 153.298 27.8 154.472 27.8C155.578 27.8 156.498 28.0467 157.232 28.54C157.965 29.0333 158.445 29.68 158.672 30.48L156.332 31.2C156.225 30.6933 156.005 30.3333 155.672 30.12C155.352 29.9067 154.952 29.8 154.472 29.8C153.992 29.8 153.625 29.8867 153.372 30.06C153.118 30.22 152.992 30.4467 152.992 30.74C152.992 31.06 153.125 31.3 153.392 31.46C153.658 31.6067 154.018 31.72 154.472 31.8L155.032 31.9C155.778 32.0333 156.452 32.2133 157.052 32.44C157.665 32.6533 158.145 32.9667 158.492 33.38C158.852 33.78 159.032 34.3267 159.032 35.02C159.032 36.06 158.652 36.8667 157.892 37.44C157.145 38 156.138 38.28 154.872 38.28ZM165.76 38.28C164.773 38.28 163.9 38.0733 163.14 37.66C162.393 37.2333 161.807 36.64 161.38 35.88C160.967 35.1067 160.76 34.2 160.76 33.16V32.92C160.76 31.88 160.967 30.98 161.38 30.22C161.793 29.4467 162.373 28.8533 163.12 28.44C163.867 28.0133 164.733 27.8 165.72 27.8C166.693 27.8 167.54 28.02 168.26 28.46C168.98 28.8867 169.54 29.4867 169.94 30.26C170.34 31.02 170.54 31.9067 170.54 32.92V33.78H163.32C163.347 34.46 163.6 35.0133 164.08 35.44C164.56 35.8667 165.147 36.08 165.84 36.08C166.547 36.08 167.067 35.9267 167.4 35.62C167.733 35.3133 167.987 34.9733 168.16 34.6L170.22 35.68C170.033 36.0267 169.76 36.4067 169.4 36.82C169.053 37.22 168.587 37.5667 168 37.86C167.413 38.14 166.667 38.28 165.76 38.28ZM163.34 31.9H167.98C167.927 31.3267 167.693 30.8667 167.28 30.52C166.88 30.1733 166.353 30 165.7 30C165.02 30 164.48 30.1733 164.08 30.52C163.68 30.8667 163.433 31.3267 163.34 31.9ZM172.783 38V28.08H175.263V29.38H175.623C175.783 29.0333 176.083 28.7067 176.523 28.4C176.963 28.08 177.629 27.92 178.523 27.92C179.296 27.92 179.969 28.1 180.543 28.46C181.129 28.8067 181.583 29.2933 181.903 29.92C182.223 30.5333 182.383 31.2533 182.383 32.08V38H179.863V32.28C179.863 31.5333 179.676 30.9733 179.303 30.6C178.943 30.2267 178.423 30.04 177.743 30.04C176.969 30.04 176.369 30.3 175.943 30.82C175.516 31.3267 175.303 32.04 175.303 32.96V38H172.783ZM189.107 38.28C188.32 38.28 187.58 38.0867 186.887 37.7C186.207 37.3 185.66 36.72 185.247 35.96C184.834 35.2 184.627 34.28 184.627 33.2V32.88C184.627 31.8 184.834 30.88 185.247 30.12C185.66 29.36 186.207 28.7867 186.887 28.4C187.567 28 188.307 27.8 189.107 27.8C189.707 27.8 190.207 27.8733 190.607 28.02C191.02 28.1533 191.354 28.3267 191.607 28.54C191.86 28.7533 192.054 28.98 192.187 29.22H192.547V24H195.067V38H192.587V36.8H192.227C192 37.1733 191.647 37.5133 191.167 37.82C190.7 38.1267 190.014 38.28 189.107 38.28ZM189.867 36.08C190.64 36.08 191.287 35.8333 191.807 35.34C192.327 34.8333 192.587 34.1 192.587 33.14V32.94C192.587 31.98 192.327 31.2533 191.807 30.76C191.3 30.2533 190.654 30 189.867 30C189.094 30 188.447 30.2533 187.927 30.76C187.407 31.2533 187.147 31.98 187.147 32.94V33.14C187.147 34.1 187.407 34.8333 187.927 35.34C188.447 35.8333 189.094 36.08 189.867 36.08ZM197.861 38V28.08H200.381V38H197.861ZM199.121 26.92C198.668 26.92 198.281 26.7733 197.961 26.48C197.654 26.1867 197.501 25.8 197.501 25.32C197.501 24.84 197.654 24.4533 197.961 24.16C198.281 23.8667 198.668 23.72 199.121 23.72C199.588 23.72 199.974 23.8667 200.281 24.16C200.588 24.4533 200.741 24.84 200.741 25.32C200.741 25.8 200.588 26.1867 200.281 26.48C199.974 26.7733 199.588 26.92 199.121 26.92ZM203.173 38V28.08H205.653V29.38H206.013C206.173 29.0333 206.473 28.7067 206.913 28.4C207.353 28.08 208.02 27.92 208.913 27.92C209.687 27.92 210.36 28.1 210.933 28.46C211.52 28.8067 211.973 29.2933 212.293 29.92C212.613 30.5333 212.773 31.2533 212.773 32.08V38H210.253V32.28C210.253 31.5333 210.067 30.9733 209.693 30.6C209.333 30.2267 208.813 30.04 208.133 30.04C207.36 30.04 206.76 30.3 206.333 30.82C205.907 31.3267 205.693 32.04 205.693 32.96V38H203.173ZM215.018 33.08V32.76C215.018 31.72 215.224 30.8333 215.638 30.1C216.051 29.3533 216.598 28.7867 217.278 28.4C217.971 28 218.724 27.8 219.538 27.8C220.444 27.8 221.131 27.96 221.598 28.28C222.064 28.6 222.404 28.9333 222.618 29.28H222.978V28.08H225.458V39.76C225.458 40.44 225.258 40.98 224.858 41.38C224.458 41.7933 223.924 42 223.258 42H216.618V39.8H222.378C222.751 39.8 222.938 39.6 222.938 39.2V36.62H222.578C222.444 36.8333 222.258 37.0533 222.018 37.28C221.778 37.4933 221.458 37.6733 221.058 37.82C220.658 37.9667 220.151 38.04 219.538 38.04C218.724 38.04 217.971 37.8467 217.278 37.46C216.598 37.06 216.051 36.4933 215.638 35.76C215.224 35.0133 215.018 34.12 215.018 33.08ZM220.258 35.84C221.031 35.84 221.678 35.5933 222.198 35.1C222.718 34.6067 222.978 33.9133 222.978 33.02V32.82C222.978 31.9133 222.718 31.22 222.198 30.74C221.691 30.2467 221.044 30 220.258 30C219.484 30 218.838 30.2467 218.318 30.74C217.798 31.22 217.538 31.9133 217.538 32.82V33.02C217.538 33.9133 217.798 34.6067 218.318 35.1C218.838 35.5933 219.484 35.84 220.258 35.84ZM237.13 38C236.476 38 235.943 37.8 235.53 37.4C235.13 36.9867 234.93 36.44 234.93 35.76V30.16H232.45V28.08H234.93V25H237.45V28.08H240.17V30.16H237.45V35.32C237.45 35.72 237.636 35.92 238.01 35.92H239.93V38H237.13ZM246.819 38.28C245.833 38.28 244.946 38.08 244.159 37.68C243.373 37.28 242.753 36.7 242.299 35.94C241.846 35.18 241.619 34.2667 241.619 33.2V32.88C241.619 31.8133 241.846 30.9 242.299 30.14C242.753 29.38 243.373 28.8 244.159 28.4C244.946 28 245.833 27.8 246.819 27.8C247.806 27.8 248.693 28 249.479 28.4C250.266 28.8 250.886 29.38 251.339 30.14C251.793 30.9 252.019 31.8133 252.019 32.88V33.2C252.019 34.2667 251.793 35.18 251.339 35.94C250.886 36.7 250.266 37.28 249.479 37.68C248.693 38.08 247.806 38.28 246.819 38.28ZM246.819 36.04C247.593 36.04 248.233 35.7933 248.739 35.3C249.246 34.7933 249.499 34.0733 249.499 33.14V32.94C249.499 32.0067 249.246 31.2933 248.739 30.8C248.246 30.2933 247.606 30.04 246.819 30.04C246.046 30.04 245.406 30.2933 244.899 30.8C244.393 31.2933 244.139 32.0067 244.139 32.94V33.14C244.139 34.0733 244.393 34.7933 244.899 35.3C245.406 35.7933 246.046 36.04 246.819 36.04ZM257.125 33.4V32.92C257.125 32.24 257.259 31.68 257.525 31.24C257.805 30.8 258.252 30.4333 258.865 30.14L259.205 29.98C259.805 29.7 260.265 29.4 260.585 29.08C260.905 28.76 261.065 28.3333 261.065 27.8C261.065 27.4133 260.965 27.0867 260.765 26.82C260.579 26.54 260.312 26.3267 259.965 26.18C259.619 26.0333 259.212 25.96 258.745 25.96C258.265 25.96 257.832 26.04 257.445 26.2C257.072 26.36 256.772 26.6 256.545 26.92C256.332 27.24 256.225 27.64 256.225 28.12V28.56H253.625V28.16C253.625 27.24 253.852 26.4467 254.305 25.78C254.759 25.1133 255.372 24.6067 256.145 24.26C256.919 23.9 257.785 23.72 258.745 23.72C259.692 23.72 260.532 23.8933 261.265 24.24C262.012 24.5867 262.599 25.0667 263.025 25.68C263.452 26.2933 263.665 27 263.665 27.8C263.665 28.6 263.519 29.26 263.225 29.78C262.932 30.2867 262.559 30.7 262.105 31.02C261.665 31.3267 261.212 31.5933 260.745 31.82L260.405 31.98C260.165 32.0867 259.999 32.22 259.905 32.38C259.812 32.5267 259.765 32.7467 259.765 33.04V33.4H257.125ZM258.525 38.28C257.992 38.28 257.539 38.1067 257.165 37.76C256.805 37.4 256.625 36.94 256.625 36.38C256.625 35.82 256.805 35.3667 257.165 35.02C257.539 34.66 257.992 34.48 258.525 34.48C259.072 34.48 259.525 34.66 259.885 35.02C260.245 35.3667 260.425 35.82 260.425 36.38C260.425 36.94 260.245 37.4 259.885 37.76C259.525 38.1067 259.072 38.28 258.525 38.28Z" fill="#1D1D1F"/>
<g clip-path="url(#clip0_704_1922)">
<path opacity="0.4" d="M29.1519 64C29.0776 64 29.0033 63.9829 28.9363 63.9482L26.7756 62.8298C26.1625 62.5121 25.6829 62.1555 25.3084 61.7401C24.4887 60.8317 24.0327 59.6656 24.0254 58.4559L24 54.4746C23.997 54.0151 24.2936 53.6026 24.737 53.4473L28.7043 52.0641C28.9399 51.9799 29.2027 51.9788 29.4425 52.06L33.4249 53.3961C33.8707 53.545 34.1721 53.9545 34.1745 54.4134L34.1999 58.3977C34.2078 59.6056 33.7674 60.7764 32.9604 61.6948C32.5901 62.1161 32.1147 62.4779 31.5077 62.8015L29.3664 63.9453C29.2999 63.9812 29.2262 63.9994 29.1519 64Z" fill="#00B347"/>
<path d="M28.6917 59.3922C28.5757 59.3927 28.4598 59.351 28.3704 59.2651L27.2203 58.159C27.0427 57.9872 27.0409 57.7083 27.2166 57.5353C27.3924 57.3617 27.6793 57.36 27.8575 57.5312L28.6851 58.3266L30.7056 56.3345C30.882 56.1609 31.1689 56.1592 31.3465 56.3304C31.5247 56.5022 31.5265 56.7816 31.3507 56.954L29.0113 59.261C28.9231 59.348 28.8077 59.3916 28.6917 59.3922Z" fill="#00B347"/>
</g>
<path d="M43.7179 61.64C43.2112 61.64 42.7579 61.55 42.3579 61.37C41.9579 61.19 41.6412 60.92 41.4079 60.56C41.1812 60.1933 41.0679 59.7367 41.0679 59.19V58.98H41.8979V59.19C41.8979 59.77 42.0679 60.2033 42.4079 60.49C42.7479 60.77 43.1846 60.91 43.7179 60.91C44.2646 60.91 44.6812 60.7867 44.9679 60.54C45.2546 60.2933 45.3979 59.9833 45.3979 59.61C45.3979 59.35 45.3312 59.1433 45.1979 58.99C45.0712 58.8367 44.8912 58.7133 44.6579 58.62C44.4246 58.52 44.1512 58.4333 43.8379 58.36L43.3179 58.23C42.9112 58.1233 42.5512 57.9933 42.2379 57.84C41.9246 57.6867 41.6779 57.4867 41.4979 57.24C41.3246 56.9867 41.2379 56.6633 41.2379 56.27C41.2379 55.8767 41.3346 55.5367 41.5279 55.25C41.7279 54.9633 42.0046 54.7433 42.3579 54.59C42.7179 54.4367 43.1312 54.36 43.5979 54.36C44.0712 54.36 44.4946 54.4433 44.8679 54.61C45.2479 54.77 45.5446 55.01 45.7579 55.33C45.9779 55.6433 46.0879 56.04 46.0879 56.52V56.94H45.2579V56.52C45.2579 56.18 45.1846 55.9067 45.0379 55.7C44.8979 55.4933 44.7012 55.34 44.4479 55.24C44.2012 55.14 43.9179 55.09 43.5979 55.09C43.1379 55.09 42.7679 55.1933 42.4879 55.4C42.2079 55.6 42.0679 55.8867 42.0679 56.26C42.0679 56.5067 42.1279 56.7067 42.2479 56.86C42.3679 57.0133 42.5379 57.14 42.7579 57.24C42.9779 57.3333 43.2412 57.4167 43.5479 57.49L44.0679 57.62C44.4746 57.7067 44.8379 57.8267 45.1579 57.98C45.4846 58.1267 45.7446 58.33 45.9379 58.59C46.1312 58.8433 46.2279 59.1767 46.2279 59.59C46.2279 60.0033 46.1246 60.3633 45.9179 60.67C45.7112 60.9767 45.4179 61.2167 45.0379 61.39C44.6646 61.5567 44.2246 61.64 43.7179 61.64ZM49.7907 61.64C49.2974 61.64 48.864 61.5367 48.4907 61.33C48.1174 61.1167 47.8274 60.82 47.6207 60.44C47.414 60.06 47.3107 59.62 47.3107 59.12V59C47.3107 58.4933 47.414 58.05 47.6207 57.67C47.8274 57.29 48.114 56.9967 48.4807 56.79C48.8474 56.5767 49.2674 56.47 49.7407 56.47C50.2007 56.47 50.6074 56.57 50.9607 56.77C51.314 56.9633 51.5907 57.2433 51.7907 57.61C51.9907 57.9767 52.0907 58.4067 52.0907 58.9V59.26H48.1007C48.1207 59.7867 48.2907 60.2 48.6107 60.5C48.9307 60.7933 49.3307 60.94 49.8107 60.94C50.2307 60.94 50.554 60.8433 50.7807 60.65C51.0074 60.4567 51.1807 60.2267 51.3007 59.96L51.9807 60.29C51.8807 60.4967 51.7407 60.7033 51.5607 60.91C51.3874 61.1167 51.1574 61.29 50.8707 61.43C50.5907 61.57 50.2307 61.64 49.7907 61.64ZM48.1107 58.61H51.2907C51.264 58.1567 51.1074 57.8033 50.8207 57.55C50.5407 57.2967 50.1807 57.17 49.7407 57.17C49.294 57.17 48.9274 57.2967 48.6407 57.55C48.354 57.8033 48.1774 58.1567 48.1107 58.61ZM55.7187 61.64C55.2453 61.64 54.8187 61.54 54.4387 61.34C54.0653 61.1333 53.7687 60.84 53.5487 60.46C53.3353 60.08 53.2287 59.63 53.2287 59.11V59C53.2287 58.4733 53.3353 58.0233 53.5487 57.65C53.7687 57.27 54.0653 56.98 54.4387 56.78C54.8187 56.5733 55.2453 56.47 55.7187 56.47C56.1853 56.47 56.582 56.5567 56.9087 56.73C57.242 56.9033 57.502 57.1333 57.6887 57.42C57.882 57.7067 58.0053 58.0133 58.0587 58.34L57.2887 58.5C57.2553 58.26 57.1753 58.04 57.0487 57.84C56.9287 57.64 56.7587 57.48 56.5387 57.36C56.3187 57.24 56.0487 57.18 55.7287 57.18C55.402 57.18 55.1087 57.2533 54.8487 57.4C54.5953 57.5467 54.392 57.7567 54.2387 58.03C54.092 58.3033 54.0187 58.63 54.0187 59.01V59.1C54.0187 59.48 54.092 59.8067 54.2387 60.08C54.392 60.3533 54.5953 60.5633 54.8487 60.71C55.1087 60.8567 55.402 60.93 55.7287 60.93C56.2153 60.93 56.5853 60.8033 56.8387 60.55C57.0987 60.2967 57.2587 59.9833 57.3187 59.61L58.0987 59.78C58.0253 60.1 57.892 60.4033 57.6987 60.69C57.5053 60.9767 57.242 61.2067 56.9087 61.38C56.582 61.5533 56.1853 61.64 55.7187 61.64ZM61.3152 61.59C60.9619 61.59 60.6352 61.5133 60.3352 61.36C60.0419 61.2067 59.8086 60.98 59.6352 60.68C59.4686 60.3733 59.3852 60.0033 59.3852 59.57V56.61H60.1752V59.51C60.1752 59.9967 60.2952 60.35 60.5352 60.57C60.7819 60.79 61.1119 60.9 61.5252 60.9C61.9919 60.9 62.3752 60.7467 62.6752 60.44C62.9752 60.1333 63.1252 59.6767 63.1252 59.07V56.61H63.9152V61.5H63.1452V60.67H63.0052C62.8986 60.9033 62.7152 61.1167 62.4552 61.31C62.1952 61.4967 61.8152 61.59 61.3152 61.59ZM65.5683 61.5V56.61H66.3383V57.21H66.4783C66.5649 56.9967 66.6983 56.84 66.8783 56.74C67.0583 56.64 67.2949 56.59 67.5883 56.59H68.1683V57.31H67.5383C67.1849 57.31 66.8983 57.41 66.6783 57.61C66.4649 57.8033 66.3583 58.1067 66.3583 58.52V61.5H65.5683ZM71.402 61.64C70.9087 61.64 70.4754 61.5367 70.102 61.33C69.7287 61.1167 69.4387 60.82 69.232 60.44C69.0254 60.06 68.922 59.62 68.922 59.12V59C68.922 58.4933 69.0254 58.05 69.232 57.67C69.4387 57.29 69.7254 56.9967 70.092 56.79C70.4587 56.5767 70.8787 56.47 71.352 56.47C71.812 56.47 72.2187 56.57 72.572 56.77C72.9254 56.9633 73.202 57.2433 73.402 57.61C73.602 57.9767 73.702 58.4067 73.702 58.9V59.26H69.712C69.732 59.7867 69.902 60.2 70.222 60.5C70.542 60.7933 70.942 60.94 71.422 60.94C71.842 60.94 72.1654 60.8433 72.392 60.65C72.6187 60.4567 72.792 60.2267 72.912 59.96L73.592 60.29C73.492 60.4967 73.352 60.7033 73.172 60.91C72.9987 61.1167 72.7687 61.29 72.482 61.43C72.202 61.57 71.842 61.64 71.402 61.64ZM69.722 58.61H72.902C72.8754 58.1567 72.7187 57.8033 72.432 57.55C72.152 57.2967 71.792 57.17 71.352 57.17C70.9054 57.17 70.5387 57.2967 70.252 57.55C69.9654 57.8033 69.7887 58.1567 69.722 58.61ZM77.15 61.64C76.73 61.64 76.3433 61.54 75.99 61.34C75.6367 61.14 75.3567 60.85 75.15 60.47C74.9433 60.09 74.84 59.64 74.84 59.12V58.99C74.84 58.47 74.9433 58.0233 75.15 57.65C75.3567 57.27 75.6333 56.98 75.98 56.78C76.3333 56.5733 76.7233 56.47 77.15 56.47C77.49 56.47 77.7767 56.5167 78.01 56.61C78.25 56.6967 78.4433 56.81 78.59 56.95C78.7367 57.0833 78.85 57.2267 78.93 57.38H79.07V54.5H79.86V61.5H79.09V60.69H78.95C78.8167 60.9367 78.61 61.1567 78.33 61.35C78.05 61.5433 77.6567 61.64 77.15 61.64ZM77.36 60.94C77.8667 60.94 78.2767 60.78 78.59 60.46C78.91 60.1333 79.07 59.68 79.07 59.1V59.01C79.07 58.43 78.91 57.98 78.59 57.66C78.2767 57.3333 77.8667 57.17 77.36 57.17C76.86 57.17 76.4467 57.3333 76.12 57.66C75.8 57.98 75.64 58.43 75.64 59.01V59.1C75.64 59.68 75.8 60.1333 76.12 60.46C76.4467 60.78 76.86 60.94 77.36 60.94ZM86.7939 61.64C86.2872 61.64 85.8906 61.5433 85.6039 61.35C85.3239 61.1567 85.1206 60.9367 84.9939 60.69H84.8539V61.5H84.0839V54.5H84.8739V57.38H85.0139C85.0939 57.2267 85.2072 57.0833 85.3539 56.95C85.5006 56.81 85.6906 56.6967 85.9239 56.61C86.1639 56.5167 86.4539 56.47 86.7939 56.47C87.2206 56.47 87.6072 56.5733 87.9539 56.78C88.3072 56.98 88.5872 57.27 88.7939 57.65C89.0006 58.0233 89.1039 58.47 89.1039 58.99V59.12C89.1039 59.64 88.9972 60.09 88.7839 60.47C88.5772 60.85 88.2972 61.14 87.9439 61.34C87.5972 61.54 87.2139 61.64 86.7939 61.64ZM86.5839 60.94C87.0906 60.94 87.5006 60.78 87.8139 60.46C88.1339 60.1333 88.2939 59.68 88.2939 59.1V59.01C88.2939 58.43 88.1339 57.98 87.8139 57.66C87.5006 57.3333 87.0906 57.17 86.5839 57.17C86.0839 57.17 85.6706 57.3333 85.3439 57.66C85.0239 57.98 84.8639 58.43 84.8639 59.01V59.1C84.8639 59.68 85.0239 60.1333 85.3439 60.46C85.6706 60.78 86.0839 60.94 86.5839 60.94ZM91.1095 63.5V62.8H93.9095C94.1028 62.8 94.1995 62.7 94.1995 62.5V60.72H94.0595C93.9928 60.86 93.8895 61 93.7495 61.14C93.6161 61.2733 93.4395 61.3833 93.2195 61.47C92.9995 61.55 92.7228 61.59 92.3895 61.59C92.0361 61.59 91.7095 61.5133 91.4095 61.36C91.1161 61.2067 90.8828 60.98 90.7095 60.68C90.5428 60.38 90.4595 60.0133 90.4595 59.58V56.61H91.2495V59.52C91.2495 60 91.3695 60.35 91.6095 60.57C91.8561 60.79 92.1861 60.9 92.5995 60.9C93.0661 60.9 93.4495 60.7467 93.7495 60.44C94.0495 60.1333 94.1995 59.6767 94.1995 59.07V56.61H94.9895V62.64C94.9895 62.9067 94.9128 63.1167 94.7595 63.27C94.6128 63.4233 94.3961 63.5 94.1095 63.5H91.1095Z" fill="#999999"/>
<path d="M103.309 62V53.6H108.589V55.04H104.893V57.068H108.301V58.508H104.893V62H103.309ZM109.767 62V56.048H111.279V62H109.767ZM110.523 55.352C110.251 55.352 110.019 55.264 109.827 55.088C109.643 54.912 109.551 54.68 109.551 54.392C109.551 54.104 109.643 53.872 109.827 53.696C110.019 53.52 110.251 53.432 110.523 53.432C110.803 53.432 111.035 53.52 111.219 53.696C111.403 53.872 111.495 54.104 111.495 54.392C111.495 54.68 111.403 54.912 111.219 55.088C111.035 55.264 110.803 55.352 110.523 55.352ZM112.954 62V56.048H114.442V56.828H114.658C114.754 56.62 114.934 56.424 115.198 56.24C115.462 56.048 115.862 55.952 116.398 55.952C116.862 55.952 117.266 56.06 117.61 56.276C117.962 56.484 118.234 56.776 118.426 57.152C118.618 57.52 118.714 57.952 118.714 58.448V62H117.202V58.568C117.202 58.12 117.09 57.784 116.866 57.56C116.65 57.336 116.338 57.224 115.93 57.224C115.466 57.224 115.106 57.38 114.85 57.692C114.594 57.996 114.466 58.424 114.466 58.976V62H112.954ZM122.465 62C122.073 62 121.753 61.88 121.505 61.64C121.265 61.392 121.145 61.064 121.145 60.656V57.296H119.657V56.048H121.145V54.2H122.657V56.048H124.289V57.296H122.657V60.392C122.657 60.632 122.769 60.752 122.993 60.752H124.145V62H122.465ZM128.158 62.168C127.566 62.168 127.042 62.044 126.586 61.796C126.138 61.54 125.786 61.184 125.53 60.728C125.282 60.264 125.158 59.72 125.158 59.096V58.952C125.158 58.328 125.282 57.788 125.53 57.332C125.778 56.868 126.126 56.512 126.574 56.264C127.022 56.008 127.542 55.88 128.134 55.88C128.718 55.88 129.226 56.012 129.658 56.276C130.09 56.532 130.426 56.892 130.666 57.356C130.906 57.812 131.026 58.344 131.026 58.952V59.468H126.694C126.71 59.876 126.862 60.208 127.15 60.464C127.438 60.72 127.79 60.848 128.206 60.848C128.63 60.848 128.942 60.756 129.142 60.572C129.342 60.388 129.494 60.184 129.598 59.96L130.834 60.608C130.722 60.816 130.558 61.044 130.342 61.292C130.134 61.532 129.854 61.74 129.502 61.916C129.15 62.084 128.702 62.168 128.158 62.168ZM126.706 58.34H129.49C129.458 57.996 129.318 57.72 129.07 57.512C128.83 57.304 128.514 57.2 128.122 57.2C127.714 57.2 127.39 57.304 127.15 57.512C126.91 57.72 126.762 57.996 126.706 58.34ZM132.372 62V56.048H133.86V56.72H134.076C134.164 56.48 134.308 56.304 134.508 56.192C134.716 56.08 134.956 56.024 135.228 56.024H135.948V57.368H135.204C134.82 57.368 134.504 57.472 134.256 57.68C134.008 57.88 133.884 58.192 133.884 58.616V62H132.372ZM137.13 62V56.048H138.618V56.828H138.834C138.93 56.62 139.11 56.424 139.374 56.24C139.638 56.048 140.038 55.952 140.574 55.952C141.038 55.952 141.442 56.06 141.786 56.276C142.138 56.484 142.41 56.776 142.602 57.152C142.794 57.52 142.89 57.952 142.89 58.448V62H141.378V58.568C141.378 58.12 141.266 57.784 141.042 57.56C140.826 57.336 140.514 57.224 140.106 57.224C139.642 57.224 139.282 57.38 139.026 57.692C138.77 57.996 138.642 58.424 138.642 58.976V62H137.13ZM147.237 62.168C146.645 62.168 146.121 62.044 145.665 61.796C145.217 61.54 144.865 61.184 144.609 60.728C144.361 60.264 144.237 59.72 144.237 59.096V58.952C144.237 58.328 144.361 57.788 144.609 57.332C144.857 56.868 145.205 56.512 145.653 56.264C146.101 56.008 146.621 55.88 147.213 55.88C147.797 55.88 148.305 56.012 148.737 56.276C149.169 56.532 149.505 56.892 149.745 57.356C149.985 57.812 150.105 58.344 150.105 58.952V59.468H145.773C145.789 59.876 145.941 60.208 146.229 60.464C146.517 60.72 146.869 60.848 147.285 60.848C147.709 60.848 148.021 60.756 148.221 60.572C148.421 60.388 148.573 60.184 148.677 59.96L149.913 60.608C149.801 60.816 149.637 61.044 149.421 61.292C149.213 61.532 148.933 61.74 148.581 61.916C148.229 62.084 147.781 62.168 147.237 62.168ZM145.785 58.34H148.569C148.537 57.996 148.397 57.72 148.149 57.512C147.909 57.304 147.593 57.2 147.201 57.2C146.793 57.2 146.469 57.304 146.229 57.512C145.989 57.72 145.841 57.996 145.785 58.34ZM153.531 62C153.139 62 152.819 61.88 152.571 61.64C152.331 61.392 152.211 61.064 152.211 60.656V57.296H150.723V56.048H152.211V54.2H153.723V56.048H155.355V57.296H153.723V60.392C153.723 60.632 153.835 60.752 154.059 60.752H155.211V62H153.531Z" fill="#999999"/>
<defs>
<clipPath id="clip0_704_1922">
<rect width="10.2" height="12" fill="white" transform="translate(24 52)"/>
</clipPath>
</defs>
</svg>
