<svg width="390" height="72" viewBox="0 0 390 72" fill="none" xmlns="http://www.w3.org/2000/svg">
<path d="M41.7183 36H44.2503" stroke="#00B76A" stroke-width="1.5" stroke-linecap="square"/>
<path d="M28.2495 36H38.2085" stroke="#00B76A" stroke-width="1.5" stroke-linecap="square"/>
<path d="M33.9095 41.66C33.9095 38.75 31.3475 36 28.2495 36" stroke="#00B76A" stroke-width="1.5" stroke-linecap="square"/>
<path d="M33.9095 30.3398C33.9095 33.2498 31.3475 35.9999 28.2495 35.9999" stroke="#00B76A" stroke-width="1.5" stroke-linecap="square"/>
<path d="M64.648 41.5V32.22H61.384V30.3H70.024V32.22H66.76V41.5H64.648ZM70.4325 41.5V33.564H72.4165V34.46H72.7045C72.8218 34.14 73.0138 33.9053 73.2805 33.756C73.5578 33.6067 73.8778 33.532 74.2405 33.532H75.2005V35.324H74.2085C73.6965 35.324 73.2752 35.4627 72.9445 35.74C72.6138 36.0067 72.4485 36.4227 72.4485 36.988V41.5H70.4325ZM79.0528 41.724C78.4874 41.724 77.9808 41.628 77.5328 41.436C77.0848 41.2333 76.7274 40.9453 76.4608 40.572C76.2048 40.188 76.0768 39.724 76.0768 39.18C76.0768 38.636 76.2048 38.1827 76.4608 37.82C76.7274 37.4467 77.0901 37.1693 77.5488 36.988C78.0181 36.796 78.5514 36.7 79.1488 36.7H81.3248V36.252C81.3248 35.8787 81.2074 35.5747 80.9728 35.34C80.7381 35.0947 80.3648 34.972 79.8528 34.972C79.3514 34.972 78.9781 35.0893 78.7328 35.324C78.4874 35.548 78.3274 35.8413 78.2528 36.204L76.3968 35.58C76.5248 35.1747 76.7274 34.8067 77.0048 34.476C77.2928 34.1347 77.6714 33.8627 78.1408 33.66C78.6208 33.4467 79.2021 33.34 79.8848 33.34C80.9301 33.34 81.7568 33.6013 82.3648 34.124C82.9728 34.6467 83.2768 35.404 83.2768 36.396V39.356C83.2768 39.676 83.4261 39.836 83.7248 39.836H84.3648V41.5H83.0208C82.6261 41.5 82.3008 41.404 82.0448 41.212C81.7888 41.02 81.6608 40.764 81.6608 40.444V40.428H81.3568C81.3141 40.556 81.2181 40.7267 81.0688 40.94C80.9194 41.1427 80.6848 41.324 80.3648 41.484C80.0448 41.644 79.6074 41.724 79.0528 41.724ZM79.4048 40.092C79.9701 40.092 80.4288 39.9373 80.7808 39.628C81.1434 39.308 81.3248 38.8867 81.3248 38.364V38.204H79.2928C78.9194 38.204 78.6261 38.284 78.4128 38.444C78.1994 38.604 78.0928 38.828 78.0928 39.116C78.0928 39.404 78.2048 39.6387 78.4288 39.82C78.6528 40.0013 78.9781 40.092 79.4048 40.092ZM85.8388 41.5V33.564H87.8228V34.604H88.1108C88.2388 34.3267 88.4788 34.0653 88.8307 33.82C89.1828 33.564 89.7161 33.436 90.4308 33.436C91.0494 33.436 91.5881 33.58 92.0468 33.868C92.5161 34.1453 92.8788 34.5347 93.1348 35.036C93.3908 35.5267 93.5188 36.1027 93.5188 36.764V41.5H91.5028V36.924C91.5028 36.3267 91.3534 35.8787 91.0548 35.58C90.7668 35.2813 90.3508 35.132 89.8068 35.132C89.1881 35.132 88.7081 35.34 88.3668 35.756C88.0254 36.1613 87.8548 36.732 87.8548 37.468V41.5H85.8388ZM98.9941 41.724C97.9595 41.724 97.1115 41.5 96.4501 41.052C95.7888 40.604 95.3888 39.964 95.2501 39.132L97.1061 38.652C97.1808 39.0253 97.3035 39.3187 97.4741 39.532C97.6555 39.7453 97.8741 39.9 98.1301 39.996C98.3968 40.0813 98.6848 40.124 98.9941 40.124C99.4635 40.124 99.8101 40.044 100.034 39.884C100.258 39.7133 100.37 39.5053 100.37 39.26C100.37 39.0147 100.263 38.828 100.05 38.7C99.8368 38.5613 99.4955 38.4493 99.0261 38.364L98.5781 38.284C98.0235 38.1773 97.5168 38.0333 97.0581 37.852C96.5995 37.66 96.2315 37.3987 95.9541 37.068C95.6768 36.7373 95.5381 36.3107 95.5381 35.788C95.5381 34.9987 95.8261 34.396 96.4021 33.98C96.9781 33.5533 97.7355 33.34 98.6741 33.34C99.5595 33.34 100.295 33.5373 100.882 33.932C101.469 34.3267 101.853 34.844 102.034 35.484L100.162 36.06C100.077 35.6547 99.9008 35.3667 99.6341 35.196C99.3781 35.0253 99.0581 34.94 98.6741 34.94C98.2901 34.94 97.9968 35.0093 97.7941 35.148C97.5915 35.276 97.4901 35.4573 97.4901 35.692C97.4901 35.948 97.5968 36.14 97.8101 36.268C98.0235 36.3853 98.3115 36.476 98.6741 36.54L99.1221 36.62C99.7195 36.7267 100.258 36.8707 100.738 37.052C101.229 37.2227 101.613 37.4733 101.89 37.804C102.178 38.124 102.322 38.5613 102.322 39.116C102.322 39.948 102.018 40.5933 101.41 41.052C100.813 41.5 100.007 41.724 98.9941 41.724ZM105.245 41.5V35.228H103.229V33.564H105.245V32.092C105.245 31.548 105.405 31.116 105.725 30.796C106.055 30.4653 106.482 30.3 107.005 30.3H109.085V31.964H107.709C107.41 31.964 107.261 32.124 107.261 32.444V33.564H109.341V35.228H107.261V41.5H105.245ZM114.252 41.724C113.462 41.724 112.764 41.5587 112.156 41.228C111.558 40.8867 111.089 40.412 110.748 39.804C110.417 39.1853 110.252 38.46 110.252 37.628V37.436C110.252 36.604 110.417 35.884 110.748 35.276C111.078 34.6573 111.542 34.1827 112.14 33.852C112.737 33.5107 113.43 33.34 114.22 33.34C114.998 33.34 115.676 33.516 116.252 33.868C116.828 34.2093 117.276 34.6893 117.596 35.308C117.916 35.916 118.076 36.6253 118.076 37.436V38.124H112.3C112.321 38.668 112.524 39.1107 112.908 39.452C113.292 39.7933 113.761 39.964 114.316 39.964C114.881 39.964 115.297 39.8413 115.564 39.596C115.83 39.3507 116.033 39.0787 116.172 38.78L117.82 39.644C117.67 39.9213 117.452 40.2253 117.164 40.556C116.886 40.876 116.513 41.1533 116.044 41.388C115.574 41.612 114.977 41.724 114.252 41.724ZM112.316 36.62H116.028C115.985 36.1613 115.798 35.7933 115.468 35.516C115.148 35.2387 114.726 35.1 114.204 35.1C113.66 35.1 113.228 35.2387 112.908 35.516C112.588 35.7933 112.39 36.1613 112.316 36.62ZM119.87 41.5V33.564H121.854V34.46H122.142C122.259 34.14 122.451 33.9053 122.718 33.756C122.995 33.6067 123.315 33.532 123.678 33.532H124.638V35.324H123.646C123.134 35.324 122.713 35.4627 122.382 35.74C122.051 36.0067 121.886 36.4227 121.886 36.988V41.5H119.87Z" fill="#1D1D1F"/>
</svg>
