<svg width="390" height="548" viewBox="0 0 390 548" fill="none" xmlns="http://www.w3.org/2000/svg">
<circle cx="195" cy="230" r="70" fill="#00B407" fill-opacity="0.1"/>
<circle cx="195.001" cy="230.002" r="55.5484" fill="#00B407" fill-opacity="0.3"/>
<circle cx="194.998" cy="229.373" r="35" fill="#00B407"/>
<path d="M183.749 231.543L190.266 238.06L206.015 223.125" stroke="white" stroke-width="3.0521"/>
<path d="M88.1834 354V341.57H83.3934V339.6H95.0634V341.57H90.2734V354H88.1834ZM95.6676 354V343.2H97.5276V345.82L97.2676 345.48C97.4009 345.133 97.5742 344.817 97.7876 344.53C98.0009 344.237 98.2476 343.997 98.5276 343.81C98.8009 343.61 99.1042 343.457 99.4376 343.35C99.7776 343.237 100.124 343.17 100.478 343.15C100.831 343.123 101.171 343.14 101.498 343.2V345.16C101.144 345.067 100.751 345.04 100.318 345.08C99.8909 345.12 99.4976 345.257 99.1376 345.49C98.7976 345.71 98.5276 345.977 98.3276 346.29C98.1342 346.603 97.9942 346.953 97.9076 347.34C97.8209 347.72 97.7776 348.123 97.7776 348.55V354H95.6676ZM106.139 354.3C105.339 354.3 104.669 354.153 104.129 353.86C103.589 353.56 103.179 353.167 102.899 352.68C102.626 352.187 102.489 351.647 102.489 351.06C102.489 350.513 102.586 350.033 102.779 349.62C102.973 349.207 103.259 348.857 103.639 348.57C104.019 348.277 104.486 348.04 105.039 347.86C105.519 347.72 106.063 347.597 106.669 347.49C107.276 347.383 107.913 347.283 108.579 347.19C109.253 347.097 109.919 347.003 110.579 346.91L109.819 347.33C109.833 346.483 109.653 345.857 109.279 345.45C108.913 345.037 108.279 344.83 107.379 344.83C106.813 344.83 106.293 344.963 105.819 345.23C105.346 345.49 105.016 345.923 104.829 346.53L102.879 345.93C103.146 345.003 103.653 344.267 104.399 343.72C105.153 343.173 106.153 342.9 107.399 342.9C108.366 342.9 109.206 343.067 109.919 343.4C110.639 343.727 111.166 344.247 111.499 344.96C111.673 345.313 111.779 345.687 111.819 346.08C111.859 346.473 111.879 346.897 111.879 347.35V354H110.029V351.53L110.389 351.85C109.943 352.677 109.373 353.293 108.679 353.7C107.993 354.1 107.146 354.3 106.139 354.3ZM106.509 352.59C107.103 352.59 107.613 352.487 108.039 352.28C108.466 352.067 108.809 351.797 109.069 351.47C109.329 351.143 109.499 350.803 109.579 350.45C109.693 350.13 109.756 349.77 109.769 349.37C109.789 348.97 109.799 348.65 109.799 348.41L110.479 348.66C109.819 348.76 109.219 348.85 108.679 348.93C108.139 349.01 107.649 349.09 107.209 349.17C106.776 349.243 106.389 349.333 106.049 349.44C105.763 349.54 105.506 349.66 105.279 349.8C105.059 349.94 104.883 350.11 104.749 350.31C104.623 350.51 104.559 350.753 104.559 351.04C104.559 351.32 104.629 351.58 104.769 351.82C104.909 352.053 105.123 352.24 105.409 352.38C105.696 352.52 106.063 352.59 106.509 352.59ZM122.056 354V348.69C122.056 348.27 122.02 347.84 121.946 347.4C121.88 346.953 121.746 346.54 121.546 346.16C121.353 345.78 121.076 345.473 120.716 345.24C120.363 345.007 119.9 344.89 119.326 344.89C118.953 344.89 118.6 344.953 118.266 345.08C117.933 345.2 117.64 345.397 117.386 345.67C117.14 345.943 116.943 346.303 116.796 346.75C116.656 347.197 116.586 347.74 116.586 348.38L115.286 347.89C115.286 346.91 115.47 346.047 115.836 345.3C116.203 344.547 116.73 343.96 117.416 343.54C118.103 343.12 118.933 342.91 119.906 342.91C120.653 342.91 121.28 343.03 121.786 343.27C122.293 343.51 122.703 343.827 123.016 344.22C123.336 344.607 123.58 345.03 123.746 345.49C123.913 345.95 124.026 346.4 124.086 346.84C124.146 347.28 124.176 347.667 124.176 348V354H122.056ZM114.466 354V343.2H116.336V346.32H116.586V354H114.466ZM130.911 354.29C129.598 354.29 128.528 354 127.701 353.42C126.874 352.84 126.368 352.023 126.181 350.97L128.321 350.64C128.454 351.2 128.761 351.643 129.241 351.97C129.728 352.29 130.331 352.45 131.051 352.45C131.704 352.45 132.214 352.317 132.581 352.05C132.954 351.783 133.141 351.417 133.141 350.95C133.141 350.677 133.074 350.457 132.941 350.29C132.814 350.117 132.544 349.953 132.131 349.8C131.718 349.647 131.088 349.457 130.241 349.23C129.314 348.99 128.578 348.733 128.031 348.46C127.491 348.18 127.104 347.857 126.871 347.49C126.644 347.117 126.531 346.667 126.531 346.14C126.531 345.487 126.704 344.917 127.051 344.43C127.398 343.943 127.884 343.567 128.511 343.3C129.144 343.033 129.884 342.9 130.731 342.9C131.558 342.9 132.294 343.03 132.941 343.29C133.588 343.55 134.111 343.92 134.511 344.4C134.911 344.873 135.151 345.43 135.231 346.07L133.091 346.46C133.018 345.94 132.774 345.53 132.361 345.23C131.948 344.93 131.411 344.767 130.751 344.74C130.118 344.713 129.604 344.82 129.211 345.06C128.818 345.293 128.621 345.617 128.621 346.03C128.621 346.27 128.694 346.473 128.841 346.64C128.994 346.807 129.288 346.967 129.721 347.12C130.154 347.273 130.794 347.457 131.641 347.67C132.548 347.903 133.268 348.163 133.801 348.45C134.334 348.73 134.714 349.067 134.941 349.46C135.174 349.847 135.291 350.317 135.291 350.87C135.291 351.937 134.901 352.773 134.121 353.38C133.348 353.987 132.278 354.29 130.911 354.29ZM140.554 354.3C139.754 354.3 139.084 354.153 138.544 353.86C138.004 353.56 137.594 353.167 137.314 352.68C137.04 352.187 136.904 351.647 136.904 351.06C136.904 350.513 137 350.033 137.194 349.62C137.387 349.207 137.674 348.857 138.054 348.57C138.434 348.277 138.9 348.04 139.454 347.86C139.934 347.72 140.477 347.597 141.084 347.49C141.69 347.383 142.327 347.283 142.994 347.19C143.667 347.097 144.334 347.003 144.994 346.91L144.234 347.33C144.247 346.483 144.067 345.857 143.694 345.45C143.327 345.037 142.694 344.83 141.794 344.83C141.227 344.83 140.707 344.963 140.234 345.23C139.76 345.49 139.43 345.923 139.244 346.53L137.294 345.93C137.56 345.003 138.067 344.267 138.814 343.72C139.567 343.173 140.567 342.9 141.814 342.9C142.78 342.9 143.62 343.067 144.334 343.4C145.054 343.727 145.58 344.247 145.914 344.96C146.087 345.313 146.194 345.687 146.234 346.08C146.274 346.473 146.294 346.897 146.294 347.35V354H144.444V351.53L144.804 351.85C144.357 352.677 143.787 353.293 143.094 353.7C142.407 354.1 141.56 354.3 140.554 354.3ZM140.924 352.59C141.517 352.59 142.027 352.487 142.454 352.28C142.88 352.067 143.224 351.797 143.484 351.47C143.744 351.143 143.914 350.803 143.994 350.45C144.107 350.13 144.17 349.77 144.184 349.37C144.204 348.97 144.214 348.65 144.214 348.41L144.894 348.66C144.234 348.76 143.634 348.85 143.094 348.93C142.554 349.01 142.064 349.09 141.624 349.17C141.19 349.243 140.804 349.333 140.464 349.44C140.177 349.54 139.92 349.66 139.694 349.8C139.474 349.94 139.297 350.11 139.164 350.31C139.037 350.51 138.974 350.753 138.974 351.04C138.974 351.32 139.044 351.58 139.184 351.82C139.324 352.053 139.537 352.24 139.824 352.38C140.11 352.52 140.477 352.59 140.924 352.59ZM153.51 354.3C152.404 354.3 151.464 354.053 150.69 353.56C149.917 353.067 149.324 352.39 148.91 351.53C148.504 350.67 148.297 349.693 148.29 348.6C148.297 347.487 148.51 346.503 148.93 345.65C149.35 344.79 149.95 344.117 150.73 343.63C151.51 343.143 152.447 342.9 153.54 342.9C154.72 342.9 155.727 343.193 156.56 343.78C157.4 344.367 157.954 345.17 158.22 346.19L156.14 346.79C155.934 346.183 155.594 345.713 155.12 345.38C154.654 345.04 154.117 344.87 153.51 344.87C152.824 344.87 152.26 345.033 151.82 345.36C151.38 345.68 151.054 346.12 150.84 346.68C150.627 347.24 150.517 347.88 150.51 348.6C150.517 349.713 150.77 350.613 151.27 351.3C151.777 351.987 152.524 352.33 153.51 352.33C154.184 352.33 154.727 352.177 155.14 351.87C155.56 351.557 155.88 351.11 156.1 350.53L158.22 351.03C157.867 352.083 157.284 352.893 156.47 353.46C155.657 354.02 154.67 354.3 153.51 354.3ZM166.437 354C165.757 354.133 165.091 354.19 164.437 354.17C163.784 354.15 163.201 354.023 162.687 353.79C162.174 353.557 161.787 353.19 161.527 352.69C161.294 352.243 161.167 351.79 161.147 351.33C161.134 350.863 161.127 350.337 161.127 349.75V340.2H163.227V349.65C163.227 350.083 163.231 350.46 163.237 350.78C163.251 351.1 163.321 351.37 163.447 351.59C163.687 352.003 164.067 352.24 164.587 352.3C165.114 352.353 165.731 352.33 166.437 352.23V354ZM159.057 344.88V343.2H166.437V344.88H159.057ZM168.914 341.43V339.4H171.004V341.43H168.914ZM168.914 354V343.2H171.004V354H168.914ZM178.697 354.3C177.617 354.3 176.681 354.057 175.887 353.57C175.094 353.083 174.481 352.413 174.047 351.56C173.621 350.7 173.407 349.71 173.407 348.59C173.407 347.463 173.627 346.473 174.067 345.62C174.507 344.76 175.124 344.093 175.917 343.62C176.711 343.14 177.637 342.9 178.697 342.9C179.777 342.9 180.714 343.143 181.507 343.63C182.301 344.117 182.914 344.787 183.347 345.64C183.781 346.493 183.997 347.477 183.997 348.59C183.997 349.717 183.777 350.71 183.337 351.57C182.904 352.423 182.291 353.093 181.497 353.58C180.704 354.06 179.771 354.3 178.697 354.3ZM178.697 352.33C179.731 352.33 180.501 351.983 181.007 351.29C181.521 350.59 181.777 349.69 181.777 348.59C181.777 347.463 181.517 346.563 180.997 345.89C180.484 345.21 179.717 344.87 178.697 344.87C177.997 344.87 177.421 345.03 176.967 345.35C176.514 345.663 176.177 346.1 175.957 346.66C175.737 347.213 175.627 347.857 175.627 348.59C175.627 349.723 175.887 350.63 176.407 351.31C176.927 351.99 177.691 352.33 178.697 352.33ZM193.775 354V348.69C193.775 348.27 193.738 347.84 193.665 347.4C193.598 346.953 193.465 346.54 193.265 346.16C193.072 345.78 192.795 345.473 192.435 345.24C192.082 345.007 191.618 344.89 191.045 344.89C190.672 344.89 190.318 344.953 189.985 345.08C189.652 345.2 189.358 345.397 189.105 345.67C188.858 345.943 188.662 346.303 188.515 346.75C188.375 347.197 188.305 347.74 188.305 348.38L187.005 347.89C187.005 346.91 187.188 346.047 187.555 345.3C187.922 344.547 188.448 343.96 189.135 343.54C189.822 343.12 190.652 342.91 191.625 342.91C192.372 342.91 192.998 343.03 193.505 343.27C194.012 343.51 194.422 343.827 194.735 344.22C195.055 344.607 195.298 345.03 195.465 345.49C195.632 345.95 195.745 346.4 195.805 346.84C195.865 347.28 195.895 347.667 195.895 348V354H193.775ZM186.185 354V343.2H188.055V346.32H188.305V354H186.185ZM207.724 354.3C206.69 354.3 205.757 354.123 204.924 353.77C204.097 353.41 203.414 352.9 202.874 352.24C202.34 351.573 201.994 350.783 201.834 349.87L204.014 349.54C204.234 350.42 204.694 351.107 205.394 351.6C206.094 352.087 206.91 352.33 207.844 352.33C208.424 352.33 208.957 352.24 209.444 352.06C209.93 351.873 210.32 351.61 210.614 351.27C210.914 350.923 211.064 350.51 211.064 350.03C211.064 349.77 211.017 349.54 210.924 349.34C210.837 349.14 210.714 348.967 210.554 348.82C210.4 348.667 210.21 348.537 209.984 348.43C209.764 348.317 209.52 348.22 209.254 348.14L205.564 347.05C205.204 346.943 204.837 346.807 204.464 346.64C204.09 346.467 203.747 346.243 203.434 345.97C203.127 345.69 202.877 345.347 202.684 344.94C202.49 344.527 202.394 344.027 202.394 343.44C202.394 342.553 202.62 341.803 203.074 341.19C203.534 340.57 204.154 340.103 204.934 339.79C205.714 339.47 206.587 339.31 207.554 339.31C208.527 339.323 209.397 339.497 210.164 339.83C210.937 340.163 211.577 340.643 212.084 341.27C212.597 341.89 212.95 342.643 213.144 343.53L210.904 343.91C210.804 343.37 210.59 342.907 210.264 342.52C209.937 342.127 209.537 341.827 209.064 341.62C208.59 341.407 208.077 341.297 207.524 341.29C206.99 341.277 206.5 341.357 206.054 341.53C205.614 341.703 205.26 341.947 204.994 342.26C204.734 342.573 204.604 342.933 204.604 343.34C204.604 343.74 204.72 344.063 204.954 344.31C205.187 344.557 205.474 344.753 205.814 344.9C206.16 345.04 206.504 345.157 206.844 345.25L209.504 346C209.837 346.093 210.214 346.22 210.634 346.38C211.06 346.533 211.47 346.75 211.864 347.03C212.264 347.31 212.594 347.683 212.854 348.15C213.114 348.61 213.244 349.19 213.244 349.89C213.244 350.617 213.097 351.257 212.804 351.81C212.51 352.357 212.107 352.817 211.594 353.19C211.087 353.557 210.5 353.833 209.834 354.02C209.167 354.207 208.464 354.3 207.724 354.3ZM219.445 354.29C218.698 354.29 218.071 354.17 217.565 353.93C217.058 353.69 216.645 353.377 216.325 352.99C216.011 352.597 215.771 352.17 215.605 351.71C215.438 351.25 215.325 350.8 215.265 350.36C215.205 349.92 215.175 349.533 215.175 349.2V343.2H217.295V348.51C217.295 348.93 217.328 349.363 217.395 349.81C217.468 350.25 217.601 350.66 217.795 351.04C217.995 351.42 218.271 351.727 218.625 351.96C218.985 352.193 219.451 352.31 220.025 352.31C220.398 352.31 220.751 352.25 221.085 352.13C221.418 352.003 221.708 351.803 221.955 351.53C222.208 351.257 222.405 350.897 222.545 350.45C222.691 350.003 222.765 349.46 222.765 348.82L224.065 349.31C224.065 350.29 223.881 351.157 223.515 351.91C223.148 352.657 222.621 353.24 221.935 353.66C221.248 354.08 220.418 354.29 219.445 354.29ZM223.015 354V350.88H222.765V343.2H224.875V354H223.015ZM232.299 354.3C231.193 354.3 230.253 354.053 229.479 353.56C228.706 353.067 228.113 352.39 227.699 351.53C227.293 350.67 227.086 349.693 227.079 348.6C227.086 347.487 227.299 346.503 227.719 345.65C228.139 344.79 228.739 344.117 229.519 343.63C230.299 343.143 231.236 342.9 232.329 342.9C233.509 342.9 234.516 343.193 235.349 343.78C236.189 344.367 236.743 345.17 237.009 346.19L234.929 346.79C234.723 346.183 234.383 345.713 233.909 345.38C233.443 345.04 232.906 344.87 232.299 344.87C231.613 344.87 231.049 345.033 230.609 345.36C230.169 345.68 229.843 346.12 229.629 346.68C229.416 347.24 229.306 347.88 229.299 348.6C229.306 349.713 229.559 350.613 230.059 351.3C230.566 351.987 231.313 352.33 232.299 352.33C232.973 352.33 233.516 352.177 233.929 351.87C234.349 351.557 234.669 351.11 234.889 350.53L237.009 351.03C236.656 352.083 236.073 352.893 235.259 353.46C234.446 354.02 233.459 354.3 232.299 354.3ZM243.374 354.3C242.267 354.3 241.327 354.053 240.554 353.56C239.78 353.067 239.187 352.39 238.774 351.53C238.367 350.67 238.16 349.693 238.154 348.6C238.16 347.487 238.374 346.503 238.794 345.65C239.214 344.79 239.814 344.117 240.594 343.63C241.374 343.143 242.31 342.9 243.404 342.9C244.584 342.9 245.59 343.193 246.424 343.78C247.264 344.367 247.817 345.17 248.084 346.19L246.004 346.79C245.797 346.183 245.457 345.713 244.984 345.38C244.517 345.04 243.98 344.87 243.374 344.87C242.687 344.87 242.124 345.033 241.684 345.36C241.244 345.68 240.917 346.12 240.704 346.68C240.49 347.24 240.38 347.88 240.374 348.6C240.38 349.713 240.634 350.613 241.134 351.3C241.64 351.987 242.387 352.33 243.374 352.33C244.047 352.33 244.59 352.177 245.004 351.87C245.424 351.557 245.744 351.11 245.964 350.53L248.084 351.03C247.73 352.083 247.147 352.893 246.334 353.46C245.52 354.02 244.534 354.3 243.374 354.3ZM254.618 354.3C253.544 354.3 252.601 354.067 251.788 353.6C250.981 353.127 250.351 352.47 249.898 351.63C249.451 350.783 249.228 349.803 249.228 348.69C249.228 347.51 249.448 346.487 249.888 345.62C250.334 344.753 250.954 344.083 251.748 343.61C252.541 343.137 253.464 342.9 254.518 342.9C255.618 342.9 256.554 343.157 257.328 343.67C258.101 344.177 258.678 344.9 259.058 345.84C259.444 346.78 259.598 347.897 259.518 349.19H257.428V348.43C257.414 347.177 257.174 346.25 256.708 345.65C256.248 345.05 255.544 344.75 254.598 344.75C253.551 344.75 252.764 345.08 252.238 345.74C251.711 346.4 251.448 347.353 251.448 348.6C251.448 349.787 251.711 350.707 252.238 351.36C252.764 352.007 253.524 352.33 254.518 352.33C255.171 352.33 255.734 352.183 256.208 351.89C256.688 351.59 257.061 351.163 257.328 350.61L259.378 351.26C258.958 352.227 258.321 352.977 257.468 353.51C256.614 354.037 255.664 354.3 254.618 354.3ZM250.768 349.19V347.56H258.478V349.19H250.768ZM265.891 354.29C264.578 354.29 263.508 354 262.681 353.42C261.855 352.84 261.348 352.023 261.161 350.97L263.301 350.64C263.435 351.2 263.741 351.643 264.221 351.97C264.708 352.29 265.311 352.45 266.031 352.45C266.685 352.45 267.195 352.317 267.561 352.05C267.935 351.783 268.121 351.417 268.121 350.95C268.121 350.677 268.055 350.457 267.921 350.29C267.795 350.117 267.525 349.953 267.111 349.8C266.698 349.647 266.068 349.457 265.221 349.23C264.295 348.99 263.558 348.733 263.011 348.46C262.471 348.18 262.085 347.857 261.851 347.49C261.625 347.117 261.511 346.667 261.511 346.14C261.511 345.487 261.685 344.917 262.031 344.43C262.378 343.943 262.865 343.567 263.491 343.3C264.125 343.033 264.865 342.9 265.711 342.9C266.538 342.9 267.275 343.03 267.921 343.29C268.568 343.55 269.091 343.92 269.491 344.4C269.891 344.873 270.131 345.43 270.211 346.07L268.071 346.46C267.998 345.94 267.755 345.53 267.341 345.23C266.928 344.93 266.391 344.767 265.731 344.74C265.098 344.713 264.585 344.82 264.191 345.06C263.798 345.293 263.601 345.617 263.601 346.03C263.601 346.27 263.675 346.473 263.821 346.64C263.975 346.807 264.268 346.967 264.701 347.12C265.135 347.273 265.775 347.457 266.621 347.67C267.528 347.903 268.248 348.163 268.781 348.45C269.315 348.73 269.695 349.067 269.921 349.46C270.155 349.847 270.271 350.317 270.271 350.87C270.271 351.937 269.881 352.773 269.101 353.38C268.328 353.987 267.258 354.29 265.891 354.29ZM276.614 354.29C275.301 354.29 274.231 354 273.404 353.42C272.577 352.84 272.071 352.023 271.884 350.97L274.024 350.64C274.157 351.2 274.464 351.643 274.944 351.97C275.431 352.29 276.034 352.45 276.754 352.45C277.407 352.45 277.917 352.317 278.284 352.05C278.657 351.783 278.844 351.417 278.844 350.95C278.844 350.677 278.777 350.457 278.644 350.29C278.517 350.117 278.247 349.953 277.834 349.8C277.421 349.647 276.791 349.457 275.944 349.23C275.017 348.99 274.281 348.733 273.734 348.46C273.194 348.18 272.807 347.857 272.574 347.49C272.347 347.117 272.234 346.667 272.234 346.14C272.234 345.487 272.407 344.917 272.754 344.43C273.101 343.943 273.587 343.567 274.214 343.3C274.847 343.033 275.587 342.9 276.434 342.9C277.261 342.9 277.997 343.03 278.644 343.29C279.291 343.55 279.814 343.92 280.214 344.4C280.614 344.873 280.854 345.43 280.934 346.07L278.794 346.46C278.721 345.94 278.477 345.53 278.064 345.23C277.651 344.93 277.114 344.767 276.454 344.74C275.821 344.713 275.307 344.82 274.914 345.06C274.521 345.293 274.324 345.617 274.324 346.03C274.324 346.27 274.397 346.473 274.544 346.64C274.697 346.807 274.991 346.967 275.424 347.12C275.857 347.273 276.497 347.457 277.344 347.67C278.251 347.903 278.971 348.163 279.504 348.45C280.037 348.73 280.417 349.067 280.644 349.46C280.877 349.847 280.994 350.317 280.994 350.87C280.994 351.937 280.604 352.773 279.824 353.38C279.051 353.987 277.981 354.29 276.614 354.29ZM284.197 354V342.82C284.197 342.547 284.207 342.257 284.227 341.95C284.247 341.637 284.303 341.33 284.397 341.03C284.497 340.723 284.66 340.443 284.887 340.19C285.16 339.89 285.46 339.677 285.787 339.55C286.113 339.423 286.437 339.35 286.757 339.33C287.083 339.31 287.383 339.3 287.657 339.3H289.017V341.02H287.757C287.263 341.02 286.893 341.143 286.647 341.39C286.407 341.63 286.287 341.973 286.287 342.42V354H284.197ZM282.407 344.88V343.2H289.017V344.88H282.407ZM294.679 354.29C293.932 354.29 293.306 354.17 292.799 353.93C292.292 353.69 291.879 353.377 291.559 352.99C291.246 352.597 291.006 352.17 290.839 351.71C290.672 351.25 290.559 350.8 290.499 350.36C290.439 349.92 290.409 349.533 290.409 349.2V343.2H292.529V348.51C292.529 348.93 292.562 349.363 292.629 349.81C292.702 350.25 292.836 350.66 293.029 351.04C293.229 351.42 293.506 351.727 293.859 351.96C294.219 352.193 294.686 352.31 295.259 352.31C295.632 352.31 295.986 352.25 296.319 352.13C296.652 352.003 296.942 351.803 297.189 351.53C297.442 351.257 297.639 350.897 297.779 350.45C297.926 350.003 297.999 349.46 297.999 348.82L299.299 349.31C299.299 350.29 299.116 351.157 298.749 351.91C298.382 352.657 297.856 353.24 297.169 353.66C296.482 354.08 295.652 354.29 294.679 354.29ZM298.249 354V350.88H297.999V343.2H300.109V354H298.249ZM303.114 354V339.3H305.204V354H303.114Z" fill="black"/>
<path d="M68.0601 383V378.24L64.1641 371.48H66.1161L68.9081 376.32L71.7001 371.48H73.6521L69.7561 378.24V383H68.0601ZM77.2392 383.24C76.3752 383.24 75.6259 383.045 74.9912 382.656C74.3565 382.267 73.8659 381.731 73.5192 381.048C73.1779 380.36 73.0072 379.568 73.0072 378.672C73.0072 377.771 73.1832 376.979 73.5352 376.296C73.8872 375.608 74.3805 375.075 75.0152 374.696C75.6499 374.312 76.3912 374.12 77.2392 374.12C78.1032 374.12 78.8525 374.315 79.4872 374.704C80.1219 375.093 80.6125 375.629 80.9592 376.312C81.3059 376.995 81.4792 377.781 81.4792 378.672C81.4792 379.573 81.3032 380.368 80.9512 381.056C80.6045 381.739 80.1139 382.275 79.4792 382.664C78.8445 383.048 78.0979 383.24 77.2392 383.24ZM77.2392 381.664C78.0659 381.664 78.6819 381.387 79.0872 380.832C79.4979 380.272 79.7032 379.552 79.7032 378.672C79.7032 377.771 79.4952 377.051 79.0792 376.512C78.6685 375.968 78.0552 375.696 77.2392 375.696C76.6792 375.696 76.2179 375.824 75.8552 376.08C75.4925 376.331 75.2232 376.68 75.0472 377.128C74.8712 377.571 74.7832 378.085 74.7832 378.672C74.7832 379.579 74.9912 380.304 75.4072 380.848C75.8232 381.392 76.4339 381.664 77.2392 381.664ZM86.4932 383.232C85.8959 383.232 85.3945 383.136 84.9892 382.944C84.5839 382.752 84.2532 382.501 83.9972 382.192C83.7465 381.877 83.5545 381.536 83.4212 381.168C83.2879 380.8 83.1972 380.44 83.1492 380.088C83.1012 379.736 83.0772 379.427 83.0772 379.16V374.36H84.7732V378.608C84.7732 378.944 84.7999 379.291 84.8532 379.648C84.9119 380 85.0185 380.328 85.1732 380.632C85.3332 380.936 85.5545 381.181 85.8372 381.368C86.1252 381.555 86.4985 381.648 86.9572 381.648C87.2559 381.648 87.5385 381.6 87.8052 381.504C88.0719 381.403 88.3039 381.243 88.5012 381.024C88.7039 380.805 88.8612 380.517 88.9732 380.16C89.0905 379.803 89.1492 379.368 89.1492 378.856L90.1892 379.248C90.1892 380.032 90.0425 380.725 89.7492 381.328C89.4559 381.925 89.0345 382.392 88.4852 382.728C87.9359 383.064 87.2719 383.232 86.4932 383.232ZM89.3492 383V380.504H89.1492V374.36H90.8372V383H89.3492ZM93.0809 383V374.36H94.5689V376.456L94.3609 376.184C94.4676 375.907 94.6063 375.653 94.7769 375.424C94.9476 375.189 95.1449 374.997 95.3689 374.848C95.5876 374.688 95.8303 374.565 96.0969 374.48C96.3689 374.389 96.6463 374.336 96.9289 374.32C97.2116 374.299 97.4836 374.312 97.7449 374.36V375.928C97.4623 375.853 97.1476 375.832 96.8009 375.864C96.4596 375.896 96.1449 376.005 95.8569 376.192C95.5849 376.368 95.3689 376.581 95.2089 376.832C95.0543 377.083 94.9423 377.363 94.8729 377.672C94.8036 377.976 94.7689 378.299 94.7689 378.64V383H93.0809ZM107.416 383C106.872 383.107 106.338 383.152 105.816 383.136C105.293 383.12 104.826 383.019 104.416 382.832C104.005 382.645 103.696 382.352 103.488 381.952C103.301 381.595 103.2 381.232 103.184 380.864C103.173 380.491 103.168 380.069 103.168 379.6V371.96H104.848V379.52C104.848 379.867 104.85 380.168 104.856 380.424C104.866 380.68 104.922 380.896 105.024 381.072C105.216 381.403 105.52 381.592 105.936 381.64C106.357 381.683 106.85 381.664 107.416 381.584V383ZM101.512 375.704V374.36H107.416V375.704H101.512ZM109.237 383V374.36H110.725V376.456L110.517 376.184C110.624 375.907 110.763 375.653 110.933 375.424C111.104 375.189 111.301 374.997 111.525 374.848C111.744 374.688 111.987 374.565 112.253 374.48C112.525 374.389 112.803 374.336 113.085 374.32C113.368 374.299 113.64 374.312 113.901 374.36V375.928C113.619 375.853 113.304 375.832 112.957 375.864C112.616 375.896 112.301 376.005 112.013 376.192C111.741 376.368 111.525 376.581 111.365 376.832C111.211 377.083 111.099 377.363 111.029 377.672C110.96 377.976 110.925 378.299 110.925 378.64V383H109.237ZM117.615 383.24C116.975 383.24 116.439 383.123 116.007 382.888C115.575 382.648 115.247 382.333 115.023 381.944C114.804 381.549 114.695 381.117 114.695 380.648C114.695 380.211 114.772 379.827 114.927 379.496C115.081 379.165 115.311 378.885 115.615 378.656C115.919 378.421 116.292 378.232 116.735 378.088C117.119 377.976 117.553 377.877 118.039 377.792C118.524 377.707 119.033 377.627 119.567 377.552C120.105 377.477 120.639 377.403 121.167 377.328L120.559 377.664C120.569 376.987 120.425 376.485 120.127 376.16C119.833 375.829 119.327 375.664 118.607 375.664C118.153 375.664 117.737 375.771 117.359 375.984C116.98 376.192 116.716 376.539 116.567 377.024L115.007 376.544C115.22 375.803 115.625 375.213 116.223 374.776C116.825 374.339 117.625 374.12 118.623 374.12C119.396 374.12 120.068 374.253 120.639 374.52C121.215 374.781 121.636 375.197 121.903 375.768C122.041 376.051 122.127 376.349 122.159 376.664C122.191 376.979 122.207 377.317 122.207 377.68V383H120.727V381.024L121.015 381.28C120.657 381.941 120.201 382.435 119.647 382.76C119.097 383.08 118.42 383.24 117.615 383.24ZM117.911 381.872C118.385 381.872 118.793 381.789 119.135 381.624C119.476 381.453 119.751 381.237 119.959 380.976C120.167 380.715 120.303 380.443 120.367 380.16C120.457 379.904 120.508 379.616 120.519 379.296C120.535 378.976 120.543 378.72 120.543 378.528L121.087 378.728C120.559 378.808 120.079 378.88 119.647 378.944C119.215 379.008 118.823 379.072 118.471 379.136C118.124 379.195 117.815 379.267 117.543 379.352C117.313 379.432 117.108 379.528 116.927 379.64C116.751 379.752 116.609 379.888 116.503 380.048C116.401 380.208 116.351 380.403 116.351 380.632C116.351 380.856 116.407 381.064 116.519 381.256C116.631 381.443 116.801 381.592 117.031 381.704C117.26 381.816 117.553 381.872 117.911 381.872ZM130.348 383V378.752C130.348 378.416 130.319 378.072 130.26 377.72C130.207 377.363 130.1 377.032 129.94 376.728C129.785 376.424 129.564 376.179 129.276 375.992C128.993 375.805 128.623 375.712 128.164 375.712C127.865 375.712 127.583 375.763 127.316 375.864C127.049 375.96 126.815 376.117 126.612 376.336C126.415 376.555 126.257 376.843 126.14 377.2C126.028 377.557 125.972 377.992 125.972 378.504L124.932 378.112C124.932 377.328 125.079 376.637 125.372 376.04C125.665 375.437 126.087 374.968 126.636 374.632C127.185 374.296 127.849 374.128 128.628 374.128C129.225 374.128 129.727 374.224 130.132 374.416C130.537 374.608 130.865 374.861 131.116 375.176C131.372 375.485 131.567 375.824 131.7 376.192C131.833 376.56 131.924 376.92 131.972 377.272C132.02 377.624 132.044 377.933 132.044 378.2V383H130.348ZM124.276 383V374.36H125.772V376.856H125.972V383H124.276ZM137.432 383.232C136.381 383.232 135.525 383 134.864 382.536C134.202 382.072 133.797 381.419 133.648 380.576L135.36 380.312C135.466 380.76 135.712 381.115 136.096 381.376C136.485 381.632 136.968 381.76 137.544 381.76C138.066 381.76 138.474 381.653 138.768 381.44C139.066 381.227 139.216 380.933 139.216 380.56C139.216 380.341 139.162 380.165 139.056 380.032C138.954 379.893 138.738 379.763 138.408 379.64C138.077 379.517 137.573 379.365 136.896 379.184C136.154 378.992 135.565 378.787 135.128 378.568C134.696 378.344 134.386 378.085 134.2 377.792C134.018 377.493 133.928 377.133 133.928 376.712C133.928 376.189 134.066 375.733 134.344 375.344C134.621 374.955 135.01 374.653 135.512 374.44C136.018 374.227 136.61 374.12 137.288 374.12C137.949 374.12 138.538 374.224 139.056 374.432C139.573 374.64 139.992 374.936 140.312 375.32C140.632 375.699 140.824 376.144 140.888 376.656L139.176 376.968C139.117 376.552 138.922 376.224 138.592 375.984C138.261 375.744 137.832 375.613 137.304 375.592C136.797 375.571 136.386 375.656 136.072 375.848C135.757 376.035 135.6 376.293 135.6 376.624C135.6 376.816 135.658 376.979 135.776 377.112C135.898 377.245 136.133 377.373 136.48 377.496C136.826 377.619 137.338 377.765 138.016 377.936C138.741 378.123 139.317 378.331 139.744 378.56C140.17 378.784 140.474 379.053 140.656 379.368C140.842 379.677 140.936 380.053 140.936 380.496C140.936 381.349 140.624 382.019 140 382.504C139.381 382.989 138.525 383.232 137.432 383.232ZM143.498 383V374.056C143.498 373.837 143.506 373.605 143.522 373.36C143.538 373.109 143.583 372.864 143.658 372.624C143.738 372.379 143.869 372.155 144.05 371.952C144.269 371.712 144.509 371.541 144.77 371.44C145.031 371.339 145.29 371.28 145.546 371.264C145.807 371.248 146.047 371.24 146.266 371.24H147.354V372.616H146.346C145.951 372.616 145.655 372.715 145.458 372.912C145.266 373.104 145.17 373.379 145.17 373.736V383H143.498ZM142.066 375.704V374.36H147.354V375.704H142.066ZM152.147 383.24C151.289 383.24 150.534 383.053 149.883 382.68C149.238 382.301 148.734 381.776 148.371 381.104C148.014 380.427 147.835 379.643 147.835 378.752C147.835 377.808 148.011 376.989 148.363 376.296C148.721 375.603 149.217 375.067 149.851 374.688C150.486 374.309 151.225 374.12 152.067 374.12C152.947 374.12 153.697 374.325 154.315 374.736C154.934 375.141 155.395 375.72 155.699 376.472C156.009 377.224 156.131 378.117 156.067 379.152H154.395V378.544C154.385 377.541 154.193 376.8 153.819 376.32C153.451 375.84 152.889 375.6 152.131 375.6C151.294 375.6 150.665 375.864 150.243 376.392C149.822 376.92 149.611 377.683 149.611 378.68C149.611 379.629 149.822 380.365 150.243 380.888C150.665 381.405 151.273 381.664 152.067 381.664C152.59 381.664 153.041 381.547 153.419 381.312C153.803 381.072 154.102 380.731 154.315 380.288L155.955 380.808C155.619 381.581 155.11 382.181 154.427 382.608C153.745 383.029 152.985 383.24 152.147 383.24ZM149.067 379.152V377.848H155.235V379.152H149.067ZM157.862 383V374.36H159.35V376.456L159.142 376.184C159.249 375.907 159.388 375.653 159.558 375.424C159.729 375.189 159.926 374.997 160.15 374.848C160.369 374.688 160.612 374.565 160.878 374.48C161.15 374.389 161.428 374.336 161.71 374.32C161.993 374.299 162.265 374.312 162.526 374.36V375.928C162.244 375.853 161.929 375.832 161.582 375.864C161.241 375.896 160.926 376.005 160.638 376.192C160.366 376.368 160.15 376.581 159.99 376.832C159.836 377.083 159.724 377.363 159.654 377.672C159.585 377.976 159.55 378.299 159.55 378.64V383H157.862ZM171.005 383.24C170.141 383.24 169.391 383.045 168.757 382.656C168.122 382.267 167.631 381.731 167.285 381.048C166.943 380.36 166.773 379.568 166.773 378.672C166.773 377.771 166.949 376.979 167.301 376.296C167.653 375.608 168.146 375.075 168.781 374.696C169.415 374.312 170.157 374.12 171.005 374.12C171.869 374.12 172.618 374.315 173.253 374.704C173.887 375.093 174.378 375.629 174.725 376.312C175.071 376.995 175.245 377.781 175.245 378.672C175.245 379.573 175.069 380.368 174.717 381.056C174.37 381.739 173.879 382.275 173.245 382.664C172.61 383.048 171.863 383.24 171.005 383.24ZM171.005 381.664C171.831 381.664 172.447 381.387 172.853 380.832C173.263 380.272 173.469 379.552 173.469 378.672C173.469 377.771 173.261 377.051 172.845 376.512C172.434 375.968 171.821 375.696 171.005 375.696C170.445 375.696 169.983 375.824 169.621 376.08C169.258 376.331 168.989 376.68 168.813 377.128C168.637 377.571 168.549 378.085 168.549 378.672C168.549 379.579 168.757 380.304 169.173 380.848C169.589 381.392 170.199 381.664 171.005 381.664ZM177.795 383V374.056C177.795 373.837 177.803 373.605 177.819 373.36C177.835 373.109 177.88 372.864 177.955 372.624C178.035 372.379 178.165 372.155 178.347 371.952C178.565 371.712 178.805 371.541 179.067 371.44C179.328 371.339 179.587 371.28 179.843 371.264C180.104 371.248 180.344 371.24 180.563 371.24H181.651V372.616H180.643C180.248 372.616 179.952 372.715 179.755 372.912C179.563 373.104 179.467 373.379 179.467 373.736V383H177.795ZM176.363 375.704V374.36H181.651V375.704H176.363ZM186.128 371.48H188.952C189.064 371.48 189.202 371.485 189.368 371.496C189.533 371.501 189.688 371.517 189.832 371.544C190.477 371.645 191.013 371.867 191.44 372.208C191.872 372.544 192.194 372.968 192.408 373.48C192.621 373.987 192.728 374.549 192.728 375.168C192.728 376.069 192.512 376.837 192.08 377.472C191.648 378.101 191 378.523 190.136 378.736C189.928 378.789 189.736 378.824 189.56 378.84C189.384 378.856 189.176 378.864 188.936 378.864H186.128V377.28H188.888C188.989 377.28 189.104 377.275 189.232 377.264C189.365 377.253 189.49 377.235 189.608 377.208C189.954 377.123 190.229 376.973 190.432 376.76C190.64 376.547 190.789 376.299 190.88 376.016C190.976 375.733 191.024 375.451 191.024 375.168C191.024 374.885 190.976 374.603 190.88 374.32C190.789 374.037 190.64 373.789 190.432 373.576C190.229 373.363 189.954 373.216 189.608 373.136C189.49 373.104 189.365 373.083 189.232 373.072C189.104 373.061 188.989 373.056 188.888 373.056H186.128V371.48ZM186.128 378.864L187.92 378.384L193.128 383H190.76L186.128 378.864ZM186.168 375.824V374.52H194.008V375.824H186.168ZM188.76 372.784V371.48H193.96V372.784H188.76ZM195.605 382.992L195.613 381.504L200.629 377.008C201.034 376.651 201.309 376.309 201.453 375.984C201.602 375.659 201.677 375.333 201.677 375.008C201.677 374.597 201.586 374.229 201.405 373.904C201.223 373.573 200.973 373.312 200.653 373.12C200.333 372.928 199.965 372.832 199.549 372.832C199.122 372.832 198.741 372.933 198.405 373.136C198.074 373.333 197.815 373.597 197.629 373.928C197.442 374.259 197.351 374.616 197.357 375H195.645C195.645 374.253 195.813 373.6 196.149 373.04C196.49 372.475 196.957 372.035 197.549 371.72C198.141 371.4 198.818 371.24 199.581 371.24C200.306 371.24 200.957 371.405 201.533 371.736C202.109 372.061 202.562 372.509 202.893 373.08C203.229 373.651 203.397 374.301 203.397 375.032C203.397 375.56 203.327 376.008 203.189 376.376C203.05 376.744 202.842 377.085 202.565 377.4C202.287 377.715 201.941 378.056 201.525 378.424L197.653 381.88L197.469 381.4H203.397V382.992H195.605ZM209.331 383.24C208.547 383.24 207.854 383.069 207.251 382.728C206.649 382.381 206.174 381.907 205.827 381.304C205.486 380.701 205.315 380.008 205.315 379.224V375.256C205.315 374.472 205.486 373.779 205.827 373.176C206.174 372.573 206.649 372.101 207.251 371.76C207.854 371.413 208.547 371.24 209.331 371.24C210.115 371.24 210.809 371.413 211.411 371.76C212.014 372.101 212.486 372.573 212.827 373.176C213.174 373.779 213.347 374.472 213.347 375.256V379.224C213.347 380.008 213.174 380.701 212.827 381.304C212.486 381.907 212.014 382.381 211.411 382.728C210.809 383.069 210.115 383.24 209.331 383.24ZM209.331 381.64C209.758 381.64 210.145 381.539 210.491 381.336C210.843 381.128 211.123 380.851 211.331 380.504C211.539 380.152 211.643 379.76 211.643 379.328V375.136C211.643 374.709 211.539 374.323 211.331 373.976C211.123 373.624 210.843 373.347 210.491 373.144C210.145 372.936 209.758 372.832 209.331 372.832C208.905 372.832 208.515 372.936 208.163 373.144C207.817 373.347 207.539 373.624 207.331 373.976C207.123 374.323 207.019 374.709 207.019 375.136V379.328C207.019 379.76 207.123 380.152 207.331 380.504C207.539 380.851 207.817 381.128 208.163 381.336C208.515 381.539 208.905 381.64 209.331 381.64ZM219.597 383.24C218.813 383.24 218.12 383.069 217.517 382.728C216.914 382.381 216.44 381.907 216.093 381.304C215.752 380.701 215.581 380.008 215.581 379.224V375.256C215.581 374.472 215.752 373.779 216.093 373.176C216.44 372.573 216.914 372.101 217.517 371.76C218.12 371.413 218.813 371.24 219.597 371.24C220.381 371.24 221.074 371.413 221.677 371.76C222.28 372.101 222.752 372.573 223.093 373.176C223.44 373.779 223.613 374.472 223.613 375.256V379.224C223.613 380.008 223.44 380.701 223.093 381.304C222.752 381.907 222.28 382.381 221.677 382.728C221.074 383.069 220.381 383.24 219.597 383.24ZM219.597 381.64C220.024 381.64 220.41 381.539 220.757 381.336C221.109 381.128 221.389 380.851 221.597 380.504C221.805 380.152 221.909 379.76 221.909 379.328V375.136C221.909 374.709 221.805 374.323 221.597 373.976C221.389 373.624 221.109 373.347 220.757 373.144C220.41 372.936 220.024 372.832 219.597 372.832C219.17 372.832 218.781 372.936 218.429 373.144C218.082 373.347 217.805 373.624 217.597 373.976C217.389 374.323 217.285 374.709 217.285 375.136V379.328C217.285 379.76 217.389 380.152 217.597 380.504C217.805 380.851 218.082 381.128 218.429 381.336C218.781 381.539 219.17 381.64 219.597 381.64ZM229.21 372.944V371.32H230.882V372.944H229.21ZM229.21 383V374.36H230.882V383H229.21ZM236.588 383.232C235.537 383.232 234.681 383 234.02 382.536C233.359 382.072 232.953 381.419 232.804 380.576L234.516 380.312C234.623 380.76 234.868 381.115 235.252 381.376C235.641 381.632 236.124 381.76 236.7 381.76C237.223 381.76 237.631 381.653 237.924 381.44C238.223 381.227 238.372 380.933 238.372 380.56C238.372 380.341 238.319 380.165 238.212 380.032C238.111 379.893 237.895 379.763 237.564 379.64C237.233 379.517 236.729 379.365 236.052 379.184C235.311 378.992 234.721 378.787 234.284 378.568C233.852 378.344 233.543 378.085 233.356 377.792C233.175 377.493 233.084 377.133 233.084 376.712C233.084 376.189 233.223 375.733 233.5 375.344C233.777 374.955 234.167 374.653 234.668 374.44C235.175 374.227 235.767 374.12 236.444 374.12C237.105 374.12 237.695 374.224 238.212 374.432C238.729 374.64 239.148 374.936 239.468 375.32C239.788 375.699 239.98 376.144 240.044 376.656L238.332 376.968C238.273 376.552 238.079 376.224 237.748 375.984C237.417 375.744 236.988 375.613 236.46 375.592C235.953 375.571 235.543 375.656 235.228 375.848C234.913 376.035 234.756 376.293 234.756 376.624C234.756 376.816 234.815 376.979 234.932 377.112C235.055 377.245 235.289 377.373 235.636 377.496C235.983 377.619 236.495 377.765 237.172 377.936C237.897 378.123 238.473 378.331 238.9 378.56C239.327 378.784 239.631 379.053 239.812 379.368C239.999 379.677 240.092 380.053 240.092 380.496C240.092 381.349 239.78 382.019 239.156 382.504C238.537 382.989 237.681 383.232 236.588 383.232ZM248.761 383.24C247.876 383.24 247.124 383.043 246.505 382.648C245.887 382.253 245.412 381.712 245.081 381.024C244.756 380.336 244.591 379.555 244.585 378.68C244.591 377.789 244.761 377.003 245.097 376.32C245.433 375.632 245.913 375.093 246.537 374.704C247.161 374.315 247.911 374.12 248.785 374.12C249.729 374.12 250.535 374.355 251.201 374.824C251.873 375.293 252.316 375.936 252.529 376.752L250.865 377.232C250.7 376.747 250.428 376.371 250.049 376.104C249.676 375.832 249.247 375.696 248.761 375.696C248.212 375.696 247.761 375.827 247.409 376.088C247.057 376.344 246.796 376.696 246.625 377.144C246.455 377.592 246.367 378.104 246.361 378.68C246.367 379.571 246.569 380.291 246.969 380.84C247.375 381.389 247.972 381.664 248.761 381.664C249.3 381.664 249.735 381.541 250.065 381.296C250.401 381.045 250.657 380.688 250.833 380.224L252.529 380.624C252.247 381.467 251.78 382.115 251.129 382.568C250.479 383.016 249.689 383.24 248.761 383.24ZM257.677 383.24C256.813 383.24 256.063 383.045 255.429 382.656C254.794 382.267 254.303 381.731 253.957 381.048C253.615 380.36 253.445 379.568 253.445 378.672C253.445 377.771 253.621 376.979 253.973 376.296C254.325 375.608 254.818 375.075 255.453 374.696C256.087 374.312 256.829 374.12 257.677 374.12C258.541 374.12 259.29 374.315 259.925 374.704C260.559 375.093 261.05 375.629 261.397 376.312C261.743 376.995 261.917 377.781 261.917 378.672C261.917 379.573 261.741 380.368 261.389 381.056C261.042 381.739 260.551 382.275 259.917 382.664C259.282 383.048 258.535 383.24 257.677 383.24ZM257.677 381.664C258.503 381.664 259.119 381.387 259.525 380.832C259.935 380.272 260.141 379.552 260.141 378.672C260.141 377.771 259.933 377.051 259.517 376.512C259.106 375.968 258.493 375.696 257.677 375.696C257.117 375.696 256.655 375.824 256.293 376.08C255.93 376.331 255.661 376.68 255.485 377.128C255.309 377.571 255.221 378.085 255.221 378.672C255.221 379.579 255.429 380.304 255.845 380.848C256.261 381.392 256.871 381.664 257.677 381.664ZM274.027 383L274.035 377.616C274.035 376.992 273.875 376.507 273.555 376.16C273.235 375.808 272.813 375.632 272.291 375.632C271.971 375.632 271.677 375.707 271.411 375.856C271.149 376 270.936 376.219 270.771 376.512C270.611 376.8 270.531 377.163 270.531 377.6L269.723 377.192C269.712 376.584 269.84 376.051 270.107 375.592C270.379 375.133 270.747 374.779 271.211 374.528C271.675 374.272 272.195 374.144 272.771 374.144C273.704 374.144 274.427 374.424 274.939 374.984C275.451 375.544 275.707 376.288 275.707 377.216L275.699 383H274.027ZM263.667 383V374.36H265.155V376.856H265.347V383H263.667ZM268.851 383L268.859 377.648C268.859 377.019 268.699 376.525 268.379 376.168C268.064 375.811 267.64 375.632 267.107 375.632C266.579 375.632 266.152 375.813 265.827 376.176C265.507 376.539 265.347 377.013 265.347 377.6L264.547 377.088C264.547 376.523 264.683 376.019 264.955 375.576C265.227 375.133 265.595 374.784 266.059 374.528C266.523 374.272 267.048 374.144 267.635 374.144C268.248 374.144 268.771 374.275 269.203 374.536C269.635 374.792 269.963 375.152 270.187 375.616C270.416 376.08 270.531 376.619 270.531 377.232L270.523 383H268.851ZM281.84 383.24C281.013 383.24 280.32 383.04 279.76 382.64C279.2 382.235 278.776 381.688 278.488 381C278.2 380.312 278.056 379.536 278.056 378.672C278.056 377.808 278.197 377.032 278.48 376.344C278.768 375.656 279.189 375.115 279.744 374.72C280.304 374.32 280.992 374.12 281.808 374.12C282.619 374.12 283.317 374.32 283.904 374.72C284.496 375.115 284.952 375.656 285.272 376.344C285.592 377.027 285.752 377.803 285.752 378.672C285.752 379.536 285.592 380.315 285.272 381.008C284.957 381.696 284.507 382.24 283.92 382.64C283.339 383.04 282.645 383.24 281.84 383.24ZM277.776 386.84V374.36H279.264V380.576H279.456V386.84H277.776ZM281.608 381.728C282.141 381.728 282.581 381.592 282.928 381.32C283.28 381.048 283.541 380.683 283.712 380.224C283.888 379.76 283.976 379.243 283.976 378.672C283.976 378.107 283.888 377.595 283.712 377.136C283.541 376.677 283.277 376.312 282.92 376.04C282.563 375.768 282.107 375.632 281.552 375.632C281.029 375.632 280.597 375.76 280.256 376.016C279.92 376.272 279.669 376.629 279.504 377.088C279.344 377.547 279.264 378.075 279.264 378.672C279.264 379.269 279.344 379.797 279.504 380.256C279.664 380.715 279.917 381.075 280.264 381.336C280.611 381.597 281.059 381.728 281.608 381.728ZM287.678 383V371.24H289.35V383H287.678ZM295.585 383.24C294.726 383.24 293.971 383.053 293.321 382.68C292.675 382.301 292.171 381.776 291.809 381.104C291.451 380.427 291.273 379.643 291.273 378.752C291.273 377.808 291.449 376.989 291.801 376.296C292.158 375.603 292.654 375.067 293.289 374.688C293.923 374.309 294.662 374.12 295.505 374.12C296.385 374.12 297.134 374.325 297.753 374.736C298.371 375.141 298.833 375.72 299.137 376.472C299.446 377.224 299.569 378.117 299.505 379.152H297.833V378.544C297.822 377.541 297.63 376.8 297.257 376.32C296.889 375.84 296.326 375.6 295.569 375.6C294.731 375.6 294.102 375.864 293.681 376.392C293.259 376.92 293.049 377.683 293.049 378.68C293.049 379.629 293.259 380.365 293.681 380.888C294.102 381.405 294.71 381.664 295.505 381.664C296.027 381.664 296.478 381.547 296.857 381.312C297.241 381.072 297.539 380.731 297.753 380.288L299.393 380.808C299.057 381.581 298.547 382.181 297.865 382.608C297.182 383.029 296.422 383.24 295.585 383.24ZM292.505 379.152V377.848H298.673V379.152H292.505ZM306.244 383C305.7 383.107 305.166 383.152 304.644 383.136C304.121 383.12 303.654 383.019 303.244 382.832C302.833 382.645 302.524 382.352 302.316 381.952C302.129 381.595 302.028 381.232 302.012 380.864C302.001 380.491 301.996 380.069 301.996 379.6V371.96H303.676V379.52C303.676 379.867 303.678 380.168 303.684 380.424C303.694 380.68 303.75 380.896 303.852 381.072C304.044 381.403 304.348 381.592 304.764 381.64C305.185 381.683 305.678 381.664 306.244 381.584V383ZM300.34 375.704V374.36H306.244V375.704H300.34ZM311.507 383.24C310.648 383.24 309.893 383.053 309.243 382.68C308.597 382.301 308.093 381.776 307.731 381.104C307.373 380.427 307.195 379.643 307.195 378.752C307.195 377.808 307.371 376.989 307.723 376.296C308.08 375.603 308.576 375.067 309.211 374.688C309.845 374.309 310.584 374.12 311.427 374.12C312.307 374.12 313.056 374.325 313.675 374.736C314.293 375.141 314.755 375.72 315.059 376.472C315.368 377.224 315.491 378.117 315.427 379.152H313.755V378.544C313.744 377.541 313.552 376.8 313.179 376.32C312.811 375.84 312.248 375.6 311.491 375.6C310.653 375.6 310.024 375.864 309.603 376.392C309.181 376.92 308.971 377.683 308.971 378.68C308.971 379.629 309.181 380.365 309.603 380.888C310.024 381.405 310.632 381.664 311.427 381.664C311.949 381.664 312.4 381.547 312.779 381.312C313.163 381.072 313.461 380.731 313.675 380.288L315.315 380.808C314.979 381.581 314.469 382.181 313.787 382.608C313.104 383.029 312.344 383.24 311.507 383.24ZM308.427 379.152V377.848H314.595V379.152H308.427ZM320.654 383.24C319.848 383.24 319.152 383.04 318.566 382.64C317.984 382.24 317.534 381.696 317.214 381.008C316.899 380.315 316.742 379.536 316.742 378.672C316.742 377.803 316.902 377.027 317.222 376.344C317.542 375.656 317.995 375.115 318.582 374.72C319.174 374.32 319.875 374.12 320.686 374.12C321.502 374.12 322.187 374.32 322.742 374.72C323.302 375.115 323.723 375.656 324.006 376.344C324.294 377.032 324.438 377.808 324.438 378.672C324.438 379.536 324.294 380.312 324.006 381C323.718 381.688 323.294 382.235 322.734 382.64C322.174 383.04 321.48 383.24 320.654 383.24ZM320.886 381.728C321.435 381.728 321.883 381.597 322.23 381.336C322.576 381.075 322.83 380.715 322.99 380.256C323.15 379.797 323.23 379.269 323.23 378.672C323.23 378.075 323.147 377.547 322.982 377.088C322.822 376.629 322.571 376.272 322.23 376.016C321.894 375.76 321.464 375.632 320.942 375.632C320.387 375.632 319.931 375.768 319.574 376.04C319.216 376.312 318.95 376.677 318.774 377.136C318.603 377.595 318.518 378.107 318.518 378.672C318.518 379.243 318.603 379.76 318.774 380.224C318.95 380.683 319.211 381.048 319.558 381.32C319.91 381.592 320.352 381.728 320.886 381.728ZM323.23 383V376.784H323.038V371.48H324.718V383H323.23Z" fill="#797979"/>
</svg>
