<svg width="390" height="548" viewBox="0 0 390 548" fill="none" xmlns="http://www.w3.org/2000/svg">
<circle cx="195" cy="230" r="70" fill="#00B407" fill-opacity="0.1"/>
<circle cx="195.001" cy="230.002" r="55.5484" fill="#00B407" fill-opacity="0.3"/>
<circle cx="194.998" cy="229.373" r="35" fill="#00B407"/>
<path d="M183.749 231.543L190.266 238.06L206.015 223.125" stroke="white" stroke-width="3.0521"/>
<path d="M88.1834 354V341.57H83.3934V339.6H95.0634V341.57H90.2734V354H88.1834ZM95.6676 354V343.2H97.5276V345.82L97.2676 345.48C97.4009 345.133 97.5742 344.817 97.7876 344.53C98.0009 344.237 98.2476 343.997 98.5276 343.81C98.8009 343.61 99.1042 343.457 99.4376 343.35C99.7776 343.237 100.124 343.17 100.478 343.15C100.831 343.123 101.171 343.14 101.498 343.2V345.16C101.144 345.067 100.751 345.04 100.318 345.08C99.8909 345.12 99.4976 345.257 99.1376 345.49C98.7976 345.71 98.5276 345.977 98.3276 346.29C98.1342 346.603 97.9942 346.953 97.9076 347.34C97.8209 347.72 97.7776 348.123 97.7776 348.55V354H95.6676ZM106.139 354.3C105.339 354.3 104.669 354.153 104.129 353.86C103.589 353.56 103.179 353.167 102.899 352.68C102.626 352.187 102.489 351.647 102.489 351.06C102.489 350.513 102.586 350.033 102.779 349.62C102.973 349.207 103.259 348.857 103.639 348.57C104.019 348.277 104.486 348.04 105.039 347.86C105.519 347.72 106.063 347.597 106.669 347.49C107.276 347.383 107.913 347.283 108.579 347.19C109.253 347.097 109.919 347.003 110.579 346.91L109.819 347.33C109.833 346.483 109.653 345.857 109.279 345.45C108.913 345.037 108.279 344.83 107.379 344.83C106.813 344.83 106.293 344.963 105.819 345.23C105.346 345.49 105.016 345.923 104.829 346.53L102.879 345.93C103.146 345.003 103.653 344.267 104.399 343.72C105.153 343.173 106.153 342.9 107.399 342.9C108.366 342.9 109.206 343.067 109.919 343.4C110.639 343.727 111.166 344.247 111.499 344.96C111.673 345.313 111.779 345.687 111.819 346.08C111.859 346.473 111.879 346.897 111.879 347.35V354H110.029V351.53L110.389 351.85C109.943 352.677 109.373 353.293 108.679 353.7C107.993 354.1 107.146 354.3 106.139 354.3ZM106.509 352.59C107.103 352.59 107.613 352.487 108.039 352.28C108.466 352.067 108.809 351.797 109.069 351.47C109.329 351.143 109.499 350.803 109.579 350.45C109.693 350.13 109.756 349.77 109.769 349.37C109.789 348.97 109.799 348.65 109.799 348.41L110.479 348.66C109.819 348.76 109.219 348.85 108.679 348.93C108.139 349.01 107.649 349.09 107.209 349.17C106.776 349.243 106.389 349.333 106.049 349.44C105.763 349.54 105.506 349.66 105.279 349.8C105.059 349.94 104.883 350.11 104.749 350.31C104.623 350.51 104.559 350.753 104.559 351.04C104.559 351.32 104.629 351.58 104.769 351.82C104.909 352.053 105.123 352.24 105.409 352.38C105.696 352.52 106.063 352.59 106.509 352.59ZM122.056 354V348.69C122.056 348.27 122.02 347.84 121.946 347.4C121.88 346.953 121.746 346.54 121.546 346.16C121.353 345.78 121.076 345.473 120.716 345.24C120.363 345.007 119.9 344.89 119.326 344.89C118.953 344.89 118.6 344.953 118.266 345.08C117.933 345.2 117.64 345.397 117.386 345.67C117.14 345.943 116.943 346.303 116.796 346.75C116.656 347.197 116.586 347.74 116.586 348.38L115.286 347.89C115.286 346.91 115.47 346.047 115.836 345.3C116.203 344.547 116.73 343.96 117.416 343.54C118.103 343.12 118.933 342.91 119.906 342.91C120.653 342.91 121.28 343.03 121.786 343.27C122.293 343.51 122.703 343.827 123.016 344.22C123.336 344.607 123.58 345.03 123.746 345.49C123.913 345.95 124.026 346.4 124.086 346.84C124.146 347.28 124.176 347.667 124.176 348V354H122.056ZM114.466 354V343.2H116.336V346.32H116.586V354H114.466ZM130.911 354.29C129.598 354.29 128.528 354 127.701 353.42C126.874 352.84 126.368 352.023 126.181 350.97L128.321 350.64C128.454 351.2 128.761 351.643 129.241 351.97C129.728 352.29 130.331 352.45 131.051 352.45C131.704 352.45 132.214 352.317 132.581 352.05C132.954 351.783 133.141 351.417 133.141 350.95C133.141 350.677 133.074 350.457 132.941 350.29C132.814 350.117 132.544 349.953 132.131 349.8C131.718 349.647 131.088 349.457 130.241 349.23C129.314 348.99 128.578 348.733 128.031 348.46C127.491 348.18 127.104 347.857 126.871 347.49C126.644 347.117 126.531 346.667 126.531 346.14C126.531 345.487 126.704 344.917 127.051 344.43C127.398 343.943 127.884 343.567 128.511 343.3C129.144 343.033 129.884 342.9 130.731 342.9C131.558 342.9 132.294 343.03 132.941 343.29C133.588 343.55 134.111 343.92 134.511 344.4C134.911 344.873 135.151 345.43 135.231 346.07L133.091 346.46C133.018 345.94 132.774 345.53 132.361 345.23C131.948 344.93 131.411 344.767 130.751 344.74C130.118 344.713 129.604 344.82 129.211 345.06C128.818 345.293 128.621 345.617 128.621 346.03C128.621 346.27 128.694 346.473 128.841 346.64C128.994 346.807 129.288 346.967 129.721 347.12C130.154 347.273 130.794 347.457 131.641 347.67C132.548 347.903 133.268 348.163 133.801 348.45C134.334 348.73 134.714 349.067 134.941 349.46C135.174 349.847 135.291 350.317 135.291 350.87C135.291 351.937 134.901 352.773 134.121 353.38C133.348 353.987 132.278 354.29 130.911 354.29ZM140.554 354.3C139.754 354.3 139.084 354.153 138.544 353.86C138.004 353.56 137.594 353.167 137.314 352.68C137.04 352.187 136.904 351.647 136.904 351.06C136.904 350.513 137 350.033 137.194 349.62C137.387 349.207 137.674 348.857 138.054 348.57C138.434 348.277 138.9 348.04 139.454 347.86C139.934 347.72 140.477 347.597 141.084 347.49C141.69 347.383 142.327 347.283 142.994 347.19C143.667 347.097 144.334 347.003 144.994 346.91L144.234 347.33C144.247 346.483 144.067 345.857 143.694 345.45C143.327 345.037 142.694 344.83 141.794 344.83C141.227 344.83 140.707 344.963 140.234 345.23C139.76 345.49 139.43 345.923 139.244 346.53L137.294 345.93C137.56 345.003 138.067 344.267 138.814 343.72C139.567 343.173 140.567 342.9 141.814 342.9C142.78 342.9 143.62 343.067 144.334 343.4C145.054 343.727 145.58 344.247 145.914 344.96C146.087 345.313 146.194 345.687 146.234 346.08C146.274 346.473 146.294 346.897 146.294 347.35V354H144.444V351.53L144.804 351.85C144.357 352.677 143.787 353.293 143.094 353.7C142.407 354.1 141.56 354.3 140.554 354.3ZM140.924 352.59C141.517 352.59 142.027 352.487 142.454 352.28C142.88 352.067 143.224 351.797 143.484 351.47C143.744 351.143 143.914 350.803 143.994 350.45C144.107 350.13 144.17 349.77 144.184 349.37C144.204 348.97 144.214 348.65 144.214 348.41L144.894 348.66C144.234 348.76 143.634 348.85 143.094 348.93C142.554 349.01 142.064 349.09 141.624 349.17C141.19 349.243 140.804 349.333 140.464 349.44C140.177 349.54 139.92 349.66 139.694 349.8C139.474 349.94 139.297 350.11 139.164 350.31C139.037 350.51 138.974 350.753 138.974 351.04C138.974 351.32 139.044 351.58 139.184 351.82C139.324 352.053 139.537 352.24 139.824 352.38C140.11 352.52 140.477 352.59 140.924 352.59ZM153.51 354.3C152.404 354.3 151.464 354.053 150.69 353.56C149.917 353.067 149.324 352.39 148.91 351.53C148.504 350.67 148.297 349.693 148.29 348.6C148.297 347.487 148.51 346.503 148.93 345.65C149.35 344.79 149.95 344.117 150.73 343.63C151.51 343.143 152.447 342.9 153.54 342.9C154.72 342.9 155.727 343.193 156.56 343.78C157.4 344.367 157.954 345.17 158.22 346.19L156.14 346.79C155.934 346.183 155.594 345.713 155.12 345.38C154.654 345.04 154.117 344.87 153.51 344.87C152.824 344.87 152.26 345.033 151.82 345.36C151.38 345.68 151.054 346.12 150.84 346.68C150.627 347.24 150.517 347.88 150.51 348.6C150.517 349.713 150.77 350.613 151.27 351.3C151.777 351.987 152.524 352.33 153.51 352.33C154.184 352.33 154.727 352.177 155.14 351.87C155.56 351.557 155.88 351.11 156.1 350.53L158.22 351.03C157.867 352.083 157.284 352.893 156.47 353.46C155.657 354.02 154.67 354.3 153.51 354.3ZM166.437 354C165.757 354.133 165.091 354.19 164.437 354.17C163.784 354.15 163.201 354.023 162.687 353.79C162.174 353.557 161.787 353.19 161.527 352.69C161.294 352.243 161.167 351.79 161.147 351.33C161.134 350.863 161.127 350.337 161.127 349.75V340.2H163.227V349.65C163.227 350.083 163.231 350.46 163.237 350.78C163.251 351.1 163.321 351.37 163.447 351.59C163.687 352.003 164.067 352.24 164.587 352.3C165.114 352.353 165.731 352.33 166.437 352.23V354ZM159.057 344.88V343.2H166.437V344.88H159.057ZM168.914 341.43V339.4H171.004V341.43H168.914ZM168.914 354V343.2H171.004V354H168.914ZM178.697 354.3C177.617 354.3 176.681 354.057 175.887 353.57C175.094 353.083 174.481 352.413 174.047 351.56C173.621 350.7 173.407 349.71 173.407 348.59C173.407 347.463 173.627 346.473 174.067 345.62C174.507 344.76 175.124 344.093 175.917 343.62C176.711 343.14 177.637 342.9 178.697 342.9C179.777 342.9 180.714 343.143 181.507 343.63C182.301 344.117 182.914 344.787 183.347 345.64C183.781 346.493 183.997 347.477 183.997 348.59C183.997 349.717 183.777 350.71 183.337 351.57C182.904 352.423 182.291 353.093 181.497 353.58C180.704 354.06 179.771 354.3 178.697 354.3ZM178.697 352.33C179.731 352.33 180.501 351.983 181.007 351.29C181.521 350.59 181.777 349.69 181.777 348.59C181.777 347.463 181.517 346.563 180.997 345.89C180.484 345.21 179.717 344.87 178.697 344.87C177.997 344.87 177.421 345.03 176.967 345.35C176.514 345.663 176.177 346.1 175.957 346.66C175.737 347.213 175.627 347.857 175.627 348.59C175.627 349.723 175.887 350.63 176.407 351.31C176.927 351.99 177.691 352.33 178.697 352.33ZM193.775 354V348.69C193.775 348.27 193.738 347.84 193.665 347.4C193.598 346.953 193.465 346.54 193.265 346.16C193.072 345.78 192.795 345.473 192.435 345.24C192.082 345.007 191.618 344.89 191.045 344.89C190.672 344.89 190.318 344.953 189.985 345.08C189.652 345.2 189.358 345.397 189.105 345.67C188.858 345.943 188.662 346.303 188.515 346.75C188.375 347.197 188.305 347.74 188.305 348.38L187.005 347.89C187.005 346.91 187.188 346.047 187.555 345.3C187.922 344.547 188.448 343.96 189.135 343.54C189.822 343.12 190.652 342.91 191.625 342.91C192.372 342.91 192.998 343.03 193.505 343.27C194.012 343.51 194.422 343.827 194.735 344.22C195.055 344.607 195.298 345.03 195.465 345.49C195.632 345.95 195.745 346.4 195.805 346.84C195.865 347.28 195.895 347.667 195.895 348V354H193.775ZM186.185 354V343.2H188.055V346.32H188.305V354H186.185ZM207.724 354.3C206.69 354.3 205.757 354.123 204.924 353.77C204.097 353.41 203.414 352.9 202.874 352.24C202.34 351.573 201.994 350.783 201.834 349.87L204.014 349.54C204.234 350.42 204.694 351.107 205.394 351.6C206.094 352.087 206.91 352.33 207.844 352.33C208.424 352.33 208.957 352.24 209.444 352.06C209.93 351.873 210.32 351.61 210.614 351.27C210.914 350.923 211.064 350.51 211.064 350.03C211.064 349.77 211.017 349.54 210.924 349.34C210.837 349.14 210.714 348.967 210.554 348.82C210.4 348.667 210.21 348.537 209.984 348.43C209.764 348.317 209.52 348.22 209.254 348.14L205.564 347.05C205.204 346.943 204.837 346.807 204.464 346.64C204.09 346.467 203.747 346.243 203.434 345.97C203.127 345.69 202.877 345.347 202.684 344.94C202.49 344.527 202.394 344.027 202.394 343.44C202.394 342.553 202.62 341.803 203.074 341.19C203.534 340.57 204.154 340.103 204.934 339.79C205.714 339.47 206.587 339.31 207.554 339.31C208.527 339.323 209.397 339.497 210.164 339.83C210.937 340.163 211.577 340.643 212.084 341.27C212.597 341.89 212.95 342.643 213.144 343.53L210.904 343.91C210.804 343.37 210.59 342.907 210.264 342.52C209.937 342.127 209.537 341.827 209.064 341.62C208.59 341.407 208.077 341.297 207.524 341.29C206.99 341.277 206.5 341.357 206.054 341.53C205.614 341.703 205.26 341.947 204.994 342.26C204.734 342.573 204.604 342.933 204.604 343.34C204.604 343.74 204.72 344.063 204.954 344.31C205.187 344.557 205.474 344.753 205.814 344.9C206.16 345.04 206.504 345.157 206.844 345.25L209.504 346C209.837 346.093 210.214 346.22 210.634 346.38C211.06 346.533 211.47 346.75 211.864 347.03C212.264 347.31 212.594 347.683 212.854 348.15C213.114 348.61 213.244 349.19 213.244 349.89C213.244 350.617 213.097 351.257 212.804 351.81C212.51 352.357 212.107 352.817 211.594 353.19C211.087 353.557 210.5 353.833 209.834 354.02C209.167 354.207 208.464 354.3 207.724 354.3ZM219.445 354.29C218.698 354.29 218.071 354.17 217.565 353.93C217.058 353.69 216.645 353.377 216.325 352.99C216.011 352.597 215.771 352.17 215.605 351.71C215.438 351.25 215.325 350.8 215.265 350.36C215.205 349.92 215.175 349.533 215.175 349.2V343.2H217.295V348.51C217.295 348.93 217.328 349.363 217.395 349.81C217.468 350.25 217.601 350.66 217.795 351.04C217.995 351.42 218.271 351.727 218.625 351.96C218.985 352.193 219.451 352.31 220.025 352.31C220.398 352.31 220.751 352.25 221.085 352.13C221.418 352.003 221.708 351.803 221.955 351.53C222.208 351.257 222.405 350.897 222.545 350.45C222.691 350.003 222.765 349.46 222.765 348.82L224.065 349.31C224.065 350.29 223.881 351.157 223.515 351.91C223.148 352.657 222.621 353.24 221.935 353.66C221.248 354.08 220.418 354.29 219.445 354.29ZM223.015 354V350.88H222.765V343.2H224.875V354H223.015ZM232.299 354.3C231.193 354.3 230.253 354.053 229.479 353.56C228.706 353.067 228.113 352.39 227.699 351.53C227.293 350.67 227.086 349.693 227.079 348.6C227.086 347.487 227.299 346.503 227.719 345.65C228.139 344.79 228.739 344.117 229.519 343.63C230.299 343.143 231.236 342.9 232.329 342.9C233.509 342.9 234.516 343.193 235.349 343.78C236.189 344.367 236.743 345.17 237.009 346.19L234.929 346.79C234.723 346.183 234.383 345.713 233.909 345.38C233.443 345.04 232.906 344.87 232.299 344.87C231.613 344.87 231.049 345.033 230.609 345.36C230.169 345.68 229.843 346.12 229.629 346.68C229.416 347.24 229.306 347.88 229.299 348.6C229.306 349.713 229.559 350.613 230.059 351.3C230.566 351.987 231.313 352.33 232.299 352.33C232.973 352.33 233.516 352.177 233.929 351.87C234.349 351.557 234.669 351.11 234.889 350.53L237.009 351.03C236.656 352.083 236.073 352.893 235.259 353.46C234.446 354.02 233.459 354.3 232.299 354.3ZM243.374 354.3C242.267 354.3 241.327 354.053 240.554 353.56C239.78 353.067 239.187 352.39 238.774 351.53C238.367 350.67 238.16 349.693 238.154 348.6C238.16 347.487 238.374 346.503 238.794 345.65C239.214 344.79 239.814 344.117 240.594 343.63C241.374 343.143 242.31 342.9 243.404 342.9C244.584 342.9 245.59 343.193 246.424 343.78C247.264 344.367 247.817 345.17 248.084 346.19L246.004 346.79C245.797 346.183 245.457 345.713 244.984 345.38C244.517 345.04 243.98 344.87 243.374 344.87C242.687 344.87 242.124 345.033 241.684 345.36C241.244 345.68 240.917 346.12 240.704 346.68C240.49 347.24 240.38 347.88 240.374 348.6C240.38 349.713 240.634 350.613 241.134 351.3C241.64 351.987 242.387 352.33 243.374 352.33C244.047 352.33 244.59 352.177 245.004 351.87C245.424 351.557 245.744 351.11 245.964 350.53L248.084 351.03C247.73 352.083 247.147 352.893 246.334 353.46C245.52 354.02 244.534 354.3 243.374 354.3ZM254.618 354.3C253.544 354.3 252.601 354.067 251.788 353.6C250.981 353.127 250.351 352.47 249.898 351.63C249.451 350.783 249.228 349.803 249.228 348.69C249.228 347.51 249.448 346.487 249.888 345.62C250.334 344.753 250.954 344.083 251.748 343.61C252.541 343.137 253.464 342.9 254.518 342.9C255.618 342.9 256.554 343.157 257.328 343.67C258.101 344.177 258.678 344.9 259.058 345.84C259.444 346.78 259.598 347.897 259.518 349.19H257.428V348.43C257.414 347.177 257.174 346.25 256.708 345.65C256.248 345.05 255.544 344.75 254.598 344.75C253.551 344.75 252.764 345.08 252.238 345.74C251.711 346.4 251.448 347.353 251.448 348.6C251.448 349.787 251.711 350.707 252.238 351.36C252.764 352.007 253.524 352.33 254.518 352.33C255.171 352.33 255.734 352.183 256.208 351.89C256.688 351.59 257.061 351.163 257.328 350.61L259.378 351.26C258.958 352.227 258.321 352.977 257.468 353.51C256.614 354.037 255.664 354.3 254.618 354.3ZM250.768 349.19V347.56H258.478V349.19H250.768ZM265.891 354.29C264.578 354.29 263.508 354 262.681 353.42C261.855 352.84 261.348 352.023 261.161 350.97L263.301 350.64C263.435 351.2 263.741 351.643 264.221 351.97C264.708 352.29 265.311 352.45 266.031 352.45C266.685 352.45 267.195 352.317 267.561 352.05C267.935 351.783 268.121 351.417 268.121 350.95C268.121 350.677 268.055 350.457 267.921 350.29C267.795 350.117 267.525 349.953 267.111 349.8C266.698 349.647 266.068 349.457 265.221 349.23C264.295 348.99 263.558 348.733 263.011 348.46C262.471 348.18 262.085 347.857 261.851 347.49C261.625 347.117 261.511 346.667 261.511 346.14C261.511 345.487 261.685 344.917 262.031 344.43C262.378 343.943 262.865 343.567 263.491 343.3C264.125 343.033 264.865 342.9 265.711 342.9C266.538 342.9 267.275 343.03 267.921 343.29C268.568 343.55 269.091 343.92 269.491 344.4C269.891 344.873 270.131 345.43 270.211 346.07L268.071 346.46C267.998 345.94 267.755 345.53 267.341 345.23C266.928 344.93 266.391 344.767 265.731 344.74C265.098 344.713 264.585 344.82 264.191 345.06C263.798 345.293 263.601 345.617 263.601 346.03C263.601 346.27 263.675 346.473 263.821 346.64C263.975 346.807 264.268 346.967 264.701 347.12C265.135 347.273 265.775 347.457 266.621 347.67C267.528 347.903 268.248 348.163 268.781 348.45C269.315 348.73 269.695 349.067 269.921 349.46C270.155 349.847 270.271 350.317 270.271 350.87C270.271 351.937 269.881 352.773 269.101 353.38C268.328 353.987 267.258 354.29 265.891 354.29ZM276.614 354.29C275.301 354.29 274.231 354 273.404 353.42C272.577 352.84 272.071 352.023 271.884 350.97L274.024 350.64C274.157 351.2 274.464 351.643 274.944 351.97C275.431 352.29 276.034 352.45 276.754 352.45C277.407 352.45 277.917 352.317 278.284 352.05C278.657 351.783 278.844 351.417 278.844 350.95C278.844 350.677 278.777 350.457 278.644 350.29C278.517 350.117 278.247 349.953 277.834 349.8C277.421 349.647 276.791 349.457 275.944 349.23C275.017 348.99 274.281 348.733 273.734 348.46C273.194 348.18 272.807 347.857 272.574 347.49C272.347 347.117 272.234 346.667 272.234 346.14C272.234 345.487 272.407 344.917 272.754 344.43C273.101 343.943 273.587 343.567 274.214 343.3C274.847 343.033 275.587 342.9 276.434 342.9C277.261 342.9 277.997 343.03 278.644 343.29C279.291 343.55 279.814 343.92 280.214 344.4C280.614 344.873 280.854 345.43 280.934 346.07L278.794 346.46C278.721 345.94 278.477 345.53 278.064 345.23C277.651 344.93 277.114 344.767 276.454 344.74C275.821 344.713 275.307 344.82 274.914 345.06C274.521 345.293 274.324 345.617 274.324 346.03C274.324 346.27 274.397 346.473 274.544 346.64C274.697 346.807 274.991 346.967 275.424 347.12C275.857 347.273 276.497 347.457 277.344 347.67C278.251 347.903 278.971 348.163 279.504 348.45C280.037 348.73 280.417 349.067 280.644 349.46C280.877 349.847 280.994 350.317 280.994 350.87C280.994 351.937 280.604 352.773 279.824 353.38C279.051 353.987 277.981 354.29 276.614 354.29ZM284.197 354V342.82C284.197 342.547 284.207 342.257 284.227 341.95C284.247 341.637 284.303 341.33 284.397 341.03C284.497 340.723 284.66 340.443 284.887 340.19C285.16 339.89 285.46 339.677 285.787 339.55C286.113 339.423 286.437 339.35 286.757 339.33C287.083 339.31 287.383 339.3 287.657 339.3H289.017V341.02H287.757C287.263 341.02 286.893 341.143 286.647 341.39C286.407 341.63 286.287 341.973 286.287 342.42V354H284.197ZM282.407 344.88V343.2H289.017V344.88H282.407ZM294.679 354.29C293.932 354.29 293.306 354.17 292.799 353.93C292.292 353.69 291.879 353.377 291.559 352.99C291.246 352.597 291.006 352.17 290.839 351.71C290.672 351.25 290.559 350.8 290.499 350.36C290.439 349.92 290.409 349.533 290.409 349.2V343.2H292.529V348.51C292.529 348.93 292.562 349.363 292.629 349.81C292.702 350.25 292.836 350.66 293.029 351.04C293.229 351.42 293.506 351.727 293.859 351.96C294.219 352.193 294.686 352.31 295.259 352.31C295.632 352.31 295.986 352.25 296.319 352.13C296.652 352.003 296.942 351.803 297.189 351.53C297.442 351.257 297.639 350.897 297.779 350.45C297.926 350.003 297.999 349.46 297.999 348.82L299.299 349.31C299.299 350.29 299.116 351.157 298.749 351.91C298.382 352.657 297.856 353.24 297.169 353.66C296.482 354.08 295.652 354.29 294.679 354.29ZM298.249 354V350.88H297.999V343.2H300.109V354H298.249ZM303.114 354V339.3H305.204V354H303.114Z" fill="black"/>
<path d="M68.0366 383V378.24L64.1406 371.48H66.0926L68.8846 376.32L71.6766 371.48H73.6286L69.7326 378.24V383H68.0366ZM77.2158 383.24C76.3518 383.24 75.6024 383.045 74.9678 382.656C74.3331 382.267 73.8424 381.731 73.4958 381.048C73.1544 380.36 72.9838 379.568 72.9838 378.672C72.9838 377.771 73.1598 376.979 73.5118 376.296C73.8638 375.608 74.3571 375.075 74.9918 374.696C75.6264 374.312 76.3678 374.12 77.2158 374.12C78.0798 374.12 78.8291 374.315 79.4638 374.704C80.0984 375.093 80.5891 375.629 80.9358 376.312C81.2824 376.995 81.4558 377.781 81.4558 378.672C81.4558 379.573 81.2798 380.368 80.9278 381.056C80.5811 381.739 80.0904 382.275 79.4558 382.664C78.8211 383.048 78.0744 383.24 77.2158 383.24ZM77.2158 381.664C78.0424 381.664 78.6584 381.387 79.0638 380.832C79.4744 380.272 79.6798 379.552 79.6798 378.672C79.6798 377.771 79.4718 377.051 79.0558 376.512C78.6451 375.968 78.0318 375.696 77.2158 375.696C76.6558 375.696 76.1944 375.824 75.8318 376.08C75.4691 376.331 75.1998 376.68 75.0238 377.128C74.8478 377.571 74.7598 378.085 74.7598 378.672C74.7598 379.579 74.9678 380.304 75.3838 380.848C75.7998 381.392 76.4104 381.664 77.2158 381.664ZM86.4698 383.232C85.8724 383.232 85.3711 383.136 84.9658 382.944C84.5604 382.752 84.2298 382.501 83.9738 382.192C83.7231 381.877 83.5311 381.536 83.3978 381.168C83.2644 380.8 83.1738 380.44 83.1258 380.088C83.0778 379.736 83.0538 379.427 83.0538 379.16V374.36H84.7498V378.608C84.7498 378.944 84.7764 379.291 84.8298 379.648C84.8884 380 84.9951 380.328 85.1498 380.632C85.3098 380.936 85.5311 381.181 85.8138 381.368C86.1018 381.555 86.4751 381.648 86.9338 381.648C87.2324 381.648 87.5151 381.6 87.7818 381.504C88.0484 381.403 88.2804 381.243 88.4778 381.024C88.6804 380.805 88.8378 380.517 88.9498 380.16C89.0671 379.803 89.1258 379.368 89.1258 378.856L90.1658 379.248C90.1658 380.032 90.0191 380.725 89.7258 381.328C89.4324 381.925 89.0111 382.392 88.4618 382.728C87.9124 383.064 87.2484 383.232 86.4698 383.232ZM89.3258 383V380.504H89.1258V374.36H90.8138V383H89.3258ZM93.0575 383V374.36H94.5455V376.456L94.3375 376.184C94.4442 375.907 94.5828 375.653 94.7535 375.424C94.9242 375.189 95.1215 374.997 95.3455 374.848C95.5642 374.688 95.8068 374.565 96.0735 374.48C96.3455 374.389 96.6228 374.336 96.9055 374.32C97.1882 374.299 97.4602 374.312 97.7215 374.36V375.928C97.4388 375.853 97.1242 375.832 96.7775 375.864C96.4362 375.896 96.1215 376.005 95.8335 376.192C95.5615 376.368 95.3455 376.581 95.1855 376.832C95.0308 377.083 94.9188 377.363 94.8495 377.672C94.7802 377.976 94.7455 378.299 94.7455 378.64V383H93.0575ZM107.392 383C106.848 383.107 106.315 383.152 105.792 383.136C105.269 383.12 104.803 383.019 104.392 382.832C103.981 382.645 103.672 382.352 103.464 381.952C103.277 381.595 103.176 381.232 103.16 380.864C103.149 380.491 103.144 380.069 103.144 379.6V371.96H104.824V379.52C104.824 379.867 104.827 380.168 104.832 380.424C104.843 380.68 104.899 380.896 105 381.072C105.192 381.403 105.496 381.592 105.912 381.64C106.333 381.683 106.827 381.664 107.392 381.584V383ZM101.488 375.704V374.36H107.392V375.704H101.488ZM109.214 383V374.36H110.702V376.456L110.494 376.184C110.6 375.907 110.739 375.653 110.91 375.424C111.08 375.189 111.278 374.997 111.502 374.848C111.72 374.688 111.963 374.565 112.23 374.48C112.502 374.389 112.779 374.336 113.062 374.32C113.344 374.299 113.616 374.312 113.878 374.36V375.928C113.595 375.853 113.28 375.832 112.934 375.864C112.592 375.896 112.278 376.005 111.99 376.192C111.718 376.368 111.502 376.581 111.342 376.832C111.187 377.083 111.075 377.363 111.006 377.672C110.936 377.976 110.902 378.299 110.902 378.64V383H109.214ZM117.591 383.24C116.951 383.24 116.415 383.123 115.983 382.888C115.551 382.648 115.223 382.333 114.999 381.944C114.781 381.549 114.671 381.117 114.671 380.648C114.671 380.211 114.749 379.827 114.903 379.496C115.058 379.165 115.287 378.885 115.591 378.656C115.895 378.421 116.269 378.232 116.711 378.088C117.095 377.976 117.53 377.877 118.015 377.792C118.501 377.707 119.01 377.627 119.543 377.552C120.082 377.477 120.615 377.403 121.143 377.328L120.535 377.664C120.546 376.987 120.402 376.485 120.103 376.16C119.81 375.829 119.303 375.664 118.583 375.664C118.13 375.664 117.714 375.771 117.335 375.984C116.957 376.192 116.693 376.539 116.543 377.024L114.983 376.544C115.197 375.803 115.602 375.213 116.199 374.776C116.802 374.339 117.602 374.12 118.599 374.12C119.373 374.12 120.045 374.253 120.615 374.52C121.191 374.781 121.613 375.197 121.879 375.768C122.018 376.051 122.103 376.349 122.135 376.664C122.167 376.979 122.183 377.317 122.183 377.68V383H120.703V381.024L120.991 381.28C120.634 381.941 120.178 382.435 119.623 382.76C119.074 383.08 118.397 383.24 117.591 383.24ZM117.887 381.872C118.362 381.872 118.77 381.789 119.111 381.624C119.453 381.453 119.727 381.237 119.935 380.976C120.143 380.715 120.279 380.443 120.343 380.16C120.434 379.904 120.485 379.616 120.495 379.296C120.511 378.976 120.519 378.72 120.519 378.528L121.063 378.728C120.535 378.808 120.055 378.88 119.623 378.944C119.191 379.008 118.799 379.072 118.447 379.136C118.101 379.195 117.791 379.267 117.519 379.352C117.29 379.432 117.085 379.528 116.903 379.64C116.727 379.752 116.586 379.888 116.479 380.048C116.378 380.208 116.327 380.403 116.327 380.632C116.327 380.856 116.383 381.064 116.495 381.256C116.607 381.443 116.778 381.592 117.007 381.704C117.237 381.816 117.53 381.872 117.887 381.872ZM130.325 383V378.752C130.325 378.416 130.295 378.072 130.237 377.72C130.183 377.363 130.077 377.032 129.917 376.728C129.762 376.424 129.541 376.179 129.253 375.992C128.97 375.805 128.599 375.712 128.141 375.712C127.842 375.712 127.559 375.763 127.293 375.864C127.026 375.96 126.791 376.117 126.589 376.336C126.391 376.555 126.234 376.843 126.117 377.2C126.005 377.557 125.949 377.992 125.949 378.504L124.909 378.112C124.909 377.328 125.055 376.637 125.349 376.04C125.642 375.437 126.063 374.968 126.613 374.632C127.162 374.296 127.826 374.128 128.605 374.128C129.202 374.128 129.703 374.224 130.109 374.416C130.514 374.608 130.842 374.861 131.093 375.176C131.349 375.485 131.543 375.824 131.677 376.192C131.81 376.56 131.901 376.92 131.949 377.272C131.997 377.624 132.021 377.933 132.021 378.2V383H130.325ZM124.253 383V374.36H125.749V376.856H125.949V383H124.253ZM137.408 383.232C136.358 383.232 135.502 383 134.84 382.536C134.179 382.072 133.774 381.419 133.624 380.576L135.336 380.312C135.443 380.76 135.688 381.115 136.072 381.376C136.462 381.632 136.944 381.76 137.52 381.76C138.043 381.76 138.451 381.653 138.744 381.44C139.043 381.227 139.192 380.933 139.192 380.56C139.192 380.341 139.139 380.165 139.032 380.032C138.931 379.893 138.715 379.763 138.384 379.64C138.054 379.517 137.55 379.365 136.872 379.184C136.131 378.992 135.542 378.787 135.104 378.568C134.672 378.344 134.363 378.085 134.176 377.792C133.995 377.493 133.904 377.133 133.904 376.712C133.904 376.189 134.043 375.733 134.32 375.344C134.598 374.955 134.987 374.653 135.488 374.44C135.995 374.227 136.587 374.12 137.264 374.12C137.926 374.12 138.515 374.224 139.032 374.432C139.55 374.64 139.968 374.936 140.288 375.32C140.608 375.699 140.8 376.144 140.864 376.656L139.152 376.968C139.094 376.552 138.899 376.224 138.568 375.984C138.238 375.744 137.808 375.613 137.28 375.592C136.774 375.571 136.363 375.656 136.048 375.848C135.734 376.035 135.576 376.293 135.576 376.624C135.576 376.816 135.635 376.979 135.752 377.112C135.875 377.245 136.11 377.373 136.456 377.496C136.803 377.619 137.315 377.765 137.992 377.936C138.718 378.123 139.294 378.331 139.72 378.56C140.147 378.784 140.451 379.053 140.632 379.368C140.819 379.677 140.912 380.053 140.912 380.496C140.912 381.349 140.6 382.019 139.976 382.504C139.358 382.989 138.502 383.232 137.408 383.232ZM143.475 383V374.056C143.475 373.837 143.483 373.605 143.499 373.36C143.515 373.109 143.56 372.864 143.635 372.624C143.715 372.379 143.845 372.155 144.027 371.952C144.245 371.712 144.485 371.541 144.747 371.44C145.008 371.339 145.267 371.28 145.523 371.264C145.784 371.248 146.024 371.24 146.243 371.24H147.331V372.616H146.323C145.928 372.616 145.632 372.715 145.435 372.912C145.243 373.104 145.147 373.379 145.147 373.736V383H143.475ZM142.043 375.704V374.36H147.331V375.704H142.043ZM152.124 383.24C151.265 383.24 150.511 383.053 149.86 382.68C149.215 382.301 148.711 381.776 148.348 381.104C147.991 380.427 147.812 379.643 147.812 378.752C147.812 377.808 147.988 376.989 148.34 376.296C148.697 375.603 149.193 375.067 149.828 374.688C150.463 374.309 151.201 374.12 152.044 374.12C152.924 374.12 153.673 374.325 154.292 374.736C154.911 375.141 155.372 375.72 155.676 376.472C155.985 377.224 156.108 378.117 156.044 379.152H154.372V378.544C154.361 377.541 154.169 376.8 153.796 376.32C153.428 375.84 152.865 375.6 152.108 375.6C151.271 375.6 150.641 375.864 150.22 376.392C149.799 376.92 149.588 377.683 149.588 378.68C149.588 379.629 149.799 380.365 150.22 380.888C150.641 381.405 151.249 381.664 152.044 381.664C152.567 381.664 153.017 381.547 153.396 381.312C153.78 381.072 154.079 380.731 154.292 380.288L155.932 380.808C155.596 381.581 155.087 382.181 154.404 382.608C153.721 383.029 152.961 383.24 152.124 383.24ZM149.044 379.152V377.848H155.212V379.152H149.044ZM157.839 383V374.36H159.327V376.456L159.119 376.184C159.225 375.907 159.364 375.653 159.535 375.424C159.705 375.189 159.903 374.997 160.127 374.848C160.345 374.688 160.588 374.565 160.855 374.48C161.127 374.389 161.404 374.336 161.687 374.32C161.969 374.299 162.241 374.312 162.503 374.36V375.928C162.22 375.853 161.905 375.832 161.559 375.864C161.217 375.896 160.903 376.005 160.615 376.192C160.343 376.368 160.127 376.581 159.967 376.832C159.812 377.083 159.7 377.363 159.631 377.672C159.561 377.976 159.527 378.299 159.527 378.64V383H157.839ZM170.981 383.24C170.117 383.24 169.368 383.045 168.733 382.656C168.099 382.267 167.608 381.731 167.261 381.048C166.92 380.36 166.749 379.568 166.749 378.672C166.749 377.771 166.925 376.979 167.277 376.296C167.629 375.608 168.123 375.075 168.757 374.696C169.392 374.312 170.133 374.12 170.981 374.12C171.845 374.12 172.595 374.315 173.229 374.704C173.864 375.093 174.355 375.629 174.701 376.312C175.048 376.995 175.221 377.781 175.221 378.672C175.221 379.573 175.045 380.368 174.693 381.056C174.347 381.739 173.856 382.275 173.221 382.664C172.587 383.048 171.84 383.24 170.981 383.24ZM170.981 381.664C171.808 381.664 172.424 381.387 172.829 380.832C173.24 380.272 173.445 379.552 173.445 378.672C173.445 377.771 173.237 377.051 172.821 376.512C172.411 375.968 171.797 375.696 170.981 375.696C170.421 375.696 169.96 375.824 169.597 376.08C169.235 376.331 168.965 376.68 168.789 377.128C168.613 377.571 168.525 378.085 168.525 378.672C168.525 379.579 168.733 380.304 169.149 380.848C169.565 381.392 170.176 381.664 170.981 381.664ZM177.771 383V374.056C177.771 373.837 177.779 373.605 177.795 373.36C177.811 373.109 177.857 372.864 177.931 372.624C178.011 372.379 178.142 372.155 178.323 371.952C178.542 371.712 178.782 371.541 179.043 371.44C179.305 371.339 179.563 371.28 179.819 371.264C180.081 371.248 180.321 371.24 180.539 371.24H181.627V372.616H180.619C180.225 372.616 179.929 372.715 179.731 372.912C179.539 373.104 179.443 373.379 179.443 373.736V383H177.771ZM176.339 375.704V374.36H181.627V375.704H176.339ZM189.128 384.592V382.72H190.8V384.592H189.128ZM189.128 371.768V369.888H190.8V371.768H189.128ZM190.048 383.24C189.248 383.24 188.534 383.096 187.904 382.808C187.275 382.52 186.758 382.112 186.352 381.584C185.952 381.051 185.691 380.421 185.568 379.696L187.224 379.432C187.384 380.115 187.726 380.659 188.248 381.064C188.771 381.464 189.398 381.664 190.128 381.664C190.854 381.664 191.443 381.491 191.896 381.144C192.355 380.797 192.584 380.355 192.584 379.816C192.584 379.432 192.467 379.12 192.232 378.88C192.003 378.64 191.627 378.437 191.104 378.272L188.4 377.44C186.8 376.944 186 375.984 186 374.56C186 373.888 186.16 373.304 186.48 372.808C186.806 372.312 187.262 371.928 187.848 371.656C188.435 371.384 189.12 371.248 189.904 371.248C190.656 371.259 191.323 371.397 191.904 371.664C192.491 371.931 192.976 372.315 193.36 372.816C193.75 373.317 194.019 373.92 194.168 374.624L192.464 374.928C192.39 374.517 192.232 374.155 191.992 373.84C191.758 373.525 191.459 373.28 191.096 373.104C190.739 372.928 190.336 372.837 189.888 372.832C189.467 372.821 189.088 372.888 188.752 373.032C188.422 373.171 188.158 373.368 187.96 373.624C187.768 373.875 187.672 374.16 187.672 374.48C187.672 374.832 187.808 375.131 188.08 375.376C188.352 375.621 188.782 375.832 189.368 376.008L191.488 376.624C192.459 376.912 193.16 377.299 193.592 377.784C194.024 378.269 194.24 378.915 194.24 379.72C194.24 380.424 194.064 381.04 193.712 381.568C193.366 382.091 192.878 382.501 192.248 382.8C191.619 383.093 190.886 383.24 190.048 383.24ZM195.628 382.992L195.636 381.504L200.652 377.008C201.057 376.651 201.332 376.309 201.476 375.984C201.625 375.659 201.7 375.333 201.7 375.008C201.7 374.597 201.609 374.229 201.428 373.904C201.247 373.573 200.996 373.312 200.676 373.12C200.356 372.928 199.988 372.832 199.572 372.832C199.145 372.832 198.764 372.933 198.428 373.136C198.097 373.333 197.839 373.597 197.652 373.928C197.465 374.259 197.375 374.616 197.38 375H195.668C195.668 374.253 195.836 373.6 196.172 373.04C196.513 372.475 196.98 372.035 197.572 371.72C198.164 371.4 198.841 371.24 199.604 371.24C200.329 371.24 200.98 371.405 201.556 371.736C202.132 372.061 202.585 372.509 202.916 373.08C203.252 373.651 203.42 374.301 203.42 375.032C203.42 375.56 203.351 376.008 203.212 376.376C203.073 376.744 202.865 377.085 202.588 377.4C202.311 377.715 201.964 378.056 201.548 378.424L197.676 381.88L197.492 381.4H203.42V382.992H195.628ZM209.355 383.24C208.571 383.24 207.877 383.069 207.275 382.728C206.672 382.381 206.197 381.907 205.851 381.304C205.509 380.701 205.339 380.008 205.339 379.224V375.256C205.339 374.472 205.509 373.779 205.851 373.176C206.197 372.573 206.672 372.101 207.275 371.76C207.877 371.413 208.571 371.24 209.355 371.24C210.139 371.24 210.832 371.413 211.435 371.76C212.037 372.101 212.509 372.573 212.851 373.176C213.197 373.779 213.371 374.472 213.371 375.256V379.224C213.371 380.008 213.197 380.701 212.851 381.304C212.509 381.907 212.037 382.381 211.435 382.728C210.832 383.069 210.139 383.24 209.355 383.24ZM209.355 381.64C209.781 381.64 210.168 381.539 210.515 381.336C210.867 381.128 211.147 380.851 211.355 380.504C211.563 380.152 211.667 379.76 211.667 379.328V375.136C211.667 374.709 211.563 374.323 211.355 373.976C211.147 373.624 210.867 373.347 210.515 373.144C210.168 372.936 209.781 372.832 209.355 372.832C208.928 372.832 208.539 372.936 208.187 373.144C207.84 373.347 207.563 373.624 207.355 373.976C207.147 374.323 207.043 374.709 207.043 375.136V379.328C207.043 379.76 207.147 380.152 207.355 380.504C207.563 380.851 207.84 381.128 208.187 381.336C208.539 381.539 208.928 381.64 209.355 381.64ZM219.62 383.24C218.836 383.24 218.143 383.069 217.54 382.728C216.938 382.381 216.463 381.907 216.116 381.304C215.775 380.701 215.604 380.008 215.604 379.224V375.256C215.604 374.472 215.775 373.779 216.116 373.176C216.463 372.573 216.938 372.101 217.54 371.76C218.143 371.413 218.836 371.24 219.62 371.24C220.404 371.24 221.098 371.413 221.7 371.76C222.303 372.101 222.775 372.573 223.116 373.176C223.463 373.779 223.636 374.472 223.636 375.256V379.224C223.636 380.008 223.463 380.701 223.116 381.304C222.775 381.907 222.303 382.381 221.7 382.728C221.098 383.069 220.404 383.24 219.62 383.24ZM219.62 381.64C220.047 381.64 220.434 381.539 220.78 381.336C221.132 381.128 221.412 380.851 221.62 380.504C221.828 380.152 221.932 379.76 221.932 379.328V375.136C221.932 374.709 221.828 374.323 221.62 373.976C221.412 373.624 221.132 373.347 220.78 373.144C220.434 372.936 220.047 372.832 219.62 372.832C219.194 372.832 218.804 372.936 218.452 373.144C218.106 373.347 217.828 373.624 217.62 373.976C217.412 374.323 217.308 374.709 217.308 375.136V379.328C217.308 379.76 217.412 380.152 217.62 380.504C217.828 380.851 218.106 381.128 218.452 381.336C218.804 381.539 219.194 381.64 219.62 381.64ZM229.233 372.944V371.32H230.905V372.944H229.233ZM229.233 383V374.36H230.905V383H229.233ZM236.612 383.232C235.561 383.232 234.705 383 234.044 382.536C233.382 382.072 232.977 381.419 232.828 380.576L234.539 380.312C234.646 380.76 234.892 381.115 235.276 381.376C235.665 381.632 236.148 381.76 236.724 381.76C237.246 381.76 237.654 381.653 237.948 381.44C238.246 381.227 238.396 380.933 238.396 380.56C238.396 380.341 238.342 380.165 238.236 380.032C238.134 379.893 237.918 379.763 237.588 379.64C237.257 379.517 236.753 379.365 236.076 379.184C235.334 378.992 234.745 378.787 234.308 378.568C233.876 378.344 233.566 378.085 233.38 377.792C233.198 377.493 233.108 377.133 233.108 376.712C233.108 376.189 233.246 375.733 233.524 375.344C233.801 374.955 234.19 374.653 234.692 374.44C235.198 374.227 235.79 374.12 236.468 374.12C237.129 374.12 237.718 374.224 238.236 374.432C238.753 374.64 239.172 374.936 239.492 375.32C239.812 375.699 240.004 376.144 240.068 376.656L238.356 376.968C238.297 376.552 238.102 376.224 237.772 375.984C237.441 375.744 237.012 375.613 236.484 375.592C235.977 375.571 235.566 375.656 235.252 375.848C234.937 376.035 234.78 376.293 234.78 376.624C234.78 376.816 234.838 376.979 234.956 377.112C235.078 377.245 235.313 377.373 235.66 377.496C236.006 377.619 236.518 377.765 237.196 377.936C237.921 378.123 238.497 378.331 238.924 378.56C239.35 378.784 239.654 379.053 239.836 379.368C240.022 379.677 240.116 380.053 240.116 380.496C240.116 381.349 239.804 382.019 239.18 382.504C238.561 382.989 237.705 383.232 236.612 383.232ZM248.785 383.24C247.899 383.24 247.147 383.043 246.529 382.648C245.91 382.253 245.435 381.712 245.105 381.024C244.779 380.336 244.614 379.555 244.609 378.68C244.614 377.789 244.785 377.003 245.121 376.32C245.457 375.632 245.937 375.093 246.561 374.704C247.185 374.315 247.934 374.12 248.809 374.12C249.753 374.12 250.558 374.355 251.225 374.824C251.897 375.293 252.339 375.936 252.553 376.752L250.889 377.232C250.723 376.747 250.451 376.371 250.073 376.104C249.699 375.832 249.27 375.696 248.785 375.696C248.235 375.696 247.785 375.827 247.433 376.088C247.081 376.344 246.819 376.696 246.649 377.144C246.478 377.592 246.39 378.104 246.385 378.68C246.39 379.571 246.593 380.291 246.993 380.84C247.398 381.389 247.995 381.664 248.785 381.664C249.323 381.664 249.758 381.541 250.089 381.296C250.425 381.045 250.681 380.688 250.857 380.224L252.553 380.624C252.27 381.467 251.803 382.115 251.153 382.568C250.502 383.016 249.713 383.24 248.785 383.24ZM257.7 383.24C256.836 383.24 256.087 383.045 255.452 382.656C254.817 382.267 254.327 381.731 253.98 381.048C253.639 380.36 253.468 379.568 253.468 378.672C253.468 377.771 253.644 376.979 253.996 376.296C254.348 375.608 254.841 375.075 255.476 374.696C256.111 374.312 256.852 374.12 257.7 374.12C258.564 374.12 259.313 374.315 259.948 374.704C260.583 375.093 261.073 375.629 261.42 376.312C261.767 376.995 261.94 377.781 261.94 378.672C261.94 379.573 261.764 380.368 261.412 381.056C261.065 381.739 260.575 382.275 259.94 382.664C259.305 383.048 258.559 383.24 257.7 383.24ZM257.7 381.664C258.527 381.664 259.143 381.387 259.548 380.832C259.959 380.272 260.164 379.552 260.164 378.672C260.164 377.771 259.956 377.051 259.54 376.512C259.129 375.968 258.516 375.696 257.7 375.696C257.14 375.696 256.679 375.824 256.316 376.08C255.953 376.331 255.684 376.68 255.508 377.128C255.332 377.571 255.244 378.085 255.244 378.672C255.244 379.579 255.452 380.304 255.868 380.848C256.284 381.392 256.895 381.664 257.7 381.664ZM274.05 383L274.058 377.616C274.058 376.992 273.898 376.507 273.578 376.16C273.258 375.808 272.837 375.632 272.314 375.632C271.994 375.632 271.701 375.707 271.434 375.856C271.173 376 270.959 376.219 270.794 376.512C270.634 376.8 270.554 377.163 270.554 377.6L269.746 377.192C269.735 376.584 269.863 376.051 270.13 375.592C270.402 375.133 270.77 374.779 271.234 374.528C271.698 374.272 272.218 374.144 272.794 374.144C273.727 374.144 274.45 374.424 274.962 374.984C275.474 375.544 275.73 376.288 275.73 377.216L275.722 383H274.05ZM263.69 383V374.36H265.178V376.856H265.37V383H263.69ZM268.874 383L268.882 377.648C268.882 377.019 268.722 376.525 268.402 376.168C268.087 375.811 267.663 375.632 267.13 375.632C266.602 375.632 266.175 375.813 265.85 376.176C265.53 376.539 265.37 377.013 265.37 377.6L264.57 377.088C264.57 376.523 264.706 376.019 264.978 375.576C265.25 375.133 265.618 374.784 266.082 374.528C266.546 374.272 267.071 374.144 267.658 374.144C268.271 374.144 268.794 374.275 269.226 374.536C269.658 374.792 269.986 375.152 270.21 375.616C270.439 376.08 270.554 376.619 270.554 377.232L270.546 383H268.874ZM281.864 383.24C281.037 383.24 280.344 383.04 279.784 382.64C279.224 382.235 278.8 381.688 278.512 381C278.224 380.312 278.08 379.536 278.08 378.672C278.08 377.808 278.221 377.032 278.504 376.344C278.792 375.656 279.213 375.115 279.768 374.72C280.328 374.32 281.016 374.12 281.832 374.12C282.642 374.12 283.341 374.32 283.928 374.72C284.52 375.115 284.976 375.656 285.296 376.344C285.616 377.027 285.776 377.803 285.776 378.672C285.776 379.536 285.616 380.315 285.296 381.008C284.981 381.696 284.53 382.24 283.944 382.64C283.362 383.04 282.669 383.24 281.864 383.24ZM277.8 386.84V374.36H279.288V380.576H279.48V386.84H277.8ZM281.632 381.728C282.165 381.728 282.605 381.592 282.952 381.32C283.304 381.048 283.565 380.683 283.736 380.224C283.912 379.76 284 379.243 284 378.672C284 378.107 283.912 377.595 283.736 377.136C283.565 376.677 283.301 376.312 282.944 376.04C282.586 375.768 282.13 375.632 281.576 375.632C281.053 375.632 280.621 375.76 280.28 376.016C279.944 376.272 279.693 376.629 279.528 377.088C279.368 377.547 279.288 378.075 279.288 378.672C279.288 379.269 279.368 379.797 279.528 380.256C279.688 380.715 279.941 381.075 280.288 381.336C280.634 381.597 281.082 381.728 281.632 381.728ZM287.702 383V371.24H289.374V383H287.702ZM295.608 383.24C294.75 383.24 293.995 383.053 293.344 382.68C292.699 382.301 292.195 381.776 291.832 381.104C291.475 380.427 291.296 379.643 291.296 378.752C291.296 377.808 291.472 376.989 291.824 376.296C292.182 375.603 292.678 375.067 293.312 374.688C293.947 374.309 294.686 374.12 295.528 374.12C296.408 374.12 297.158 374.325 297.776 374.736C298.395 375.141 298.856 375.72 299.16 376.472C299.47 377.224 299.592 378.117 299.528 379.152H297.856V378.544C297.846 377.541 297.654 376.8 297.28 376.32C296.912 375.84 296.35 375.6 295.592 375.6C294.755 375.6 294.126 375.864 293.704 376.392C293.283 376.92 293.072 377.683 293.072 378.68C293.072 379.629 293.283 380.365 293.704 380.888C294.126 381.405 294.734 381.664 295.528 381.664C296.051 381.664 296.502 381.547 296.88 381.312C297.264 381.072 297.563 380.731 297.776 380.288L299.416 380.808C299.08 381.581 298.571 382.181 297.888 382.608C297.206 383.029 296.446 383.24 295.608 383.24ZM292.528 379.152V377.848H298.696V379.152H292.528ZM306.267 383C305.723 383.107 305.19 383.152 304.667 383.136C304.144 383.12 303.678 383.019 303.267 382.832C302.856 382.645 302.547 382.352 302.339 381.952C302.152 381.595 302.051 381.232 302.035 380.864C302.024 380.491 302.019 380.069 302.019 379.6V371.96H303.699V379.52C303.699 379.867 303.702 380.168 303.707 380.424C303.718 380.68 303.774 380.896 303.875 381.072C304.067 381.403 304.371 381.592 304.787 381.64C305.208 381.683 305.702 381.664 306.267 381.584V383ZM300.363 375.704V374.36H306.267V375.704H300.363ZM311.53 383.24C310.671 383.24 309.917 383.053 309.266 382.68C308.621 382.301 308.117 381.776 307.754 381.104C307.397 380.427 307.218 379.643 307.218 378.752C307.218 377.808 307.394 376.989 307.746 376.296C308.103 375.603 308.599 375.067 309.234 374.688C309.869 374.309 310.607 374.12 311.45 374.12C312.33 374.12 313.079 374.325 313.698 374.736C314.317 375.141 314.778 375.72 315.082 376.472C315.391 377.224 315.514 378.117 315.45 379.152H313.778V378.544C313.767 377.541 313.575 376.8 313.202 376.32C312.834 375.84 312.271 375.6 311.514 375.6C310.677 375.6 310.047 375.864 309.626 376.392C309.205 376.92 308.994 377.683 308.994 378.68C308.994 379.629 309.205 380.365 309.626 380.888C310.047 381.405 310.655 381.664 311.45 381.664C311.973 381.664 312.423 381.547 312.802 381.312C313.186 381.072 313.485 380.731 313.698 380.288L315.338 380.808C315.002 381.581 314.493 382.181 313.81 382.608C313.127 383.029 312.367 383.24 311.53 383.24ZM308.45 379.152V377.848H314.618V379.152H308.45ZM320.677 383.24C319.872 383.24 319.176 383.04 318.589 382.64C318.008 382.24 317.557 381.696 317.237 381.008C316.922 380.315 316.765 379.536 316.765 378.672C316.765 377.803 316.925 377.027 317.245 376.344C317.565 375.656 318.018 375.115 318.605 374.72C319.197 374.32 319.898 374.12 320.709 374.12C321.525 374.12 322.21 374.32 322.765 374.72C323.325 375.115 323.746 375.656 324.029 376.344C324.317 377.032 324.461 377.808 324.461 378.672C324.461 379.536 324.317 380.312 324.029 381C323.741 381.688 323.317 382.235 322.757 382.64C322.197 383.04 321.504 383.24 320.677 383.24ZM320.909 381.728C321.458 381.728 321.906 381.597 322.253 381.336C322.6 381.075 322.853 380.715 323.013 380.256C323.173 379.797 323.253 379.269 323.253 378.672C323.253 378.075 323.17 377.547 323.005 377.088C322.845 376.629 322.594 376.272 322.253 376.016C321.917 375.76 321.488 375.632 320.965 375.632C320.41 375.632 319.954 375.768 319.597 376.04C319.24 376.312 318.973 376.677 318.797 377.136C318.626 377.595 318.541 378.107 318.541 378.672C318.541 379.243 318.626 379.76 318.797 380.224C318.973 380.683 319.234 381.048 319.581 381.32C319.933 381.592 320.376 381.728 320.909 381.728ZM323.253 383V376.784H323.061V371.48H324.741V383H323.253Z" fill="#797979"/>
</svg>
