<svg width="350" height="56" viewBox="0 0 350 56" fill="none" xmlns="http://www.w3.org/2000/svg">
<rect x="0.75" y="0.75" width="348.5" height="54.5" rx="11.25" fill="white"/>
<rect x="0.75" y="0.75" width="348.5" height="54.5" rx="11.25" stroke="#E6E6E6" stroke-width="1.5"/>
<path d="M20.924 33V23.2H22.772V31.32H27.252V33H20.924ZM31.8719 33.196C31.1812 33.196 30.5606 33.056 30.0099 32.776C29.4592 32.496 29.0252 32.09 28.7079 31.558C28.3906 31.026 28.2319 30.3867 28.2319 29.64V29.416C28.2319 28.6693 28.3906 28.03 28.7079 27.498C29.0252 26.966 29.4592 26.56 30.0099 26.28C30.5606 26 31.1812 25.86 31.8719 25.86C32.5626 25.86 33.1832 26 33.7339 26.28C34.2846 26.56 34.7186 26.966 35.0359 27.498C35.3532 28.03 35.5119 28.6693 35.5119 29.416V29.64C35.5119 30.3867 35.3532 31.026 35.0359 31.558C34.7186 32.09 34.2846 32.496 33.7339 32.776C33.1832 33.056 32.5626 33.196 31.8719 33.196ZM31.8719 31.628C32.4132 31.628 32.8612 31.4553 33.2159 31.11C33.5706 30.7553 33.7479 30.2513 33.7479 29.598V29.458C33.7479 28.8047 33.5706 28.3053 33.2159 27.96C32.8706 27.6053 32.4226 27.428 31.8719 27.428C31.3306 27.428 30.8826 27.6053 30.5279 27.96C30.1732 28.3053 29.9959 28.8047 29.9959 29.458V29.598C29.9959 30.2513 30.1732 30.7553 30.5279 31.11C30.8826 31.4553 31.3306 31.628 31.8719 31.628ZM39.2962 33.196C38.8015 33.196 38.3582 33.112 37.9662 32.944C37.5742 32.7667 37.2615 32.5147 37.0282 32.188C36.8042 31.852 36.6922 31.446 36.6922 30.97C36.6922 30.494 36.8042 30.0973 37.0282 29.78C37.2615 29.4533 37.5788 29.2107 37.9802 29.052C38.3908 28.884 38.8575 28.8 39.3802 28.8H41.2842V28.408C41.2842 28.0813 41.1815 27.8153 40.9762 27.61C40.7708 27.3953 40.4442 27.288 39.9962 27.288C39.5575 27.288 39.2308 27.3907 39.0162 27.596C38.8015 27.792 38.6615 28.0487 38.5962 28.366L36.9722 27.82C37.0842 27.4653 37.2615 27.1433 37.5042 26.854C37.7562 26.5553 38.0875 26.3173 38.4982 26.14C38.9182 25.9533 39.4268 25.86 40.0242 25.86C40.9388 25.86 41.6622 26.0887 42.1942 26.546C42.7262 27.0033 42.9922 27.666 42.9922 28.534V31.124C42.9922 31.404 43.1228 31.544 43.3842 31.544H43.9442V33H42.7682C42.4228 33 42.1382 32.916 41.9142 32.748C41.6902 32.58 41.5782 32.356 41.5782 32.076V32.062H41.3122C41.2748 32.174 41.1908 32.3233 41.0602 32.51C40.9295 32.6873 40.7242 32.846 40.4442 32.986C40.1642 33.126 39.7815 33.196 39.2962 33.196ZM39.6042 31.768C40.0988 31.768 40.5002 31.6327 40.8082 31.362C41.1255 31.082 41.2842 30.7133 41.2842 30.256V30.116H39.5062C39.1795 30.116 38.9228 30.186 38.7362 30.326C38.5495 30.466 38.4562 30.662 38.4562 30.914C38.4562 31.166 38.5542 31.3713 38.7502 31.53C38.9462 31.6887 39.2308 31.768 39.6042 31.768ZM45.2339 33V26.056H46.9699V26.966H47.2219C47.3339 26.7233 47.5439 26.4947 47.8519 26.28C48.1599 26.056 48.6266 25.944 49.2519 25.944C49.7932 25.944 50.2646 26.07 50.6659 26.322C51.0766 26.5647 51.3939 26.9053 51.6179 27.344C51.8419 27.7733 51.9539 28.2773 51.9539 28.856V33H50.1899V28.996C50.1899 28.4733 50.0592 28.0813 49.7979 27.82C49.5459 27.5587 49.1819 27.428 48.7059 27.428C48.1646 27.428 47.7446 27.61 47.4459 27.974C47.1472 28.3287 46.9979 28.828 46.9979 29.472V33H45.2339ZM59.5715 33.196C59.0769 33.196 58.6335 33.112 58.2415 32.944C57.8495 32.7667 57.5369 32.5147 57.3035 32.188C57.0795 31.852 56.9675 31.446 56.9675 30.97C56.9675 30.494 57.0795 30.0973 57.3035 29.78C57.5369 29.4533 57.8542 29.2107 58.2555 29.052C58.6662 28.884 59.1329 28.8 59.6555 28.8H61.5595V28.408C61.5595 28.0813 61.4569 27.8153 61.2515 27.61C61.0462 27.3953 60.7195 27.288 60.2715 27.288C59.8329 27.288 59.5062 27.3907 59.2915 27.596C59.0769 27.792 58.9369 28.0487 58.8715 28.366L57.2475 27.82C57.3595 27.4653 57.5369 27.1433 57.7795 26.854C58.0315 26.5553 58.3629 26.3173 58.7735 26.14C59.1935 25.9533 59.7022 25.86 60.2995 25.86C61.2142 25.86 61.9375 26.0887 62.4695 26.546C63.0015 27.0033 63.2675 27.666 63.2675 28.534V31.124C63.2675 31.404 63.3982 31.544 63.6595 31.544H64.2195V33H63.0435C62.6982 33 62.4135 32.916 62.1895 32.748C61.9655 32.58 61.8535 32.356 61.8535 32.076V32.062H61.5875C61.5502 32.174 61.4662 32.3233 61.3355 32.51C61.2049 32.6873 60.9995 32.846 60.7195 32.986C60.4395 33.126 60.0569 33.196 59.5715 33.196ZM59.8795 31.768C60.3742 31.768 60.7755 31.6327 61.0835 31.362C61.4009 31.082 61.5595 30.7133 61.5595 30.256V30.116H59.7815C59.4549 30.116 59.1982 30.186 59.0115 30.326C58.8249 30.466 58.7315 30.662 58.7315 30.914C58.7315 31.166 58.8295 31.3713 59.0255 31.53C59.2215 31.6887 59.5062 31.768 59.8795 31.768ZM65.0366 29.556V29.332C65.0366 28.604 65.1812 27.9833 65.4706 27.47C65.7599 26.9473 66.1426 26.5507 66.6186 26.28C67.1039 26 67.6312 25.86 68.2006 25.86C68.8352 25.86 69.3159 25.972 69.6426 26.196C69.9692 26.42 70.2072 26.6533 70.3566 26.896H70.6086V26.056H72.3446V34.232C72.3446 34.708 72.2046 35.086 71.9246 35.366C71.6446 35.6553 71.2712 35.8 70.8046 35.8H66.1566V34.26H70.1886C70.4499 34.26 70.5806 34.12 70.5806 33.84V32.034H70.3286C70.2352 32.1833 70.1046 32.3373 69.9366 32.496C69.7686 32.6453 69.5446 32.7713 69.2646 32.874C68.9846 32.9767 68.6299 33.028 68.2006 33.028C67.6312 33.028 67.1039 32.8927 66.6186 32.622C66.1426 32.342 65.7599 31.9453 65.4706 31.432C65.1812 30.9093 65.0366 30.284 65.0366 29.556ZM68.7046 31.488C69.2459 31.488 69.6986 31.3153 70.0626 30.97C70.4266 30.6247 70.6086 30.1393 70.6086 29.514V29.374C70.6086 28.7393 70.4266 28.254 70.0626 27.918C69.7079 27.5727 69.2552 27.4 68.7046 27.4C68.1632 27.4 67.7106 27.5727 67.3466 27.918C66.9826 28.254 66.8006 28.7393 66.8006 29.374V29.514C66.8006 30.1393 66.9826 30.6247 67.3466 30.97C67.7106 31.3153 68.1632 31.488 68.7046 31.488ZM76.4563 33.196C75.9616 33.196 75.5183 33.112 75.1263 32.944C74.7343 32.7667 74.4216 32.5147 74.1883 32.188C73.9643 31.852 73.8523 31.446 73.8523 30.97C73.8523 30.494 73.9643 30.0973 74.1883 29.78C74.4216 29.4533 74.739 29.2107 75.1403 29.052C75.551 28.884 76.0176 28.8 76.5403 28.8H78.4443V28.408C78.4443 28.0813 78.3416 27.8153 78.1363 27.61C77.931 27.3953 77.6043 27.288 77.1563 27.288C76.7176 27.288 76.391 27.3907 76.1763 27.596C75.9616 27.792 75.8216 28.0487 75.7563 28.366L74.1323 27.82C74.2443 27.4653 74.4216 27.1433 74.6643 26.854C74.9163 26.5553 75.2476 26.3173 75.6583 26.14C76.0783 25.9533 76.587 25.86 77.1843 25.86C78.099 25.86 78.8223 26.0887 79.3543 26.546C79.8863 27.0033 80.1523 27.666 80.1523 28.534V31.124C80.1523 31.404 80.283 31.544 80.5443 31.544H81.1043V33H79.9283C79.583 33 79.2983 32.916 79.0743 32.748C78.8503 32.58 78.7383 32.356 78.7383 32.076V32.062H78.4723C78.435 32.174 78.351 32.3233 78.2203 32.51C78.0896 32.6873 77.8843 32.846 77.6043 32.986C77.3243 33.126 76.9416 33.196 76.4563 33.196ZM76.7643 31.768C77.259 31.768 77.6603 31.6327 77.9683 31.362C78.2856 31.082 78.4443 30.7133 78.4443 30.256V30.116H76.6663C76.3396 30.116 76.083 30.186 75.8963 30.326C75.7096 30.466 75.6163 30.662 75.6163 30.914C75.6163 31.166 75.7143 31.3713 75.9103 31.53C76.1063 31.6887 76.391 31.768 76.7643 31.768ZM82.3941 33V26.056H84.1581V33H82.3941ZM83.2761 25.244C82.9587 25.244 82.6881 25.1413 82.4641 24.936C82.2494 24.7307 82.1421 24.46 82.1421 24.124C82.1421 23.788 82.2494 23.5173 82.4641 23.312C82.6881 23.1067 82.9587 23.004 83.2761 23.004C83.6027 23.004 83.8734 23.1067 84.0881 23.312C84.3027 23.5173 84.4101 23.788 84.4101 24.124C84.4101 24.46 84.3027 24.7307 84.0881 24.936C83.8734 25.1413 83.6027 25.244 83.2761 25.244ZM86.1128 33V26.056H87.8488V26.966H88.1008C88.2128 26.7233 88.4228 26.4947 88.7308 26.28C89.0388 26.056 89.5055 25.944 90.1308 25.944C90.6721 25.944 91.1435 26.07 91.5448 26.322C91.9555 26.5647 92.2728 26.9053 92.4968 27.344C92.7208 27.7733 92.8328 28.2773 92.8328 28.856V33H91.0688V28.996C91.0688 28.4733 90.9381 28.0813 90.6768 27.82C90.4248 27.5587 90.0608 27.428 89.5848 27.428C89.0435 27.428 88.6235 27.61 88.3248 27.974C88.0261 28.3287 87.8768 28.828 87.8768 29.472V33H86.1128ZM97.6238 33.196C96.7184 33.196 95.9764 33 95.3978 32.608C94.8191 32.216 94.4691 31.656 94.3478 30.928L95.9718 30.508C96.0371 30.8347 96.1444 31.0913 96.2938 31.278C96.4524 31.4647 96.6438 31.6 96.8678 31.684C97.1011 31.7587 97.3531 31.796 97.6238 31.796C98.0344 31.796 98.3378 31.726 98.5338 31.586C98.7298 31.4367 98.8278 31.2547 98.8278 31.04C98.8278 30.8253 98.7344 30.662 98.5478 30.55C98.3611 30.4287 98.0624 30.3307 97.6518 30.256L97.2598 30.186C96.7744 30.0927 96.3311 29.9667 95.9298 29.808C95.5284 29.64 95.2064 29.4113 94.9638 29.122C94.7211 28.8327 94.5998 28.4593 94.5998 28.002C94.5998 27.3113 94.8518 26.784 95.3558 26.42C95.8598 26.0467 96.5224 25.86 97.3438 25.86C98.1184 25.86 98.7624 26.0327 99.2758 26.378C99.7891 26.7233 100.125 27.176 100.284 27.736L98.6458 28.24C98.5711 27.8853 98.4171 27.6333 98.1838 27.484C97.9598 27.3347 97.6798 27.26 97.3438 27.26C97.0078 27.26 96.7511 27.3207 96.5738 27.442C96.3964 27.554 96.3078 27.7127 96.3078 27.918C96.3078 28.142 96.4011 28.31 96.5878 28.422C96.7744 28.5247 97.0264 28.604 97.3438 28.66L97.7358 28.73C98.2584 28.8233 98.7298 28.9493 99.1498 29.108C99.5791 29.2573 99.9151 29.4767 100.158 29.766C100.41 30.046 100.536 30.4287 100.536 30.914C100.536 31.642 100.27 32.2067 99.7378 32.608C99.2151 33 98.5104 33.196 97.6238 33.196ZM104.605 33C104.148 33 103.774 32.86 103.485 32.58C103.205 32.2907 103.065 31.908 103.065 31.432V27.512H101.329V26.056H103.065V23.9H104.829V26.056H106.733V27.512H104.829V31.124C104.829 31.404 104.96 31.544 105.221 31.544H106.565V33H104.605ZM111.884 33V26.056H113.62V26.84H113.872C113.975 26.56 114.143 26.3547 114.376 26.224C114.619 26.0933 114.899 26.028 115.216 26.028H116.056V27.596H115.188C114.74 27.596 114.372 27.7173 114.082 27.96C113.793 28.1933 113.648 28.5573 113.648 29.052V33H111.884ZM120.353 33.196C119.662 33.196 119.051 33.0513 118.519 32.762C117.996 32.4633 117.586 32.048 117.287 31.516C116.998 30.9747 116.853 30.34 116.853 29.612V29.444C116.853 28.716 116.998 28.086 117.287 27.554C117.576 27.0127 117.982 26.5973 118.505 26.308C119.028 26.0093 119.634 25.86 120.325 25.86C121.006 25.86 121.599 26.014 122.103 26.322C122.607 26.6207 122.999 27.0407 123.279 27.582C123.559 28.114 123.699 28.7347 123.699 29.444V30.046H118.645C118.664 30.522 118.841 30.9093 119.177 31.208C119.513 31.5067 119.924 31.656 120.409 31.656C120.904 31.656 121.268 31.5487 121.501 31.334C121.734 31.1193 121.912 30.8813 122.033 30.62L123.475 31.376C123.344 31.6187 123.153 31.8847 122.901 32.174C122.658 32.454 122.332 32.6967 121.921 32.902C121.51 33.098 120.988 33.196 120.353 33.196ZM118.659 28.73H121.907C121.87 28.3287 121.706 28.0067 121.417 27.764C121.137 27.5213 120.768 27.4 120.311 27.4C119.835 27.4 119.457 27.5213 119.177 27.764C118.897 28.0067 118.724 28.3287 118.659 28.73ZM128.153 33.196C127.248 33.196 126.506 33 125.927 32.608C125.348 32.216 124.998 31.656 124.877 30.928L126.501 30.508C126.566 30.8347 126.674 31.0913 126.823 31.278C126.982 31.4647 127.173 31.6 127.397 31.684C127.63 31.7587 127.882 31.796 128.153 31.796C128.564 31.796 128.867 31.726 129.063 31.586C129.259 31.4367 129.357 31.2547 129.357 31.04C129.357 30.8253 129.264 30.662 129.077 30.55C128.89 30.4287 128.592 30.3307 128.181 30.256L127.789 30.186C127.304 30.0927 126.86 29.9667 126.459 29.808C126.058 29.64 125.736 29.4113 125.493 29.122C125.25 28.8327 125.129 28.4593 125.129 28.002C125.129 27.3113 125.381 26.784 125.885 26.42C126.389 26.0467 127.052 25.86 127.873 25.86C128.648 25.86 129.292 26.0327 129.805 26.378C130.318 26.7233 130.654 27.176 130.813 27.736L129.175 28.24C129.1 27.8853 128.946 27.6333 128.713 27.484C128.489 27.3347 128.209 27.26 127.873 27.26C127.537 27.26 127.28 27.3207 127.103 27.442C126.926 27.554 126.837 27.7127 126.837 27.918C126.837 28.142 126.93 28.31 127.117 28.422C127.304 28.5247 127.556 28.604 127.873 28.66L128.265 28.73C128.788 28.8233 129.259 28.9493 129.679 29.108C130.108 29.2573 130.444 29.4767 130.687 29.766C130.939 30.046 131.065 30.4287 131.065 30.914C131.065 31.642 130.799 32.2067 130.267 32.608C129.744 33 129.04 33.196 128.153 33.196ZM132.611 33V26.056H134.375V33H132.611ZM133.493 25.244C133.176 25.244 132.905 25.1413 132.681 24.936C132.466 24.7307 132.359 24.46 132.359 24.124C132.359 23.788 132.466 23.5173 132.681 23.312C132.905 23.1067 133.176 23.004 133.493 23.004C133.82 23.004 134.09 23.1067 134.305 23.312C134.52 23.5173 134.627 23.788 134.627 24.124C134.627 24.46 134.52 24.7307 134.305 24.936C134.09 25.1413 133.82 25.244 133.493 25.244ZM139.13 33.196C138.579 33.196 138.061 33.0607 137.576 32.79C137.1 32.51 136.717 32.104 136.428 31.572C136.138 31.04 135.994 30.396 135.994 29.64V29.416C135.994 28.66 136.138 28.016 136.428 27.484C136.717 26.952 137.1 26.5507 137.576 26.28C138.052 26 138.57 25.86 139.13 25.86C139.55 25.86 139.9 25.9113 140.18 26.014C140.469 26.1073 140.702 26.2287 140.88 26.378C141.057 26.5273 141.192 26.686 141.286 26.854H141.538V23.2H143.302V33H141.566V32.16H141.314C141.155 32.4213 140.908 32.6593 140.572 32.874C140.245 33.0887 139.764 33.196 139.13 33.196ZM139.662 31.656C140.203 31.656 140.656 31.4833 141.02 31.138C141.384 30.7833 141.566 30.27 141.566 29.598V29.458C141.566 28.786 141.384 28.2773 141.02 27.932C140.665 27.5773 140.212 27.4 139.662 27.4C139.12 27.4 138.668 27.5773 138.304 27.932C137.94 28.2773 137.758 28.786 137.758 29.458V29.598C137.758 30.27 137.94 30.7833 138.304 31.138C138.668 31.4833 139.12 31.656 139.662 31.656ZM148.421 33.196C147.731 33.196 147.119 33.0513 146.587 32.762C146.065 32.4633 145.654 32.048 145.355 31.516C145.066 30.9747 144.921 30.34 144.921 29.612V29.444C144.921 28.716 145.066 28.086 145.355 27.554C145.645 27.0127 146.051 26.5973 146.573 26.308C147.096 26.0093 147.703 25.86 148.393 25.86C149.075 25.86 149.667 26.014 150.171 26.322C150.675 26.6207 151.067 27.0407 151.347 27.582C151.627 28.114 151.767 28.7347 151.767 29.444V30.046H146.713C146.732 30.522 146.909 30.9093 147.245 31.208C147.581 31.5067 147.992 31.656 148.477 31.656C148.972 31.656 149.336 31.5487 149.569 31.334C149.803 31.1193 149.98 30.8813 150.101 30.62L151.543 31.376C151.413 31.6187 151.221 31.8847 150.969 32.174C150.727 32.454 150.4 32.6967 149.989 32.902C149.579 33.098 149.056 33.196 148.421 33.196ZM146.727 28.73H149.975C149.938 28.3287 149.775 28.0067 149.485 27.764C149.205 27.5213 148.837 27.4 148.379 27.4C147.903 27.4 147.525 27.5213 147.245 27.764C146.965 28.0067 146.793 28.3287 146.727 28.73ZM153.337 33V26.056H155.073V26.966H155.325C155.437 26.7233 155.647 26.4947 155.955 26.28C156.263 26.056 156.73 25.944 157.355 25.944C157.897 25.944 158.368 26.07 158.769 26.322C159.18 26.5647 159.497 26.9053 159.721 27.344C159.945 27.7733 160.057 28.2773 160.057 28.856V33H158.293V28.996C158.293 28.4733 158.163 28.0813 157.901 27.82C157.649 27.5587 157.285 27.428 156.809 27.428C156.268 27.428 155.848 27.61 155.549 27.974C155.251 28.3287 155.101 28.828 155.101 29.472V33H153.337ZM164.433 33C163.976 33 163.602 32.86 163.313 32.58C163.033 32.2907 162.893 31.908 162.893 31.432V27.512H161.157V26.056H162.893V23.9H164.657V26.056H166.561V27.512H164.657V31.124C164.657 31.404 164.788 31.544 165.049 31.544H166.393V33H164.433ZM168.158 33V26.056H169.922V33H168.158ZM169.04 25.244C168.722 25.244 168.452 25.1413 168.228 24.936C168.013 24.7307 167.906 24.46 167.906 24.124C167.906 23.788 168.013 23.5173 168.228 23.312C168.452 23.1067 168.722 23.004 169.04 23.004C169.366 23.004 169.637 23.1067 169.852 23.312C170.066 23.5173 170.174 23.788 170.174 24.124C170.174 24.46 170.066 24.7307 169.852 24.936C169.637 25.1413 169.366 25.244 169.04 25.244ZM174.032 33.196C173.538 33.196 173.094 33.112 172.702 32.944C172.31 32.7667 171.998 32.5147 171.764 32.188C171.54 31.852 171.428 31.446 171.428 30.97C171.428 30.494 171.54 30.0973 171.764 29.78C171.998 29.4533 172.315 29.2107 172.716 29.052C173.127 28.884 173.594 28.8 174.116 28.8H176.02V28.408C176.02 28.0813 175.918 27.8153 175.712 27.61C175.507 27.3953 175.18 27.288 174.732 27.288C174.294 27.288 173.967 27.3907 173.752 27.596C173.538 27.792 173.398 28.0487 173.332 28.366L171.708 27.82C171.82 27.4653 171.998 27.1433 172.24 26.854C172.492 26.5553 172.824 26.3173 173.234 26.14C173.654 25.9533 174.163 25.86 174.76 25.86C175.675 25.86 176.398 26.0887 176.93 26.546C177.462 27.0033 177.728 27.666 177.728 28.534V31.124C177.728 31.404 177.859 31.544 178.12 31.544H178.68V33H177.504C177.159 33 176.874 32.916 176.65 32.748C176.426 32.58 176.314 32.356 176.314 32.076V32.062H176.048C176.011 32.174 175.927 32.3233 175.796 32.51C175.666 32.6873 175.46 32.846 175.18 32.986C174.9 33.126 174.518 33.196 174.032 33.196ZM174.34 31.768C174.835 31.768 175.236 31.6327 175.544 31.362C175.862 31.082 176.02 30.7133 176.02 30.256V30.116H174.242C173.916 30.116 173.659 30.186 173.472 30.326C173.286 30.466 173.192 30.662 173.192 30.914C173.192 31.166 173.29 31.3713 173.486 31.53C173.682 31.6887 173.967 31.768 174.34 31.768ZM179.97 33V23.2H181.734V33H179.97ZM187.244 35.8V26.056H188.98V26.896H189.232C189.39 26.6253 189.638 26.3873 189.974 26.182C190.31 25.9673 190.79 25.86 191.416 25.86C191.976 25.86 192.494 26 192.97 26.28C193.446 26.5507 193.828 26.952 194.118 27.484C194.407 28.016 194.552 28.66 194.552 29.416V29.64C194.552 30.396 194.407 31.04 194.118 31.572C193.828 32.104 193.446 32.51 192.97 32.79C192.494 33.0607 191.976 33.196 191.416 33.196C190.996 33.196 190.641 33.1447 190.352 33.042C190.072 32.9487 189.843 32.8273 189.666 32.678C189.498 32.5193 189.362 32.3607 189.26 32.202H189.008V35.8H187.244ZM190.884 31.656C191.434 31.656 191.887 31.4833 192.242 31.138C192.606 30.7833 192.788 30.27 192.788 29.598V29.458C192.788 28.786 192.606 28.2773 192.242 27.932C191.878 27.5773 191.425 27.4 190.884 27.4C190.342 27.4 189.89 27.5773 189.526 27.932C189.162 28.2773 188.98 28.786 188.98 29.458V29.598C188.98 30.27 189.162 30.7833 189.526 31.138C189.89 31.4833 190.342 31.656 190.884 31.656ZM196.171 33V26.056H197.907V26.84H198.159C198.262 26.56 198.43 26.3547 198.663 26.224C198.906 26.0933 199.186 26.028 199.503 26.028H200.343V27.596H199.475C199.027 27.596 198.659 27.7173 198.369 27.96C198.08 28.1933 197.935 28.5573 197.935 29.052V33H196.171ZM204.78 33.196C204.089 33.196 203.469 33.056 202.918 32.776C202.367 32.496 201.933 32.09 201.616 31.558C201.299 31.026 201.14 30.3867 201.14 29.64V29.416C201.14 28.6693 201.299 28.03 201.616 27.498C201.933 26.966 202.367 26.56 202.918 26.28C203.469 26 204.089 25.86 204.78 25.86C205.471 25.86 206.091 26 206.642 26.28C207.193 26.56 207.627 26.966 207.944 27.498C208.261 28.03 208.42 28.6693 208.42 29.416V29.64C208.42 30.3867 208.261 31.026 207.944 31.558C207.627 32.09 207.193 32.496 206.642 32.776C206.091 33.056 205.471 33.196 204.78 33.196ZM204.78 31.628C205.321 31.628 205.769 31.4553 206.124 31.11C206.479 30.7553 206.656 30.2513 206.656 29.598V29.458C206.656 28.8047 206.479 28.3053 206.124 27.96C205.779 27.6053 205.331 27.428 204.78 27.428C204.239 27.428 203.791 27.6053 203.436 27.96C203.081 28.3053 202.904 28.8047 202.904 29.458V29.598C202.904 30.2513 203.081 30.7553 203.436 31.11C203.791 31.4553 204.239 31.628 204.78 31.628ZM210.048 35.8V26.056H211.784V26.896H212.036C212.195 26.6253 212.442 26.3873 212.778 26.182C213.114 25.9673 213.595 25.86 214.22 25.86C214.78 25.86 215.298 26 215.774 26.28C216.25 26.5507 216.633 26.952 216.922 27.484C217.212 28.016 217.356 28.66 217.356 29.416V29.64C217.356 30.396 217.212 31.04 216.922 31.572C216.633 32.104 216.25 32.51 215.774 32.79C215.298 33.0607 214.78 33.196 214.22 33.196C213.8 33.196 213.446 33.1447 213.156 33.042C212.876 32.9487 212.648 32.8273 212.47 32.678C212.302 32.5193 212.167 32.3607 212.064 32.202H211.812V35.8H210.048ZM213.688 31.656C214.239 31.656 214.692 31.4833 215.046 31.138C215.41 30.7833 215.592 30.27 215.592 29.598V29.458C215.592 28.786 215.41 28.2773 215.046 27.932C214.682 27.5773 214.23 27.4 213.688 27.4C213.147 27.4 212.694 27.5773 212.33 27.932C211.966 28.2773 211.784 28.786 211.784 29.458V29.598C211.784 30.27 211.966 30.7833 212.33 31.138C212.694 31.4833 213.147 31.656 213.688 31.656ZM222.14 33.196C221.449 33.196 220.838 33.0513 220.306 32.762C219.783 32.4633 219.373 32.048 219.074 31.516C218.785 30.9747 218.64 30.34 218.64 29.612V29.444C218.64 28.716 218.785 28.086 219.074 27.554C219.363 27.0127 219.769 26.5973 220.292 26.308C220.815 26.0093 221.421 25.86 222.112 25.86C222.793 25.86 223.386 26.014 223.89 26.322C224.394 26.6207 224.786 27.0407 225.066 27.582C225.346 28.114 225.486 28.7347 225.486 29.444V30.046H220.432C220.451 30.522 220.628 30.9093 220.964 31.208C221.3 31.5067 221.711 31.656 222.196 31.656C222.691 31.656 223.055 31.5487 223.288 31.334C223.521 31.1193 223.699 30.8813 223.82 30.62L225.262 31.376C225.131 31.6187 224.94 31.8847 224.688 32.174C224.445 32.454 224.119 32.6967 223.708 32.902C223.297 33.098 222.775 33.196 222.14 33.196ZM220.446 28.73H223.694C223.657 28.3287 223.493 28.0067 223.204 27.764C222.924 27.5213 222.555 27.4 222.098 27.4C221.622 27.4 221.244 27.5213 220.964 27.764C220.684 28.0067 220.511 28.3287 220.446 28.73ZM227.056 33V26.056H228.792V26.84H229.044C229.147 26.56 229.315 26.3547 229.548 26.224C229.791 26.0933 230.071 26.028 230.388 26.028H231.228V27.596H230.36C229.912 27.596 229.544 27.7173 229.254 27.96C228.965 28.1933 228.82 28.5573 228.82 29.052V33H227.056ZM235.267 33C234.81 33 234.436 32.86 234.147 32.58C233.867 32.2907 233.727 31.908 233.727 31.432V27.512H231.991V26.056H233.727V23.9H235.491V26.056H237.395V27.512H235.491V31.124C235.491 31.404 235.622 31.544 235.883 31.544H237.227V33H235.267ZM239.748 35.8V34.26H243.528C243.789 34.26 243.92 34.12 243.92 33.84V32.09H243.668C243.593 32.2487 243.476 32.4073 243.318 32.566C243.159 32.7247 242.944 32.8553 242.674 32.958C242.403 33.0607 242.058 33.112 241.638 33.112C241.096 33.112 240.62 32.9907 240.21 32.748C239.808 32.496 239.496 32.1507 239.272 31.712C239.048 31.2733 238.936 30.7693 238.936 30.2V26.056H240.7V30.06C240.7 30.5827 240.826 30.9747 241.078 31.236C241.339 31.4973 241.708 31.628 242.184 31.628C242.725 31.628 243.145 31.4507 243.444 31.096C243.742 30.732 243.892 30.228 243.892 29.584V26.056H245.656V34.232C245.656 34.708 245.516 35.086 245.236 35.366C244.956 35.6553 244.582 35.8 244.116 35.8H239.748Z" fill="#111111"/>
<path d="M328.411 31.0384C328.192 31.0388 327.975 30.9959 327.773 30.9123C327.571 30.8286 327.387 30.7058 327.232 30.5509L322.822 26.1393L324 24.9609L328.411 29.3718L332.822 24.9609L334 26.1393L329.589 30.5501C329.435 30.7051 329.251 30.8281 329.049 30.9119C328.847 30.9957 328.63 31.0387 328.411 31.0384Z" fill="#00B76A"/>
</svg>
