<svg width="359" height="371" viewBox="0 0 359 371" fill="none" xmlns="http://www.w3.org/2000/svg">
<rect x="0.5" y="0.5" width="358" height="370" rx="23.5" fill="white"/>
<rect x="0.5" y="0.5" width="358" height="370" rx="23.5" stroke="#E6E6E6"/>
<g filter="url(#filter0_d_1131_3250)">
<rect x="8" y="8" width="343" height="95" rx="16" fill="#F5FAFF" shape-rendering="crispEdges"/>
<path d="M35.756 48.168C35.148 48.168 34.604 48.06 34.124 47.844C33.644 47.628 33.264 47.304 32.984 46.872C32.712 46.432 32.576 45.884 32.576 45.228V44.976H33.572V45.228C33.572 45.924 33.776 46.444 34.184 46.788C34.592 47.124 35.116 47.292 35.756 47.292C36.412 47.292 36.912 47.144 37.256 46.848C37.6 46.552 37.772 46.18 37.772 45.732C37.772 45.42 37.692 45.172 37.532 44.988C37.38 44.804 37.164 44.656 36.884 44.544C36.604 44.424 36.276 44.32 35.9 44.232L35.276 44.076C34.788 43.948 34.356 43.792 33.98 43.608C33.604 43.424 33.308 43.184 33.092 42.888C32.884 42.584 32.78 42.196 32.78 41.724C32.78 41.252 32.896 40.844 33.128 40.5C33.368 40.156 33.7 39.892 34.124 39.708C34.556 39.524 35.052 39.432 35.612 39.432C36.18 39.432 36.688 39.532 37.136 39.732C37.592 39.924 37.948 40.212 38.204 40.596C38.468 40.972 38.6 41.448 38.6 42.024V42.528H37.604V42.024C37.604 41.616 37.516 41.288 37.34 41.04C37.172 40.792 36.936 40.608 36.632 40.488C36.336 40.368 35.996 40.308 35.612 40.308C35.06 40.308 34.616 40.432 34.28 40.68C33.944 40.92 33.776 41.264 33.776 41.712C33.776 42.008 33.848 42.248 33.992 42.432C34.136 42.616 34.34 42.768 34.604 42.888C34.868 43 35.184 43.1 35.552 43.188L36.176 43.344C36.664 43.448 37.1 43.592 37.484 43.776C37.876 43.952 38.188 44.196 38.42 44.508C38.652 44.812 38.768 45.212 38.768 45.708C38.768 46.204 38.644 46.636 38.396 47.004C38.148 47.372 37.796 47.66 37.34 47.868C36.892 48.068 36.364 48.168 35.756 48.168ZM42.5154 48C42.1794 48 41.9194 47.908 41.7354 47.724C41.5594 47.54 41.4714 47.288 41.4714 46.968V42.96H39.7074V42.132H41.4714V40.044H42.4194V42.132H44.3394V42.96H42.4194V46.824C42.4194 47.064 42.5354 47.184 42.7674 47.184H44.0754V48H42.5154ZM48.352 48.168C47.76 48.168 47.24 48.044 46.792 47.796C46.344 47.54 45.996 47.184 45.748 46.728C45.5 46.272 45.376 45.744 45.376 45.144V45C45.376 44.392 45.5 43.86 45.748 43.404C45.996 42.948 46.34 42.596 46.78 42.348C47.22 42.092 47.724 41.964 48.292 41.964C48.844 41.964 49.332 42.084 49.756 42.324C50.18 42.556 50.512 42.892 50.752 43.332C50.992 43.772 51.112 44.288 51.112 44.88V45.312H46.324C46.348 45.944 46.552 46.44 46.936 46.8C47.32 47.152 47.8 47.328 48.376 47.328C48.88 47.328 49.268 47.212 49.54 46.98C49.812 46.748 50.02 46.472 50.164 46.152L50.98 46.548C50.86 46.796 50.692 47.044 50.476 47.292C50.268 47.54 49.992 47.748 49.648 47.916C49.312 48.084 48.88 48.168 48.352 48.168ZM46.336 44.532H50.152C50.12 43.988 49.932 43.564 49.588 43.26C49.252 42.956 48.82 42.804 48.292 42.804C47.756 42.804 47.316 42.956 46.972 43.26C46.628 43.564 46.416 43.988 46.336 44.532ZM52.7655 50.4V42.132H53.6895V43.104H53.8575C54.0095 42.808 54.2535 42.544 54.5895 42.312C54.9335 42.08 55.4095 41.964 56.0175 41.964C56.5215 41.964 56.9815 42.088 57.3975 42.336C57.8215 42.576 58.1575 42.92 58.4055 43.368C58.6615 43.816 58.7895 44.356 58.7895 44.988V45.144C58.7895 45.768 58.6655 46.308 58.4175 46.764C58.1695 47.22 57.8335 47.568 57.4095 47.808C56.9935 48.048 56.5295 48.168 56.0175 48.168C55.6095 48.168 55.2615 48.112 54.9735 48C54.6935 47.896 54.4655 47.76 54.2895 47.592C54.1135 47.424 53.9775 47.252 53.8815 47.076H53.7135V50.4H52.7655ZM55.7655 47.328C56.3735 47.328 56.8655 47.136 57.2415 46.752C57.6255 46.36 57.8175 45.816 57.8175 45.12V45.012C57.8175 44.316 57.6255 43.776 57.2415 43.392C56.8655 43 56.3735 42.804 55.7655 42.804C55.1655 42.804 54.6695 43 54.2775 43.392C53.8935 43.776 53.7015 44.316 53.7015 45.012V45.12C53.7015 45.816 53.8935 46.36 54.2775 46.752C54.6695 47.136 55.1655 47.328 55.7655 47.328ZM65.6582 48V40.248H65.4782L63.8462 43.236H62.7902L64.7942 39.6H66.6302V48H65.6582Z" fill="#003673"/>
<path d="M35.48 71L32.075 60.2H33.935L36.785 69.245L39.6725 60.2H41.5325L38.1275 71H35.48ZM45.4483 71.225C44.6283 71.225 43.9083 71.0475 43.2883 70.6925C42.6683 70.3375 42.1833 69.845 41.8333 69.215C41.4883 68.585 41.3158 67.86 41.3158 67.04C41.3158 66.155 41.4858 65.3875 41.8258 64.7375C42.1658 64.0825 42.6383 63.575 43.2433 63.215C43.8483 62.855 44.5483 62.675 45.3433 62.675C46.1833 62.675 46.8958 62.8725 47.4808 63.2675C48.0708 63.6575 48.5083 64.21 48.7933 64.925C49.0783 65.64 49.1858 66.4825 49.1158 67.4525H47.3233V66.7925C47.3183 65.9125 47.1633 65.27 46.8583 64.865C46.5533 64.46 46.0733 64.2575 45.4183 64.2575C44.6783 64.2575 44.1283 64.4875 43.7683 64.9475C43.4083 65.4025 43.2283 66.07 43.2283 66.95C43.2283 67.77 43.4083 68.405 43.7683 68.855C44.1283 69.305 44.6533 69.53 45.3433 69.53C45.7883 69.53 46.1708 69.4325 46.4908 69.2375C46.8158 69.0375 47.0658 68.75 47.2408 68.375L49.0258 68.915C48.7158 69.645 48.2358 70.2125 47.5858 70.6175C46.9408 71.0225 46.2283 71.225 45.4483 71.225ZM42.6583 67.4525V66.0875H48.2308V67.4525H42.6583ZM50.7893 71V62.9H52.3868V64.8725L52.1918 64.6175C52.2918 64.3475 52.4243 64.1025 52.5893 63.8825C52.7593 63.6575 52.9618 63.4725 53.1968 63.3275C53.3968 63.1925 53.6168 63.0875 53.8568 63.0125C54.1018 62.9325 54.3518 62.885 54.6068 62.87C54.8618 62.85 55.1093 62.86 55.3493 62.9V64.5875C55.1093 64.5175 54.8318 64.495 54.5168 64.52C54.2068 64.545 53.9268 64.6325 53.6768 64.7825C53.4268 64.9175 53.2218 65.09 53.0618 65.3C52.9068 65.51 52.7918 65.75 52.7168 66.02C52.6418 66.285 52.6043 66.5725 52.6043 66.8825V71H50.7893ZM56.9305 61.67V60.0125H58.738V61.67H56.9305ZM56.9305 71V62.9H58.738V71H56.9305ZM61.6896 71V62.7725C61.6896 62.5675 61.6971 62.3425 61.7121 62.0975C61.7271 61.8475 61.7696 61.6 61.8396 61.355C61.9096 61.11 62.0371 60.8875 62.2221 60.6875C62.4521 60.4325 62.6996 60.2575 62.9646 60.1625C63.2346 60.0625 63.4996 60.0075 63.7596 59.9975C64.0196 59.9825 64.2471 59.975 64.4421 59.975H65.4546V61.445H64.5171C64.1721 61.445 63.9146 61.5325 63.7446 61.7075C63.5796 61.8775 63.4971 62.1025 63.4971 62.3825V71H61.6896ZM60.3846 64.3175V62.9H65.4546V64.3175H60.3846ZM67.7185 74.6L69.2785 70.3175L69.3085 71.5775L65.776 62.9H67.6585L70.1635 69.32H69.6835L72.121 62.9H73.9285L69.4135 74.6H67.7185ZM79.115 74.6L80.675 70.3175L80.705 71.5775L77.1725 62.9H79.055L81.56 69.32H81.08L83.5175 62.9H85.325L80.81 74.6H79.115ZM89.7281 71.225C88.9181 71.225 88.2106 71.0425 87.6056 70.6775C87.0006 70.3125 86.5306 69.81 86.1956 69.17C85.8656 68.525 85.7006 67.785 85.7006 66.95C85.7006 66.1 85.8706 65.355 86.2106 64.715C86.5506 64.075 87.0231 63.575 87.6281 63.215C88.2331 62.855 88.9331 62.675 89.7281 62.675C90.5431 62.675 91.2531 62.8575 91.8581 63.2225C92.4631 63.5875 92.9331 64.0925 93.2681 64.7375C93.6031 65.3775 93.7706 66.115 93.7706 66.95C93.7706 67.79 93.6006 68.5325 93.2606 69.1775C92.9256 69.8175 92.4556 70.32 91.8506 70.685C91.2456 71.045 90.5381 71.225 89.7281 71.225ZM89.7281 69.53C90.4481 69.53 90.9831 69.29 91.3331 68.81C91.6831 68.33 91.8581 67.71 91.8581 66.95C91.8581 66.165 91.6806 65.54 91.3256 65.075C90.9706 64.605 90.4381 64.37 89.7281 64.37C89.2431 64.37 88.8431 64.48 88.5281 64.7C88.2181 64.915 87.9881 65.2175 87.8381 65.6075C87.6881 65.9925 87.6131 66.44 87.6131 66.95C87.6131 67.735 87.7906 68.3625 88.1456 68.8325C88.5056 69.2975 89.0331 69.53 89.7281 69.53ZM98.4605 71.2325C97.8605 71.2325 97.3655 71.1325 96.9755 70.9325C96.5855 70.7325 96.2755 70.4775 96.0455 70.1675C95.8155 69.8575 95.6455 69.5275 95.5355 69.1775C95.4255 68.8275 95.353 68.4975 95.318 68.1875C95.288 67.8725 95.273 67.6175 95.273 67.4225V62.9H97.103V66.8C97.103 67.05 97.1205 67.3325 97.1555 67.6475C97.1905 67.9575 97.2705 68.2575 97.3955 68.5475C97.5255 68.8325 97.7155 69.0675 97.9655 69.2525C98.2205 69.4375 98.563 69.53 98.993 69.53C99.223 69.53 99.4505 69.4925 99.6755 69.4175C99.9005 69.3425 100.103 69.215 100.283 69.035C100.468 68.85 100.616 68.5975 100.726 68.2775C100.836 67.9575 100.891 67.5525 100.891 67.0625L101.963 67.52C101.963 68.21 101.828 68.835 101.558 69.395C101.293 69.955 100.901 70.4025 100.381 70.7375C99.8605 71.0675 99.2205 71.2325 98.4605 71.2325ZM101.108 71V68.4875H100.891V62.9H102.706V71H101.108ZM104.813 71V62.9H106.41V64.8725L106.215 64.6175C106.315 64.3475 106.448 64.1025 106.613 63.8825C106.783 63.6575 106.985 63.4725 107.22 63.3275C107.42 63.1925 107.64 63.0875 107.88 63.0125C108.125 62.9325 108.375 62.885 108.63 62.87C108.885 62.85 109.133 62.86 109.373 62.9V64.5875C109.133 64.5175 108.855 64.495 108.54 64.52C108.23 64.545 107.95 64.6325 107.7 64.7825C107.45 64.9175 107.245 65.09 107.085 65.3C106.93 65.51 106.815 65.75 106.74 66.02C106.665 66.285 106.628 66.5725 106.628 66.8825V71H104.813ZM113.957 71V60.2H115.764V71H113.957ZM121.258 71.225C120.513 71.225 119.863 71.0375 119.308 70.6625C118.753 70.2875 118.323 69.7775 118.018 69.1325C117.713 68.4875 117.561 67.76 117.561 66.95C117.561 66.13 117.713 65.4 118.018 64.76C118.328 64.115 118.766 63.6075 119.331 63.2375C119.896 62.8625 120.561 62.675 121.326 62.675C122.096 62.675 122.741 62.8625 123.261 63.2375C123.786 63.6075 124.183 64.115 124.453 64.76C124.723 65.405 124.858 66.135 124.858 66.95C124.858 67.755 124.723 68.4825 124.453 69.1325C124.183 69.7775 123.781 70.2875 123.246 70.6625C122.711 71.0375 122.048 71.225 121.258 71.225ZM121.536 69.605C122.021 69.605 122.411 69.495 122.706 69.275C123.006 69.05 123.223 68.7375 123.358 68.3375C123.498 67.9375 123.568 67.475 123.568 66.95C123.568 66.42 123.498 65.9575 123.358 65.5625C123.223 65.1625 123.011 64.8525 122.721 64.6325C122.431 64.4075 122.056 64.295 121.596 64.295C121.111 64.295 120.711 64.415 120.396 64.655C120.081 64.89 119.848 65.21 119.698 65.615C119.548 66.015 119.473 66.46 119.473 66.95C119.473 67.445 119.546 67.895 119.691 68.3C119.841 68.7 120.068 69.0175 120.373 69.2525C120.678 69.4875 121.066 69.605 121.536 69.605ZM123.568 71V65.315H123.343V60.2H125.166V71H123.568ZM130.951 71.225C130.131 71.225 129.411 71.0475 128.791 70.6925C128.171 70.3375 127.686 69.845 127.336 69.215C126.991 68.585 126.819 67.86 126.819 67.04C126.819 66.155 126.989 65.3875 127.329 64.7375C127.669 64.0825 128.141 63.575 128.746 63.215C129.351 62.855 130.051 62.675 130.846 62.675C131.686 62.675 132.399 62.8725 132.984 63.2675C133.574 63.6575 134.011 64.21 134.296 64.925C134.581 65.64 134.689 66.4825 134.619 67.4525H132.826V66.7925C132.821 65.9125 132.666 65.27 132.361 64.865C132.056 64.46 131.576 64.2575 130.921 64.2575C130.181 64.2575 129.631 64.4875 129.271 64.9475C128.911 65.4025 128.731 66.07 128.731 66.95C128.731 67.77 128.911 68.405 129.271 68.855C129.631 69.305 130.156 69.53 130.846 69.53C131.291 69.53 131.674 69.4325 131.994 69.2375C132.319 69.0375 132.569 68.75 132.744 68.375L134.529 68.915C134.219 69.645 133.739 70.2125 133.089 70.6175C132.444 71.0225 131.731 71.225 130.951 71.225ZM128.161 67.4525V66.0875H133.734V67.4525H128.161ZM141.675 71V67.1C141.675 66.845 141.657 66.5625 141.622 66.2525C141.587 65.9425 141.505 65.645 141.375 65.36C141.25 65.07 141.06 64.8325 140.805 64.6475C140.555 64.4625 140.215 64.37 139.785 64.37C139.555 64.37 139.327 64.4075 139.102 64.4825C138.877 64.5575 138.672 64.6875 138.487 64.8725C138.307 65.0525 138.162 65.3025 138.052 65.6225C137.942 65.9375 137.887 66.3425 137.887 66.8375L136.815 66.38C136.815 65.69 136.947 65.065 137.212 64.505C137.482 63.945 137.877 63.5 138.397 63.17C138.917 62.835 139.557 62.6675 140.317 62.6675C140.917 62.6675 141.412 62.7675 141.802 62.9675C142.192 63.1675 142.502 63.4225 142.732 63.7325C142.962 64.0425 143.132 64.3725 143.242 64.7225C143.352 65.0725 143.422 65.405 143.452 65.72C143.487 66.03 143.505 66.2825 143.505 66.4775V71H141.675ZM136.057 71V62.9H137.67V65.4125H137.887V71H136.057ZM150.21 71C149.675 71.1 149.15 71.1425 148.635 71.1275C148.125 71.1175 147.667 71.025 147.262 70.85C146.857 70.67 146.55 70.3875 146.34 70.0025C146.155 69.6525 146.057 69.295 146.047 68.93C146.037 68.565 146.032 68.1525 146.032 67.6925V60.65H147.832V67.5875C147.832 67.9125 147.835 68.1975 147.84 68.4425C147.85 68.6875 147.902 68.8875 147.997 69.0425C148.177 69.3425 148.465 69.51 148.86 69.545C149.255 69.58 149.705 69.56 150.21 69.485V71ZM144.562 64.3175V62.9H150.21V64.3175H144.562ZM152.101 61.67V60.0125H153.909V61.67H152.101ZM152.101 71V62.9H153.909V71H152.101ZM160.903 71C160.368 71.1 159.843 71.1425 159.328 71.1275C158.818 71.1175 158.36 71.025 157.955 70.85C157.55 70.67 157.243 70.3875 157.033 70.0025C156.848 69.6525 156.75 69.295 156.74 68.93C156.73 68.565 156.725 68.1525 156.725 67.6925V60.65H158.525V67.5875C158.525 67.9125 158.528 68.1975 158.533 68.4425C158.543 68.6875 158.595 68.8875 158.69 69.0425C158.87 69.3425 159.158 69.51 159.553 69.545C159.948 69.58 160.398 69.56 160.903 69.485V71ZM155.255 64.3175V62.9H160.903V64.3175H155.255ZM163.49 74.6L165.05 70.3175L165.08 71.5775L161.548 62.9H163.43L165.935 69.32H165.455L167.893 62.9H169.7L165.185 74.6H163.49Z" fill="#1D1D1F"/>
<rect x="278" y="40" width="49" height="20" rx="10" fill="#CCE3FF"/>
<path d="M290.876 54V45.6H293.372L295.652 53.136H295.844V45.6H297.128V54H294.632L292.352 46.452H292.16V54H290.876ZM301.688 54.168C301.096 54.168 300.568 54.048 300.104 53.808C299.648 53.56 299.288 53.208 299.024 52.752C298.76 52.296 298.628 51.756 298.628 51.132V50.952C298.628 50.328 298.76 49.792 299.024 49.344C299.288 48.888 299.648 48.536 300.104 48.288C300.568 48.04 301.096 47.916 301.688 47.916C302.28 47.916 302.808 48.04 303.272 48.288C303.736 48.536 304.1 48.888 304.364 49.344C304.628 49.792 304.76 50.328 304.76 50.952V51.132C304.76 51.756 304.628 52.296 304.364 52.752C304.1 53.208 303.736 53.56 303.272 53.808C302.808 54.048 302.28 54.168 301.688 54.168ZM301.688 53.064C302.232 53.064 302.672 52.892 303.008 52.548C303.352 52.196 303.524 51.712 303.524 51.096V50.988C303.524 50.372 303.356 49.892 303.02 49.548C302.684 49.196 302.24 49.02 301.688 49.02C301.152 49.02 300.712 49.196 300.368 49.548C300.032 49.892 299.864 50.372 299.864 50.988V51.096C299.864 51.712 300.032 52.196 300.368 52.548C300.712 52.892 301.152 53.064 301.688 53.064ZM306.876 54L305.868 48.084H307.104L307.848 53.172H308.04L309.072 48.084H311.076L312.096 53.172H312.288L313.032 48.084H314.268L313.26 54H311.184L310.164 48.924H309.972L308.952 54H306.876Z" fill="#003673"/>
</g>
<rect x="42" y="119" width="2" height="27" fill="#D9D9D9"/>
<path d="M35.78 186.168C35.18 186.168 34.644 186.064 34.172 185.856C33.7 185.64 33.328 185.316 33.056 184.884C32.784 184.444 32.648 183.888 32.648 183.216V182.988H33.416V183.216C33.416 183.992 33.636 184.568 34.076 184.944C34.524 185.312 35.092 185.496 35.78 185.496C36.476 185.496 37.012 185.336 37.388 185.016C37.764 184.688 37.952 184.272 37.952 183.768C37.952 183.432 37.868 183.164 37.7 182.964C37.54 182.756 37.312 182.592 37.016 182.472C36.728 182.344 36.392 182.232 36.008 182.136L35.24 181.944C34.784 181.824 34.376 181.676 34.016 181.5C33.656 181.316 33.372 181.08 33.164 180.792C32.956 180.496 32.852 180.12 32.852 179.664C32.852 179.208 32.968 178.812 33.2 178.476C33.44 178.14 33.768 177.884 34.184 177.708C34.6 177.524 35.084 177.432 35.636 177.432C36.188 177.432 36.684 177.528 37.124 177.72C37.572 177.912 37.924 178.196 38.18 178.572C38.444 178.94 38.576 179.404 38.576 179.964V180.528H37.808V179.964C37.808 179.524 37.712 179.168 37.52 178.896C37.328 178.624 37.068 178.424 36.74 178.296C36.412 178.168 36.044 178.104 35.636 178.104C35.052 178.104 34.568 178.24 34.184 178.512C33.808 178.776 33.62 179.16 33.62 179.664C33.62 180 33.696 180.268 33.848 180.468C34.008 180.668 34.228 180.828 34.508 180.948C34.796 181.068 35.132 181.176 35.516 181.272L36.284 181.464C36.724 181.568 37.128 181.708 37.496 181.884C37.864 182.052 38.16 182.288 38.384 182.592C38.608 182.888 38.72 183.28 38.72 183.768C38.72 184.256 38.596 184.68 38.348 185.04C38.108 185.4 37.768 185.68 37.328 185.88C36.888 186.072 36.372 186.168 35.78 186.168ZM42.5625 186C42.2505 186 42.0145 185.92 41.8545 185.76C41.7025 185.6 41.6265 185.376 41.6265 185.088V180.816H39.7545V180.168H41.6265V177.984H42.3465V180.168H44.3865V180.816H42.3465V184.992C42.3465 185.232 42.4665 185.352 42.7065 185.352H44.0745V186H42.5625ZM48.4706 186.168C47.8706 186.168 47.3466 186.044 46.8986 185.796C46.4586 185.54 46.1146 185.184 45.8666 184.728C45.6186 184.272 45.4946 183.748 45.4946 183.156V183.012C45.4946 182.412 45.6186 181.888 45.8666 181.44C46.1146 180.984 46.4546 180.632 46.8866 180.384C47.3266 180.128 47.8266 180 48.3866 180C48.9306 180 49.4106 180.116 49.8266 180.348C50.2506 180.572 50.5826 180.9 50.8226 181.332C51.0626 181.756 51.1826 182.264 51.1826 182.856V183.24H46.2146C46.2386 183.968 46.4586 184.532 46.8746 184.932C47.2986 185.324 47.8306 185.52 48.4706 185.52C49.0146 185.52 49.4346 185.396 49.7306 185.148C50.0346 184.9 50.2666 184.596 50.4266 184.236L51.0746 184.524C50.9546 184.788 50.7866 185.048 50.5706 185.304C50.3626 185.552 50.0906 185.76 49.7546 185.928C49.4186 186.088 48.9906 186.168 48.4706 186.168ZM46.2266 182.616H50.4506C50.4186 181.984 50.2146 181.5 49.8386 181.164C49.4626 180.82 48.9786 180.648 48.3866 180.648C47.8026 180.648 47.3186 180.82 46.9346 181.164C46.5506 181.5 46.3146 181.984 46.2266 182.616ZM52.9544 188.4V180.168H53.6504V181.236H53.7944C53.9624 180.916 54.2224 180.632 54.5744 180.384C54.9344 180.128 55.4344 180 56.0744 180C56.5944 180 57.0664 180.124 57.4904 180.372C57.9144 180.612 58.2504 180.956 58.4984 181.404C58.7544 181.852 58.8824 182.388 58.8824 183.012V183.156C58.8824 183.772 58.7584 184.308 58.5104 184.764C58.2624 185.212 57.9264 185.56 57.5024 185.808C57.0784 186.048 56.6024 186.168 56.0744 186.168C55.6504 186.168 55.2864 186.112 54.9824 186C54.6864 185.88 54.4424 185.728 54.2504 185.544C54.0664 185.36 53.9224 185.172 53.8184 184.98H53.6744V188.4H52.9544ZM55.9064 185.52C56.5704 185.52 57.1064 185.308 57.5144 184.884C57.9304 184.46 58.1384 183.876 58.1384 183.132V183.036C58.1384 182.292 57.9304 181.708 57.5144 181.284C57.1064 180.86 56.5704 180.648 55.9064 180.648C55.2504 180.648 54.7144 180.86 54.2984 181.284C53.8824 181.708 53.6744 182.292 53.6744 183.036V183.132C53.6744 183.876 53.8824 184.46 54.2984 184.884C54.7144 185.308 55.2504 185.52 55.9064 185.52ZM63.446 186V185.172C63.446 184.572 63.554 184.1 63.77 183.756C63.986 183.404 64.286 183.124 64.67 182.916C65.062 182.708 65.522 182.524 66.05 182.364L66.65 182.172C67.042 182.052 67.386 181.908 67.682 181.74C67.986 181.564 68.222 181.34 68.39 181.068C68.558 180.796 68.642 180.452 68.642 180.036V179.988C68.642 179.404 68.438 178.944 68.03 178.608C67.63 178.272 67.118 178.104 66.494 178.104C65.83 178.104 65.286 178.284 64.862 178.644C64.438 178.996 64.226 179.536 64.226 180.264V180.42H63.506V180.264C63.506 179.656 63.634 179.144 63.89 178.728C64.146 178.304 64.498 177.984 64.946 177.768C65.402 177.544 65.918 177.432 66.494 177.432C67.07 177.432 67.574 177.54 68.006 177.756C68.446 177.964 68.786 178.26 69.026 178.644C69.266 179.02 69.386 179.46 69.386 179.964V180.072C69.386 180.616 69.278 181.064 69.062 181.416C68.854 181.76 68.558 182.044 68.174 182.268C67.79 182.484 67.338 182.676 66.818 182.844L66.218 183.024C65.786 183.16 65.418 183.304 65.114 183.456C64.818 183.6 64.59 183.796 64.43 184.044C64.27 184.284 64.19 184.62 64.19 185.052V185.328H69.314V186H63.446Z" fill="#797979"/>
<path d="M32.3 209L35.81 198.2H38.0675L41.5775 209H39.95L36.7175 199.145H37.1225L33.9275 209H32.3ZM34.1225 206.562V205.092H39.7625V206.562H34.1225ZM46.388 209.225C45.558 209.225 44.853 209.04 44.273 208.67C43.693 208.3 43.248 207.792 42.938 207.147C42.633 206.502 42.478 205.77 42.473 204.95C42.478 204.115 42.638 203.377 42.953 202.737C43.268 202.092 43.718 201.587 44.303 201.222C44.888 200.857 45.5905 200.675 46.4105 200.675C47.2955 200.675 48.0505 200.895 48.6755 201.335C49.3055 201.775 49.7205 202.377 49.9205 203.142L48.3605 203.592C48.2055 203.137 47.9505 202.785 47.5955 202.535C47.2455 202.28 46.843 202.152 46.388 202.152C45.873 202.152 45.4505 202.275 45.1205 202.52C44.7905 202.76 44.5455 203.09 44.3855 203.51C44.2255 203.93 44.143 204.41 44.138 204.95C44.143 205.785 44.333 206.46 44.708 206.975C45.088 207.49 45.648 207.747 46.388 207.747C46.893 207.747 47.3005 207.632 47.6105 207.402C47.9255 207.167 48.1655 206.832 48.3305 206.397L49.9205 206.772C49.6555 207.562 49.218 208.17 48.608 208.595C47.998 209.015 47.258 209.225 46.388 209.225ZM56.0834 209C55.5734 209.1 55.0734 209.143 54.5834 209.128C54.0934 209.113 53.6559 209.017 53.2709 208.842C52.8859 208.667 52.5959 208.392 52.4009 208.017C52.2259 207.682 52.1309 207.342 52.1159 206.997C52.1059 206.647 52.1009 206.252 52.1009 205.812V198.65H53.6759V205.737C53.6759 206.062 53.6784 206.345 53.6834 206.585C53.6934 206.825 53.7459 207.027 53.8409 207.192C54.0209 207.502 54.3059 207.68 54.6959 207.725C55.0909 207.765 55.5534 207.747 56.0834 207.672V209ZM50.5484 202.16V200.9H56.0834V202.16H50.5484ZM57.9412 199.572V198.05H59.5087V199.572H57.9412ZM57.9412 209V200.9H59.5087V209H57.9412ZM63.9509 209L61.0109 200.9H62.5934L64.7459 207.035L66.8984 200.9H68.4809L65.5409 209H63.9509ZM71.6656 209.225C71.0656 209.225 70.5631 209.115 70.1581 208.895C69.7531 208.67 69.4456 208.375 69.2356 208.01C69.0306 207.64 68.9281 207.235 68.9281 206.795C68.9281 206.385 69.0006 206.025 69.1456 205.715C69.2906 205.405 69.5056 205.142 69.7906 204.927C70.0756 204.707 70.4256 204.53 70.8406 204.395C71.2006 204.29 71.6081 204.197 72.0631 204.117C72.5181 204.037 72.9956 203.962 73.4956 203.892C74.0006 203.822 74.5006 203.752 74.9956 203.682L74.4256 203.997C74.4356 203.362 74.3006 202.892 74.0206 202.587C73.7456 202.277 73.2706 202.122 72.5956 202.122C72.1706 202.122 71.7806 202.222 71.4256 202.422C71.0706 202.617 70.8231 202.942 70.6831 203.397L69.2206 202.947C69.4206 202.252 69.8006 201.7 70.3606 201.29C70.9256 200.88 71.6756 200.675 72.6106 200.675C73.3356 200.675 73.9656 200.8 74.5006 201.05C75.0406 201.295 75.4356 201.685 75.6856 202.22C75.8156 202.485 75.8956 202.765 75.9256 203.06C75.9556 203.355 75.9706 203.672 75.9706 204.012V209H74.5831V207.147L74.8531 207.387C74.5181 208.007 74.0906 208.47 73.5706 208.775C73.0556 209.075 72.4206 209.225 71.6656 209.225ZM71.9431 207.942C72.3881 207.942 72.7706 207.865 73.0906 207.71C73.4106 207.55 73.6681 207.347 73.8631 207.102C74.0581 206.857 74.1856 206.602 74.2456 206.337C74.3306 206.097 74.3781 205.827 74.3881 205.527C74.4031 205.227 74.4106 204.987 74.4106 204.807L74.9206 204.995C74.4256 205.07 73.9756 205.137 73.5706 205.197C73.1656 205.257 72.7981 205.317 72.4681 205.377C72.1431 205.432 71.8531 205.5 71.5981 205.58C71.3831 205.655 71.1906 205.745 71.0206 205.85C70.8556 205.955 70.7231 206.082 70.6231 206.232C70.5281 206.382 70.4806 206.565 70.4806 206.78C70.4806 206.99 70.5331 207.185 70.6381 207.365C70.7431 207.54 70.9031 207.68 71.1181 207.785C71.3331 207.89 71.6081 207.942 71.9431 207.942ZM82.5532 209C82.0432 209.1 81.5432 209.143 81.0532 209.128C80.5632 209.113 80.1257 209.017 79.7407 208.842C79.3557 208.667 79.0657 208.392 78.8707 208.017C78.6957 207.682 78.6007 207.342 78.5857 206.997C78.5757 206.647 78.5707 206.252 78.5707 205.812V198.65H80.1457V205.737C80.1457 206.062 80.1482 206.345 80.1532 206.585C80.1632 206.825 80.2157 207.027 80.3107 207.192C80.4907 207.502 80.7757 207.68 81.1657 207.725C81.5607 207.765 82.0232 207.747 82.5532 207.672V209ZM77.0182 202.16V200.9H82.5532V202.16H77.0182ZM87.4872 209.225C86.6822 209.225 85.9747 209.05 85.3647 208.7C84.7597 208.345 84.2872 207.852 83.9472 207.222C83.6122 206.587 83.4447 205.852 83.4447 205.017C83.4447 204.132 83.6097 203.365 83.9397 202.715C84.2747 202.065 84.7397 201.562 85.3347 201.207C85.9297 200.852 86.6222 200.675 87.4122 200.675C88.2372 200.675 88.9397 200.867 89.5197 201.253C90.0997 201.632 90.5322 202.175 90.8172 202.88C91.1072 203.585 91.2222 204.422 91.1622 205.392H89.5947V204.822C89.5847 203.882 89.4047 203.187 89.0547 202.737C88.7097 202.287 88.1822 202.062 87.4722 202.062C86.6872 202.062 86.0972 202.31 85.7022 202.805C85.3072 203.3 85.1097 204.015 85.1097 204.95C85.1097 205.84 85.3072 206.53 85.7022 207.02C86.0972 207.505 86.6672 207.747 87.4122 207.747C87.9022 207.747 88.3247 207.637 88.6797 207.417C89.0397 207.192 89.3197 206.872 89.5197 206.457L91.0572 206.945C90.7422 207.67 90.2647 208.232 89.6247 208.632C88.9847 209.027 88.2722 209.225 87.4872 209.225ZM84.5997 205.392V204.17H90.3822V205.392H84.5997ZM95.8479 209V198.2H102.245V199.767H97.4154V202.812H101.345V204.387H97.4154V209H95.8479ZM103.747 199.572V198.05H105.314V199.572H103.747ZM103.747 209V200.9H105.314V209H103.747ZM113.252 209V205.017C113.252 204.702 113.224 204.38 113.169 204.05C113.119 203.715 113.019 203.405 112.869 203.12C112.724 202.835 112.517 202.605 112.247 202.43C111.982 202.255 111.634 202.167 111.204 202.167C110.924 202.167 110.659 202.215 110.409 202.31C110.159 202.4 109.939 202.547 109.749 202.752C109.564 202.957 109.417 203.227 109.307 203.562C109.202 203.897 109.149 204.305 109.149 204.785L108.174 204.417C108.174 203.682 108.312 203.035 108.587 202.475C108.862 201.91 109.257 201.47 109.772 201.155C110.287 200.84 110.909 200.682 111.639 200.682C112.199 200.682 112.669 200.772 113.049 200.952C113.429 201.132 113.737 201.37 113.972 201.665C114.212 201.955 114.394 202.272 114.519 202.617C114.644 202.962 114.729 203.3 114.774 203.63C114.819 203.96 114.842 204.25 114.842 204.5V209H113.252ZM107.559 209V200.9H108.962V203.24H109.149V209H107.559ZM121.43 209C120.92 209.1 120.42 209.143 119.93 209.128C119.44 209.113 119.003 209.017 118.618 208.842C118.233 208.667 117.943 208.392 117.748 208.017C117.573 207.682 117.478 207.342 117.463 206.997C117.453 206.647 117.448 206.252 117.448 205.812V198.65H119.023V205.737C119.023 206.062 119.025 206.345 119.03 206.585C119.04 206.825 119.093 207.027 119.188 207.192C119.368 207.502 119.653 207.68 120.043 207.725C120.438 207.765 120.9 207.747 121.43 207.672V209ZM115.895 202.16V200.9H121.43V202.16H115.895ZM126.364 209.225C125.559 209.225 124.852 209.05 124.242 208.7C123.637 208.345 123.164 207.852 122.824 207.222C122.489 206.587 122.322 205.852 122.322 205.017C122.322 204.132 122.487 203.365 122.817 202.715C123.152 202.065 123.617 201.562 124.212 201.207C124.807 200.852 125.499 200.675 126.289 200.675C127.114 200.675 127.817 200.867 128.397 201.253C128.977 201.632 129.409 202.175 129.694 202.88C129.984 203.585 130.099 204.422 130.039 205.392H128.472V204.822C128.462 203.882 128.282 203.187 127.932 202.737C127.587 202.287 127.059 202.062 126.349 202.062C125.564 202.062 124.974 202.31 124.579 202.805C124.184 203.3 123.987 204.015 123.987 204.95C123.987 205.84 124.184 206.53 124.579 207.02C124.974 207.505 125.544 207.747 126.289 207.747C126.779 207.747 127.202 207.637 127.557 207.417C127.917 207.192 128.197 206.872 128.397 206.457L129.934 206.945C129.619 207.67 129.142 208.232 128.502 208.632C127.862 209.027 127.149 209.225 126.364 209.225ZM123.477 205.392V204.17H129.259V205.392H123.477ZM131.722 209V200.9H133.117V202.865L132.922 202.61C133.022 202.35 133.152 202.112 133.312 201.897C133.472 201.677 133.657 201.497 133.867 201.357C134.072 201.207 134.299 201.092 134.549 201.012C134.804 200.927 135.064 200.877 135.329 200.862C135.594 200.842 135.849 200.855 136.094 200.9V202.37C135.829 202.3 135.534 202.28 135.209 202.31C134.889 202.34 134.594 202.442 134.324 202.617C134.069 202.782 133.867 202.982 133.717 203.217C133.572 203.452 133.467 203.715 133.402 204.005C133.337 204.29 133.304 204.592 133.304 204.912V209H131.722ZM143.208 209V205.017C143.208 204.702 143.18 204.38 143.125 204.05C143.075 203.715 142.975 203.405 142.825 203.12C142.68 202.835 142.473 202.605 142.203 202.43C141.938 202.255 141.59 202.167 141.16 202.167C140.88 202.167 140.615 202.215 140.365 202.31C140.115 202.4 139.895 202.547 139.705 202.752C139.52 202.957 139.373 203.227 139.263 203.562C139.158 203.897 139.105 204.305 139.105 204.785L138.13 204.417C138.13 203.682 138.268 203.035 138.543 202.475C138.818 201.91 139.213 201.47 139.728 201.155C140.243 200.84 140.865 200.682 141.595 200.682C142.155 200.682 142.625 200.772 143.005 200.952C143.385 201.132 143.693 201.37 143.928 201.665C144.168 201.955 144.35 202.272 144.475 202.617C144.6 202.962 144.685 203.3 144.73 203.63C144.775 203.96 144.798 204.25 144.798 204.5V209H143.208ZM137.515 209V200.9H138.918V203.24H139.105V209H137.515ZM150.241 209.225C149.436 209.225 148.729 209.05 148.119 208.7C147.514 208.345 147.041 207.852 146.701 207.222C146.366 206.587 146.199 205.852 146.199 205.017C146.199 204.132 146.364 203.365 146.694 202.715C147.029 202.065 147.494 201.562 148.089 201.207C148.684 200.852 149.376 200.675 150.166 200.675C150.991 200.675 151.694 200.867 152.274 201.253C152.854 201.632 153.286 202.175 153.571 202.88C153.861 203.585 153.976 204.422 153.916 205.392H152.349V204.822C152.339 203.882 152.159 203.187 151.809 202.737C151.464 202.287 150.936 202.062 150.226 202.062C149.441 202.062 148.851 202.31 148.456 202.805C148.061 203.3 147.864 204.015 147.864 204.95C147.864 205.84 148.061 206.53 148.456 207.02C148.851 207.505 149.421 207.747 150.166 207.747C150.656 207.747 151.079 207.637 151.434 207.417C151.794 207.192 152.074 206.872 152.274 206.457L153.811 206.945C153.496 207.67 153.019 208.232 152.379 208.632C151.739 209.027 151.026 209.225 150.241 209.225ZM147.354 205.392V204.17H153.136V205.392H147.354ZM160.234 209C159.724 209.1 159.224 209.143 158.734 209.128C158.244 209.113 157.806 209.017 157.421 208.842C157.036 208.667 156.746 208.392 156.551 208.017C156.376 207.682 156.281 207.342 156.266 206.997C156.256 206.647 156.251 206.252 156.251 205.812V198.65H157.826V205.737C157.826 206.062 157.829 206.345 157.834 206.585C157.844 206.825 157.896 207.027 157.991 207.192C158.171 207.502 158.456 207.68 158.846 207.725C159.241 207.765 159.704 207.747 160.234 207.672V209ZM154.699 202.16V200.9H160.234V202.16H154.699ZM167.232 209.225C166.632 209.225 166.13 209.115 165.725 208.895C165.32 208.67 165.012 208.375 164.802 208.01C164.597 207.64 164.495 207.235 164.495 206.795C164.495 206.385 164.567 206.025 164.712 205.715C164.857 205.405 165.072 205.142 165.357 204.927C165.642 204.707 165.992 204.53 166.407 204.395C166.767 204.29 167.175 204.197 167.63 204.117C168.085 204.037 168.562 203.962 169.062 203.892C169.567 203.822 170.067 203.752 170.562 203.682L169.992 203.997C170.002 203.362 169.867 202.892 169.587 202.587C169.312 202.277 168.837 202.122 168.162 202.122C167.737 202.122 167.347 202.222 166.992 202.422C166.637 202.617 166.39 202.942 166.25 203.397L164.787 202.947C164.987 202.252 165.367 201.7 165.927 201.29C166.492 200.88 167.242 200.675 168.177 200.675C168.902 200.675 169.532 200.8 170.067 201.05C170.607 201.295 171.002 201.685 171.252 202.22C171.382 202.485 171.462 202.765 171.492 203.06C171.522 203.355 171.537 203.672 171.537 204.012V209H170.15V207.147L170.42 207.387C170.085 208.007 169.657 208.47 169.137 208.775C168.622 209.075 167.987 209.225 167.232 209.225ZM167.51 207.942C167.955 207.942 168.337 207.865 168.657 207.71C168.977 207.55 169.235 207.347 169.43 207.102C169.625 206.857 169.752 206.602 169.812 206.337C169.897 206.097 169.945 205.827 169.955 205.527C169.97 205.227 169.977 204.987 169.977 204.807L170.487 204.995C169.992 205.07 169.542 205.137 169.137 205.197C168.732 205.257 168.365 205.317 168.035 205.377C167.71 205.432 167.42 205.5 167.165 205.58C166.95 205.655 166.757 205.745 166.587 205.85C166.422 205.955 166.29 206.082 166.19 206.232C166.095 206.382 166.047 206.565 166.047 206.78C166.047 206.99 166.1 207.185 166.205 207.365C166.31 207.54 166.47 207.68 166.685 207.785C166.9 207.89 167.175 207.942 167.51 207.942ZM176.95 209.225C176.12 209.225 175.415 209.04 174.835 208.67C174.255 208.3 173.81 207.792 173.5 207.147C173.195 206.502 173.04 205.77 173.035 204.95C173.04 204.115 173.2 203.377 173.515 202.737C173.83 202.092 174.28 201.587 174.865 201.222C175.45 200.857 176.152 200.675 176.972 200.675C177.857 200.675 178.612 200.895 179.237 201.335C179.867 201.775 180.282 202.377 180.482 203.142L178.922 203.592C178.767 203.137 178.512 202.785 178.157 202.535C177.807 202.28 177.405 202.152 176.95 202.152C176.435 202.152 176.012 202.275 175.682 202.52C175.352 202.76 175.107 203.09 174.947 203.51C174.787 203.93 174.705 204.41 174.7 204.95C174.705 205.785 174.895 206.46 175.27 206.975C175.65 207.49 176.21 207.747 176.95 207.747C177.455 207.747 177.862 207.632 178.172 207.402C178.487 207.167 178.727 206.832 178.892 206.397L180.482 206.772C180.217 207.562 179.78 208.17 179.17 208.595C178.56 209.015 177.82 209.225 176.95 209.225ZM185.255 209.225C184.425 209.225 183.72 209.04 183.14 208.67C182.56 208.3 182.115 207.792 181.805 207.147C181.5 206.502 181.345 205.77 181.34 204.95C181.345 204.115 181.505 203.377 181.82 202.737C182.135 202.092 182.585 201.587 183.17 201.222C183.755 200.857 184.458 200.675 185.278 200.675C186.163 200.675 186.918 200.895 187.543 201.335C188.173 201.775 188.588 202.377 188.788 203.142L187.228 203.592C187.073 203.137 186.818 202.785 186.463 202.535C186.113 202.28 185.71 202.152 185.255 202.152C184.74 202.152 184.318 202.275 183.988 202.52C183.658 202.76 183.413 203.09 183.253 203.51C183.093 203.93 183.01 204.41 183.005 204.95C183.01 205.785 183.2 206.46 183.575 206.975C183.955 207.49 184.515 207.747 185.255 207.747C185.76 207.747 186.168 207.632 186.478 207.402C186.793 207.167 187.033 206.832 187.198 206.397L188.788 206.772C188.523 207.562 188.085 208.17 187.475 208.595C186.865 209.015 186.125 209.225 185.255 209.225ZM193.613 209.225C192.803 209.225 192.101 209.043 191.506 208.677C190.911 208.312 190.451 207.81 190.126 207.17C189.806 206.525 189.646 205.782 189.646 204.942C189.646 204.097 189.811 203.355 190.141 202.715C190.471 202.07 190.933 201.57 191.528 201.215C192.123 200.855 192.818 200.675 193.613 200.675C194.423 200.675 195.126 200.857 195.721 201.222C196.316 201.587 196.776 202.09 197.101 202.73C197.426 203.37 197.588 204.107 197.588 204.942C197.588 205.787 197.423 206.532 197.093 207.177C196.768 207.817 196.308 208.32 195.713 208.685C195.118 209.045 194.418 209.225 193.613 209.225ZM193.613 207.747C194.388 207.747 194.966 207.487 195.346 206.967C195.731 206.442 195.923 205.767 195.923 204.942C195.923 204.097 195.728 203.422 195.338 202.917C194.953 202.407 194.378 202.152 193.613 202.152C193.088 202.152 192.656 202.272 192.316 202.512C191.976 202.747 191.723 203.075 191.558 203.495C191.393 203.91 191.311 204.392 191.311 204.942C191.311 205.792 191.506 206.472 191.896 206.982C192.286 207.492 192.858 207.747 193.613 207.747ZM202.289 209.218C201.729 209.218 201.259 209.128 200.879 208.947C200.499 208.767 200.189 208.532 199.949 208.242C199.714 207.947 199.534 207.627 199.409 207.282C199.284 206.937 199.199 206.6 199.154 206.27C199.109 205.94 199.087 205.65 199.087 205.4V200.9H200.677V204.882C200.677 205.197 200.702 205.522 200.752 205.857C200.807 206.187 200.907 206.495 201.052 206.78C201.202 207.065 201.409 207.295 201.674 207.47C201.944 207.645 202.294 207.732 202.724 207.732C203.004 207.732 203.269 207.687 203.519 207.597C203.769 207.502 203.987 207.352 204.172 207.147C204.362 206.942 204.509 206.672 204.614 206.337C204.724 206.002 204.779 205.595 204.779 205.115L205.754 205.482C205.754 206.217 205.617 206.867 205.342 207.432C205.067 207.992 204.672 208.43 204.157 208.745C203.642 209.06 203.019 209.218 202.289 209.218ZM204.967 209V206.66H204.779V200.9H206.362V209H204.967ZM214.15 209V205.017C214.15 204.702 214.123 204.38 214.068 204.05C214.018 203.715 213.918 203.405 213.768 203.12C213.623 202.835 213.415 202.605 213.145 202.43C212.88 202.255 212.533 202.167 212.103 202.167C211.823 202.167 211.558 202.215 211.308 202.31C211.058 202.4 210.838 202.547 210.648 202.752C210.463 202.957 210.315 203.227 210.205 203.562C210.1 203.897 210.048 204.305 210.048 204.785L209.073 204.417C209.073 203.682 209.21 203.035 209.485 202.475C209.76 201.91 210.155 201.47 210.67 201.155C211.185 200.84 211.808 200.682 212.538 200.682C213.098 200.682 213.568 200.772 213.948 200.952C214.328 201.132 214.635 201.37 214.87 201.665C215.11 201.955 215.293 202.272 215.418 202.617C215.543 202.962 215.628 203.3 215.673 203.63C215.718 203.96 215.74 204.25 215.74 204.5V209H214.15ZM208.458 209V200.9H209.86V203.24H210.048V209H208.458ZM222.329 209C221.819 209.1 221.319 209.143 220.829 209.128C220.339 209.113 219.901 209.017 219.516 208.842C219.131 208.667 218.841 208.392 218.646 208.017C218.471 207.682 218.376 207.342 218.361 206.997C218.351 206.647 218.346 206.252 218.346 205.812V198.65H219.921V205.737C219.921 206.062 219.924 206.345 219.929 206.585C219.939 206.825 219.991 207.027 220.086 207.192C220.266 207.502 220.551 207.68 220.941 207.725C221.336 207.765 221.799 207.747 222.329 207.672V209ZM216.794 202.16V200.9H222.329V202.16H216.794Z" fill="#1D1D1F"/>
<rect x="255" y="178" width="72" height="20" rx="10" fill="#FFEECC"/>
<path d="M267.876 192V183.6H271.212C271.724 183.6 272.18 183.704 272.58 183.912C272.988 184.112 273.304 184.4 273.528 184.776C273.76 185.144 273.876 185.588 273.876 186.108V186.264C273.876 186.784 273.756 187.232 273.516 187.608C273.284 187.984 272.968 188.272 272.568 188.472C272.168 188.672 271.716 188.772 271.212 188.772H269.172V192H267.876ZM269.172 187.596H271.08C271.536 187.596 271.9 187.476 272.172 187.236C272.444 186.996 272.58 186.668 272.58 186.252V186.132C272.58 185.708 272.444 185.376 272.172 185.136C271.9 184.896 271.536 184.776 271.08 184.776H269.172V187.596ZM277.69 192.168C277.09 192.168 276.566 192.044 276.118 191.796C275.67 191.54 275.318 191.184 275.062 190.728C274.814 190.264 274.69 189.728 274.69 189.12V188.976C274.69 188.36 274.814 187.824 275.062 187.368C275.31 186.904 275.654 186.548 276.094 186.3C276.542 186.044 277.058 185.916 277.642 185.916C278.21 185.916 278.706 186.044 279.13 186.3C279.562 186.548 279.898 186.896 280.138 187.344C280.378 187.792 280.498 188.316 280.498 188.916V189.384H275.95C275.966 189.904 276.138 190.32 276.466 190.632C276.802 190.936 277.218 191.088 277.714 191.088C278.178 191.088 278.526 190.984 278.758 190.776C278.998 190.568 279.182 190.328 279.31 190.056L280.33 190.584C280.218 190.808 280.054 191.044 279.838 191.292C279.63 191.54 279.354 191.748 279.01 191.916C278.666 192.084 278.226 192.168 277.69 192.168ZM275.962 188.436H279.238C279.206 187.988 279.046 187.64 278.758 187.392C278.47 187.136 278.094 187.008 277.63 187.008C277.166 187.008 276.786 187.136 276.49 187.392C276.202 187.64 276.026 187.988 275.962 188.436ZM281.986 192V186.084H283.198V186.972H283.39C283.502 186.732 283.702 186.508 283.99 186.3C284.278 186.092 284.706 185.988 285.274 185.988C285.722 185.988 286.118 186.088 286.462 186.288C286.814 186.488 287.09 186.772 287.29 187.14C287.49 187.5 287.59 187.936 287.59 188.448V192H286.354V188.544C286.354 188.032 286.226 187.656 285.97 187.416C285.714 187.168 285.362 187.044 284.914 187.044C284.402 187.044 283.99 187.212 283.678 187.548C283.374 187.884 283.222 188.372 283.222 189.012V192H281.986ZM291.817 192.168C291.329 192.168 290.877 192.048 290.461 191.808C290.045 191.568 289.709 191.224 289.453 190.776C289.205 190.32 289.081 189.772 289.081 189.132V188.952C289.081 188.32 289.205 187.776 289.453 187.32C289.701 186.864 290.033 186.516 290.449 186.276C290.865 186.036 291.321 185.916 291.817 185.916C292.201 185.916 292.521 185.964 292.777 186.06C293.041 186.156 293.257 186.28 293.425 186.432C293.593 186.576 293.721 186.728 293.809 186.888H294.001V183.6H295.237V192H294.025V191.16H293.833C293.681 191.416 293.449 191.648 293.137 191.856C292.833 192.064 292.393 192.168 291.817 192.168ZM292.165 191.088C292.701 191.088 293.141 190.916 293.485 190.572C293.837 190.228 294.013 189.736 294.013 189.096V188.988C294.013 188.356 293.841 187.868 293.497 187.524C293.153 187.18 292.709 187.008 292.165 187.008C291.637 187.008 291.197 187.18 290.845 187.524C290.501 187.868 290.329 188.356 290.329 188.988V189.096C290.329 189.736 290.501 190.228 290.845 190.572C291.197 190.916 291.637 191.088 292.165 191.088ZM297.057 192V186.084H298.293V192H297.057ZM297.681 185.28C297.441 185.28 297.237 185.204 297.069 185.052C296.909 184.892 296.829 184.688 296.829 184.44C296.829 184.192 296.909 183.992 297.069 183.84C297.237 183.68 297.441 183.6 297.681 183.6C297.929 183.6 298.133 183.68 298.293 183.84C298.453 183.992 298.533 184.192 298.533 184.44C298.533 184.688 298.453 184.892 298.293 185.052C298.133 185.204 297.929 185.28 297.681 185.28ZM300.127 192V186.084H301.339V186.972H301.531C301.643 186.732 301.843 186.508 302.131 186.3C302.419 186.092 302.847 185.988 303.415 185.988C303.863 185.988 304.259 186.088 304.603 186.288C304.955 186.488 305.231 186.772 305.431 187.14C305.631 187.5 305.731 187.936 305.731 188.448V192H304.495V188.544C304.495 188.032 304.367 187.656 304.111 187.416C303.855 187.168 303.503 187.044 303.055 187.044C302.543 187.044 302.131 187.212 301.819 187.548C301.515 187.884 301.363 188.372 301.363 189.012V192H300.127ZM307.222 189.072V188.892C307.222 188.268 307.346 187.736 307.594 187.296C307.85 186.856 308.186 186.516 308.602 186.276C309.018 186.036 309.474 185.916 309.97 185.916C310.546 185.916 310.986 186.024 311.29 186.24C311.602 186.456 311.83 186.688 311.974 186.936H312.166V186.084H313.366V193.212C313.366 193.572 313.258 193.86 313.042 194.076C312.834 194.292 312.546 194.4 312.178 194.4H308.194V193.32H311.794C312.026 193.32 312.142 193.2 312.142 192.96V191.076H311.95C311.862 191.22 311.738 191.368 311.578 191.52C311.418 191.672 311.206 191.796 310.942 191.892C310.686 191.988 310.362 192.036 309.97 192.036C309.474 192.036 309.014 191.92 308.59 191.688C308.174 191.448 307.842 191.108 307.594 190.668C307.346 190.22 307.222 189.688 307.222 189.072ZM310.306 190.956C310.842 190.956 311.282 190.788 311.626 190.452C311.978 190.108 312.154 189.636 312.154 189.036V188.928C312.154 188.312 311.982 187.84 311.638 187.512C311.294 187.176 310.85 187.008 310.306 187.008C309.778 187.008 309.338 187.176 308.986 187.512C308.642 187.84 308.47 188.312 308.47 188.928V189.036C308.47 189.636 308.642 190.108 308.986 190.452C309.338 190.788 309.778 190.956 310.306 190.956Z" fill="#CC8700"/>
<rect x="42" y="241" width="2" height="27" fill="#D9D9D9"/>
<path d="M35.78 308.168C35.18 308.168 34.644 308.064 34.172 307.856C33.7 307.64 33.328 307.316 33.056 306.884C32.784 306.444 32.648 305.888 32.648 305.216V304.988H33.416V305.216C33.416 305.992 33.636 306.568 34.076 306.944C34.524 307.312 35.092 307.496 35.78 307.496C36.476 307.496 37.012 307.336 37.388 307.016C37.764 306.688 37.952 306.272 37.952 305.768C37.952 305.432 37.868 305.164 37.7 304.964C37.54 304.756 37.312 304.592 37.016 304.472C36.728 304.344 36.392 304.232 36.008 304.136L35.24 303.944C34.784 303.824 34.376 303.676 34.016 303.5C33.656 303.316 33.372 303.08 33.164 302.792C32.956 302.496 32.852 302.12 32.852 301.664C32.852 301.208 32.968 300.812 33.2 300.476C33.44 300.14 33.768 299.884 34.184 299.708C34.6 299.524 35.084 299.432 35.636 299.432C36.188 299.432 36.684 299.528 37.124 299.72C37.572 299.912 37.924 300.196 38.18 300.572C38.444 300.94 38.576 301.404 38.576 301.964V302.528H37.808V301.964C37.808 301.524 37.712 301.168 37.52 300.896C37.328 300.624 37.068 300.424 36.74 300.296C36.412 300.168 36.044 300.104 35.636 300.104C35.052 300.104 34.568 300.24 34.184 300.512C33.808 300.776 33.62 301.16 33.62 301.664C33.62 302 33.696 302.268 33.848 302.468C34.008 302.668 34.228 302.828 34.508 302.948C34.796 303.068 35.132 303.176 35.516 303.272L36.284 303.464C36.724 303.568 37.128 303.708 37.496 303.884C37.864 304.052 38.16 304.288 38.384 304.592C38.608 304.888 38.72 305.28 38.72 305.768C38.72 306.256 38.596 306.68 38.348 307.04C38.108 307.4 37.768 307.68 37.328 307.88C36.888 308.072 36.372 308.168 35.78 308.168ZM42.5625 308C42.2505 308 42.0145 307.92 41.8545 307.76C41.7025 307.6 41.6265 307.376 41.6265 307.088V302.816H39.7545V302.168H41.6265V299.984H42.3465V302.168H44.3865V302.816H42.3465V306.992C42.3465 307.232 42.4665 307.352 42.7065 307.352H44.0745V308H42.5625ZM48.4706 308.168C47.8706 308.168 47.3466 308.044 46.8986 307.796C46.4586 307.54 46.1146 307.184 45.8666 306.728C45.6186 306.272 45.4946 305.748 45.4946 305.156V305.012C45.4946 304.412 45.6186 303.888 45.8666 303.44C46.1146 302.984 46.4546 302.632 46.8866 302.384C47.3266 302.128 47.8266 302 48.3866 302C48.9306 302 49.4106 302.116 49.8266 302.348C50.2506 302.572 50.5826 302.9 50.8226 303.332C51.0626 303.756 51.1826 304.264 51.1826 304.856V305.24H46.2146C46.2386 305.968 46.4586 306.532 46.8746 306.932C47.2986 307.324 47.8306 307.52 48.4706 307.52C49.0146 307.52 49.4346 307.396 49.7306 307.148C50.0346 306.9 50.2666 306.596 50.4266 306.236L51.0746 306.524C50.9546 306.788 50.7866 307.048 50.5706 307.304C50.3626 307.552 50.0906 307.76 49.7546 307.928C49.4186 308.088 48.9906 308.168 48.4706 308.168ZM46.2266 304.616H50.4506C50.4186 303.984 50.2146 303.5 49.8386 303.164C49.4626 302.82 48.9786 302.648 48.3866 302.648C47.8026 302.648 47.3186 302.82 46.9346 303.164C46.5506 303.5 46.3146 303.984 46.2266 304.616ZM52.9544 310.4V302.168H53.6504V303.236H53.7944C53.9624 302.916 54.2224 302.632 54.5744 302.384C54.9344 302.128 55.4344 302 56.0744 302C56.5944 302 57.0664 302.124 57.4904 302.372C57.9144 302.612 58.2504 302.956 58.4984 303.404C58.7544 303.852 58.8824 304.388 58.8824 305.012V305.156C58.8824 305.772 58.7584 306.308 58.5104 306.764C58.2624 307.212 57.9264 307.56 57.5024 307.808C57.0784 308.048 56.6024 308.168 56.0744 308.168C55.6504 308.168 55.2864 308.112 54.9824 308C54.6864 307.88 54.4424 307.728 54.2504 307.544C54.0664 307.36 53.9224 307.172 53.8184 306.98H53.6744V310.4H52.9544ZM55.9064 307.52C56.5704 307.52 57.1064 307.308 57.5144 306.884C57.9304 306.46 58.1384 305.876 58.1384 305.132V305.036C58.1384 304.292 57.9304 303.708 57.5144 303.284C57.1064 302.86 56.5704 302.648 55.9064 302.648C55.2504 302.648 54.7144 302.86 54.2984 303.284C53.8824 303.708 53.6744 304.292 53.6744 305.036V305.132C53.6744 305.876 53.8824 306.46 54.2984 306.884C54.7144 307.308 55.2504 307.52 55.9064 307.52ZM66.386 308.168C65.802 308.168 65.278 308.056 64.814 307.832C64.358 307.608 63.998 307.284 63.734 306.86C63.478 306.428 63.35 305.908 63.35 305.3V305.072H64.094V305.312C64.094 305.992 64.306 306.528 64.73 306.92C65.154 307.304 65.706 307.496 66.386 307.496C67.074 307.496 67.61 307.312 67.994 306.944C68.378 306.576 68.57 306.112 68.57 305.552V305.48C68.57 305.064 68.47 304.728 68.27 304.472C68.078 304.216 67.814 304.028 67.478 303.908C67.15 303.78 66.786 303.716 66.386 303.716H65.15V302.708L68.558 300.392V300.272H63.542V299.6H69.302V300.68L65.93 302.972V303.092H66.59C67.11 303.092 67.574 303.184 67.982 303.368C68.39 303.544 68.714 303.808 68.954 304.16C69.194 304.504 69.314 304.936 69.314 305.456V305.576C69.314 306.096 69.194 306.552 68.954 306.944C68.714 307.328 68.374 307.628 67.934 307.844C67.494 308.06 66.978 308.168 66.386 308.168Z" fill="#797979"/>
<path d="M33.2 331V320.2H34.7675V329.522H39.6575V331H33.2ZM41.0809 321.572V320.05H42.6484V321.572H41.0809ZM41.0809 331V322.9H42.6484V331H41.0809ZM50.5856 331V327.017C50.5856 326.702 50.5581 326.38 50.5031 326.05C50.4531 325.715 50.3531 325.405 50.2031 325.12C50.0581 324.835 49.8506 324.605 49.5806 324.43C49.3156 324.255 48.9681 324.167 48.5381 324.167C48.2581 324.167 47.9931 324.215 47.7431 324.31C47.4931 324.4 47.2731 324.547 47.0831 324.752C46.8981 324.957 46.7506 325.227 46.6406 325.562C46.5356 325.897 46.4831 326.305 46.4831 326.785L45.5081 326.417C45.5081 325.682 45.6456 325.035 45.9206 324.475C46.1956 323.91 46.5906 323.47 47.1056 323.155C47.6206 322.84 48.2431 322.682 48.9731 322.682C49.5331 322.682 50.0031 322.772 50.3831 322.952C50.7631 323.132 51.0706 323.37 51.3056 323.665C51.5456 323.955 51.7281 324.272 51.8531 324.617C51.9781 324.962 52.0631 325.3 52.1081 325.63C52.1531 325.96 52.1756 326.25 52.1756 326.5V331H50.5856ZM44.8931 331V322.9H46.2956V325.24H46.4831V331H44.8931ZM54.1216 331L54.1291 320.2H55.7191V326.8L58.8991 322.9H60.8941L57.5341 326.95L61.2391 331H59.1091L55.7191 327.1V331H54.1216ZM68.8007 331.225C68.0257 331.225 67.3757 331.038 66.8507 330.662C66.3257 330.282 65.9282 329.77 65.6582 329.125C65.3882 328.48 65.2532 327.752 65.2532 326.942C65.2532 326.132 65.3857 325.405 65.6507 324.76C65.9207 324.115 66.3157 323.607 66.8357 323.237C67.3607 322.862 68.0057 322.675 68.7707 322.675C69.5307 322.675 70.1857 322.862 70.7357 323.237C71.2907 323.607 71.7182 324.115 72.0182 324.76C72.3182 325.4 72.4682 326.127 72.4682 326.942C72.4682 327.752 72.3182 328.482 72.0182 329.132C71.7232 329.777 71.3007 330.287 70.7507 330.662C70.2057 331.038 69.5557 331.225 68.8007 331.225ZM64.9907 331V320.2H66.5657V325.172H66.3857V331H64.9907ZM68.5832 329.807C69.0832 329.807 69.4957 329.68 69.8207 329.425C70.1507 329.17 70.3957 328.827 70.5557 328.397C70.7207 327.962 70.8032 327.477 70.8032 326.942C70.8032 326.412 70.7207 325.932 70.5557 325.502C70.3957 325.072 70.1482 324.73 69.8132 324.475C69.4782 324.22 69.0507 324.092 68.5307 324.092C68.0407 324.092 67.6357 324.212 67.3157 324.452C67.0007 324.692 66.7657 325.027 66.6107 325.457C66.4607 325.887 66.3857 326.382 66.3857 326.942C66.3857 327.502 66.4607 327.997 66.6107 328.427C66.7607 328.857 66.9982 329.195 67.3232 329.44C67.6482 329.685 68.0682 329.807 68.5832 329.807ZM76.4117 331.225C75.8117 331.225 75.3092 331.115 74.9042 330.895C74.4992 330.67 74.1917 330.375 73.9817 330.01C73.7767 329.64 73.6742 329.235 73.6742 328.795C73.6742 328.385 73.7467 328.025 73.8917 327.715C74.0367 327.405 74.2517 327.142 74.5367 326.927C74.8217 326.707 75.1717 326.53 75.5867 326.395C75.9467 326.29 76.3542 326.197 76.8092 326.117C77.2642 326.037 77.7417 325.962 78.2417 325.892C78.7467 325.822 79.2467 325.752 79.7417 325.682L79.1717 325.997C79.1817 325.362 79.0467 324.892 78.7667 324.587C78.4917 324.277 78.0167 324.122 77.3417 324.122C76.9167 324.122 76.5267 324.222 76.1717 324.422C75.8167 324.617 75.5692 324.942 75.4292 325.397L73.9667 324.947C74.1667 324.252 74.5467 323.7 75.1067 323.29C75.6717 322.88 76.4217 322.675 77.3567 322.675C78.0817 322.675 78.7117 322.8 79.2467 323.05C79.7867 323.295 80.1817 323.685 80.4317 324.22C80.5617 324.485 80.6417 324.765 80.6717 325.06C80.7017 325.355 80.7167 325.672 80.7167 326.012V331H79.3292V329.147L79.5992 329.387C79.2642 330.007 78.8367 330.47 78.3167 330.775C77.8017 331.075 77.1667 331.225 76.4117 331.225ZM76.6892 329.942C77.1342 329.942 77.5167 329.865 77.8367 329.71C78.1567 329.55 78.4142 329.347 78.6092 329.102C78.8042 328.857 78.9317 328.602 78.9917 328.337C79.0767 328.097 79.1242 327.827 79.1342 327.527C79.1492 327.227 79.1567 326.987 79.1567 326.807L79.6667 326.995C79.1717 327.07 78.7217 327.137 78.3167 327.197C77.9117 327.257 77.5442 327.317 77.2142 327.377C76.8892 327.432 76.5992 327.5 76.3442 327.58C76.1292 327.655 75.9367 327.745 75.7667 327.85C75.6017 327.955 75.4692 328.082 75.3692 328.232C75.2742 328.382 75.2267 328.565 75.2267 328.78C75.2267 328.99 75.2792 329.185 75.3842 329.365C75.4892 329.54 75.6492 329.68 75.8642 329.785C76.0792 329.89 76.3542 329.942 76.6892 329.942ZM88.3493 331V327.017C88.3493 326.702 88.3218 326.38 88.2668 326.05C88.2168 325.715 88.1168 325.405 87.9668 325.12C87.8218 324.835 87.6143 324.605 87.3443 324.43C87.0793 324.255 86.7318 324.167 86.3018 324.167C86.0218 324.167 85.7568 324.215 85.5068 324.31C85.2568 324.4 85.0368 324.547 84.8468 324.752C84.6618 324.957 84.5143 325.227 84.4043 325.562C84.2993 325.897 84.2468 326.305 84.2468 326.785L83.2718 326.417C83.2718 325.682 83.4093 325.035 83.6843 324.475C83.9593 323.91 84.3543 323.47 84.8693 323.155C85.3843 322.84 86.0068 322.682 86.7368 322.682C87.2968 322.682 87.7668 322.772 88.1468 322.952C88.5268 323.132 88.8343 323.37 89.0693 323.665C89.3093 323.955 89.4918 324.272 89.6168 324.617C89.7418 324.962 89.8268 325.3 89.8718 325.63C89.9168 325.96 89.9393 326.25 89.9393 326.5V331H88.3493ZM82.6568 331V322.9H84.0593V325.24H84.2468V331H82.6568ZM91.8853 331L91.8928 320.2H93.4828V326.8L96.6628 322.9H98.6578L95.2978 326.95L99.0028 331H96.8728L93.4828 327.1V331H91.8853ZM105.049 331.225C104.449 331.225 103.947 331.115 103.542 330.895C103.137 330.67 102.829 330.375 102.619 330.01C102.414 329.64 102.312 329.235 102.312 328.795C102.312 328.385 102.384 328.025 102.529 327.715C102.674 327.405 102.889 327.142 103.174 326.927C103.459 326.707 103.809 326.53 104.224 326.395C104.584 326.29 104.992 326.197 105.447 326.117C105.902 326.037 106.379 325.962 106.879 325.892C107.384 325.822 107.884 325.752 108.379 325.682L107.809 325.997C107.819 325.362 107.684 324.892 107.404 324.587C107.129 324.277 106.654 324.122 105.979 324.122C105.554 324.122 105.164 324.222 104.809 324.422C104.454 324.617 104.207 324.942 104.067 325.397L102.604 324.947C102.804 324.252 103.184 323.7 103.744 323.29C104.309 322.88 105.059 322.675 105.994 322.675C106.719 322.675 107.349 322.8 107.884 323.05C108.424 323.295 108.819 323.685 109.069 324.22C109.199 324.485 109.279 324.765 109.309 325.06C109.339 325.355 109.354 325.672 109.354 326.012V331H107.967V329.147L108.237 329.387C107.902 330.007 107.474 330.47 106.954 330.775C106.439 331.075 105.804 331.225 105.049 331.225ZM105.327 329.942C105.772 329.942 106.154 329.865 106.474 329.71C106.794 329.55 107.052 329.347 107.247 329.102C107.442 328.857 107.569 328.602 107.629 328.337C107.714 328.097 107.762 327.827 107.772 327.527C107.787 327.227 107.794 326.987 107.794 326.807L108.304 326.995C107.809 327.07 107.359 327.137 106.954 327.197C106.549 327.257 106.182 327.317 105.852 327.377C105.527 327.432 105.237 327.5 104.982 327.58C104.767 327.655 104.574 327.745 104.404 327.85C104.239 327.955 104.107 328.082 104.007 328.232C103.912 328.382 103.864 328.565 103.864 328.78C103.864 328.99 103.917 329.185 104.022 329.365C104.127 329.54 104.287 329.68 104.502 329.785C104.717 329.89 104.992 329.942 105.327 329.942ZM114.767 331.225C113.937 331.225 113.232 331.04 112.652 330.67C112.072 330.3 111.627 329.792 111.317 329.147C111.012 328.502 110.857 327.77 110.852 326.95C110.857 326.115 111.017 325.377 111.332 324.737C111.647 324.092 112.097 323.587 112.682 323.222C113.267 322.857 113.969 322.675 114.789 322.675C115.674 322.675 116.429 322.895 117.054 323.335C117.684 323.775 118.099 324.377 118.299 325.142L116.739 325.592C116.584 325.137 116.329 324.785 115.974 324.535C115.624 324.28 115.222 324.152 114.767 324.152C114.252 324.152 113.829 324.275 113.499 324.52C113.169 324.76 112.924 325.09 112.764 325.51C112.604 325.93 112.522 326.41 112.517 326.95C112.522 327.785 112.712 328.46 113.087 328.975C113.467 329.49 114.027 329.747 114.767 329.747C115.272 329.747 115.679 329.632 115.989 329.402C116.304 329.167 116.544 328.832 116.709 328.397L118.299 328.772C118.034 329.562 117.597 330.17 116.987 330.595C116.377 331.015 115.637 331.225 114.767 331.225ZM123.073 331.225C122.243 331.225 121.538 331.04 120.958 330.67C120.378 330.3 119.933 329.792 119.623 329.147C119.318 328.502 119.163 327.77 119.158 326.95C119.163 326.115 119.323 325.377 119.638 324.737C119.953 324.092 120.403 323.587 120.988 323.222C121.573 322.857 122.275 322.675 123.095 322.675C123.98 322.675 124.735 322.895 125.36 323.335C125.99 323.775 126.405 324.377 126.605 325.142L125.045 325.592C124.89 325.137 124.635 324.785 124.28 324.535C123.93 324.28 123.528 324.152 123.073 324.152C122.558 324.152 122.135 324.275 121.805 324.52C121.475 324.76 121.23 325.09 121.07 325.51C120.91 325.93 120.828 326.41 120.823 326.95C120.828 327.785 121.018 328.46 121.393 328.975C121.773 329.49 122.333 329.747 123.073 329.747C123.578 329.747 123.985 329.632 124.295 329.402C124.61 329.167 124.85 328.832 125.015 328.397L126.605 328.772C126.34 329.562 125.903 330.17 125.293 330.595C124.683 331.015 123.943 331.225 123.073 331.225ZM131.431 331.225C130.621 331.225 129.918 331.043 129.323 330.677C128.728 330.312 128.268 329.81 127.943 329.17C127.623 328.525 127.463 327.782 127.463 326.942C127.463 326.097 127.628 325.355 127.958 324.715C128.288 324.07 128.751 323.57 129.346 323.215C129.941 322.855 130.636 322.675 131.431 322.675C132.241 322.675 132.943 322.857 133.538 323.222C134.133 323.587 134.593 324.09 134.918 324.73C135.243 325.37 135.406 326.107 135.406 326.942C135.406 327.787 135.241 328.532 134.911 329.177C134.586 329.817 134.126 330.32 133.531 330.685C132.936 331.045 132.236 331.225 131.431 331.225ZM131.431 329.747C132.206 329.747 132.783 329.487 133.163 328.967C133.548 328.442 133.741 327.767 133.741 326.942C133.741 326.097 133.546 325.422 133.156 324.917C132.771 324.407 132.196 324.152 131.431 324.152C130.906 324.152 130.473 324.272 130.133 324.512C129.793 324.747 129.541 325.075 129.376 325.495C129.211 325.91 129.128 326.392 129.128 326.942C129.128 327.792 129.323 328.472 129.713 328.982C130.103 329.492 130.676 329.747 131.431 329.747ZM140.106 331.218C139.546 331.218 139.076 331.128 138.696 330.947C138.316 330.767 138.006 330.532 137.766 330.242C137.531 329.947 137.351 329.627 137.226 329.282C137.101 328.937 137.016 328.6 136.971 328.27C136.926 327.94 136.904 327.65 136.904 327.4V322.9H138.494V326.882C138.494 327.197 138.519 327.522 138.569 327.857C138.624 328.187 138.724 328.495 138.869 328.78C139.019 329.065 139.226 329.295 139.491 329.47C139.761 329.645 140.111 329.732 140.541 329.732C140.821 329.732 141.086 329.687 141.336 329.597C141.586 329.502 141.804 329.352 141.989 329.147C142.179 328.942 142.326 328.672 142.431 328.337C142.541 328.002 142.596 327.595 142.596 327.115L143.571 327.482C143.571 328.217 143.434 328.867 143.159 329.432C142.884 329.992 142.489 330.43 141.974 330.745C141.459 331.06 140.836 331.218 140.106 331.218ZM142.784 331V328.66H142.596V322.9H144.179V331H142.784ZM151.967 331V327.017C151.967 326.702 151.94 326.38 151.885 326.05C151.835 325.715 151.735 325.405 151.585 325.12C151.44 324.835 151.232 324.605 150.962 324.43C150.697 324.255 150.35 324.167 149.92 324.167C149.64 324.167 149.375 324.215 149.125 324.31C148.875 324.4 148.655 324.547 148.465 324.752C148.28 324.957 148.132 325.227 148.022 325.562C147.917 325.897 147.865 326.305 147.865 326.785L146.89 326.417C146.89 325.682 147.027 325.035 147.302 324.475C147.577 323.91 147.972 323.47 148.487 323.155C149.002 322.84 149.625 322.682 150.355 322.682C150.915 322.682 151.385 322.772 151.765 322.952C152.145 323.132 152.452 323.37 152.687 323.665C152.927 323.955 153.11 324.272 153.235 324.617C153.36 324.962 153.445 325.3 153.49 325.63C153.535 325.96 153.557 326.25 153.557 326.5V331H151.967ZM146.275 331V322.9H147.677V325.24H147.865V331H146.275ZM160.146 331C159.636 331.1 159.136 331.143 158.646 331.128C158.156 331.113 157.718 331.017 157.333 330.842C156.948 330.667 156.658 330.392 156.463 330.017C156.288 329.682 156.193 329.342 156.178 328.997C156.168 328.647 156.163 328.252 156.163 327.812V320.65H157.738V327.737C157.738 328.062 157.741 328.345 157.746 328.585C157.756 328.825 157.808 329.027 157.903 329.192C158.083 329.502 158.368 329.68 158.758 329.725C159.153 329.765 159.616 329.747 160.146 329.672V331ZM154.611 324.16V322.9H160.146V324.16H154.611ZM164.951 331.218C163.966 331.218 163.164 331 162.544 330.565C161.924 330.13 161.544 329.517 161.404 328.727L163.009 328.48C163.109 328.9 163.339 329.232 163.699 329.477C164.064 329.717 164.516 329.837 165.056 329.837C165.546 329.837 165.929 329.737 166.204 329.537C166.484 329.337 166.624 329.062 166.624 328.712C166.624 328.507 166.574 328.342 166.474 328.217C166.379 328.087 166.176 327.965 165.866 327.85C165.556 327.735 165.084 327.592 164.449 327.422C163.754 327.242 163.201 327.05 162.791 326.845C162.386 326.635 162.096 326.392 161.921 326.117C161.751 325.837 161.666 325.5 161.666 325.105C161.666 324.615 161.796 324.187 162.056 323.822C162.316 323.457 162.681 323.175 163.151 322.975C163.626 322.775 164.181 322.675 164.816 322.675C165.436 322.675 165.989 322.772 166.474 322.967C166.959 323.162 167.351 323.44 167.651 323.8C167.951 324.155 168.131 324.572 168.191 325.052L166.586 325.345C166.531 324.955 166.349 324.647 166.039 324.422C165.729 324.197 165.326 324.075 164.831 324.055C164.356 324.035 163.971 324.115 163.676 324.295C163.381 324.47 163.234 324.712 163.234 325.022C163.234 325.202 163.289 325.355 163.399 325.48C163.514 325.605 163.734 325.725 164.059 325.84C164.384 325.955 164.864 326.092 165.499 326.252C166.179 326.427 166.719 326.622 167.119 326.837C167.519 327.047 167.804 327.3 167.974 327.595C168.149 327.885 168.236 328.237 168.236 328.652C168.236 329.452 167.944 330.08 167.359 330.535C166.779 330.99 165.976 331.218 164.951 331.218Z" fill="#1D1D1F"/>
<rect x="255" y="300" width="72" height="20" rx="10" fill="#FFEECC"/>
<path d="M267.876 314V305.6H271.212C271.724 305.6 272.18 305.704 272.58 305.912C272.988 306.112 273.304 306.4 273.528 306.776C273.76 307.144 273.876 307.588 273.876 308.108V308.264C273.876 308.784 273.756 309.232 273.516 309.608C273.284 309.984 272.968 310.272 272.568 310.472C272.168 310.672 271.716 310.772 271.212 310.772H269.172V314H267.876ZM269.172 309.596H271.08C271.536 309.596 271.9 309.476 272.172 309.236C272.444 308.996 272.58 308.668 272.58 308.252V308.132C272.58 307.708 272.444 307.376 272.172 307.136C271.9 306.896 271.536 306.776 271.08 306.776H269.172V309.596ZM277.69 314.168C277.09 314.168 276.566 314.044 276.118 313.796C275.67 313.54 275.318 313.184 275.062 312.728C274.814 312.264 274.69 311.728 274.69 311.12V310.976C274.69 310.36 274.814 309.824 275.062 309.368C275.31 308.904 275.654 308.548 276.094 308.3C276.542 308.044 277.058 307.916 277.642 307.916C278.21 307.916 278.706 308.044 279.13 308.3C279.562 308.548 279.898 308.896 280.138 309.344C280.378 309.792 280.498 310.316 280.498 310.916V311.384H275.95C275.966 311.904 276.138 312.32 276.466 312.632C276.802 312.936 277.218 313.088 277.714 313.088C278.178 313.088 278.526 312.984 278.758 312.776C278.998 312.568 279.182 312.328 279.31 312.056L280.33 312.584C280.218 312.808 280.054 313.044 279.838 313.292C279.63 313.54 279.354 313.748 279.01 313.916C278.666 314.084 278.226 314.168 277.69 314.168ZM275.962 310.436H279.238C279.206 309.988 279.046 309.64 278.758 309.392C278.47 309.136 278.094 309.008 277.63 309.008C277.166 309.008 276.786 309.136 276.49 309.392C276.202 309.64 276.026 309.988 275.962 310.436ZM281.986 314V308.084H283.198V308.972H283.39C283.502 308.732 283.702 308.508 283.99 308.3C284.278 308.092 284.706 307.988 285.274 307.988C285.722 307.988 286.118 308.088 286.462 308.288C286.814 308.488 287.09 308.772 287.29 309.14C287.49 309.5 287.59 309.936 287.59 310.448V314H286.354V310.544C286.354 310.032 286.226 309.656 285.97 309.416C285.714 309.168 285.362 309.044 284.914 309.044C284.402 309.044 283.99 309.212 283.678 309.548C283.374 309.884 283.222 310.372 283.222 311.012V314H281.986ZM291.817 314.168C291.329 314.168 290.877 314.048 290.461 313.808C290.045 313.568 289.709 313.224 289.453 312.776C289.205 312.32 289.081 311.772 289.081 311.132V310.952C289.081 310.32 289.205 309.776 289.453 309.32C289.701 308.864 290.033 308.516 290.449 308.276C290.865 308.036 291.321 307.916 291.817 307.916C292.201 307.916 292.521 307.964 292.777 308.06C293.041 308.156 293.257 308.28 293.425 308.432C293.593 308.576 293.721 308.728 293.809 308.888H294.001V305.6H295.237V314H294.025V313.16H293.833C293.681 313.416 293.449 313.648 293.137 313.856C292.833 314.064 292.393 314.168 291.817 314.168ZM292.165 313.088C292.701 313.088 293.141 312.916 293.485 312.572C293.837 312.228 294.013 311.736 294.013 311.096V310.988C294.013 310.356 293.841 309.868 293.497 309.524C293.153 309.18 292.709 309.008 292.165 309.008C291.637 309.008 291.197 309.18 290.845 309.524C290.501 309.868 290.329 310.356 290.329 310.988V311.096C290.329 311.736 290.501 312.228 290.845 312.572C291.197 312.916 291.637 313.088 292.165 313.088ZM297.057 314V308.084H298.293V314H297.057ZM297.681 307.28C297.441 307.28 297.237 307.204 297.069 307.052C296.909 306.892 296.829 306.688 296.829 306.44C296.829 306.192 296.909 305.992 297.069 305.84C297.237 305.68 297.441 305.6 297.681 305.6C297.929 305.6 298.133 305.68 298.293 305.84C298.453 305.992 298.533 306.192 298.533 306.44C298.533 306.688 298.453 306.892 298.293 307.052C298.133 307.204 297.929 307.28 297.681 307.28ZM300.127 314V308.084H301.339V308.972H301.531C301.643 308.732 301.843 308.508 302.131 308.3C302.419 308.092 302.847 307.988 303.415 307.988C303.863 307.988 304.259 308.088 304.603 308.288C304.955 308.488 305.231 308.772 305.431 309.14C305.631 309.5 305.731 309.936 305.731 310.448V314H304.495V310.544C304.495 310.032 304.367 309.656 304.111 309.416C303.855 309.168 303.503 309.044 303.055 309.044C302.543 309.044 302.131 309.212 301.819 309.548C301.515 309.884 301.363 310.372 301.363 311.012V314H300.127ZM307.222 311.072V310.892C307.222 310.268 307.346 309.736 307.594 309.296C307.85 308.856 308.186 308.516 308.602 308.276C309.018 308.036 309.474 307.916 309.97 307.916C310.546 307.916 310.986 308.024 311.29 308.24C311.602 308.456 311.83 308.688 311.974 308.936H312.166V308.084H313.366V315.212C313.366 315.572 313.258 315.86 313.042 316.076C312.834 316.292 312.546 316.4 312.178 316.4H308.194V315.32H311.794C312.026 315.32 312.142 315.2 312.142 314.96V313.076H311.95C311.862 313.22 311.738 313.368 311.578 313.52C311.418 313.672 311.206 313.796 310.942 313.892C310.686 313.988 310.362 314.036 309.97 314.036C309.474 314.036 309.014 313.92 308.59 313.688C308.174 313.448 307.842 313.108 307.594 312.668C307.346 312.22 307.222 311.688 307.222 311.072ZM310.306 312.956C310.842 312.956 311.282 312.788 311.626 312.452C311.978 312.108 312.154 311.636 312.154 311.036V310.928C312.154 310.312 311.982 309.84 311.638 309.512C311.294 309.176 310.85 309.008 310.306 309.008C309.778 309.008 309.338 309.176 308.986 309.512C308.642 309.84 308.47 310.312 308.47 310.928V311.036C308.47 311.636 308.642 312.108 308.986 312.452C309.338 312.788 309.778 312.956 310.306 312.956Z" fill="#CC8700"/>
<defs>
<filter id="filter0_d_1131_3250" x="4" y="4" width="351" height="103" filterUnits="userSpaceOnUse" color-interpolation-filters="sRGB">
<feFlood flood-opacity="0" result="BackgroundImageFix"/>
<feColorMatrix in="SourceAlpha" type="matrix" values="0 0 0 0 0 0 0 0 0 0 0 0 0 0 0 0 0 0 127 0" result="hardAlpha"/>
<feOffset/>
<feGaussianBlur stdDeviation="2"/>
<feComposite in2="hardAlpha" operator="out"/>
<feColorMatrix type="matrix" values="0 0 0 0 0 0 0 0 0 0 0 0 0 0 0 0 0 0 0.15 0"/>
<feBlend mode="normal" in2="BackgroundImageFix" result="effect1_dropShadow_1131_3250"/>
<feBlend mode="normal" in="SourceGraphic" in2="effect1_dropShadow_1131_3250" result="shape"/>
</filter>
</defs>
</svg>
