<svg width="359" height="415" viewBox="0 0 359 415" fill="none" xmlns="http://www.w3.org/2000/svg">
<rect width="359" height="415" rx="24" fill="black"/>
<g filter="url(#filter0_d_1131_3250)">
<rect x="8" y="8" width="343" height="95" rx="16" fill="white" shape-rendering="crispEdges"/>
<path d="M35.756 48.168C35.148 48.168 34.604 48.06 34.124 47.844C33.644 47.628 33.264 47.304 32.984 46.872C32.712 46.432 32.576 45.884 32.576 45.228V44.976H33.572V45.228C33.572 45.924 33.776 46.444 34.184 46.788C34.592 47.124 35.116 47.292 35.756 47.292C36.412 47.292 36.912 47.144 37.256 46.848C37.6 46.552 37.772 46.18 37.772 45.732C37.772 45.42 37.692 45.172 37.532 44.988C37.38 44.804 37.164 44.656 36.884 44.544C36.604 44.424 36.276 44.32 35.9 44.232L35.276 44.076C34.788 43.948 34.356 43.792 33.98 43.608C33.604 43.424 33.308 43.184 33.092 42.888C32.884 42.584 32.78 42.196 32.78 41.724C32.78 41.252 32.896 40.844 33.128 40.5C33.368 40.156 33.7 39.892 34.124 39.708C34.556 39.524 35.052 39.432 35.612 39.432C36.18 39.432 36.688 39.532 37.136 39.732C37.592 39.924 37.948 40.212 38.204 40.596C38.468 40.972 38.6 41.448 38.6 42.024V42.528H37.604V42.024C37.604 41.616 37.516 41.288 37.34 41.04C37.172 40.792 36.936 40.608 36.632 40.488C36.336 40.368 35.996 40.308 35.612 40.308C35.06 40.308 34.616 40.432 34.28 40.68C33.944 40.92 33.776 41.264 33.776 41.712C33.776 42.008 33.848 42.248 33.992 42.432C34.136 42.616 34.34 42.768 34.604 42.888C34.868 43 35.184 43.1 35.552 43.188L36.176 43.344C36.664 43.448 37.1 43.592 37.484 43.776C37.876 43.952 38.188 44.196 38.42 44.508C38.652 44.812 38.768 45.212 38.768 45.708C38.768 46.204 38.644 46.636 38.396 47.004C38.148 47.372 37.796 47.66 37.34 47.868C36.892 48.068 36.364 48.168 35.756 48.168ZM42.5154 48C42.1794 48 41.9194 47.908 41.7354 47.724C41.5594 47.54 41.4714 47.288 41.4714 46.968V42.96H39.7074V42.132H41.4714V40.044H42.4194V42.132H44.3394V42.96H42.4194V46.824C42.4194 47.064 42.5354 47.184 42.7674 47.184H44.0754V48H42.5154ZM48.352 48.168C47.76 48.168 47.24 48.044 46.792 47.796C46.344 47.54 45.996 47.184 45.748 46.728C45.5 46.272 45.376 45.744 45.376 45.144V45C45.376 44.392 45.5 43.86 45.748 43.404C45.996 42.948 46.34 42.596 46.78 42.348C47.22 42.092 47.724 41.964 48.292 41.964C48.844 41.964 49.332 42.084 49.756 42.324C50.18 42.556 50.512 42.892 50.752 43.332C50.992 43.772 51.112 44.288 51.112 44.88V45.312H46.324C46.348 45.944 46.552 46.44 46.936 46.8C47.32 47.152 47.8 47.328 48.376 47.328C48.88 47.328 49.268 47.212 49.54 46.98C49.812 46.748 50.02 46.472 50.164 46.152L50.98 46.548C50.86 46.796 50.692 47.044 50.476 47.292C50.268 47.54 49.992 47.748 49.648 47.916C49.312 48.084 48.88 48.168 48.352 48.168ZM46.336 44.532H50.152C50.12 43.988 49.932 43.564 49.588 43.26C49.252 42.956 48.82 42.804 48.292 42.804C47.756 42.804 47.316 42.956 46.972 43.26C46.628 43.564 46.416 43.988 46.336 44.532ZM52.7655 50.4V42.132H53.6895V43.104H53.8575C54.0095 42.808 54.2535 42.544 54.5895 42.312C54.9335 42.08 55.4095 41.964 56.0175 41.964C56.5215 41.964 56.9815 42.088 57.3975 42.336C57.8215 42.576 58.1575 42.92 58.4055 43.368C58.6615 43.816 58.7895 44.356 58.7895 44.988V45.144C58.7895 45.768 58.6655 46.308 58.4175 46.764C58.1695 47.22 57.8335 47.568 57.4095 47.808C56.9935 48.048 56.5295 48.168 56.0175 48.168C55.6095 48.168 55.2615 48.112 54.9735 48C54.6935 47.896 54.4655 47.76 54.2895 47.592C54.1135 47.424 53.9775 47.252 53.8815 47.076H53.7135V50.4H52.7655ZM55.7655 47.328C56.3735 47.328 56.8655 47.136 57.2415 46.752C57.6255 46.36 57.8175 45.816 57.8175 45.12V45.012C57.8175 44.316 57.6255 43.776 57.2415 43.392C56.8655 43 56.3735 42.804 55.7655 42.804C55.1655 42.804 54.6695 43 54.2775 43.392C53.8935 43.776 53.7015 44.316 53.7015 45.012V45.12C53.7015 45.816 53.8935 46.36 54.2775 46.752C54.6695 47.136 55.1655 47.328 55.7655 47.328ZM65.6582 48V40.248H65.4782L63.8462 43.236H62.7902L64.7942 39.6H66.6302V48H65.6582Z" fill="#595959"/>
<path d="M35.48 71L32.075 60.2H33.935L36.785 69.245L39.6725 60.2H41.5325L38.1275 71H35.48ZM45.4483 71.225C44.6283 71.225 43.9083 71.0475 43.2883 70.6925C42.6683 70.3375 42.1833 69.845 41.8333 69.215C41.4883 68.585 41.3158 67.86 41.3158 67.04C41.3158 66.155 41.4858 65.3875 41.8258 64.7375C42.1658 64.0825 42.6383 63.575 43.2433 63.215C43.8483 62.855 44.5483 62.675 45.3433 62.675C46.1833 62.675 46.8958 62.8725 47.4808 63.2675C48.0708 63.6575 48.5083 64.21 48.7933 64.925C49.0783 65.64 49.1858 66.4825 49.1158 67.4525H47.3233V66.7925C47.3183 65.9125 47.1633 65.27 46.8583 64.865C46.5533 64.46 46.0733 64.2575 45.4183 64.2575C44.6783 64.2575 44.1283 64.4875 43.7683 64.9475C43.4083 65.4025 43.2283 66.07 43.2283 66.95C43.2283 67.77 43.4083 68.405 43.7683 68.855C44.1283 69.305 44.6533 69.53 45.3433 69.53C45.7883 69.53 46.1708 69.4325 46.4908 69.2375C46.8158 69.0375 47.0658 68.75 47.2408 68.375L49.0258 68.915C48.7158 69.645 48.2358 70.2125 47.5858 70.6175C46.9408 71.0225 46.2283 71.225 45.4483 71.225ZM42.6583 67.4525V66.0875H48.2308V67.4525H42.6583ZM50.7893 71V62.9H52.3868V64.8725L52.1918 64.6175C52.2918 64.3475 52.4243 64.1025 52.5893 63.8825C52.7593 63.6575 52.9618 63.4725 53.1968 63.3275C53.3968 63.1925 53.6168 63.0875 53.8568 63.0125C54.1018 62.9325 54.3518 62.885 54.6068 62.87C54.8618 62.85 55.1093 62.86 55.3493 62.9V64.5875C55.1093 64.5175 54.8318 64.495 54.5168 64.52C54.2068 64.545 53.9268 64.6325 53.6768 64.7825C53.4268 64.9175 53.2218 65.09 53.0618 65.3C52.9068 65.51 52.7918 65.75 52.7168 66.02C52.6418 66.285 52.6043 66.5725 52.6043 66.8825V71H50.7893ZM56.9305 61.67V60.0125H58.738V61.67H56.9305ZM56.9305 71V62.9H58.738V71H56.9305ZM61.6896 71V62.7725C61.6896 62.5675 61.6971 62.3425 61.7121 62.0975C61.7271 61.8475 61.7696 61.6 61.8396 61.355C61.9096 61.11 62.0371 60.8875 62.2221 60.6875C62.4521 60.4325 62.6996 60.2575 62.9646 60.1625C63.2346 60.0625 63.4996 60.0075 63.7596 59.9975C64.0196 59.9825 64.2471 59.975 64.4421 59.975H65.4546V61.445H64.5171C64.1721 61.445 63.9146 61.5325 63.7446 61.7075C63.5796 61.8775 63.4971 62.1025 63.4971 62.3825V71H61.6896ZM60.3846 64.3175V62.9H65.4546V64.3175H60.3846ZM67.7185 74.6L69.2785 70.3175L69.3085 71.5775L65.776 62.9H67.6585L70.1635 69.32H69.6835L72.121 62.9H73.9285L69.4135 74.6H67.7185ZM79.115 74.6L80.675 70.3175L80.705 71.5775L77.1725 62.9H79.055L81.56 69.32H81.08L83.5175 62.9H85.325L80.81 74.6H79.115ZM89.7281 71.225C88.9181 71.225 88.2106 71.0425 87.6056 70.6775C87.0006 70.3125 86.5306 69.81 86.1956 69.17C85.8656 68.525 85.7006 67.785 85.7006 66.95C85.7006 66.1 85.8706 65.355 86.2106 64.715C86.5506 64.075 87.0231 63.575 87.6281 63.215C88.2331 62.855 88.9331 62.675 89.7281 62.675C90.5431 62.675 91.2531 62.8575 91.8581 63.2225C92.4631 63.5875 92.9331 64.0925 93.2681 64.7375C93.6031 65.3775 93.7706 66.115 93.7706 66.95C93.7706 67.79 93.6006 68.5325 93.2606 69.1775C92.9256 69.8175 92.4556 70.32 91.8506 70.685C91.2456 71.045 90.5381 71.225 89.7281 71.225ZM89.7281 69.53C90.4481 69.53 90.9831 69.29 91.3331 68.81C91.6831 68.33 91.8581 67.71 91.8581 66.95C91.8581 66.165 91.6806 65.54 91.3256 65.075C90.9706 64.605 90.4381 64.37 89.7281 64.37C89.2431 64.37 88.8431 64.48 88.5281 64.7C88.2181 64.915 87.9881 65.2175 87.8381 65.6075C87.6881 65.9925 87.6131 66.44 87.6131 66.95C87.6131 67.735 87.7906 68.3625 88.1456 68.8325C88.5056 69.2975 89.0331 69.53 89.7281 69.53ZM98.4605 71.2325C97.8605 71.2325 97.3655 71.1325 96.9755 70.9325C96.5855 70.7325 96.2755 70.4775 96.0455 70.1675C95.8155 69.8575 95.6455 69.5275 95.5355 69.1775C95.4255 68.8275 95.353 68.4975 95.318 68.1875C95.288 67.8725 95.273 67.6175 95.273 67.4225V62.9H97.103V66.8C97.103 67.05 97.1205 67.3325 97.1555 67.6475C97.1905 67.9575 97.2705 68.2575 97.3955 68.5475C97.5255 68.8325 97.7155 69.0675 97.9655 69.2525C98.2205 69.4375 98.563 69.53 98.993 69.53C99.223 69.53 99.4505 69.4925 99.6755 69.4175C99.9005 69.3425 100.103 69.215 100.283 69.035C100.468 68.85 100.616 68.5975 100.726 68.2775C100.836 67.9575 100.891 67.5525 100.891 67.0625L101.963 67.52C101.963 68.21 101.828 68.835 101.558 69.395C101.293 69.955 100.901 70.4025 100.381 70.7375C99.8605 71.0675 99.2205 71.2325 98.4605 71.2325ZM101.108 71V68.4875H100.891V62.9H102.706V71H101.108ZM104.813 71V62.9H106.41V64.8725L106.215 64.6175C106.315 64.3475 106.448 64.1025 106.613 63.8825C106.783 63.6575 106.985 63.4725 107.22 63.3275C107.42 63.1925 107.64 63.0875 107.88 63.0125C108.125 62.9325 108.375 62.885 108.63 62.87C108.885 62.85 109.133 62.86 109.373 62.9V64.5875C109.133 64.5175 108.855 64.495 108.54 64.52C108.23 64.545 107.95 64.6325 107.7 64.7825C107.45 64.9175 107.245 65.09 107.085 65.3C106.93 65.51 106.815 65.75 106.74 66.02C106.665 66.285 106.628 66.5725 106.628 66.8825V71H104.813ZM113.957 71V60.2H115.764V71H113.957ZM121.258 71.225C120.513 71.225 119.863 71.0375 119.308 70.6625C118.753 70.2875 118.323 69.7775 118.018 69.1325C117.713 68.4875 117.561 67.76 117.561 66.95C117.561 66.13 117.713 65.4 118.018 64.76C118.328 64.115 118.766 63.6075 119.331 63.2375C119.896 62.8625 120.561 62.675 121.326 62.675C122.096 62.675 122.741 62.8625 123.261 63.2375C123.786 63.6075 124.183 64.115 124.453 64.76C124.723 65.405 124.858 66.135 124.858 66.95C124.858 67.755 124.723 68.4825 124.453 69.1325C124.183 69.7775 123.781 70.2875 123.246 70.6625C122.711 71.0375 122.048 71.225 121.258 71.225ZM121.536 69.605C122.021 69.605 122.411 69.495 122.706 69.275C123.006 69.05 123.223 68.7375 123.358 68.3375C123.498 67.9375 123.568 67.475 123.568 66.95C123.568 66.42 123.498 65.9575 123.358 65.5625C123.223 65.1625 123.011 64.8525 122.721 64.6325C122.431 64.4075 122.056 64.295 121.596 64.295C121.111 64.295 120.711 64.415 120.396 64.655C120.081 64.89 119.848 65.21 119.698 65.615C119.548 66.015 119.473 66.46 119.473 66.95C119.473 67.445 119.546 67.895 119.691 68.3C119.841 68.7 120.068 69.0175 120.373 69.2525C120.678 69.4875 121.066 69.605 121.536 69.605ZM123.568 71V65.315H123.343V60.2H125.166V71H123.568ZM130.951 71.225C130.131 71.225 129.411 71.0475 128.791 70.6925C128.171 70.3375 127.686 69.845 127.336 69.215C126.991 68.585 126.819 67.86 126.819 67.04C126.819 66.155 126.989 65.3875 127.329 64.7375C127.669 64.0825 128.141 63.575 128.746 63.215C129.351 62.855 130.051 62.675 130.846 62.675C131.686 62.675 132.399 62.8725 132.984 63.2675C133.574 63.6575 134.011 64.21 134.296 64.925C134.581 65.64 134.689 66.4825 134.619 67.4525H132.826V66.7925C132.821 65.9125 132.666 65.27 132.361 64.865C132.056 64.46 131.576 64.2575 130.921 64.2575C130.181 64.2575 129.631 64.4875 129.271 64.9475C128.911 65.4025 128.731 66.07 128.731 66.95C128.731 67.77 128.911 68.405 129.271 68.855C129.631 69.305 130.156 69.53 130.846 69.53C131.291 69.53 131.674 69.4325 131.994 69.2375C132.319 69.0375 132.569 68.75 132.744 68.375L134.529 68.915C134.219 69.645 133.739 70.2125 133.089 70.6175C132.444 71.0225 131.731 71.225 130.951 71.225ZM128.161 67.4525V66.0875H133.734V67.4525H128.161ZM141.675 71V67.1C141.675 66.845 141.657 66.5625 141.622 66.2525C141.587 65.9425 141.505 65.645 141.375 65.36C141.25 65.07 141.06 64.8325 140.805 64.6475C140.555 64.4625 140.215 64.37 139.785 64.37C139.555 64.37 139.327 64.4075 139.102 64.4825C138.877 64.5575 138.672 64.6875 138.487 64.8725C138.307 65.0525 138.162 65.3025 138.052 65.6225C137.942 65.9375 137.887 66.3425 137.887 66.8375L136.815 66.38C136.815 65.69 136.947 65.065 137.212 64.505C137.482 63.945 137.877 63.5 138.397 63.17C138.917 62.835 139.557 62.6675 140.317 62.6675C140.917 62.6675 141.412 62.7675 141.802 62.9675C142.192 63.1675 142.502 63.4225 142.732 63.7325C142.962 64.0425 143.132 64.3725 143.242 64.7225C143.352 65.0725 143.422 65.405 143.452 65.72C143.487 66.03 143.505 66.2825 143.505 66.4775V71H141.675ZM136.057 71V62.9H137.67V65.4125H137.887V71H136.057ZM150.21 71C149.675 71.1 149.15 71.1425 148.635 71.1275C148.125 71.1175 147.667 71.025 147.262 70.85C146.857 70.67 146.55 70.3875 146.34 70.0025C146.155 69.6525 146.057 69.295 146.047 68.93C146.037 68.565 146.032 68.1525 146.032 67.6925V60.65H147.832V67.5875C147.832 67.9125 147.835 68.1975 147.84 68.4425C147.85 68.6875 147.902 68.8875 147.997 69.0425C148.177 69.3425 148.465 69.51 148.86 69.545C149.255 69.58 149.705 69.56 150.21 69.485V71ZM144.562 64.3175V62.9H150.21V64.3175H144.562ZM152.101 61.67V60.0125H153.909V61.67H152.101ZM152.101 71V62.9H153.909V71H152.101ZM160.903 71C160.368 71.1 159.843 71.1425 159.328 71.1275C158.818 71.1175 158.36 71.025 157.955 70.85C157.55 70.67 157.243 70.3875 157.033 70.0025C156.848 69.6525 156.75 69.295 156.74 68.93C156.73 68.565 156.725 68.1525 156.725 67.6925V60.65H158.525V67.5875C158.525 67.9125 158.528 68.1975 158.533 68.4425C158.543 68.6875 158.595 68.8875 158.69 69.0425C158.87 69.3425 159.158 69.51 159.553 69.545C159.948 69.58 160.398 69.56 160.903 69.485V71ZM155.255 64.3175V62.9H160.903V64.3175H155.255ZM163.49 74.6L165.05 70.3175L165.08 71.5775L161.548 62.9H163.43L165.935 69.32H165.455L167.893 62.9H169.7L165.185 74.6H163.49Z" fill="#1D1D1F"/>
<rect x="278" y="40" width="49" height="20" rx="10" fill="black"/>
<path d="M290.876 54V45.6H293.372L295.652 53.136H295.844V45.6H297.128V54H294.632L292.352 46.452H292.16V54H290.876ZM301.688 54.168C301.096 54.168 300.568 54.048 300.104 53.808C299.648 53.56 299.288 53.208 299.024 52.752C298.76 52.296 298.628 51.756 298.628 51.132V50.952C298.628 50.328 298.76 49.792 299.024 49.344C299.288 48.888 299.648 48.536 300.104 48.288C300.568 48.04 301.096 47.916 301.688 47.916C302.28 47.916 302.808 48.04 303.272 48.288C303.736 48.536 304.1 48.888 304.364 49.344C304.628 49.792 304.76 50.328 304.76 50.952V51.132C304.76 51.756 304.628 52.296 304.364 52.752C304.1 53.208 303.736 53.56 303.272 53.808C302.808 54.048 302.28 54.168 301.688 54.168ZM301.688 53.064C302.232 53.064 302.672 52.892 303.008 52.548C303.352 52.196 303.524 51.712 303.524 51.096V50.988C303.524 50.372 303.356 49.892 303.02 49.548C302.684 49.196 302.24 49.02 301.688 49.02C301.152 49.02 300.712 49.196 300.368 49.548C300.032 49.892 299.864 50.372 299.864 50.988V51.096C299.864 51.712 300.032 52.196 300.368 52.548C300.712 52.892 301.152 53.064 301.688 53.064ZM306.876 54L305.868 48.084H307.104L307.848 53.172H308.04L309.072 48.084H311.076L312.096 53.172H312.288L313.032 48.084H314.268L313.26 54H311.184L310.164 48.924H309.972L308.952 54H306.876Z" fill="white"/>
</g>
<rect x="42" y="118" width="2" height="27" fill="#868686"/>
<rect x="8.5" y="160.5" width="342" height="94" rx="19.5" stroke="white"/>
<path d="M35.78 200.168C35.18 200.168 34.644 200.064 34.172 199.856C33.7 199.64 33.328 199.316 33.056 198.884C32.784 198.444 32.648 197.888 32.648 197.216V196.988H33.416V197.216C33.416 197.992 33.636 198.568 34.076 198.944C34.524 199.312 35.092 199.496 35.78 199.496C36.476 199.496 37.012 199.336 37.388 199.016C37.764 198.688 37.952 198.272 37.952 197.768C37.952 197.432 37.868 197.164 37.7 196.964C37.54 196.756 37.312 196.592 37.016 196.472C36.728 196.344 36.392 196.232 36.008 196.136L35.24 195.944C34.784 195.824 34.376 195.676 34.016 195.5C33.656 195.316 33.372 195.08 33.164 194.792C32.956 194.496 32.852 194.12 32.852 193.664C32.852 193.208 32.968 192.812 33.2 192.476C33.44 192.14 33.768 191.884 34.184 191.708C34.6 191.524 35.084 191.432 35.636 191.432C36.188 191.432 36.684 191.528 37.124 191.72C37.572 191.912 37.924 192.196 38.18 192.572C38.444 192.94 38.576 193.404 38.576 193.964V194.528H37.808V193.964C37.808 193.524 37.712 193.168 37.52 192.896C37.328 192.624 37.068 192.424 36.74 192.296C36.412 192.168 36.044 192.104 35.636 192.104C35.052 192.104 34.568 192.24 34.184 192.512C33.808 192.776 33.62 193.16 33.62 193.664C33.62 194 33.696 194.268 33.848 194.468C34.008 194.668 34.228 194.828 34.508 194.948C34.796 195.068 35.132 195.176 35.516 195.272L36.284 195.464C36.724 195.568 37.128 195.708 37.496 195.884C37.864 196.052 38.16 196.288 38.384 196.592C38.608 196.888 38.72 197.28 38.72 197.768C38.72 198.256 38.596 198.68 38.348 199.04C38.108 199.4 37.768 199.68 37.328 199.88C36.888 200.072 36.372 200.168 35.78 200.168ZM42.5625 200C42.2505 200 42.0145 199.92 41.8545 199.76C41.7025 199.6 41.6265 199.376 41.6265 199.088V194.816H39.7545V194.168H41.6265V191.984H42.3465V194.168H44.3865V194.816H42.3465V198.992C42.3465 199.232 42.4665 199.352 42.7065 199.352H44.0745V200H42.5625ZM48.4706 200.168C47.8706 200.168 47.3466 200.044 46.8986 199.796C46.4586 199.54 46.1146 199.184 45.8666 198.728C45.6186 198.272 45.4946 197.748 45.4946 197.156V197.012C45.4946 196.412 45.6186 195.888 45.8666 195.44C46.1146 194.984 46.4546 194.632 46.8866 194.384C47.3266 194.128 47.8266 194 48.3866 194C48.9306 194 49.4106 194.116 49.8266 194.348C50.2506 194.572 50.5826 194.9 50.8226 195.332C51.0626 195.756 51.1826 196.264 51.1826 196.856V197.24H46.2146C46.2386 197.968 46.4586 198.532 46.8746 198.932C47.2986 199.324 47.8306 199.52 48.4706 199.52C49.0146 199.52 49.4346 199.396 49.7306 199.148C50.0346 198.9 50.2666 198.596 50.4266 198.236L51.0746 198.524C50.9546 198.788 50.7866 199.048 50.5706 199.304C50.3626 199.552 50.0906 199.76 49.7546 199.928C49.4186 200.088 48.9906 200.168 48.4706 200.168ZM46.2266 196.616H50.4506C50.4186 195.984 50.2146 195.5 49.8386 195.164C49.4626 194.82 48.9786 194.648 48.3866 194.648C47.8026 194.648 47.3186 194.82 46.9346 195.164C46.5506 195.5 46.3146 195.984 46.2266 196.616ZM52.9544 202.4V194.168H53.6504V195.236H53.7944C53.9624 194.916 54.2224 194.632 54.5744 194.384C54.9344 194.128 55.4344 194 56.0744 194C56.5944 194 57.0664 194.124 57.4904 194.372C57.9144 194.612 58.2504 194.956 58.4984 195.404C58.7544 195.852 58.8824 196.388 58.8824 197.012V197.156C58.8824 197.772 58.7584 198.308 58.5104 198.764C58.2624 199.212 57.9264 199.56 57.5024 199.808C57.0784 200.048 56.6024 200.168 56.0744 200.168C55.6504 200.168 55.2864 200.112 54.9824 200C54.6864 199.88 54.4424 199.728 54.2504 199.544C54.0664 199.36 53.9224 199.172 53.8184 198.98H53.6744V202.4H52.9544ZM55.9064 199.52C56.5704 199.52 57.1064 199.308 57.5144 198.884C57.9304 198.46 58.1384 197.876 58.1384 197.132V197.036C58.1384 196.292 57.9304 195.708 57.5144 195.284C57.1064 194.86 56.5704 194.648 55.9064 194.648C55.2504 194.648 54.7144 194.86 54.2984 195.284C53.8824 195.708 53.6744 196.292 53.6744 197.036V197.132C53.6744 197.876 53.8824 198.46 54.2984 198.884C54.7144 199.308 55.2504 199.52 55.9064 199.52ZM63.446 200V199.172C63.446 198.572 63.554 198.1 63.77 197.756C63.986 197.404 64.286 197.124 64.67 196.916C65.062 196.708 65.522 196.524 66.05 196.364L66.65 196.172C67.042 196.052 67.386 195.908 67.682 195.74C67.986 195.564 68.222 195.34 68.39 195.068C68.558 194.796 68.642 194.452 68.642 194.036V193.988C68.642 193.404 68.438 192.944 68.03 192.608C67.63 192.272 67.118 192.104 66.494 192.104C65.83 192.104 65.286 192.284 64.862 192.644C64.438 192.996 64.226 193.536 64.226 194.264V194.42H63.506V194.264C63.506 193.656 63.634 193.144 63.89 192.728C64.146 192.304 64.498 191.984 64.946 191.768C65.402 191.544 65.918 191.432 66.494 191.432C67.07 191.432 67.574 191.54 68.006 191.756C68.446 191.964 68.786 192.26 69.026 192.644C69.266 193.02 69.386 193.46 69.386 193.964V194.072C69.386 194.616 69.278 195.064 69.062 195.416C68.854 195.76 68.558 196.044 68.174 196.268C67.79 196.484 67.338 196.676 66.818 196.844L66.218 197.024C65.786 197.16 65.418 197.304 65.114 197.456C64.818 197.6 64.59 197.796 64.43 198.044C64.27 198.284 64.19 198.62 64.19 199.052V199.328H69.314V200H63.446Z" fill="#E6E6E6"/>
<path d="M32.3 223L35.81 212.2H38.0675L41.5775 223H39.95L36.7175 213.145H37.1225L33.9275 223H32.3ZM34.1225 220.562V219.092H39.7625V220.562H34.1225ZM46.388 223.225C45.558 223.225 44.853 223.04 44.273 222.67C43.693 222.3 43.248 221.792 42.938 221.147C42.633 220.502 42.478 219.77 42.473 218.95C42.478 218.115 42.638 217.377 42.953 216.737C43.268 216.092 43.718 215.587 44.303 215.222C44.888 214.857 45.5905 214.675 46.4105 214.675C47.2955 214.675 48.0505 214.895 48.6755 215.335C49.3055 215.775 49.7205 216.377 49.9205 217.142L48.3605 217.592C48.2055 217.137 47.9505 216.785 47.5955 216.535C47.2455 216.28 46.843 216.152 46.388 216.152C45.873 216.152 45.4505 216.275 45.1205 216.52C44.7905 216.76 44.5455 217.09 44.3855 217.51C44.2255 217.93 44.143 218.41 44.138 218.95C44.143 219.785 44.333 220.46 44.708 220.975C45.088 221.49 45.648 221.747 46.388 221.747C46.893 221.747 47.3005 221.632 47.6105 221.402C47.9255 221.167 48.1655 220.832 48.3305 220.397L49.9205 220.772C49.6555 221.562 49.218 222.17 48.608 222.595C47.998 223.015 47.258 223.225 46.388 223.225ZM56.0834 223C55.5734 223.1 55.0734 223.143 54.5834 223.128C54.0934 223.113 53.6559 223.017 53.2709 222.842C52.8859 222.667 52.5959 222.392 52.4009 222.017C52.2259 221.682 52.1309 221.342 52.1159 220.997C52.1059 220.647 52.1009 220.252 52.1009 219.812V212.65H53.6759V219.737C53.6759 220.062 53.6784 220.345 53.6834 220.585C53.6934 220.825 53.7459 221.027 53.8409 221.192C54.0209 221.502 54.3059 221.68 54.6959 221.725C55.0909 221.765 55.5534 221.747 56.0834 221.672V223ZM50.5484 216.16V214.9H56.0834V216.16H50.5484ZM57.9412 213.572V212.05H59.5087V213.572H57.9412ZM57.9412 223V214.9H59.5087V223H57.9412ZM63.9509 223L61.0109 214.9H62.5934L64.7459 221.035L66.8984 214.9H68.4809L65.5409 223H63.9509ZM71.6656 223.225C71.0656 223.225 70.5631 223.115 70.1581 222.895C69.7531 222.67 69.4456 222.375 69.2356 222.01C69.0306 221.64 68.9281 221.235 68.9281 220.795C68.9281 220.385 69.0006 220.025 69.1456 219.715C69.2906 219.405 69.5056 219.142 69.7906 218.927C70.0756 218.707 70.4256 218.53 70.8406 218.395C71.2006 218.29 71.6081 218.197 72.0631 218.117C72.5181 218.037 72.9956 217.962 73.4956 217.892C74.0006 217.822 74.5006 217.752 74.9956 217.682L74.4256 217.997C74.4356 217.362 74.3006 216.892 74.0206 216.587C73.7456 216.277 73.2706 216.122 72.5956 216.122C72.1706 216.122 71.7806 216.222 71.4256 216.422C71.0706 216.617 70.8231 216.942 70.6831 217.397L69.2206 216.947C69.4206 216.252 69.8006 215.7 70.3606 215.29C70.9256 214.88 71.6756 214.675 72.6106 214.675C73.3356 214.675 73.9656 214.8 74.5006 215.05C75.0406 215.295 75.4356 215.685 75.6856 216.22C75.8156 216.485 75.8956 216.765 75.9256 217.06C75.9556 217.355 75.9706 217.672 75.9706 218.012V223H74.5831V221.147L74.8531 221.387C74.5181 222.007 74.0906 222.47 73.5706 222.775C73.0556 223.075 72.4206 223.225 71.6656 223.225ZM71.9431 221.942C72.3881 221.942 72.7706 221.865 73.0906 221.71C73.4106 221.55 73.6681 221.347 73.8631 221.102C74.0581 220.857 74.1856 220.602 74.2456 220.337C74.3306 220.097 74.3781 219.827 74.3881 219.527C74.4031 219.227 74.4106 218.987 74.4106 218.807L74.9206 218.995C74.4256 219.07 73.9756 219.137 73.5706 219.197C73.1656 219.257 72.7981 219.317 72.4681 219.377C72.1431 219.432 71.8531 219.5 71.5981 219.58C71.3831 219.655 71.1906 219.745 71.0206 219.85C70.8556 219.955 70.7231 220.082 70.6231 220.232C70.5281 220.382 70.4806 220.565 70.4806 220.78C70.4806 220.99 70.5331 221.185 70.6381 221.365C70.7431 221.54 70.9031 221.68 71.1181 221.785C71.3331 221.89 71.6081 221.942 71.9431 221.942ZM82.5532 223C82.0432 223.1 81.5432 223.143 81.0532 223.128C80.5632 223.113 80.1257 223.017 79.7407 222.842C79.3557 222.667 79.0657 222.392 78.8707 222.017C78.6957 221.682 78.6007 221.342 78.5857 220.997C78.5757 220.647 78.5707 220.252 78.5707 219.812V212.65H80.1457V219.737C80.1457 220.062 80.1482 220.345 80.1532 220.585C80.1632 220.825 80.2157 221.027 80.3107 221.192C80.4907 221.502 80.7757 221.68 81.1657 221.725C81.5607 221.765 82.0232 221.747 82.5532 221.672V223ZM77.0182 216.16V214.9H82.5532V216.16H77.0182ZM87.4872 223.225C86.6822 223.225 85.9747 223.05 85.3647 222.7C84.7597 222.345 84.2872 221.852 83.9472 221.222C83.6122 220.587 83.4447 219.852 83.4447 219.017C83.4447 218.132 83.6097 217.365 83.9397 216.715C84.2747 216.065 84.7397 215.562 85.3347 215.207C85.9297 214.852 86.6222 214.675 87.4122 214.675C88.2372 214.675 88.9397 214.867 89.5197 215.253C90.0997 215.632 90.5322 216.175 90.8172 216.88C91.1072 217.585 91.2222 218.422 91.1622 219.392H89.5947V218.822C89.5847 217.882 89.4047 217.187 89.0547 216.737C88.7097 216.287 88.1822 216.062 87.4722 216.062C86.6872 216.062 86.0972 216.31 85.7022 216.805C85.3072 217.3 85.1097 218.015 85.1097 218.95C85.1097 219.84 85.3072 220.53 85.7022 221.02C86.0972 221.505 86.6672 221.747 87.4122 221.747C87.9022 221.747 88.3247 221.637 88.6797 221.417C89.0397 221.192 89.3197 220.872 89.5197 220.457L91.0572 220.945C90.7422 221.67 90.2647 222.232 89.6247 222.632C88.9847 223.027 88.2722 223.225 87.4872 223.225ZM84.5997 219.392V218.17H90.3822V219.392H84.5997ZM95.8479 223V212.2H102.245V213.767H97.4154V216.812H101.345V218.387H97.4154V223H95.8479ZM103.747 213.572V212.05H105.314V213.572H103.747ZM103.747 223V214.9H105.314V223H103.747ZM113.252 223V219.017C113.252 218.702 113.224 218.38 113.169 218.05C113.119 217.715 113.019 217.405 112.869 217.12C112.724 216.835 112.517 216.605 112.247 216.43C111.982 216.255 111.634 216.167 111.204 216.167C110.924 216.167 110.659 216.215 110.409 216.31C110.159 216.4 109.939 216.547 109.749 216.752C109.564 216.957 109.417 217.227 109.307 217.562C109.202 217.897 109.149 218.305 109.149 218.785L108.174 218.417C108.174 217.682 108.312 217.035 108.587 216.475C108.862 215.91 109.257 215.47 109.772 215.155C110.287 214.84 110.909 214.682 111.639 214.682C112.199 214.682 112.669 214.772 113.049 214.952C113.429 215.132 113.737 215.37 113.972 215.665C114.212 215.955 114.394 216.272 114.519 216.617C114.644 216.962 114.729 217.3 114.774 217.63C114.819 217.96 114.842 218.25 114.842 218.5V223H113.252ZM107.559 223V214.9H108.962V217.24H109.149V223H107.559ZM121.43 223C120.92 223.1 120.42 223.143 119.93 223.128C119.44 223.113 119.003 223.017 118.618 222.842C118.233 222.667 117.943 222.392 117.748 222.017C117.573 221.682 117.478 221.342 117.463 220.997C117.453 220.647 117.448 220.252 117.448 219.812V212.65H119.023V219.737C119.023 220.062 119.025 220.345 119.03 220.585C119.04 220.825 119.093 221.027 119.188 221.192C119.368 221.502 119.653 221.68 120.043 221.725C120.438 221.765 120.9 221.747 121.43 221.672V223ZM115.895 216.16V214.9H121.43V216.16H115.895ZM126.364 223.225C125.559 223.225 124.852 223.05 124.242 222.7C123.637 222.345 123.164 221.852 122.824 221.222C122.489 220.587 122.322 219.852 122.322 219.017C122.322 218.132 122.487 217.365 122.817 216.715C123.152 216.065 123.617 215.562 124.212 215.207C124.807 214.852 125.499 214.675 126.289 214.675C127.114 214.675 127.817 214.867 128.397 215.253C128.977 215.632 129.409 216.175 129.694 216.88C129.984 217.585 130.099 218.422 130.039 219.392H128.472V218.822C128.462 217.882 128.282 217.187 127.932 216.737C127.587 216.287 127.059 216.062 126.349 216.062C125.564 216.062 124.974 216.31 124.579 216.805C124.184 217.3 123.987 218.015 123.987 218.95C123.987 219.84 124.184 220.53 124.579 221.02C124.974 221.505 125.544 221.747 126.289 221.747C126.779 221.747 127.202 221.637 127.557 221.417C127.917 221.192 128.197 220.872 128.397 220.457L129.934 220.945C129.619 221.67 129.142 222.232 128.502 222.632C127.862 223.027 127.149 223.225 126.364 223.225ZM123.477 219.392V218.17H129.259V219.392H123.477ZM131.722 223V214.9H133.117V216.865L132.922 216.61C133.022 216.35 133.152 216.112 133.312 215.897C133.472 215.677 133.657 215.497 133.867 215.357C134.072 215.207 134.299 215.092 134.549 215.012C134.804 214.927 135.064 214.877 135.329 214.862C135.594 214.842 135.849 214.855 136.094 214.9V216.37C135.829 216.3 135.534 216.28 135.209 216.31C134.889 216.34 134.594 216.442 134.324 216.617C134.069 216.782 133.867 216.982 133.717 217.217C133.572 217.452 133.467 217.715 133.402 218.005C133.337 218.29 133.304 218.592 133.304 218.912V223H131.722ZM143.208 223V219.017C143.208 218.702 143.18 218.38 143.125 218.05C143.075 217.715 142.975 217.405 142.825 217.12C142.68 216.835 142.473 216.605 142.203 216.43C141.938 216.255 141.59 216.167 141.16 216.167C140.88 216.167 140.615 216.215 140.365 216.31C140.115 216.4 139.895 216.547 139.705 216.752C139.52 216.957 139.373 217.227 139.263 217.562C139.158 217.897 139.105 218.305 139.105 218.785L138.13 218.417C138.13 217.682 138.268 217.035 138.543 216.475C138.818 215.91 139.213 215.47 139.728 215.155C140.243 214.84 140.865 214.682 141.595 214.682C142.155 214.682 142.625 214.772 143.005 214.952C143.385 215.132 143.693 215.37 143.928 215.665C144.168 215.955 144.35 216.272 144.475 216.617C144.6 216.962 144.685 217.3 144.73 217.63C144.775 217.96 144.798 218.25 144.798 218.5V223H143.208ZM137.515 223V214.9H138.918V217.24H139.105V223H137.515ZM150.241 223.225C149.436 223.225 148.729 223.05 148.119 222.7C147.514 222.345 147.041 221.852 146.701 221.222C146.366 220.587 146.199 219.852 146.199 219.017C146.199 218.132 146.364 217.365 146.694 216.715C147.029 216.065 147.494 215.562 148.089 215.207C148.684 214.852 149.376 214.675 150.166 214.675C150.991 214.675 151.694 214.867 152.274 215.253C152.854 215.632 153.286 216.175 153.571 216.88C153.861 217.585 153.976 218.422 153.916 219.392H152.349V218.822C152.339 217.882 152.159 217.187 151.809 216.737C151.464 216.287 150.936 216.062 150.226 216.062C149.441 216.062 148.851 216.31 148.456 216.805C148.061 217.3 147.864 218.015 147.864 218.95C147.864 219.84 148.061 220.53 148.456 221.02C148.851 221.505 149.421 221.747 150.166 221.747C150.656 221.747 151.079 221.637 151.434 221.417C151.794 221.192 152.074 220.872 152.274 220.457L153.811 220.945C153.496 221.67 153.019 222.232 152.379 222.632C151.739 223.027 151.026 223.225 150.241 223.225ZM147.354 219.392V218.17H153.136V219.392H147.354ZM160.234 223C159.724 223.1 159.224 223.143 158.734 223.128C158.244 223.113 157.806 223.017 157.421 222.842C157.036 222.667 156.746 222.392 156.551 222.017C156.376 221.682 156.281 221.342 156.266 220.997C156.256 220.647 156.251 220.252 156.251 219.812V212.65H157.826V219.737C157.826 220.062 157.829 220.345 157.834 220.585C157.844 220.825 157.896 221.027 157.991 221.192C158.171 221.502 158.456 221.68 158.846 221.725C159.241 221.765 159.704 221.747 160.234 221.672V223ZM154.699 216.16V214.9H160.234V216.16H154.699ZM167.232 223.225C166.632 223.225 166.13 223.115 165.725 222.895C165.32 222.67 165.012 222.375 164.802 222.01C164.597 221.64 164.495 221.235 164.495 220.795C164.495 220.385 164.567 220.025 164.712 219.715C164.857 219.405 165.072 219.142 165.357 218.927C165.642 218.707 165.992 218.53 166.407 218.395C166.767 218.29 167.175 218.197 167.63 218.117C168.085 218.037 168.562 217.962 169.062 217.892C169.567 217.822 170.067 217.752 170.562 217.682L169.992 217.997C170.002 217.362 169.867 216.892 169.587 216.587C169.312 216.277 168.837 216.122 168.162 216.122C167.737 216.122 167.347 216.222 166.992 216.422C166.637 216.617 166.39 216.942 166.25 217.397L164.787 216.947C164.987 216.252 165.367 215.7 165.927 215.29C166.492 214.88 167.242 214.675 168.177 214.675C168.902 214.675 169.532 214.8 170.067 215.05C170.607 215.295 171.002 215.685 171.252 216.22C171.382 216.485 171.462 216.765 171.492 217.06C171.522 217.355 171.537 217.672 171.537 218.012V223H170.15V221.147L170.42 221.387C170.085 222.007 169.657 222.47 169.137 222.775C168.622 223.075 167.987 223.225 167.232 223.225ZM167.51 221.942C167.955 221.942 168.337 221.865 168.657 221.71C168.977 221.55 169.235 221.347 169.43 221.102C169.625 220.857 169.752 220.602 169.812 220.337C169.897 220.097 169.945 219.827 169.955 219.527C169.97 219.227 169.977 218.987 169.977 218.807L170.487 218.995C169.992 219.07 169.542 219.137 169.137 219.197C168.732 219.257 168.365 219.317 168.035 219.377C167.71 219.432 167.42 219.5 167.165 219.58C166.95 219.655 166.757 219.745 166.587 219.85C166.422 219.955 166.29 220.082 166.19 220.232C166.095 220.382 166.047 220.565 166.047 220.78C166.047 220.99 166.1 221.185 166.205 221.365C166.31 221.54 166.47 221.68 166.685 221.785C166.9 221.89 167.175 221.942 167.51 221.942ZM176.95 223.225C176.12 223.225 175.415 223.04 174.835 222.67C174.255 222.3 173.81 221.792 173.5 221.147C173.195 220.502 173.04 219.77 173.035 218.95C173.04 218.115 173.2 217.377 173.515 216.737C173.83 216.092 174.28 215.587 174.865 215.222C175.45 214.857 176.152 214.675 176.972 214.675C177.857 214.675 178.612 214.895 179.237 215.335C179.867 215.775 180.282 216.377 180.482 217.142L178.922 217.592C178.767 217.137 178.512 216.785 178.157 216.535C177.807 216.28 177.405 216.152 176.95 216.152C176.435 216.152 176.012 216.275 175.682 216.52C175.352 216.76 175.107 217.09 174.947 217.51C174.787 217.93 174.705 218.41 174.7 218.95C174.705 219.785 174.895 220.46 175.27 220.975C175.65 221.49 176.21 221.747 176.95 221.747C177.455 221.747 177.862 221.632 178.172 221.402C178.487 221.167 178.727 220.832 178.892 220.397L180.482 220.772C180.217 221.562 179.78 222.17 179.17 222.595C178.56 223.015 177.82 223.225 176.95 223.225ZM185.255 223.225C184.425 223.225 183.72 223.04 183.14 222.67C182.56 222.3 182.115 221.792 181.805 221.147C181.5 220.502 181.345 219.77 181.34 218.95C181.345 218.115 181.505 217.377 181.82 216.737C182.135 216.092 182.585 215.587 183.17 215.222C183.755 214.857 184.458 214.675 185.278 214.675C186.163 214.675 186.918 214.895 187.543 215.335C188.173 215.775 188.588 216.377 188.788 217.142L187.228 217.592C187.073 217.137 186.818 216.785 186.463 216.535C186.113 216.28 185.71 216.152 185.255 216.152C184.74 216.152 184.318 216.275 183.988 216.52C183.658 216.76 183.413 217.09 183.253 217.51C183.093 217.93 183.01 218.41 183.005 218.95C183.01 219.785 183.2 220.46 183.575 220.975C183.955 221.49 184.515 221.747 185.255 221.747C185.76 221.747 186.168 221.632 186.478 221.402C186.793 221.167 187.033 220.832 187.198 220.397L188.788 220.772C188.523 221.562 188.085 222.17 187.475 222.595C186.865 223.015 186.125 223.225 185.255 223.225ZM193.613 223.225C192.803 223.225 192.101 223.043 191.506 222.677C190.911 222.312 190.451 221.81 190.126 221.17C189.806 220.525 189.646 219.782 189.646 218.942C189.646 218.097 189.811 217.355 190.141 216.715C190.471 216.07 190.933 215.57 191.528 215.215C192.123 214.855 192.818 214.675 193.613 214.675C194.423 214.675 195.126 214.857 195.721 215.222C196.316 215.587 196.776 216.09 197.101 216.73C197.426 217.37 197.588 218.107 197.588 218.942C197.588 219.787 197.423 220.532 197.093 221.177C196.768 221.817 196.308 222.32 195.713 222.685C195.118 223.045 194.418 223.225 193.613 223.225ZM193.613 221.747C194.388 221.747 194.966 221.487 195.346 220.967C195.731 220.442 195.923 219.767 195.923 218.942C195.923 218.097 195.728 217.422 195.338 216.917C194.953 216.407 194.378 216.152 193.613 216.152C193.088 216.152 192.656 216.272 192.316 216.512C191.976 216.747 191.723 217.075 191.558 217.495C191.393 217.91 191.311 218.392 191.311 218.942C191.311 219.792 191.506 220.472 191.896 220.982C192.286 221.492 192.858 221.747 193.613 221.747ZM202.289 223.218C201.729 223.218 201.259 223.128 200.879 222.947C200.499 222.767 200.189 222.532 199.949 222.242C199.714 221.947 199.534 221.627 199.409 221.282C199.284 220.937 199.199 220.6 199.154 220.27C199.109 219.94 199.087 219.65 199.087 219.4V214.9H200.677V218.882C200.677 219.197 200.702 219.522 200.752 219.857C200.807 220.187 200.907 220.495 201.052 220.78C201.202 221.065 201.409 221.295 201.674 221.47C201.944 221.645 202.294 221.732 202.724 221.732C203.004 221.732 203.269 221.687 203.519 221.597C203.769 221.502 203.987 221.352 204.172 221.147C204.362 220.942 204.509 220.672 204.614 220.337C204.724 220.002 204.779 219.595 204.779 219.115L205.754 219.482C205.754 220.217 205.617 220.867 205.342 221.432C205.067 221.992 204.672 222.43 204.157 222.745C203.642 223.06 203.019 223.218 202.289 223.218ZM204.967 223V220.66H204.779V214.9H206.362V223H204.967ZM214.15 223V219.017C214.15 218.702 214.123 218.38 214.068 218.05C214.018 217.715 213.918 217.405 213.768 217.12C213.623 216.835 213.415 216.605 213.145 216.43C212.88 216.255 212.533 216.167 212.103 216.167C211.823 216.167 211.558 216.215 211.308 216.31C211.058 216.4 210.838 216.547 210.648 216.752C210.463 216.957 210.315 217.227 210.205 217.562C210.1 217.897 210.048 218.305 210.048 218.785L209.073 218.417C209.073 217.682 209.21 217.035 209.485 216.475C209.76 215.91 210.155 215.47 210.67 215.155C211.185 214.84 211.808 214.682 212.538 214.682C213.098 214.682 213.568 214.772 213.948 214.952C214.328 215.132 214.635 215.37 214.87 215.665C215.11 215.955 215.293 216.272 215.418 216.617C215.543 216.962 215.628 217.3 215.673 217.63C215.718 217.96 215.74 218.25 215.74 218.5V223H214.15ZM208.458 223V214.9H209.86V217.24H210.048V223H208.458ZM222.329 223C221.819 223.1 221.319 223.143 220.829 223.128C220.339 223.113 219.901 223.017 219.516 222.842C219.131 222.667 218.841 222.392 218.646 222.017C218.471 221.682 218.376 221.342 218.361 220.997C218.351 220.647 218.346 220.252 218.346 219.812V212.65H219.921V219.737C219.921 220.062 219.924 220.345 219.929 220.585C219.939 220.825 219.991 221.027 220.086 221.192C220.266 221.502 220.551 221.68 220.941 221.725C221.336 221.765 221.799 221.747 222.329 221.672V223ZM216.794 216.16V214.9H222.329V216.16H216.794Z" fill="white"/>
<rect x="255" y="192" width="72" height="20" rx="10" fill="white"/>
<path d="M267.876 206V197.6H271.212C271.724 197.6 272.18 197.704 272.58 197.912C272.988 198.112 273.304 198.4 273.528 198.776C273.76 199.144 273.876 199.588 273.876 200.108V200.264C273.876 200.784 273.756 201.232 273.516 201.608C273.284 201.984 272.968 202.272 272.568 202.472C272.168 202.672 271.716 202.772 271.212 202.772H269.172V206H267.876ZM269.172 201.596H271.08C271.536 201.596 271.9 201.476 272.172 201.236C272.444 200.996 272.58 200.668 272.58 200.252V200.132C272.58 199.708 272.444 199.376 272.172 199.136C271.9 198.896 271.536 198.776 271.08 198.776H269.172V201.596ZM277.69 206.168C277.09 206.168 276.566 206.044 276.118 205.796C275.67 205.54 275.318 205.184 275.062 204.728C274.814 204.264 274.69 203.728 274.69 203.12V202.976C274.69 202.36 274.814 201.824 275.062 201.368C275.31 200.904 275.654 200.548 276.094 200.3C276.542 200.044 277.058 199.916 277.642 199.916C278.21 199.916 278.706 200.044 279.13 200.3C279.562 200.548 279.898 200.896 280.138 201.344C280.378 201.792 280.498 202.316 280.498 202.916V203.384H275.95C275.966 203.904 276.138 204.32 276.466 204.632C276.802 204.936 277.218 205.088 277.714 205.088C278.178 205.088 278.526 204.984 278.758 204.776C278.998 204.568 279.182 204.328 279.31 204.056L280.33 204.584C280.218 204.808 280.054 205.044 279.838 205.292C279.63 205.54 279.354 205.748 279.01 205.916C278.666 206.084 278.226 206.168 277.69 206.168ZM275.962 202.436H279.238C279.206 201.988 279.046 201.64 278.758 201.392C278.47 201.136 278.094 201.008 277.63 201.008C277.166 201.008 276.786 201.136 276.49 201.392C276.202 201.64 276.026 201.988 275.962 202.436ZM281.986 206V200.084H283.198V200.972H283.39C283.502 200.732 283.702 200.508 283.99 200.3C284.278 200.092 284.706 199.988 285.274 199.988C285.722 199.988 286.118 200.088 286.462 200.288C286.814 200.488 287.09 200.772 287.29 201.14C287.49 201.5 287.59 201.936 287.59 202.448V206H286.354V202.544C286.354 202.032 286.226 201.656 285.97 201.416C285.714 201.168 285.362 201.044 284.914 201.044C284.402 201.044 283.99 201.212 283.678 201.548C283.374 201.884 283.222 202.372 283.222 203.012V206H281.986ZM291.817 206.168C291.329 206.168 290.877 206.048 290.461 205.808C290.045 205.568 289.709 205.224 289.453 204.776C289.205 204.32 289.081 203.772 289.081 203.132V202.952C289.081 202.32 289.205 201.776 289.453 201.32C289.701 200.864 290.033 200.516 290.449 200.276C290.865 200.036 291.321 199.916 291.817 199.916C292.201 199.916 292.521 199.964 292.777 200.06C293.041 200.156 293.257 200.28 293.425 200.432C293.593 200.576 293.721 200.728 293.809 200.888H294.001V197.6H295.237V206H294.025V205.16H293.833C293.681 205.416 293.449 205.648 293.137 205.856C292.833 206.064 292.393 206.168 291.817 206.168ZM292.165 205.088C292.701 205.088 293.141 204.916 293.485 204.572C293.837 204.228 294.013 203.736 294.013 203.096V202.988C294.013 202.356 293.841 201.868 293.497 201.524C293.153 201.18 292.709 201.008 292.165 201.008C291.637 201.008 291.197 201.18 290.845 201.524C290.501 201.868 290.329 202.356 290.329 202.988V203.096C290.329 203.736 290.501 204.228 290.845 204.572C291.197 204.916 291.637 205.088 292.165 205.088ZM297.057 206V200.084H298.293V206H297.057ZM297.681 199.28C297.441 199.28 297.237 199.204 297.069 199.052C296.909 198.892 296.829 198.688 296.829 198.44C296.829 198.192 296.909 197.992 297.069 197.84C297.237 197.68 297.441 197.6 297.681 197.6C297.929 197.6 298.133 197.68 298.293 197.84C298.453 197.992 298.533 198.192 298.533 198.44C298.533 198.688 298.453 198.892 298.293 199.052C298.133 199.204 297.929 199.28 297.681 199.28ZM300.127 206V200.084H301.339V200.972H301.531C301.643 200.732 301.843 200.508 302.131 200.3C302.419 200.092 302.847 199.988 303.415 199.988C303.863 199.988 304.259 200.088 304.603 200.288C304.955 200.488 305.231 200.772 305.431 201.14C305.631 201.5 305.731 201.936 305.731 202.448V206H304.495V202.544C304.495 202.032 304.367 201.656 304.111 201.416C303.855 201.168 303.503 201.044 303.055 201.044C302.543 201.044 302.131 201.212 301.819 201.548C301.515 201.884 301.363 202.372 301.363 203.012V206H300.127ZM307.222 203.072V202.892C307.222 202.268 307.346 201.736 307.594 201.296C307.85 200.856 308.186 200.516 308.602 200.276C309.018 200.036 309.474 199.916 309.97 199.916C310.546 199.916 310.986 200.024 311.29 200.24C311.602 200.456 311.83 200.688 311.974 200.936H312.166V200.084H313.366V207.212C313.366 207.572 313.258 207.86 313.042 208.076C312.834 208.292 312.546 208.4 312.178 208.4H308.194V207.32H311.794C312.026 207.32 312.142 207.2 312.142 206.96V205.076H311.95C311.862 205.22 311.738 205.368 311.578 205.52C311.418 205.672 311.206 205.796 310.942 205.892C310.686 205.988 310.362 206.036 309.97 206.036C309.474 206.036 309.014 205.92 308.59 205.688C308.174 205.448 307.842 205.108 307.594 204.668C307.346 204.22 307.222 203.688 307.222 203.072ZM310.306 204.956C310.842 204.956 311.282 204.788 311.626 204.452C311.978 204.108 312.154 203.636 312.154 203.036V202.928C312.154 202.312 311.982 201.84 311.638 201.512C311.294 201.176 310.85 201.008 310.306 201.008C309.778 201.008 309.338 201.176 308.986 201.512C308.642 201.84 308.47 202.312 308.47 202.928V203.036C308.47 203.636 308.642 204.108 308.986 204.452C309.338 204.788 309.778 204.956 310.306 204.956Z" fill="#595959"/>
<rect x="42" y="270" width="2" height="27" fill="#868686"/>
<rect x="8.5" y="312.5" width="342" height="94" rx="19.5" stroke="white"/>
<path d="M35.78 352.168C35.18 352.168 34.644 352.064 34.172 351.856C33.7 351.64 33.328 351.316 33.056 350.884C32.784 350.444 32.648 349.888 32.648 349.216V348.988H33.416V349.216C33.416 349.992 33.636 350.568 34.076 350.944C34.524 351.312 35.092 351.496 35.78 351.496C36.476 351.496 37.012 351.336 37.388 351.016C37.764 350.688 37.952 350.272 37.952 349.768C37.952 349.432 37.868 349.164 37.7 348.964C37.54 348.756 37.312 348.592 37.016 348.472C36.728 348.344 36.392 348.232 36.008 348.136L35.24 347.944C34.784 347.824 34.376 347.676 34.016 347.5C33.656 347.316 33.372 347.08 33.164 346.792C32.956 346.496 32.852 346.12 32.852 345.664C32.852 345.208 32.968 344.812 33.2 344.476C33.44 344.14 33.768 343.884 34.184 343.708C34.6 343.524 35.084 343.432 35.636 343.432C36.188 343.432 36.684 343.528 37.124 343.72C37.572 343.912 37.924 344.196 38.18 344.572C38.444 344.94 38.576 345.404 38.576 345.964V346.528H37.808V345.964C37.808 345.524 37.712 345.168 37.52 344.896C37.328 344.624 37.068 344.424 36.74 344.296C36.412 344.168 36.044 344.104 35.636 344.104C35.052 344.104 34.568 344.24 34.184 344.512C33.808 344.776 33.62 345.16 33.62 345.664C33.62 346 33.696 346.268 33.848 346.468C34.008 346.668 34.228 346.828 34.508 346.948C34.796 347.068 35.132 347.176 35.516 347.272L36.284 347.464C36.724 347.568 37.128 347.708 37.496 347.884C37.864 348.052 38.16 348.288 38.384 348.592C38.608 348.888 38.72 349.28 38.72 349.768C38.72 350.256 38.596 350.68 38.348 351.04C38.108 351.4 37.768 351.68 37.328 351.88C36.888 352.072 36.372 352.168 35.78 352.168ZM42.5625 352C42.2505 352 42.0145 351.92 41.8545 351.76C41.7025 351.6 41.6265 351.376 41.6265 351.088V346.816H39.7545V346.168H41.6265V343.984H42.3465V346.168H44.3865V346.816H42.3465V350.992C42.3465 351.232 42.4665 351.352 42.7065 351.352H44.0745V352H42.5625ZM48.4706 352.168C47.8706 352.168 47.3466 352.044 46.8986 351.796C46.4586 351.54 46.1146 351.184 45.8666 350.728C45.6186 350.272 45.4946 349.748 45.4946 349.156V349.012C45.4946 348.412 45.6186 347.888 45.8666 347.44C46.1146 346.984 46.4546 346.632 46.8866 346.384C47.3266 346.128 47.8266 346 48.3866 346C48.9306 346 49.4106 346.116 49.8266 346.348C50.2506 346.572 50.5826 346.9 50.8226 347.332C51.0626 347.756 51.1826 348.264 51.1826 348.856V349.24H46.2146C46.2386 349.968 46.4586 350.532 46.8746 350.932C47.2986 351.324 47.8306 351.52 48.4706 351.52C49.0146 351.52 49.4346 351.396 49.7306 351.148C50.0346 350.9 50.2666 350.596 50.4266 350.236L51.0746 350.524C50.9546 350.788 50.7866 351.048 50.5706 351.304C50.3626 351.552 50.0906 351.76 49.7546 351.928C49.4186 352.088 48.9906 352.168 48.4706 352.168ZM46.2266 348.616H50.4506C50.4186 347.984 50.2146 347.5 49.8386 347.164C49.4626 346.82 48.9786 346.648 48.3866 346.648C47.8026 346.648 47.3186 346.82 46.9346 347.164C46.5506 347.5 46.3146 347.984 46.2266 348.616ZM52.9544 354.4V346.168H53.6504V347.236H53.7944C53.9624 346.916 54.2224 346.632 54.5744 346.384C54.9344 346.128 55.4344 346 56.0744 346C56.5944 346 57.0664 346.124 57.4904 346.372C57.9144 346.612 58.2504 346.956 58.4984 347.404C58.7544 347.852 58.8824 348.388 58.8824 349.012V349.156C58.8824 349.772 58.7584 350.308 58.5104 350.764C58.2624 351.212 57.9264 351.56 57.5024 351.808C57.0784 352.048 56.6024 352.168 56.0744 352.168C55.6504 352.168 55.2864 352.112 54.9824 352C54.6864 351.88 54.4424 351.728 54.2504 351.544C54.0664 351.36 53.9224 351.172 53.8184 350.98H53.6744V354.4H52.9544ZM55.9064 351.52C56.5704 351.52 57.1064 351.308 57.5144 350.884C57.9304 350.46 58.1384 349.876 58.1384 349.132V349.036C58.1384 348.292 57.9304 347.708 57.5144 347.284C57.1064 346.86 56.5704 346.648 55.9064 346.648C55.2504 346.648 54.7144 346.86 54.2984 347.284C53.8824 347.708 53.6744 348.292 53.6744 349.036V349.132C53.6744 349.876 53.8824 350.46 54.2984 350.884C54.7144 351.308 55.2504 351.52 55.9064 351.52ZM66.386 352.168C65.802 352.168 65.278 352.056 64.814 351.832C64.358 351.608 63.998 351.284 63.734 350.86C63.478 350.428 63.35 349.908 63.35 349.3V349.072H64.094V349.312C64.094 349.992 64.306 350.528 64.73 350.92C65.154 351.304 65.706 351.496 66.386 351.496C67.074 351.496 67.61 351.312 67.994 350.944C68.378 350.576 68.57 350.112 68.57 349.552V349.48C68.57 349.064 68.47 348.728 68.27 348.472C68.078 348.216 67.814 348.028 67.478 347.908C67.15 347.78 66.786 347.716 66.386 347.716H65.15V346.708L68.558 344.392V344.272H63.542V343.6H69.302V344.68L65.93 346.972V347.092H66.59C67.11 347.092 67.574 347.184 67.982 347.368C68.39 347.544 68.714 347.808 68.954 348.16C69.194 348.504 69.314 348.936 69.314 349.456V349.576C69.314 350.096 69.194 350.552 68.954 350.944C68.714 351.328 68.374 351.628 67.934 351.844C67.494 352.06 66.978 352.168 66.386 352.168Z" fill="#E6E6E6"/>
<path d="M33.05 375V364.2H39.4475V365.767H34.6175V368.812H38.5475V370.387H34.6175V375H33.05ZM40.949 365.572V364.05H42.5165V365.572H40.949ZM40.949 375V366.9H42.5165V375H40.949ZM50.4538 375V371.017C50.4538 370.702 50.4263 370.38 50.3713 370.05C50.3213 369.715 50.2213 369.405 50.0713 369.12C49.9263 368.835 49.7188 368.605 49.4488 368.43C49.1838 368.255 48.8363 368.167 48.4062 368.167C48.1263 368.167 47.8613 368.215 47.6113 368.31C47.3613 368.4 47.1413 368.547 46.9513 368.752C46.7663 368.957 46.6188 369.227 46.5088 369.562C46.4038 369.897 46.3513 370.305 46.3513 370.785L45.3763 370.417C45.3763 369.682 45.5138 369.035 45.7888 368.475C46.0638 367.91 46.4588 367.47 46.9738 367.155C47.4888 366.84 48.1113 366.682 48.8413 366.682C49.4013 366.682 49.8713 366.772 50.2513 366.952C50.6313 367.132 50.9388 367.37 51.1738 367.665C51.4138 367.955 51.5963 368.272 51.7213 368.617C51.8463 368.962 51.9313 369.3 51.9763 369.63C52.0213 369.96 52.0438 370.25 52.0438 370.5V375H50.4538ZM44.7613 375V366.9H46.1638V369.24H46.3513V375H44.7613ZM54.1473 365.572V364.05H55.7148V365.572H54.1473ZM54.1473 375V366.9H55.7148V375H54.1473ZM61.0645 375.218C60.0795 375.218 59.277 375 58.657 374.565C58.037 374.13 57.657 373.517 57.517 372.727L59.122 372.48C59.222 372.9 59.452 373.232 59.812 373.477C60.177 373.717 60.6295 373.837 61.1695 373.837C61.6595 373.837 62.042 373.737 62.317 373.537C62.597 373.337 62.737 373.062 62.737 372.712C62.737 372.507 62.687 372.342 62.587 372.217C62.492 372.087 62.2895 371.965 61.9795 371.85C61.6695 371.735 61.197 371.592 60.562 371.422C59.867 371.242 59.3145 371.05 58.9045 370.845C58.4995 370.635 58.2095 370.392 58.0345 370.117C57.8645 369.837 57.7795 369.5 57.7795 369.105C57.7795 368.615 57.9095 368.187 58.1695 367.822C58.4295 367.457 58.7945 367.175 59.2645 366.975C59.7395 366.775 60.2945 366.675 60.9295 366.675C61.5495 366.675 62.102 366.772 62.587 366.967C63.072 367.162 63.4645 367.44 63.7645 367.8C64.0645 368.155 64.2445 368.572 64.3045 369.052L62.6995 369.345C62.6445 368.955 62.462 368.647 62.152 368.422C61.842 368.197 61.4395 368.075 60.9445 368.055C60.4695 368.035 60.0845 368.115 59.7895 368.295C59.4945 368.47 59.347 368.712 59.347 369.022C59.347 369.202 59.402 369.355 59.512 369.48C59.627 369.605 59.847 369.725 60.172 369.84C60.497 369.955 60.977 370.092 61.612 370.252C62.292 370.427 62.832 370.622 63.232 370.837C63.632 371.047 63.917 371.3 64.087 371.595C64.262 371.885 64.3495 372.237 64.3495 372.652C64.3495 373.452 64.057 374.08 63.472 374.535C62.892 374.99 62.0895 375.218 61.0645 375.218ZM71.694 375V371.017C71.694 370.702 71.6665 370.38 71.6115 370.05C71.5615 369.715 71.4615 369.405 71.3115 369.12C71.1665 368.835 70.959 368.605 70.689 368.43C70.424 368.255 70.0765 368.167 69.6465 368.167C69.3665 368.167 69.1015 368.215 68.8515 368.31C68.6015 368.4 68.3815 368.547 68.1915 368.752C68.0065 368.957 67.859 369.227 67.749 369.562C67.644 369.897 67.5915 370.305 67.5915 370.785L66.6165 370.417C66.6165 369.682 66.754 369.035 67.029 368.475C67.304 367.91 67.699 367.47 68.214 367.155C68.729 366.84 69.3515 366.682 70.0815 366.682C70.6415 366.682 71.1115 366.772 71.4915 366.952C71.8715 367.132 72.179 367.37 72.414 367.665C72.654 367.955 72.8365 368.272 72.9615 368.617C73.0865 368.962 73.1715 369.3 73.2165 369.63C73.2615 369.96 73.284 370.25 73.284 370.5V375H71.694ZM66.0015 375V364.2H67.404V370.027H67.5915V375H66.0015ZM75.9875 375V373.477H77.555V375H75.9875ZM75.9875 372.3V364.2H77.555V372.3H75.9875Z" fill="white"/>
<rect x="255" y="344" width="72" height="20" rx="10" fill="white"/>
<path d="M267.876 358V349.6H271.212C271.724 349.6 272.18 349.704 272.58 349.912C272.988 350.112 273.304 350.4 273.528 350.776C273.76 351.144 273.876 351.588 273.876 352.108V352.264C273.876 352.784 273.756 353.232 273.516 353.608C273.284 353.984 272.968 354.272 272.568 354.472C272.168 354.672 271.716 354.772 271.212 354.772H269.172V358H267.876ZM269.172 353.596H271.08C271.536 353.596 271.9 353.476 272.172 353.236C272.444 352.996 272.58 352.668 272.58 352.252V352.132C272.58 351.708 272.444 351.376 272.172 351.136C271.9 350.896 271.536 350.776 271.08 350.776H269.172V353.596ZM277.69 358.168C277.09 358.168 276.566 358.044 276.118 357.796C275.67 357.54 275.318 357.184 275.062 356.728C274.814 356.264 274.69 355.728 274.69 355.12V354.976C274.69 354.36 274.814 353.824 275.062 353.368C275.31 352.904 275.654 352.548 276.094 352.3C276.542 352.044 277.058 351.916 277.642 351.916C278.21 351.916 278.706 352.044 279.13 352.3C279.562 352.548 279.898 352.896 280.138 353.344C280.378 353.792 280.498 354.316 280.498 354.916V355.384H275.95C275.966 355.904 276.138 356.32 276.466 356.632C276.802 356.936 277.218 357.088 277.714 357.088C278.178 357.088 278.526 356.984 278.758 356.776C278.998 356.568 279.182 356.328 279.31 356.056L280.33 356.584C280.218 356.808 280.054 357.044 279.838 357.292C279.63 357.54 279.354 357.748 279.01 357.916C278.666 358.084 278.226 358.168 277.69 358.168ZM275.962 354.436H279.238C279.206 353.988 279.046 353.64 278.758 353.392C278.47 353.136 278.094 353.008 277.63 353.008C277.166 353.008 276.786 353.136 276.49 353.392C276.202 353.64 276.026 353.988 275.962 354.436ZM281.986 358V352.084H283.198V352.972H283.39C283.502 352.732 283.702 352.508 283.99 352.3C284.278 352.092 284.706 351.988 285.274 351.988C285.722 351.988 286.118 352.088 286.462 352.288C286.814 352.488 287.09 352.772 287.29 353.14C287.49 353.5 287.59 353.936 287.59 354.448V358H286.354V354.544C286.354 354.032 286.226 353.656 285.97 353.416C285.714 353.168 285.362 353.044 284.914 353.044C284.402 353.044 283.99 353.212 283.678 353.548C283.374 353.884 283.222 354.372 283.222 355.012V358H281.986ZM291.817 358.168C291.329 358.168 290.877 358.048 290.461 357.808C290.045 357.568 289.709 357.224 289.453 356.776C289.205 356.32 289.081 355.772 289.081 355.132V354.952C289.081 354.32 289.205 353.776 289.453 353.32C289.701 352.864 290.033 352.516 290.449 352.276C290.865 352.036 291.321 351.916 291.817 351.916C292.201 351.916 292.521 351.964 292.777 352.06C293.041 352.156 293.257 352.28 293.425 352.432C293.593 352.576 293.721 352.728 293.809 352.888H294.001V349.6H295.237V358H294.025V357.16H293.833C293.681 357.416 293.449 357.648 293.137 357.856C292.833 358.064 292.393 358.168 291.817 358.168ZM292.165 357.088C292.701 357.088 293.141 356.916 293.485 356.572C293.837 356.228 294.013 355.736 294.013 355.096V354.988C294.013 354.356 293.841 353.868 293.497 353.524C293.153 353.18 292.709 353.008 292.165 353.008C291.637 353.008 291.197 353.18 290.845 353.524C290.501 353.868 290.329 354.356 290.329 354.988V355.096C290.329 355.736 290.501 356.228 290.845 356.572C291.197 356.916 291.637 357.088 292.165 357.088ZM297.057 358V352.084H298.293V358H297.057ZM297.681 351.28C297.441 351.28 297.237 351.204 297.069 351.052C296.909 350.892 296.829 350.688 296.829 350.44C296.829 350.192 296.909 349.992 297.069 349.84C297.237 349.68 297.441 349.6 297.681 349.6C297.929 349.6 298.133 349.68 298.293 349.84C298.453 349.992 298.533 350.192 298.533 350.44C298.533 350.688 298.453 350.892 298.293 351.052C298.133 351.204 297.929 351.28 297.681 351.28ZM300.127 358V352.084H301.339V352.972H301.531C301.643 352.732 301.843 352.508 302.131 352.3C302.419 352.092 302.847 351.988 303.415 351.988C303.863 351.988 304.259 352.088 304.603 352.288C304.955 352.488 305.231 352.772 305.431 353.14C305.631 353.5 305.731 353.936 305.731 354.448V358H304.495V354.544C304.495 354.032 304.367 353.656 304.111 353.416C303.855 353.168 303.503 353.044 303.055 353.044C302.543 353.044 302.131 353.212 301.819 353.548C301.515 353.884 301.363 354.372 301.363 355.012V358H300.127ZM307.222 355.072V354.892C307.222 354.268 307.346 353.736 307.594 353.296C307.85 352.856 308.186 352.516 308.602 352.276C309.018 352.036 309.474 351.916 309.97 351.916C310.546 351.916 310.986 352.024 311.29 352.24C311.602 352.456 311.83 352.688 311.974 352.936H312.166V352.084H313.366V359.212C313.366 359.572 313.258 359.86 313.042 360.076C312.834 360.292 312.546 360.4 312.178 360.4H308.194V359.32H311.794C312.026 359.32 312.142 359.2 312.142 358.96V357.076H311.95C311.862 357.22 311.738 357.368 311.578 357.52C311.418 357.672 311.206 357.796 310.942 357.892C310.686 357.988 310.362 358.036 309.97 358.036C309.474 358.036 309.014 357.92 308.59 357.688C308.174 357.448 307.842 357.108 307.594 356.668C307.346 356.22 307.222 355.688 307.222 355.072ZM310.306 356.956C310.842 356.956 311.282 356.788 311.626 356.452C311.978 356.108 312.154 355.636 312.154 355.036V354.928C312.154 354.312 311.982 353.84 311.638 353.512C311.294 353.176 310.85 353.008 310.306 353.008C309.778 353.008 309.338 353.176 308.986 353.512C308.642 353.84 308.47 354.312 308.47 354.928V355.036C308.47 355.636 308.642 356.108 308.986 356.452C309.338 356.788 309.778 356.956 310.306 356.956Z" fill="#595959"/>
<defs>
<filter id="filter0_d_1131_3250" x="4" y="4" width="351" height="103" filterUnits="userSpaceOnUse" color-interpolation-filters="sRGB">
<feFlood flood-opacity="0" result="BackgroundImageFix"/>
<feColorMatrix in="SourceAlpha" type="matrix" values="0 0 0 0 0 0 0 0 0 0 0 0 0 0 0 0 0 0 127 0" result="hardAlpha"/>
<feOffset/>
<feGaussianBlur stdDeviation="2"/>
<feComposite in2="hardAlpha" operator="out"/>
<feColorMatrix type="matrix" values="0 0 0 0 0 0 0 0 0 0 0 0 0 0 0 0 0 0 0.15 0"/>
<feBlend mode="normal" in2="BackgroundImageFix" result="effect1_dropShadow_1131_3250"/>
<feBlend mode="normal" in="SourceGraphic" in2="effect1_dropShadow_1131_3250" result="shape"/>
</filter>
</defs>
</svg>
